<svg xmlns="http://www.w3.org/2000/svg" width="40" height="40" viewBox="0 0 40 40" fill="none">
  <path fill-rule="evenodd" clip-rule="evenodd" d="M25.9039 14.7039C25.4274 14.704 24.9615 14.5628 24.5652 14.2982C24.1689 14.0335 23.86 13.6573 23.6776 13.217C23.4952 12.7768 23.4474 12.2924 23.5403 11.825C23.6332 11.3576 23.8626 10.9283 24.1995 10.5913C24.5365 10.2543 24.9657 10.0248 25.4331 9.93178C25.9005 9.83878 26.3849 9.88648 26.8252 10.0688C27.2655 10.2512 27.6418 10.56 27.9065 10.9562C28.1712 11.3525 28.3125 11.8183 28.3125 12.2948C28.3117 12.9334 28.0577 13.5457 27.6062 13.9973C27.1547 14.4489 26.5425 14.703 25.9039 14.7039ZM15.5117 11.5643C15.0352 11.5643 14.5694 11.423 14.1732 11.1582C13.777 10.8935 13.4682 10.5172 13.2859 10.0769C13.1036 9.63671 13.0559 9.15229 13.1489 8.68494C13.2419 8.2176 13.4713 7.78833 13.8083 7.45141C14.1452 7.11449 14.5745 6.88505 15.0419 6.79211C15.5092 6.69918 15.9937 6.74692 16.4339 6.92929C16.8741 7.11166 17.2503 7.42048 17.5151 7.8167C17.7798 8.21291 17.921 8.67872 17.921 9.15522C17.9204 9.79399 17.6663 10.4064 17.2146 10.8581C16.7629 11.3097 16.1505 11.5637 15.5117 11.5643ZM4.72264 18.9932C4.24614 18.9932 3.78036 18.8518 3.38418 18.5871C2.98801 18.3223 2.67924 17.946 2.49691 17.5058C2.31459 17.0656 2.26691 16.5812 2.35989 16.1138C2.45288 15.6465 2.68235 15.2172 3.0193 14.8803C3.35625 14.5434 3.78554 14.314 4.25288 14.221C4.72023 14.1281 5.20464 14.1758 5.64485 14.3582C6.08507 14.5405 6.46132 14.8494 6.72604 15.2456C6.99075 15.6418 7.13203 16.1076 7.13201 16.584C7.13125 17.2228 6.87715 17.8352 6.42546 18.2868C5.97378 18.7384 5.36139 18.9925 4.72264 18.9932ZM35.2781 4.336C35.7546 4.33603 36.2204 4.47736 36.6166 4.74211C37.0128 5.00687 37.3216 5.38315 37.5039 5.82339C37.6862 6.26363 37.7339 6.74805 37.6409 7.2154C37.548 7.68274 37.3185 8.11202 36.9816 8.44896C36.6446 8.78589 36.2153 9.01535 35.748 9.1083C35.2806 9.20126 34.7962 9.15355 34.356 8.97121C33.9157 8.78886 33.5395 8.48007 33.2747 8.08387C33.01 7.68768 32.8687 7.22188 32.8687 6.74538C32.8694 6.10659 33.1235 5.49417 33.5752 5.04249C34.0269 4.5908 34.6393 4.33673 35.2781 4.336ZM32.6873 9.05264C33.2686 9.70331 34.0741 10.1106 34.9427 10.1931C35.8113 10.2757 36.6791 10.0273 37.3725 9.49779C38.066 8.96823 38.5341 8.19648 38.6832 7.33678C38.8323 6.47708 38.6515 5.59278 38.1768 4.86063C37.7022 4.12848 36.9687 3.60243 36.1231 3.38762C35.2774 3.17281 34.3818 3.28508 33.6153 3.70197C32.8488 4.11887 32.2679 4.80968 31.9886 5.63633C31.7094 6.46297 31.7524 7.36455 32.1091 8.16085L28.763 10.3277C28.383 9.77457 27.8507 9.34346 27.2307 9.08663C26.6107 8.82979 25.9296 8.75825 25.2697 8.88066C24.6099 9.00308 23.9997 9.3142 23.5131 9.77633C23.0265 10.2385 22.6843 10.8318 22.528 11.4844L18.9413 9.6985C19.0276 9.15652 18.9843 8.6018 18.8148 8.07982C18.6452 7.55785 18.3544 7.08349 17.9661 6.69565C17.5778 6.30781 17.1031 6.01754 16.5809 5.84864C16.0588 5.67974 15.504 5.63703 14.9621 5.724C14.4202 5.81097 13.9067 6.02515 13.4636 6.34898C13.0205 6.6728 12.6605 7.09705 12.4131 7.58692C12.1656 8.07679 12.0378 8.61834 12.0402 9.16715C12.0425 9.71595 12.1749 10.2564 12.4265 10.7441L7.41654 14.3977C6.86558 13.7214 6.07972 13.2778 5.21596 13.1556C4.3522 13.0334 3.47414 13.2416 2.75719 13.7386C2.04025 14.2356 1.53721 14.9848 1.34857 15.8365C1.15993 16.6882 1.29959 17.5798 1.73963 18.333C2.17967 19.0863 2.88771 19.6457 3.72229 19.8997C4.55686 20.1537 5.45653 20.0834 6.24155 19.7029C7.02658 19.3225 7.63916 18.6598 7.95691 17.8474C8.27467 17.035 8.2742 16.1326 7.95561 15.3205L13.0523 11.6033C13.4396 11.993 13.914 12.2852 14.4363 12.4557C14.9587 12.6262 15.5141 12.6702 16.0567 12.584C16.5994 12.4979 17.1138 12.284 17.5577 11.9601C18.0015 11.6362 18.362 11.2115 18.6096 10.7209L22.4484 12.6322C22.5352 13.5193 22.9599 14.3391 23.6345 14.9218C24.3092 15.5044 25.1821 15.8052 26.0725 15.7618C26.9628 15.7184 27.8024 15.3343 28.4172 14.6888C29.032 14.0434 29.3751 13.1862 29.3752 12.2948C29.3756 11.9552 29.3257 11.6175 29.2272 11.2925L32.6873 9.05249V9.05264ZM7.28514 35.6641H2.71756V25.8687L5.001 24.1173L7.28514 25.8686V35.6641ZM8.1399 25.1851L5.32444 23.026C5.23166 22.9548 5.11798 22.9162 5.00104 22.9162C4.88409 22.9162 4.77042 22.9548 4.67764 23.026L1.86287 25.1851C1.79813 25.2347 1.74569 25.2986 1.70961 25.3717C1.67353 25.4449 1.65479 25.5254 1.65483 25.6069V36.1954C1.65497 36.3362 1.71099 36.4713 1.81059 36.5709C1.91018 36.6705 2.04522 36.7265 2.18608 36.7266H7.81639C7.95728 36.7266 8.09241 36.6707 8.19204 36.571C8.29167 36.4714 8.34764 36.3363 8.34764 36.1954V25.6066C8.3475 25.5251 8.32868 25.4447 8.29262 25.3716C8.25657 25.2986 8.20425 25.2348 8.13967 25.1851H8.1399ZM17.379 35.6641H12.8115V18.6576L15.0949 16.9063L17.379 18.6576V35.6641ZM18.2337 17.9739C18.2984 18.0236 18.3507 18.0875 18.3868 18.1607C18.4228 18.2338 18.4417 18.3142 18.4418 18.3958V36.1954C18.4418 36.3363 18.3858 36.4714 18.2862 36.571C18.1866 36.6707 18.0514 36.7266 17.9105 36.7266H12.2801C12.1392 36.7265 12.0042 36.6705 11.9046 36.5709C11.805 36.4713 11.749 36.3362 11.7488 36.1954V18.3956C11.7488 18.314 11.7675 18.2336 11.8036 18.1604C11.8396 18.0872 11.8921 18.0234 11.9568 17.9737L14.7723 15.8149C14.8651 15.7437 14.9788 15.7051 15.0957 15.7051C15.2127 15.7051 15.3263 15.7437 15.4191 15.8149L18.2338 17.9738L18.2337 17.9739ZM28.084 35.6641H23.5172V20.9683L25.8006 19.2169L28.084 20.9683V35.6641ZM28.9387 20.2846C29.0035 20.3342 29.0559 20.3981 29.092 20.4713C29.1281 20.5444 29.1468 20.6249 29.1468 20.7065V36.1954C29.1468 36.3363 29.0908 36.4714 28.9912 36.571C28.8916 36.6707 28.7564 36.7266 28.6155 36.7266H22.9858C22.8449 36.7266 22.7097 36.6707 22.6101 36.571C22.5105 36.4714 22.4545 36.3363 22.4545 36.1954V20.7063C22.4545 20.6248 22.4732 20.5443 22.5093 20.4711C22.5453 20.3979 22.5978 20.3341 22.6625 20.2844L25.4772 18.1255C25.57 18.0543 25.6837 18.0157 25.8007 18.0157C25.9176 18.0157 26.0313 18.0543 26.1241 18.1255L28.9388 20.2846H28.9387ZM37.5669 35.6641H32.9993V15.7991L35.2826 14.0476L37.5669 15.7991V35.6641ZM38.4215 15.1154C38.4862 15.1651 38.5385 15.229 38.5746 15.3021C38.6106 15.3753 38.6294 15.4557 38.6295 15.5373V36.1954C38.6295 36.3363 38.5735 36.4714 38.4739 36.571C38.3743 36.6707 38.2392 36.7266 38.0983 36.7266H32.4679C32.327 36.7265 32.192 36.6705 32.0924 36.5709C31.9928 36.4713 31.9367 36.3362 31.9366 36.1954V15.537C31.9366 15.4555 31.9553 15.375 31.9914 15.3018C32.0274 15.2287 32.0799 15.1648 32.1446 15.1151L34.9594 12.9562C35.0521 12.885 35.1658 12.8464 35.2828 12.8464C35.3998 12.8464 35.5134 12.885 35.6062 12.9562L38.4215 15.1154Z" fill="#231F20"/>
  <path fill-rule="evenodd" clip-rule="evenodd" d="M7.28486 35.6642V25.8688L5.00072 24.1174L2.71729 25.8688V35.6642H7.28486Z" fill="#FCCB26"/>
  <path fill-rule="evenodd" clip-rule="evenodd" d="M23.5171 20.9682V35.664H28.084V20.9682L25.8005 19.2168L23.5171 20.9682Z" fill="#FCCB26"/>
  <path fill-rule="evenodd" clip-rule="evenodd" d="M4.72219 18.9932C5.19867 18.9932 5.66442 18.8518 6.06056 18.587C6.45669 18.3222 6.76542 17.9459 6.94769 17.5056C7.12996 17.0654 7.1776 16.581 7.08458 16.1137C6.99156 15.6464 6.76206 15.2171 6.4251 14.8803C6.08814 14.5434 5.65885 14.314 5.19151 14.2211C4.72418 14.1281 4.23979 14.1759 3.79959 14.3583C3.35939 14.5406 2.98315 14.8494 2.71846 15.2456C2.45376 15.6418 2.31248 16.1076 2.3125 16.5841C2.31322 17.2229 2.56735 17.8354 3.01911 18.287C3.47088 18.7387 4.08337 18.9927 4.72219 18.9932Z" fill="#FCCB26"/>
  <path fill-rule="evenodd" clip-rule="evenodd" d="M13.1025 9.15515C13.1026 9.63162 13.2439 10.0974 13.5087 10.4935C13.7734 10.8897 14.1497 11.1984 14.5899 11.3807C15.0302 11.563 15.5146 11.6106 15.9819 11.5176C16.4492 11.4246 16.8784 11.1951 17.2153 10.8582C17.5522 10.5212 17.7815 10.0919 17.8744 9.62457C17.9673 9.15724 17.9196 8.67286 17.7372 8.23268C17.5547 7.7925 17.2459 7.4163 16.8497 7.15164C16.4535 6.88699 15.9877 6.74577 15.5112 6.74585C14.8725 6.74657 14.2602 7.00066 13.8086 7.45235C13.357 7.90405 13.1031 8.51644 13.1025 9.15515Z" fill="#FCCB26"/>
  <path fill-rule="evenodd" clip-rule="evenodd" d="M25.9037 9.8855C25.4272 9.88544 24.9613 10.0267 24.5651 10.2914C24.1689 10.5561 23.86 10.9323 23.6776 11.3725C23.4952 11.8127 23.4475 12.2972 23.5404 12.7645C23.6333 13.2319 23.8627 13.6612 24.1996 13.9982C24.5366 14.3351 24.9658 14.5646 25.4332 14.6576C25.9005 14.7506 26.385 14.7029 26.8252 14.5206C27.2654 14.3383 27.6417 14.0295 27.9065 13.6333C28.1712 13.2371 28.3126 12.7713 28.3126 12.2948C28.3119 11.6561 28.0578 11.0438 27.6063 10.5921C27.1547 10.1404 26.5424 9.88633 25.9037 9.8855Z" fill="#FCCB26"/>
  <path fill-rule="evenodd" clip-rule="evenodd" d="M32.8687 6.74516C32.8686 7.22171 33.0099 7.68758 33.2746 8.08384C33.5393 8.4801 33.9156 8.78897 34.3559 8.97137C34.7962 9.15377 35.2806 9.20152 35.748 9.10858C36.2154 9.01563 36.6448 8.78617 36.9818 8.44921C37.3188 8.11226 37.5483 7.68293 37.6412 7.21554C37.7342 6.74814 37.6865 6.26367 37.5042 5.82339C37.3218 5.3831 37.013 5.00678 36.6167 4.74202C36.2205 4.47726 35.7547 4.33594 35.2781 4.33594C34.6393 4.33664 34.0269 4.59069 33.5752 5.04234C33.1235 5.494 32.8694 6.10639 32.8687 6.74516Z" fill="#FCCB26"/>
</svg>