<svg width="104" height="104" viewBox="0 0 104 104" fill="none" xmlns="http://www.w3.org/2000/svg">
<path fill-rule="evenodd" clip-rule="evenodd" d="M81.193 62.4341V45.9266C89.9519 46.6507 97.0773 53.6876 97.9077 62.435L81.193 62.4341ZM94.5056 49.1886C90.6009 45.3077 85.3248 43.121 79.8196 43.1017H79.8117C79.6303 43.1016 79.4506 43.1372 79.283 43.2065C79.1153 43.2759 78.963 43.3776 78.8347 43.5059C78.7064 43.6342 78.6046 43.7865 78.5353 43.9542C78.4659 44.1219 78.4303 44.3015 78.4305 44.483V63.8154C78.4305 64.1817 78.576 64.533 78.835 64.7921C79.0941 65.0511 79.4454 65.1966 79.8117 65.1966H99.3688C99.5522 65.1965 99.7336 65.1598 99.9027 65.0889C100.072 65.0179 100.225 64.914 100.354 64.7833C100.482 64.6525 100.583 64.4975 100.651 64.3273C100.719 64.157 100.753 63.975 100.75 63.7916C100.668 58.2922 98.4249 53.0459 94.5058 49.1869L94.5056 49.1886ZM91.7541 75.7929L84.7536 68.7934H94.5192C94.3051 71.3475 93.3434 73.782 91.7541 75.7929ZM97.3258 67.3878C97.3195 67.0256 97.1713 66.6803 96.9129 66.4264C96.6545 66.1725 96.3068 66.0302 95.9445 66.0303H81.418C81.1449 66.0306 80.878 66.1118 80.651 66.2637C80.424 66.4155 80.247 66.6313 80.1425 66.8836C80.038 67.1359 80.0105 67.4135 80.0636 67.6815C80.1167 67.9494 80.2479 68.1956 80.4408 68.389L90.8408 78.7873C90.9691 78.9156 91.1214 79.0174 91.2891 79.0868C91.4567 79.1563 91.6364 79.192 91.8178 79.192H91.8258C92.0086 79.1907 92.1895 79.1532 92.3578 79.0818C92.5262 79.0103 92.6787 78.9062 92.8066 78.7755C95.7144 75.8092 97.3392 71.8184 97.3302 67.6646C97.3302 67.5834 97.3282 67.5041 97.3282 67.4239L97.3266 67.3884L97.3258 67.3878ZM76.0159 84.7641C80.1463 84.7782 84.139 83.2799 87.2404 80.5521L76.4951 69.7188L69.5754 83.5006C71.6195 84.3371 73.8073 84.7663 76.0159 84.7641ZM58.9534 67.7016C58.9587 63.3986 60.5875 59.2561 63.5142 56.1017C66.441 52.9474 70.4502 51.0136 74.7407 50.6866V67.0532L67.1105 82.2496C64.6199 80.725 62.5621 78.5869 61.1339 76.0398C59.7057 73.4927 58.955 70.6218 58.9534 67.7016ZM65.7746 37.0673L62.0186 39.9486V53.6756C64.1359 51.5606 66.7035 49.9511 69.5297 48.967V39.9482L65.7738 37.0675L65.7746 37.0673ZM77.504 66.8125V49.2597C77.504 48.8946 77.3595 48.5444 77.1021 48.2856C76.8447 48.0268 76.4953 47.8804 76.1303 47.8784L76.0159 47.8768C74.7668 47.877 73.5205 47.9949 72.2935 48.2288V39.2669C72.2935 39.055 72.2447 38.8459 72.1508 38.6558C72.057 38.4658 71.9206 38.2999 71.7523 38.1711L66.6149 34.2304C66.3736 34.0455 66.0781 33.9453 65.7741 33.9453C65.4701 33.9453 65.1745 34.0455 64.9332 34.2304L59.7962 38.1711C59.628 38.3002 59.4917 38.4663 59.3979 38.6565C59.3041 38.8467 59.2552 39.0559 59.2551 39.2679V57.1251C56.641 61.2663 55.6526 66.2287 56.4804 71.0556C57.3082 75.8824 59.8935 80.2319 63.7381 83.2655C67.5826 86.2992 72.4141 87.8022 77.3011 87.4849C82.188 87.1675 86.7846 85.0522 90.2044 81.5468C90.4578 81.2874 90.5989 80.9388 90.5975 80.5762C90.596 80.2136 90.4521 79.8661 90.1967 79.6088L77.504 66.8131V66.8125ZM48.6566 37.3344C47.8684 37.3345 47.0978 37.1009 46.4423 36.663C45.7868 36.2252 45.2759 35.6028 44.9742 34.8746C44.6725 34.1463 44.5935 33.345 44.7472 32.5719C44.9009 31.7988 45.2805 31.0886 45.8378 30.5312C46.3952 29.9738 47.1053 29.5942 47.8784 29.4404C48.6515 29.2866 49.4529 29.3655 50.1811 29.6671C50.9094 29.9688 51.5318 30.4796 51.9697 31.135C52.4076 31.7905 52.6414 32.561 52.6413 33.3493C52.6401 34.4058 52.22 35.4186 51.4729 36.1657C50.7259 36.9128 49.7131 37.3331 48.6566 37.3344ZM29.6914 31.6044C28.9032 31.6045 28.1326 31.3708 27.4772 30.933C26.8218 30.4951 26.3109 29.8727 26.0092 29.1445C25.7075 28.4162 25.6285 27.6149 25.7823 26.8418C25.936 26.0687 26.3156 25.3585 26.8729 24.8012C27.4303 24.2438 28.1404 23.8642 28.9135 23.7104C29.6866 23.5566 30.488 23.6355 31.2162 23.9372C31.9444 24.2389 32.5669 24.7497 33.0048 25.4051C33.4427 26.0605 33.6764 26.8311 33.6763 27.6193C33.675 28.6758 33.2547 29.6886 32.5077 30.4357C31.7607 31.1827 30.7479 31.603 29.6914 31.6044ZM9.99827 45.163C9.21009 45.1628 8.43969 44.9288 7.78446 44.4908C7.12923 44.0527 6.61862 43.4302 6.31717 42.7019C6.01573 41.9737 5.93699 41.1724 6.09092 40.3994C6.24485 39.6264 6.62453 38.9164 7.18195 38.3592C7.73938 37.802 8.44951 37.4225 9.22257 37.2689C9.99562 37.1152 10.7969 37.1942 11.525 37.4959C12.2532 37.7977 12.8755 38.3085 13.3133 38.9639C13.7512 39.6193 13.9848 40.3897 13.9848 41.1779C13.9835 42.2347 13.563 43.2478 12.8157 43.9949C12.0683 44.742 11.055 45.1621 9.99827 45.163ZM65.7664 19.236C66.5547 19.2358 67.3253 19.4695 67.9808 19.9073C68.6363 20.3452 69.1472 20.9676 69.449 21.6958C69.7508 22.424 69.8298 23.2254 69.6761 23.9986C69.5224 24.7717 69.1429 25.4819 68.5855 26.0394C68.0282 26.5968 67.3181 26.9765 66.5449 27.1303C65.7718 27.2842 64.9704 27.2053 64.2421 26.9037C63.5139 26.6021 62.8913 26.0913 62.4534 25.4359C62.0154 24.7805 61.7816 24.01 61.7815 23.2217C61.7827 22.1651 62.2028 21.1521 62.9499 20.4049C63.6969 19.6577 64.7099 19.2373 65.7664 19.236ZM60.9727 27.9653L55.2017 31.7028C55.4262 32.5938 55.4663 33.5213 55.3195 34.4284C55.1728 35.3355 54.8424 36.2031 54.3485 36.978C53.8546 37.7529 53.2076 38.4187 52.4473 38.9347C51.6869 39.4507 50.8292 39.8059 49.9267 39.9787C49.0242 40.1514 48.0959 40.138 47.1987 39.9393C46.3016 39.7406 45.4545 39.3607 44.7093 38.823C43.9642 38.2853 43.3367 37.6011 42.8654 36.8123C42.3941 36.0234 42.0888 35.1467 41.9683 34.2357L35.5163 31.0235C35.0109 31.8905 34.3182 32.6337 33.4889 33.1988C32.6596 33.7639 31.7146 34.1366 30.7228 34.2898C29.731 34.443 28.7175 34.3727 27.7564 34.0841C26.7952 33.7956 25.9106 33.296 25.1672 32.6219L16.39 39.0203C16.627 39.7145 16.7477 40.443 16.7473 41.1765C16.7493 42.7531 16.1999 44.2808 15.1941 45.495C14.1883 46.7092 12.7896 47.5334 11.2402 47.8249C9.69071 48.1164 8.08809 47.8569 6.70985 47.0912C5.33161 46.3255 4.26455 45.102 3.69344 43.6324C3.12234 42.1628 3.08317 40.5398 3.58271 39.0444C4.08225 37.549 5.08905 36.2754 6.42875 35.4441C7.76844 34.6128 9.35667 34.2763 10.9184 34.4927C12.4801 34.7091 13.917 35.4649 14.9801 36.6291L23.5378 30.3881C23.1103 29.4411 22.9073 28.4081 22.9445 27.3697C22.9817 26.3313 23.2582 25.3155 23.7524 24.4015C24.2466 23.4875 24.9452 22.6999 25.7937 22.1001C26.6422 21.5004 27.6177 21.1046 28.6443 20.9437C29.6708 20.7828 30.7206 20.8611 31.7119 21.1725C32.7033 21.4838 33.6093 22.0199 34.3595 22.7389C35.1096 23.4578 35.6837 24.3403 36.0368 25.3175C36.39 26.2947 36.5128 27.3403 36.3956 28.3727L42.2342 31.2813C42.6098 30.1139 43.2966 29.0711 44.2207 28.2649C45.1448 27.4588 46.2712 26.9199 47.4788 26.7062C48.6863 26.4925 49.9292 26.6122 51.0739 27.0522C52.2185 27.4923 53.2214 28.2361 53.9748 29.2037L59.4694 25.6464C58.8656 24.0854 58.862 22.3559 59.4592 20.7924C60.0565 19.2289 61.2123 17.9423 62.7031 17.1815C64.1939 16.4206 65.9138 16.2395 67.5304 16.6731C69.1469 17.1067 70.5453 18.1243 71.4552 19.5291C72.3651 20.9339 72.7218 22.6262 72.4564 24.2787C72.191 25.9313 71.3224 27.4267 70.0184 28.476C68.7144 29.5253 67.0677 30.0539 65.3967 29.9595C63.7256 29.8652 62.1489 29.1546 60.9713 27.9653H60.9727ZM14.2633 75.5895H6.75172V58.3268L10.5073 55.446L14.2633 58.3268V75.5895ZM16.4859 56.55L11.3484 52.6094C11.1072 52.4243 10.8116 52.3239 10.5075 52.3239C10.2034 52.3239 9.90781 52.4243 9.66657 52.6094L4.52974 56.55C4.36171 56.6793 4.22558 56.8454 4.13181 57.0356C4.03803 57.2257 3.98912 57.4349 3.98882 57.6469V76.9724C3.98919 77.3386 4.13484 77.6897 4.39379 77.9487C4.65274 78.2076 5.00385 78.3533 5.37007 78.3537H15.6449C16.0113 78.3537 16.3626 78.2081 16.6216 77.9491C16.8807 77.6901 17.0262 77.3387 17.0262 76.9724V57.6451C17.0262 57.4332 16.9774 57.2241 16.8837 57.0341C16.79 56.8441 16.6538 56.6782 16.4857 56.5492L16.4859 56.55ZM32.6859 75.5903V45.1661L28.9299 42.285L25.1737 45.1661V75.5895L32.6859 75.5903ZM34.9081 43.3889L29.7705 39.4483C29.5292 39.2632 29.2337 39.1629 28.9296 39.1629C28.6256 39.1629 28.33 39.2632 28.0888 39.4483L22.9518 43.3889C22.7836 43.5182 22.6474 43.6843 22.5536 43.8744C22.4598 44.0646 22.4109 44.2738 22.4106 44.4858V76.971C22.411 77.3372 22.5566 77.6884 22.8155 77.9473C23.0745 78.2063 23.4256 78.3519 23.7919 78.3522H34.0672C34.4335 78.3522 34.7848 78.2067 35.0439 77.9477C35.3029 77.6886 35.4484 77.3373 35.4484 76.971V44.4844C35.4484 44.2725 35.3996 44.0634 35.3058 43.8734C35.2121 43.6834 35.0758 43.5175 34.9077 43.3885L34.9081 43.3889ZM52.2253 75.5903V49.3832L48.4693 46.5022L44.7131 49.3832V75.5895L52.2253 75.5903ZM54.4475 47.6062L49.3099 43.6656C49.0687 43.4806 48.7731 43.3803 48.4691 43.3803C48.1651 43.3803 47.8696 43.4806 47.6284 43.6656L42.4912 47.6062C42.3227 47.7352 42.1863 47.9012 42.0924 48.0914C41.9986 48.2817 41.9499 48.491 41.95 48.7031V76.971C41.95 77.3373 42.0956 77.6886 42.3546 77.9477C42.6136 78.2067 42.965 78.3522 43.3313 78.3522H53.6066C53.9729 78.3522 54.3242 78.2067 54.5833 77.9477C54.8423 77.6886 54.9878 77.3373 54.9878 76.971V48.7015C54.9879 48.4896 54.9392 48.2805 54.8455 48.0904C54.7518 47.9004 54.6156 47.7344 54.4475 47.6054V47.6062Z" fill="#231F20"/>
<path fill-rule="evenodd" clip-rule="evenodd" d="M74.7407 50.6873C71.1414 50.9562 67.7201 52.3599 64.9691 54.6964C62.2181 57.0329 60.2791 60.1818 59.431 63.69C58.5829 67.1983 58.8694 70.8852 60.2494 74.2203C61.6294 77.5554 64.0317 80.3669 67.1107 82.2502L74.7409 67.0538L74.7407 50.6873Z" fill="#00ABEA"/>
<path fill-rule="evenodd" clip-rule="evenodd" d="M81.1929 45.9266V62.4347H97.9076C97.0766 53.687 89.9518 46.6501 81.1929 45.9266Z" fill="#00ABEA"/>
<path fill-rule="evenodd" clip-rule="evenodd" d="M52.2253 75.5896V49.3832L48.4693 46.5023L44.7131 49.3832V75.5896H52.2253Z" fill="#00ABEA"/>
<path fill-rule="evenodd" clip-rule="evenodd" d="M14.2633 75.5895V58.3268L10.5073 55.446L6.75171 58.3268V75.5895H14.2633Z" fill="#00ABEA"/>
<path fill-rule="evenodd" clip-rule="evenodd" d="M9.99817 45.1634C10.7864 45.1634 11.5569 44.9295 12.2122 44.4916C12.8675 44.0536 13.3783 43.4311 13.6798 42.7029C13.9814 41.9747 14.0603 41.1734 13.9064 40.4003C13.7526 39.6273 13.373 38.9172 12.8156 38.3599C12.2582 37.8026 11.5481 37.4231 10.775 37.2693C10.0019 37.1156 9.20061 37.1946 8.47242 37.4963C7.74422 37.798 7.12184 38.3088 6.68397 38.9642C6.2461 39.6196 6.01241 40.3901 6.01245 41.1783C6.01369 42.235 6.43403 43.248 7.18124 43.9951C7.92846 44.7422 8.94153 45.1624 9.99817 45.1634Z" fill="#00ABEA"/>
<path fill-rule="evenodd" clip-rule="evenodd" d="M25.7046 27.6197C25.7045 28.4081 25.9382 29.1787 26.3761 29.8342C26.814 30.4897 27.4364 31.0007 28.1647 31.3025C28.893 31.6042 29.6944 31.6833 30.4676 31.5296C31.2408 31.3759 31.951 30.9964 32.5086 30.439C33.0661 29.8817 33.4458 29.1716 33.5997 28.3984C33.7536 27.6253 33.6748 26.8238 33.3733 26.0954C33.0717 25.3671 32.561 24.7445 31.9056 24.3064C31.2502 23.8683 30.4796 23.6344 29.6913 23.6342C28.6345 23.6351 27.6211 24.0553 26.8737 24.8025C26.1263 25.5497 25.7058 26.5629 25.7046 27.6197Z" fill="#00ABEA"/>
<path fill-rule="evenodd" clip-rule="evenodd" d="M48.6566 29.3644C47.8683 29.3643 47.0978 29.5979 46.4423 30.0357C45.7868 30.4736 45.2759 31.0959 44.9742 31.8242C44.6725 32.5524 44.5935 33.3537 44.7472 34.1268C44.9009 34.8999 45.2804 35.6101 45.8377 36.1675C46.395 36.7249 47.1052 37.1046 47.8782 37.2584C48.6513 37.4122 49.4527 37.3333 50.1809 37.0317C50.9092 36.7301 51.5317 36.2193 51.9696 35.5639C52.4075 34.9085 52.6413 34.1379 52.6413 33.3497C52.6401 32.2932 52.2199 31.2803 51.4729 30.5332C50.7259 29.7861 49.7131 29.3657 48.6566 29.3644Z" fill="#00ABEA"/>
<path fill-rule="evenodd" clip-rule="evenodd" d="M61.7815 23.2213C61.7816 24.0094 62.0154 24.7798 62.4533 25.4351C62.8912 26.0903 63.5136 26.601 64.2417 26.9026C64.9699 27.2041 65.7711 27.283 66.5441 27.1292C67.317 26.9754 68.027 26.5958 68.5843 26.0385C69.1416 25.4812 69.521 24.7711 69.6748 23.9981C69.8285 23.2252 69.7496 22.4239 69.4479 21.6958C69.1463 20.9677 68.6356 20.3454 67.9803 19.9075C67.3249 19.4697 66.5545 19.236 65.7664 19.236C64.7099 19.2373 63.697 19.6576 62.95 20.4047C62.203 21.1519 61.7827 22.1648 61.7815 23.2213Z" fill="#00ABEA"/>
</svg>
