<svg width="104" height="104" viewBox="0 0 104 104" fill="none" xmlns="http://www.w3.org/2000/svg">
<path fill-rule="evenodd" clip-rule="evenodd" d="M80.951 19.6557C80.9504 19.7493 80.9682 19.8421 81.0035 19.9288C81.0388 20.0155 81.0909 20.0943 81.1568 20.1608C81.73 20.7332 82.2766 21.3489 82.8037 21.9441C83.2932 22.4945 83.7529 23.0147 84.1988 23.46C84.3356 23.5887 84.5163 23.6603 84.7041 23.6603C84.892 23.6603 85.0727 23.5887 85.2095 23.46C86.2344 22.4349 87.2549 21.4069 88.2712 20.3759C89.2921 19.3457 90.3104 18.3156 91.337 17.2899C91.469 17.1553 91.543 16.9743 91.543 16.7858C91.543 16.5973 91.469 16.4163 91.337 16.2818C91.2004 16.1535 91.02 16.0821 90.8326 16.0821C90.6452 16.0821 90.4649 16.1535 90.3283 16.2818L85.6537 20.9559C85.5434 21.0662 85.4124 21.1538 85.2682 21.2135C85.124 21.2733 84.9694 21.304 84.8133 21.304C84.6572 21.304 84.5027 21.2733 84.3585 21.2135C84.2143 21.1538 84.0833 21.0662 83.9729 20.9559L82.1677 19.1501C82.0683 19.0494 81.9411 18.9807 81.8025 18.9528C81.6638 18.9248 81.52 18.9388 81.3893 18.9931C81.2587 19.0473 81.1472 19.1393 81.0691 19.2573C80.991 19.3752 80.9499 19.5138 80.951 19.6553V19.6557ZM79.4747 21.8419C78.9097 21.2589 78.5966 20.4772 78.603 19.6654C78.6095 18.8536 78.9349 18.0769 79.509 17.503C80.0832 16.929 80.86 16.6039 81.6718 16.5978C82.4836 16.5917 83.2652 16.905 83.848 17.4702L84.8132 18.4345L88.6478 14.6003C89.2286 14.0263 90.0129 13.7054 90.8295 13.7079C91.6461 13.7103 92.4285 14.0358 93.0058 14.6133C93.5831 15.1908 93.9084 15.9734 93.9106 16.7899C93.9128 17.6065 93.5917 18.3908 93.0174 18.9713C91.995 19.994 90.9764 21.0197 89.9616 22.0485C88.9411 23.0809 87.9172 24.112 86.89 25.1417C86.3099 25.7208 85.5238 26.046 84.7041 26.046C83.8845 26.046 83.0984 25.7208 82.5183 25.1417C82.0229 24.646 81.5374 24.1002 81.0241 23.5224C80.5206 22.9536 79.9975 22.3645 79.4747 21.8419ZM73.0762 19.4322C73.0763 16.9306 73.8182 14.4852 75.2082 12.4052C76.5981 10.3253 78.5735 8.70419 80.8848 7.74698C83.196 6.78977 85.7392 6.53943 88.1927 7.02763C90.6463 7.51582 92.8999 8.72062 94.6687 10.4897C96.4375 12.2587 97.642 14.5125 98.1298 16.9661C98.6176 19.4197 98.3669 21.9629 97.4094 24.274C96.4519 26.5851 94.8305 28.5603 92.7503 29.9499C90.6702 31.3395 88.2246 32.0811 85.723 32.0808C82.3697 32.077 79.1549 30.7431 76.784 28.3718C74.413 26.0005 73.0796 22.7855 73.0762 19.4322ZM70.6979 19.4322C70.6979 16.4603 71.5793 13.5551 73.2305 11.084C74.8818 8.61296 77.2287 6.68705 79.9744 5.54984C82.7202 4.41263 85.7416 4.11518 88.6564 4.69512C91.5713 5.27506 94.2487 6.70634 96.3501 8.80795C98.4514 10.9096 99.8824 13.5871 100.462 16.502C101.042 19.4169 100.744 22.4382 99.6064 25.1839C98.4689 27.9296 96.5427 30.2763 94.0715 31.9272C91.6003 33.5782 88.695 34.4592 85.723 34.459C81.7393 34.4542 77.9202 32.8694 75.1034 30.0523C72.2866 27.2353 70.7023 23.4159 70.6979 19.4322ZM37.8763 61.4247V44.1794L22.9424 52.8018V70.0471L37.8763 61.4241V61.4247ZM5.62819 61.4247L20.5644 70.0477V52.8014L14.2963 49.1825V53.4843C14.2923 53.797 14.1652 54.0955 13.9426 54.3152C13.72 54.5349 13.4199 54.6581 13.1071 54.6581C12.7944 54.6581 12.4943 54.5349 12.2717 54.3152C12.0491 54.0955 11.922 53.797 11.918 53.4843V47.809L5.62819 44.1789V61.4243V61.4247ZM6.81749 42.1189L21.7547 33.4968L28.0312 37.121L13.0955 45.7452L6.81749 42.1189ZM36.6876 42.1189L21.7547 50.7421L15.4735 47.1171L30.4096 38.4937L36.6876 42.1182V42.1189ZM40.2547 42.1189V62.111C40.2549 62.3198 40.2 62.525 40.0955 62.7058C39.9911 62.8867 39.8409 63.0368 39.66 63.1411L22.348 73.1368C22.1672 73.2412 21.9621 73.2962 21.7534 73.2962C21.5446 73.2962 21.3395 73.2412 21.1587 73.1368L3.84475 63.1409C3.6638 63.0367 3.51353 62.8867 3.40911 62.7059C3.30468 62.5251 3.2498 62.32 3.25 62.1112V42.1189C3.24979 41.9102 3.3046 41.7052 3.40892 41.5245C3.51323 41.3438 3.66335 41.1938 3.84414 41.0896L21.1585 31.093C21.3393 30.9887 21.5443 30.9338 21.753 30.9338C21.9616 30.9338 22.1667 30.9887 22.3474 31.093L39.6595 41.0888C39.8404 41.1931 39.9905 41.3431 40.0949 41.5239C40.1994 41.7046 40.2543 41.9097 40.2543 42.1184L40.2547 42.1189ZM91.337 81.4191C91.2003 81.2909 91.02 81.2195 90.8326 81.2195C90.6452 81.2195 90.4649 81.2909 90.3283 81.4191L85.6537 86.0938C85.5434 86.2042 85.4124 86.2918 85.2682 86.3515C85.124 86.4113 84.9694 86.442 84.8133 86.442C84.6572 86.442 84.5027 86.4113 84.3585 86.3515C84.2143 86.2918 84.0832 86.2042 83.9729 86.0938L82.1677 84.2882C82.0329 84.1556 81.8514 84.0812 81.6622 84.0812C81.4731 84.0812 81.2916 84.1556 81.1568 84.2882C81.0253 84.4235 80.9518 84.6047 80.9518 84.7933C80.9518 84.9819 81.0253 85.1631 81.1568 85.2984C81.73 85.871 82.2766 86.4866 82.8037 87.0818C83.2932 87.6323 83.7549 88.1523 84.1988 88.5979C84.3341 88.7294 84.5154 88.803 84.7041 88.803C84.8929 88.803 85.0742 88.7294 85.2095 88.5979C86.2344 87.5725 87.2549 86.5445 88.2712 85.5139C89.2921 84.4834 90.3104 83.4538 91.337 82.4278C91.4686 82.2929 91.5422 82.112 91.5422 81.9235C91.5422 81.7351 91.4686 81.5539 91.337 81.4191ZM93.0174 79.7376C93.5961 80.3179 93.921 81.1039 93.921 81.9233C93.921 82.7428 93.5961 83.5288 93.0174 84.1091C91.995 85.132 90.9764 86.1577 89.9616 87.1862C88.9411 88.2183 87.9172 89.2493 86.89 90.2792C86.3097 90.8578 85.5236 91.1827 84.7041 91.1827C83.8847 91.1827 83.0986 90.8578 82.5183 90.2792C82.0229 89.7838 81.5374 89.2382 81.026 88.6605C80.5206 88.0917 79.9975 87.5027 79.4745 86.98C78.8957 86.3994 78.5708 85.6129 78.5712 84.793C78.5715 83.9732 78.897 83.1869 79.4763 82.6067C80.0567 82.0282 80.8427 81.7033 81.6621 81.7033C82.4816 81.7033 83.2676 82.0282 83.848 82.6067L84.8132 83.5712L88.6478 79.7374C89.228 79.1594 90.0136 78.8349 90.8326 78.8349C91.6516 78.8349 92.4372 79.1594 93.0174 79.7374V79.7376ZM98.372 84.5702C98.3721 87.0717 97.6303 89.5171 96.2405 91.5972C94.8508 93.6772 92.8755 95.2984 90.5643 96.2558C88.2532 97.2132 85.7101 97.4637 83.2565 96.9758C80.803 96.4879 78.5493 95.2833 76.7803 93.5145C75.0113 91.7457 73.8066 89.4921 73.3184 87.0386C72.8302 84.5851 73.0806 82.042 74.0377 79.7308C74.9949 77.4195 76.6159 75.4441 78.6958 74.0541C80.7757 72.6641 83.221 71.9222 85.7226 71.922C89.0762 71.9254 92.2914 73.259 94.6629 75.6303C97.0343 78.0015 98.3682 81.2166 98.372 84.5702ZM100.75 84.5702C100.75 87.5421 99.8688 90.4472 98.2178 92.9183C96.5667 95.3894 94.22 97.3154 91.4743 98.4528C88.7287 99.5901 85.7074 99.8878 82.7926 99.3081C79.8778 98.7284 77.2003 97.2974 75.0988 95.196C72.9973 93.0947 71.566 90.4173 70.9861 87.5025C70.4062 84.5878 70.7036 81.5665 71.8408 78.8208C72.9779 76.075 74.9037 73.7281 77.3747 72.0769C79.8456 70.4256 82.7507 69.5442 85.7226 69.544C89.7066 69.5482 93.5262 71.1327 96.3435 73.9497C99.1607 76.7667 100.745 80.5862 100.75 84.5702ZM91.5434 49.3546C91.5439 49.2611 91.5259 49.1685 91.4905 49.082C91.4551 48.9955 91.4029 48.9169 91.337 48.8506C91.2004 48.7224 91.02 48.651 90.8326 48.651C90.6452 48.651 90.4649 48.7224 90.3283 48.8506L85.6537 53.5249C85.5434 53.6354 85.4124 53.7229 85.2682 53.7827C85.124 53.8425 84.9694 53.8732 84.8133 53.8732C84.6572 53.8732 84.5027 53.8425 84.3585 53.7827C84.2142 53.7229 84.0832 53.6354 83.9729 53.5249L82.1677 51.7191C82.033 51.5886 81.8523 51.5162 81.6647 51.5176C81.4771 51.5191 81.2976 51.5942 81.1649 51.7268C81.0322 51.8595 80.9569 52.039 80.9554 52.2266C80.9539 52.4142 81.0262 52.5949 81.1568 52.7297C81.73 53.3025 82.2766 53.9182 82.8037 54.5131C83.2932 55.0634 83.7529 55.5836 84.1988 56.0289C84.3341 56.1605 84.5154 56.2341 84.7041 56.2341C84.8929 56.2341 85.0742 56.1605 85.2095 56.0289C86.2361 55.0012 87.2593 53.9709 88.2791 52.9379C89.2956 51.9101 90.3149 50.8836 91.337 49.8585C91.4029 49.7923 91.455 49.7136 91.4904 49.6271C91.5259 49.5406 91.5438 49.448 91.5434 49.3546ZM93.0174 47.1689C93.596 47.7492 93.9209 48.5352 93.9209 49.3546C93.9209 50.174 93.596 50.9599 93.0174 51.5402C91.9969 52.5606 90.9813 53.584 89.9706 54.6104C88.9461 55.6451 87.9196 56.6785 86.891 57.7105C86.3106 58.289 85.5246 58.6139 84.7052 58.6139C83.8857 58.6139 83.0997 58.289 82.5193 57.7105C82.0239 57.2147 81.5384 56.6691 81.027 56.0914C80.5216 55.5227 79.9986 54.9336 79.4773 54.4112C78.902 53.8305 78.58 53.0456 78.5818 52.2282C78.5836 51.4107 78.9091 50.6273 79.487 50.0492C80.0649 49.4711 80.8483 49.1454 81.6657 49.1433C82.4831 49.1412 83.2681 49.4629 83.849 50.0381L84.8142 51.0027L88.6488 47.1689C89.2289 46.5907 90.0146 46.266 90.8336 46.266C91.6527 46.266 92.4384 46.5907 93.0185 47.1689H93.0174ZM98.372 52.0015C98.3721 54.5031 97.6303 56.9485 96.2405 59.0285C94.8508 61.1085 92.8755 62.7297 90.5643 63.6871C88.2532 64.6445 85.7101 64.8951 83.2565 64.4072C80.803 63.9192 78.5493 62.7147 76.7803 60.9459C75.0113 59.1771 73.8066 56.9235 73.3184 54.47C72.8302 52.0165 73.0806 49.4733 74.0377 47.1621C74.9949 44.8509 76.6159 42.8754 78.6958 41.4854C80.7757 40.0955 83.221 39.3535 85.7226 39.3533C89.0762 39.3568 92.2914 40.6905 94.6628 43.0617C97.0342 45.4329 98.3682 48.6479 98.372 52.0015ZM100.75 52.0015C100.75 54.9734 99.8688 57.8786 98.2178 60.3496C96.5667 62.8207 94.22 64.7467 91.4743 65.8841C88.7287 67.0215 85.7074 67.3191 82.7926 66.7394C79.8778 66.1598 77.2003 64.7287 75.0988 62.6274C72.9973 60.526 71.566 57.8487 70.9861 54.9339C70.4062 52.0191 70.7036 48.9978 71.8408 46.2521C72.9779 43.5064 74.9037 41.1595 77.3747 39.5082C79.8456 37.857 82.7507 36.9755 85.7226 36.9753C89.7066 36.9795 93.5263 38.5639 96.3436 41.3809C99.1608 44.1979 100.746 48.0175 100.75 52.0015ZM56.9999 22.2894V50.8122H64.8158C65.1311 50.8122 65.4336 50.9375 65.6566 51.1605C65.8796 51.3835 66.0049 51.6859 66.0049 52.0013C66.0049 52.3167 65.8796 52.6191 65.6566 52.8421C65.4336 53.0651 65.1311 53.1904 64.8158 53.1904H56.9999V81.7134C56.9999 82.6175 57.8776 83.3813 58.916 83.3813H64.8158C65.1312 83.3813 65.4337 83.5066 65.6567 83.7296C65.8798 83.9526 66.0051 84.2551 66.0051 84.5706C66.0051 84.886 65.8798 85.1885 65.6567 85.4115C65.4337 85.6346 65.1312 85.7598 64.8158 85.7598H58.9162C56.5482 85.7598 54.6217 83.9449 54.6217 81.714V53.1902H46.1065C45.7912 53.1902 45.4888 53.0649 45.2659 52.842C45.0429 52.619 44.9176 52.3166 44.9176 52.0013C44.9176 51.686 45.0429 51.3836 45.2659 51.1606C45.4888 50.9377 45.7912 50.8124 46.1065 50.8124H54.6219V22.2894C54.6219 20.0583 56.548 18.2435 58.916 18.2435H64.8158C65.1311 18.2435 65.4336 18.3688 65.6566 18.5918C65.8796 18.8148 66.0049 19.1173 66.0049 19.4326C66.0049 19.748 65.8796 20.0504 65.6566 20.2734C65.4336 20.4964 65.1311 20.6217 64.8158 20.6217H58.9162C57.8778 20.6215 56.9997 21.3855 56.9999 22.2894Z" fill="#231F20"/>
<path fill-rule="evenodd" clip-rule="evenodd" d="M22.9375 52.8025V70.0485L37.8715 61.4254V44.1797L22.9375 52.8025Z" fill="#E26655"/>
<path fill-rule="evenodd" clip-rule="evenodd" d="M20.5612 70.0485V52.8021L14.2932 49.1833V53.485C14.2891 53.7977 14.162 54.0963 13.9394 54.3159C13.7168 54.5356 13.4167 54.6588 13.104 54.6588C12.7912 54.6588 12.4911 54.5356 12.2685 54.3159C12.0459 54.0963 11.9189 53.7977 11.9148 53.485V47.8097L5.625 44.1797V61.425L20.5612 70.0485Z" fill="#E26655"/>
<path fill-rule="evenodd" clip-rule="evenodd" d="M82.8014 21.944C83.2909 22.4944 83.7506 23.0146 84.1965 23.4599C84.3333 23.5886 84.514 23.6603 84.7018 23.6603C84.8897 23.6603 85.0704 23.5886 85.2072 23.4599C86.2321 22.4348 87.2526 21.4068 88.2689 20.3759C89.2898 19.3456 90.3081 18.3156 91.3347 17.2898C91.4667 17.1552 91.5407 16.9742 91.5407 16.7857C91.5407 16.5972 91.4667 16.4162 91.3347 16.2817C91.1981 16.1534 91.0177 16.082 90.8303 16.082C90.6429 16.082 90.4626 16.1534 90.326 16.2817L85.6515 20.9558C85.5411 21.0661 85.4101 21.1537 85.2659 21.2134C85.1217 21.2732 84.9671 21.3039 84.811 21.3039C84.6549 21.3039 84.5004 21.2732 84.3562 21.2134C84.212 21.1537 84.081 21.0661 83.9706 20.9558L82.1654 19.15C82.0314 19.0159 81.8497 18.9406 81.6602 18.9405C81.4706 18.9405 81.2888 19.0157 81.1548 19.1497C81.0207 19.2837 80.9454 19.4654 80.9453 19.6549C80.9453 19.8445 81.0205 20.0263 81.1545 20.1603C81.7277 20.7331 82.2743 21.3498 82.8014 21.944Z" fill="#E26655"/>
<path fill-rule="evenodd" clip-rule="evenodd" d="M85.6515 53.5263C85.5411 53.6367 85.4101 53.7243 85.2659 53.7841C85.1217 53.8438 84.9671 53.8746 84.811 53.8746C84.6549 53.8746 84.5004 53.8438 84.3562 53.7841C84.212 53.7243 84.0809 53.6367 83.9706 53.5263L82.1654 51.7205C82.0307 51.5899 81.8501 51.5175 81.6624 51.519C81.4748 51.5204 81.2953 51.5956 81.1626 51.7282C81.0299 51.8608 80.9547 52.0403 80.9531 52.228C80.9516 52.4156 81.0239 52.5963 81.1545 52.7311C81.7277 53.3039 82.2743 53.9195 82.8014 54.5145C83.291 55.0648 83.7506 55.585 84.1965 56.0302C84.3318 56.1618 84.5131 56.2355 84.7019 56.2355C84.8906 56.2355 85.0719 56.1618 85.2072 56.0302C86.2338 55.0025 87.257 53.9722 88.2769 52.9393C89.2933 51.9114 90.3126 50.885 91.3347 49.8599C91.467 49.7255 91.5411 49.5445 91.5411 49.3559C91.5411 49.1674 91.467 48.9864 91.3347 48.852C91.1981 48.7237 91.0177 48.6523 90.8303 48.6523C90.643 48.6523 90.4626 48.7237 90.326 48.852L85.6515 53.5263Z" fill="#E26655"/>
<path fill-rule="evenodd" clip-rule="evenodd" d="M90.3296 81.4184L85.6551 86.0927C85.5447 86.2031 85.4137 86.2907 85.2695 86.3504C85.1253 86.4102 84.9707 86.4409 84.8147 86.4409C84.6586 86.4409 84.504 86.4102 84.3598 86.3504C84.2156 86.2907 84.0846 86.2031 83.9742 86.0927L82.1691 84.2871C82.0342 84.1545 81.8527 84.0801 81.6636 84.0801C81.4745 84.0801 81.2929 84.1545 81.1581 84.2871C81.0267 84.4224 80.9531 84.6036 80.9531 84.7922C80.9531 84.9808 81.0267 85.162 81.1581 85.2973C81.7313 85.8699 82.2779 86.4856 82.805 87.0807C83.2946 87.6312 83.7563 88.1512 84.2001 88.5968C84.3354 88.7284 84.5167 88.802 84.7055 88.802C84.8942 88.802 85.0755 88.7284 85.2109 88.5968C86.2357 87.5715 87.2563 86.5435 88.2726 85.5128C89.2935 84.4823 90.3117 83.4527 91.3383 82.4267C91.4699 82.2918 91.5435 82.1109 91.5435 81.9225C91.5435 81.734 91.4699 81.5531 91.3383 81.4182C91.2016 81.29 91.0213 81.2187 90.8339 81.2188C90.6465 81.2188 90.4662 81.2902 90.3296 81.4184Z" fill="#E26655"/>
</svg>
