<svg width="104" height="104" viewBox="0 0 104 104" fill="none" xmlns="http://www.w3.org/2000/svg">
<path fill-rule="evenodd" clip-rule="evenodd" d="M72.2077 24.2944C72.1625 24.116 72.1533 23.9304 72.1808 23.7485C72.2083 23.5666 72.2719 23.392 72.3678 23.2349C72.4637 23.0779 72.59 22.9416 72.7393 22.8341C72.8885 22.7265 73.0578 22.6499 73.2371 22.6087C73.4164 22.5675 73.6022 22.5625 73.7835 22.5941C73.9647 22.6256 74.1379 22.6931 74.2927 22.7925C74.4475 22.8918 74.581 23.0212 74.6851 23.1728C74.7893 23.3245 74.8621 23.4955 74.8993 23.6756C75.4325 25.9903 77.854 26.7428 80.0181 26.4609C81.2201 26.3043 82.1712 25.6831 82.5027 24.8391C82.7517 24.2032 82.6114 23.5209 82.108 22.916C81.2636 21.9003 80.3731 21.7679 79.0292 21.5662C78.1633 21.4626 77.3106 21.2684 76.4851 20.9869C76.4695 20.9814 76.4554 20.9761 76.4416 20.9704C74.215 20.0681 72.904 18.3233 72.9335 16.3022C72.9651 14.2387 74.3645 12.3941 76.5001 11.6023C76.8277 11.4807 77.1633 11.3821 77.5046 11.3072V9.70451C77.5046 9.33818 77.6501 8.98685 77.9091 8.72782C78.1682 8.46878 78.5195 8.32326 78.8858 8.32326C79.2522 8.32326 79.6035 8.46878 79.8625 8.72782C80.1216 8.98685 80.2671 9.33818 80.2671 9.70451V11.2741C82.448 11.7165 84.303 13.2819 85.2128 15.6849C85.3426 16.0275 85.331 16.4076 85.1806 16.7416C85.0302 17.0757 84.7532 17.3363 84.4106 17.4661C84.0681 17.5959 83.6879 17.5844 83.3539 17.4339C83.0199 17.2835 82.7593 17.0065 82.6294 16.664C81.756 14.3624 79.6786 13.3693 77.4601 14.1928C76.4183 14.5787 75.7096 15.443 75.6958 16.3432C75.6842 17.1994 76.3076 17.9296 77.4562 18.4007C78.0999 18.611 78.7632 18.756 79.4359 18.8334C80.9713 19.0633 82.7121 19.3245 84.2296 21.1476C85.3726 22.5205 85.6881 24.2777 85.0722 25.8471C84.3637 27.6563 82.6071 28.91 80.3729 29.2006C80.3378 29.2051 80.302 29.2069 80.2663 29.211V30.6981C80.2663 31.0646 80.1207 31.416 79.8616 31.6751C79.6024 31.9343 79.251 32.0798 78.8845 32.0798C78.5181 32.0798 78.1666 31.9343 77.9075 31.6751C77.6483 31.416 77.5028 31.0646 77.5028 30.6981V29.1174C75.0833 28.6534 72.8607 27.1501 72.2059 24.2944H72.2077ZM78.78 6.01312C75.9736 6.01312 73.2303 6.84531 70.8969 8.40445C68.5635 9.9636 66.7449 12.1797 65.6709 14.7724C64.597 17.3652 64.3161 20.2182 64.8636 22.9706C65.4111 25.723 66.7626 28.2513 68.747 30.2356C70.7315 32.22 73.2598 33.5713 76.0122 34.1187C78.7647 34.6662 81.6177 34.3851 84.2104 33.3111C86.8031 32.237 89.0191 30.4183 90.5781 28.0848C92.1371 25.7513 92.9692 23.008 92.9691 20.2016C92.965 16.4396 91.4688 12.8329 88.8087 10.1727C86.1487 7.51251 82.542 6.01615 78.78 6.0119V6.01312ZM78.78 37.154C82.1328 37.1539 85.4103 36.1596 88.1979 34.2969C90.9856 32.4341 93.1584 29.7865 94.4413 26.6889C95.7243 23.5913 96.06 20.1829 95.4058 16.8945C94.7516 13.6062 93.1371 10.5856 90.7663 8.21492C88.3954 5.84419 85.3749 4.22972 82.0865 3.57568C78.7981 2.92164 75.3897 3.2574 72.2921 4.5405C69.1946 5.8236 66.5471 7.99641 64.6844 10.7842C62.8217 13.5719 61.8276 16.8494 61.8276 20.2022C61.8327 24.6967 63.6203 29.0056 66.7985 32.1836C69.9766 35.3616 74.2856 37.1491 78.78 37.154ZM55.7131 45.576L56.8758 41.6354C42.7741 50.2885 27.0593 57.7249 10.1112 63.7577C9.94025 63.8186 9.75901 63.8453 9.57779 63.8361C9.39657 63.827 9.21892 63.7823 9.055 63.7045C8.72393 63.5474 8.46882 63.2652 8.34581 62.92C8.22279 62.5748 8.24194 62.1949 8.39903 61.8638C8.55613 61.5328 8.83831 61.2777 9.18349 61.1546C25.9856 55.1742 41.5539 47.8055 55.5139 39.2304L51.3319 38.3965C51.1521 38.3632 50.9808 38.2944 50.8277 38.1943C50.6747 38.0942 50.5431 37.9647 50.4405 37.8133C50.3379 37.6619 50.2664 37.4917 50.2301 37.3124C50.1939 37.1332 50.1935 36.9486 50.2292 36.7692C50.2648 36.5898 50.3357 36.4193 50.4378 36.2676C50.5399 36.1159 50.671 35.9859 50.8237 35.8852C50.9764 35.7846 51.1475 35.7153 51.3272 35.6813C51.5069 35.6473 51.6915 35.6493 51.8704 35.6872L59.4949 37.206C59.6831 37.2437 59.8615 37.3202 60.0186 37.4306C60.1757 37.5409 60.3081 37.6828 60.4074 37.847C60.5067 38.0113 60.5708 38.1945 60.5956 38.3848C60.6203 38.5752 60.6052 38.7687 60.5512 38.9529L58.3643 46.3592C58.313 46.5333 58.2278 46.6955 58.1138 46.8367C57.9997 46.9778 57.859 47.0951 57.6996 47.1819C57.5403 47.2687 57.3653 47.3232 57.1849 47.3424C57.0044 47.3615 56.822 47.3449 56.6479 47.2936C56.4739 47.2423 56.3116 47.1571 56.1705 47.0431C56.0293 46.929 55.912 46.7883 55.8252 46.6289C55.7385 46.4695 55.684 46.2946 55.6648 46.1142C55.6456 45.9337 55.6622 45.7512 55.7135 45.5772L55.7131 45.576ZM24.156 97.9869H14.5889V80.6173L19.3729 76.9482L24.1569 80.6173V97.9869H24.156ZM26.3786 78.8403L20.2126 74.1106C19.9713 73.9255 19.6758 73.8251 19.3717 73.8251C19.0677 73.8251 18.7721 73.9255 18.5309 74.1106L12.3652 78.8395C12.1969 78.9686 12.0606 79.1346 11.9668 79.3248C11.873 79.515 11.8242 79.7243 11.8243 79.9364V99.3681C11.8243 99.7345 11.9698 100.086 12.2289 100.345C12.4879 100.604 12.8392 100.749 13.2056 100.749H25.5371C25.9034 100.749 26.2547 100.604 26.5138 100.345C26.7728 100.086 26.9183 99.7345 26.9183 99.3681V79.936C26.9181 79.724 26.8692 79.5149 26.7755 79.3248C26.6818 79.1346 26.5457 78.9685 26.3778 78.8391L26.3786 78.8403ZM46.2631 97.9869H36.696V69.2782L41.4791 65.6088L46.2631 69.2778V97.9869ZM48.4859 67.5013L42.3197 62.7723C42.0785 62.5873 41.783 62.487 41.479 62.487C41.1749 62.487 40.8794 62.5873 40.6382 62.7723L34.4748 67.5011C34.3061 67.6299 34.1694 67.7959 34.0752 67.9861C33.981 68.1763 33.9319 68.3857 33.9316 68.598V99.3681C33.932 99.7344 34.0777 100.085 34.3366 100.344C34.5956 100.603 34.9467 100.749 35.3129 100.749H47.6446C48.0109 100.749 48.3623 100.604 48.6213 100.345C48.8803 100.086 49.0259 99.7345 49.0259 99.3681V68.5972C49.026 68.3851 48.9772 68.1758 48.8834 67.9856C48.7896 67.7954 48.6533 67.6293 48.4849 67.5003L48.4859 67.5013ZM68.3719 97.9869V56.2382L63.5885 52.5681L58.8035 56.2382V97.9869H68.3719ZM70.5947 54.4613L64.43 49.7315C64.1888 49.5464 63.8932 49.446 63.5891 49.446C63.285 49.446 62.9894 49.5464 62.7482 49.7315L56.5825 54.4603C56.4145 54.5895 56.2783 54.7557 56.1845 54.9458C56.0908 55.136 56.0419 55.3451 56.0416 55.5571V99.3681C56.042 99.7344 56.1876 100.085 56.4466 100.344C56.7055 100.603 57.0566 100.749 57.4228 100.749H69.7546C70.1209 100.749 70.4722 100.604 70.7312 100.345C70.9903 100.086 71.1358 99.7345 71.1358 99.3681V55.5565C71.136 55.3445 71.0873 55.1353 70.9936 54.945C70.8999 54.7548 70.7637 54.5887 70.5955 54.4596L70.5947 54.4613ZM90.4806 97.9869H80.9134V45.3893L85.6972 41.7199L90.4816 45.3893V97.9869H90.4806ZM92.705 43.6114L86.5392 38.8828C86.2979 38.6977 86.0023 38.5973 85.6982 38.5973C85.3941 38.5973 85.0985 38.6977 84.8573 38.8828L78.6918 43.6114C78.5235 43.7404 78.3871 43.9064 78.2933 44.0966C78.1994 44.2868 78.1507 44.4961 78.1507 44.7082V99.3681C78.1507 99.5495 78.1865 99.7291 78.2559 99.8967C78.3253 100.064 78.427 100.217 78.5553 100.345C78.6835 100.473 78.8358 100.575 79.0034 100.644C79.171 100.714 79.3506 100.749 79.532 100.749H91.8639C92.2302 100.749 92.5816 100.604 92.8406 100.345C93.0996 100.086 93.2451 99.7345 93.2451 99.3681V44.7072C93.2453 44.4951 93.1966 44.2857 93.1027 44.0955C93.0088 43.9053 92.8723 43.7392 92.7038 43.6103L92.705 43.6114Z" fill="#231F20"/>
<path fill-rule="evenodd" clip-rule="evenodd" d="M24.1618 97.9871V80.6183L19.3778 76.9492L14.5938 80.6183V97.9871H24.1618Z" fill="#E26655"/>
<path fill-rule="evenodd" clip-rule="evenodd" d="M58.8125 56.2359V97.9837H68.3811V56.2359L63.5971 52.5664L58.8125 56.2359Z" fill="#E26655"/>
<path fill-rule="evenodd" clip-rule="evenodd" d="M78.7826 34.3899C81.589 34.39 84.3323 33.5578 86.6657 31.9987C88.9991 30.4396 90.8178 28.2236 91.8918 25.6309C92.9658 23.0382 93.2468 20.1852 92.6993 17.4328C92.1519 14.6804 90.8005 12.1521 88.8161 10.1677C86.8317 8.18329 84.3035 6.83189 81.5511 6.28438C78.7987 5.73687 75.9457 6.01785 73.353 7.09179C70.7602 8.16572 68.5442 9.98437 66.9851 12.3178C65.4259 14.6511 64.5938 17.3945 64.5938 20.2008C64.5979 23.9627 66.0941 27.5693 68.7541 30.2294C71.4142 32.8894 75.0208 34.3857 78.7826 34.3899ZM85.0767 25.8465C84.3682 27.6557 82.6115 28.9094 80.3774 29.2001C80.3422 29.2045 80.3065 29.2064 80.2707 29.2104V30.6975C80.2707 31.064 80.1252 31.4154 79.866 31.6746C79.6069 31.9337 79.2554 32.0793 78.889 32.0793C78.5225 32.0793 78.1711 31.9337 77.9119 31.6746C77.6528 31.4154 77.5072 31.064 77.5072 30.6975V29.1166C75.0878 28.6526 72.8652 27.1493 72.2103 24.2936C72.1651 24.1152 72.156 23.9296 72.1834 23.7477C72.2109 23.5658 72.2745 23.3912 72.3704 23.2342C72.4663 23.0771 72.5926 22.9408 72.7419 22.8333C72.8912 22.7258 73.0604 22.6491 73.2398 22.6079C73.4191 22.5667 73.6048 22.5617 73.7861 22.5933C73.9674 22.6248 74.1405 22.6923 74.2953 22.7917C74.4502 22.8911 74.5836 23.0204 74.6878 23.1721C74.7919 23.3237 74.8647 23.4947 74.9019 23.6749C75.4351 25.9895 77.8566 26.7421 80.0207 26.4601C81.2228 26.3035 82.1738 25.6824 82.5053 24.8384C82.7543 24.2024 82.614 23.5201 82.1106 22.9152C81.2663 21.8996 80.3758 21.7671 79.0319 21.5654C78.1659 21.4618 77.3132 21.2676 76.4877 20.9861L76.4443 20.9696C74.218 20.0674 72.907 18.3225 72.9365 16.3014C72.9682 14.2379 74.3675 12.3933 76.5032 11.6015C76.8307 11.4799 77.1664 11.3813 77.5076 11.3064V9.70373C77.5076 9.33739 77.6532 8.98607 77.9122 8.72703C78.1712 8.468 78.5225 8.32248 78.8889 8.32248C79.2552 8.32248 79.6065 8.468 79.8656 8.72703C80.1246 8.98607 80.2701 9.33739 80.2701 9.70373V11.2733C82.4511 11.7157 84.306 13.2812 85.2158 15.6841C85.2801 15.8538 85.3103 16.0344 85.3048 16.2157C85.2993 16.397 85.2581 16.5755 85.1836 16.7409C85.1092 16.9063 85.0028 17.0554 84.8707 17.1797C84.7386 17.304 84.5833 17.401 84.4137 17.4653C84.244 17.5296 84.0634 17.5599 83.8821 17.5543C83.7008 17.5488 83.5223 17.5076 83.3569 17.4332C83.1915 17.3587 83.0424 17.2523 82.9181 17.1202C82.7938 16.9881 82.6968 16.8328 82.6325 16.6632C81.759 14.3616 79.6817 13.3685 77.4631 14.192C76.4213 14.5779 75.7126 15.4422 75.6988 16.3425C75.6872 17.1986 76.3106 17.9289 77.4593 18.3999C78.103 18.6102 78.7662 18.7552 79.4389 18.8326C80.9744 19.0625 82.7151 19.3237 84.2327 21.1468C85.3771 22.5199 85.6925 24.2771 85.0767 25.8465Z" fill="#E26655"/>
</svg>
