<svg width="104" height="104" viewBox="0 0 104 104" fill="none" xmlns="http://www.w3.org/2000/svg">
<path fill-rule="evenodd" clip-rule="evenodd" d="M9.95655 6.58555L15.6052 12.2336C15.7335 12.362 15.8858 12.4638 16.0534 12.5332C16.2211 12.6027 16.4007 12.6384 16.5822 12.6384C16.7636 12.6384 16.9433 12.6027 17.1109 12.5332C17.2785 12.4638 17.4308 12.362 17.5591 12.2336L19.3712 10.4222L20.1731 20.1722L10.4231 19.3692L12.235 17.558C12.4938 17.2987 12.6391 16.9473 12.6391 16.581C12.6391 16.2147 12.4938 15.8634 12.235 15.6041L6.58609 9.9564L9.95655 6.58555ZM9.3033 16.5817L7.44673 18.4389C7.16386 18.7211 6.96772 19.0784 6.88149 19.4686C6.79526 19.8587 6.82255 20.2654 6.96014 20.6405C7.09773 21.0156 7.33987 21.3435 7.65791 21.5854C7.97595 21.8273 8.35661 21.973 8.75486 22.0054L20.7337 22.9911C20.7947 22.9964 20.8534 22.9993 20.9147 22.9993C21.2033 22.9978 21.4884 22.9367 21.7522 22.8198C22.016 22.703 22.2529 22.5329 22.4478 22.3201C22.6428 22.1074 22.7917 21.8567 22.8852 21.5837C22.9786 21.3107 23.0147 21.0214 22.9911 20.7338L22.0063 8.75472C21.9734 8.35672 21.8273 7.97646 21.5853 7.65876C21.3433 7.34107 21.0155 7.09921 20.6406 6.9617C20.2657 6.8242 19.8592 6.79679 19.4692 6.8827C19.0792 6.96862 18.7219 7.16427 18.4395 7.44659L16.5823 9.30315L10.9336 3.65465C10.8053 3.52629 10.653 3.42446 10.4854 3.35499C10.3177 3.28551 10.138 3.24976 9.95655 3.24976C9.77508 3.24976 9.59539 3.28551 9.42774 3.35499C9.2601 3.42446 9.10779 3.52629 8.97952 3.65465L3.6552 8.97958C3.39636 9.23885 3.25098 9.59024 3.25098 9.95661C3.25098 10.323 3.39636 10.6744 3.6552 10.9336L9.3033 16.5817ZM19.3712 93.5775L17.5593 91.766C17.431 91.6376 17.2787 91.5358 17.1111 91.4663C16.9434 91.3969 16.7638 91.3611 16.5823 91.3611C16.4008 91.3611 16.2211 91.3969 16.0535 91.4663C15.8858 91.5358 15.7335 91.6376 15.6052 91.766L9.95655 97.4147L6.58609 94.0428L12.2348 88.3945C12.4934 88.1352 12.6386 87.7839 12.6386 87.4177C12.6386 87.0515 12.4934 86.7002 12.2348 86.4409L10.4235 84.6292L20.1735 83.8265L19.3716 93.5765L19.3712 93.5775ZM20.7335 81.0083L8.75486 81.9945C8.35654 82.0267 7.97578 82.1724 7.65763 82.4142C7.33947 82.656 7.09722 82.9839 6.95954 83.359C6.82185 83.7342 6.79449 84.1409 6.88068 84.5311C6.96687 84.9213 7.16302 85.2787 7.44592 85.561L9.30391 87.4181L3.6552 93.0664C3.39636 93.3257 3.25098 93.6771 3.25098 94.0434C3.25098 94.4098 3.39636 94.7612 3.6552 95.0205L8.98033 100.345C9.1086 100.474 9.2609 100.575 9.42852 100.645C9.59614 100.714 9.77581 100.75 9.95726 100.75C10.1387 100.75 10.3184 100.714 10.486 100.645C10.6536 100.575 10.8059 100.474 10.9342 100.345L16.5823 94.6969L18.4395 96.5545C18.7219 96.8368 19.0792 97.0324 19.4692 97.1183C19.8592 97.2041 20.2656 97.1767 20.6405 97.0392C21.0154 96.9016 21.3431 96.6598 21.5851 96.3421C21.827 96.0244 21.973 95.6441 22.0059 95.2462L22.9913 83.2664C23.0164 82.9636 22.9752 82.6589 22.8706 82.3735C22.7659 82.0882 22.6004 81.8291 22.3855 81.6142C22.1706 81.3993 21.9114 81.2338 21.6261 81.1293C21.3407 81.0247 21.036 80.9836 20.7331 81.0087L20.7335 81.0083ZM94.044 97.4147L88.3951 91.766C88.1358 91.507 87.7843 91.3615 87.4179 91.3615C87.0514 91.3615 86.6999 91.507 86.4406 91.766L84.6294 93.5777L83.8282 83.8277L93.5782 84.6304L91.7655 86.4419C91.5069 86.7013 91.3616 87.0526 91.3616 87.4189C91.3616 87.7852 91.5069 88.1366 91.7655 88.396L97.4151 94.0441L94.0432 97.4159L94.044 97.4147ZM94.6966 87.4181L96.5546 85.5605C96.8373 85.2782 97.0333 84.9209 97.1194 84.5307C97.2055 84.1406 97.178 83.7339 97.0403 83.3589C96.9026 82.9838 96.6604 82.6561 96.3423 82.4143C96.0242 82.1726 95.6435 82.0269 95.2453 81.9947L83.2678 81.0087C82.9649 80.9832 82.66 81.0241 82.3744 81.1286C82.0889 81.233 81.8296 81.3985 81.6145 81.6134C81.3995 81.8283 81.234 82.0876 81.1294 82.3731C81.0249 82.6586 80.9839 82.9635 81.0093 83.2664L81.9942 95.2449C82.0269 95.643 82.1727 96.0234 82.4145 96.3413C82.6564 96.6592 82.9841 96.9013 83.359 97.0389C83.734 97.1766 84.1404 97.2042 84.5305 97.1183C84.9206 97.0325 85.278 96.8368 85.5605 96.5545L87.4183 94.6969L93.067 100.345C93.1952 100.473 93.3475 100.575 93.5151 100.645C93.6827 100.714 93.8623 100.75 94.0437 100.75C94.2251 100.75 94.4047 100.714 94.5723 100.645C94.7399 100.575 94.8922 100.473 95.0204 100.345L100.346 95.0201C100.605 94.7608 100.75 94.4096 100.75 94.0434C100.75 93.6772 100.605 93.3259 100.346 93.0666L94.6971 87.4181H94.6966ZM84.6294 10.4224L86.4412 12.2336C86.5695 12.3619 86.7218 12.4637 86.8894 12.5331C87.0569 12.6025 87.2366 12.6382 87.418 12.6382C87.5994 12.6382 87.779 12.6025 87.9466 12.5331C88.1142 12.4637 88.2664 12.3619 88.3947 12.2336L94.044 6.58534L97.4159 9.95722L91.7658 15.6047C91.6374 15.733 91.5356 15.8853 91.4661 16.0529C91.3966 16.2206 91.3609 16.4003 91.3609 16.5817C91.3609 16.7632 91.3966 16.9429 91.4661 17.1105C91.5356 17.2782 91.6374 17.4305 91.7658 17.5588L93.5784 19.37L83.8284 20.173L84.6296 10.423L84.6294 10.4224ZM83.0856 22.9991C83.1465 22.9991 83.2057 22.9966 83.2668 22.9915L95.2453 22.0052C95.6434 21.9728 96.024 21.8271 96.342 21.5852C96.66 21.3434 96.9021 21.0157 97.0397 20.6406C97.1773 20.2656 97.2047 19.859 97.1186 19.4689C97.0325 19.0788 96.8365 18.7216 96.5538 18.4393L94.6971 16.5817L100.347 10.9334C100.605 10.6741 100.75 10.3228 100.75 9.95661C100.75 9.59038 100.605 9.23909 100.347 8.97978L95.0208 3.65465C94.7616 3.39559 94.4101 3.25006 94.0436 3.25006C93.6771 3.25006 93.3256 3.39559 93.0664 3.65465L87.4183 9.30315L85.5611 7.44558C85.2785 7.16333 84.9211 6.96777 84.5311 6.88196C84.141 6.79615 83.7345 6.82367 83.3596 6.96127C82.9846 7.09888 82.6569 7.34083 82.4149 7.65859C82.173 7.97636 82.0269 8.35668 81.994 8.75472L81.0093 20.7344C80.9856 21.022 81.0217 21.3113 81.1152 21.5843C81.2087 21.8573 81.3576 22.108 81.5526 22.3207C81.7476 22.5334 81.9845 22.7035 82.2483 22.8203C82.5121 22.9371 82.7973 22.9981 83.0858 22.9995L83.0856 22.9991ZM52.0002 67.236C48.9867 67.2359 46.041 66.3423 43.5355 64.6681C41.0299 62.9938 39.0771 60.6142 37.924 57.8301C36.7709 55.0461 36.4692 51.9826 37.0572 49.0271C37.6452 46.0716 39.0963 43.3568 41.2272 41.226C43.358 39.0952 46.0729 37.6442 49.0284 37.0563C51.984 36.4685 55.0474 36.7703 57.8315 37.9235C60.6155 39.0767 62.995 41.0296 64.6691 43.5352C66.3433 46.0408 67.2368 48.9866 67.2368 52C67.2321 56.0395 65.6253 59.9122 62.7689 62.7686C59.9125 65.6249 56.0397 67.2315 52.0002 67.236ZM52.0002 34.0003C48.4402 34.0004 44.9602 35.056 42.0003 37.0339C39.0403 39.0117 36.7333 41.8228 35.371 45.1118C34.0086 48.4008 33.6522 52.0199 34.3467 55.5114C35.0412 59.0029 36.7555 62.2101 39.2728 64.7274C41.7901 67.2447 44.9972 68.959 48.4888 69.6535C51.9803 70.348 55.5994 69.9916 58.8884 68.6292C62.1774 67.2669 64.9885 64.9599 66.9663 62C68.9442 59.04 69.9999 55.56 69.9999 52C69.9944 47.2279 68.0962 42.6528 64.7218 39.2784C61.3474 35.904 56.7723 34.0058 52.0002 34.0003ZM76.4877 71.069L71.0697 76.4872C70.7846 76.7689 70.3999 76.9268 69.9991 76.9268C69.5982 76.9268 69.2136 76.7689 68.9284 76.4872L64.7719 72.329C64.5595 72.1168 64.2838 71.9795 63.9864 71.9378C63.6891 71.8961 63.3863 71.9522 63.1237 72.0978C61.611 72.9371 60.008 73.6021 58.3454 74.0801C58.057 74.1628 57.8034 74.3371 57.6229 74.5766C57.4424 74.8162 57.3448 75.108 57.3448 75.408V81.2856C57.3442 81.6869 57.1844 82.0716 56.9006 82.3553C56.6167 82.639 56.2318 82.7985 55.8305 82.7989H48.1696C47.7683 82.7986 47.3835 82.6392 47.0996 82.3556C46.8157 82.0719 46.6558 81.6873 46.6551 81.286V75.408C46.6551 75.108 46.5574 74.8162 46.3769 74.5767C46.1963 74.3372 45.9427 74.1629 45.6543 74.0803C43.9918 73.6023 42.3888 72.9373 40.876 72.098C40.6135 71.9525 40.3107 71.8963 40.0134 71.938C39.7161 71.9797 39.4404 72.117 39.2281 72.3292L35.0717 76.4872C34.7875 76.7706 34.4024 76.9298 34.001 76.9298C33.5995 76.9298 33.2145 76.7706 32.9302 76.4872L27.5126 71.0688C27.2307 70.7841 27.0725 70.3996 27.0725 69.9988C27.0725 69.5981 27.2307 69.2136 27.5126 68.9289L31.6714 64.7707C31.8838 64.5586 32.0212 64.283 32.0628 63.9858C32.1045 63.6886 32.0481 63.3859 31.9022 63.1236C31.0631 61.6106 30.3983 60.0074 29.9205 58.3446C29.8377 58.0563 29.6633 57.8028 29.4237 57.6223C29.1841 57.4419 28.8922 57.3443 28.5922 57.3445H22.715C22.3137 57.3441 21.9289 57.1846 21.645 56.9009C21.3611 56.6172 21.2013 56.2325 21.2007 55.8312V48.1687C21.2012 47.7674 21.3609 47.3828 21.6447 47.0991C21.9284 46.8154 22.3132 46.6559 22.7144 46.6556H28.5929C28.8927 46.6556 29.1843 46.558 29.4238 46.3776C29.6633 46.1972 29.8375 45.9438 29.9203 45.6556C30.398 43.9928 31.0628 42.3896 31.902 40.8767C32.0479 40.6144 32.1044 40.3116 32.0627 40.0143C32.0211 39.7171 31.8836 39.4415 31.6712 39.2294L27.5128 35.0714C27.2309 34.7867 27.0727 34.4021 27.0727 34.0014C27.0727 33.6007 27.2309 33.2162 27.5128 32.9315L32.931 27.5131C33.2152 27.2297 33.6002 27.0705 34.0016 27.0705C34.4029 27.0705 34.7879 27.2297 35.0721 27.5131L39.2289 31.6711C39.4411 31.8835 39.7167 32.021 40.014 32.0627C40.3113 32.1045 40.6142 32.0482 40.8766 31.9024C42.3892 31.0631 43.992 30.3981 45.6545 29.9203C45.9429 29.8377 46.1965 29.6634 46.3771 29.4238C46.5576 29.1842 46.6552 28.8923 46.6551 28.5923V22.7141C46.6557 22.3129 46.8154 21.9282 47.0991 21.6446C47.3829 21.361 47.7676 21.2015 48.1688 21.2012H55.8315C56.2327 21.2016 56.6174 21.3612 56.901 21.6449C57.1847 21.9286 57.3442 22.3133 57.3446 22.7145V28.5921C57.3445 28.892 57.4421 29.1839 57.6225 29.4235C57.803 29.663 58.0565 29.8374 58.3448 29.9201C60.0075 30.3978 61.6105 31.0628 63.1231 31.9022C63.3856 32.0478 63.6884 32.104 63.9857 32.0623C64.283 32.0207 64.5586 31.8834 64.771 31.6713L68.928 27.5129C69.2131 27.2313 69.5978 27.0733 69.9986 27.0733C70.3994 27.0733 70.784 27.2313 71.0691 27.5129L76.4871 32.9311C76.769 33.2158 76.9272 33.6004 76.9272 34.0011C76.9272 34.4019 76.769 34.7864 76.4871 35.0712L72.3289 39.229C72.1166 39.4411 71.9791 39.7167 71.9374 40.014C71.8956 40.3113 71.9519 40.614 72.0976 40.8765C72.9367 42.3893 73.6015 43.9925 74.0792 45.6552C74.1619 45.9436 74.3363 46.1973 74.5759 46.3778C74.8156 46.5583 75.1075 46.6559 75.4075 46.6558H81.2851C81.6864 46.6562 82.0712 46.8158 82.355 47.0996C82.6389 47.3834 82.7985 47.7682 82.799 48.1695V55.8318C82.7984 56.2331 82.6386 56.6179 82.3548 56.9016C82.0709 57.1853 81.6861 57.3449 81.2847 57.3453H75.4085C75.1084 57.345 74.8164 57.4425 74.5766 57.623C74.3369 57.8035 74.1624 58.0572 74.0797 58.3456C73.6023 60.0086 72.9375 61.6118 72.098 63.1246C71.9523 63.387 71.896 63.6897 71.9377 63.9869C71.9793 64.2841 72.1167 64.5597 72.3289 64.7719L76.4877 68.9295C76.7696 69.2143 76.9277 69.5988 76.9277 69.9995C76.9277 70.4003 76.7696 70.7848 76.4877 71.0696V71.069ZM75.0037 63.5375C75.5597 62.43 76.0349 61.2837 76.4255 60.1076H81.2849C82.4187 60.1065 83.5058 59.6556 84.3077 58.8539C85.1095 58.0522 85.5605 56.9652 85.5617 55.8314V48.1687C85.5603 47.0348 85.1092 45.9478 84.3073 45.1461C83.5055 44.3445 82.4184 43.8936 81.2845 43.8925H76.4253C76.0342 42.7164 75.5586 41.5702 75.002 40.4627L78.4405 37.0248C79.2406 36.222 79.6899 35.1348 79.6899 34.0013C79.6899 32.8679 79.2406 31.7807 78.4405 30.9778L73.0236 25.5588C72.2204 24.7592 71.1332 24.3103 69.9998 24.3103C68.8664 24.3103 67.7792 24.7592 66.976 25.5588L63.5377 28.9963C62.4302 28.4398 61.2837 27.9646 60.1073 27.5745V22.7147C60.1058 21.5808 59.6547 20.4938 58.8528 19.6922C58.0509 18.8906 56.9638 18.4398 55.8299 18.4387H48.1696C47.0357 18.4398 45.9485 18.8907 45.1466 19.6924C44.3447 20.4941 43.8935 21.5812 43.892 22.7151V27.5742C42.7159 27.9657 41.5695 28.4412 40.4617 28.9973L37.0258 25.5588C36.2224 24.759 35.1348 24.3099 34.0011 24.3099C32.8673 24.3099 31.7798 24.759 30.9763 25.5588L25.559 30.9766C24.7589 31.7796 24.3097 32.8669 24.3097 34.0004C24.3097 35.1339 24.7589 36.2213 25.559 37.0242L28.9969 40.4625C28.4403 41.5702 27.9647 42.7166 27.5736 43.8929H22.715C21.581 43.894 20.4938 44.345 19.6918 45.1467C18.8899 45.9485 18.4388 47.0357 18.4374 48.1697V55.832C18.4387 56.9659 18.8897 58.0529 19.6914 58.8547C20.4932 59.6565 21.5803 60.1074 22.7142 60.1086H27.574C27.9646 61.2848 28.4398 62.4311 28.9959 63.5387L25.5582 66.9764C24.7581 67.7794 24.3089 68.8667 24.3089 70.0003C24.3089 71.1338 24.7581 72.2211 25.5582 73.0241L30.9767 78.441C31.78 79.241 32.8675 79.6902 34.0012 79.6902C35.1348 79.6902 36.2223 79.241 37.0256 78.441L40.4627 75.0033C41.5701 75.5598 42.7164 76.0354 43.8924 76.4264V81.2858C43.8937 82.4196 44.3447 83.5066 45.1465 84.3084C45.9483 85.1101 47.0354 85.561 48.1692 85.5622H55.8319C56.9656 85.561 58.0526 85.1102 58.8543 84.3086C59.6559 83.507 60.1069 82.4201 60.1081 81.2864V76.4266C61.2842 76.0363 62.4305 75.561 63.5379 75.0047L66.9762 78.442C67.7788 79.2419 68.8657 79.691 69.9988 79.691C71.1319 79.691 72.2188 79.2419 73.0214 78.442L78.4416 73.0235C79.2417 72.2206 79.6909 71.1333 79.6909 69.9997C79.6909 68.8662 79.2417 67.7789 78.4416 66.976L75.0037 63.5375Z" fill="#231F20"/>
<path fill-rule="evenodd" clip-rule="evenodd" d="M51.9998 34.0003C55.5598 34.0004 59.0397 35.0561 61.9996 37.034C64.9596 39.0119 67.2665 41.8231 68.6288 45.1121C69.991 48.401 70.3474 52.0201 69.6528 55.5116C68.9583 59.0031 67.2439 62.2103 64.7267 64.7275C62.2094 67.2447 59.0022 68.959 55.5107 69.6535C52.0191 70.348 48.4001 69.9915 45.1111 68.6292C41.8222 67.2668 39.011 64.9598 37.0332 61.9999C35.0554 59.0399 33.9998 55.5599 33.9997 52C34.005 47.2277 35.9031 42.6524 39.2777 39.278C42.6522 35.9035 47.2276 34.0054 51.9998 34.0003ZM29.9201 58.3448C30.398 60.0076 31.0628 61.6108 31.9018 63.1237C32.0477 63.386 32.1041 63.6887 32.0625 63.986C32.0208 64.2832 31.8834 64.5588 31.6711 64.7709L27.5123 68.929C27.23 69.2136 27.0717 69.5982 27.0717 69.999C27.0717 70.3998 27.23 70.7844 27.5123 71.069L32.9299 76.4873C33.2141 76.7708 33.5992 76.9299 34.0006 76.9299C34.4021 76.9299 34.7871 76.7708 35.0714 76.4873L39.2277 72.3294C39.4401 72.1172 39.7158 71.9799 40.0131 71.9382C40.3104 71.8965 40.6131 71.9527 40.8757 72.0982C42.3885 72.9372 43.9916 73.6019 45.6542 74.0797C45.9426 74.1623 46.1962 74.3365 46.3767 74.5761C46.5573 74.8156 46.655 75.1074 46.655 75.4073V81.2853C46.6557 81.6866 46.8155 82.0713 47.0995 82.3549C47.3834 82.6385 47.7682 82.798 48.1695 82.7982H55.8308C56.2321 82.7979 56.6169 82.6384 56.9008 82.3547C57.1847 82.071 57.3445 81.6863 57.3451 81.2849V75.4073C57.3451 75.1073 57.4427 74.8155 57.6232 74.576C57.8037 74.3364 58.0573 74.1621 58.3457 74.0795C60.0082 73.6014 61.6113 72.9364 63.124 72.0972C63.3866 71.9516 63.6894 71.8954 63.9867 71.9371C64.284 71.9788 64.5597 72.1161 64.7721 72.3283L68.9287 76.4865C69.2138 76.7682 69.5985 76.9262 69.9994 76.9262C70.4002 76.9262 70.7849 76.7682 71.07 76.4865L76.488 71.0684C76.7701 70.7836 76.9283 70.3991 76.9283 69.9983C76.9283 69.5975 76.7701 69.2129 76.488 68.9282L72.3286 64.7713C72.1163 64.5591 71.979 64.2835 71.9373 63.9863C71.8956 63.689 71.9519 63.3863 72.0976 63.1239C72.9371 61.6112 73.602 60.0079 74.0793 58.345C74.1621 58.0565 74.3365 57.8029 74.5763 57.6224C74.816 57.4419 75.1081 57.3444 75.4082 57.3446H81.2852C81.6865 57.3442 82.0714 57.1847 82.3552 56.901C82.6391 56.6172 82.7989 56.2325 82.7995 55.8311V48.1689C82.799 47.7675 82.6393 47.3828 82.3555 47.099C82.0717 46.8152 81.6869 46.6556 81.2856 46.6552H75.408C75.1079 46.6553 74.816 46.5577 74.5764 46.3772C74.3368 46.1966 74.1624 45.943 74.0797 45.6546C73.602 43.9919 72.9372 42.3887 72.098 40.8759C71.9523 40.6134 71.8961 40.3106 71.9378 40.0133C71.9796 39.7161 72.117 39.4405 72.3294 39.2283L76.4876 35.0705C76.7697 34.7859 76.9281 34.4013 76.9281 34.0005C76.9281 33.5997 76.7697 33.2151 76.4876 32.9304L71.0696 27.5123C70.7846 27.2303 70.3999 27.0722 69.9991 27.0722C69.5982 27.0722 69.2135 27.2303 68.9285 27.5123L64.7715 31.6706C64.5591 31.8828 64.2834 32.02 63.9862 32.0617C63.6889 32.1033 63.3861 32.0472 63.1236 31.9016C61.611 31.0621 60.0079 30.3972 58.3453 29.9195C58.057 29.8368 57.8034 29.6624 57.623 29.4228C57.4425 29.1832 57.345 28.8914 57.3451 28.5915V22.7138C57.3447 22.3126 57.1852 21.928 56.9015 21.6443C56.6178 21.3606 56.2332 21.201 55.832 21.2006H48.1687C47.7675 21.2009 47.3828 21.3604 47.099 21.644C46.8152 21.9276 46.6555 22.3122 46.655 22.7134V28.5915C46.6551 28.8915 46.5575 29.1833 46.3769 29.4229C46.1964 29.6625 45.9428 29.8368 45.6544 29.9195C43.9918 30.3972 42.3888 31.0621 40.8761 31.9014C40.6136 32.0471 40.3108 32.1034 40.0135 32.0617C39.7162 32.0199 39.4405 31.8824 39.2284 31.67L35.0716 27.5121C34.7874 27.2286 34.4024 27.0695 34.001 27.0695C33.5997 27.0695 33.2147 27.2286 32.9305 27.5121L27.5123 32.9304C27.2301 33.215 27.0718 33.5996 27.0718 34.0004C27.0718 34.4012 27.2301 34.7857 27.5123 35.0703L31.6707 39.2283C31.8831 39.4404 32.0206 39.716 32.0622 40.0133C32.1038 40.3106 32.0474 40.6133 31.9014 40.8757C31.0623 42.3886 30.3975 43.9918 29.9197 45.6546C29.837 45.9427 29.6627 46.1961 29.4233 46.3765C29.1838 46.5569 28.8921 46.6545 28.5923 46.6546H22.7139C22.3126 46.6549 21.9279 46.8144 21.6441 47.0981C21.3603 47.3817 21.2007 47.7664 21.2002 48.1676V55.8303C21.2008 56.2317 21.3605 56.6164 21.6444 56.9001C21.9283 57.1838 22.3131 57.3433 22.7145 57.3436H28.5917C28.8918 57.3435 29.1839 57.4412 29.4235 57.6218C29.6632 57.8024 29.8376 58.0563 29.9201 58.3448Z" fill="#00ABEA"/>
</svg>
