<svg width="104" height="104" viewBox="0 0 104 104" fill="none" xmlns="http://www.w3.org/2000/svg">
<path fill-rule="evenodd" clip-rule="evenodd" d="M9.95557 6.58555L15.6043 12.2336C15.7325 12.362 15.8848 12.4638 16.0525 12.5332C16.2201 12.6027 16.3998 12.6384 16.5812 12.6384C16.7626 12.6384 16.9423 12.6027 17.1099 12.5332C17.2776 12.4638 17.4299 12.362 17.5581 12.2336L19.3702 10.4222L20.1721 20.1722L10.4221 19.3692L12.234 17.558C12.4928 17.2987 12.6381 16.9473 12.6381 16.581C12.6381 16.2147 12.4928 15.8634 12.234 15.6041L6.58512 9.9564L9.95557 6.58555ZM9.30232 16.5817L7.44576 18.4389C7.16289 18.7211 6.96674 19.0784 6.88051 19.4686C6.79428 19.8587 6.82157 20.2654 6.95917 20.6405C7.09676 21.0156 7.33889 21.3435 7.65693 21.5854C7.97498 21.8273 8.35563 21.973 8.75388 22.0054L20.7328 22.9911C20.7937 22.9964 20.8524 22.9993 20.9138 22.9993C21.2023 22.9978 21.4874 22.9367 21.7512 22.8198C22.0151 22.703 22.2519 22.5329 22.4468 22.3201C22.6418 22.1074 22.7907 21.8567 22.8842 21.5837C22.9777 21.3107 23.0137 21.0214 22.9901 20.7338L22.0054 8.75472C21.9724 8.35672 21.8263 7.97646 21.5843 7.65876C21.3423 7.34107 21.0146 7.09921 20.6396 6.9617C20.2647 6.8242 19.8582 6.79679 19.4682 6.8827C19.0782 6.96862 18.7209 7.16427 18.4385 7.44659L16.5813 9.30315L10.9326 3.65465C10.8043 3.52629 10.652 3.42446 10.4844 3.35499C10.3167 3.28551 10.137 3.24976 9.95557 3.24976C9.7741 3.24976 9.59441 3.28551 9.42677 3.35499C9.25912 3.42446 9.10681 3.52629 8.97854 3.65465L3.65423 8.97958C3.39538 9.23885 3.25 9.59024 3.25 9.95661C3.25 10.323 3.39538 10.6744 3.65423 10.9336L9.30232 16.5817ZM19.3702 93.5775L17.5583 91.766C17.4301 91.6376 17.2778 91.5358 17.1101 91.4663C16.9425 91.3969 16.7628 91.3611 16.5813 91.3611C16.3998 91.3611 16.2201 91.3969 16.0525 91.4663C15.8849 91.5358 15.7325 91.6376 15.6043 91.766L9.95557 97.4147L6.58512 94.0428L12.2338 88.3945C12.4924 88.1352 12.6376 87.7839 12.6376 87.4177C12.6376 87.0515 12.4924 86.7002 12.2338 86.4409L10.4226 84.6292L20.1726 83.8265L19.3706 93.5765L19.3702 93.5775ZM20.7326 81.0083L8.75388 81.9945C8.35556 82.0267 7.97481 82.1724 7.65665 82.4142C7.33849 82.656 7.09624 82.9839 6.95856 83.359C6.82087 83.7342 6.79351 84.1409 6.8797 84.5311C6.9659 84.9213 7.16204 85.2787 7.44494 85.561L9.30293 87.4181L3.65423 93.0664C3.39538 93.3257 3.25 93.6771 3.25 94.0434C3.25 94.4098 3.39538 94.7612 3.65423 95.0205L8.97935 100.345C9.10762 100.474 9.25992 100.575 9.42754 100.645C9.59517 100.714 9.77484 100.75 9.95628 100.75C10.1377 100.75 10.3174 100.714 10.485 100.645C10.6526 100.575 10.8049 100.474 10.9332 100.345L16.5813 94.6969L18.4385 96.5545C18.7209 96.8368 19.0782 97.0324 19.4682 97.1183C19.8582 97.2041 20.2646 97.1767 20.6395 97.0392C21.0144 96.9016 21.3421 96.6598 21.5841 96.3421C21.826 96.0244 21.972 95.6441 22.0049 95.2462L22.9903 83.2664C23.0154 82.9636 22.9742 82.6589 22.8696 82.3735C22.765 82.0882 22.5994 81.8291 22.3845 81.6142C22.1696 81.3993 21.9105 81.2338 21.6251 81.1293C21.3397 81.0247 21.035 80.9836 20.7322 81.0087L20.7326 81.0083ZM94.043 97.4147L88.3941 91.766C88.1348 91.507 87.7834 91.3615 87.4169 91.3615C87.0504 91.3615 86.6989 91.507 86.4397 91.766L84.6284 93.5777L83.8273 83.8277L93.5773 84.6304L91.7646 86.4419C91.5059 86.7013 91.3607 87.0526 91.3607 87.4189C91.3607 87.7852 91.5059 88.1366 91.7646 88.396L97.4141 94.0441L94.0422 97.4159L94.043 97.4147ZM94.6957 87.4181L96.5536 85.5605C96.8364 85.2782 97.0324 84.9209 97.1184 84.5307C97.2045 84.1406 97.177 83.7339 97.0393 83.3589C96.9016 82.9838 96.6594 82.6561 96.3413 82.4143C96.0232 82.1726 95.6425 82.0269 95.2443 81.9947L83.2668 81.0087C82.9639 80.9832 82.659 81.0241 82.3735 81.1286C82.0879 81.233 81.8286 81.3985 81.6136 81.6134C81.3985 81.8283 81.233 82.0876 81.1284 82.3731C81.0239 82.6586 80.9829 82.9635 81.0083 83.2664L81.9932 95.2449C82.0259 95.643 82.1717 96.0234 82.4136 96.3413C82.6554 96.6592 82.9831 96.9013 83.358 97.0389C83.733 97.1766 84.1395 97.2042 84.5295 97.1183C84.9196 97.0325 85.277 96.8368 85.5595 96.5545L87.4173 94.6969L93.066 100.345C93.1943 100.473 93.3465 100.575 93.5141 100.645C93.6817 100.714 93.8613 100.75 94.0427 100.75C94.2241 100.75 94.4037 100.714 94.5713 100.645C94.7389 100.575 94.8912 100.473 95.0194 100.345L100.345 95.0201C100.604 94.7608 100.749 94.4096 100.749 94.0434C100.749 93.6772 100.604 93.3259 100.345 93.0666L94.6961 87.4181H94.6957ZM84.6284 10.4224L86.4403 12.2336C86.5685 12.3619 86.7208 12.4637 86.8884 12.5331C87.056 12.6025 87.2356 12.6382 87.417 12.6382C87.5984 12.6382 87.778 12.6025 87.9456 12.5331C88.1132 12.4637 88.2654 12.3619 88.3937 12.2336L94.043 6.58534L97.4149 9.95722L91.7648 15.6047C91.6364 15.733 91.5346 15.8853 91.4651 16.0529C91.3956 16.2206 91.3599 16.4003 91.3599 16.5817C91.3599 16.7632 91.3956 16.9429 91.4651 17.1105C91.5346 17.2782 91.6364 17.4305 91.7648 17.5588L93.5775 19.37L83.8275 20.173L84.6286 10.423L84.6284 10.4224ZM83.0846 22.9991C83.1456 22.9991 83.2047 22.9966 83.2658 22.9915L95.2443 22.0052C95.6425 21.9728 96.023 21.8271 96.341 21.5852C96.659 21.3434 96.9011 21.0157 97.0387 20.6406C97.1763 20.2656 97.2037 19.859 97.1176 19.4689C97.0315 19.0788 96.8355 18.7216 96.5528 18.4393L94.6961 16.5817L100.346 10.9334C100.604 10.6741 100.749 10.3228 100.749 9.95661C100.749 9.59038 100.604 9.23909 100.346 8.97978L95.0199 3.65465C94.7606 3.39559 94.4091 3.25006 94.0426 3.25006C93.6761 3.25006 93.3246 3.39559 93.0654 3.65465L87.4173 9.30315L85.5601 7.44558C85.2775 7.16333 84.9201 6.96777 84.5301 6.88196C84.14 6.79615 83.7335 6.82367 83.3586 6.96127C82.9837 7.09888 82.6559 7.34083 82.4139 7.65859C82.172 7.97636 82.0259 8.35668 81.993 8.75472L81.0083 20.7344C80.9847 21.022 81.0207 21.3113 81.1142 21.5843C81.2077 21.8573 81.3567 22.108 81.5516 22.3207C81.7466 22.5334 81.9835 22.7035 82.2473 22.8203C82.5112 22.9371 82.7963 22.9981 83.0848 22.9995L83.0846 22.9991ZM51.9992 67.236C48.9858 67.2359 46.04 66.3423 43.5345 64.6681C41.029 62.9938 39.0762 60.6142 37.923 57.8301C36.7699 55.0461 36.4683 51.9826 37.0562 49.0271C37.6442 46.0716 39.0953 43.3568 41.2262 41.226C43.3571 39.0952 46.0719 37.6442 49.0274 37.0563C51.983 36.4685 55.0465 36.7703 57.8305 37.9235C60.6145 39.0767 62.994 41.0296 64.6682 43.5352C66.3423 46.0408 67.2358 48.9866 67.2358 52C67.2311 56.0395 65.6243 59.9122 62.7679 62.7686C59.9115 65.6249 56.0387 67.2315 51.9992 67.236ZM51.9992 34.0003C48.4392 34.0004 44.9593 35.056 41.9993 37.0339C39.0393 39.0117 36.7323 41.8228 35.37 45.1118C34.0077 48.4008 33.6512 52.0199 34.3457 55.5114C35.0403 59.0029 36.7546 62.2101 39.2718 64.7274C41.7891 67.2447 44.9963 68.959 48.4878 69.6535C51.9794 70.348 55.5984 69.9916 58.8874 68.6292C62.1764 67.2669 64.9875 64.9599 66.9654 62C68.9432 59.04 69.9989 55.56 69.9989 52C69.9934 47.2279 68.0952 42.6528 64.7208 39.2784C61.3464 35.904 56.7713 34.0058 51.9992 34.0003ZM76.4867 71.069L71.0688 76.4872C70.7836 76.7689 70.3989 76.9268 69.9981 76.9268C69.5973 76.9268 69.2126 76.7689 68.9274 76.4872L64.7709 72.329C64.5585 72.1168 64.2828 71.9795 63.9855 71.9378C63.6881 71.8961 63.3853 71.9522 63.1227 72.0978C61.61 72.9371 60.007 73.6021 58.3444 74.0801C58.0561 74.1628 57.8025 74.3371 57.622 74.5766C57.4414 74.8162 57.3438 75.108 57.3438 75.408V81.2856C57.3432 81.6869 57.1835 82.0716 56.8996 82.3553C56.6157 82.639 56.2309 82.7985 55.8295 82.7989H48.1687C47.7674 82.7986 47.3825 82.6392 47.0986 82.3556C46.8147 82.0719 46.6549 81.6873 46.6542 81.286V75.408C46.6541 75.108 46.5564 74.8162 46.3759 74.5767C46.1953 74.3372 45.9417 74.1629 45.6534 74.0803C43.9908 73.6023 42.3878 72.9373 40.8751 72.098C40.6125 71.9525 40.3097 71.8963 40.0124 71.938C39.7151 71.9797 39.4395 72.117 39.2271 72.3292L35.0708 76.4872C34.7865 76.7706 34.4014 76.9298 34 76.9298C33.5985 76.9298 33.2135 76.7706 32.9292 76.4872L27.5117 71.0688C27.2297 70.7841 27.0715 70.3996 27.0715 69.9988C27.0715 69.5981 27.2297 69.2136 27.5117 68.9289L31.6704 64.7707C31.8828 64.5586 32.0202 64.283 32.0618 63.9858C32.1035 63.6886 32.0471 63.3859 31.9012 63.1236C31.0622 61.6106 30.3973 60.0074 29.9195 58.3446C29.8368 58.0563 29.6624 57.8028 29.4227 57.6223C29.1831 57.4419 28.8912 57.3443 28.5913 57.3445H22.7141C22.3127 57.3441 21.9279 57.1846 21.644 56.9009C21.3601 56.6172 21.2003 56.2325 21.1998 55.8312V48.1687C21.2002 47.7674 21.3599 47.3828 21.6437 47.0991C21.9275 46.8154 22.3122 46.6559 22.7134 46.6556H28.5919C28.8917 46.6556 29.1834 46.558 29.4228 46.3776C29.6623 46.1972 29.8365 45.9438 29.9193 45.6556C30.397 43.9928 31.0618 42.3896 31.901 40.8767C32.047 40.6144 32.1034 40.3116 32.0618 40.0143C32.0201 39.7171 31.8827 39.4415 31.6702 39.2294L27.5119 35.0714C27.2299 34.7867 27.0717 34.4021 27.0717 34.0014C27.0717 33.6007 27.2299 33.2162 27.5119 32.9315L32.93 27.5131C33.2142 27.2297 33.5992 27.0705 34.0006 27.0705C34.402 27.0705 34.787 27.2297 35.0712 27.5131L39.2279 31.6711C39.4401 31.8835 39.7157 32.021 40.013 32.0627C40.3104 32.1045 40.6132 32.0482 40.8757 31.9024C42.3882 31.0631 43.9911 30.3981 45.6536 29.9203C45.9419 29.8377 46.1956 29.6634 46.3761 29.4238C46.5566 29.1842 46.6542 28.8923 46.6542 28.5923V22.7141C46.6547 22.3129 46.8144 21.9282 47.0982 21.6446C47.3819 21.361 47.7666 21.2015 48.1679 21.2012H55.8305C56.2317 21.2016 56.6164 21.3612 56.9 21.6449C57.1837 21.9286 57.3432 22.3133 57.3436 22.7145V28.5921C57.3435 28.892 57.4411 29.1839 57.6215 29.4235C57.802 29.663 58.0555 29.8374 58.3438 29.9201C60.0065 30.3978 61.6095 31.0628 63.1221 31.9022C63.3847 32.0478 63.6874 32.104 63.9847 32.0623C64.282 32.0207 64.5577 31.8834 64.7701 31.6713L68.927 27.5129C69.2122 27.2313 69.5968 27.0733 69.9976 27.0733C70.3984 27.0733 70.783 27.2313 71.0682 27.5129L76.4861 32.9311C76.768 33.2158 76.9262 33.6004 76.9262 34.0011C76.9262 34.4019 76.768 34.7864 76.4861 35.0712L72.3279 39.229C72.1156 39.4411 71.9781 39.7167 71.9364 40.014C71.8946 40.3113 71.9509 40.614 72.0966 40.8765C72.9357 42.3893 73.6005 43.9925 74.0783 45.6552C74.161 45.9436 74.3353 46.1973 74.5749 46.3778C74.8146 46.5583 75.1065 46.6559 75.4065 46.6558H81.2841C81.6855 46.6562 82.0703 46.8158 82.3541 47.0996C82.6379 47.3834 82.7975 47.7682 82.798 48.1695V55.8318C82.7974 56.2331 82.6377 56.6179 82.3538 56.9016C82.0699 57.1853 81.6851 57.3449 81.2837 57.3453H75.4075C75.1074 57.345 74.8154 57.4425 74.5756 57.623C74.3359 57.8035 74.1614 58.0572 74.0787 58.3456C73.6013 60.0086 72.9365 61.6118 72.097 63.1246C71.9513 63.387 71.895 63.6897 71.9367 63.9869C71.9783 64.2841 72.1157 64.5597 72.3279 64.7719L76.4867 68.9295C76.7686 69.2143 76.9267 69.5988 76.9267 69.9995C76.9267 70.4003 76.7686 70.7848 76.4867 71.0696V71.069ZM75.0027 63.5375C75.5588 62.43 76.034 61.2837 76.4246 60.1076H81.2839C82.4178 60.1065 83.5049 59.6556 84.3067 58.8539C85.1085 58.0522 85.5595 56.9652 85.5607 55.8314V48.1687C85.5593 47.0348 85.1082 45.9478 84.3064 45.1461C83.5045 44.3445 82.4174 43.8936 81.2835 43.8925H76.4244C76.0333 42.7164 75.5576 41.5702 75.0011 40.4627L78.4396 37.0248C79.2396 36.222 79.6889 35.1348 79.6889 34.0013C79.6889 32.8679 79.2396 31.7807 78.4396 30.9778L73.0226 25.5588C72.2194 24.7592 71.1322 24.3103 69.9988 24.3103C68.8654 24.3103 67.7782 24.7592 66.975 25.5588L63.5367 28.9963C62.4292 28.4398 61.2827 27.9646 60.1063 27.5745V22.7147C60.1049 21.5808 59.6537 20.4938 58.8518 19.6922C58.0499 18.8906 56.9628 18.4398 55.8289 18.4387H48.1687C47.0347 18.4398 45.9475 18.8907 45.1456 19.6924C44.3437 20.4941 43.8925 21.5812 43.8911 22.7151V27.5742C42.7149 27.9657 41.5685 28.4412 40.4607 28.9973L37.0248 25.5588C36.2214 24.759 35.1338 24.3099 34.0001 24.3099C32.8664 24.3099 31.7788 24.759 30.9754 25.5588L25.558 30.9766C24.7579 31.7796 24.3087 32.8669 24.3087 34.0004C24.3087 35.1339 24.7579 36.2213 25.558 37.0242L28.9959 40.4625C28.4394 41.5702 27.9637 42.7166 27.5726 43.8929H22.7141C21.58 43.894 20.4928 44.345 19.6909 45.1467C18.8889 45.9485 18.4378 47.0357 18.4364 48.1697V55.832C18.4377 56.9659 18.8887 58.0529 19.6905 58.8547C20.4923 59.6565 21.5794 60.1074 22.7132 60.1086H27.573C27.9636 61.2848 28.4388 62.4311 28.9949 63.5387L25.5572 66.9764C24.7571 67.7794 24.3079 68.8667 24.3079 70.0003C24.3079 71.1338 24.7571 72.2211 25.5572 73.0241L30.9758 78.441C31.779 79.241 32.8665 79.6902 34.0002 79.6902C35.1339 79.6902 36.2214 79.241 37.0246 78.441L40.4617 75.0033C41.5691 75.5598 42.7154 76.0354 43.8915 76.4264V81.2858C43.8927 82.4196 44.3438 83.5066 45.1456 84.3084C45.9473 85.1101 47.0344 85.561 48.1683 85.5622H55.8309C56.9646 85.561 58.0516 85.1102 58.8533 84.3086C59.655 83.507 60.1059 82.4201 60.1071 81.2864V76.4266C61.2833 76.0363 62.4295 75.561 63.5369 75.0047L66.9752 78.442C67.7778 79.2419 68.8647 79.691 69.9978 79.691C71.1309 79.691 72.2178 79.2419 73.0204 78.442L78.4406 73.0235C79.2407 72.2206 79.6899 71.1333 79.6899 69.9997C79.6899 68.8662 79.2407 67.7789 78.4406 66.976L75.0027 63.5375Z" fill="white"/>
<path fill-rule="evenodd" clip-rule="evenodd" d="M51.9989 34.0003C55.5588 34.0005 59.0387 35.0562 61.9987 37.0341C64.9586 39.012 67.2655 41.8231 68.6278 45.1121C69.99 48.4011 70.3464 52.0202 69.6519 55.5117C68.9573 59.0032 67.243 62.2104 64.7257 64.7276C62.2084 67.2448 59.0012 68.959 55.5097 69.6535C52.0181 70.348 48.3991 69.9916 45.1101 68.6292C41.8212 67.2669 39.0101 64.9599 37.0323 61.9999C35.0544 59.04 33.9988 55.56 33.9987 52.0001C34.004 47.2278 35.9021 42.6525 39.2767 39.278C42.6512 35.9035 47.2266 34.0055 51.9989 34.0003ZM29.9192 58.3449C30.397 60.0076 31.0618 61.6108 31.9009 63.1238C32.0467 63.3861 32.1031 63.6888 32.0615 63.986C32.0199 64.2833 31.8825 64.5588 31.6701 64.7709L27.5113 68.9291C27.2291 69.2137 27.0707 69.5983 27.0707 69.9991C27.0707 70.3999 27.2291 70.7845 27.5113 71.069L32.9289 76.4874C33.2132 76.7708 33.5982 76.93 33.9996 76.93C34.4011 76.93 34.7861 76.7708 35.0704 76.4874L39.2268 72.3294C39.4392 72.1173 39.7148 71.98 40.0121 71.9383C40.3094 71.8966 40.6122 71.9527 40.8747 72.0983C42.3875 72.9373 43.9906 73.602 45.6532 74.0798C45.9416 74.1624 46.1952 74.3366 46.3758 74.5761C46.5563 74.8156 46.654 75.1074 46.654 75.4074V81.2854C46.6547 81.6867 46.8146 82.0714 47.0985 82.355C47.3824 82.6386 47.7672 82.798 48.1685 82.7983H55.8298C56.2311 82.798 56.616 82.6385 56.8998 82.3548C57.1837 82.0711 57.3435 81.6863 57.3441 81.285V75.4074C57.3441 75.1074 57.4417 74.8156 57.6222 74.576C57.8027 74.3365 58.0563 74.1622 58.3447 74.0795C60.0073 73.6015 61.6103 72.9365 63.123 72.0972C63.3856 71.9517 63.6884 71.8955 63.9857 71.9372C64.2831 71.9789 64.5588 72.1162 64.7712 72.3284L68.9277 76.4866C69.2129 76.7683 69.5975 76.9263 69.9984 76.9263C70.3992 76.9263 70.7839 76.7683 71.069 76.4866L76.487 71.0684C76.7691 70.7837 76.9273 70.3991 76.9273 69.9984C76.9273 69.5976 76.7691 69.213 76.487 68.9283L72.3276 64.7713C72.1154 64.5591 71.978 64.2836 71.9363 63.9863C71.8947 63.6891 71.9509 63.3864 72.0967 63.124C72.9361 61.6113 73.601 60.008 74.0783 58.3451C74.1611 58.0566 74.3355 57.8029 74.5753 57.6224C74.8151 57.4419 75.1071 57.3444 75.4072 57.3447H81.2842C81.6856 57.3443 82.0704 57.1848 82.3543 56.901C82.6381 56.6173 82.7979 56.2326 82.7985 55.8312V48.1689C82.798 47.7676 82.6384 47.3828 82.3545 47.099C82.0707 46.8153 81.686 46.6557 81.2846 46.6552H75.407C75.107 46.6553 74.8151 46.5577 74.5754 46.3772C74.3358 46.1967 74.1614 45.943 74.0787 45.6546C73.601 43.9919 72.9362 42.3888 72.0971 40.8759C71.9514 40.6135 71.8951 40.3107 71.9369 40.0134C71.9786 39.7161 72.1161 39.4405 72.3284 39.2284L76.4866 35.0706C76.7688 34.7859 76.9271 34.4014 76.9271 34.0005C76.9271 33.5997 76.7688 33.2151 76.4866 32.9305L71.0686 27.5123C70.7836 27.2304 70.399 27.0722 69.9981 27.0722C69.5972 27.0722 69.2125 27.2304 68.9275 27.5123L64.7705 31.6707C64.5581 31.8828 64.2825 32.0201 63.9852 32.0617C63.6879 32.1034 63.3851 32.0472 63.1226 31.9017C61.61 31.0622 60.007 30.3972 58.3443 29.9196C58.056 29.8368 57.8025 29.6625 57.622 29.4229C57.4416 29.1833 57.344 28.8915 57.3441 28.5915V22.7139C57.3437 22.3127 57.1842 21.928 56.9005 21.6443C56.6169 21.3606 56.2322 21.2011 55.831 21.2006H48.1677C47.7665 21.2009 47.3818 21.3604 47.098 21.644C46.8142 21.9277 46.6546 22.3123 46.654 22.7135V28.5915C46.6541 28.8915 46.5565 29.1834 46.376 29.423C46.1954 29.6626 45.9418 29.8369 45.6534 29.9196C43.9908 30.3973 42.3878 31.0622 40.8751 31.9014C40.6126 32.0472 40.3098 32.1035 40.0125 32.0617C39.7152 32.02 39.4396 31.8825 39.2274 31.6701L35.0706 27.5121C34.7864 27.2287 34.4014 27.0696 34.0001 27.0696C33.5987 27.0696 33.2137 27.2287 32.9295 27.5121L27.5113 32.9305C27.2291 33.2151 27.0708 33.5996 27.0708 34.0004C27.0708 34.4012 27.2291 34.7858 27.5113 35.0704L31.6697 39.2284C31.8821 39.4405 32.0196 39.7161 32.0612 40.0134C32.1029 40.3106 32.0464 40.6134 31.9005 40.8757C31.0613 42.3886 30.3965 43.9919 29.9188 45.6546C29.836 45.9428 29.6617 46.1962 29.4223 46.3766C29.1828 46.557 28.8912 46.6546 28.5913 46.6546H22.7129C22.3117 46.6549 21.9269 46.8144 21.6431 47.0981C21.3594 47.3818 21.1997 47.7664 21.1992 48.1677V55.8304C21.1998 56.2317 21.3596 56.6164 21.6435 56.9001C21.9273 57.1838 22.3122 57.3433 22.7135 57.3437H28.5907C28.8909 57.3436 29.1829 57.4412 29.4226 57.6219C29.6623 57.8025 29.8366 58.0563 29.9192 58.3449Z" fill="#00ABEA"/>
</svg>
