<svg width="104" height="104" viewBox="0 0 104 104" fill="none" xmlns="http://www.w3.org/2000/svg">
<path fill-rule="evenodd" clip-rule="evenodd" d="M52 21.9419C53.5307 21.9417 55.0271 22.3955 56.2999 23.2457C57.5727 24.096 58.5648 25.3046 59.1507 26.7187C59.7366 28.1328 59.89 29.6889 59.5915 31.1902C59.293 32.6915 58.556 34.0706 57.4737 35.153C56.3914 36.2354 55.0125 36.9726 53.5112 37.2713C52.0099 37.57 50.4538 37.4168 49.0396 36.8311C47.6255 36.2453 46.4167 35.2534 45.5663 33.9807C44.7159 32.708 44.262 31.2117 44.262 29.681C44.264 27.6291 45.08 25.6618 46.5309 24.2109C47.9818 22.76 49.9491 21.944 52.001 21.9419H52ZM52 39.7966C54.0007 39.7966 55.9564 39.2034 57.6199 38.0918C59.2834 36.9803 60.58 35.4005 61.3456 33.5521C62.1112 31.7037 62.3116 29.6698 61.9213 27.7076C61.5309 25.7453 60.5675 23.9429 59.1528 22.5282C57.7381 21.1135 55.9357 20.1501 53.9735 19.7598C52.0112 19.3694 49.9773 19.5698 48.1289 20.3354C46.2805 21.101 44.7007 22.3976 43.5892 24.0611C42.4776 25.7246 41.8844 27.6803 41.8844 29.681C41.8874 32.3629 42.9542 34.9341 44.8506 36.8305C46.7469 38.7268 49.3181 39.7936 52 39.7966ZM33.6231 27.3512V32.0104C33.625 32.1612 33.6858 32.3052 33.7924 32.4118C33.8991 32.5183 34.0431 32.579 34.1939 32.5808H37.7676C38.0258 32.5808 38.277 32.6648 38.4832 32.8201C38.6894 32.9755 38.8394 33.1937 38.9106 33.4419C39.1938 34.4275 39.5878 35.3777 40.0853 36.2744C40.2106 36.5003 40.259 36.7608 40.2231 37.0165C40.1873 37.2723 40.0691 37.5094 39.8864 37.6921L37.3583 40.2204C37.2525 40.3279 37.1932 40.4728 37.1932 40.6238C37.1932 40.7747 37.2525 40.9196 37.3583 41.0272L40.6532 44.3219C40.7613 44.427 40.9062 44.4859 41.057 44.4859C41.2079 44.4859 41.3528 44.427 41.4609 44.3219L43.989 41.794C44.1716 41.6113 44.4087 41.493 44.6646 41.4571C44.9204 41.4213 45.1809 41.4697 45.4068 41.5951C46.3035 42.0925 47.2536 42.4865 48.2391 42.7698C48.4873 42.8409 48.7055 42.9909 48.8609 43.1971C49.0162 43.4033 49.1002 43.6544 49.1002 43.9126V47.4876C49.1022 47.6383 49.1631 47.7823 49.2697 47.8889C49.3764 47.9955 49.5204 48.0562 49.6712 48.0581H54.33C54.4809 48.0561 54.6249 47.9953 54.7316 47.8887C54.8382 47.782 54.899 47.638 54.901 47.4872V43.9126C54.901 43.6544 54.9851 43.4033 55.1404 43.1971C55.2957 42.991 55.514 42.841 55.7621 42.7698C56.7475 42.4863 57.6977 42.0922 58.5945 41.5949C58.8202 41.4694 59.0808 41.4208 59.3366 41.4567C59.5925 41.4925 59.8297 41.6108 60.0123 41.7936L62.5404 44.3219C62.6484 44.4271 62.7933 44.486 62.9442 44.486C63.095 44.486 63.2399 44.4271 63.348 44.3219L66.6423 41.0276C66.7482 40.9199 66.8076 40.7749 66.8076 40.6239C66.8076 40.4728 66.7482 40.3278 66.6423 40.2202L64.114 37.6919C63.9314 37.5092 63.8132 37.2721 63.7773 37.0163C63.7414 36.7606 63.7898 36.5001 63.9151 36.2742C64.4125 35.3775 64.8067 34.4272 65.09 33.4417C65.1611 33.1935 65.3111 32.9752 65.5173 32.8198C65.7234 32.6644 65.9746 32.5803 66.2328 32.5802H69.8065C69.9574 32.5782 70.1014 32.5174 70.2081 32.4108C70.3147 32.3041 70.3755 32.16 70.3775 32.0092V27.3508C70.3755 27.2 70.3148 27.0559 70.2082 26.9493C70.1016 26.8427 69.9575 26.7818 69.8067 26.7798H66.2328C65.9746 26.7797 65.7235 26.6956 65.5174 26.5403C65.3112 26.3849 65.1612 26.1667 65.09 25.9185C64.8068 24.933 64.4126 23.9828 63.9151 23.0862C63.7898 22.8603 63.7415 22.5998 63.7774 22.344C63.8132 22.0882 63.9314 21.851 64.114 21.6683L66.6423 19.1405C66.7475 19.0324 66.8065 18.8874 66.8065 18.7365C66.8065 18.5856 66.7475 18.4407 66.6423 18.3326L63.3478 15.0385C63.24 14.9329 63.0951 14.8737 62.9442 14.8737C62.7932 14.8737 62.6483 14.9329 62.5406 15.0385L60.0123 17.5668C59.8296 17.7495 59.5924 17.8677 59.3366 17.9036C59.0808 17.9394 58.8203 17.891 58.5945 17.7657C57.6979 17.268 56.7477 16.8739 55.7621 16.5908C55.5139 16.5196 55.2957 16.3695 55.1403 16.1632C54.985 15.957 54.901 15.7058 54.901 15.4476V11.8743C54.899 11.7234 54.8382 11.5793 54.7316 11.4727C54.625 11.366 54.4809 11.3051 54.33 11.3031H49.6712C49.5204 11.3051 49.3763 11.3659 49.2697 11.4726C49.1631 11.5792 49.1022 11.7233 49.1002 11.8741V15.448C49.1002 15.7062 49.0162 15.9573 48.8609 16.1635C48.7055 16.3697 48.4873 16.5197 48.2391 16.5908C47.2535 16.8742 46.3032 17.2684 45.4064 17.7657C45.1805 17.8909 44.92 17.9391 44.6643 17.9032C44.4086 17.8672 44.1716 17.749 43.989 17.5664L41.4607 15.0385C41.3526 14.9334 41.2077 14.8745 41.0569 14.8745C40.9062 14.8745 40.7613 14.9334 40.6532 15.0385L37.359 18.3332C37.2531 18.441 37.1938 18.5859 37.1938 18.7369C37.1938 18.888 37.2531 19.0329 37.359 19.1407L39.887 21.6687C40.0697 21.8514 40.1879 22.0885 40.2237 22.3443C40.2596 22.6 40.2112 22.8605 40.0859 23.0864C39.5884 23.9831 39.1943 24.9335 38.9112 25.9191C38.8399 26.1672 38.6899 26.3854 38.4837 26.5407C38.2775 26.696 38.0264 26.78 37.7682 26.78H34.1945C34.0437 26.7819 33.8997 26.8426 33.793 26.9492C33.6864 27.0558 33.6256 27.1998 33.6237 27.3506L33.6231 27.3512ZM34.1939 34.9592H36.8989C37.0975 35.527 37.3281 36.0831 37.5895 36.6248L35.6765 38.5383C35.1247 39.0919 34.8148 39.8417 34.8148 40.6234C34.8148 41.405 35.1247 42.1548 35.6765 42.7084L38.9707 46.0027C39.5243 46.5548 40.2742 46.8649 41.056 46.8649C41.8379 46.8649 42.5878 46.5548 43.1413 46.0027L45.0547 44.0891C45.5965 44.3505 46.1526 44.5811 46.7204 44.7797V47.4845C46.7206 48.2671 47.0316 49.0175 47.5849 49.571C48.1382 50.1244 48.8886 50.4355 49.6712 50.4359H54.33C55.1118 50.435 55.8614 50.124 56.4142 49.5712C56.967 49.0185 57.278 48.269 57.279 47.4872V44.7813C57.8471 44.5826 58.4035 44.352 58.9457 44.0907L60.8589 46.0037C61.4124 46.556 62.1623 46.8661 62.9442 46.8661C63.726 46.8661 64.476 46.556 65.0294 46.0037L68.3237 42.709C68.8755 42.1553 69.1853 41.4055 69.1853 40.6239C69.1853 39.8422 68.8755 39.0924 68.3237 38.5387L66.4103 36.6254C66.6717 36.0837 66.9022 35.5276 67.1009 34.9598H69.8059C70.5877 34.9589 71.3372 34.6479 71.89 34.0951C72.4428 33.5423 72.7538 32.7928 72.7547 32.0111V27.3506C72.7538 26.5687 72.4429 25.8192 71.89 25.2664C71.3371 24.7136 70.5875 24.4028 69.8057 24.402H67.1017C66.9031 23.8342 66.6725 23.2781 66.4111 22.7364L68.3245 20.8229C68.8762 20.2692 69.186 19.5194 69.186 18.7378C69.186 17.9561 68.8762 17.2063 68.3245 16.6526L65.0301 13.3579C64.4763 12.8062 63.7265 12.4964 62.9448 12.4964C62.1631 12.4964 61.4133 12.8062 60.8595 13.3579L58.9463 15.2709C58.4042 15.0094 57.8478 14.7789 57.2796 14.5803V11.8743C57.2787 11.0923 56.9676 10.3427 56.4147 9.78982C55.8617 9.23696 55.112 8.92605 54.33 8.92529H49.6712C48.8893 8.92621 48.1398 9.23719 47.5869 9.79004C47.0341 10.3429 46.7231 11.0924 46.7222 11.8743V14.5791C46.1544 14.7777 45.5983 15.0082 45.0566 15.2697L43.1431 13.3563C42.5896 12.8041 41.8397 12.4941 41.0579 12.4941C40.276 12.4941 39.5261 12.8041 38.9726 13.3563L35.6775 16.6516C35.1257 17.2052 34.8158 17.955 34.8158 18.7367C34.8158 19.5184 35.1257 20.2683 35.6775 20.8219L37.5905 22.7352C37.3291 23.2773 37.0985 23.8338 36.8999 24.402H34.1945C33.4126 24.4029 32.6631 24.7139 32.1102 25.2667C31.5574 25.8196 31.2464 26.5691 31.2455 27.351V32.0098C31.2467 32.7915 31.5578 33.5408 32.1106 34.0934C32.6634 34.646 33.4128 34.9569 34.1945 34.9578L34.1939 34.9592ZM91.5149 91.8245V83.9077L98.372 79.9484V87.8672L91.5149 91.8245ZM82.2796 79.9484L84.5248 81.2443V83.9515C84.5227 84.109 84.552 84.2653 84.6108 84.4113C84.6696 84.5574 84.7569 84.6903 84.8675 84.8024C84.9781 84.9145 85.1099 85.0034 85.2551 85.0642C85.4004 85.1249 85.5563 85.1562 85.7138 85.1562C85.8712 85.1562 86.0271 85.1249 86.1724 85.0642C86.3177 85.0034 86.4495 84.9145 86.5601 84.8024C86.6707 84.6903 86.7579 84.5574 86.8168 84.4113C86.8756 84.2653 86.9048 84.109 86.9028 83.9515V82.6178L89.1371 83.9079V91.8247L82.2801 87.8674V79.9484H82.2796ZM90.3258 73.93L92.5655 75.2239L85.7082 79.1814L83.4687 77.8895L90.3258 73.93ZM90.3258 81.8488L97.1829 77.8895L94.9435 76.5952L88.0864 80.5547L90.3258 81.8488ZM100.155 76.8586L90.9204 71.528C90.7396 71.4238 90.5345 71.369 90.3258 71.369C90.1171 71.369 89.9121 71.4238 89.7313 71.528L80.4962 76.8584C80.3154 76.963 80.1653 77.1133 80.0609 77.2943C79.9566 77.4752 79.9016 77.6804 79.9017 77.8893V88.5533C79.9017 88.7622 79.9566 88.9673 80.061 89.1482C80.1653 89.329 80.3154 89.4793 80.4962 89.5838L89.7313 94.9146C89.9118 95.0197 90.1169 95.0751 90.3258 95.0751C90.5347 95.0751 90.7399 95.0197 90.9204 94.9146L100.155 89.5838C100.336 89.4792 100.486 89.3289 100.591 89.148C100.695 88.967 100.75 88.7618 100.75 88.5529V77.8889C100.75 77.68 100.695 77.4748 100.591 77.2939C100.486 77.113 100.336 76.9626 100.155 76.858V76.8586ZM12.4867 67.3117V62.6815C12.4867 60.6822 14.5281 59.0561 17.0367 59.0561H50.8115V52.6317C50.8156 52.319 50.9427 52.0206 51.1652 51.8009C51.3877 51.5813 51.6878 51.4581 52.0005 51.4581C52.3132 51.4581 52.6133 51.5813 52.8358 51.8009C53.0583 52.0206 53.1854 52.319 53.1895 52.6317V59.0559H86.9641C89.4733 59.0559 91.5141 60.6809 91.5141 62.6815V67.3109C91.5141 67.6263 91.3888 67.9287 91.1658 68.1517C90.9428 68.3747 90.6404 68.5 90.325 68.5C90.0097 68.5 89.7072 68.3747 89.4842 68.1517C89.2612 67.9287 89.1359 67.6263 89.1359 67.3109V62.6815C89.1359 62.0924 88.2068 61.4333 86.9625 61.4333H66.5657V67.3113C66.5616 67.624 66.4345 67.9224 66.212 68.1421C65.9895 68.3617 65.6894 68.4849 65.3767 68.4849C65.064 68.4849 64.7639 68.3617 64.5414 68.1421C64.3189 67.9224 64.1918 67.624 64.1877 67.3113V61.4331H40.7146V67.8084C40.7166 67.9658 40.6874 68.1221 40.6286 68.2682C40.5697 68.4142 40.4825 68.5472 40.3719 68.6592C40.2613 68.7713 40.1295 68.8603 39.9842 68.921C39.8389 68.9817 39.683 69.013 39.5256 69.013C39.3681 69.013 39.2122 68.9817 39.067 68.921C38.9217 68.8603 38.7899 68.7713 38.6793 68.6592C38.5687 68.5472 38.4814 68.4142 38.4226 68.2682C38.3638 68.1221 38.3345 67.9658 38.3366 67.8084V61.4331H17.0371C15.7936 61.4331 14.8637 62.0933 14.8637 62.6817V67.3111C14.8596 67.6238 14.7325 67.9222 14.51 68.1419C14.2874 68.3615 13.9874 68.4847 13.6747 68.4847C13.362 68.4847 13.0619 68.3615 12.8394 68.1419C12.6168 67.9222 12.4898 67.6238 12.4857 67.3111L12.4867 67.3117ZM66.5657 91.8245V83.9077L73.423 79.9484V87.8672L66.5657 91.8245ZM57.3306 79.9484L59.5757 81.2443V83.9515C59.5737 84.109 59.6029 84.2653 59.6618 84.4113C59.7206 84.5574 59.8078 84.6903 59.9184 84.8024C60.0291 84.9145 60.1608 85.0034 60.3061 85.0642C60.4514 85.1249 60.6073 85.1562 60.7647 85.1562C60.9222 85.1562 61.0781 85.1249 61.2234 85.0642C61.3687 85.0034 61.5004 84.9145 61.611 84.8024C61.7216 84.6903 61.8089 84.5574 61.8677 84.4113C61.9266 84.2653 61.9558 84.109 61.9537 83.9515V82.6178L64.1881 83.9079V91.8247L57.331 87.8674V79.9484H57.3306ZM65.3768 73.93L67.6162 75.2239L60.7592 79.1814L58.5197 77.8895L65.3768 73.93ZM65.3768 81.8488L72.2339 77.8895L69.9942 76.5952L63.1371 80.5547L65.3768 81.8488ZM75.2066 76.8586L65.9711 71.528C65.7904 71.4238 65.5854 71.3689 65.3767 71.3689C65.168 71.3689 64.963 71.4238 64.7823 71.528L55.547 76.8584C55.3663 76.9631 55.2162 77.1134 55.1119 77.2943C55.0076 77.4753 54.9527 77.6804 54.9526 77.8893V88.5533C54.9527 88.7621 55.0076 88.9672 55.1119 89.1481C55.2162 89.3289 55.3663 89.4792 55.547 89.5838L64.7823 94.9146C64.9627 95.0197 65.1678 95.0751 65.3767 95.0751C65.5855 95.0751 65.7907 95.0197 65.9711 94.9146L75.2066 89.5838C75.3873 89.4792 75.5374 89.3289 75.6417 89.1481C75.746 88.9672 75.8009 88.7621 75.801 88.5533V77.8893C75.8009 77.6804 75.7459 77.4753 75.6416 77.2943C75.5372 77.1134 75.3872 76.9631 75.2064 76.8584L75.2066 76.8586ZM40.7146 91.8245V83.9077L47.5719 79.9484V87.8672L40.715 91.8245H40.7146ZM31.4795 79.9484L33.7244 81.2443V83.9515C33.7244 84.2669 33.8497 84.5694 34.0727 84.7924C34.2957 85.0154 34.5982 85.1406 34.9135 85.1406C35.2289 85.1406 35.5313 85.0154 35.7543 84.7924C35.9773 84.5694 36.1026 84.2669 36.1026 83.9515V82.6178L38.337 83.9079V91.8247L31.4799 87.8674V79.9484H31.4795ZM39.5255 73.93L41.7651 75.2239L34.9076 79.1814L32.6684 77.8895L39.5255 73.93ZM39.5255 81.8488L46.3826 77.8895L44.1431 76.5952L37.2858 80.5547L39.5255 81.8488ZM49.3549 76.8586L40.12 71.528C39.9392 71.4238 39.7342 71.369 39.5255 71.369C39.3168 71.369 39.1118 71.4238 38.9309 71.528L29.6969 76.8586C29.5161 76.9632 29.366 77.1135 29.2616 77.2945C29.1573 77.4754 29.1023 77.6806 29.1023 77.8895V88.5535C29.1023 88.7624 29.1573 88.9675 29.2616 89.1484C29.366 89.3292 29.5161 89.4795 29.6969 89.584L38.9309 94.9142C39.1115 95.0193 39.3166 95.0747 39.5255 95.0747C39.7344 95.0747 39.9395 95.0193 40.12 94.9142L49.3549 89.5834C49.5357 89.4789 49.6858 89.3286 49.7901 89.1478C49.8945 88.9669 49.9494 88.7617 49.9495 88.5529V77.8889C49.9495 77.68 49.8945 77.4748 49.7902 77.2939C49.6858 77.1129 49.5357 76.9626 49.3549 76.858V76.8586ZM14.8631 91.8245V83.9077L21.7204 79.9484V87.8672L14.8631 91.8245ZM5.62798 79.9484L7.87312 81.2443V83.9515C7.87107 84.109 7.9003 84.2653 7.95913 84.4113C8.01796 84.5574 8.10521 84.6903 8.21582 84.8024C8.32644 84.9145 8.45821 85.0034 8.60348 85.0642C8.74876 85.1249 8.90465 85.1562 9.06212 85.1562C9.21958 85.1562 9.37547 85.1249 9.52075 85.0642C9.66603 85.0034 9.7978 84.9145 9.90841 84.8024C10.019 84.6903 10.1063 84.5574 10.1651 84.4113C10.2239 84.2653 10.2532 84.109 10.2511 83.9515V82.6178L12.4855 83.9079V91.8247L5.62798 87.8672V79.9484ZM13.6742 73.93L15.9136 75.2239L9.05653 79.1814L6.81708 77.8895L13.6742 73.93ZM13.6742 81.8488L20.5313 77.8895L18.2918 76.5952L11.4345 80.5547L13.6742 81.8488ZM23.5038 76.8586L14.2685 71.528C14.0877 71.4238 13.8827 71.3689 13.6741 71.3689C13.4654 71.3689 13.2604 71.4238 13.0796 71.528L3.84455 76.8586C3.66378 76.9632 3.51369 77.1136 3.40934 77.2945C3.30499 77.4754 3.25004 77.6806 3.25 77.8895V88.5535C3.25005 88.7624 3.305 88.9675 3.40936 89.1483C3.51371 89.3292 3.66379 89.4794 3.84455 89.584L13.0796 94.9142C13.2601 95.0193 13.4652 95.0747 13.6741 95.0747C13.8829 95.0747 14.088 95.0193 14.2685 94.9142L23.5038 89.5834C23.6846 89.4789 23.8347 89.3286 23.939 89.1478C24.0434 88.9669 24.0983 88.7617 24.0983 88.5529V77.8889C24.0982 77.6801 24.0433 77.475 23.9389 77.2942C23.8346 77.1134 23.6845 76.9632 23.5038 76.8586Z" fill="white"/>
<path fill-rule="evenodd" clip-rule="evenodd" d="M66.2341 26.78C65.9759 26.7799 65.7248 26.6959 65.5187 26.5405C65.3125 26.3851 65.1625 26.1669 65.0913 25.9188C64.8081 24.9332 64.4139 23.983 63.9164 23.0864C63.7911 22.8605 63.7428 22.6 63.7787 22.3442C63.8145 22.0884 63.9327 21.8513 64.1153 21.6686L66.6436 19.1407C66.7489 19.0326 66.8078 18.8877 66.8078 18.7368C66.8078 18.5859 66.7489 18.4409 66.6436 18.3328L63.3491 15.0386C63.2413 14.9329 63.0964 14.8737 62.9455 14.8737C62.7946 14.8737 62.6496 14.9329 62.5419 15.0386L60.0136 17.5669C59.8309 17.7495 59.5938 17.8677 59.338 17.9036C59.0821 17.9395 58.8216 17.8911 58.5958 17.7657C57.6992 17.2681 56.749 16.8739 55.7634 16.5909C55.5152 16.5196 55.297 16.3695 55.1417 16.1633C54.9863 15.957 54.9023 15.7059 54.9023 15.4477V11.8743C54.9003 11.7235 54.8396 11.5794 54.7329 11.4727C54.6263 11.366 54.4822 11.3052 54.3314 11.3031H49.6725C49.5217 11.3052 49.3776 11.366 49.271 11.4726C49.1644 11.5792 49.1035 11.7233 49.1015 11.8741V15.4481C49.1015 15.7062 49.0175 15.9574 48.8622 16.1635C48.7068 16.3697 48.4886 16.5197 48.2405 16.5909C47.2549 16.8742 46.3045 17.2684 45.4077 17.7657C45.1818 17.8909 44.9213 17.9391 44.6656 17.9032C44.4099 17.8672 44.1729 17.749 43.9903 17.5665L41.462 15.0386C41.3539 14.9334 41.2091 14.8746 41.0583 14.8746C40.9075 14.8746 40.7626 14.9334 40.6545 15.0386L37.3603 18.3333C37.2544 18.441 37.1951 18.586 37.1951 18.737C37.1951 18.888 37.2544 19.033 37.3603 19.1407L39.8884 21.6688C40.071 21.8514 40.1892 22.0885 40.2251 22.3443C40.2609 22.6001 40.2125 22.8606 40.0872 23.0864C39.5897 23.9831 39.1956 24.9335 38.9125 25.9192C38.8413 26.1673 38.6912 26.3854 38.485 26.5407C38.2788 26.696 38.0277 26.78 37.7696 26.78H34.1958C34.045 26.7819 33.901 26.8426 33.7943 26.9492C33.6877 27.0558 33.6269 27.1998 33.625 27.3506V32.0099C33.6269 32.1606 33.6877 32.3046 33.7944 32.4112C33.901 32.5177 34.045 32.5784 34.1958 32.5802H37.7696C38.0277 32.5802 38.2789 32.6642 38.4851 32.8195C38.6913 32.9749 38.8414 33.1931 38.9125 33.4413C39.1957 34.4269 39.5898 35.3772 40.0872 36.2739C40.2125 36.4997 40.2609 36.7602 40.2251 37.016C40.1892 37.2717 40.071 37.5089 39.8884 37.6915L37.3603 40.2198C37.2544 40.3274 37.1951 40.4722 37.1951 40.6232C37.1951 40.7741 37.2544 40.919 37.3603 41.0266L40.6545 44.3219C40.7627 44.4271 40.9075 44.4859 41.0584 44.4859C41.2092 44.4859 41.3541 44.4271 41.4622 44.3219L43.9903 41.794C44.1729 41.6113 44.4101 41.493 44.6659 41.4572C44.9217 41.4213 45.1822 41.4697 45.4081 41.5951C46.3048 42.0925 47.255 42.4866 48.2405 42.7698C48.4886 42.841 48.7068 42.991 48.8622 43.1971C49.0175 43.4033 49.1015 43.6544 49.1015 43.9126V47.4876C49.1036 47.6383 49.1644 47.7823 49.271 47.8889C49.3777 47.9955 49.5217 48.0562 49.6725 48.0582H54.3314C54.4822 48.0562 54.6262 47.9954 54.7329 47.8887C54.8395 47.7821 54.9003 47.638 54.9023 47.4872V43.9126C54.9023 43.6544 54.9864 43.4033 55.1417 43.1972C55.297 42.991 55.5153 42.841 55.7634 42.7698C56.7488 42.4863 57.699 42.0922 58.5958 41.5949C58.8216 41.4694 59.0821 41.4209 59.338 41.4567C59.5938 41.4926 59.831 41.6108 60.0136 41.7936L62.5417 44.3219C62.6497 44.4272 62.7946 44.4861 62.9455 44.4861C63.0963 44.4861 63.2412 44.4272 63.3493 44.3219L66.6436 41.0276C66.7496 40.92 66.809 40.775 66.809 40.6239C66.809 40.4728 66.7496 40.3278 66.6436 40.2202L64.1153 37.6919C63.9327 37.5092 63.8145 37.2721 63.7786 37.0164C63.7428 36.7606 63.7911 36.5001 63.9164 36.2743C64.4138 35.3775 64.808 34.4272 65.0913 33.4417C65.1624 33.1935 65.3124 32.9752 65.5186 32.8198C65.7248 32.6644 65.9759 32.5803 66.2341 32.5802H69.8079C69.9587 32.5782 70.1027 32.5174 70.2094 32.4108C70.316 32.3041 70.3768 32.1601 70.3788 32.0093V27.3508C70.3768 27.2 70.3161 27.056 70.2095 26.9493C70.1029 26.8427 69.9588 26.7819 69.8081 26.7798L66.2341 26.78ZM52.0013 19.5642C54.002 19.5642 55.9577 20.1575 57.6213 21.269C59.2848 22.3805 60.5813 23.9603 61.3469 25.8087C62.1126 27.6571 62.3129 29.691 61.9226 31.6533C61.5323 33.6155 60.5688 35.4179 59.1541 36.8326C57.7394 38.2473 55.937 39.2108 53.9748 39.6011C52.0125 39.9914 49.9786 39.7911 48.1302 39.0254C46.2818 38.2598 44.702 36.9633 43.5905 35.2998C42.479 33.6363 41.8857 31.6805 41.8857 29.6798C41.8889 26.998 42.9556 24.4269 44.852 22.5305C46.7484 20.6341 49.3195 19.5674 52.0013 19.5642Z" fill="#00ABEA"/>
<path fill-rule="evenodd" clip-rule="evenodd" d="M12.4864 83.9077L10.252 82.6176V83.9515C10.2541 84.109 10.2249 84.2653 10.166 84.4113C10.1072 84.5574 10.0199 84.6903 9.90933 84.8024C9.79872 84.9145 9.66695 85.0034 9.52167 85.0642C9.37639 85.1249 9.2205 85.1562 9.06304 85.1562C8.90558 85.1562 8.74968 85.1249 8.60441 85.0642C8.45913 85.0034 8.32736 84.9145 8.21675 84.8024C8.10613 84.6903 8.01888 84.5574 7.96005 84.4113C7.90122 84.2653 7.87199 84.109 7.87405 83.9515V81.2443L5.62891 79.9484V87.8672L12.486 91.8245L12.4864 83.9077Z" fill="#00ABEA"/>
<path fill-rule="evenodd" clip-rule="evenodd" d="M14.8633 83.9077V91.8245L21.7206 87.8672V79.9484L14.8633 83.9077Z" fill="#00ABEA"/>
<path fill-rule="evenodd" clip-rule="evenodd" d="M31.4805 79.9484V87.8672L38.3376 91.8245V83.9077L36.1032 82.6176V83.9515C36.1032 84.2669 35.9779 84.5694 35.7549 84.7924C35.5319 85.0154 35.2295 85.1406 34.9141 85.1406C34.5987 85.1406 34.2963 85.0154 34.0733 84.7924C33.8503 84.5694 33.725 84.2669 33.725 83.9515V81.2443L31.4805 79.9484Z" fill="#00ABEA"/>
<path fill-rule="evenodd" clip-rule="evenodd" d="M40.7148 83.9077V91.8245L47.5717 87.8672V79.9484L40.7148 83.9077Z" fill="#00ABEA"/>
<path fill-rule="evenodd" clip-rule="evenodd" d="M57.332 79.9484V87.8672L64.1889 91.8245V83.9077L61.9545 82.6176V83.9515C61.9566 84.109 61.9274 84.2653 61.8685 84.4113C61.8097 84.5574 61.7225 84.6903 61.6118 84.8024C61.5012 84.9145 61.3695 85.0034 61.2242 85.0642C61.0789 85.1249 60.923 85.1562 60.7656 85.1562C60.6081 85.1562 60.4522 85.1249 60.3069 85.0642C60.1616 85.0034 60.0299 84.9145 59.9193 84.8024C59.8086 84.6903 59.7214 84.5574 59.6626 84.4113C59.6037 84.2653 59.5745 84.109 59.5766 83.9515V81.2443L57.332 79.9484Z" fill="#00ABEA"/>
<path fill-rule="evenodd" clip-rule="evenodd" d="M66.5664 83.9077V91.8245L73.4237 87.8672V79.9484L66.5664 83.9077Z" fill="#00ABEA"/>
<path fill-rule="evenodd" clip-rule="evenodd" d="M82.2812 79.9484V87.8672L89.1383 91.8245V83.9077L86.904 82.6176V83.9515C86.906 84.109 86.8768 84.2653 86.818 84.4113C86.7591 84.5574 86.6719 84.6903 86.5613 84.8024C86.4507 84.9145 86.3189 85.0034 86.1736 85.0642C86.0283 85.1249 85.8724 85.1562 85.715 85.1562C85.5575 85.1562 85.4016 85.1249 85.2563 85.0642C85.1111 85.0034 84.9793 84.9145 84.8687 84.8024C84.7581 84.6903 84.6708 84.5574 84.612 84.4113C84.5532 84.2653 84.5239 84.109 84.526 83.9515V81.2443L82.2812 79.9484Z" fill="#00ABEA"/>
<path fill-rule="evenodd" clip-rule="evenodd" d="M91.5156 83.9077V91.8245L98.3727 87.8672V79.9484L91.5156 83.9077Z" fill="#00ABEA"/>
</svg>
