<svg xmlns="http://www.w3.org/2000/svg" width="40" height="40" viewBox="0 0 40 40" fill="none">
  <path fill-rule="evenodd" clip-rule="evenodd" d="M27.5535 20.3727C27.5535 20.5525 27.4821 20.7249 27.355 20.852C27.2279 20.9791 27.0555 21.0505 26.8758 21.0505H20.6227V22.8293C20.6208 23.0078 20.5486 23.1783 20.4217 23.3038C20.2948 23.4293 20.1235 23.4998 19.945 23.4998C19.7666 23.4998 19.5953 23.4293 19.4684 23.3038C19.3415 23.1783 19.2693 23.0078 19.2673 22.8293V21.0505H17.6641C17.4843 21.0505 17.312 20.9791 17.1849 20.852C17.0578 20.7249 16.9864 20.5525 16.9864 20.3728C16.9864 20.1931 17.0578 20.0207 17.1849 19.8936C17.312 19.7666 17.4843 19.6952 17.6641 19.6952H19.2673V12.3893C19.2692 12.2108 19.3414 12.0403 19.4683 11.9148C19.5952 11.7892 19.7665 11.7188 19.945 11.7188C20.1234 11.7188 20.2947 11.7892 20.4216 11.9148C20.5485 12.0403 20.6207 12.2108 20.6227 12.3893V19.6953H26.8758C27.0555 19.6954 27.2279 19.7668 27.3549 19.8939C27.482 20.021 27.5534 20.1933 27.5534 20.373L27.5535 20.3727ZM13.8156 10.9961L13.3547 10.1985C13.2648 10.0429 13.2405 9.85789 13.287 9.68429C13.3335 9.51069 13.4471 9.36268 13.6027 9.27281C13.7584 9.18295 13.9434 9.1586 14.117 9.20512C14.2906 9.25163 14.4386 9.36521 14.5284 9.52086L14.9894 10.3184C15.035 10.3956 15.0649 10.481 15.0773 10.5697C15.0897 10.6584 15.0843 10.7488 15.0616 10.8354C15.0389 10.9221 14.9992 11.0034 14.9448 11.0746C14.8904 11.1459 14.8225 11.2056 14.7449 11.2504C14.6673 11.2952 14.5816 11.3242 14.4927 11.3356C14.4038 11.3471 14.3136 11.3408 14.2272 11.3172C14.1407 11.2935 14.0598 11.253 13.9892 11.1978C13.9185 11.1427 13.8596 11.0742 13.8156 10.9961ZM8.94359 13.9961C8.98804 13.919 9.04725 13.8515 9.11782 13.7973C9.18839 13.7431 9.26895 13.7033 9.35489 13.6803C9.44083 13.6573 9.53047 13.6514 9.61868 13.663C9.70689 13.6746 9.79194 13.7035 9.86898 13.748L10.6672 14.2084C10.7451 14.2525 10.8136 14.3115 10.8686 14.3822C10.9236 14.4529 10.964 14.5337 10.9876 14.6201C11.0112 14.7065 11.0174 14.7966 11.0059 14.8854C10.9945 14.9742 10.9655 15.0599 10.9207 15.1374C10.876 15.215 10.8163 15.2829 10.7451 15.3372C10.674 15.3916 10.5928 15.4313 10.5062 15.4541C10.4196 15.4768 10.3293 15.4822 10.2406 15.4699C10.152 15.4576 10.0666 15.4279 9.98945 15.3824L9.19133 14.9219C9.03582 14.8319 8.92239 14.6838 8.87594 14.5102C8.82949 14.3367 8.85383 14.1517 8.94359 13.9961ZM11.0032 25.6752C11.0929 25.8309 11.1172 26.0159 11.0705 26.1894C11.0239 26.363 10.9102 26.5109 10.7545 26.6007L9.95711 27.0616C9.87998 27.1071 9.79461 27.1369 9.70592 27.1492C9.61723 27.1615 9.52699 27.1561 9.44039 27.1333C9.3538 27.1105 9.27258 27.0708 9.20143 27.0164C9.13027 26.9621 9.07058 26.8942 9.02582 26.8167C8.98105 26.7391 8.95209 26.6535 8.94062 26.5647C8.92914 26.4759 8.93536 26.3857 8.95894 26.2993C8.98252 26.2129 9.02297 26.1321 9.07797 26.0614C9.13297 25.9908 9.20142 25.9317 9.27938 25.8877L10.0769 25.4267C10.2327 25.3369 10.4178 25.3127 10.5914 25.3593C10.7651 25.4058 10.9132 25.5195 11.0032 25.6752ZM15.1409 30.4267L14.6808 31.2248C14.6363 31.3019 14.577 31.3695 14.5064 31.4237C14.4358 31.4779 14.3552 31.5176 14.2693 31.5407C14.1833 31.5637 14.0936 31.5696 14.0054 31.558C13.9171 31.5464 13.832 31.5175 13.755 31.473C13.6779 31.4285 13.6103 31.3693 13.5561 31.2987C13.5019 31.2281 13.4622 31.1475 13.4391 31.0615C13.4161 30.9755 13.4102 30.8859 13.4218 30.7976C13.4334 30.7094 13.4623 30.6243 13.5068 30.5472L13.967 29.749C14.0577 29.5951 14.2056 29.4832 14.3784 29.4377C14.5512 29.3923 14.735 29.4169 14.8897 29.5062C15.0445 29.5956 15.1577 29.7424 15.2047 29.9148C15.2518 30.0872 15.2288 30.2712 15.1409 30.4267ZM26.8201 30.4591C26.9088 30.6147 26.9324 30.7991 26.8856 30.972C26.8388 31.145 26.7254 31.2923 26.5702 31.3819C26.4151 31.4715 26.2308 31.496 26.0576 31.4501C25.8844 31.4042 25.7365 31.2916 25.6461 31.1369L25.1861 30.3394C25.141 30.2623 25.1116 30.1771 25.0996 30.0887C25.0875 30.0002 25.0931 29.9102 25.1159 29.8239C25.1388 29.7376 25.1784 29.6567 25.2327 29.5858C25.2869 29.5149 25.3546 29.4554 25.4319 29.4107C25.5092 29.3661 25.5946 29.3371 25.6831 29.3256C25.7716 29.314 25.8616 29.3201 25.9477 29.3434C26.0339 29.3667 26.1146 29.4068 26.1852 29.4614C26.2559 29.5161 26.315 29.5841 26.3592 29.6616L26.8202 30.4591H26.8201ZM31.2313 26.6616C31.1717 26.7647 31.086 26.8502 30.9829 26.9097C30.8798 26.9692 30.7629 27.0005 30.6438 27.0005C30.525 27.0006 30.4083 26.9692 30.3057 26.9094L29.5088 26.4493C29.4317 26.4048 29.3642 26.3456 29.31 26.275C29.2558 26.2044 29.2161 26.1238 29.193 26.0378C29.17 25.9519 29.1641 25.8622 29.1757 25.774C29.1873 25.6858 29.2161 25.6007 29.2606 25.5236C29.3051 25.4465 29.3643 25.379 29.4349 25.3248C29.5055 25.2706 29.5861 25.2308 29.6721 25.2078C29.758 25.1847 29.8477 25.1788 29.9359 25.1904C30.0242 25.202 30.1092 25.2309 30.1863 25.2754L30.9838 25.7354C31.1395 25.8254 31.253 25.9735 31.2995 26.1472C31.346 26.3209 31.3216 26.5059 31.2317 26.6616H31.2313ZM29.1726 14.9826C29.128 14.9056 29.0991 14.8205 29.0874 14.7323C29.0758 14.6441 29.0816 14.5544 29.1046 14.4685C29.1276 14.3825 29.1673 14.3019 29.2214 14.2313C29.2756 14.1607 29.3431 14.1015 29.4202 14.057L30.2176 13.596C30.2947 13.5507 30.38 13.5212 30.4686 13.509C30.5572 13.4968 30.6473 13.5023 30.7338 13.5252C30.8202 13.548 30.9013 13.5877 30.9723 13.642C31.0434 13.6963 31.103 13.7641 31.1477 13.8416C31.1924 13.919 31.2213 14.0045 31.2329 14.0932C31.2444 14.1819 31.2382 14.272 31.2148 14.3582C31.1913 14.4445 31.151 14.5253 31.0962 14.596C31.0413 14.6666 30.9731 14.7257 30.8953 14.7698L30.098 15.2303C30.0209 15.2749 29.9359 15.3038 29.8477 15.3155C29.7594 15.3272 29.6698 15.3213 29.5838 15.2983C29.4979 15.2752 29.4173 15.2355 29.3467 15.1812C29.2762 15.127 29.217 15.0594 29.1726 14.9823V14.9826ZM25.034 10.2309L25.494 9.43313C25.5385 9.35605 25.5977 9.28849 25.6683 9.2343C25.739 9.18012 25.8195 9.14038 25.9055 9.11734C25.9915 9.0943 26.0812 9.08842 26.1694 9.10004C26.2576 9.11166 26.3427 9.14054 26.4198 9.18504C26.4969 9.22954 26.5644 9.28879 26.6186 9.3594C26.6728 9.43001 26.7126 9.5106 26.7356 9.59657C26.7586 9.68254 26.7645 9.77221 26.7529 9.86045C26.7413 9.94869 26.7124 10.0338 26.6679 10.1109L26.208 10.9085C26.1635 10.9856 26.1042 11.0532 26.0336 11.1074C25.963 11.1615 25.8824 11.2013 25.7965 11.2243C25.7105 11.2474 25.6208 11.2533 25.5326 11.2417C25.4443 11.2301 25.3592 11.2012 25.2822 11.1567C25.2051 11.1122 25.1375 11.0529 25.0833 10.9823C25.0291 10.9117 24.9894 10.8311 24.9663 10.7452C24.9433 10.6592 24.9374 10.5695 24.949 10.4813C24.9606 10.393 24.9895 10.3079 25.034 10.2309ZM9.38477 21.0944H7.43234C7.34274 21.0953 7.25383 21.0785 7.17076 21.0449C7.08769 21.0113 7.01212 20.9615 6.94842 20.8985C6.88471 20.8355 6.83414 20.7604 6.79962 20.6777C6.76511 20.595 6.74733 20.5063 6.74733 20.4167C6.74733 20.3271 6.76511 20.2383 6.79962 20.1556C6.83414 20.0729 6.88471 19.9979 6.94842 19.9349C7.01212 19.8719 7.08769 19.8221 7.17076 19.7885C7.25383 19.7548 7.34274 19.738 7.43234 19.739H9.38492C9.56467 19.739 9.73705 19.8104 9.86415 19.9375C9.99125 20.0646 10.0627 20.237 10.0627 20.4167C10.0627 20.5965 9.99125 20.7688 9.86415 20.8959C9.73705 21.023 9.56467 21.0945 9.38492 21.0945L9.38477 21.0944ZM20.8535 31.0319V32.9844C20.8535 33.1641 20.7821 33.3365 20.655 33.4636C20.5279 33.5907 20.3555 33.6621 20.1758 33.6621C19.996 33.6621 19.8237 33.5907 19.6966 33.4636C19.5695 33.3365 19.498 33.1641 19.498 32.9844V31.0316C19.498 30.8519 19.5695 30.6795 19.6966 30.5524C19.8237 30.4253 19.996 30.3539 20.1758 30.3539C20.3555 30.3539 20.5279 30.4253 20.655 30.5524C20.7821 30.6795 20.8535 30.8519 20.8535 31.0316V31.0319ZM33.4203 20.2413C33.4203 20.421 33.3488 20.5934 33.2217 20.7205C33.0946 20.8476 32.9222 20.919 32.7424 20.919H30.7908C30.7012 20.9199 30.6123 20.9031 30.5292 20.8695C30.4461 20.8359 30.3706 20.7861 30.3069 20.7231C30.2431 20.6601 30.1926 20.585 30.1581 20.5023C30.1235 20.4196 30.1058 20.3309 30.1058 20.2413C30.1058 20.1517 30.1235 20.063 30.1581 19.9803C30.1926 19.8976 30.2431 19.8225 30.3069 19.7595C30.3706 19.6965 30.4461 19.6467 30.5292 19.6131C30.6123 19.5795 30.7012 19.5626 30.7908 19.5636H32.7427C32.9225 19.5636 33.0948 19.635 33.2219 19.7621C33.349 19.8892 33.4204 20.0615 33.4205 20.2413H33.4203ZM19.3223 9.62594V7.67398C19.3223 7.58499 19.3399 7.49687 19.3739 7.41466C19.408 7.33244 19.4579 7.25773 19.5208 7.19481C19.5838 7.13188 19.6585 7.08197 19.7407 7.04791C19.8229 7.01386 19.911 6.99633 20 6.99633C20.089 6.99633 20.1771 7.01386 20.2593 7.04791C20.3415 7.08197 20.4163 7.13188 20.4792 7.19481C20.5421 7.25773 20.592 7.33244 20.6261 7.41466C20.6601 7.49687 20.6777 7.58499 20.6777 7.67398V8.18961V9.62617C20.6777 9.80592 20.6063 9.9783 20.4792 10.1054C20.3521 10.2325 20.1797 10.3039 19.9999 10.3039C19.8202 10.3039 19.6478 10.2325 19.5207 10.1054C19.3936 9.9783 19.3222 9.80592 19.3222 9.62617L19.3223 9.62594ZM20 37.3945C29.591 37.3945 37.3946 29.5911 37.3945 20C37.3943 10.4089 29.5912 2.60539 20 2.60547C10.4088 2.60555 2.60547 10.4086 2.60539 20C2.60531 29.5914 10.4081 37.3945 20 37.3945ZM20 1.25C9.66125 1.25 1.25 9.66125 1.25 20C1.25 30.3387 9.66117 38.75 20 38.75C30.3388 38.75 38.75 30.3389 38.75 20C38.75 9.66109 30.338 1.25 20 1.25ZM20.0873 34.1265C27.6957 34.1265 33.8848 27.9366 33.8847 20.329C33.8846 12.7213 27.6959 6.53125 20.0873 6.53125C12.4788 6.53125 6.29 12.7209 6.28992 20.329C6.28984 27.9371 12.4797 34.1265 20.0873 34.1265H20.0873ZM20.0873 5.17578C11.732 5.17578 4.93445 11.9736 4.93445 20.329C4.93445 28.6844 11.7319 35.482 20.0873 35.482C28.4427 35.482 35.2402 28.6845 35.2402 20.329C35.2402 11.9735 28.4427 5.17594 20.0873 5.17578H20.0873Z" fill="#231F20"/>
  <path fill-rule="evenodd" clip-rule="evenodd" d="M35.2403 20.329C35.2403 28.6845 28.443 35.4819 20.0874 35.482C11.7319 35.482 4.93469 28.6845 4.93461 20.329C4.93453 11.9735 11.7321 5.17578 20.0874 5.17578C28.4427 5.17578 35.2404 11.9736 35.2403 20.329ZM2.60547 20C2.60547 29.5912 10.4082 37.3945 20.0002 37.3945C29.5921 37.3945 37.3948 29.5911 37.3946 20C37.3945 10.4089 29.5913 2.60539 20.0001 2.60547C10.4088 2.60555 2.60555 10.4086 2.60547 20Z" fill="#E26655"/>
</svg>