<svg xmlns="http://www.w3.org/2000/svg" width="104" height="104" viewBox="0 0 104 104" fill="none">
  <path fill-rule="evenodd" clip-rule="evenodd" d="M92.4229 50.1607V43.3637C92.4229 42.8964 92.2373 42.4483 91.9069 42.1179C91.5765 41.7874 91.1283 41.6018 90.661 41.6018C90.1937 41.6018 89.7456 41.7874 89.4152 42.1179C89.0847 42.4483 88.8991 42.8964 88.8991 43.3637V50.1999H73.5746V43.3637C73.5696 42.8997 73.3817 42.4563 73.0518 42.13C72.7219 41.8036 72.2766 41.6205 71.8125 41.6205C71.3485 41.6205 70.9032 41.8036 70.5733 42.13C70.2434 42.4563 70.0555 42.8997 70.0505 43.3637V50.1607C65.959 49.4384 64.9212 45.3627 65.3364 41.7156C65.8611 37.0932 68.7818 32.5575 72.8401 32.5575H72.8831C75.6026 34.7715 78.4116 35.8463 81.2366 35.7524C84.0656 35.8461 86.8727 34.7715 89.592 32.5575H89.6326C93.6908 32.5575 96.6118 37.0932 97.1383 41.7156C97.5514 45.3625 96.5139 49.4384 92.4223 50.1607H92.4229ZM84.512 86.7029C84.5122 87.3505 84.3204 87.9836 83.9607 88.5222C83.6011 89.0608 83.0898 89.4806 82.4916 89.7286C81.8933 89.9767 81.235 90.0417 80.5998 89.9155C79.9646 89.7894 79.381 89.4777 78.923 89.0199C78.4649 88.5621 78.1529 87.9787 78.0264 87.3436C77.8998 86.7084 77.9645 86.05 78.2122 85.4516C78.4599 84.8532 78.8794 84.3417 79.4178 83.9818C79.9562 83.6219 80.5892 83.4297 81.2368 83.4295C82.1047 83.4309 82.9366 83.776 83.5505 84.3895C84.1643 85.0029 84.5101 85.8346 84.512 86.7025V86.7029ZM33.9473 94.4021V87.6049C33.9473 87.1377 33.7617 86.6895 33.4313 86.3591C33.1008 86.0287 32.6527 85.843 32.1854 85.843C31.7181 85.843 31.27 86.0287 30.9395 86.3591C30.6091 86.6895 30.4235 87.1377 30.4235 87.6049V94.4411H15.0991V87.6049C15.0942 87.1409 14.9063 86.6976 14.5764 86.3712C14.2465 86.0448 13.8012 85.8618 13.3371 85.8618C12.8731 85.8618 12.4277 86.0448 12.0978 86.3712C11.7679 86.6976 11.5801 87.1409 11.5751 87.6049V94.4019C7.48337 93.6794 6.44581 89.6037 6.85896 85.9566C7.38567 81.3345 10.3044 76.7987 14.3646 76.7987H14.4053C17.1245 79.0146 19.9317 80.0893 22.7606 79.9934C25.5857 80.0893 28.3947 79.0146 31.1139 76.7987H31.157C35.2154 76.7987 38.1362 81.3345 38.6608 85.9566C39.0758 89.6035 38.0382 93.6796 33.9467 94.4019L33.9473 94.4021ZM100.639 41.318C100.275 38.1034 98.9772 34.9732 97.082 32.7297C94.831 30.0615 91.8649 28.7635 88.7336 29.0787C88.3714 29.1136 88.0291 29.2607 87.7547 29.4996C85.5348 31.422 83.4243 32.3147 81.3081 32.2286C81.2612 32.2266 81.2141 32.2266 81.1672 32.2286C79.0508 32.3147 76.9405 31.422 74.7224 29.4996C74.4478 29.261 74.1057 29.1139 73.7436 29.0787C70.6114 28.7633 67.6455 30.0615 65.3923 32.7297C63.4973 34.973 62.2012 38.1036 61.8376 41.318C61.0761 48.0151 64.3318 52.9955 69.9384 53.7087C70.0118 53.7188 70.0858 53.724 70.1598 53.7243H79.4764V80.1385C78.3262 80.4498 77.2776 81.0569 76.4351 81.8995C75.5925 82.742 74.9854 83.7906 74.6741 84.9408H42.0814C41.6293 81.9477 40.3803 79.0719 38.6066 76.9714C36.3535 74.3049 33.3875 73.007 30.2551 73.3202C29.8935 73.3572 29.5519 73.5041 29.2762 73.7411C27.0583 75.6636 24.946 76.5543 22.8317 76.4721C22.785 76.47 22.7376 76.47 22.6907 76.4721C20.5725 76.5533 18.4641 75.6636 16.2442 73.7411C15.9687 73.5037 15.627 73.3568 15.2653 73.3202C12.1351 73.0088 9.16707 74.3049 6.91685 76.9714C5.0219 79.2147 3.72596 82.345 3.35973 85.5597C2.59821 92.2567 5.8539 97.2371 11.4606 97.9515C11.5347 97.961 11.6093 97.9656 11.684 97.9653H33.8397C33.9136 97.9657 33.9875 97.9611 34.0609 97.9515C38.8219 97.3446 41.8856 93.6623 42.236 88.4656H74.6729C74.9818 89.618 75.5887 90.6687 76.4325 91.5123C77.2762 92.3558 78.3271 92.9624 79.4796 93.2711C80.6321 93.5798 81.8455 93.5797 82.9979 93.2708C84.1503 92.962 85.2011 92.3553 86.0448 91.5116C86.8884 90.668 87.4951 89.6171 87.804 88.4647C88.1128 87.3123 88.1129 86.0989 87.8042 84.9464C87.4955 83.794 86.8889 82.7431 86.0454 81.8993C85.2019 81.0556 84.1511 80.4487 82.9987 80.1397V53.7237H92.3153C92.39 53.7235 92.4647 53.7182 92.5387 53.7081C98.145 52.9953 101.401 48.0151 100.64 41.3174L100.639 41.318ZM22.81 53.8019C24.301 53.8017 25.7585 54.2437 26.9983 55.0719C28.2381 55.9001 29.2045 57.0774 29.7751 58.4549C30.3458 59.8323 30.4952 61.3481 30.2044 62.8104C29.9135 64.2728 29.1956 65.6161 28.1413 66.6704C27.087 67.7247 25.7437 68.4426 24.2814 68.7334C22.819 69.0243 21.3032 68.8749 19.9258 68.3042C18.5483 67.7336 17.371 66.7672 16.5428 65.5274C15.7146 64.2876 15.2726 62.8301 15.2728 61.3391C15.2754 59.3409 16.0704 57.4253 17.4833 56.0124C18.8962 54.5995 20.8118 53.8045 22.81 53.8019ZM19.3688 15.8994C19.3689 15.252 19.5609 14.6192 19.9207 14.081C20.2804 13.5428 20.7916 13.1233 21.3897 12.8757C21.9878 12.628 22.646 12.5632 23.2809 12.6896C23.9158 12.8159 24.499 13.1277 24.9567 13.5855C25.4144 14.0433 25.7261 14.6266 25.8523 15.2615C25.9785 15.8964 25.9137 16.5545 25.6659 17.1526C25.4181 17.7507 24.9985 18.2618 24.4603 18.6214C23.922 18.9811 23.2891 19.173 22.6418 19.1729C21.7739 19.172 20.9419 18.8268 20.3282 18.2131C19.7146 17.5994 19.3696 16.7673 19.3688 15.8994ZM81.2876 9.55863C82.7785 9.55879 84.2358 10.001 85.4753 10.8294C86.7148 11.6577 87.6809 12.835 88.2513 14.2124C88.8218 15.5898 88.971 17.1054 88.6801 18.5676C88.3892 20.0297 87.6713 21.3728 86.6172 22.427C85.563 23.4812 84.2199 24.1992 82.7578 24.4901C81.2956 24.781 79.78 24.6318 78.4026 24.0614C77.0252 23.491 75.8479 22.5249 75.0195 21.2854C74.1911 20.0459 73.7488 18.5887 73.7486 17.0978C73.7508 15.099 74.5458 13.1827 75.9591 11.7693C77.3725 10.3559 79.2888 9.56084 81.2876 9.55863ZM22.81 72.4019C25.6056 72.4022 28.2978 71.344 30.3449 69.44C32.392 67.536 33.6422 64.9275 33.8441 62.1391C34.046 59.3507 33.1846 56.5893 31.4331 54.4103C29.6816 52.2313 27.17 50.7962 24.4035 50.3939V22.4636C25.5536 22.1523 26.6021 21.5452 27.4446 20.7027C28.2871 19.8601 28.8941 18.8116 29.2054 17.6615H70.2396C70.3785 20.4405 71.5586 23.0654 73.5451 25.0138C75.5317 26.9621 78.179 28.091 80.9602 28.1759C83.7414 28.2607 86.4526 27.2952 88.5542 25.4716C90.6558 23.648 91.9938 21.0999 92.3017 18.3345C92.6097 15.5691 91.8651 12.7891 90.2162 10.5478C88.5672 8.30649 86.1349 6.76823 83.4031 6.23914C80.6714 5.71006 77.8406 6.22893 75.4741 7.69251C73.1076 9.15609 71.3789 11.4571 70.6321 14.1375H29.206C28.8968 12.9854 28.2898 11.935 27.4461 11.0918C26.6023 10.2485 25.5515 9.64223 24.3993 9.33373C23.247 9.02524 22.0338 9.02544 20.8816 9.3343C19.7295 9.64316 18.6789 10.2498 17.8354 11.0933C16.9919 11.9368 16.3853 12.9874 16.0765 14.1396C15.7677 15.2918 15.7675 16.5049 16.076 17.6572C16.3845 18.8095 16.9909 19.8602 17.8341 20.704C18.6773 21.5477 19.7278 22.1546 20.8799 22.4638V50.4503C18.1565 50.9328 15.7127 52.4182 14.0303 54.6135C12.348 56.8087 11.5492 59.5547 11.7914 62.3099C12.0336 65.065 13.2992 67.6295 15.3388 69.4976C17.3783 71.3657 20.0438 72.4019 22.8096 72.4019H22.81Z" fill="white"/>
  <path fill-rule="evenodd" clip-rule="evenodd" d="M73.5733 43.3639V50.2H88.8979V43.3639C88.8979 42.8966 89.0835 42.4484 89.4139 42.118C89.7444 41.7876 90.1925 41.602 90.6598 41.602C91.1271 41.602 91.5752 41.7876 91.9057 42.118C92.2361 42.4484 92.4217 42.8966 92.4217 43.3639V50.1608C96.5133 49.4385 97.5508 45.3626 97.1377 41.7157C96.6112 37.0934 93.6902 32.5574 89.632 32.5576H89.5914C86.8721 34.7717 84.0649 35.8462 81.236 35.7526C78.411 35.8464 75.6019 34.7715 72.8825 32.5576H72.8384C68.7802 32.5576 65.8595 37.0934 65.3348 41.7157C64.9196 45.3628 65.9574 49.4385 70.0489 50.1608V43.3639C70.0539 42.8998 70.2417 42.4565 70.5716 42.1301C70.9015 41.8037 71.3469 41.6207 71.8109 41.6207C72.275 41.6207 72.7203 41.8037 73.0502 42.1301C73.3801 42.4565 73.5679 42.8998 73.5729 43.3639H73.5733Z" fill="#00ABEA"/>
  <path fill-rule="evenodd" clip-rule="evenodd" d="M38.6594 85.9565C38.1347 81.3344 35.214 76.7984 31.1555 76.7986H31.1125C28.3939 79.0153 25.5842 80.0892 22.7592 79.9933C19.9302 80.0894 17.1231 79.0145 14.4038 76.7986H14.3632C10.3029 76.7986 7.38423 81.3344 6.85753 85.9565C6.44437 89.6036 7.48194 93.6793 11.5737 94.4018V87.6048C11.5787 87.1408 11.7665 86.6975 12.0964 86.3711C12.4263 86.0447 12.8716 85.8616 13.3357 85.8616C13.7998 85.8616 14.2451 86.0447 14.575 86.3711C14.9049 86.6975 15.0927 87.1408 15.0977 87.6048V94.4412H30.4221V87.6048C30.4221 87.1375 30.6077 86.6894 30.9381 86.359C31.2685 86.0286 31.7167 85.8429 32.184 85.8429C32.6513 85.8429 33.0994 86.0286 33.4298 86.359C33.7602 86.6894 33.9459 87.1375 33.9459 87.6048V94.402C38.0368 93.6795 39.0744 89.6034 38.6594 85.9565Z" fill="#00ABEA"/>
  <path fill-rule="evenodd" clip-rule="evenodd" d="M22.6401 19.1727C23.2876 19.1728 23.9205 18.9809 24.4588 18.6212C24.9972 18.2616 25.4168 17.7504 25.6646 17.1523C25.9124 16.5542 25.9773 15.8961 25.8511 15.2611C25.7248 14.6261 25.4131 14.0428 24.9554 13.5849C24.4976 13.1271 23.9144 12.8153 23.2794 12.6889C22.6445 12.5626 21.9863 12.6273 21.3881 12.8751C20.79 13.1228 20.2787 13.5423 19.919 14.0806C19.5593 14.6189 19.3672 15.2517 19.3672 15.8991C19.368 16.767 19.7131 17.599 20.3267 18.2127C20.9403 18.8264 21.7723 19.1717 22.6401 19.1727Z" fill="#00ABEA"/>
  <path fill-rule="evenodd" clip-rule="evenodd" d="M81.2341 83.4297C80.5865 83.4299 79.9535 83.6221 79.4152 83.9821C78.8769 84.342 78.4574 84.8535 78.2098 85.4519C77.9621 86.0502 77.8975 86.7086 78.0241 87.3437C78.1506 87.9788 78.4626 88.5621 78.9207 89.0198C79.3788 89.4776 79.9623 89.7892 80.5975 89.9153C81.2326 90.0415 81.891 89.9764 82.4892 89.7283C83.0874 89.4803 83.5986 89.0605 83.9581 88.5219C84.3177 87.9833 84.5095 87.3502 84.5093 86.7026C84.5083 85.8345 84.1628 85.0023 83.5487 84.3886C82.9347 83.775 82.1022 83.4301 81.2341 83.4297Z" fill="#00ABEA"/>
</svg>