<svg xmlns="http://www.w3.org/2000/svg" width="104" height="104" viewBox="0 0 104 104" fill="none">
  <path fill-rule="evenodd" clip-rule="evenodd" d="M97.9875 86.5807V74.4921H93.5594C93.1937 74.4921 92.8429 74.3471 92.584 74.0888C92.325 73.8306 92.1791 73.4802 92.1781 73.1145L92.1627 68.0953H84.5477V86.5807H97.9875ZM94.9323 70.2919L96.2404 71.7288H94.9382L94.9323 70.2919ZM100.75 73.1104V86.6637C100.75 88.1421 99.5991 89.344 98.186 89.344H84.3485C82.9353 89.344 81.7846 88.1421 81.7846 86.6637V68.0104C81.7846 66.5341 82.9351 65.3324 84.3483 65.3324H93.5391C93.7311 65.3325 93.9209 65.3725 94.0966 65.45C94.2722 65.5275 94.4299 65.6407 94.5594 65.7825L100.388 72.1791C100.62 72.4335 100.749 72.7658 100.749 73.1106L100.75 73.1104ZM71.8081 86.5807V74.4921H67.38C67.0143 74.4921 66.6635 74.3471 66.4046 74.0888C66.1457 73.8306 65.9997 73.4802 65.9988 73.1145L65.9831 68.0953H58.3712L58.369 86.5807H71.8081ZM68.7546 70.2919L70.0611 71.7288H68.7578L68.7538 70.2919H68.7546ZM74.2119 72.1789C74.4431 72.4341 74.5711 72.7661 74.5708 73.1104V86.6637C74.5708 88.1421 73.422 89.344 72.0068 89.344H58.1695C56.7566 89.344 55.6057 88.1421 55.6057 86.6637V68.0104C55.6057 66.5341 56.7562 65.3324 58.1693 65.3324H67.3609C67.5529 65.3323 67.7428 65.3724 67.9185 65.4499C68.0942 65.5274 68.2518 65.6407 68.3812 65.7825L74.2109 72.1791L74.2119 72.1789ZM45.6288 86.5805L45.631 74.4919H41.2019C40.8364 74.4912 40.486 74.346 40.2272 74.0879C39.9684 73.8298 39.8222 73.4798 39.8206 73.1143L39.807 68.0951H32.1925V86.5805H45.6288ZM42.575 70.2919L43.8833 71.7288H42.5791L42.575 70.2919ZM48.0324 72.1789C48.2648 72.4334 48.3935 72.7657 48.3931 73.1104V86.6637C48.3931 88.1421 47.2422 89.344 45.8291 89.344H31.9922C30.577 89.344 29.4279 88.1421 29.4279 86.6637V68.0104C29.4279 66.5341 30.5766 65.3324 31.9916 65.3324H41.1812C41.3735 65.3325 41.5636 65.3725 41.7396 65.45C41.9156 65.5275 42.0736 65.6407 42.2035 65.7825L48.0322 72.1791L48.0324 72.1789ZM19.4515 86.5805V74.4921H15.0252C14.6595 74.4921 14.3087 74.3471 14.0498 74.0888C13.7908 73.8306 13.6449 73.4802 13.6439 73.1145L13.6283 68.0953H6.0125V86.5807L19.4515 86.5805ZM16.3971 70.2919L17.7052 71.7288H16.4028L16.3971 70.2919ZM21.8542 72.1789C22.0868 72.4333 22.2156 72.7657 22.2152 73.1104V86.6637C22.2152 88.1421 21.0643 89.344 19.6511 89.344H5.81425C4.4007 89.344 3.25 88.1421 3.25 86.6637V68.0104C3.25 66.5341 4.4007 65.3324 5.81384 65.3324H15.0052C15.1973 65.3323 15.3872 65.3723 15.5629 65.4498C15.7386 65.5273 15.8962 65.6406 16.0255 65.7825L21.8552 72.1791L21.8542 72.1789ZM42.4474 35.9046H55.8844L55.8862 23.8158H51.4581C51.0925 23.8153 50.7421 23.67 50.4833 23.4119C50.2245 23.1538 50.0784 22.8038 50.0768 22.4383L50.0634 17.4192H42.4474V35.9046ZM52.831 19.6179L54.1395 21.0525H52.8348L52.831 19.6179ZM39.6843 35.9897V17.3364C39.6843 15.858 40.8326 14.6561 42.2478 14.6561H51.4373C51.6298 14.6561 51.8202 14.6962 51.9963 14.7741C52.1723 14.8519 52.3302 14.9657 52.4597 15.1081L58.2881 21.5027C58.5204 21.7574 58.6491 22.0897 58.6491 22.4344V35.9895C58.6491 37.4656 57.4986 38.6679 56.0853 38.6679H42.248C40.8328 38.6679 39.6841 37.466 39.6843 35.9897ZM8.84142 63.0941V56.0382C8.84142 53.2296 10.9945 50.9442 13.6394 50.9442H47.7848V40.7203C47.7848 40.354 47.9303 40.0027 48.1893 39.7436C48.4483 39.4846 48.7997 39.3391 49.166 39.3391C49.5323 39.3391 49.8837 39.4846 50.1427 39.7436C50.4017 40.0027 50.5473 40.354 50.5473 40.7203V50.9438H84.6926C87.337 50.9438 89.4902 53.2292 89.4902 56.0378V63.0937C89.4902 63.46 89.3446 63.8114 89.0856 64.0704C88.8266 64.3294 88.4753 64.475 88.1089 64.475C87.7426 64.475 87.3913 64.3294 87.1322 64.0704C86.8732 63.8114 86.7277 63.46 86.7277 63.0937V56.0382C86.7277 54.7532 85.8136 53.7073 84.6926 53.7073H63.2184V63.0943C63.2184 63.4607 63.0729 63.812 62.8138 64.071C62.5548 64.3301 62.2035 64.4756 61.8371 64.4756C61.4708 64.4756 61.1195 64.3301 60.8604 64.071C60.6014 63.812 60.4559 63.4607 60.4559 63.0943V53.7063H37.97V63.0933C37.97 63.2747 37.9342 63.4543 37.8648 63.6219C37.7954 63.7895 37.6937 63.9417 37.5654 64.07C37.4371 64.1983 37.2849 64.3 37.1173 64.3694C36.9497 64.4388 36.7701 64.4746 36.5887 64.4746C36.4073 64.4746 36.2277 64.4388 36.0601 64.3694C35.8925 64.3 35.7403 64.1983 35.612 64.07C35.4838 63.9417 35.382 63.7895 35.3126 63.6219C35.2432 63.4543 35.2075 63.2747 35.2075 63.0933V53.7063H13.6396C12.5184 53.7063 11.6045 54.7526 11.6045 56.0374V63.0933C11.6045 63.4596 11.459 63.811 11.2 64.07C10.9409 64.329 10.5896 64.4746 10.2233 64.4746C9.85695 64.4746 9.50562 64.329 9.24659 64.07C8.98756 63.811 8.84203 63.4596 8.84203 63.0933L8.84142 63.0941Z" fill="#231F20"/>
  <path fill-rule="evenodd" clip-rule="evenodd" d="M55.8842 35.9046L55.886 23.8158H51.4579C51.0924 23.8152 50.7419 23.67 50.4831 23.4119C50.2243 23.1538 50.0782 22.8037 50.0766 22.4382L50.0632 17.4192H42.4473V35.9046H55.8842Z" fill="white"/>
  <path fill-rule="evenodd" clip-rule="evenodd" d="M19.4522 74.492H15.0251C14.6594 74.492 14.3086 74.347 14.0497 74.0888C13.7908 73.8305 13.6448 73.4801 13.6439 73.1144L13.6282 68.0952H6.01245V86.5806H19.4522V74.492Z" fill="white"/>
  <path fill-rule="evenodd" clip-rule="evenodd" d="M58.3711 68.0952L58.3689 86.5806H71.8081V74.492H67.3799C67.0142 74.492 66.6635 74.347 66.4045 74.0888C66.1456 73.8305 65.9996 73.4801 65.9987 73.1144L65.983 68.0952H58.3711Z" fill="white"/>
  <path fill-rule="evenodd" clip-rule="evenodd" d="M68.7544 70.2919L68.7585 71.7288H70.0609L68.7544 70.2919Z" fill="white"/>
  <path fill-rule="evenodd" clip-rule="evenodd" d="M17.7051 71.7288L16.397 70.2919L16.4027 71.7288H17.7051Z" fill="white"/>
  <path fill-rule="evenodd" clip-rule="evenodd" d="M52.8311 19.6178L52.8349 21.0525H54.1396L52.8311 19.6178Z" fill="white"/>
</svg>