<svg width="104" height="104" viewBox="0 0 104 104" fill="none" xmlns="http://www.w3.org/2000/svg">
<path fill-rule="evenodd" clip-rule="evenodd" d="M66.0434 62.4419L63.4891 64.9921L60.5314 63.6732C58.8398 64.8064 56.9628 65.5883 54.9653 65.9819L53.8021 69.0048H50.1918L49.0287 65.9817C47.0333 65.5891 45.1566 64.8079 43.4706 63.6741L40.5048 64.9913L37.9497 62.4404L39.2704 59.4741C38.1351 57.7853 37.3551 55.9122 36.9625 53.9159L33.9385 52.7526V49.1403L36.9623 47.9774C37.3553 45.9803 38.1342 44.1057 39.2703 42.4193L37.9497 39.4514L40.5049 36.9003L43.4688 38.2188C45.1568 37.0848 47.0335 36.3053 49.0285 35.9097L50.1919 32.8879H53.8021L54.9653 35.9127C56.9611 36.3055 58.8376 37.0842 60.5251 38.2189L63.4894 36.8999L66.0451 39.4514L64.7296 42.4174C65.8639 44.1046 66.6385 45.9816 67.0345 47.9768L70.0563 49.1403V52.7524L67.0323 53.9157C66.6393 55.9103 65.8623 57.7853 64.7313 59.4751C64.7301 59.4766 65.9329 62.1923 66.0434 62.4419ZM15.9143 17.1903C13.0193 16.6778 11.5938 13.3444 11.5938 10.6934C11.5938 7.52838 13.3928 5.5 16.5813 5.5C19.7703 5.5 21.5669 7.52856 21.5669 10.6934C21.5669 13.342 20.1466 16.6713 17.2561 17.1889C16.8132 17.2681 16.3572 17.2686 15.9143 17.1903ZM15.9138 84.7476C13.0191 84.235 11.5938 80.9027 11.5938 78.2517C11.5938 75.0867 13.3928 73.0581 16.5813 73.0581C19.7703 73.0581 21.5669 75.0869 21.5669 78.2517C21.5669 80.9001 20.1468 84.2284 17.2566 84.7461C16.8132 84.8256 16.357 84.8262 15.9138 84.7476ZM87.4129 73.0583C90.6031 73.0583 92.4066 75.0827 92.4066 78.2519C92.4066 80.9033 90.9813 84.2286 88.0894 84.7463C87.6434 84.8262 87.184 84.8264 86.7378 84.7463C83.8474 84.2286 82.4273 80.9003 82.4273 78.2519C82.4273 75.0874 84.2243 73.0583 87.4129 73.0583ZM82.4273 10.6934C82.4273 7.52894 84.2245 5.5 87.4129 5.5C90.6031 5.5 92.4066 7.52444 92.4066 10.6934C92.4066 13.3448 90.9811 16.6713 88.0889 17.1888C87.6432 17.2684 87.1842 17.2686 86.7383 17.1889C83.8476 16.6713 82.4273 13.342 82.4273 10.6934ZM60.4864 50.9442C60.4864 46.2661 56.6774 42.4613 52 42.4613C47.3226 42.4613 43.5136 46.2661 43.5136 50.9442C43.5136 55.6229 47.3213 59.4306 52 59.4306C56.6787 59.4306 60.4864 55.6229 60.4864 50.9442Z" fill="white"/>
<path fill-rule="evenodd" clip-rule="evenodd" d="M29.9367 50.9431C29.9367 51.7701 29.2654 52.4414 28.4384 52.4414H21.1576C18.0389 52.4414 15.5005 49.9066 15.5005 46.7914V31.9626C15.5005 31.1357 16.1718 30.4643 17.0005 30.4643C17.8274 30.4643 18.4988 31.1356 18.4988 31.9626V46.7914C18.4988 48.2543 19.6911 49.4431 21.1576 49.4431H28.4384C29.2654 49.4429 29.9367 50.1143 29.9367 50.9431ZM72.4782 16.1078C72.4782 16.9356 71.8069 17.6071 70.9799 17.6071H56.1563C54.6899 17.6071 53.4976 18.7984 53.4976 20.2639V27.3856C53.4976 28.2143 52.828 28.8856 51.9992 28.8856C51.1705 28.8856 50.5009 28.2141 50.5009 27.3856V20.2638C50.5009 17.146 53.0386 14.6095 56.1561 14.6095H70.9797C71.8069 14.6095 72.4782 15.2807 72.4782 16.1078ZM75.5553 52.4412C74.7284 52.4412 74.0569 51.7699 74.0569 50.9429C74.0569 50.1141 74.7282 49.4429 75.5553 49.4429H83.0007C86.1211 49.4429 88.6577 51.9796 88.6577 55.0981V67.5522C88.6577 68.3783 87.9865 69.0496 87.1577 69.0496C86.3307 69.0496 85.6594 68.3783 85.6594 67.5522V55.0981C85.6594 53.6335 84.4671 52.4412 83.0007 52.4412H75.5553ZM53.4977 74.5041V81.6257C53.4977 84.7435 50.9603 87.2802 47.8426 87.2802H33.0147C32.1859 87.2802 31.5156 86.6089 31.5156 85.7828C31.5156 84.9541 32.1861 84.2828 33.0147 84.2828H47.8426C49.309 84.2828 50.5013 83.0924 50.5013 81.6259V74.5043C50.5013 73.6756 51.1709 73.0043 51.9996 73.0043C52.8282 73.0041 53.4977 73.6754 53.4977 74.5041ZM87.4124 6.99869C89.0061 6.99869 90.9061 7.63994 90.9061 10.6921C90.9061 13.4313 89.3061 15.7476 87.4124 15.7476C85.5224 15.7476 83.9268 13.4313 83.9268 10.6921C83.9268 7.63994 85.8229 6.99869 87.4124 6.99869ZM94.1626 17.8855C93.1463 17.6316 92.1301 17.4389 91.1157 17.2999C92.7979 15.8449 93.9017 13.426 93.9017 10.6921C93.9017 6.62706 91.3562 4.00019 87.4124 4.00019C83.473 4.00019 80.9292 6.62706 80.9292 10.6921C80.9292 13.4206 82.0277 15.8335 83.7038 17.2902C82.6823 17.4308 81.6661 17.6281 80.6551 17.8881C76.9553 18.8406 74.8336 21.0049 74.8336 23.8246V30.9426C74.8336 31.7697 75.5048 32.4409 76.3309 32.4409C77.1606 32.4409 77.8293 31.7697 77.8293 30.9426V23.8246C77.8293 22.0769 79.7742 21.211 81.4034 20.7908C85.3782 19.7693 89.3157 19.771 93.4392 20.7925C94.7702 21.1251 97.0017 21.9591 97.0017 23.8244V30.9424C97.0017 31.7695 97.6731 32.4408 98.5 32.4408C99.3288 32.4408 100 31.7695 100 30.9424V23.8244C100 20.9731 97.8711 18.8089 94.1626 17.8855ZM16.5805 6.99869C18.1707 6.99869 20.0661 7.63994 20.0661 10.6921C20.0661 13.4313 18.4705 15.7476 16.5805 15.7476C14.6912 15.7476 13.093 13.4313 13.093 10.6921C13.093 7.63994 14.9913 6.99869 16.5805 6.99869ZM5.49925 32.4409C6.32613 32.4409 6.99756 31.7697 6.99756 30.9426V23.8246C6.99756 22.0795 8.938 21.211 10.5636 20.7908C14.5446 19.7693 18.484 19.771 22.6073 20.7925C23.9348 21.1251 26.1636 21.9574 26.1636 23.8244V30.9424C26.1636 31.7695 26.8349 32.4408 27.6619 32.4408C28.4907 32.4408 29.1619 31.7695 29.1619 30.9424V23.8244C29.1619 20.9729 27.0357 18.8069 23.3307 17.8853C22.3127 17.6314 21.2946 17.4387 20.2803 17.2997C21.9625 15.8431 23.0644 13.4258 23.0644 10.6919C23.0644 6.62688 20.5199 4 16.5805 4C12.6411 4 10.0966 6.62688 10.0966 10.6919C10.0966 13.4204 11.1959 15.8333 12.8703 17.29C11.8461 17.4306 10.828 17.6279 9.81794 17.8879C6.12006 18.8434 4 21.0068 4 23.8246V30.9426C4 31.7697 4.67125 32.4409 5.49925 32.4409ZM87.4124 74.5572C89.0061 74.5572 90.9061 75.1984 90.9061 78.2507C90.9061 80.9899 89.3061 83.3054 87.4124 83.3054C85.5224 83.3054 83.9268 80.9897 83.9268 78.2507C83.9268 75.1984 85.8229 74.5572 87.4124 74.5572ZM94.1626 85.4431C93.1463 85.1918 92.1301 84.9981 91.1157 84.8575C92.7979 83.4025 93.9017 80.9845 93.9017 78.2506C93.9017 74.1856 91.3562 71.5587 87.4124 71.5587C83.473 71.5587 80.9292 74.1856 80.9292 78.2506C80.9292 80.9781 82.0277 83.3918 83.7038 84.8487C82.6823 84.9893 81.6661 85.1883 80.6551 85.4466C76.9553 86.3991 74.8336 88.5625 74.8336 91.3831V98.5004C74.8336 99.3291 75.5048 99.9987 76.3309 99.9987C77.1606 99.9987 77.8293 99.3291 77.8293 98.5004V91.3831C77.8293 89.6354 79.7742 88.7695 81.4034 88.3493C85.3763 87.3278 89.314 87.3295 93.4392 88.3529C94.7702 88.6827 97.0017 89.5176 97.0017 91.3831V98.5004C97.0017 99.3291 97.6731 99.9987 98.5 99.9987C99.3288 99.9987 100 99.3291 100 98.5004V91.3831C100 88.5316 97.8711 86.3672 94.1626 85.4431ZM16.5805 74.5572C18.1707 74.5572 20.0661 75.1984 20.0661 78.2507C20.0661 80.9899 18.4705 83.3054 16.5805 83.3054C14.6912 83.3054 13.093 80.9897 13.093 78.2507C13.093 75.1984 14.9913 74.5572 16.5805 74.5572ZM23.3307 85.4431C22.3127 85.1901 21.2946 84.9981 20.2803 84.8575C21.9625 83.4025 23.0644 80.9845 23.0644 78.2506C23.0644 74.1856 20.5199 71.5587 16.5805 71.5587C12.6411 71.5587 10.0966 74.1856 10.0966 78.2506C10.0966 80.9781 11.1959 83.3918 12.8703 84.8487C11.8461 84.9893 10.828 85.1883 9.81794 85.4466C6.12006 86.401 4 88.5653 4 91.3831V98.5004C4 99.3291 4.67125 99.9987 5.49925 99.9987C6.32613 99.9987 6.99756 99.3291 6.99756 98.5004V91.3831C6.99756 89.6373 8.938 88.7695 10.5636 88.3493C14.5428 87.3295 18.4821 87.3295 22.6073 88.3529C23.9348 88.6827 26.1636 89.5176 26.1636 91.3831V98.5004C26.1636 99.3291 26.8349 99.9987 27.6619 99.9987C28.4907 99.9987 29.1619 99.3291 29.1619 98.5004V91.3831C29.1619 88.5316 27.0357 86.3656 23.3307 85.4431ZM51.9996 57.9312C48.1459 57.9312 45.0098 54.7958 45.0098 50.9431C45.0098 47.0922 48.1461 43.9585 51.9996 43.9585C55.8531 43.9585 58.9894 47.0922 58.9894 50.9431C58.9894 54.7956 55.8531 57.9312 51.9996 57.9312ZM51.9996 40.96C46.4929 40.96 42.0132 45.4381 42.0132 50.9429C42.0132 56.4496 46.4929 60.9293 51.9996 60.9293C57.5063 60.9293 61.9861 56.4496 61.9861 50.9429C61.9859 45.4381 57.5061 40.96 51.9996 40.96ZM68.5557 51.7214V50.1693L66.4949 49.3759C66.0128 49.192 65.659 48.7718 65.56 48.2659C65.2026 46.4599 64.5057 44.7724 63.4842 43.2537C63.1984 42.8283 63.1499 42.2862 63.3542 41.8172L63.6469 41.1477L64.2544 39.7829L63.1577 38.6879L61.1341 39.5882C60.6618 39.7979 60.1159 39.7493 59.6888 39.4626C58.1622 38.4366 56.4747 37.7354 54.6747 37.3833C54.1688 37.2814 53.7505 36.9295 53.5647 36.4474L52.7714 34.3866H51.2209L50.4276 36.4474C50.2444 36.9295 49.8244 37.2814 49.3176 37.3833C47.5187 37.7352 45.8301 38.4366 44.3046 39.4626C43.8766 39.7491 43.3317 39.7979 42.8612 39.5882L40.8359 38.6879L39.7392 39.7829L40.6405 41.8083C40.8492 42.2787 40.8023 42.8262 40.5149 43.2535C39.4872 44.7801 38.7884 46.4659 38.4338 48.2658C38.3348 48.7716 37.9819 49.1918 37.5006 49.3757L35.4381 50.1691V51.7212L37.5006 52.5145C37.9818 52.6977 38.3346 53.1177 38.4338 53.6245C38.7884 55.4243 39.4872 57.1092 40.5149 58.6358C40.8023 59.0658 40.8492 59.6104 40.6405 60.082L39.7392 62.1064L40.8359 63.2014L42.8612 62.302C43.3319 62.0914 43.8766 62.1402 44.3046 62.4276C45.8303 63.4527 47.5187 64.1541 49.3176 64.5087C49.8244 64.6077 50.2446 64.9606 50.4276 65.4419L51.2209 67.5036H52.7714L53.5647 65.4419C53.7486 64.9608 54.1688 64.6079 54.6747 64.5087C56.4728 64.1539 58.1622 63.4527 59.6958 62.4258C60.1238 62.1383 60.6713 62.0941 61.1418 62.3037L63.1574 63.2014L64.2541 62.1064L63.3537 60.0723C63.1493 59.6035 63.1981 59.0631 63.4836 58.6394C64.507 57.1075 65.2047 55.4207 65.5594 53.6245C65.6584 53.1177 66.0123 52.6975 66.4926 52.5145L68.5557 51.7214ZM70.5934 47.7421L68.3177 46.8646C67.9144 45.2451 67.2811 43.7116 66.4223 42.2858L67.4119 40.0606C67.6632 39.4926 67.5393 38.8302 67.1007 38.3916L64.5509 35.8399C64.1121 35.4012 63.448 35.2791 62.8819 35.5304L60.6503 36.5219C59.2238 35.6622 57.6918 35.0262 56.0778 34.6248L55.2004 32.3491C54.9767 31.7699 54.4221 31.3885 53.8013 31.3885H50.1919C49.5737 31.3885 49.0165 31.7697 48.7936 32.3491L47.9163 34.6248C46.3039 35.0262 44.7692 35.6622 43.3427 36.5219L41.1113 35.5304C40.5452 35.2791 39.8819 35.4012 39.4433 35.8399L36.8926 38.3916C36.4538 38.8304 36.331 39.4928 36.5839 40.0606L37.5736 42.2911C36.7146 43.7185 36.0798 45.2504 35.6764 46.8646L33.3998 47.7421C32.8223 47.9658 32.4402 48.5204 32.4402 49.1412V52.7479C32.4402 53.3688 32.8223 53.9243 33.3998 54.1471L35.6764 55.0246C36.0798 56.6388 36.7148 58.1706 37.5736 59.5981L36.5839 61.8288C36.331 62.3974 36.4538 63.0589 36.8926 63.4977L39.4433 66.0503C39.8819 66.4891 40.5452 66.6102 41.1113 66.3589L43.3427 65.3674C44.7694 66.2281 46.3039 66.8631 47.9163 67.2646L48.7936 69.5412C49.0165 70.1206 49.5737 70.5008 50.1919 70.5008H53.8013C54.4221 70.5008 54.9767 70.1206 55.2004 69.5412L56.0778 67.2646C57.6901 66.8629 59.2219 66.2281 60.6529 65.3691L62.8818 66.3589C63.4478 66.6102 64.1119 66.4889 64.5507 66.0503L67.1005 63.4977C67.5393 63.0589 67.663 62.3974 67.4118 61.8288L66.4221 59.6016C67.2809 58.1706 67.9159 56.6369 68.3176 55.0246L70.5932 54.1471C71.1708 53.9241 71.5538 53.3688 71.5538 52.7479V49.1412C71.554 48.5206 71.1711 47.9659 70.5934 47.7421Z" fill="#231F20"/>
</svg>
