<svg width="104" height="104" viewBox="0 0 104 104" fill="none" xmlns="http://www.w3.org/2000/svg">
<path fill-rule="evenodd" clip-rule="evenodd" d="M100.613 32.652L97.575 38.9489C97.4932 39.118 97.3778 39.2687 97.2359 39.3918C97.094 39.5149 96.9285 39.6077 96.7495 39.6648C96.5705 39.7218 96.3818 39.7417 96.1949 39.7234C96.0079 39.7051 95.8266 39.6489 95.6621 39.5582L89.7727 36.3082C89.6073 36.2243 89.4605 36.108 89.3411 35.9662C89.2216 35.8243 89.1319 35.6599 89.0774 35.4827C89.0229 35.3054 89.0045 35.119 89.0236 34.9346C89.0426 34.7501 89.0986 34.5714 89.1882 34.409C89.2778 34.2467 89.3992 34.104 89.5451 33.9896C89.691 33.8751 89.8585 33.7912 90.0375 33.7429C90.2165 33.6945 90.4035 33.6828 90.5871 33.7082C90.7708 33.7337 90.9475 33.7958 91.1066 33.891L94.2469 35.6239C92.7628 30.4341 90.2204 25.6078 86.7798 21.4486C83.3391 17.2894 79.0748 13.8874 74.2552 11.4568C69.4356 9.02622 64.165 7.61959 58.7752 7.32546C53.3854 7.03134 47.9931 7.85609 42.9376 9.74781C42.5947 9.87683 42.2146 9.86437 41.8809 9.71315C41.5473 9.56194 41.2873 9.28437 41.1583 8.9415C41.0293 8.59863 41.0417 8.21855 41.1929 7.88487C41.3442 7.5512 41.6217 7.29125 41.9646 7.16223C47.3321 5.15133 53.0554 4.26414 58.7798 4.55563C64.5042 4.84712 70.1078 6.31108 75.2433 8.85679C80.3788 11.4025 84.9368 14.9757 88.6348 19.355C92.3328 23.7343 95.0921 28.8264 96.7417 34.3158L98.1258 31.4517C98.2915 31.133 98.5748 30.8914 98.9157 30.7781C99.2566 30.6648 99.6282 30.6887 99.9516 30.8449C100.275 31.001 100.525 31.277 100.649 31.6143C100.772 31.9516 100.759 32.3238 100.613 32.6518V32.652ZM98.0155 52.6421C97.1255 58.4837 95.0071 64.0701 91.8002 69.0331C88.5933 73.9961 84.3706 78.2228 79.4107 81.4346C74.4508 84.6463 68.8663 86.77 63.0257 87.6656C57.185 88.5613 51.2208 88.2085 45.5264 86.6306L47.0819 89.1451C47.1819 89.2994 47.2501 89.4721 47.2825 89.653C47.3149 89.834 47.3108 90.0196 47.2705 90.199C47.2302 90.3784 47.1545 90.5479 47.0479 90.6977C46.9412 90.8474 46.8057 90.9744 46.6494 91.0711C46.493 91.1678 46.3189 91.2323 46.1373 91.2608C45.9557 91.2894 45.7702 91.2814 45.5917 91.2373C45.4132 91.1932 45.2453 91.114 45.0979 91.0042C44.9504 90.8944 44.8264 90.7562 44.733 90.5979L41.1923 84.8779C41.0933 84.7183 41.0278 84.5402 41 84.3545C40.9721 84.1688 40.9824 83.9794 41.0302 83.7978C41.078 83.6162 41.1623 83.4463 41.278 83.2983C41.3938 83.1505 41.5384 83.0277 41.7032 82.9376L47.84 79.5881C47.9994 79.4967 48.1755 79.438 48.3579 79.4155C48.5403 79.393 48.7254 79.4071 48.9023 79.457C49.0792 79.5069 49.2443 79.5917 49.388 79.7062C49.5317 79.8208 49.6512 79.9629 49.7393 80.1242C49.8274 80.2855 49.8824 80.4628 49.9011 80.6456C49.9198 80.8284 49.9019 81.0132 49.8483 81.189C49.7947 81.3648 49.7066 81.5281 49.5891 81.6694C49.4716 81.8108 49.327 81.9272 49.164 82.012L45.8167 83.8401C51.1545 85.3851 56.7606 85.7733 62.2605 84.9787C67.7603 84.184 73.0273 82.2249 77.7095 79.2321C82.3917 76.2393 86.3813 72.2818 89.4118 67.6239C92.4424 62.9661 94.444 57.7151 95.2831 52.2219C95.3388 51.8595 95.5362 51.5341 95.8318 51.3173C96.1274 51.1005 96.4971 51.01 96.8594 51.0658C97.2218 51.1215 97.5471 51.3189 97.764 51.6145C97.9808 51.9101 98.0713 52.2798 98.0155 52.6421ZM27.0621 16.767L23.9196 16.921C23.5537 16.939 23.1956 16.811 22.9241 16.5651C22.6526 16.3191 22.4899 15.9754 22.4718 15.6095C22.4537 15.2436 22.5818 14.8855 22.8277 14.614C23.0737 14.3425 23.4174 14.1798 23.7833 14.1617L30.7667 13.8164C30.9542 13.8077 31.1415 13.8372 31.3173 13.903C31.493 13.9689 31.6536 14.0697 31.7892 14.1995C31.9248 14.3292 32.0327 14.4851 32.1063 14.6578C32.1799 14.8305 32.2176 15.0163 32.2172 15.2039L32.1821 21.9325C32.1801 22.2975 32.0337 22.6469 31.7749 22.9043C31.5161 23.1617 31.1659 23.3062 30.8008 23.3062H30.7929C30.6115 23.3052 30.4319 23.2685 30.2647 23.1982C30.0974 23.1278 29.9456 23.0252 29.818 22.8961C29.6904 22.7671 29.5895 22.6141 29.521 22.4461C29.4526 22.278 29.4179 22.0981 29.419 21.9166L29.4369 18.3067C24.3368 23.2642 20.6868 29.5199 18.8804 36.3991C17.0741 43.2784 17.1798 50.5203 19.1864 57.3439C19.2378 57.5178 19.2544 57.7002 19.2353 57.8806C19.2162 58.061 19.1617 58.2359 19.0749 58.3952C18.9881 58.5545 18.8707 58.6952 18.7295 58.8091C18.5883 58.923 18.4261 59.0079 18.252 59.059C18.1246 59.0973 17.9923 59.1166 17.8593 59.1163C17.5614 59.1156 17.2715 59.0188 17.0329 58.8403C16.7943 58.6618 16.6196 58.4111 16.5348 58.1255C14.4165 50.9214 14.2762 43.28 16.1285 36.003C17.9808 28.726 21.7574 22.0816 27.0621 16.767ZM38.5184 48.0393V58.4549H43.6721V48.0391L41.0964 46.0635L38.5176 48.0391L38.5184 48.0393ZM37.1371 61.2183H45.0533C45.4196 61.2183 45.771 61.0727 46.03 60.8137C46.289 60.5547 46.4346 60.2033 46.4346 59.837V47.3584C46.4345 47.1463 46.3857 46.9371 46.2919 46.7469C46.198 46.5567 46.0617 46.3906 45.8934 46.2616L41.9362 43.225C41.6949 43.0399 41.3994 42.9396 41.0953 42.9396C40.7913 42.9396 40.4957 43.0399 40.2545 43.225L36.2952 46.2607C36.1269 46.3898 35.9906 46.5559 35.8968 46.7461C35.8031 46.9363 35.7543 47.1455 35.7543 47.3576V59.8366C35.7543 60.018 35.79 60.1976 35.8594 60.3652C35.9288 60.5328 36.0306 60.685 36.1588 60.8133C36.2871 60.9416 36.4393 61.0433 36.6069 61.1127C36.7745 61.1821 36.9541 61.2179 37.1355 61.2179L37.1371 61.2183ZM52.7132 40.7581V58.4549H57.8687V40.7581L55.2908 38.7825L52.7132 40.7581ZM51.3319 61.2183H59.2507C59.6171 61.2183 59.9684 61.0727 60.2274 60.8137C60.4865 60.5547 60.632 60.2033 60.632 59.837V40.0766C60.632 39.8645 60.5832 39.6553 60.4894 39.4651C60.3956 39.2749 60.2593 39.1088 60.0911 38.9797L56.1318 35.944C55.8901 35.7597 55.5946 35.6598 55.2907 35.6598C54.9868 35.6598 54.6913 35.7597 54.4497 35.944L50.4904 38.9797C50.3221 39.1088 50.1859 39.2749 50.0921 39.4651C49.9984 39.6553 49.9496 39.8645 49.9496 40.0766V59.836C49.9501 60.2022 50.0957 60.5533 50.3547 60.8122C50.6136 61.0712 50.9647 61.2168 51.3309 61.2172L51.3319 61.2183ZM66.9116 32.3855V58.4549H72.0649V32.3855L69.488 30.4079L66.9106 32.3855H66.9116ZM65.5303 61.2183H73.4467C73.8131 61.2183 74.1644 61.0727 74.4234 60.8137C74.6825 60.5547 74.828 60.2033 74.828 59.837V31.7042C74.828 31.4921 74.7793 31.2829 74.6855 31.0927C74.5918 30.9025 74.4555 30.7364 74.2873 30.6073L70.3302 27.5716C70.0889 27.3864 69.7933 27.286 69.4892 27.286C69.185 27.286 68.8894 27.3864 68.6481 27.5716L64.6888 30.6073C64.5206 30.7364 64.3843 30.9025 64.2905 31.0927C64.1967 31.2829 64.1479 31.4921 64.1479 31.7042V59.837C64.1479 60.2033 64.2934 60.5547 64.5524 60.8137C64.8115 61.0727 65.1628 61.2183 65.5291 61.2183H65.5303ZM30.7787 80.35L15.4225 95.7062C13.7113 97.4174 10.3478 96.9453 8.07786 94.6778C5.80794 92.4103 5.33568 89.0448 7.04741 87.3316L22.398 71.9814C22.4251 71.9693 22.4548 71.9639 22.4845 71.9656C22.7234 71.9847 22.9462 72.0936 23.1081 72.2703L30.484 79.6482C30.7887 79.9502 30.8136 80.2817 30.7785 80.3508L30.7787 80.35ZM33.8083 68.9476C32.9426 68.0817 32.1281 67.1661 31.369 66.2054L26.1442 71.3985L31.3586 76.6131L36.5696 71.4023C35.6023 70.6382 34.6803 69.8184 33.8083 68.947V68.9476ZM35.7624 26.5213C30.4057 31.8903 27.3994 39.1661 27.4038 46.7504C27.4081 54.3346 30.4229 61.6069 35.7857 66.9698C41.1485 72.3327 48.4208 75.3475 56.0051 75.3519C63.5893 75.3564 70.8651 72.3501 76.2342 66.9935C87.3919 55.8338 87.3923 37.6791 76.2342 26.5215C70.8631 21.1625 63.5856 18.1528 55.9983 18.1528C48.411 18.1528 41.1335 21.1625 35.7624 26.5215V26.5213ZM38.8395 73.0412C44.8732 76.9745 52.0756 78.7143 59.2395 77.969C66.4034 77.2237 73.0934 74.0386 78.1883 68.9476C90.4237 56.7121 90.4237 36.8028 78.1883 24.5674C65.9529 12.332 46.0435 12.332 33.8081 24.5674C28.713 29.6653 25.5266 36.3608 24.7837 43.53C24.0408 50.6993 25.7867 57.9058 29.7283 63.9401L24.0461 69.587C22.8142 68.975 21.3714 69.1013 20.4508 70.0211L5.09457 85.379C2.27601 88.1955 2.73832 93.2446 6.12258 96.6294C8.01937 98.5262 10.4353 99.5053 12.6894 99.5053C14.4621 99.5053 16.1354 98.8994 17.3751 97.6599L32.7313 82.3036C33.6511 81.3839 33.777 79.9431 33.1673 78.7096L38.8395 73.0412Z" fill="#231F20"/>
<path fill-rule="evenodd" clip-rule="evenodd" d="M38.5176 48.0393V58.455H43.6713V48.0393L41.0956 46.0637L38.5176 48.0393Z" fill="#00ABEA"/>
<path fill-rule="evenodd" clip-rule="evenodd" d="M66.9111 32.3856V58.4551H72.0644V32.3856L69.4886 30.408L66.9111 32.3856Z" fill="#00ABEA"/>
<path fill-rule="evenodd" clip-rule="evenodd" d="M22.3985 71.9813L7.04892 87.3315C5.33779 89.0446 5.80985 92.4078 8.07937 94.6777C10.3489 96.9476 13.7128 97.4172 15.424 95.7061L30.7802 80.3499C30.8154 80.2808 30.79 79.9493 30.4857 79.6472L23.1098 72.2693C22.9479 72.0926 22.7251 71.9838 22.4862 71.9646C22.456 71.963 22.4259 71.9687 22.3985 71.9813Z" fill="#00ABEA"/>
</svg>
