<svg xmlns="http://www.w3.org/2000/svg" width="40" height="40" viewBox="0 0 40 40" fill="none">
  <path fill-rule="evenodd" clip-rule="evenodd" d="M29.3344 30.1612C29.3343 30.3409 29.2629 30.5133 29.1357 30.6404C29.0086 30.7675 28.8362 30.8389 28.6564 30.8389H10.6974C10.5176 30.8389 10.3453 30.7675 10.2182 30.6404C10.0911 30.5133 10.0196 30.3409 10.0196 30.1612C10.0196 29.9814 10.0911 29.809 10.2182 29.6819C10.3453 29.5548 10.5176 29.4834 10.6974 29.4834H28.6568C28.8365 29.4836 29.0088 29.555 29.1358 29.6821C29.2629 29.8092 29.3343 29.9815 29.3344 30.1612ZM29.3344 25.1912C29.3344 25.371 29.2629 25.5434 29.1358 25.6705C29.0086 25.7976 28.8362 25.869 28.6564 25.869H10.6974C10.6078 25.8699 10.5189 25.8531 10.4358 25.8195C10.3527 25.7859 10.2772 25.7361 10.2135 25.6731C10.1497 25.6101 10.0992 25.535 10.0647 25.4523C10.0301 25.3696 10.0124 25.2809 10.0124 25.1913C10.0124 25.1017 10.0301 25.013 10.0647 24.9303C10.0992 24.8476 10.1497 24.7725 10.2135 24.7095C10.2772 24.6465 10.3527 24.5967 10.4358 24.5631C10.5189 24.5295 10.6078 24.5126 10.6974 24.5136H28.6568C28.8365 24.5137 29.0088 24.5852 29.1358 24.7122C29.2629 24.8393 29.3343 25.0116 29.3344 25.1913V25.1912ZM29.3344 20.2214C29.3343 20.4012 29.2629 20.5735 29.1357 20.7006C29.0086 20.8277 28.8362 20.8991 28.6564 20.8991H10.6974C10.6084 20.8991 10.5203 20.8816 10.438 20.8476C10.3558 20.8135 10.2811 20.7636 10.2182 20.7006C10.1552 20.6377 10.1053 20.563 10.0712 20.4808C10.0372 20.3985 10.0196 20.3104 10.0196 20.2214C10.0196 20.1324 10.0372 20.0443 10.0712 19.962C10.1053 19.8798 10.1552 19.8051 10.2182 19.7422C10.2811 19.6792 10.3558 19.6293 10.438 19.5953C10.5203 19.5612 10.6084 19.5437 10.6974 19.5437H28.6568C28.8365 19.5438 29.0088 19.6152 29.1358 19.7423C29.2629 19.8694 29.3343 20.0417 29.3344 20.2214ZM29.3344 15.2515C29.3344 15.4313 29.2629 15.6036 29.1358 15.7307C29.0086 15.8578 28.8362 15.9292 28.6564 15.9292H10.6974C10.6078 15.9302 10.5189 15.9134 10.4358 15.8797C10.3527 15.8461 10.2772 15.7963 10.2135 15.7333C10.1497 15.6703 10.0992 15.5953 10.0647 15.5126C10.0301 15.4299 10.0124 15.3411 10.0124 15.2515C10.0124 15.1619 10.0301 15.0732 10.0647 14.9905C10.0992 14.9078 10.1497 14.8328 10.2135 14.7697C10.2772 14.7067 10.3527 14.6569 10.4358 14.6233C10.5189 14.5897 10.6078 14.5729 10.6974 14.5738H28.6568C28.8365 14.5739 29.0088 14.6454 29.1358 14.7724C29.2629 14.8995 29.3343 15.0718 29.3344 15.2515ZM10.0196 10.2812C10.0196 10.1923 10.0371 10.1042 10.0712 10.0219C10.1052 9.93972 10.1551 9.86501 10.218 9.80208C10.2809 9.73916 10.3556 9.68924 10.4378 9.65518C10.5201 9.62112 10.6082 9.60359 10.6971 9.60359H19.8841C20.0638 9.60359 20.2362 9.675 20.3633 9.8021C20.4904 9.9292 20.5618 10.1016 20.5618 10.2813C20.5618 10.4611 20.4904 10.6335 20.3633 10.7606C20.2362 10.8877 20.0638 10.9591 19.8841 10.9591H10.6974C10.6084 10.9591 10.5202 10.9416 10.438 10.9075C10.3558 10.8735 10.2811 10.8236 10.2181 10.7607C10.1552 10.6977 10.1053 10.623 10.0712 10.5408C10.0371 10.4585 10.0196 10.3704 10.0196 10.2814V10.2812ZM31.7688 37.3946C32.5032 37.3946 33.1025 36.7086 33.1025 35.8652V13.4857H23.8984C23.7191 13.4856 23.5471 13.4145 23.42 13.2879C23.293 13.1613 23.2213 12.9896 23.2207 12.8102L23.1894 2.60547H8.23105C7.49535 2.60547 6.89746 3.29141 6.89746 4.13484V35.8652C6.89746 36.709 7.49551 37.3946 8.23121 37.3946H31.7688ZM32.2454 12.1303H24.5745L24.5481 3.68375L32.2455 12.1303H32.2454ZM34.2805 12.3516L24.3657 1.47133C24.3022 1.40169 24.2249 1.34604 24.1387 1.30793C24.0525 1.26983 23.9593 1.2501 23.865 1.25H8.23121C6.7484 1.25 5.54199 2.54445 5.54199 4.13484V35.8652C5.54199 37.4555 6.74824 38.75 8.23098 38.75H31.7688C33.2516 38.75 34.4576 37.4555 34.4576 35.8652V12.808C34.4576 12.6391 34.3945 12.4763 34.2807 12.3516L34.2805 12.3516Z" fill="#231F20"/>
  <path fill-rule="evenodd" clip-rule="evenodd" d="M24.5743 12.1304H32.2453L24.5479 3.68384L24.5743 12.1304Z" fill="#008ECB"/>
</svg>