<svg xmlns="http://www.w3.org/2000/svg" width="40" height="40" viewBox="0 0 40 40" fill="none">
  <path fill-rule="evenodd" clip-rule="evenodd" d="M13.7614 22.9066C13.9277 22.9066 14.0903 22.956 14.2287 23.0484C14.367 23.1408 14.4748 23.2722 14.5384 23.4259C14.6021 23.5796 14.6188 23.7487 14.5863 23.9118C14.5538 24.075 14.4737 24.2248 14.3561 24.3425C14.2385 24.4601 14.0886 24.5402 13.9255 24.5727C13.7623 24.6051 13.5932 24.5885 13.4395 24.5248C13.2858 24.4611 13.1544 24.3533 13.062 24.215C12.9696 24.0767 12.9203 23.9141 12.9203 23.7477C12.9205 23.5247 13.0092 23.3109 13.1669 23.1533C13.3246 22.9956 13.5384 22.9069 13.7614 22.9066ZM13.7614 25.6516C14.1379 25.6515 14.506 25.5399 14.8191 25.3307C15.1321 25.1215 15.3761 24.8241 15.5202 24.4762C15.6643 24.1284 15.702 23.7456 15.6285 23.3763C15.5551 23.007 15.3737 22.6677 15.1075 22.4015C14.8412 22.1353 14.502 21.9539 14.1327 21.8805C13.7634 21.807 13.3806 21.8447 13.0327 21.9888C12.6848 22.1329 12.3875 22.377 12.1783 22.69C11.9691 23.0031 11.8575 23.3712 11.8575 23.7477C11.8581 24.2525 12.0589 24.7364 12.4158 25.0933C12.7727 25.4502 13.2566 25.6509 13.7614 25.6516ZM19.9999 23.2285C20.1662 23.2285 20.3289 23.2778 20.4672 23.3703C20.6055 23.4627 20.7133 23.594 20.777 23.7477C20.8406 23.9014 20.8573 24.0705 20.8248 24.2337C20.7924 24.3969 20.7123 24.5467 20.5946 24.6644C20.477 24.782 20.3271 24.8621 20.164 24.8945C20.0008 24.927 19.8317 24.9103 19.678 24.8467C19.5243 24.783 19.393 24.6752 19.3005 24.5369C19.2081 24.3986 19.1588 24.236 19.1588 24.0696C19.159 23.8466 19.2477 23.6328 19.4054 23.4751C19.5631 23.3174 19.7769 23.2287 19.9999 23.2285ZM19.9999 25.9734C20.3764 25.9734 20.7445 25.8618 21.0576 25.6525C21.3706 25.4433 21.6147 25.146 21.7587 24.7981C21.9028 24.4502 21.9405 24.0674 21.867 23.6981C21.7936 23.3288 21.6122 22.9896 21.346 22.7234C21.0797 22.4571 20.7405 22.2758 20.3712 22.2024C20.0019 22.1289 19.6191 22.1666 19.2712 22.3107C18.9233 22.4548 18.626 22.6988 18.4168 23.0119C18.2076 23.325 18.096 23.6931 18.096 24.0696C18.0966 24.5744 18.2974 25.0582 18.6543 25.4151C19.0112 25.772 19.4951 25.9728 19.9999 25.9734ZM26.2382 22.915C26.4046 22.915 26.5672 22.9644 26.7055 23.0568C26.8438 23.1492 26.9516 23.2806 27.0153 23.4343C27.0789 23.588 27.0956 23.7571 27.0631 23.9202C27.0306 24.0834 26.9505 24.2332 26.8329 24.3509C26.7152 24.4685 26.5654 24.5486 26.4022 24.581C26.2391 24.6135 26.07 24.5968 25.9163 24.5332C25.7626 24.4695 25.6312 24.3617 25.5388 24.2234C25.4464 24.0851 25.3971 23.9224 25.3971 23.7561C25.3973 23.5331 25.486 23.3193 25.6437 23.1616C25.8014 23.0039 26.0152 22.9152 26.2382 22.915ZM26.2382 25.6599C26.6148 25.6599 26.9829 25.5483 27.296 25.3391C27.6091 25.1298 27.8531 24.8325 27.9972 24.4846C28.1413 24.1367 28.179 23.7539 28.1056 23.3846C28.0321 23.0152 27.8508 22.676 27.5845 22.4097C27.3182 22.1435 26.979 21.9621 26.6096 21.8887C26.2403 21.8152 25.8575 21.8529 25.5096 21.9971C25.1617 22.1412 24.8644 22.3852 24.6552 22.6983C24.446 23.0114 24.3343 23.3795 24.3343 23.7561C24.335 24.2608 24.5358 24.7447 24.8927 25.1016C25.2496 25.4585 25.7335 25.6593 26.2382 25.6599ZM13.7617 34.1187C13.5952 34.1187 13.4325 34.0695 13.2941 33.9771C13.1557 33.8847 13.0478 33.7533 12.984 33.5996C12.9202 33.4458 12.9035 33.2767 12.9359 33.1134C12.9683 32.9502 13.0484 32.8002 13.166 32.6824C13.2836 32.5647 13.4335 32.4845 13.5967 32.452C13.76 32.4194 13.9292 32.436 14.083 32.4996C14.2367 32.5632 14.3682 32.671 14.4607 32.8094C14.5533 32.9477 14.6027 33.1104 14.6028 33.2768C14.6026 33.4999 14.5139 33.7138 14.3562 33.8716C14.1986 34.0294 13.9848 34.1183 13.7617 34.1187ZM13.7617 31.373C13.385 31.3729 13.0168 31.4845 12.7036 31.6937C12.3904 31.9029 12.1463 32.2003 12.0021 32.5483C11.8579 32.8963 11.8202 33.2792 11.8936 33.6486C11.9671 34.018 12.1485 34.3573 12.4148 34.6237C12.6811 34.89 13.0205 35.0714 13.3899 35.1448C13.7593 35.2183 14.1422 35.1806 14.4902 35.0364C14.8381 34.8922 15.1355 34.6481 15.3448 34.3349C15.554 34.0217 15.6656 33.6535 15.6655 33.2768C15.6649 32.7721 15.4641 32.2882 15.1072 31.9313C14.7503 31.5744 14.2664 31.3736 13.7617 31.373ZM19.9999 34.4405C19.8335 34.4405 19.6709 34.3912 19.5326 34.2988C19.3943 34.2064 19.2865 34.075 19.2228 33.9213C19.1592 33.7676 19.1425 33.5985 19.175 33.4354C19.2074 33.2722 19.2875 33.1223 19.4051 33.0047C19.5228 32.8871 19.6726 32.807 19.8358 32.7745C19.9989 32.7421 20.1681 32.7587 20.3218 32.8224C20.4754 32.886 20.6068 32.9938 20.6992 33.1322C20.7916 33.2705 20.841 33.4331 20.841 33.5995C20.8407 33.8225 20.7521 34.0363 20.5944 34.1939C20.4367 34.3516 20.2229 34.4403 19.9999 34.4405ZM19.9999 31.6955C19.6233 31.6955 19.2552 31.8072 18.9421 32.0164C18.629 32.2256 18.385 32.5229 18.2408 32.8708C18.0967 33.2187 18.059 33.6015 18.1325 33.9708C18.2059 34.3402 18.3872 34.6794 18.6535 34.9457C18.9198 35.212 19.259 35.3933 19.6283 35.4668C19.9977 35.5402 20.3805 35.5025 20.7284 35.3584C21.0763 35.2143 21.3736 34.9703 21.5828 34.6572C21.792 34.3441 21.9037 33.976 21.9037 33.5995C21.9032 33.0947 21.7024 32.6107 21.3455 32.2537C20.9886 31.8968 20.5047 31.696 19.9999 31.6953V31.6955ZM26.2382 34.127C26.0719 34.127 25.9093 34.0777 25.771 33.9853C25.6326 33.8929 25.5248 33.7615 25.4612 33.6078C25.3975 33.4541 25.3809 33.285 25.4133 33.1218C25.4458 32.9587 25.5259 32.8088 25.6435 32.6912C25.7611 32.5736 25.911 32.4935 26.0742 32.461C26.2373 32.4286 26.4064 32.4452 26.5601 32.5089C26.7138 32.5725 26.8452 32.6803 26.9376 32.8187C27.03 32.957 27.0793 33.1196 27.0793 33.2859C27.0791 33.5089 26.9904 33.7227 26.8327 33.8804C26.675 34.0381 26.4612 34.1268 26.2382 34.127ZM26.2382 31.3821C25.8617 31.3821 25.4936 31.4938 25.1805 31.703C24.8674 31.9122 24.6234 32.2095 24.4793 32.5574C24.3352 32.9053 24.2975 33.288 24.371 33.6574C24.4445 34.0267 24.6258 34.3659 24.892 34.6321C25.1583 34.8984 25.4975 35.0797 25.8668 35.1532C26.2361 35.2266 26.6189 35.1889 26.9668 35.0448C27.3147 34.9007 27.612 34.6567 27.8212 34.3436C28.0304 34.0306 28.1421 33.6625 28.1421 33.2859C28.1414 32.7812 27.9406 32.2973 27.5837 31.9404C27.2268 31.5835 26.743 31.3828 26.2382 31.3821ZM13.7614 15.5805C13.595 15.5805 13.4324 15.5311 13.2941 15.4387C13.1558 15.3463 13.048 15.2149 12.9843 15.0612C12.9206 14.9076 12.904 14.7384 12.9364 14.5753C12.9689 14.4121 13.049 14.2623 13.1666 14.1446C13.2843 14.027 13.4341 13.9469 13.5973 13.9144C13.7604 13.882 13.9295 13.8986 14.0832 13.9623C14.2369 14.026 14.3683 14.1338 14.4607 14.2721C14.5531 14.4104 14.6025 14.573 14.6025 14.7394C14.6022 14.9624 14.5135 15.1762 14.3559 15.3339C14.1982 15.4916 13.9844 15.5802 13.7614 15.5805ZM13.7614 12.8355C13.3848 12.8355 13.0167 12.9472 12.7037 13.1564C12.3906 13.3656 12.1466 13.6629 12.0025 14.0108C11.8584 14.3587 11.8207 14.7415 11.8941 15.1108C11.9676 15.4801 12.1489 15.8193 12.4152 16.0856C12.6814 16.3518 13.0206 16.5332 13.3899 16.6066C13.7593 16.6801 14.1421 16.6424 14.4899 16.4983C14.8378 16.3542 15.1351 16.1102 15.3443 15.7971C15.5535 15.484 15.6652 15.1159 15.6652 14.7394C15.6645 14.2347 15.4636 13.7509 15.1067 13.3941C14.7498 13.0373 14.266 12.8366 13.7614 12.8359V12.8355ZM19.9999 15.9023C19.8335 15.9023 19.6709 15.853 19.5326 15.7606C19.3943 15.6682 19.2865 15.5368 19.2228 15.3831C19.1592 15.2294 19.1425 15.0603 19.175 14.8972C19.2074 14.734 19.2875 14.5841 19.4051 14.4665C19.5228 14.3489 19.6726 14.2688 19.8358 14.2363C19.9989 14.2039 20.1681 14.2205 20.3218 14.2842C20.4754 14.3478 20.6068 14.4556 20.6992 14.594C20.7916 14.7323 20.841 14.8949 20.841 15.0612C20.8407 15.2843 20.7521 15.4981 20.5944 15.6557C20.4367 15.8134 20.2229 15.9021 19.9999 15.9023ZM19.9999 13.1574C19.6233 13.1574 19.2553 13.2691 18.9422 13.4783C18.6291 13.6875 18.3851 13.9848 18.241 14.3327C18.0969 14.6806 18.0592 15.0634 18.1326 15.4327C18.2061 15.802 18.3874 16.1412 18.6537 16.4075C18.9199 16.6737 19.2592 16.855 19.6285 16.9285C19.9978 17.002 20.3806 16.9643 20.7284 16.8202C21.0763 16.6761 21.3737 16.432 21.5829 16.119C21.7921 15.8059 21.9037 15.4378 21.9037 15.0612C21.9031 14.5565 21.7023 14.0726 21.3454 13.7157C20.9885 13.3588 20.5046 13.1581 19.9999 13.1574ZM26.2382 15.5888C26.0719 15.5888 25.9093 15.5395 25.771 15.4471C25.6326 15.3547 25.5248 15.2233 25.4612 15.0696C25.3975 14.9159 25.3809 14.7468 25.4133 14.5836C25.4458 14.4205 25.5259 14.2706 25.6435 14.153C25.7611 14.0354 25.911 13.9553 26.0742 13.9228C26.2373 13.8903 26.4064 13.907 26.5601 13.9707C26.7138 14.0343 26.8452 14.1421 26.9376 14.2804C27.03 14.4188 27.0793 14.5814 27.0793 14.7477C27.0791 14.9707 26.9904 15.1845 26.8327 15.3422C26.675 15.4999 26.4612 15.5886 26.2382 15.5888ZM26.2382 12.8439C25.8617 12.8439 25.4936 12.9556 25.1805 13.1648C24.8674 13.374 24.6234 13.6713 24.4793 14.0192C24.3352 14.3671 24.2975 14.7498 24.371 15.1192C24.4445 15.4885 24.6258 15.8277 24.892 16.0939C25.1583 16.3602 25.4975 16.5415 25.8668 16.615C26.2361 16.6884 26.6189 16.6507 26.9668 16.5066C27.3147 16.3625 27.612 16.1185 27.8212 15.8054C28.0304 15.4924 28.1421 15.1243 28.1421 14.7477C28.1415 14.243 27.9407 13.7591 27.5838 13.4022C27.2269 13.0452 26.7431 12.8444 26.2383 12.8438L26.2382 12.8439ZM31.0905 36.6594C34.0662 35.9845 35.7719 35.0357 35.7719 34.0556V26.1728C34.864 26.8841 33.3797 27.4739 31.3188 27.9423C28.3279 28.6209 24.3122 28.9951 20.0104 28.9951H19.9999C15.6985 28.9951 11.6826 28.6224 8.68957 27.9445C6.62707 27.4777 5.13988 26.8871 4.22801 26.1728V34.0564C4.22801 35.0357 5.9341 35.9845 8.90887 36.6594C11.828 37.3221 15.7668 37.6875 19.9999 37.6875C24.2329 37.6875 28.171 37.3221 31.0905 36.6594ZM19.9999 2.3125C29.7719 2.3125 35.7718 4.47375 35.7718 6.02344C35.7718 7.57312 29.7719 9.73438 19.9999 9.73438C10.2279 9.73438 4.22777 7.57344 4.22777 6.02344C4.22777 4.47344 10.228 2.3125 19.9999 2.3125ZM35.7719 15.3027V7.79734C34.738 8.59422 33.1143 9.15992 31.6621 9.53719C28.5407 10.3502 24.399 10.7973 20 10.7973C15.6009 10.7973 11.4596 10.3502 8.3377 9.53719C6.8852 9.15992 5.26199 8.59438 4.22777 7.79734V15.2981C4.22781 15.2986 4.22781 15.2991 4.22777 15.2996C4.23902 16.2652 5.91301 17.2041 8.82035 17.876C11.6744 18.5349 15.5424 18.9077 19.7118 18.9252C23.9199 18.9403 28.0161 18.5782 30.953 17.9276C33.9955 17.2535 35.7521 16.297 35.7718 15.3041L35.7719 15.3027ZM4.22777 17.1632V24.3047C4.23496 25.2847 5.94652 26.2336 8.92402 26.9077C11.8422 27.5688 15.7756 27.9324 19.9996 27.9324H20.0104C24.235 27.9324 28.1679 27.5673 31.0837 26.9062C34.0564 26.232 35.7651 25.2839 35.7719 24.3046V17.1617C34.8443 17.8897 33.3147 18.4909 31.1831 18.9654C28.1998 19.6266 24.2426 19.9879 20.0122 19.9879C19.9107 19.9879 19.8091 19.9879 19.7075 19.9871C15.4614 19.9704 11.5101 19.5878 8.58137 18.9114C6.57512 18.4479 5.12392 17.8651 4.22777 17.1632ZM36.8347 6.02344C36.8347 4.23195 34.0222 3.12359 31.6621 2.50953C28.5407 1.69711 24.3989 1.25 19.9999 1.25C15.6008 1.25 11.4595 1.69711 8.3377 2.50937C5.97832 3.12344 3.16504 4.2318 3.16504 6.02328V6.03164C3.16504 6.03164 3.16504 6.03617 3.16504 6.03945V34.0559V34.0566C3.16504 35.6426 5.01832 36.8669 8.6734 37.6966C11.6677 38.3758 15.69 38.75 19.9999 38.75C24.3097 38.75 28.3323 38.3758 31.3262 37.6963C34.9825 36.8666 36.835 35.6416 36.835 34.0557V6.04297C36.835 6.04 36.835 6.03695 36.835 6.03391C36.835 6.03086 36.8346 6.02711 36.8347 6.02344Z" fill="#231F20"/>
  <path fill-rule="evenodd" clip-rule="evenodd" d="M19.9996 9.73438C29.7716 9.73438 35.7716 7.57312 35.7716 6.02344C35.7716 4.47375 29.7718 2.3125 19.9996 2.3125C10.2275 2.3125 4.22754 4.47391 4.22754 6.02344C4.22754 7.57297 10.2278 9.73438 19.9996 9.73438Z" fill="#00ABEA"/>
  <path fill-rule="evenodd" clip-rule="evenodd" d="M13.761 15.5804C13.9274 15.5804 14.09 15.5311 14.2283 15.4386C14.3666 15.3462 14.4744 15.2148 14.5381 15.0612C14.6017 14.9075 14.6184 14.7384 14.5859 14.5752C14.5535 14.412 14.4734 14.2622 14.3558 14.1445C14.2381 14.0269 14.0883 13.9468 13.9251 13.9144C13.7619 13.8819 13.5928 13.8986 13.4391 13.9622C13.2855 14.0259 13.1541 14.1337 13.0617 14.272C12.9693 14.4103 12.9199 14.5729 12.9199 14.7393C12.9202 14.9623 13.0089 15.1761 13.1665 15.3338C13.3242 15.4914 13.538 15.5801 13.761 15.5804Z" fill="#00ABEA"/>
  <path fill-rule="evenodd" clip-rule="evenodd" d="M19.1587 15.0613C19.1587 15.2277 19.208 15.3903 19.3004 15.5286C19.3929 15.6669 19.5242 15.7747 19.6779 15.8384C19.8316 15.902 20.0007 15.9187 20.1639 15.8862C20.3271 15.8538 20.4769 15.7737 20.5946 15.656C20.7122 15.5384 20.7923 15.3885 20.8247 15.2253C20.8572 15.0622 20.8405 14.8931 20.7768 14.7394C20.7132 14.5857 20.6053 14.4543 20.467 14.3619C20.3287 14.2695 20.1661 14.2202 19.9997 14.2202C19.7767 14.2205 19.5629 14.3092 19.4053 14.4668C19.2476 14.6245 19.1589 14.8383 19.1587 15.0613Z" fill="#00ABEA"/>
  <path fill-rule="evenodd" clip-rule="evenodd" d="M25.397 14.7478C25.397 14.9142 25.4463 15.0768 25.5387 15.2152C25.6311 15.3535 25.7625 15.4614 25.9162 15.525C26.0699 15.5887 26.239 15.6054 26.4022 15.5729C26.5654 15.5405 26.7153 15.4604 26.8329 15.3427C26.9506 15.2251 27.0307 15.0752 27.0631 14.912C27.0956 14.7489 27.079 14.5797 27.0153 14.426C26.9516 14.2723 26.8438 14.1409 26.7055 14.0485C26.5672 13.9561 26.4045 13.9067 26.2381 13.9067C26.0151 13.907 25.8013 13.9957 25.6436 14.1533C25.4859 14.311 25.3972 14.5248 25.397 14.7478Z" fill="#00ABEA"/>
  <path fill-rule="evenodd" clip-rule="evenodd" d="M26.2381 22.915C26.0717 22.915 25.9091 22.9644 25.7708 23.0568C25.6325 23.1492 25.5247 23.2806 25.461 23.4343C25.3973 23.5879 25.3807 23.7571 25.4131 23.9202C25.4456 24.0834 25.5257 24.2332 25.6433 24.3509C25.761 24.4685 25.9108 24.5486 26.074 24.5811C26.2371 24.6135 26.4063 24.5969 26.5599 24.5332C26.7136 24.4695 26.845 24.3617 26.9374 24.2234C27.0298 24.0851 27.0792 23.9225 27.0792 23.7561C27.0789 23.5331 26.9902 23.3193 26.8325 23.1617C26.6749 23.004 26.4611 22.9153 26.2381 22.915Z" fill="#00ABEA"/>
  <path fill-rule="evenodd" clip-rule="evenodd" d="M20.8409 24.0696C20.8409 23.9033 20.7916 23.7406 20.6991 23.6023C20.6067 23.464 20.4754 23.3562 20.3217 23.2925C20.168 23.2289 19.9989 23.2122 19.8357 23.2447C19.6726 23.2771 19.5227 23.3572 19.4051 23.4748C19.2874 23.5925 19.2073 23.7423 19.1749 23.9055C19.1424 24.0686 19.159 24.2377 19.2227 24.3914C19.2863 24.5451 19.3941 24.6765 19.5324 24.7689C19.6707 24.8613 19.8334 24.9107 19.9997 24.9107C20.2227 24.9105 20.4365 24.8218 20.5942 24.6641C20.752 24.5064 20.8407 24.2926 20.8409 24.0696Z" fill="#00ABEA"/>
  <path fill-rule="evenodd" clip-rule="evenodd" d="M14.6021 23.7478C14.6021 23.5815 14.5528 23.4189 14.4604 23.2805C14.3679 23.1422 14.2366 23.0344 14.0829 22.9708C13.9292 22.9071 13.7601 22.8904 13.5969 22.9229C13.4338 22.9554 13.2839 23.0355 13.1663 23.1531C13.0486 23.2707 12.9685 23.4206 12.9361 23.5837C12.9036 23.7469 12.9203 23.916 12.9839 24.0697C13.0476 24.2234 13.1554 24.3548 13.2937 24.4472C13.432 24.5396 13.5947 24.5889 13.761 24.5889C13.984 24.5887 14.1978 24.5 14.3555 24.3423C14.5132 24.1846 14.6019 23.9708 14.6021 23.7478Z" fill="#00ABEA"/>
  <path fill-rule="evenodd" clip-rule="evenodd" d="M14.6021 33.2768C14.602 33.1105 14.5525 32.948 14.46 32.8098C14.3675 32.6715 14.2361 32.5639 14.0823 32.5003C13.9286 32.4368 13.7596 32.4202 13.5964 32.4528C13.4333 32.4853 13.2835 32.5655 13.166 32.6832C13.0484 32.8008 12.9684 32.9507 12.936 33.1138C12.9036 33.277 12.9203 33.446 12.984 33.5997C13.0477 33.7533 13.1555 33.8846 13.2938 33.977C13.4321 34.0694 13.5947 34.1187 13.761 34.1187C13.9841 34.1185 14.1981 34.0297 14.3558 33.8718C14.5135 33.714 14.6021 33.5 14.6021 33.2768Z" fill="#00ABEA"/>
  <path fill-rule="evenodd" clip-rule="evenodd" d="M19.9998 32.7583C19.8334 32.7583 19.6708 32.8076 19.5325 32.9001C19.3942 32.9925 19.2864 33.1238 19.2227 33.2775C19.1591 33.4312 19.1424 33.6003 19.1749 33.7635C19.2073 33.9266 19.2874 34.0765 19.405 34.1941C19.5227 34.3118 19.6725 34.3919 19.8357 34.4243C19.9989 34.4568 20.168 34.4401 20.3217 34.3765C20.4753 34.3128 20.6067 34.205 20.6991 34.0667C20.7915 33.9284 20.8409 33.7657 20.8409 33.5994C20.8407 33.3764 20.752 33.1626 20.5943 33.0049C20.4366 32.8472 20.2228 32.7585 19.9998 32.7583Z" fill="#00ABEA"/>
  <path fill-rule="evenodd" clip-rule="evenodd" d="M26.2381 32.4448C26.0717 32.4448 25.9091 32.4942 25.7708 32.5866C25.6325 32.679 25.5247 32.8104 25.461 32.964C25.3973 33.1177 25.3807 33.2869 25.4131 33.45C25.4456 33.6132 25.5257 33.763 25.6433 33.8807C25.761 33.9983 25.9108 34.0784 26.074 34.1109C26.2371 34.1433 26.4063 34.1266 26.5599 34.063C26.7136 33.9993 26.845 33.8915 26.9374 33.7532C27.0298 33.6149 27.0792 33.4523 27.0792 33.2859C27.0789 33.0629 26.9902 32.8491 26.8325 32.6914C26.6749 32.5338 26.4611 32.4451 26.2381 32.4448Z" fill="#00ABEA"/>
</svg>