<svg width="104" height="104" viewBox="0 0 104 104" fill="none" xmlns="http://www.w3.org/2000/svg">
<path fill-rule="evenodd" clip-rule="evenodd" d="M61.3003 44.5987V44.6775C61.3003 45.0441 61.1547 45.3956 60.8956 45.6547C60.6364 45.9139 60.2849 46.0595 59.9184 46.0595C59.5519 46.0595 59.2004 45.9139 58.9412 45.6547C58.682 45.3956 58.5364 45.0441 58.5364 44.6775V44.5987C58.5364 44.2322 58.682 43.8807 58.9412 43.6215C59.2004 43.3624 59.5519 43.2168 59.9184 43.2168C60.2849 43.2168 60.6364 43.3624 60.8956 43.6215C61.1547 43.8807 61.3003 44.2322 61.3003 44.5987ZM53.385 44.9954V45.0743C53.385 45.4406 53.2394 45.7919 52.9804 46.0509C52.7214 46.31 52.37 46.4555 52.0037 46.4555C51.6374 46.4555 51.2861 46.31 51.027 46.0509C50.768 45.7919 50.6225 45.4406 50.6225 45.0743V44.9954C50.6225 44.6291 50.768 44.2778 51.027 44.0187C51.2861 43.7597 51.6374 43.6142 52.0037 43.6142C52.37 43.6142 52.7214 43.7597 52.9804 44.0187C53.2394 44.2778 53.385 44.6291 53.385 44.9954ZM45.4706 44.6658V44.7448C45.4706 45.1111 45.3251 45.4624 45.0661 45.7215C44.807 45.9805 44.4557 46.126 44.0894 46.126C43.723 46.126 43.3717 45.9805 43.1127 45.7215C42.8536 45.4624 42.7081 45.1111 42.7081 44.7448V44.6658C42.7081 44.2994 42.8536 43.9481 43.1127 43.6891C43.3717 43.43 43.723 43.2845 44.0894 43.2845C44.4557 43.2845 44.807 43.43 45.0661 43.6891C45.3251 43.9481 45.4706 44.2994 45.4706 44.6658ZM58.5362 32.5888V32.5075C58.5362 32.1412 58.6817 31.7899 58.9408 31.5308C59.1998 31.2718 59.5511 31.1263 59.9175 31.1263C60.2838 31.1263 60.6351 31.2718 60.8942 31.5308C61.1532 31.7899 61.2987 32.1412 61.2987 32.5075V32.5888C61.2987 32.9553 61.1531 33.3068 60.894 33.566C60.6348 33.8251 60.2833 33.9707 59.9168 33.9707C59.5502 33.9707 59.1987 33.8251 58.9396 33.566C58.6804 33.3068 58.5348 32.9553 58.5348 32.5888H58.5362ZM50.6225 32.9855V32.9062C50.6225 32.5399 50.768 32.1886 51.027 31.9296C51.2861 31.6705 51.6374 31.525 52.0037 31.525C52.37 31.525 52.7214 31.6705 52.9804 31.9296C53.2394 32.1886 53.385 32.5399 53.385 32.9062V32.9851C53.385 33.3514 53.2394 33.7027 52.9804 33.9618C52.7214 34.2208 52.37 34.3663 52.0037 34.3663C51.6374 34.3663 51.2861 34.2208 51.027 33.9618C50.768 33.7027 50.6225 33.3514 50.6225 32.9851V32.9855ZM42.7081 32.656V32.577C42.7081 32.2107 42.8536 31.8593 43.1127 31.6003C43.3717 31.3413 43.723 31.1957 44.0894 31.1957C44.4557 31.1957 44.807 31.3413 45.0661 31.6003C45.3251 31.8593 45.4706 32.2107 45.4706 32.577V32.656C45.4706 33.0223 45.3251 33.3737 45.0661 33.6327C44.807 33.8917 44.4557 34.0372 44.0894 34.0372C43.723 34.0372 43.3717 33.8917 43.1127 33.6327C42.8536 33.3737 42.7081 33.0223 42.7081 32.656ZM61.3007 21.0013V21.0803C61.3007 21.4468 61.1552 21.7983 60.896 22.0575C60.6368 22.3167 60.2853 22.4623 59.9188 22.4623C59.5523 22.4623 59.2008 22.3167 58.9416 22.0575C58.6824 21.7983 58.5368 21.4468 58.5368 21.0803V21.0013C58.5368 20.6348 58.6824 20.2833 58.9416 20.0241C59.2008 19.7649 59.5523 19.6193 59.9188 19.6193C60.2853 19.6193 60.6368 19.7649 60.896 20.0241C61.1552 20.2833 61.3007 20.6348 61.3007 21.0013ZM53.385 21.4V21.479C53.385 21.8454 53.2394 22.1967 52.9804 22.4557C52.7214 22.7148 52.37 22.8603 52.0037 22.8603C51.6374 22.8603 51.2861 22.7148 51.027 22.4557C50.768 22.1967 50.6225 21.8454 50.6225 21.479V21.4C50.6225 21.0337 50.768 20.6824 51.027 20.4233C51.2861 20.1643 51.6374 20.0188 52.0037 20.0188C52.37 20.0188 52.7214 20.1643 52.9804 20.4233C53.2394 20.6824 53.385 21.0337 53.385 21.4ZM45.4706 21.0704V21.1494C45.4706 21.5157 45.3251 21.867 45.0661 22.1261C44.807 22.3851 44.4557 22.5306 44.0894 22.5306C43.723 22.5306 43.3717 22.3851 43.1127 22.1261C42.8536 21.867 42.7081 21.5157 42.7081 21.1494V21.0704C42.7081 20.704 42.8536 20.3527 43.1127 20.0937C43.3717 19.8346 43.723 19.6891 44.0894 19.6891C44.4557 19.6891 44.807 19.8346 45.0661 20.0937C45.3251 20.3527 45.4706 20.704 45.4706 21.0704ZM90.8457 94.8657C90.8453 95.6933 90.5164 96.4868 89.9314 97.0722C89.3463 97.6575 88.5529 97.9867 87.7253 97.9875H76.1167C75.2893 97.9868 74.4959 97.6578 73.9108 97.0728C73.3256 96.4878 72.9965 95.6945 72.9957 94.8671V83.2552C72.9968 82.428 73.3259 81.635 73.9109 81.05C74.4958 80.4651 75.2888 80.136 76.1161 80.1348H87.7259C88.5531 80.136 89.346 80.4651 89.9309 81.0501C90.5157 81.635 90.8447 82.4281 90.8457 83.2552V94.8665V94.8657ZM87.7257 77.3709H76.1167C74.5567 77.3726 73.0612 77.993 71.9581 79.096C70.855 80.199 70.2344 81.6945 70.2326 83.2544V94.8657C70.2339 96.4257 70.8542 97.9215 71.9572 99.0247C73.0603 100.128 74.556 100.748 76.1161 100.75H87.7259C89.2857 100.748 90.7812 100.128 91.8841 99.0249C92.987 97.9219 93.6073 96.4263 93.6088 94.8665V83.2552C93.6069 81.6955 92.9865 80.2001 91.8836 79.0972C90.7807 77.9942 89.2854 77.3737 87.7257 77.3717V77.3709ZM31.0116 94.8665C31.011 95.6939 30.682 96.4874 30.097 97.0725C29.512 97.6577 28.7186 97.9867 27.8912 97.9875H16.2824C15.455 97.9868 14.6616 97.6578 14.0765 97.0728C13.4914 96.4878 13.1624 95.6945 13.1615 94.8671V83.2559C13.1624 82.4285 13.4913 81.6353 14.0763 81.0501C14.6612 80.465 15.4544 80.1359 16.2818 80.1348H27.8916C28.7188 80.136 29.5118 80.4651 30.0966 81.0501C30.6815 81.635 31.0105 82.4281 31.0116 83.2552V94.8665ZM27.8916 77.3717H16.2824C14.7225 77.3735 13.227 77.9939 12.1239 79.0969C11.0208 80.1999 10.4003 81.6954 10.3984 83.2552V94.8665C10.3998 96.4264 11.0201 97.9221 12.1232 99.0251C13.2262 100.128 14.7218 100.749 16.2818 100.75H27.8916C29.4514 100.748 30.9469 100.128 32.0499 99.0249C33.1528 97.9219 33.7731 96.4263 33.7747 94.8665V83.2552C33.7728 81.6954 33.1523 80.1999 32.0492 79.0969C30.9462 77.9939 29.4506 77.3735 27.8907 77.3717H27.8916ZM60.9292 94.8665C60.9285 95.694 60.5994 96.4874 60.0143 97.0725C59.4291 97.6577 58.6357 97.9867 57.8082 97.9875H46.199C45.3717 97.9866 44.5786 97.6575 43.9936 97.0725C43.4086 96.4875 43.0795 95.6944 43.0786 94.8671V83.2559C43.0796 82.4287 43.4087 81.6356 43.9935 81.0507C44.5784 80.4657 45.3714 80.1366 46.1986 80.1355H57.809C58.6362 80.1367 59.4291 80.4659 60.0138 81.0508C60.5986 81.6358 60.9276 82.4287 60.9286 83.2559V94.8671L60.9292 94.8665ZM57.809 77.3717H46.199C44.6392 77.3736 43.1437 77.994 42.0407 79.097C40.9377 80.2 40.3172 81.6954 40.3153 83.2552V94.8665C40.3168 96.4265 40.9372 97.9221 42.0403 99.0252C43.1434 100.128 44.639 100.749 46.199 100.75H57.809C59.3688 100.748 60.8643 100.128 61.9672 99.0249C63.0701 97.9218 63.6903 96.4263 63.6917 94.8665V83.2552C63.6898 81.6955 63.0694 80.2001 61.9666 79.0972C60.8637 77.9942 59.3684 77.3737 57.8086 77.3717H57.809ZM20.5803 73.0139V67.6059C20.5803 65.273 22.3739 63.3762 24.5804 63.3762H50.4397V55.8606C50.4397 55.6792 50.4754 55.4996 50.5448 55.332C50.6142 55.1644 50.716 55.0122 50.8442 54.8839C50.9725 54.7556 51.1247 54.6539 51.2923 54.5845C51.4599 54.5151 51.6395 54.4793 51.8209 54.4793C52.0023 54.4793 52.1819 54.5151 52.3495 54.5845C52.5171 54.6539 52.6693 54.7556 52.7976 54.8839C52.9259 55.0122 53.0276 55.1644 53.097 55.332C53.1664 55.4996 53.2022 55.6792 53.2022 55.8606V63.3762H79.06C81.2671 63.3762 83.0603 65.273 83.0603 67.6059V73.0139C83.0603 73.3804 82.9147 73.7319 82.6555 73.9911C82.3964 74.2503 82.0449 74.3959 81.6784 74.3959C81.3118 74.3959 80.9603 74.2503 80.7012 73.9911C80.442 73.7319 80.2964 73.3804 80.2964 73.0139V67.6059C80.2964 66.8105 79.7299 66.1395 79.059 66.1395H53.2022V73.0141C53.2022 73.3806 53.0566 73.7321 52.7974 73.9912C52.5383 74.2504 52.1868 74.396 51.8203 74.396C51.4538 74.396 51.1023 74.2504 50.8432 73.9912C50.584 73.7321 50.4384 73.3806 50.4384 73.0141V66.1397H24.5818C23.9115 66.1397 23.3444 66.81 23.3444 67.6063V73.0143C23.3444 73.3806 23.1989 73.732 22.9398 73.991C22.6808 74.25 22.3295 74.3955 21.9632 74.3955C21.5968 74.3955 21.2455 74.25 20.9865 73.991C20.7274 73.732 20.5819 73.3806 20.5819 73.0143L20.5803 73.0139ZM37.7261 7.54467C41.5245 6.55789 46.5937 6.01311 52.0035 6.01311C57.4133 6.01311 62.4848 6.55789 66.2812 7.54467C70.4103 8.62123 71.3042 9.78291 71.3042 10.0139C71.3042 10.2448 70.4105 11.4073 66.2812 12.481C62.4844 13.4698 57.4135 14.0126 52.0035 14.0126C46.5935 14.0126 41.5233 13.4698 37.7261 12.481C33.598 11.4073 32.703 10.2428 32.703 10.0139C32.703 9.78494 33.5967 8.62042 37.7261 7.54467ZM65.9162 48.19C70.1791 47.2227 71.3047 46.0572 71.3042 45.5766V45.5747V36.8747C70.1058 37.5141 68.5159 38.0589 66.52 38.5109C62.6753 39.3843 57.5267 39.8629 52.0169 39.8649H52.0037C46.4952 39.8649 41.3464 39.3853 37.4992 38.5129C35.498 38.061 33.9039 37.5162 32.7038 36.8747V45.5766C32.7038 46.0562 33.8297 47.2219 38.0901 48.19C41.7463 49.0187 46.6857 49.4747 52.0041 49.4747C57.3226 49.4747 62.2638 49.0187 65.9168 48.19H65.9162ZM71.3047 21.775V13.5586C69.93 14.2598 68.4772 14.7958 66.9765 15.1554C62.9595 16.2013 57.6431 16.7757 52.0037 16.7757C46.3644 16.7757 41.048 16.2013 37.0316 15.1554C35.531 14.7958 34.0783 14.2598 32.7038 13.5586V21.773C32.7241 23.1447 39.0653 25.6197 51.6413 25.673C56.9289 25.6888 62.0704 25.2389 65.7472 24.4237C70.1143 23.4565 71.2925 22.2684 71.3055 21.775H71.3047ZM32.7036 25.4284V33.2006C32.7075 33.6822 33.8411 34.8506 38.1096 35.8178C41.7607 36.6448 46.6953 37.1006 52.0033 37.1006H52.0171C57.3246 37.0988 62.2595 36.6427 65.908 35.8158C70.1692 34.8487 71.301 33.683 71.3045 33.2006V25.4461C70.0711 26.1033 68.4178 26.6618 66.3445 27.1217C62.5098 27.9703 57.4355 28.4363 52.0175 28.4363C51.8894 28.4363 51.7592 28.4363 51.6316 28.4342C47.8423 28.4204 37.6462 28.1145 32.7046 25.428L32.7036 25.4284ZM37.4803 50.8828C41.3269 51.755 46.4854 52.2366 52.0037 52.2366C57.522 52.2366 62.6794 51.7562 66.5272 50.8828C71.6022 49.7321 74.0665 47.9952 74.0665 45.5754C74.0665 45.5735 74.0665 45.5735 74.0665 45.5735V10.0374C74.0665 10.0354 74.0665 10.0315 74.0665 10.0275C74.0665 10.0234 74.0665 10.0175 74.0665 10.0137C74.0665 7.82478 71.6804 6.09578 66.9752 4.87012C62.9595 3.82627 57.6425 3.25 52.0037 3.25C46.365 3.25 41.048 3.82627 37.0316 4.87033C32.3262 6.09598 29.9401 7.82498 29.9401 10.0139C29.9404 10.0178 29.9404 10.0217 29.9401 10.0256C29.9404 10.0283 29.9404 10.0309 29.9401 10.0336V45.5756C29.9405 47.9954 32.405 49.7323 37.4803 50.8828Z" fill="#231F20"/>
<path fill-rule="evenodd" clip-rule="evenodd" d="M37.7262 12.4808C45.5806 14.5248 58.4275 14.5246 66.2813 12.4808C70.4102 11.4071 71.3048 10.2426 71.3044 10.0136C71.304 9.78472 70.4106 8.6202 66.2813 7.54445C58.4218 5.49959 45.5865 5.50203 37.7262 7.54445C33.5973 8.62101 32.7037 9.78268 32.7031 10.0136C32.7025 10.2446 33.5981 11.4071 37.7262 12.4808Z" fill="#E26655"/>
<path fill-rule="evenodd" clip-rule="evenodd" d="M27.8935 80.1328H16.2837C15.4565 80.134 14.6636 80.4632 14.0788 81.0481C13.494 81.6331 13.165 82.4261 13.1641 83.2532V94.8645C13.1647 95.6919 13.4936 96.4852 14.0786 97.0703C14.6636 97.6555 15.4569 97.9846 16.2843 97.9855H27.8931C28.7204 97.9847 29.5137 97.6557 30.0987 97.0707C30.6837 96.4857 31.0127 95.6924 31.0135 94.8651V83.2532C31.0124 82.426 30.6834 81.633 30.0985 81.048C29.5137 80.4631 28.7207 80.1339 27.8935 80.1328Z" fill="#E26655"/>
<path fill-rule="evenodd" clip-rule="evenodd" d="M73 83.2532V94.8645C73.0007 95.692 73.3297 96.4854 73.9149 97.0706C74.5001 97.6557 75.2935 97.9848 76.121 97.9855H87.7296C88.557 97.9847 89.3503 97.6557 89.9353 97.0707C90.5204 96.4857 90.8494 95.6924 90.8502 94.8651V83.2532C90.8492 82.426 90.5203 81.633 89.9354 81.048C89.3506 80.4631 88.5576 80.1339 87.7304 80.1328H76.1204C75.2932 80.1339 74.5001 80.4631 73.9152 81.048C73.3302 81.6329 73.0011 82.426 73 83.2532Z" fill="#E26655"/>
</svg>
