<svg xmlns="http://www.w3.org/2000/svg" width="56" height="56" viewBox="0 0 56 56" fill="none">
  <path fill-rule="evenodd" clip-rule="evenodd" d="M23.4438 13.6772C23.2827 13.5125 23.1931 13.2909 23.1944 13.0606C23.1957 12.8302 23.2878 12.6096 23.4507 12.4468C23.6135 12.2839 23.8341 12.1918 24.0645 12.1905C24.2948 12.1892 24.5164 12.2788 24.6811 12.4399C25.0471 12.8058 25.3946 13.1974 25.7306 13.5762C26.0389 13.9235 26.3302 14.252 26.61 14.5317C26.6727 14.5927 26.7569 14.6269 26.8445 14.6269C26.932 14.6269 27.0162 14.5927 27.079 14.5317C27.7279 13.8827 28.3742 13.2318 29.018 12.579C29.654 11.9361 30.3116 11.2716 30.9635 10.6198C31.128 10.4573 31.35 10.3665 31.5811 10.3673C31.8123 10.368 32.0337 10.4601 32.1972 10.6236C32.3606 10.787 32.4527 11.0085 32.4534 11.2396C32.4541 11.4708 32.3633 11.6928 32.2009 11.8572C31.5519 12.5062 30.9056 13.1571 30.2619 13.8099C29.6259 14.4524 28.9682 15.1173 28.3163 15.769C27.9256 16.1589 27.3963 16.3778 26.8444 16.3778C26.2925 16.3778 25.7631 16.1589 25.3725 15.769C25.0553 15.4518 24.7333 15.089 24.4216 14.7374C24.1025 14.3779 23.7728 14.0062 23.4438 13.6772ZM18.2149 33.0147C18.2149 32.7827 18.3071 32.5601 18.4712 32.396C18.6353 32.2319 18.8578 32.1397 19.0899 32.1397H37.128C37.3601 32.1397 37.5826 32.2319 37.7467 32.396C37.9108 32.5601 38.003 32.7827 38.003 33.0147C38.003 33.2468 37.9108 33.4694 37.7467 33.6334C37.5826 33.7975 37.3601 33.8897 37.128 33.8897H19.0899C18.8578 33.8897 18.6353 33.7975 18.4712 33.6334C18.3071 33.4694 18.2149 33.2468 18.2149 33.0147ZM14.7656 36.5486C14.7656 36.3166 14.8578 36.094 15.0219 35.9299C15.186 35.7658 15.4086 35.6736 15.6406 35.6736H40.5781C40.8102 35.6736 41.0327 35.7658 41.1968 35.9299C41.3609 36.094 41.4531 36.3166 41.4531 36.5486C41.4531 36.7807 41.3609 37.0033 41.1968 37.1674C41.0327 37.3314 40.8102 37.4236 40.5781 37.4236H15.6406C15.4086 37.4236 15.186 37.3314 15.0219 37.1674C14.8578 37.0033 14.7656 36.7807 14.7656 36.5486ZM47.4141 35.4549C47.9981 35.4549 48.5691 35.6281 49.0547 35.9526C49.5404 36.2771 49.9189 36.7383 50.1424 37.2779C50.3659 37.8175 50.4244 38.4113 50.3104 38.9841C50.1965 39.557 49.9152 40.0832 49.5022 40.4962C49.0892 40.9092 48.563 41.1904 47.9902 41.3044C47.4173 41.4183 46.8236 41.3599 46.284 41.1363C45.7443 40.9128 45.2831 40.5343 44.9586 40.0487C44.6341 39.563 44.4609 38.9921 44.4609 38.408C44.462 37.6251 44.7735 36.8746 45.3271 36.321C45.8807 35.7674 46.6312 35.456 47.4141 35.4549ZM47.4141 43.1111C48.3443 43.1111 49.2536 42.8353 50.027 42.3185C50.8004 41.8017 51.4032 41.0672 51.7592 40.2078C52.1152 39.3484 52.2083 38.4028 52.0268 37.4905C51.8453 36.5782 51.3974 35.7401 50.7397 35.0824C50.0819 34.4246 49.2439 33.9767 48.3316 33.7953C47.4193 33.6138 46.4736 33.7069 45.6143 34.0629C44.7549 34.4189 44.0203 35.0217 43.5036 35.7951C42.9868 36.5685 42.7109 37.4778 42.7109 38.408C42.7123 39.6549 43.2083 40.8504 44.09 41.7321C44.9717 42.6138 46.1671 43.1097 47.4141 43.1111ZM8.58594 35.4549C9.17001 35.4549 9.74097 35.6281 10.2266 35.9526C10.7122 36.2771 11.0908 36.7383 11.3143 37.2779C11.5378 37.8175 11.5963 38.4113 11.4823 38.9841C11.3684 39.557 11.0871 40.0832 10.6741 40.4962C10.2611 40.9092 9.73491 41.1904 9.16206 41.3044C8.58921 41.4183 7.99544 41.3599 7.45583 41.1363C6.91621 40.9128 6.455 40.5343 6.1305 40.0487C5.80601 39.563 5.63281 38.9921 5.63281 38.408C5.63385 37.6251 5.94532 36.8746 6.49891 36.321C7.05251 35.7674 7.80304 35.4559 8.58594 35.4549ZM8.58594 43.1111C9.51613 43.1111 10.4254 42.8353 11.1989 42.3185C11.9723 41.8017 12.5751 41.0672 12.9311 40.2078C13.287 39.3484 13.3802 38.4028 13.1987 37.4905C13.0172 36.5782 12.5693 35.7401 11.9115 35.0824C11.2538 34.4246 10.4158 33.9767 9.50347 33.7953C8.59116 33.6138 7.64551 33.7069 6.78613 34.0629C5.92675 34.4189 5.19222 35.0217 4.67543 35.7951C4.15865 36.5685 3.88281 37.4778 3.88281 38.408C3.8842 39.6549 4.38015 40.8504 5.26186 41.7321C6.14357 42.6138 7.33902 43.1097 8.58594 43.1111ZM49.9545 52.1544H44.8735C44.3483 52.1539 43.8447 51.9451 43.4732 51.5737C43.1018 51.2024 42.8929 50.6988 42.8923 50.1736V48.1916H51.9357V50.1735C51.9352 50.6987 51.7262 51.2023 51.3548 51.5737C50.9834 51.945 50.4798 52.1539 49.9545 52.1544ZM13.1077 50.1735C13.1071 50.6987 12.8982 51.2023 12.5268 51.5737C12.1553 51.945 11.6517 52.1539 11.1265 52.1544H6.04548C5.52025 52.1539 5.01665 51.9451 4.64522 51.5737C4.27378 51.2024 4.06484 50.6988 4.06427 50.1736V48.1916H13.1077V50.1735ZM40.6307 46.4416H15.9064L19.2533 41.1424H37.2838L40.6307 46.4416ZM2.625 35.4844V46.223C2.6256 46.2808 2.64884 46.3361 2.68973 46.377C2.73063 46.4179 2.78592 46.4411 2.84375 46.4417H13.8366L18.0313 39.8006C18.1102 39.6756 18.2194 39.5727 18.3487 39.5013C18.4781 39.43 18.6234 39.3925 18.7712 39.3925H37.7661C37.9138 39.3925 38.0591 39.43 38.1884 39.5013C38.3178 39.5726 38.427 39.6755 38.5058 39.8005L42.7005 46.4416H53.1562C53.2141 46.4409 53.2693 46.4177 53.3102 46.3768C53.3511 46.3359 53.3743 46.2807 53.375 46.2228V35.4845C53.3735 34.1298 52.8347 32.831 51.8768 31.8731C50.9189 30.9151 49.6201 30.3762 48.2654 30.3746H7.73456C6.37986 30.3762 5.08108 30.915 4.12317 31.873C3.16527 32.8309 2.62648 34.1297 2.625 35.4844ZM41.475 28.6247H34.6297C34.8198 27.8608 35.2601 27.1825 35.8803 26.6977C36.5005 26.213 37.2651 25.9496 38.0523 25.9496C38.8395 25.9496 39.6041 26.213 40.2244 26.6977C40.8446 27.1825 41.2848 27.8608 41.475 28.6247ZM13.2107 18.6255L8.08489 28.6247H32.8453C33.0474 27.3893 33.6821 26.2659 34.636 25.4553C35.59 24.6447 36.8011 24.1996 38.0529 24.1996C39.3048 24.1996 40.5159 24.6447 41.4698 25.4553C42.4238 26.2659 43.0585 27.3893 43.2605 28.6247H48.266C48.3633 28.6247 48.4599 28.6278 48.5564 28.632L41.7751 18.2538C40.8454 16.8382 39.2276 16.0251 37.3369 16.0251H36.8629C36.6741 16.6644 36.4616 17.292 36.2241 17.9017C34.7092 21.7898 32.3663 24.7595 29.4488 26.4895C28.8933 26.8193 28.3116 27.103 27.7097 27.3377C27.6011 27.3798 27.4852 27.3999 27.3688 27.3966C27.2523 27.3934 27.1377 27.367 27.0316 27.3189C22.9381 25.4623 20.311 23.1277 18.7639 19.9722C18.1615 18.7041 17.7152 17.3676 17.4347 15.9919C17.4027 15.9982 17.3708 16.0042 17.3394 16.0105C17.0568 16.0659 16.8098 16.114 16.7918 16.1173C15.1898 16.3984 13.8848 17.3122 13.212 18.6251L13.2107 18.6255ZM27.2684 3.92054L18.4172 7.66346C18.4889 11.601 18.7476 15.9666 20.334 19.2025C21.6505 21.8876 23.9049 23.9171 27.4127 25.5681C27.8054 25.398 28.187 25.2031 28.5552 24.9846C34.0308 21.7375 36.4933 13.7641 36.1118 7.67057L27.2684 3.92054ZM51.0199 29.204L43.238 17.2948C41.9779 15.3759 39.8267 14.2754 37.3359 14.2754H37.3097C37.842 11.8433 38.0263 9.3182 37.8148 6.99376C37.8004 6.83611 37.7436 6.68531 37.6503 6.55741C37.557 6.42952 37.4308 6.32933 37.2851 6.26751L27.6104 2.16551C27.5025 2.11976 27.3865 2.09619 27.2693 2.09619C27.1521 2.09619 27.036 2.11976 26.9281 2.16551L17.1921 6.2814C17.0317 6.3492 16.8952 6.46331 16.8001 6.60914C16.7049 6.75496 16.6554 6.92585 16.6579 7.09996C16.6907 9.40777 16.7703 11.8889 17.1227 14.2699C17.0842 14.2771 17.0446 14.2851 17.0023 14.2936C16.744 14.3439 16.517 14.3886 16.4889 14.3939C14.3415 14.7706 12.5792 16.022 11.6538 17.8271L6.00469 28.8459C4.53658 29.2307 3.23715 30.0906 2.30918 31.2915C1.38121 32.4925 0.87692 33.9668 0.875 35.4845V46.2228C0.87563 46.6523 1.01658 47.0699 1.2764 47.4119C1.53622 47.7539 1.90067 48.0016 2.31427 48.1173V50.1736C2.31539 51.1628 2.70888 52.1111 3.40838 52.8106C4.10789 53.51 5.05628 53.9034 6.04548 53.9045H11.1265C12.1157 53.9035 13.0641 53.5101 13.7636 52.8107C14.4631 52.1113 14.8566 51.163 14.8577 50.1738V48.1916H41.1423V50.1735C41.1434 51.1627 41.5369 52.111 42.2364 52.8105C42.9359 53.5099 43.8843 53.9033 44.8735 53.9044H49.9545C50.9437 53.9034 51.8921 53.51 52.5916 52.8106C53.2911 52.1112 53.6846 51.1629 53.6857 50.1737V48.1174C54.0993 48.0017 54.4638 47.7539 54.7236 47.412C54.9834 47.07 55.1244 46.6524 55.125 46.223V35.4844C55.1235 34.1522 54.7346 32.8493 54.0058 31.7342C53.2769 30.6191 52.2395 29.74 51.0199 29.204Z" fill="#231F20"/>
  <path fill-rule="evenodd" clip-rule="evenodd" d="M13.8366 46.4417L18.0313 39.8006C18.1102 39.6756 18.2194 39.5727 18.3487 39.5013C18.4781 39.43 18.6234 39.3925 18.7712 39.3925H37.7661C37.9138 39.3925 38.0591 39.43 38.1884 39.5013C38.3178 39.5726 38.427 39.6756 38.5058 39.8005L42.7005 46.4416H53.1562C53.2141 46.4409 53.2693 46.4177 53.3102 46.3768C53.3511 46.3359 53.3743 46.2807 53.375 46.2229V35.4846C53.3735 34.1299 52.8347 32.8311 51.8768 31.8732C50.9189 30.9152 49.6201 30.3763 48.2654 30.3748H7.73456C6.37986 30.3763 5.08108 30.9151 4.12317 31.8731C3.16527 32.831 2.62648 34.1298 2.625 35.4845V46.2231C2.6256 46.2809 2.64884 46.3362 2.68973 46.3771C2.73063 46.418 2.78592 46.4412 2.84375 46.4418L13.8366 46.4417ZM15.6406 37.4238C15.4086 37.4238 15.186 37.3316 15.0219 37.1675C14.8578 37.0034 14.7656 36.7808 14.7656 36.5488C14.7656 36.3167 14.8578 36.0941 15.0219 35.93C15.186 35.7659 15.4086 35.6738 15.6406 35.6738H40.5781C40.8102 35.6738 41.0327 35.7659 41.1968 35.93C41.3609 36.0941 41.4531 36.3167 41.4531 36.5488C41.4531 36.7808 41.3609 37.0034 41.1968 37.1675C41.0327 37.3316 40.8102 37.4238 40.5781 37.4238H15.6406ZM18.2153 33.0148C18.2153 32.7828 18.3075 32.5602 18.4716 32.3961C18.6357 32.232 18.8582 32.1398 19.0903 32.1398H37.1284C37.3605 32.1398 37.5831 32.232 37.7472 32.3961C37.9113 32.5602 38.0034 32.7828 38.0034 33.0148C38.0034 33.2469 37.9113 33.4695 37.7472 33.6336C37.5831 33.7977 37.3605 33.8898 37.1284 33.8898H19.0899C18.8578 33.8898 18.6353 33.7977 18.4712 33.6336C18.3071 33.4695 18.2149 33.2469 18.2149 33.0148H18.2153ZM47.4141 43.1113C46.4839 43.1113 45.5746 42.8354 44.8011 42.3186C44.0277 41.8019 43.4249 41.0673 43.0689 40.2079C42.713 39.3486 42.6198 38.4029 42.8013 37.4906C42.9828 36.5783 43.4307 35.7403 44.0885 35.0825C44.7462 34.4248 45.5842 33.9768 46.4965 33.7954C47.4088 33.6139 48.3545 33.707 49.2139 34.063C50.0733 34.419 50.8078 35.0218 51.3246 35.7952C51.8414 36.5686 52.1172 37.4779 52.1172 38.4081C52.1158 39.6551 51.6199 40.8505 50.7382 41.7322C49.8565 42.6139 48.661 43.1099 47.4141 43.1113ZM13.2891 38.4081C13.2891 39.3383 13.0132 40.2476 12.4964 41.021C11.9797 41.7945 11.2451 42.3973 10.3857 42.7532C9.52636 43.1092 8.58072 43.2024 7.6684 43.0209C6.75609 42.8394 5.91807 42.3915 5.26033 41.7337C4.60258 41.076 4.15465 40.238 3.97318 39.3257C3.79171 38.4133 3.88485 37.4677 4.24082 36.6083C4.59679 35.7489 5.1996 35.0144 5.97302 34.4976C6.74645 33.9808 7.65575 33.705 8.58594 33.705C9.83288 33.7064 11.0283 34.2024 11.9101 35.0841C12.7918 35.9658 13.2877 37.1613 13.2891 38.4082V38.4081Z" fill="white"/>
  <path fill-rule="evenodd" clip-rule="evenodd" d="M20.3348 19.2022C21.6512 21.8872 23.9056 23.9168 27.4134 25.5678C27.8062 25.3976 28.1878 25.2028 28.5559 24.9843C34.0316 21.7372 36.494 13.7637 36.1125 7.67025L27.2691 3.92065L18.418 7.66358C18.4896 11.6011 18.7484 15.9667 20.3348 19.2026V19.2022ZM24.6819 12.44C25.0478 12.806 25.3953 13.1975 25.7313 13.5763C26.0397 13.9237 26.3309 14.2521 26.6107 14.5318C26.6735 14.5928 26.7576 14.627 26.8452 14.627C26.9328 14.627 27.0169 14.5928 27.0797 14.5318C27.7287 13.8828 28.375 13.2319 29.0187 12.5791C29.6547 11.9362 30.3124 11.2717 30.9643 10.6199C31.1287 10.4574 31.3507 10.3667 31.5819 10.3674C31.813 10.3681 32.0345 10.4602 32.1979 10.6237C32.3614 10.7871 32.4535 11.0086 32.4542 11.2397C32.4549 11.4709 32.3641 11.6929 32.2016 11.8573C31.5527 12.5063 30.9063 13.1572 30.2626 13.81C29.6266 14.4525 28.9689 15.1174 28.3171 15.7691C27.9264 16.159 27.397 16.3779 26.8451 16.3779C26.2933 16.3779 25.7639 16.159 25.3732 15.7691C25.056 15.452 24.734 15.0892 24.4223 14.7375C24.1033 14.378 23.7735 14.0063 23.4445 13.6773C23.2835 13.5126 23.1938 13.2911 23.1951 13.0607C23.1964 12.8303 23.2885 12.6098 23.4514 12.4469C23.6143 12.284 23.8349 12.1919 24.0652 12.1906C24.2956 12.1893 24.5172 12.2789 24.6819 12.44Z" fill="white"/>
</svg>