<svg xmlns="http://www.w3.org/2000/svg" width="56" height="56" viewBox="0 0 56 56" fill="none">
  <path fill-rule="evenodd" clip-rule="evenodd" d="M31.3344 29.9927C31.5103 30.1711 31.6085 30.4118 31.6077 30.6623C31.6068 30.9128 31.5069 31.1527 31.3298 31.3299C31.1526 31.507 30.9127 31.6069 30.6622 31.6078C30.4117 31.6086 30.171 31.5104 29.9926 31.3346L27.3291 28.6709C27.241 28.5829 27.1711 28.4783 27.1234 28.3631C27.0757 28.248 27.0512 28.1246 27.0512 28V21.3282C27.0539 21.0783 27.155 20.8396 27.3327 20.6638C27.5103 20.4881 27.7501 20.3895 28 20.3895C28.2499 20.3895 28.4897 20.4881 28.6673 20.6638C28.8449 20.8396 28.9461 21.0783 28.9488 21.3282V27.6063L31.3344 29.9921V29.9927ZM38.2769 28.9488C38.1515 28.9501 38.027 28.9266 37.9107 28.8795C37.7944 28.8324 37.6886 28.7627 37.5994 28.6745C37.5102 28.5863 37.4394 28.4812 37.3911 28.3654C37.3428 28.2497 37.3179 28.1254 37.3179 28C37.3179 27.8745 37.3428 27.7503 37.3911 27.6345C37.4394 27.5188 37.5102 27.4137 37.5994 27.3255C37.6886 27.2372 37.7944 27.1676 37.9107 27.1205C38.027 27.0734 38.1515 27.0499 38.2769 27.0512H40.0907C39.8915 24.4962 38.8847 22.0707 37.2159 20.1258L35.9377 21.404C35.8496 21.4921 35.745 21.5619 35.6299 21.6096C35.5148 21.6573 35.3914 21.6818 35.2668 21.6818C35.1422 21.6818 35.0188 21.6572 34.9037 21.6095C34.7886 21.5618 34.684 21.4919 34.596 21.4038C34.5079 21.3157 34.438 21.2111 34.3903 21.096C34.3427 20.9809 34.3181 20.8575 34.3182 20.7329C34.3182 20.6083 34.3427 20.4849 34.3904 20.3698C34.4381 20.2547 34.508 20.1501 34.5961 20.062L35.8741 18.7842C33.9292 17.1152 31.5038 16.1083 28.9488 15.9092V17.7232C28.9501 17.8486 28.9266 17.9731 28.8795 18.0894C28.8324 18.2057 28.7627 18.3115 28.6745 18.4007C28.5863 18.4899 28.4812 18.5607 28.3654 18.609C28.2497 18.6573 28.1254 18.6822 28 18.6822C27.8745 18.6822 27.7503 18.6573 27.6345 18.609C27.5188 18.5607 27.4137 18.4899 27.3255 18.4007C27.2372 18.3115 27.1676 18.2057 27.1205 18.0894C27.0734 17.9731 27.0499 17.8486 27.0512 17.7232V15.9094C24.4963 16.1086 22.0709 17.1154 20.126 18.7841L21.404 20.0623C21.4921 20.1504 21.5619 20.2549 21.6096 20.3701C21.6573 20.4852 21.6818 20.6085 21.6818 20.7331C21.6818 20.8577 21.6573 20.9811 21.6096 21.0962C21.5619 21.2113 21.4921 21.3159 21.404 21.404C21.3159 21.4921 21.2113 21.5619 21.0962 21.6096C20.9811 21.6573 20.8577 21.6818 20.7331 21.6818C20.6085 21.6818 20.4852 21.6573 20.3701 21.6096C20.2549 21.5619 20.1504 21.4921 20.0623 21.404L18.7842 20.126C17.1153 22.0708 16.1085 24.4962 15.9094 27.0512H17.7231C17.9747 27.0512 18.216 27.1512 18.3939 27.3291C18.5718 27.507 18.6718 27.7483 18.6718 27.9999C18.6718 28.2515 18.5718 28.4929 18.3939 28.6708C18.216 28.8487 17.9747 28.9487 17.7231 28.9487H15.9094C16.1084 31.5036 17.1153 33.929 18.7842 35.8738L20.0623 34.5959C20.1504 34.5078 20.2549 34.4379 20.3701 34.3902C20.4852 34.3426 20.6085 34.318 20.7331 34.318C20.8577 34.318 20.9811 34.3426 21.0962 34.3902C21.2113 34.4379 21.3159 34.5078 21.404 34.5959C21.4921 34.684 21.5619 34.7886 21.6096 34.9037C21.6573 35.0188 21.6818 35.1422 21.6818 35.2668C21.6818 35.3913 21.6573 35.5147 21.6096 35.6298C21.5619 35.7449 21.4921 35.8495 21.404 35.9376L20.126 37.216C22.0709 38.8848 24.4963 39.8916 27.0512 40.0907V38.277C27.0539 38.0272 27.155 37.7884 27.3327 37.6127C27.5103 37.437 27.7501 37.3384 28 37.3384C28.2499 37.3384 28.4897 37.437 28.6673 37.6127C28.8449 37.7884 28.9461 38.0272 28.9488 38.277V40.091C31.5038 39.8919 33.9293 38.885 35.8742 37.2161L34.5961 35.938C34.4182 35.7601 34.3182 35.5188 34.3182 35.2672C34.3182 35.0156 34.4181 34.7743 34.596 34.5963C34.7739 34.4184 35.0152 34.3184 35.2668 34.3184C35.5185 34.3184 35.7598 34.4183 35.9377 34.5962L37.2159 35.8744C38.8848 33.9295 39.8916 31.504 40.0907 28.949L38.2769 28.9488ZM28 13.9749C25.2261 13.9749 22.5144 14.7974 20.208 16.3385C17.9015 17.8796 16.1039 20.0701 15.0423 22.6329C13.9807 25.1957 13.703 28.0157 14.2442 30.7363C14.7853 33.457 16.1211 35.956 18.0826 37.9175C20.044 39.879 22.5431 41.2148 25.2638 41.7559C27.9844 42.2971 30.8044 42.0193 33.3672 40.9578C35.93 39.8962 38.1205 38.0986 39.6616 35.7921C41.2027 33.4856 42.0252 30.774 42.0252 28C42.021 24.2816 40.542 20.7167 37.9127 18.0874C35.2833 15.4581 31.7184 13.9791 28 13.9749ZM52.3525 31.8701V24.8002L48.3941 23.3664C48.2503 23.3142 48.1212 23.228 48.0178 23.1152C47.9144 23.0023 47.8398 22.8662 47.8004 22.7183C47.3995 21.2139 46.8275 19.7603 46.0957 18.386C46.0265 18.256 45.9885 18.1117 45.9847 17.9645C45.9809 17.8172 46.0114 17.6712 46.0738 17.5378L47.9563 13.5169L42.9571 8.5174L39.1422 10.3032C39.0035 10.3681 38.8513 10.3984 38.6983 10.3917C38.5454 10.3849 38.3964 10.3413 38.264 10.2645C36.917 9.48308 35.485 8.8585 33.9959 8.40289C33.8551 8.35981 33.7263 8.28458 33.6196 8.18313C33.5129 8.08169 33.4313 7.95681 33.3812 7.81839L31.8701 3.64748H24.8001L23.3664 7.60543C23.3142 7.74931 23.2281 7.87845 23.1152 7.98183C23.0024 8.0852 22.8662 8.15975 22.7183 8.19912C21.2135 8.59998 19.7596 9.17199 18.385 9.90395C18.255 9.97319 18.1107 10.0112 17.9634 10.015C17.8162 10.0188 17.6701 9.98827 17.5367 9.92583L13.5168 8.0437L8.51751 13.0429L10.304 16.859C10.369 16.9977 10.3994 17.15 10.3927 17.3029C10.386 17.4559 10.3423 17.6049 10.2655 17.7374C9.4842 19.0839 8.85957 20.5154 8.40387 22.004C8.36081 22.1447 8.28561 22.2735 8.18423 22.3802C8.08285 22.4869 7.95805 22.5685 7.8197 22.6187L3.64759 24.1298V31.2L7.60532 32.6338C7.74923 32.6859 7.8784 32.7721 7.9818 32.8849C8.0852 32.9978 8.15976 33.134 8.19912 33.2819C8.59993 34.7867 9.17186 36.2405 9.90373 37.6151C9.97297 37.7451 10.011 37.8894 10.0148 38.0366C10.0186 38.1838 9.98805 38.3299 9.92561 38.4633L8.0437 42.4834L13.043 47.4825L16.859 45.6962C16.9976 45.6312 17.1499 45.6007 17.3028 45.6074C17.4557 45.6141 17.6048 45.6577 17.7372 45.7345C19.0837 46.5159 20.5153 47.1405 22.0039 47.5963C22.1446 47.6393 22.2735 47.7145 22.3802 47.8158C22.4869 47.9172 22.5685 48.042 22.6187 48.1804L24.13 52.3525H31.2L32.6337 48.3948C32.6859 48.2509 32.772 48.1217 32.8849 48.0183C32.9978 47.9149 33.134 47.8404 33.2819 47.8011C34.7866 47.4001 36.2405 46.8281 37.6151 46.0962C37.7451 46.0271 37.8894 45.9891 38.0366 45.9853C38.1838 45.9815 38.3299 46.012 38.4633 46.0744L42.4833 47.9566L47.4825 42.9572L45.696 39.1413C45.6311 39.0027 45.6007 38.8504 45.6074 38.6974C45.6141 38.5445 45.6577 38.3955 45.7345 38.263C46.5158 36.9165 47.1404 35.485 47.5962 33.9964C47.6392 33.8556 47.7144 33.7268 47.8158 33.62C47.9172 33.5133 48.042 33.4316 48.1804 33.3814L52.3525 31.8702V31.8701ZM53.0436 23.0326L49.4999 21.749C49.1159 20.4285 48.6106 19.1463 47.9905 17.9188L49.6948 14.2787C49.8568 13.9388 49.9089 13.5569 49.8438 13.186C49.7787 12.8151 49.5997 12.4738 49.3316 12.2094L44.2651 7.14223C44.0007 6.8741 43.6593 6.69503 43.2884 6.62993C42.9176 6.56483 42.5356 6.61694 42.1957 6.779L38.7809 8.37751C37.576 7.71428 36.3124 7.16386 35.0062 6.73328L33.638 2.95656C33.5122 2.60162 33.279 2.29469 32.9707 2.07846C32.6624 1.86222 32.2944 1.74743 31.9179 1.75004H24.7524C24.3758 1.74752 24.0078 1.86237 23.6995 2.07863C23.3912 2.2949 23.1579 2.60183 23.0321 2.95678L21.7488 6.49943C20.4279 6.88331 19.1453 7.38859 17.9175 8.00881L14.2783 6.30486C13.9383 6.14287 13.5563 6.09083 13.1854 6.15596C12.8145 6.2211 12.4731 6.40018 12.2087 6.66831L7.14223 11.735C6.87409 11.9994 6.695 12.3408 6.62988 12.7117C6.56476 13.0826 6.61685 13.4646 6.77889 13.8045L8.37817 17.2205C7.71507 18.425 7.16466 19.6882 6.73393 20.9939L2.95656 22.362C2.60161 22.4878 2.29468 22.7211 2.07845 23.0294C1.86222 23.3377 1.74743 23.7058 1.75004 24.0823V31.2477C1.74744 31.6243 1.86223 31.9923 2.07846 32.3006C2.2947 32.6089 2.60162 32.8422 2.95656 32.968L6.49932 34.2512C6.88316 35.5721 7.38844 36.8547 8.0087 38.0826L6.30497 41.7219C6.14291 42.0618 6.09081 42.4438 6.15591 42.8147C6.22101 43.1856 6.40007 43.527 6.6682 43.7914L11.7349 48.8579C11.9993 49.126 12.3407 49.3051 12.7116 49.3702C13.0824 49.4354 13.4644 49.3834 13.8044 49.2214L17.2205 47.6219C18.4249 48.2851 19.6881 48.8356 20.9939 49.2663L22.3622 53.0433C22.488 53.3982 22.7212 53.7052 23.0294 53.9215C23.3377 54.1377 23.7057 54.2526 24.0822 54.25H31.2477C31.6243 54.2526 31.9923 54.1379 32.3006 53.9216C32.6089 53.7054 32.8422 53.3985 32.968 53.0435L34.2513 49.5007C35.5722 49.1168 36.8548 48.6115 38.0826 47.9913L41.7219 49.6949C42.0618 49.8569 42.4438 49.909 42.8147 49.8439C43.1856 49.7788 43.527 49.5998 43.7914 49.3317L48.8579 44.2652C49.126 44.0008 49.305 43.6594 49.3701 43.2886C49.4353 42.9177 49.3832 42.5357 49.2212 42.1958L47.6219 38.7797C48.285 37.5752 48.8354 36.312 49.2663 35.0063L53.0436 33.6379C53.3985 33.5121 53.7054 33.2788 53.9216 32.9706C54.1378 32.6623 54.2526 32.2944 54.25 31.9179V24.7525C54.2526 24.3759 54.1379 24.0079 53.9217 23.6996C53.7054 23.3913 53.3986 23.158 53.0436 23.0321V23.0326Z" fill="#231F20"/>
  <path fill-rule="evenodd" clip-rule="evenodd" d="M47.4833 42.9568L45.6969 39.1409C45.632 39.0023 45.6016 38.85 45.6083 38.6971C45.615 38.5441 45.6586 38.3951 45.7354 38.2627C46.5166 36.9161 47.1413 35.4846 47.5971 33.996C47.6401 33.8553 47.7153 33.7264 47.8166 33.6197C47.918 33.5129 48.0428 33.4312 48.1812 33.381L52.3533 31.8698V24.7999L48.395 23.3661C48.2511 23.3139 48.122 23.2277 48.0186 23.1149C47.9153 23.0021 47.8407 22.8659 47.8013 22.7181C47.4003 21.2136 46.8284 19.76 46.0965 18.3857C46.0273 18.2557 45.9893 18.1114 45.9855 17.9642C45.9817 17.817 46.0122 17.6709 46.0747 17.5375L47.9571 13.5167L42.9579 8.51714L39.143 10.3029C39.0044 10.3678 38.8521 10.3982 38.6992 10.3914C38.5463 10.3847 38.3972 10.341 38.2649 10.2642C36.9178 9.48282 35.4858 8.85823 33.9967 8.40262C33.8559 8.35955 33.7271 8.28431 33.6204 8.18287C33.5138 8.08142 33.4321 7.95655 33.382 7.81812L31.8709 3.64722H24.8009L23.3672 7.60517C23.3151 7.74905 23.2289 7.87818 23.1161 7.98156C23.0032 8.08494 22.8671 8.15949 22.7192 8.19886C21.2143 8.59972 19.7604 9.17173 18.3858 9.90369C18.2558 9.97292 18.1115 10.0109 17.9643 10.0147C17.817 10.0185 17.6709 9.98801 17.5375 9.92556L13.5177 8.04344L8.51836 13.0426L10.3049 16.8587C10.3698 16.9974 10.4002 17.1497 10.3935 17.3027C10.3868 17.4556 10.3432 17.6047 10.2664 17.7371C9.48504 19.0836 8.86042 20.5151 8.40472 22.0037C8.36165 22.1445 8.28646 22.2732 8.18508 22.3799C8.08369 22.4866 7.9589 22.5682 7.82055 22.6184L3.64844 24.1295V31.1998L7.60617 32.6336C7.75008 32.6857 7.87925 32.7718 7.98265 32.8847C8.08604 32.9975 8.16061 33.1337 8.19997 33.2816C8.60077 34.7864 9.17271 36.2403 9.90458 37.6148C9.97381 37.7448 10.0118 37.8891 10.0156 38.0363C10.0194 38.1836 9.9889 38.3297 9.92645 38.463L8.04455 42.4831L13.0439 47.4822L16.8598 45.6959C16.9984 45.6309 17.1507 45.6005 17.3036 45.6072C17.4566 45.6139 17.6056 45.6575 17.738 45.7343C19.0846 46.5156 20.5161 47.1402 22.0047 47.5961C22.1455 47.639 22.2743 47.7142 22.381 47.8156C22.4877 47.9169 22.5694 48.0418 22.6195 48.1801L24.1309 52.3522H31.2009L32.6346 48.3945C32.6867 48.2506 32.7729 48.1214 32.8857 48.0181C32.9986 47.9147 33.1348 47.8401 33.2827 47.8008C34.7875 47.3999 36.2414 46.8279 37.6159 46.096C37.7459 46.0268 37.8902 45.9888 38.0375 45.9851C38.1847 45.9813 38.3307 46.0117 38.4641 46.0741L42.4841 47.9563L47.4833 42.9569V42.9568ZM28.0009 42.025C25.2269 42.0251 22.5153 41.2025 20.2088 39.6614C17.9024 38.1203 16.1047 35.9299 15.0432 33.3671C13.9816 30.8043 13.7038 27.9843 14.245 25.2637C14.7861 22.543 16.1219 20.0439 18.0834 18.0825C20.0448 16.121 22.5439 14.7852 25.2645 14.244C27.9852 13.7028 30.8052 13.9806 33.368 15.0421C35.9308 16.1036 38.1212 17.9013 39.6624 20.2077C41.2035 22.5142 42.026 25.2258 42.026 27.9998C42.0219 31.7182 40.5429 35.2832 37.9136 37.9125C35.2843 40.5418 31.7193 42.0208 28.0009 42.025Z" fill="white"/>
</svg>