<svg width="1440" height="320" viewBox="0 0 1440 320" fill="none" xmlns="http://www.w3.org/2000/svg">
<g clip-path="url(#clip0_1735_8258)">
<path d="M119.399 265.692C130.142 266.579 138.631 268.329 165.177 267.014" stroke="#231F20" stroke-width="3.59043" stroke-linecap="round" stroke-dasharray="7.18 7.18"/>
<path d="M230.187 264.387C241.13 265.552 263.939 262.913 284.07 268.665" stroke="#231F20" stroke-width="3.59043" stroke-linecap="round"/>
<path d="M168.228 262.627C168.976 262.667 169.715 263.086 170.327 263.492C171.444 264.231 172.552 264.98 173.678 265.714C174.258 266.093 176.148 266.851 174.701 266.914C172.87 266.993 170.401 268.623 169.259 270.018C169.06 270.261 168.228 271.582 168.228 270.882" stroke="#231F20" stroke-width="3.59043" stroke-linecap="round"/>
<path d="M278.179 262.438C279.012 263.322 279.519 264.461 280.446 265.295C281.564 266.301 282.541 267.482 283.574 268.576C283.685 268.694 284.318 269.153 284.318 269.344C284.318 269.486 282.538 269.691 282.453 269.71C280.56 270.127 278.798 270.9 277.011 271.634C275.903 272.089 273.825 273.418 272.655 272.637" stroke="#231F20" stroke-width="3.59043" stroke-linecap="round"/>
<path d="M966.74 256.73C985.131 256.73 997.058 259.871 1009.82 257.627" stroke="#231F20" stroke-width="3.59043" stroke-linecap="round" stroke-dasharray="7.18 7.18"/>
<path d="M407.531 259.107C425.742 252.962 446.598 259.663 473.954 263.448" stroke="#231F20" stroke-width="3.59043" stroke-linecap="round"/>
<path d="M850.956 255.514C866.918 257.426 867.583 252.305 902.565 257.18" stroke="#231F20" stroke-width="3.59043" stroke-linecap="round" stroke-dasharray="7.18 7.18"/>
<path d="M472.558 254.92C473.141 257.521 474.215 262.902 477.362 263.951C477.664 264.052 478.421 264.133 478.59 264.47C478.662 264.615 478.267 264.475 478.106 264.482C477.242 264.52 476.483 264.769 475.698 265.12C473.631 266.042 471.718 267.199 469.807 268.401C469.493 268.599 467.67 269.786 467.67 269.582" stroke="#231F20" stroke-width="3.59043" stroke-linecap="round"/>
<path d="M897.523 252.585C898.108 252.673 904.529 257.557 904.458 257.637C903.983 258.171 902.805 258.312 902.186 258.683C900.861 259.478 899.675 260.791 898.33 261.463" stroke="#231F20" stroke-width="3.59043" stroke-linecap="round"/>
<path d="M1007.67 252.059C1010.9 252.221 1013.78 254.088 1016.62 255.507C1018.69 256.543 1017.42 257.229 1016.32 258.325C1014.79 259.855 1012.9 261.299 1011.25 262.768C1010.34 263.573 1008.27 266.513 1008.27 264.591" stroke="#231F20" stroke-width="3.59043" stroke-linecap="round"/>
<g clip-path="url(#clip1_1735_8258)">
<path d="M201.197 256.071C202.599 264.123 201.581 266.612 202.462 277.219" stroke="#FCCB26" stroke-width="3.59043" stroke-linecap="round" stroke-linejoin="round"/>
<path d="M194.83 265.432C201.276 269.77 206.309 266.132 214.538 267.965" stroke="#FCCB26" stroke-width="3.59043" stroke-linecap="round" stroke-linejoin="round"/>
</g>
<path d="M175.349 263.356C182.906 258.36 190.69 254.901 207.308 238.669C218.838 242.662 219.95 258.228 231.241 267.562M230.247 269.663C223.475 272.688 212.112 285.402 200.533 293.966C192.018 292.173 188.806 278.422 179.09 265.692" stroke="#FCCB26" stroke-width="3.59043" stroke-linecap="round"/>
<path d="M1025.65 233.003C1074.48 234.837 1129.27 233.617 1181.32 233.845M1184.31 235.913C1182.46 254.866 1183.4 265.283 1178.59 281.093M1178.94 280.01C1120.13 279.594 1058.55 283.352 1020.3 281.373M1018.32 281.139C1019.62 267.06 1017.25 258.428 1017.94 235.741" stroke="#231F20" stroke-width="3.59043" stroke-linecap="round"/>
<path d="M1243.76 231.043C1273.21 230.778 1311.11 230.311 1397.97 231.04M1401.79 235.005C1404.44 246.555 1401.45 260.915 1406.06 277.632M1402.88 281.174C1353.26 285.237 1295.82 281.008 1242.39 280.236C1238.81 264.183 1243.14 246.78 1240 235.392" stroke="#231F20" stroke-width="3.59043" stroke-linecap="round"/>
<path d="M908.883 255.947C912.829 249.918 918.977 239.971 936.281 229.654M938.599 229.654C939.994 239.324 952.979 245.151 961.605 255.907M962.133 255.656C949.768 265.507 944.269 276.188 936.281 285.014C928.438 272.763 915.186 259.013 910.191 256.716" stroke="#FCCB26" stroke-width="3.59043" stroke-linecap="round"/>
<path d="M289.554 207.53C329.63 204.567 317.57 207.668 407.237 212.591M407.237 216.772C406.101 235.483 402.786 277.689 405.683 288.442M403.199 289.637C366.777 293.282 365.747 292.829 294.235 294.562M287.143 289.922C285.932 275.726 292.09 231.69 287.143 212.591" stroke="#231F20" stroke-width="3.59043" stroke-linecap="round"/>
<path d="M1320.85 199.735C1316.81 214.994 1319.5 218.65 1319.5 229.339" stroke="#231F20" stroke-width="3.59043" stroke-linecap="round"/>
<path d="M768.362 195.696C768.14 212.352 769.184 216.342 768.365 232.19" stroke="#231F20" stroke-width="3.59043" stroke-linecap="round"/>
<path d="M849.587 232.123C764.181 235.286 727.95 233.658 695.42 228.164C697.945 243.453 691.133 271.782 689.832 281.866M848.088 237.71C853.07 253.382 848.476 268.147 848.209 280.661M844.853 280.809C811.149 282.32 785.043 279.331 691.629 282.743" stroke="#231F20" stroke-width="3.59043" stroke-linecap="round"/>
<path d="M1314.11 207.396C1315.09 205.893 1316.55 204.544 1317.82 203.275C1318.45 202.64 1320.38 201.346 1320.48 200.409C1320.5 200.17 1320.86 198.603 1321.05 198.97C1321.18 199.242 1321.05 199.615 1321.11 199.907C1321.29 200.904 1321.99 201.9 1322.42 202.806C1323.34 204.764 1324.9 206.883 1326.44 208.424" stroke="#231F20" stroke-width="3.59043" stroke-linecap="round"/>
<path d="M1102.45 231.061C1100.16 218.406 1096.45 201.495 1102.39 195.188" stroke="#231F20" stroke-width="3.59043" stroke-linecap="round"/>
<path d="M1094.2 200.143C1096.19 198.79 1102.55 192.502 1102.55 197.457C1102.55 199.761 1103.03 201.588 1103.74 203.723" stroke="#231F20" stroke-width="3.59043" stroke-linecap="round"/>
<path d="M551.487 233.459C547.563 220.085 545.005 204.348 545.395 192.631" stroke="#231F20" stroke-width="3.59043" stroke-linecap="round"/>
<path d="M554.632 241.631C568.2 241.631 526.314 237.325 513.93 241.631C504.067 245.061 494.883 249.213 487.581 255.54C481.176 261.09 482.075 267.744 482.075 274.722C482.075 287.782 511.287 294.109 523.958 295.89C543.442 298.629 569.601 300.979 588.944 295.967C601.926 292.603 609.492 280.714 609.492 270.519C609.492 259.829 605.901 253.407 595.728 246.064C581.449 235.757 551.297 233.378 533.396 233.378" stroke="#FCCB26" stroke-width="3.59043" stroke-linecap="round"/>
<path d="M539.809 285.813C540.053 283.613 539.844 283.956 540.559 284.313" stroke="#FCCB26" stroke-width="3.59043" stroke-linecap="round"/>
<path d="M543.56 254.309C543.56 250.732 548.124 251.308 550.687 251.308C555.025 251.308 555.563 253.607 555.563 258.06C555.563 268.224 540.559 264.207 540.559 273.814" stroke="#FCCB26" stroke-width="3.59043" stroke-linecap="round"/>
<path d="M936.222 230.237C933.349 229.519 917.372 246.693 909.742 255.37L936.222 284.093L960.906 255.37C954.174 252.678 939.812 231.135 936.222 230.237Z" fill="#FCCB26"/>
<path d="M115.808 264.205C115.488 282.99 99.3847 304.411 86.7049 296.538M115.808 264.205V264.205ZM81.8039 298.757C65.9635 300.706 50.7434 282.81 48.2209 268.895M47.7992 264.205C45.4929 244.123 62.6119 223.937 82.9518 228.697M81.8039 229.653C104.81 232.66 113.965 243.278 114.436 268.008" stroke="#231F20" stroke-width="3.59043" stroke-linecap="round"/>
<path d="M539.866 206.008C539.585 202.627 540.842 199.941 541.717 196.678C542.193 194.899 541.835 192.712 543.078 191.273C544.022 190.18 544.722 191.966 545.219 192.7C546.712 194.908 547.84 197.084 549.817 198.938C551.609 200.617 552.911 202.639 554.615 204.343" stroke="#231F20" stroke-width="3.59043" stroke-linecap="round"/>
<path d="M1170.5 166.974C1204.2 164.644 1239.95 168.469 1289.88 166.973" stroke="#231F20" stroke-width="3.59043" stroke-linecap="round"/>
<path d="M1278.77 161.257C1280.27 161.498 1281.58 162.683 1282.87 163.424C1284.41 164.313 1286.01 165.105 1287.52 166.045C1287.91 166.29 1288.45 166.447 1288.76 166.794C1289.29 167.378 1286.99 168.739 1286.61 169.067C1284.62 170.813 1282.42 172.653 1281.3 175.111C1281.13 175.492 1280.47 177.637 1280.22 177.385" stroke="#231F20" stroke-width="3.59043" stroke-linecap="round"/>
<path d="M1295.91 166.504C1302.88 160.531 1311.88 156.408 1323.3 141.701M1325.58 141.313C1324.66 149.998 1331.98 152.827 1350.1 171.228C1342.37 177.215 1334.86 178.525 1324.07 196.632M1321.3 194.332C1316.87 192.516 1313.8 182.784 1295.91 168.75" stroke="#FCCB26" stroke-width="3.59043" stroke-linecap="round"/>
<path d="M1323.09 143.617L1295.71 166.955L1323.99 195.678L1349.57 170.994L1323.09 143.617Z" fill="#FCCB26"/>
<path d="M744.873 166.619C749.124 159.026 752.879 157.672 769.366 144.276M769.763 145.339C776.304 150.06 784.588 156.273 797.999 170.319C788.923 176.748 781.095 175.794 769.763 192.554M768.254 190.652C763.427 189.845 757.314 186.824 744.915 165.149" stroke="#FCCB26" stroke-width="3.59043" stroke-linecap="round"/>
<path d="M768.818 145.861L745.48 166.057L757.598 184.458L769.715 190.293L796.644 169.648L768.818 145.861Z" fill="#FCCB26"/>
<path d="M1053.13 141.066C1034.78 144.161 1015.46 147.657 1009.5 159.869C1003.39 172.39 1017.12 181.059 1035.56 184.902C1062.7 190.557 1097.75 190.415 1125.78 187.017C1147.56 184.376 1170.44 176.138 1166.45 161.632C1164.26 153.675 1148.65 143.416 1136.84 139.773C1123.2 135.569 1106.25 135.614 1091.43 134.191C1079.35 133.031 1041.44 130.377 1030.92 134.191" stroke="#FCCB26" stroke-width="3.59043" stroke-linecap="round"/>
<path d="M1091.21 179.872C1090.52 179.261 1090.09 179.137 1089.71 178.371" stroke="#FCCB26" stroke-width="3.59043" stroke-linecap="round"/>
<path d="M1085.96 152.116C1085.96 149.2 1086.08 148.159 1088.37 146.281C1091.66 143.592 1096.75 145.392 1098.29 148.698C1100.21 152.8 1096.83 158.411 1093.5 160.701C1090.43 162.815 1090.46 164.431 1090.46 167.87" stroke="#FCCB26" stroke-width="3.59043" stroke-linecap="round"/>
<path d="M614.878 133.745C614.878 133.745 682.647 117.138 739.2 166.174" stroke="#231F20" stroke-width="3.59043" stroke-linecap="round"/>
<path d="M729.562 166.317C732.671 166.317 735.982 165.96 738.997 166.63C740.082 166.871 737.465 161.313 737.323 160.946C736.504 158.841 735.764 156.69 734.858 154.619C734.812 154.513 734.196 152.927 734.196 153.406" stroke="#231F20" stroke-width="3.59043" stroke-linecap="round"/>
<path d="M613.973 180.511C609.608 157.337 614.186 109.191 613.973 98.0043C558.584 100.688 527.504 92.8867 492.166 97.584M611.389 180.511C559.887 183.615 522.792 186.516 489.213 180.511C490.311 172.447 490.953 122.451 489.951 100.708" stroke="#231F20" stroke-width="3.59043" stroke-linecap="round"/>
<path d="M1236.03 79.4593C1100.93 71.3598 1090.16 131.499 1090.16 131.499" stroke="#231F20" stroke-width="3.59043" stroke-linecap="round"/>
<path d="M1223.33 70.6025C1224.13 72.7886 1229.1 76.0482 1231.11 77.4442C1232.28 78.2541 1233.07 79.2583 1234.27 80.0756C1237.08 81.9888 1230.57 81.019 1229.42 81.3621C1224.83 82.7291 1219.96 84.2519 1215.97 86.9172" stroke="#231F20" stroke-width="3.59043" stroke-linecap="round"/>
<path d="M1405.01 103.789C1399.7 80.6887 1402.48 32.6939 1402.22 21.5427C1333 24.2925 1287.15 20.7524 1242.66 26.2939C1244.48 42.9855 1243.78 89.2998 1242.28 98.3174M1402.92 108.774C1340.3 111.868 1283.11 106.985 1242.28 100.998" stroke="#231F20" stroke-width="3.59043" stroke-linecap="round"/>
</g>
<defs>
<clipPath id="clip0_1735_8258">
<rect width="1440" height="320" fill="white"/>
</clipPath>
<clipPath id="clip1_1735_8258">
<rect width="23.3378" height="25.133" fill="white" transform="translate(193.003 254.023)"/>
</clipPath>
</defs>
</svg>
