<svg xmlns="http://www.w3.org/2000/svg" width="72" height="20" viewBox="0 0 72 20" fill="none">
  <path d="M55.4353 16.0799L59.8782 6.29741L63.347 13.9352H68.0483L61.7369 0.00505539L61.712 0H58.0444L48.9648 19.9949L70.22 19.9848L71.9992 16.0799H55.4353Z" fill="#231F20"/>
  <path d="M43.4701 0H38.6545L36.8704 3.92008H43.1768L43.1967 3.93019L35.9062 19.9949L40.5976 19.9899L47.8931 3.92008H52.9323L54.7214 0H43.4701Z" fill="#231F20"/>
  <path d="M14.3027 19.9938L16.0768 16.0889H9.84488L17.1652 0.00390625H0L1.77416 3.91893H10.6997L3.38433 19.9938H14.3027Z" fill="#231F20"/>
  <path d="M19.8288 8.04297H35.1354L33.3463 11.963H18.0547L19.8288 8.04297Z" fill="#E26655"/>
  <path d="M23.3533 0H38.6549L36.8708 3.92008H21.5742L23.3533 0Z" fill="#FCCB26"/>
  <path d="M16.0838 16.0781H31.3854L29.6013 19.9982H14.3047L16.0838 16.0781Z" fill="#00ABEA"/>
</svg>