<svg xmlns="http://www.w3.org/2000/svg" width="104" height="104" viewBox="0 0 104 104" fill="none">
  <path fill-rule="evenodd" clip-rule="evenodd" d="M88.6078 81.575C89.6701 82.8488 89.9618 84.4797 89.3894 85.9375C88.7362 87.6032 87.1276 88.7589 85.0807 89.0334V90.2426C85.0807 90.6089 84.9352 90.9602 84.6762 91.2193C84.4171 91.4783 84.0658 91.6238 83.6995 91.6238C83.3332 91.6238 82.9818 91.4783 82.7228 91.2193C82.4638 90.9602 82.3182 90.6089 82.3182 90.2426V88.9485C79.9185 88.4538 78.0985 86.8388 77.5651 84.5216C77.483 84.1643 77.5462 83.7891 77.7408 83.4784C77.9354 83.1678 78.2454 82.9471 78.6027 82.8651C78.9599 82.783 79.3351 82.8462 79.6458 83.0408C79.9565 83.2354 80.1771 83.5454 80.2592 83.9026C80.7174 85.8955 82.8171 86.541 84.7001 86.2959C85.7267 86.1618 86.5394 85.6379 86.8179 84.928C87.0253 84.3999 86.9087 83.8514 86.4862 83.342C85.7937 82.5102 85.0907 82.3715 83.808 82.1789C83.0206 82.0844 82.2453 81.9077 81.4948 81.6518L81.4513 81.6351C79.3967 80.8023 78.1869 79.1857 78.2145 77.31C78.2444 75.3982 79.5368 73.6907 81.5084 72.9593C81.773 72.8618 82.0432 72.7804 82.3176 72.7155V71.3871C82.3176 71.0208 82.4632 70.6694 82.7222 70.4104C82.9812 70.1514 83.3325 70.0058 83.6989 70.0058C84.0652 70.0058 84.4165 70.1514 84.6756 70.4104C84.9346 70.6694 85.0801 71.0208 85.0801 71.3871V72.6808C87.038 73.1165 88.6939 74.5416 89.515 76.7082C89.6447 77.0507 89.6331 77.4308 89.4826 77.7648C89.3322 78.0988 89.0552 78.3594 88.7126 78.4891C88.37 78.6189 87.9899 78.6073 87.6559 78.4568C87.3219 78.3064 87.0614 78.0294 86.9316 77.6868C86.1776 75.6982 84.3852 74.8396 82.469 75.5499C81.587 75.8764 80.9886 76.6005 80.9768 77.351C80.967 78.0577 81.496 78.6659 82.4669 79.0654C83.0357 79.25 83.6215 79.3776 84.2156 79.4461C85.6192 79.6563 87.2097 79.8952 88.607 81.5734L88.6078 81.575ZM93.7751 90.985C96.1335 88.6317 97.6028 85.5334 97.9325 82.2182C98.2622 78.9029 97.432 75.5759 95.5834 72.8042C93.7347 70.0325 90.9821 67.9878 87.7946 67.0184C84.6071 66.049 81.1821 66.2151 78.1034 67.4883C75.0246 68.7615 72.4827 71.063 70.9109 74.0005C69.339 76.938 68.8346 80.3298 69.4835 83.5976C70.1325 86.8654 71.8946 89.807 74.4696 91.9211C77.0446 94.0351 80.273 95.1907 83.6046 95.1909C85.4937 95.197 87.3653 94.8284 89.111 94.1064C90.8568 93.3845 92.442 92.3235 93.7751 90.985ZM76.7483 27.4887L80.7054 30.5246V63.917C77.7992 64.4071 75.0707 65.6458 72.7888 67.5111V30.5246L76.7483 27.4887ZM95.7292 68.6914C94.1405 67.0944 92.251 65.8282 90.1698 64.9662C88.0887 64.1042 85.8572 63.6635 83.6046 63.6696C83.5595 63.6696 83.5138 63.6728 83.4683 63.673V29.8434C83.4686 29.6312 83.4199 29.4219 83.3261 29.2317C83.2323 29.0415 83.0958 28.8754 82.9274 28.7465L77.5887 24.6509C77.3475 24.4658 77.0519 24.3655 76.7478 24.3655C76.4438 24.3655 76.1482 24.4658 75.907 24.6509L70.5664 28.7459C70.3981 28.8749 70.2618 29.041 70.168 29.2312C70.0742 29.4214 70.0254 29.6307 70.0255 29.8427V70.3544C67.2873 73.9139 66.0555 78.4059 66.5951 82.8643H6.0125V10.1022C6.0125 9.73591 5.86698 9.38459 5.60794 9.12555C5.34891 8.86652 4.99758 8.72099 4.63125 8.72099C4.26492 8.72099 3.91359 8.86652 3.65456 9.12555C3.39552 9.38459 3.25 9.73591 3.25 10.1022V84.2457C3.25 84.612 3.39552 84.9634 3.65456 85.2224C3.91359 85.4814 4.26492 85.627 4.63125 85.627H67.1531C67.8865 88.1353 69.1837 90.4427 70.9455 92.373C72.7073 94.3032 74.887 95.8051 77.3181 96.7639C79.7492 97.7227 82.3674 98.1131 84.9724 97.9051C87.5775 97.6971 90.1005 96.8962 92.3487 95.5638C94.5969 94.2314 96.5107 92.4026 97.9438 90.2173C99.377 88.0319 100.292 85.5479 100.618 82.9549C100.944 80.362 100.673 77.7288 99.8253 75.2567C98.9779 72.7845 97.5766 70.5388 95.7283 68.6912L95.7292 68.6914ZM10.2054 49.232C10.266 49.4031 10.3597 49.5605 10.4812 49.6953C10.6028 49.8301 10.7497 49.9396 10.9136 50.0175C11.0774 50.0954 11.2551 50.1403 11.4363 50.1494C11.6176 50.1586 11.7988 50.1319 11.9698 50.0709C36.179 41.4536 57.2813 29.6057 74.7565 14.8349L74.3856 17.8498C74.3633 18.0299 74.3768 18.2126 74.4251 18.3874C74.4735 18.5623 74.5558 18.7259 74.6675 18.869C74.7791 19.012 74.9178 19.1317 75.0756 19.2211C75.2335 19.3105 75.4074 19.3679 75.5875 19.3901C75.6438 19.3968 75.7005 19.4004 75.7573 19.4007C76.0943 19.4004 76.4196 19.277 76.6719 19.0535C76.9242 18.8301 77.0861 18.5221 77.1272 18.1876L77.9362 11.6218C77.9593 11.434 77.9436 11.2434 77.89 11.062C77.8364 10.8805 77.7462 10.7119 77.6248 10.5667C77.5035 10.4215 77.3536 10.3028 77.1845 10.2178C77.0154 10.1329 76.8306 10.0836 76.6417 10.073L70.008 9.7094C69.8269 9.69954 69.6456 9.72546 69.4745 9.78566C69.3034 9.84587 69.1459 9.93919 69.0108 10.0603C68.8758 10.1814 68.7659 10.3279 68.6875 10.4915C68.6091 10.655 68.5636 10.8324 68.5538 11.0136C68.5439 11.1947 68.5698 11.376 68.63 11.5471C68.6902 11.7182 68.7836 11.8758 68.9047 12.0108C69.0258 12.1458 69.1723 12.2557 69.3358 12.3341C69.4994 12.4125 69.6768 12.458 69.8579 12.4678L73.0673 12.6442C55.8291 27.2375 34.9814 38.946 11.0423 47.4679C10.6974 47.591 10.4156 47.846 10.2587 48.1769C10.1018 48.5077 10.0827 48.8873 10.2056 49.2322L10.2054 49.232ZM23.2635 75.8002H15.3469V61.0342L19.3062 57.9983L23.2635 61.0342V75.8002ZM20.147 55.1611L25.4855 59.2567C25.6538 59.3855 25.7901 59.5514 25.884 59.7414C25.9778 59.9315 26.0266 60.1406 26.0266 60.3525V77.1818C26.0266 77.5482 25.8811 77.8995 25.6221 78.1585C25.363 78.4176 25.0117 78.5631 24.6454 78.5631H13.965C13.5988 78.5628 13.2477 78.4171 12.9887 78.1582C12.7297 77.8992 12.5841 77.5481 12.5838 77.1818V60.3529C12.5837 60.1408 12.6325 59.9315 12.7263 59.7413C12.8202 59.5511 12.9566 59.3851 13.1249 59.2561L18.4653 55.1609C18.7065 54.9757 19.0021 54.8754 19.3062 54.8754C19.6103 54.8754 19.9059 54.9757 20.1472 55.1609L20.147 55.1611ZM42.4125 75.8002H34.4937V51.2137L38.4528 48.178L42.4125 51.2137V75.8002ZM39.2939 45.3408L44.6322 49.4364C44.8009 49.5652 44.9377 49.7312 45.0318 49.9214C45.126 50.1116 45.1751 50.321 45.1752 50.5333V77.1833C45.1752 77.3646 45.1395 77.5443 45.0701 77.7118C45.0006 77.8794 44.8989 78.0317 44.7706 78.16C44.6424 78.2882 44.4901 78.39 44.3225 78.4594C44.155 78.5288 43.9753 78.5645 43.794 78.5645H33.1118C32.7456 78.5641 32.3945 78.4185 32.1355 78.1595C31.8766 77.9006 31.7309 77.5495 31.7306 77.1833V50.5326C31.7308 50.3206 31.7797 50.1115 31.8735 49.9214C31.9672 49.7312 32.1033 49.5651 32.2713 49.4358L37.612 45.3404C37.8533 45.1552 38.1489 45.0548 38.4531 45.0548C38.7572 45.0548 39.0529 45.1552 39.2941 45.3404L39.2939 45.3408ZM61.5587 75.8002H53.6425V39.9204L57.5995 36.8847L61.5587 39.9204V75.8002ZM58.4403 34.0474L63.7812 38.143C63.9497 38.272 64.0862 38.438 64.1801 38.6282C64.274 38.8185 64.3227 39.0278 64.3226 39.2399V77.1837C64.3226 77.55 64.1771 77.9013 63.918 78.1604C63.659 78.4194 63.3077 78.5649 62.9413 78.5649H52.2606C51.8943 78.5649 51.543 78.4194 51.2839 78.1604C51.0249 77.9013 50.8794 77.55 50.8794 77.1837V39.2391C50.8793 39.027 50.928 38.8177 51.0218 38.6275C51.1156 38.4373 51.252 38.2713 51.4203 38.1422L56.759 34.0472C57.0002 33.8621 57.2958 33.7618 57.5999 33.7618C57.9039 33.7618 58.1995 33.8621 58.4407 34.0472L58.4403 34.0474ZM14.5693 17.6014L18.7454 13.0323C18.9083 12.8548 19.0343 12.6467 19.116 12.42C19.1977 12.1933 19.2334 11.9526 19.2211 11.712L19.1523 10.3133C19.42 10.4122 19.7072 10.447 19.9907 10.4149C23.2062 10.0547 25.6376 10.3417 27.2322 11.2739C29.512 12.5739 30.8421 14.7648 31.302 17.9652V28.3126H20.4902C22.4988 25.8626 23.7009 22.8516 23.9322 19.692C23.9626 19.31 23.8719 18.9281 23.673 18.6005C23.4741 18.273 23.1771 18.0164 22.8241 17.8672C22.4711 17.7179 22.0801 17.6837 21.7066 17.7693C21.3331 17.8548 20.996 18.0559 20.7431 18.3438C20.4614 18.6646 19.6044 19.6424 17.0997 19.1801C16.6975 19.1056 16.282 19.1686 15.9201 19.359C15.5582 19.5494 15.2708 19.8561 15.1044 20.2297C14.9622 20.5471 14.8123 20.6857 14.532 20.7257C13.9675 20.4547 13.8767 20.1858 13.8452 20.0915C13.7664 19.8543 13.6795 19.1423 14.5697 17.601L14.5693 17.6014ZM32.913 33.3001C32.9122 33.3744 32.8824 33.4455 32.83 33.4981C32.7775 33.5507 32.7065 33.5807 32.6322 33.5817H17.1805C17.1063 33.5807 17.0353 33.5506 16.9829 33.498C16.9305 33.4454 16.9007 33.3744 16.9 33.3001V31.3577C16.9008 31.2835 16.9305 31.2126 16.9828 31.16C17.0352 31.1075 17.106 31.0774 17.1801 31.0763H32.6324C32.7066 31.0775 32.7774 31.1076 32.8297 31.1602C32.882 31.2129 32.9117 31.2839 32.9123 31.3581V33.3003L32.913 33.3001ZM13.6754 23.3673C12.414 22.8548 11.5909 22.0503 11.2277 20.9774C10.7717 19.6317 11.1036 18.041 12.2362 16.116C12.301 16.0051 12.3777 15.9018 12.4652 15.8078L16.4424 11.4563L16.2723 7.96253C16.2535 7.57569 16.3582 7.19289 16.5714 6.86954C16.7845 6.5462 17.0951 6.2991 17.4581 6.16403C17.8211 6.02896 18.2176 6.01292 18.5903 6.11825C18.963 6.22357 19.2925 6.44479 19.5311 6.74987L20.2079 7.61518C23.8217 7.27413 26.5755 7.68953 28.6138 8.88187C31.6455 10.6113 33.4772 13.5625 34.0474 17.6477C34.0591 17.7311 34.065 17.8152 34.0653 17.8994V28.6734C34.5515 28.9332 34.9581 29.3201 35.2418 29.7928C35.5254 30.2655 35.6755 30.8064 35.6761 31.3577V33.3001C35.6754 34.1071 35.3547 34.8809 34.7842 35.4517C34.2137 36.0224 33.44 36.3435 32.633 36.3446H17.1803C16.3734 36.3432 15.6 36.022 15.0296 35.4513C14.4592 34.8806 14.1384 34.107 14.1375 33.3001V31.3579C14.1385 30.6452 14.3892 29.9555 14.8461 29.4087C15.303 28.8618 15.9371 28.4923 16.6382 28.3646C16.6461 28.3585 16.6504 28.352 16.6585 28.3461C18.8394 26.3852 20.2209 24.1644 20.8429 21.6024C19.8226 22.0307 18.6318 22.1631 17.2705 21.9997C16.9533 22.4702 16.5236 22.8539 16.0203 23.1161C15.5171 23.3782 14.9563 23.5105 14.389 23.5008C14.1444 23.5058 13.9015 23.4603 13.6754 23.3669V23.3673Z" fill="#231F20"/>
  <path fill-rule="evenodd" clip-rule="evenodd" d="M53.6426 39.9204V75.8002H61.5588V39.9204L57.5997 36.8847L53.6426 39.9204Z" fill="white"/>
  <path fill-rule="evenodd" clip-rule="evenodd" d="M23.2638 75.8002V61.0342L19.3065 57.9983L15.3472 61.0342V75.8002H23.2638Z" fill="white"/>
  <path fill-rule="evenodd" clip-rule="evenodd" d="M20.4904 28.313H31.3017V17.9656C30.8422 14.7652 29.5122 12.5745 27.2323 11.2735C25.6376 10.3413 23.2063 10.0547 19.9909 10.4145C19.7073 10.4466 19.4201 10.4118 19.1524 10.3129L19.2212 11.7116C19.2335 11.9523 19.1978 12.1929 19.1161 12.4196C19.0344 12.6463 18.9085 12.8544 18.7455 13.0319L14.5695 17.6014C13.6792 19.1427 13.7661 19.8547 13.8449 20.0919C13.8764 20.1862 13.9668 20.4551 14.5317 20.7261C14.812 20.6855 14.9619 20.5476 15.1041 20.2301C15.2705 19.8565 15.5579 19.5498 15.9198 19.3594C16.2818 19.1691 16.6973 19.106 17.0994 19.1805C19.6041 19.6428 20.4611 18.665 20.7428 18.3443C20.9957 18.0563 21.3328 17.8552 21.7063 17.7697C22.0799 17.6841 22.4709 17.7184 22.8238 17.8676C23.1768 18.0168 23.4738 18.2734 23.6727 18.601C23.8716 18.9285 23.9623 19.3104 23.9319 19.6924C23.7008 22.852 22.4988 25.8629 20.4904 28.313Z" fill="white"/>
  <path fill-rule="evenodd" clip-rule="evenodd" d="M73.4363 70.6451C71.0836 72.9978 69.6195 76.0934 69.2934 79.4046C68.9673 82.7158 69.7994 86.0376 71.6479 88.8041C73.4965 91.5705 76.2471 93.6104 79.431 94.5762C82.615 95.542 86.0353 95.3739 89.1092 94.1005C92.1831 92.8272 94.7204 90.5274 96.2887 87.593C97.8571 84.6586 98.3594 81.2712 97.7102 78.008C97.061 74.7447 95.3004 71.8075 92.7283 69.6969C90.1562 67.5862 86.9319 66.4327 83.6047 66.4329C79.7911 66.4346 76.134 67.9495 73.4363 70.6451ZM82.3179 88.9485C79.9182 88.4538 78.0982 86.8388 77.5648 84.5215C77.4827 84.1643 77.5459 83.7891 77.7405 83.4784C77.9351 83.1678 78.2451 82.9471 78.6024 82.8651C78.9596 82.783 79.3348 82.8462 79.6455 83.0408C79.9561 83.2354 80.1768 83.5454 80.2588 83.9026C80.7171 85.8955 82.8168 86.541 84.6998 86.2958C85.7264 86.1618 86.5391 85.6379 86.8175 84.928C87.0249 84.3999 86.9083 83.8514 86.4858 83.342C85.7934 82.5102 85.0904 82.3715 83.8076 82.1789C83.0203 82.0844 82.245 81.9077 81.4945 81.6518L81.451 81.6351C79.3964 80.8023 78.1866 79.1857 78.2142 77.31C78.244 75.3982 79.5365 73.6907 81.5081 72.9593C81.7727 72.8618 82.0429 72.7804 82.3173 72.7155V71.3871C82.3173 71.0208 82.4628 70.6694 82.7219 70.4104C82.9809 70.1514 83.3322 70.0058 83.6986 70.0058C84.0649 70.0058 84.4162 70.1514 84.6753 70.4104C84.9343 70.6694 85.0798 71.0208 85.0798 71.3871V72.6808C87.0377 73.1165 88.6936 74.5416 89.5146 76.7081C89.5789 76.8778 89.6091 77.0584 89.6036 77.2397C89.598 77.421 89.5568 77.5994 89.4823 77.7648C89.4078 77.9302 89.3015 78.0793 89.1694 78.2036C89.0372 78.3278 88.8819 78.4249 88.7123 78.4891C88.5427 78.5534 88.3621 78.5836 88.1808 78.5781C87.9994 78.5725 87.821 78.5313 87.6556 78.4568C87.4903 78.3823 87.3412 78.276 87.2169 78.1439C87.0926 78.0117 86.9956 77.8564 86.9313 77.6868C86.1773 75.6982 84.3849 74.8396 82.4686 75.5499C81.5867 75.8763 80.9883 76.6005 80.9765 77.351C80.9667 78.0577 81.4957 78.6659 82.4666 79.0654C83.0354 79.25 83.6212 79.3776 84.2153 79.4461C85.6189 79.6563 87.2094 79.8952 88.6067 81.5734C89.669 82.8472 89.9607 84.4781 89.3883 85.9359C88.7351 87.6015 87.1265 88.7573 85.0796 89.0317V90.2409C85.0796 90.6073 84.9341 90.9586 84.6751 91.2176C84.416 91.4767 84.0647 91.6222 83.6984 91.6222C83.332 91.6222 82.9807 91.4767 82.7217 91.2176C82.4626 90.9586 82.3171 90.6073 82.3171 90.2409L82.3179 88.9485Z" fill="white"/>
</svg>