<svg xmlns="http://www.w3.org/2000/svg" width="104" height="104" viewBox="0 0 104 104" fill="none">
  <path fill-rule="evenodd" clip-rule="evenodd" d="M100.75 33.606C100.751 33.8488 100.687 34.0875 100.566 34.2979C100.444 34.5083 100.27 34.683 100.059 34.8044L95.5704 37.3953C95.3611 37.5171 95.1232 37.5811 94.881 37.5807C94.5766 37.5814 94.2806 37.4815 94.0388 37.2965C93.7971 37.1116 93.6232 36.852 93.5442 36.558C93.4651 36.2641 93.4855 35.9523 93.6019 35.671C93.7184 35.3898 93.9245 35.1549 94.1882 35.0029L98.6772 32.411C98.8871 32.2902 99.125 32.2266 99.3672 32.2267C99.6094 32.2268 99.8473 32.2905 100.057 32.4114C100.267 32.5323 100.441 32.7062 100.563 32.9158C100.684 33.1253 100.748 33.363 100.749 33.6052L100.75 33.606ZM93.6696 27.4986C93.6703 27.1942 93.5704 26.8981 93.3855 26.6563C93.2005 26.4146 92.9409 26.2406 92.6469 26.1616C92.353 26.0826 92.0412 26.1029 91.7599 26.2193C91.4787 26.3358 91.2438 26.5419 91.0917 26.8056L88.7816 30.8071C88.6019 31.1245 88.5548 31.5 88.6508 31.8519C88.7467 32.2037 88.9778 32.5034 89.2937 32.6857C89.6096 32.8679 89.9848 32.9179 90.3374 32.8247C90.69 32.7316 90.9915 32.5029 91.1762 32.1884L93.4835 28.1868C93.6056 27.9778 93.6698 27.7401 93.6696 27.498V27.4986ZM81.5808 29.7192V25.5206C81.5808 25.1543 81.7263 24.803 81.9854 24.5439C82.2444 24.2849 82.5957 24.1394 82.9621 24.1394C83.3284 24.1394 83.6797 24.2849 83.9387 24.5439C84.1978 24.803 84.3433 25.1543 84.3433 25.5206V29.7192C84.3433 30.0857 84.1977 30.4371 83.9386 30.6963C83.6795 30.9554 83.328 31.101 82.9615 31.101C82.5951 31.101 82.2436 30.9554 81.9845 30.6963C81.7254 30.4371 81.5798 30.0857 81.5798 29.7192H81.5808ZM71.7981 27.95C71.6758 27.7411 71.6115 27.5033 71.612 27.2612C71.6113 26.9567 71.7112 26.6606 71.8961 26.4188C72.0811 26.1769 72.3408 26.003 72.6348 25.924C72.9288 25.8449 73.2407 25.8653 73.522 25.9818C73.8032 26.0983 74.0381 26.3045 74.1901 26.5683L76.8179 31.1208C76.9395 31.33 77.0033 31.5678 77.0028 31.8098C77.0034 32.1141 76.9035 32.4102 76.7186 32.652C76.5336 32.8937 76.274 33.0676 75.98 33.1466C75.6861 33.2256 75.3743 33.2053 75.093 33.0889C74.8118 32.9724 74.5769 32.7663 74.4249 32.5026L71.7981 27.95ZM64.8829 33.8609C64.883 34.1343 64.9641 34.4015 65.116 34.6288C65.2678 34.8561 65.4836 35.0334 65.736 35.1382L70.8444 37.2564C71.0116 37.3266 71.1912 37.3628 71.3726 37.3628C71.6927 37.3636 72.0033 37.2531 72.251 37.0502C72.4987 36.8473 72.6683 36.5647 72.7306 36.2506C72.793 35.9366 72.7444 35.6106 72.593 35.3285C72.4416 35.0463 72.1969 34.8256 71.9007 34.7039L66.7921 32.5859C66.4536 32.4459 66.0734 32.446 65.735 32.5863C65.3966 32.7266 65.1278 32.9955 64.9877 33.334C64.9173 33.5007 64.8811 33.6799 64.8815 33.8609H64.8829ZM87.2382 51.3282C87.0439 51.4533 86.884 51.6251 86.7733 51.8279C86.6625 52.0307 86.6044 52.258 86.6043 52.4891V53.9498H79.8179V52.4891C79.8177 52.258 79.7595 52.0306 79.6487 51.8278C79.5379 51.625 79.3779 51.4532 79.1835 51.3282C77.8299 50.4582 76.7945 49.1731 76.2322 47.6654C75.67 46.1577 75.6112 44.5085 76.0646 42.9645C76.518 41.4206 77.4592 40.065 78.7474 39.1007C80.0356 38.1365 81.6014 37.6153 83.2106 37.6153C84.8197 37.6153 86.3856 38.1365 87.6738 39.1007C88.9619 40.065 89.9032 41.4206 90.3566 42.9645C90.81 44.5085 90.7512 46.1577 90.1889 47.6654C89.6267 49.1731 88.5912 50.4582 87.2376 51.3282H87.2382ZM84.5637 58.2751H81.8595C81.402 58.2744 80.9579 58.1202 80.5985 57.8371C80.2391 57.5539 79.9852 57.1583 79.8774 56.7137H86.546C86.4382 57.1583 86.1843 57.5538 85.825 57.8369C85.4657 58.12 85.0217 58.2743 84.5643 58.2751H84.5637ZM83.2117 34.8499C81.0716 34.8502 78.9856 35.5227 77.2483 36.7725C75.5111 38.0224 74.2103 39.7864 73.5298 41.8155C72.8493 43.8445 72.8235 46.0361 73.4558 48.0806C74.0882 50.1252 75.3469 51.9195 77.0542 53.21V56.2339C77.0556 57.5079 77.5624 58.7293 78.4632 59.6301C79.3641 60.531 80.5855 61.0376 81.8595 61.039H84.5645C85.8382 61.0374 87.0593 60.5307 87.9599 59.6299C88.8605 58.7292 89.367 57.508 89.3684 56.2343V53.2102C91.0755 51.9196 92.334 50.1255 92.9664 48.081C93.5987 46.0366 93.5728 43.8451 92.8924 41.8162C92.2121 39.7872 90.9115 38.0232 89.1745 36.7733C87.4375 35.5234 85.3517 34.8507 83.2117 34.8501V34.8499ZM48.4318 46.6129C48.1111 47.8167 47.6534 48.9797 47.0676 50.0792C46.9674 50.2688 46.9124 50.479 46.9069 50.6933C46.9015 50.9077 46.9457 51.1204 47.0361 51.3148L48.4202 54.2699L44.8656 57.8246L42.0799 56.5199C41.8778 56.4256 41.6558 56.3815 41.433 56.3915C41.2102 56.4015 40.9931 56.4652 40.8002 56.5772C39.7233 57.202 38.5783 57.7014 37.3877 58.0655C37.1827 58.1282 36.995 58.2377 36.8395 58.3853C36.6839 58.533 36.5648 58.7147 36.4915 58.9162L35.3806 61.9834H30.3543L29.3062 59.0935C29.2303 58.8839 29.1048 58.6958 28.9404 58.5452C28.7761 58.3946 28.5777 58.2861 28.3623 58.2288C27.1585 57.9081 25.9955 57.4504 24.8959 56.8648C24.7064 56.7645 24.4963 56.7094 24.2819 56.704C24.0676 56.6985 23.8549 56.7428 23.6605 56.8333L20.7057 58.217L17.151 54.6623L18.4556 51.8781C18.5501 51.6761 18.5943 51.4542 18.5846 51.2314C18.5748 51.0086 18.5113 50.7914 18.3996 50.5984C17.7753 49.521 17.2753 48.3762 16.9093 47.1859C16.8469 46.9806 16.7376 46.7927 16.5899 46.6371C16.4422 46.4815 16.2603 46.3625 16.0586 46.2895L12.9936 45.1782V40.1497L15.8833 39.1036C16.0925 39.0277 16.2803 38.9022 16.4304 38.7379C16.5806 38.5735 16.6887 38.3753 16.7455 38.1601C17.0668 36.9571 17.5244 35.7948 18.1095 34.6958C18.2109 34.5065 18.2666 34.2962 18.272 34.0816C18.2775 33.867 18.2326 33.6541 18.141 33.46L16.7579 30.5031L20.3126 26.9478L23.0973 28.2526C23.2994 28.347 23.5213 28.391 23.7441 28.3811C23.967 28.3711 24.1841 28.3074 24.3769 28.1954C25.4551 27.5712 26.6007 27.0719 27.7919 26.7071C27.9966 26.6442 28.1839 26.5347 28.339 26.3871C28.4941 26.2394 28.6128 26.0577 28.6856 25.8564L29.7969 22.7906H34.8247L35.871 25.6786C35.9469 25.8881 36.0724 26.0762 36.2366 26.2267C36.4009 26.3773 36.5992 26.4859 36.8145 26.5433C38.0184 26.8634 39.1814 27.321 40.2806 27.9071C40.4699 28.0084 40.6802 28.0641 40.8948 28.0696C41.1093 28.0751 41.3222 28.0303 41.5164 27.9388L44.4715 26.5549L48.0272 30.1096L46.7223 32.8949C46.6279 33.0972 46.5837 33.3194 46.5936 33.5425C46.6035 33.7655 46.6671 33.9829 46.779 34.1762C47.4047 35.2526 47.9042 36.3977 48.2675 37.5887C48.3306 37.7932 48.4403 37.9804 48.5878 38.1355C48.7354 38.2905 48.917 38.4093 49.1182 38.4824L52.1854 39.5937V44.6213L49.2957 45.6676C49.0863 45.7436 48.8982 45.8691 48.7476 46.0334C48.597 46.1977 48.4883 46.3958 48.4306 46.6111L48.4318 46.6129ZM49.8255 50.7542C50.2531 49.8744 50.6127 48.9631 50.901 48.0283L53.5563 47.0649C53.9662 46.9199 54.3208 46.6508 54.5705 46.2948C54.8203 45.9389 54.9528 45.5139 54.9497 45.0791V39.1395C54.9527 38.7046 54.8201 38.2796 54.5702 37.9237C54.3203 37.5677 53.9657 37.2985 53.5556 37.1536L50.6942 36.1156C50.3738 35.1921 49.983 34.2946 49.5252 33.4309L50.7237 30.8689C50.9106 30.4766 50.9708 30.0358 50.8958 29.6078C50.8208 29.1798 50.6144 28.7857 50.3052 28.4803L46.1046 24.2797C45.7993 23.9698 45.405 23.7627 44.9765 23.6874C44.5481 23.612 44.1068 23.6721 43.714 23.8592L40.957 25.1501C40.0769 24.7229 39.1653 24.364 38.2303 24.0764L37.2671 21.4193C37.1221 21.0095 36.8528 20.6552 36.4969 20.4057C36.1409 20.1563 35.716 20.0241 35.2813 20.0277H29.3415C28.907 20.0247 28.4823 20.1571 28.1264 20.4064C27.7705 20.6558 27.5011 21.0098 27.3556 21.4193L26.318 24.2815C25.3937 24.602 24.4953 24.9927 23.6307 25.4503L21.0713 24.2519C20.6788 24.0648 20.2378 24.0047 19.8096 24.0801C19.3814 24.1554 18.9873 24.3625 18.6823 24.6724L14.4815 28.8724C14.172 29.1775 13.9651 29.5714 13.8898 29.9995C13.8144 30.4275 13.8742 30.8684 14.0608 31.2609L15.3547 34.0206C14.9261 34.9001 14.5661 35.8116 14.2782 36.7467L11.6215 37.7079C11.212 37.8534 10.858 38.1227 10.6086 38.4786C10.3592 38.8344 10.2267 39.2591 10.2297 39.6937V45.6355C10.2265 46.07 10.3587 46.4947 10.608 46.8506C10.8573 47.2064 11.2112 47.4758 11.6207 47.6212L14.4829 48.6572C14.8035 49.5814 15.1948 50.4796 15.6535 51.3437L14.4537 53.9031C14.2665 54.2954 14.2064 54.7364 14.2817 55.1645C14.357 55.5927 14.5639 55.9866 14.8737 56.2916L19.0744 60.4943C19.3797 60.8034 19.7738 61.0098 20.2018 61.0848C20.6299 61.1598 21.0706 61.0996 21.4629 60.9127L24.2211 59.6216C25.1013 60.05 26.0131 60.41 26.9485 60.6982L27.9103 63.3532C28.0551 63.7632 28.3242 64.1178 28.6801 64.3676C29.0359 64.6174 29.4609 64.75 29.8956 64.7469H35.8381C36.2728 64.7499 36.6977 64.6173 37.0535 64.3675C37.4093 64.1177 37.6784 63.7632 37.8232 63.3532L38.8591 60.4908C39.783 60.1705 40.6809 59.7798 41.5451 59.3222L44.1044 60.5207C44.4967 60.7076 44.9374 60.7677 45.3654 60.6927C45.7934 60.6177 46.1874 60.4114 46.4928 60.1022L50.6956 55.8996C51.0047 55.5942 51.2111 55.2002 51.286 54.7722C51.361 54.3442 51.3008 53.9035 51.1139 53.5112L49.8232 50.7534L49.8255 50.7542ZM32.5893 52.9608C34.6807 52.9606 36.7251 52.3403 38.4639 51.1782C40.2028 50.0162 41.558 48.3646 42.3583 46.4324C43.1585 44.5001 43.3678 42.374 42.9597 40.3228C42.5516 38.2716 41.5444 36.3875 40.0655 34.9087C38.5866 33.4299 36.7024 32.4229 34.6512 32.0149C32.5999 31.607 30.4738 31.8164 28.5416 32.6168C26.6094 33.4172 24.958 34.7725 23.7961 36.5115C22.6342 38.2504 22.014 40.2949 22.014 42.3863C22.017 45.19 23.1322 47.8781 25.1148 49.8605C27.0974 51.843 29.7855 52.958 32.5893 52.9608ZM32.5893 29.0481C29.9512 29.0479 27.3723 29.8301 25.1788 31.2956C22.9852 32.7611 21.2755 34.8442 20.2658 37.2814C19.2562 39.7186 18.9919 42.4005 19.5065 44.9879C20.021 47.5753 21.2913 49.9521 23.1567 51.8175C25.022 53.683 27.3986 54.9534 29.986 55.4681C32.5734 55.9829 35.2553 55.7188 37.6926 54.7092C40.1299 53.6997 42.2131 51.9901 43.6787 49.7967C45.1444 47.6032 45.9267 45.0244 45.9267 42.3863C45.9223 38.8502 44.5158 35.4603 42.0155 32.9598C39.5152 30.4594 36.1253 29.0526 32.5893 29.0481ZM77.2043 87.0021C76.4385 87.7607 75.4042 88.1863 74.3263 88.1863C73.2484 88.1863 72.2141 87.7607 71.4483 87.0021L57.129 72.6828C57.0976 72.649 57.0802 72.6045 57.0802 72.5584C57.0802 72.5122 57.0976 72.4678 57.129 72.4339L62.6366 66.9266C62.6702 66.8949 62.7147 66.8772 62.761 66.8772C62.8072 66.8772 62.8517 66.8949 62.8854 66.9266L77.2045 81.2457C77.9631 82.0116 78.3887 83.0459 78.3887 84.1239C78.3887 85.2019 77.9631 86.2362 77.2045 87.0021H77.2043ZM53.3448 63.1424C52.7941 63.6933 52.2256 64.2163 51.642 64.7176L56.2905 69.3645L59.5673 66.0877L54.92 61.439C54.4206 62.0214 53.8957 62.5917 53.3448 63.1424ZM13.7868 61.1883C18.7737 66.1745 25.5368 68.9756 32.5888 68.9756C39.6407 68.9756 46.4039 66.1745 51.3907 61.1883C61.7578 50.821 61.7586 33.9515 51.3907 23.5842C41.0228 13.2169 24.1541 13.2169 13.7866 23.5842C3.41912 33.9515 3.41993 50.821 13.7868 61.1883ZM64.8392 64.9726C64.4361 64.5706 63.925 64.2942 63.368 64.1768C62.8109 64.0595 62.2318 64.1061 61.7008 64.3112L56.6263 59.2379C64.6581 47.7929 63.564 31.8512 53.3448 21.63C41.9001 10.1849 23.2774 10.1849 11.8321 21.63C0.386865 33.075 0.3891 51.6975 11.8321 63.1426C16.7158 68.023 23.1625 71.0272 30.0406 71.6279C36.9187 72.2285 43.7885 70.3872 49.4442 66.4271L54.5156 71.4963C54.3097 72.0275 54.2623 72.6069 54.3793 73.1644C54.4963 73.722 54.7727 74.2335 55.1748 74.637L69.4938 88.9541C70.1283 89.5887 70.8815 90.0921 71.7105 90.4356C72.5395 90.7791 73.4281 90.956 74.3254 90.9561C75.2227 90.9562 76.1113 90.7795 76.9404 90.4362C77.7695 90.0929 78.5228 89.5897 79.1574 88.9552C79.792 88.3208 80.2954 87.5676 80.6389 86.7385C80.9824 85.9096 81.1593 85.021 81.1594 84.1237C81.1595 83.2263 80.9828 82.3377 80.6395 81.5087C80.2962 80.6796 79.793 79.9263 79.1585 79.2917L64.8392 64.9726Z" fill="#231F20"/>
  <path fill-rule="evenodd" clip-rule="evenodd" d="M44.8653 57.8246L48.42 54.2699L47.0359 51.3148C46.9454 51.1204 46.9012 50.9077 46.9067 50.6933C46.9121 50.479 46.9671 50.2688 47.0673 50.0792C47.6531 48.9797 48.1108 47.8167 48.4315 46.6129C48.4892 46.3976 48.598 46.1995 48.7486 46.0352C48.8992 45.871 49.0872 45.7455 49.2966 45.6694L52.1863 44.6231V39.5951L49.1191 38.4838C48.9179 38.4107 48.7364 38.2919 48.5888 38.1369C48.4412 37.9818 48.3315 37.7946 48.2684 37.5901C47.9051 36.3991 47.4057 35.254 46.7799 34.1776C46.668 33.9843 46.6044 33.7669 46.5945 33.5439C46.5847 33.3208 46.6288 33.0986 46.7232 32.8963L48.0281 30.111L44.4724 26.5563L41.5174 27.9402C41.3232 28.0317 41.1103 28.0765 40.8957 28.071C40.6811 28.0655 40.4708 28.0098 40.2815 27.9085C39.1824 27.3224 38.0193 26.8648 36.8154 26.5447C36.6001 26.4873 36.4019 26.3787 36.2376 26.2281C36.0733 26.0776 35.9478 25.8895 35.8719 25.68L34.825 22.7906H29.7973L28.686 25.8564C28.6131 26.0577 28.4945 26.2394 28.3393 26.387C28.1842 26.5347 27.9969 26.6442 27.7922 26.707C26.6011 27.0719 25.4554 27.5712 24.3773 28.1953C24.1844 28.3074 23.9673 28.3711 23.7445 28.381C23.5216 28.391 23.2997 28.347 23.0976 28.2526L20.3125 26.9477L16.7578 30.503L18.1415 33.4599C18.2332 33.6541 18.278 33.867 18.2726 34.0816C18.2671 34.2962 18.2114 34.5065 18.11 34.6957C17.525 35.7948 17.0673 36.9571 16.7461 38.16C16.6892 38.3753 16.5811 38.5735 16.431 38.7378C16.2808 38.9022 16.093 39.0276 15.8838 39.1036L12.9941 40.1497V45.1774L16.0591 46.2887C16.2608 46.3617 16.4428 46.4807 16.5904 46.6363C16.7381 46.7919 16.8475 46.9798 16.9098 47.1851C17.2758 48.3753 17.7758 49.5202 18.4001 50.5976C18.5119 50.7906 18.5753 51.0077 18.5851 51.2306C18.5948 51.4534 18.5506 51.6752 18.4562 51.8773L17.1513 54.6625L20.706 58.2172L23.6608 56.8335C23.8552 56.743 24.0679 56.6987 24.2822 56.7041C24.4966 56.7096 24.7068 56.7647 24.8962 56.865C25.9958 57.4506 27.1588 57.9082 28.3626 58.229C28.578 58.2863 28.7764 58.3948 28.9408 58.5454C29.1051 58.696 29.2306 58.8841 29.3065 59.0937L30.3546 61.9836H35.3805L36.4914 58.9164C36.5648 58.7149 36.6839 58.5331 36.8394 58.3855C36.9949 58.2379 37.1826 58.1284 37.3876 58.0657C38.5782 57.7016 39.7232 57.2022 40.8001 56.5774C40.993 56.4654 41.2101 56.4017 41.4329 56.3917C41.6558 56.3817 41.8777 56.4258 42.0798 56.5201L44.8655 57.8248L44.8653 57.8246ZM45.9266 42.3871C45.9266 45.0252 45.1443 47.604 43.6786 49.7975C42.213 51.9909 40.1298 53.7005 37.6925 54.71C35.2552 55.7196 32.5733 55.9836 29.9859 55.4689C27.3986 54.9542 25.0219 53.6838 23.1566 51.8183C21.2912 49.9529 20.0209 47.5761 19.5064 44.9887C18.9918 42.4013 19.2561 39.7194 20.2657 37.2822C21.2754 34.845 22.9851 32.7619 25.1787 31.2964C27.3722 29.8308 29.9511 29.0487 32.5892 29.0489C36.1253 29.0528 39.5154 30.4592 42.0158 32.9596C44.5162 35.46 45.9227 38.8502 45.9266 42.3863V42.3871Z" fill="#00ABEA"/>
  <path fill-rule="evenodd" clip-rule="evenodd" d="M62.6365 66.9266L57.1289 72.4344C57.0975 72.4682 57.0801 72.5126 57.0801 72.5588C57.0801 72.6049 57.0975 72.6494 57.1289 72.6832L71.4493 87.0035C72.2128 87.7657 73.2478 88.1935 74.3266 88.193C75.4055 88.1924 76.44 87.7636 77.2028 87.0007C77.9657 86.2378 78.3944 85.2033 78.3949 84.1244C78.3953 83.0456 77.9674 82.0107 77.2052 81.2471L62.8861 66.9281C62.8525 66.8963 62.808 66.8787 62.7617 66.8787C62.7154 66.8787 62.6709 66.8963 62.6373 66.9281L62.6365 66.9266Z" fill="#00ABEA"/>
  <path fill-rule="evenodd" clip-rule="evenodd" d="M83.2109 37.6132C81.6017 37.6135 80.0358 38.1349 78.7476 39.0994C77.4594 40.0639 76.5182 41.4197 76.0649 42.9638C75.6115 44.5078 75.6704 46.1572 76.2327 47.665C76.795 49.1728 77.8305 50.458 79.1842 51.3282C79.3786 51.4532 79.5385 51.625 79.6494 51.8278C79.7602 52.0306 79.8184 52.258 79.8185 52.4891V53.95H86.6049V52.4893C86.6051 52.2582 86.6632 52.0308 86.7739 51.828C86.8847 51.6252 87.0446 51.4534 87.2389 51.3284C88.5925 50.4581 89.6278 49.1729 90.19 47.665C90.7522 46.1572 90.811 44.5079 90.3576 42.9638C89.9042 41.4198 88.963 40.0641 87.6748 39.0996C86.3866 38.1351 84.8208 37.6137 83.2115 37.6134L83.2109 37.6132Z" fill="#00ABEA"/>
</svg>