<svg xmlns="http://www.w3.org/2000/svg" width="80" height="80" viewBox="0 0 80 80" fill="none">
  <g clip-path="url(#clip0_560_11293)">
    <path fill-rule="evenodd" clip-rule="evenodd" d="M78.7515 56.8869V70.1794L73.2235 75.7036L67.6988 70.1798V56.8869H78.7515ZM8.91553 57.6615H23.4316V71.0839H8.91553V57.6615ZM8.91553 33.2881H23.4316V46.7105H8.91553V33.2881ZM8.91553 8.91467H23.4316V22.337H8.91553V8.91467ZM67.6988 9.37092H78.7515V28.1876H67.6988V9.37092Z" fill="#00ABEA"/>
    <path fill-rule="evenodd" clip-rule="evenodd" d="M8.91629 47.9583H23.431C24.1208 47.9583 24.6794 47.3989 24.6794 46.7091V39.3961L26.7682 37.5003C27.2789 37.0367 27.3172 36.2466 26.8536 35.7358C26.39 35.2258 25.5999 35.1873 25.0891 35.6503L19.0614 41.1222L17.0596 39.1167C16.5716 38.6287 15.7808 38.628 15.2929 39.1152C14.8049 39.6031 14.8041 40.3939 15.2921 40.8819L18.1349 43.7298C18.3782 43.9738 18.698 44.0961 19.0193 44.0961C19.3193 44.0961 19.6199 43.9884 19.858 43.7717L22.1811 41.663V45.4603H10.1657V34.538H23.4311C24.121 34.538 24.6796 33.9786 24.6796 33.2887C24.6796 32.5989 24.1208 32.0402 23.4311 32.0402H8.91629C8.22723 32.0402 7.6677 32.5989 7.6677 33.2887V46.7089C7.66785 47.3989 8.22723 47.9583 8.91629 47.9583ZM8.91629 72.3317H23.431C24.1208 72.3317 24.6794 71.7731 24.6794 71.0831V63.768L26.7675 61.8745C27.2791 61.4102 27.3174 60.6208 26.8538 60.11C26.3902 59.5992 25.6008 59.5602 25.0893 60.0238L19.061 65.4919L17.0591 63.49C16.5711 63.0013 15.7804 63.0013 15.2924 63.49C14.8044 63.9772 14.8044 64.768 15.2924 65.2559L18.1358 68.0994C18.3791 68.3427 18.6989 68.465 19.0196 68.465C19.3196 68.465 19.6196 68.3573 19.8583 68.1414L22.1814 66.0342V69.8336H10.1657V58.9113H23.4311C24.121 58.9113 24.6796 58.3525 24.6796 57.6627C24.6796 56.972 24.1208 56.4134 23.4311 56.4134H8.91629C8.22723 56.4134 7.6677 56.972 7.6677 57.6627V71.0828C7.66785 71.7731 8.22723 72.3317 8.91629 72.3317ZM54.2175 2.49781V77.5006H2.49879V2.49781H54.2175ZM56.7155 1.24859V78.7492C56.7155 79.4391 56.1561 79.9984 55.4677 79.9984H1.24957C0.560352 79.9984 0.000976562 79.4391 0.000976562 78.7492V1.24859C0.000976562 0.55875 0.560508 0 1.24957 0H55.4675C56.156 0 56.7155 0.55875 56.7155 1.24859ZM8.91629 23.5848H23.431C24.1208 23.5848 24.6794 23.0255 24.6794 22.3355V15.0225L26.7682 13.1269C27.2789 12.6633 27.3172 11.8731 26.8536 11.3623C26.39 10.8516 25.5999 10.8133 25.0891 11.2769L19.0614 16.7488L17.0596 14.7433C16.5724 14.2553 15.7808 14.2547 15.2929 14.7419C14.8049 15.2291 14.8041 16.0198 15.2921 16.5086L18.1349 19.3566C18.3782 19.6005 18.698 19.7228 19.0193 19.7228C19.3193 19.7228 19.6199 19.6153 19.858 19.3984L22.1811 17.2905V21.087H10.1657V10.1647H23.4311C24.121 10.1647 24.6796 9.60531 24.6796 8.91531C24.6796 8.22547 24.1208 7.66672 23.4311 7.66672H8.91629C8.22723 7.66672 7.6677 8.22547 7.6677 8.91531V22.3355C7.66785 23.0255 8.22723 23.5848 8.91629 23.5848ZM77.5016 10.6209H68.949V26.9377H77.5016V10.6209ZM76.7396 55.6383V29.4355H74.4718V55.6383H76.7396ZM71.9738 55.6383V29.4355H69.711V55.6383H71.9738ZM77.5016 58.1369H68.949V69.6622L73.2238 73.9364L77.5016 69.6616V58.1369ZM71.3266 8.12297H75.1188V3.05578C75.1188 2.75281 74.863 2.49781 74.5616 2.49781H71.8861C71.5832 2.49781 71.3266 2.75281 71.3266 3.05578V8.12297ZM79.2374 29.3367V55.737C79.6863 55.9272 80.0002 56.3709 80.0002 56.8877V70.1795C80.0002 70.5105 79.8675 70.8289 79.6332 71.0633L74.4716 76.2205V78.7492C74.4716 79.4391 73.9122 79.9984 73.2238 79.9984C72.5332 79.9984 71.9738 79.4391 71.9738 78.7492V76.2197L66.8174 71.0625C66.583 70.8281 66.4518 70.5105 66.4518 70.1795V56.8877C66.4518 56.3709 66.7658 55.9273 67.2124 55.737V29.3367C66.7657 29.1473 66.4518 28.7036 66.4518 28.1869V10.6209H65.0065C64.3689 10.6209 63.8515 11.1398 63.8515 11.7766V33.2136C63.8515 33.9034 63.2927 34.4628 62.6015 34.4628C61.913 34.4628 61.3536 33.9034 61.3536 33.2136V11.7766C61.3536 9.76141 62.9921 8.12297 65.0065 8.12297H68.8296V3.05578C68.8296 1.37094 70.2005 0 71.8861 0H74.5616C76.2458 0 77.6174 1.37094 77.6174 3.05578V8.12297H78.7502C79.4408 8.12297 80.0002 8.68172 80.0002 9.37156V28.1869C80.0002 28.7036 79.6863 29.1473 79.2374 29.3367ZM31.5585 34.5381H47.8C48.4891 34.5381 49.0486 33.9787 49.0486 33.2889C49.0486 32.5991 48.4891 32.0403 47.8 32.0403H31.5585C30.8686 32.0403 30.3093 32.5991 30.3093 33.2889C30.3093 33.9787 30.8686 34.5381 31.5585 34.5381ZM31.5585 16.8747H47.8C48.4891 16.8747 49.0486 16.3153 49.0486 15.6253C49.0486 14.9355 48.4891 14.3767 47.8 14.3767H31.5585C30.8686 14.3767 30.3093 14.9353 30.3093 15.6253C30.3093 16.3153 30.8686 16.8747 31.5585 16.8747ZM31.5585 65.6217H47.8C48.4891 65.6217 49.0486 65.063 49.0486 64.3731C49.0486 63.6833 48.4891 63.1239 47.8 63.1239H31.5585C30.8686 63.1239 30.3093 63.6833 30.3093 64.3731C30.3093 65.063 30.8686 65.6217 31.5585 65.6217ZM31.5585 58.9116H47.8C48.4891 58.9116 49.0486 58.3528 49.0486 57.663C49.0486 56.9723 48.4891 56.4137 47.8 56.4137H31.5585C30.8686 56.4137 30.3093 56.9723 30.3093 57.663C30.3093 58.3528 30.8686 58.9116 31.5585 58.9116ZM31.5585 10.1647H47.8C48.4891 10.1647 49.0486 9.60531 49.0486 8.91531C49.0486 8.22547 48.4891 7.66672 47.8 7.66672H31.5585C30.8686 7.66672 30.3093 8.22547 30.3093 8.91531C30.3093 9.60516 30.8686 10.1647 31.5585 10.1647ZM30.3093 39.9989C30.3093 40.6888 30.8686 41.2481 31.5585 41.2481H47.8C48.4891 41.2481 49.0486 40.6888 49.0486 39.9989C49.0486 39.3098 48.4891 38.7503 47.8 38.7503H31.5585C30.8686 38.7503 30.3093 39.3098 30.3093 39.9989Z" fill="#231F20"/>
  </g>
  <defs>
    <clipPath id="clip0_560_11293">
      <rect width="80" height="80" fill="white"/>
    </clipPath>
  </defs>
</svg>