<svg xmlns="http://www.w3.org/2000/svg" width="104" height="104" viewBox="0 0 104 104" fill="none">
  <path d="M78.8231 52.3742C73.0437 50.6677 66.8872 50.4603 61.0182 49.1074C55.267 47.778 49.2991 47.1463 43.4584 46.5665C31.6261 45.3786 19.4309 45.685 7.99931 49.0932C6.48139 49.5458 6.71238 51.9169 8.36229 51.8887C20.0673 51.6482 31.7675 51.7237 43.4584 52.0065C49.1561 52.1353 54.8585 52.3412 60.5656 52.624C66.5949 52.9305 72.5534 54.241 78.5497 54.4955C79.8037 54.5427 79.9686 52.7089 78.8231 52.3742ZM96.3217 54.6747C96.51 54.478 96.6517 54.2414 96.7361 53.9825C96.8206 53.7236 96.8456 53.449 96.8094 53.1791C96.7731 52.9092 96.6766 52.6509 96.5269 52.4234C96.3771 52.1959 96.1781 52.0051 95.9445 51.8651C91.4096 48.5747 87.1246 44.8647 82.1182 42.3003C81.8288 42.1359 81.4859 42.0932 81.165 42.1816C80.8441 42.27 80.5715 42.4823 80.4071 42.7717C80.2426 43.0611 80.1999 43.404 80.2884 43.7249C80.3768 44.0458 80.589 44.3185 80.8785 44.4829C85.008 47.1699 88.5435 50.5263 92.3713 53.5716C91.0796 54.8632 89.7833 56.1596 88.4209 57.3899C86.5919 59.0964 84.447 60.5154 82.8913 62.4764C82.1607 63.4051 82.7829 65.3095 84.216 64.7439C88.9772 62.9242 92.7767 58.2196 96.3217 54.6747Z" fill="white"/>
</svg>