<svg xmlns="http://www.w3.org/2000/svg" width="104" height="104" viewBox="0 0 104 104" fill="none">
  <path fill-rule="evenodd" clip-rule="evenodd" d="M97.226 32.4562L94.8281 33.3253C94.5712 33.4186 94.3395 33.5703 94.1511 33.7684C93.9628 33.9665 93.823 34.2056 93.7428 34.4669C93.429 35.4946 92.998 36.4829 92.4585 37.4122C92.3161 37.6582 92.2353 37.9349 92.223 38.2189C92.2107 38.5028 92.2673 38.7855 92.388 39.0429L93.3991 41.2021L90.7402 43.8608L88.4293 42.7802C88.1817 42.6636 87.9103 42.6064 87.6367 42.6132C87.3631 42.62 87.0949 42.6906 86.8534 42.8194C85.9052 43.3245 84.9022 43.7193 83.864 43.9961C83.5894 44.0693 83.3365 44.2077 83.1269 44.3996C82.9172 44.5915 82.757 44.8312 82.6599 45.0983L81.8503 47.3379H78.0892L77.2198 44.9394C77.1268 44.6824 76.9751 44.4506 76.7769 44.2624C76.5787 44.0742 76.3393 43.9347 76.0778 43.8551C75.0513 43.5406 74.0642 43.1096 73.1356 42.5708C72.8898 42.4279 72.613 42.3467 72.329 42.3341C72.045 42.3216 71.7622 42.3779 71.5047 42.4985L69.3455 43.5086L66.686 40.8489L67.7686 38.5389C67.8845 38.2911 67.9412 38.0197 67.9341 37.7461C67.9271 37.4726 67.8565 37.2045 67.728 36.9629C67.2226 36.015 66.8284 35.0119 66.5533 33.9735C66.4797 33.699 66.3409 33.4464 66.1486 33.2371C65.9564 33.0278 65.7164 32.868 65.4491 32.7714L63.2121 31.9609V28.1999L65.6094 27.3307C65.8663 27.2377 66.0981 27.0861 66.2863 26.888C66.4745 26.6899 66.6139 26.4507 66.6937 26.1893C67.0074 25.1616 67.4383 24.1733 67.9778 23.244C68.1205 22.9981 68.2014 22.7213 68.2137 22.4373C68.226 22.1532 68.1692 21.8704 68.0483 21.6131L67.0382 19.4537L69.6971 16.7948L72.007 17.8777C72.2549 17.9936 72.5262 18.0502 72.7997 18.0432C73.0732 18.0361 73.3413 17.9655 73.5829 17.837C74.5312 17.332 75.5342 16.9372 76.5725 16.6605C76.8471 16.5874 77.1 16.4489 77.3096 16.257C77.5192 16.065 77.6793 15.8253 77.7764 15.5582L78.5871 13.3206H82.3469L83.2146 15.7174C83.3081 15.9743 83.4599 16.206 83.6582 16.3942C83.8565 16.5824 84.0958 16.722 84.3572 16.8019C85.3846 17.1168 86.3727 17.5477 87.3025 18.0863C87.5483 18.2291 87.8251 18.3103 88.1091 18.3228C88.3931 18.3354 88.6759 18.2791 88.9334 18.1586L91.0918 17.1482L93.7497 19.8072L92.6695 22.1171C92.5533 22.3648 92.4962 22.6362 92.5029 22.9097C92.5096 23.1833 92.5797 23.4516 92.7079 23.6933C93.213 24.6416 93.6079 25.6446 93.8848 26.6827C93.958 26.9571 94.0964 27.2097 94.2883 27.419C94.4802 27.6283 94.7198 27.7881 94.9868 27.8848L97.2268 28.6973V32.4564L97.226 32.4562ZM22.542 17.8259C21.9002 17.8262 21.2727 17.6362 20.7389 17.2799C20.2051 16.9235 19.7889 16.4169 19.543 15.8241C19.2972 15.2312 19.2326 14.5788 19.3575 13.9493C19.4825 13.3197 19.7913 12.7414 20.245 12.2874C20.6986 11.8334 21.2767 11.5241 21.9061 11.3986C22.5355 11.2732 23.188 11.3372 23.7811 11.5826C24.3741 11.828 24.8811 12.2437 25.2378 12.7773C25.5946 13.3108 25.7851 13.9381 25.7853 14.5799C25.7846 15.4401 25.4428 16.265 24.8348 16.8735C24.2268 17.482 23.4022 17.8245 22.542 17.8259ZM30.1941 59.7608C30.1942 61.2411 29.7553 62.6882 28.9329 63.9191C28.1105 65.1499 26.9416 66.1092 25.574 66.6758C24.2064 67.2423 22.7015 67.3906 21.2496 67.1018C19.7978 66.8131 18.4641 66.1003 17.4174 65.0536C16.3706 64.0068 15.6577 62.6732 15.3689 61.2214C15.0801 59.7695 15.2282 58.2646 15.7947 56.897C16.3611 55.5294 17.3204 54.3604 18.5512 53.538C19.782 52.7155 21.2291 52.2765 22.7094 52.2765C24.6937 52.2788 26.596 53.0681 27.9991 54.4711C29.4023 55.8742 30.1918 57.7765 30.1941 59.7608ZM84.0483 84.9808C84.0481 85.6226 83.8577 86.2499 83.501 86.7834C83.1444 87.3169 82.6376 87.7327 82.0447 87.9783C81.4518 88.2238 80.7993 88.288 80.1699 88.1628C79.5405 88.0375 78.9624 87.7285 78.5086 87.2747C78.0548 86.821 77.7457 86.2428 77.6204 85.6134C77.4952 84.984 77.5593 84.3316 77.8048 83.7387C78.0503 83.1457 78.4661 82.6389 78.9996 82.2822C79.5331 81.9256 80.1604 81.7351 80.8021 81.7349C81.6628 81.7355 82.4881 82.0777 83.0967 82.6863C83.7053 83.2949 84.0476 84.1201 84.0483 84.9808ZM33.7931 92.6238V85.8774C33.7881 85.4133 33.6003 84.9699 33.2703 84.6435C32.9404 84.3171 32.495 84.134 32.0309 84.134C31.5668 84.134 31.1214 84.3171 30.7915 84.6435C30.4615 84.9699 30.2737 85.4133 30.2687 85.8774V92.6651H15.0516V85.8774C15.0516 85.4101 14.8659 84.9619 14.5355 84.6314C14.205 84.301 13.7568 84.1153 13.2895 84.1153C12.8221 84.1153 12.3739 84.301 12.0435 84.6314C11.713 84.9619 11.5274 85.4101 11.5274 85.8774V92.6238C7.47745 91.8995 6.44923 87.8569 6.85995 84.2388C7.3832 79.6482 10.2822 75.1431 14.3112 75.1431H14.3504C17.0546 77.3454 19.8439 78.4144 22.661 78.3206C25.4786 78.4142 28.2661 77.3456 30.9689 75.1431H31.0081C35.0375 75.1431 37.9385 79.648 38.4593 84.2388C38.8706 87.8569 37.8426 91.8995 33.7927 92.6238H33.7931ZM99.1563 25.647L97.0235 24.8751C96.7981 24.1806 96.5299 23.5006 96.2205 22.8392L97.2703 20.5955C97.4845 20.1469 97.5533 19.6427 97.4673 19.1531C97.3812 18.6636 97.1444 18.2131 96.7901 17.8645L93.0323 14.1054C92.6834 13.7514 92.2327 13.5149 91.7431 13.429C91.2535 13.343 90.7493 13.4118 90.3007 13.6259L88.2458 14.5891C87.5955 14.2563 86.9249 13.9646 86.2382 13.7156L85.395 11.3876C85.2287 10.9192 84.9206 10.5142 84.5136 10.229C84.1065 9.9438 83.6207 9.79249 83.1236 9.79614H77.8091C77.312 9.79242 76.8261 9.94372 76.419 10.229C76.0119 10.5143 75.7039 10.9193 75.5377 11.3878L75.019 12.8176H29.0763C28.7672 11.6714 28.1621 10.6266 27.3216 9.78814C26.4811 8.94968 25.4349 8.34705 24.2879 8.04072C23.1409 7.73439 21.9335 7.73514 20.7869 8.0429C19.6403 8.35066 18.5948 8.95459 17.7553 9.7941C16.9159 10.6336 16.312 11.6791 16.0044 12.8258C15.6967 13.9724 15.696 15.1798 16.0024 16.3268C16.3089 17.4737 16.9116 18.5199 17.7501 19.3603C18.5886 20.2008 19.6334 20.8059 20.7797 21.1149V48.9247C18.0561 49.4098 15.6149 50.9026 13.9421 53.1061C12.2693 55.3096 11.4876 58.0621 11.7524 60.8159C12.0172 63.5697 13.3093 66.1229 15.3714 67.9672C17.4334 69.8114 20.1143 70.8117 22.8805 70.7688C25.6467 70.7259 28.2953 69.643 30.2992 67.7356C32.3031 65.8283 33.5153 63.2363 33.6946 60.4757C33.8739 57.715 33.0072 54.988 31.2669 52.8374C29.5266 50.6869 27.0403 49.2705 24.3029 48.8701V21.1147C25.4455 20.8042 26.4871 20.2004 27.3242 19.363C28.1614 18.5257 28.765 17.4839 29.0751 16.3412H65.1678L63.997 17.512C63.6426 17.8612 63.4059 18.3122 63.3199 18.8021C63.234 19.2921 63.3029 19.7967 63.5172 20.2457L64.479 22.3013C64.1464 22.9512 63.8552 23.6214 63.6072 24.308L61.2802 25.1497C60.8114 25.3157 60.4059 25.6235 60.1202 26.0306C59.8344 26.4376 59.6826 26.9236 59.6859 27.4209V32.7381C59.6824 33.2353 59.8339 33.7212 60.1195 34.1282C60.405 34.5352 60.8103 34.8431 61.279 35.009L63.4118 35.7809C63.6365 36.4757 63.9043 37.1558 64.2137 37.8172L63.165 40.0587C62.9507 40.5075 62.8817 41.012 62.9676 41.5019C63.0535 41.9917 63.29 42.4426 63.6442 42.7918L67.4036 46.5496C67.7522 46.9037 68.2026 47.1402 68.6921 47.2262C69.1815 47.3122 69.6855 47.2434 70.134 47.0294L72.1917 46.0659C72.8412 46.3982 73.5107 46.6899 74.1963 46.9394L75.0409 49.267C75.2068 49.7356 75.5145 50.1409 75.9213 50.4265C76.3282 50.7121 76.8139 50.8639 77.311 50.8607H79.0404V78.4451C77.8979 78.7556 76.8564 79.3595 76.0194 80.1968C75.1824 81.0342 74.5789 82.0759 74.2688 83.2185H41.8779C41.4278 80.2407 40.1846 77.3846 38.4225 75.2966C36.1815 72.642 33.2307 71.3499 30.1098 71.6631C29.7484 71.6986 29.407 71.8457 29.133 72.084C26.9293 73.9934 24.8318 74.8796 22.7311 74.7955C22.6846 74.7935 22.6371 74.7935 22.5902 74.7955C20.484 74.8768 18.3907 73.9928 16.1883 72.084C15.9136 71.8455 15.5715 71.6984 15.2094 71.6631C12.0908 71.3497 9.13841 72.642 6.89672 75.2966C5.01213 77.5286 3.72127 80.6433 3.35909 83.8405C2.60164 90.5064 5.84169 95.4617 11.4232 96.1724C11.4965 96.1824 11.5704 96.1875 11.6444 96.1878H33.6751C33.7498 96.1875 33.8245 96.1823 33.8985 96.1724C38.6328 95.5693 41.6827 91.9082 42.0349 86.7417H74.2692C74.5783 87.888 75.1834 88.9328 76.0239 89.7713C76.8644 90.6097 77.9106 91.2124 79.0576 91.5187C80.2046 91.825 81.412 91.8242 82.5586 91.5164C83.7052 91.2085 84.7507 90.6045 85.59 89.7649C86.4294 88.9254 87.0332 87.8798 87.3407 86.7331C87.6482 85.5864 87.6487 84.379 87.3421 83.2321C87.0356 82.0852 86.4327 81.0391 85.594 80.1988C84.7553 79.3585 83.7104 78.7536 82.564 78.4449V50.8605H82.6266C83.1237 50.8638 83.6095 50.7121 84.0164 50.4265C84.4234 50.1409 84.7312 49.7356 84.8971 49.267L85.6704 47.1342C86.3649 46.9081 87.0449 46.6394 87.7063 46.3296L89.9484 47.381C90.3974 47.5945 90.9016 47.6631 91.3913 47.5772C91.8809 47.4912 92.3317 47.255 92.6811 46.9014L96.4405 43.1403C96.7938 42.791 97.0296 42.3404 97.1151 41.851C97.2006 41.3616 97.1316 40.8577 96.9177 40.4093L95.9569 38.3537C96.2874 37.703 96.5782 37.0329 96.8277 36.347L99.1557 35.5051C99.6244 35.3394 100.03 35.0318 100.315 34.625C100.601 34.2183 100.753 33.7326 100.75 33.2355V27.9179C100.753 27.4207 100.602 26.9348 100.316 26.5278C100.03 26.1208 99.625 25.813 99.1563 25.647ZM80.2186 37.6598C81.6689 37.6598 83.0867 37.2297 84.2926 36.4239C85.4985 35.6181 86.4383 34.4728 86.9933 33.1329C87.5483 31.7929 87.6934 30.3185 87.4104 28.896C87.1273 27.4735 86.4288 26.167 85.4032 25.1415C84.3776 24.116 83.0709 23.4177 81.6484 23.1349C80.2259 22.8521 78.7514 22.9975 77.4116 23.5527C76.0717 24.1079 74.9265 25.048 74.1209 26.254C73.3154 27.46 72.8855 28.8779 72.8857 30.3282C72.8878 32.2722 73.6611 34.136 75.0359 35.5106C76.4106 36.8851 78.2745 37.658 80.2186 37.6598ZM80.2186 19.4724C78.0715 19.4724 75.9726 20.1091 74.1874 21.3019C72.4022 22.4948 71.0107 24.1902 70.1891 26.1739C69.3674 28.1575 69.1525 30.3403 69.5713 32.4461C69.9902 34.5519 71.0241 36.4862 72.5423 38.0044C74.0605 39.5226 75.9949 40.5566 78.1007 40.9754C80.2065 41.3943 82.3893 41.1793 84.3729 40.3577C86.3565 39.536 88.052 38.1446 89.2448 36.3594C90.4377 34.5742 91.0744 32.4753 91.0744 30.3282C91.0709 27.4501 89.9261 24.6909 87.891 22.6558C85.8559 20.6207 83.0966 19.4758 80.2186 19.4724Z" fill="#231F20"/>
  <path fill-rule="evenodd" clip-rule="evenodd" d="M14.3105 75.1426C10.2816 75.1426 7.38256 79.6471 6.85931 84.2384C6.44818 87.8564 7.47681 91.899 11.5267 92.6234V85.877C11.5267 85.4096 11.7124 84.9614 12.0428 84.631C12.3733 84.3005 12.8215 84.1149 13.2888 84.1149C13.7562 84.1149 14.2044 84.3005 14.5348 84.631C14.8653 84.9614 15.0509 85.4096 15.0509 85.877V92.6656H30.2691V85.878C30.274 85.4139 30.4619 84.9705 30.7918 84.6441C31.1218 84.3177 31.5671 84.1346 32.0313 84.1346C32.4954 84.1346 32.9408 84.3177 33.2707 84.6441C33.6006 84.9705 33.7885 85.4139 33.7935 85.878V92.6244C37.8434 91.9 38.8716 87.8575 38.4601 84.2394C37.9393 79.6488 35.0382 75.1436 31.0088 75.1436H30.9696C28.266 77.3461 25.4786 78.414 22.6618 78.3211C19.8447 78.415 17.0556 77.3461 14.3512 75.1436L14.3105 75.1426Z" fill="#00ABEA"/>
  <path fill-rule="evenodd" clip-rule="evenodd" d="M77.2195 44.9386L78.0888 47.3371H81.8499L82.6595 45.0974C82.7567 44.8303 82.9169 44.5907 83.1265 44.3988C83.3362 44.2069 83.589 44.0685 83.8637 43.9953C84.9018 43.7185 85.9048 43.3237 86.8531 42.8186C87.0945 42.6898 87.3628 42.6192 87.6363 42.6124C87.9099 42.6056 88.1813 42.6628 88.4289 42.7794L90.7399 43.86L93.3988 41.2013L92.3876 39.0421C92.267 38.7847 92.2104 38.502 92.2227 38.2181C92.2349 37.9341 92.3157 37.6574 92.4581 37.4114C92.9977 36.4821 93.4286 35.4938 93.7424 34.4661C93.8227 34.2048 93.9624 33.9657 94.1508 33.7676C94.3391 33.5695 94.5708 33.4178 94.8277 33.3245L97.2256 32.4553V28.6971L94.9856 27.8846C94.7186 27.7879 94.479 27.6281 94.2871 27.4188C94.0952 27.2095 93.9568 26.9569 93.8836 26.6825C93.6067 25.6444 93.2119 24.6414 92.7067 23.6931C92.5786 23.4514 92.5084 23.1831 92.5017 22.9095C92.4951 22.636 92.5521 22.3646 92.6683 22.1169L93.7485 19.8069L91.0907 17.1482L88.9322 18.1586C88.6748 18.2791 88.3919 18.3354 88.1079 18.3228C87.8239 18.3103 87.5472 18.2291 87.3014 18.0863C86.3715 17.5477 85.3834 17.1168 84.356 16.8019C84.0946 16.722 83.8553 16.5824 83.6571 16.3942C83.4588 16.206 83.3069 15.9743 83.2135 15.7174L82.3457 13.3206H78.5857L77.775 15.5598C77.678 15.8269 77.5178 16.0667 77.3082 16.2586C77.0986 16.4505 76.8457 16.589 76.5711 16.6622C75.5329 16.9388 74.5298 17.3336 73.5815 17.8387C73.34 17.9672 73.0718 18.0377 72.7984 18.0448C72.5249 18.0518 72.2535 17.9952 72.0056 17.8793L69.6957 16.7964L67.0368 19.4553L68.0465 21.6142C68.1674 21.8715 68.2242 22.1542 68.2119 22.4383C68.1996 22.7223 68.1187 22.9991 67.976 23.245C67.4365 24.1743 67.0056 25.1626 66.6919 26.1904C66.6122 26.4514 66.4728 26.6903 66.2849 26.8882C66.097 27.0861 65.8656 27.2376 65.609 27.3307L63.2109 28.1999V31.9609L65.448 32.7714C65.7152 32.868 65.9552 33.0278 66.1474 33.2371C66.3397 33.4464 66.4785 33.699 66.5521 33.9735C66.8272 35.0119 67.2214 36.015 67.7268 36.9629C67.8553 37.2044 67.9259 37.4726 67.933 37.7461C67.94 38.0196 67.8833 38.2911 67.7674 38.5389L66.6856 40.8489L69.3465 43.5078L71.5057 42.4976C71.7632 42.3771 72.0461 42.3207 72.3301 42.3333C72.6141 42.3459 72.8908 42.4271 73.1366 42.57C74.0652 43.1088 75.0524 43.5397 76.0789 43.8543C76.3404 43.9339 76.5797 44.0734 76.7779 44.2616C76.9762 44.4498 77.1278 44.6816 77.2209 44.9386H77.2195ZM80.2182 41.1838C78.0711 41.1838 75.9722 40.5471 74.187 39.3543C72.4018 38.1614 71.0103 36.466 70.1887 34.4823C69.3671 32.4986 69.1521 30.3159 69.571 28.2101C69.9899 26.1042 71.0238 24.1699 72.542 22.6517C74.0603 21.1335 75.9946 20.0996 78.1004 19.6808C80.2063 19.2619 82.389 19.4769 84.3727 20.2986C86.3563 21.1203 88.0517 22.5117 89.2446 24.297C90.4374 26.0822 91.074 28.1811 91.074 30.3282C91.0705 33.2063 89.9256 35.9654 87.8905 38.0005C85.8554 40.0356 83.0962 41.1804 80.2182 41.1838Z" fill="#00ABEA"/>
  <path fill-rule="evenodd" clip-rule="evenodd" d="M80.8033 81.7344C80.1616 81.7347 79.5344 81.9252 79.0009 82.2818C78.4675 82.6385 78.0518 83.1453 77.8063 83.7382C77.5609 84.3311 77.4967 84.9834 77.622 85.6128C77.7473 86.2421 78.0563 86.8202 78.5101 87.2739C78.9638 87.7277 79.5419 88.0367 80.1713 88.1619C80.8006 88.2871 81.453 88.2229 82.0458 87.9774C82.6387 87.732 83.1455 87.3162 83.5021 86.7828C83.8588 86.2493 84.0492 85.6221 84.0494 84.9804C84.0483 84.1198 83.706 83.2948 83.0974 82.6863C82.4889 82.0778 81.6639 81.7355 80.8033 81.7344Z" fill="#00ABEA"/>
  <path fill-rule="evenodd" clip-rule="evenodd" d="M22.542 17.8258C23.1837 17.8258 23.811 17.6355 24.3446 17.2789C24.8782 16.9224 25.2941 16.4157 25.5397 15.8228C25.7853 15.2299 25.8496 14.5775 25.7244 13.9481C25.5993 13.3187 25.2903 12.7405 24.8366 12.2867C24.3829 11.8329 23.8048 11.5238 23.1754 11.3985C22.546 11.2732 21.8936 11.3373 21.3007 11.5827C20.7077 11.8282 20.2009 12.2439 19.8442 12.7774C19.4876 13.3109 19.2971 13.9382 19.2969 14.5799C19.2975 15.4404 19.6396 16.2656 20.248 16.8741C20.8564 17.4827 21.6815 17.825 22.542 17.8258Z" fill="#00ABEA"/>
</svg>