<svg xmlns="http://www.w3.org/2000/svg" width="135" height="135" viewBox="0 0 135 135" fill="none">
  <path d="M108.561 76.3567C97.4036 97.3445 73.3596 103.287 52.4827 94.3247C31.2312 85.1977 14.8226 63.3784 10.5053 40.8976C9.61102 36.214 16.4377 35.3092 17.6675 39.7144C23.0483 58.9573 35.6192 76.5863 53.6134 85.7871C61.4033 89.8268 70.2671 91.3121 78.9484 90.0324C90.3432 88.4083 97.6436 81.1644 105.416 73.5063C107.284 71.6623 109.571 74.4325 108.561 76.3567Z" fill="#FCCB26"/>
  <path d="M124.789 58.2881C121.811 68.5849 119.224 80.2557 112.091 88.6173C111.852 88.9276 111.502 89.1339 111.115 89.1934C110.728 89.2528 110.332 89.1609 110.011 88.9366C109.689 88.7123 109.466 88.373 109.388 87.9888C109.31 87.6047 109.383 87.2053 109.592 86.8735C114.316 78.312 116.902 69.3034 119.182 59.9258C112.899 60.0517 106.476 61.1986 100.283 60.3548C99.7288 60.282 99.218 60.0147 98.8419 59.6006C98.4658 59.1865 98.2489 58.6524 98.2297 58.0933C98.2105 57.5342 98.3903 56.9865 98.7371 56.5476C99.0839 56.1087 99.5752 55.807 100.124 55.6964C107.543 54.3826 115.11 54.1111 122.605 54.8896C122.989 54.9348 123.358 55.0643 123.685 55.2689C124.013 55.4735 124.291 55.7481 124.5 56.073C124.709 56.398 124.843 56.7651 124.893 57.1481C124.943 57.5311 124.908 57.9204 124.789 58.2881Z" fill="#FCCB26"/>
</svg>