<svg xmlns="http://www.w3.org/2000/svg" width="135" height="135" viewBox="0 0 135 135" fill="none">
  <path d="M108.561 76.3562C97.4036 97.3441 73.3596 103.286 52.4827 94.3242C31.2312 85.1972 14.8226 63.3779 10.5053 40.8971C9.61102 36.2136 16.4377 35.3087 17.6675 39.714C23.0483 58.9569 35.6192 76.5858 53.6134 85.7866C61.4033 89.8263 70.2671 91.3116 78.9484 90.0319C90.3432 88.4078 97.6436 81.1639 105.416 73.5058C107.284 71.6618 109.571 74.432 108.561 76.3562Z" fill="#00ABEA"/>
  <path d="M124.789 58.2876C121.811 68.5845 119.224 80.2552 112.091 88.6168C111.852 88.9271 111.502 89.1334 111.115 89.1929C110.728 89.2523 110.332 89.1604 110.011 88.9361C109.689 88.7118 109.466 88.3725 109.388 87.9883C109.31 87.6042 109.383 87.2048 109.592 86.873C114.316 78.3115 116.902 69.3029 119.182 59.9253C112.899 60.0512 106.476 61.1982 100.283 60.3543C99.7288 60.2815 99.218 60.0142 98.8419 59.6001C98.4658 59.186 98.2489 58.6519 98.2297 58.0928C98.2105 57.5338 98.3903 56.986 98.7371 56.5471C99.0839 56.1082 99.5752 55.8065 100.124 55.6959C107.543 54.3821 115.11 54.1106 122.605 54.8892C122.989 54.9343 123.358 55.0638 123.685 55.2684C124.013 55.473 124.291 55.7476 124.5 56.0726C124.709 56.3975 124.843 56.7646 124.893 57.1476C124.943 57.5306 124.908 57.9199 124.789 58.2876Z" fill="#00ABEA"/>
</svg>