<svg xmlns="http://www.w3.org/2000/svg" width="73" height="48" viewBox="0 0 73 48" fill="none">
  <path fill-rule="evenodd" clip-rule="evenodd" d="M5.61133 11.1889V14.8921H9.81223V34.3211H13.49V11.1889H5.61133ZM19.2298 34.3211H15.4046V9.26319H9.81223V5.41048H19.2298V34.3211ZM38.3817 24.5018C38.1068 24.5018 36.6604 24.4919 36.3926 24.4676C35.9409 24.4295 35.2848 24.3614 34.8632 24.2634C34.3874 24.1349 33.9406 23.9666 33.7386 23.8549C32.3265 23.0855 31.365 21.5814 31.365 19.8488C31.365 17.3296 33.392 15.2886 35.8954 15.2886C38.3467 15.2886 40.339 17.2524 40.4184 19.7016H44.0706C43.9936 15.2206 40.3659 11.6105 35.8954 11.6105C31.3752 11.6105 27.7107 15.3006 27.7107 19.8488C27.7107 23.0583 29.5366 25.8313 32.1976 27.1891C32.6062 27.4306 33.3775 27.6845 33.5971 27.7418C34.3475 27.9417 35.3568 28.0767 36.1751 28.1384C36.4798 28.1631 37.9608 28.1744 38.2742 28.1762V28.1797H67.3843V24.5018H38.3817ZM36.1751 30.485C35.0383 30.4092 33.7235 30.2111 32.6896 29.9068C32.4956 29.8504 31.6928 29.5551 31.4879 29.4602C27.884 27.7771 25.3725 24.1062 25.3725 19.8488C25.3725 14.0088 30.0923 9.25579 35.8954 9.25579C41.6466 9.25579 46.3333 13.9288 46.4127 19.7016H50.2137C50.135 11.8202 43.7429 5.43123 35.8954 5.43123C27.9989 5.43123 21.5739 11.8998 21.5739 19.8488C21.5739 25.3315 24.6341 30.0989 29.1182 32.5375C29.9277 32.9682 31.0898 33.4135 31.4838 33.5322C32.7624 33.9182 34.3286 34.1713 35.7263 34.2795C36.2004 34.3148 37.8548 34.3342 38.3386 34.3359H67.3843V30.5209H38.3817C38.0344 30.5209 36.5151 30.5096 36.1751 30.485Z" fill="white"/>
  <path fill-rule="evenodd" clip-rule="evenodd" d="M57.7512 10.303C56.6126 10.303 55.6323 9.40346 55.6323 8.17397C55.6323 7.00719 56.6126 6.0837 57.7512 6.0837C58.8902 6.0837 59.8664 7.00719 59.8664 8.17397C59.8664 9.40346 58.8902 10.303 57.7512 10.303ZM57.7512 5.67934C56.3727 5.67934 55.2324 6.78548 55.2324 8.17397C55.2324 9.56201 56.3727 10.7119 57.7512 10.7119C59.1721 10.7119 60.2708 9.56201 60.2708 8.17397C60.2708 6.78548 59.1721 5.67934 57.7512 5.67934Z" fill="white"/>
  <path fill-rule="evenodd" clip-rule="evenodd" d="M57.8703 8.03399H57.3305V7.24901H57.7919C58.1123 7.24901 58.3311 7.34908 58.3311 7.65156C58.3311 7.81083 58.2524 8.03399 57.8703 8.03399ZM58.7107 8.85877C58.7107 8.57677 58.6715 8.31598 58.3511 8.21555C58.7513 8.07378 58.7894 7.81083 58.7894 7.65156C58.7894 7.00717 58.2103 6.92578 57.9705 6.92578H56.8711V9.42212H57.3305V8.3953H57.6904C58.2103 8.3953 58.2524 8.63705 58.2524 8.85877C58.2524 9.28216 58.2524 9.36355 58.3511 9.42212H58.8108C58.7107 9.32232 58.7513 9.24228 58.7107 8.85877Z" fill="white"/>
  <path d="M10.5036 38.8778H9.80469V37.8073H11.686V42.4619H10.5036V38.8778Z" fill="white"/>
  <path d="M15.9034 42.2482C15.492 42.5348 15.0611 42.5947 14.6689 42.5947C13.3104 42.5947 12.3311 41.6236 12.3311 40.1343C12.3311 38.5788 13.4091 37.6739 14.6496 37.6739C15.0547 37.6739 15.5179 37.7807 15.9034 38.0469V39.3969C15.6685 39.1174 15.3093 38.8372 14.8191 38.8372C14.1136 38.8372 13.65 39.4093 13.65 40.1742C13.65 40.8791 14.0884 41.4308 14.8191 41.4308C15.2956 41.4308 15.6685 41.1717 15.9034 40.9257V42.2482Z" fill="white"/>
  <path d="M17.112 41.2245C17.4775 41.2245 17.7783 41.5301 17.7783 41.9031C17.7783 42.2746 17.4775 42.5806 17.112 42.5806C16.7461 42.5806 16.4453 42.2746 16.4453 41.9031C16.4453 41.5301 16.7461 41.2245 17.112 41.2245ZM17.112 39.1307C17.4775 39.1307 17.7783 39.4363 17.7783 39.8082C17.7783 40.1812 17.4775 40.4861 17.112 40.4861C16.7461 40.4861 16.4453 40.1812 16.4453 39.8082C16.4453 39.4363 16.7461 39.1307 17.112 39.1307Z" fill="white"/>
  <path d="M21.5528 40.8792C21.8724 40.8852 22.5195 40.7724 22.5195 39.9476C22.5195 39.1235 21.8724 39.0107 21.5528 39.0181V40.8792ZM20.4558 39.0181C20.1354 39.0107 19.489 39.1235 19.489 39.9476C19.489 40.7724 20.1354 40.8852 20.4558 40.8792V39.0181ZM20.3641 41.8098C19.5801 41.8169 18.209 41.5842 18.209 39.9476C18.209 38.3325 19.5801 38.06 20.3641 38.0864V37.5743H21.6445V38.0864C22.4281 38.06 23.7996 38.3325 23.7996 39.9476C23.7996 41.5842 22.4281 41.8169 21.6445 41.8098V42.4619H20.3641V41.8098Z" fill="white"/>
  <path d="M25.5109 39.9018H25.8757C26.4443 39.9018 26.5031 39.5627 26.5031 39.3625C26.5031 39.1309 26.4251 38.8312 25.8757 38.8312H25.5109V39.9018ZM24.2305 37.8073H26.1569C27.4573 37.8073 27.8232 38.7244 27.8232 39.3625C27.8232 40.0086 27.4503 40.9258 26.1569 40.9258H25.5109V42.4619H24.2305V37.8073Z" fill="white"/>
  <path d="M29.3257 40.6332H30.3704L29.8477 38.9173L29.3257 40.6332ZM29.0704 37.8073H30.625L32.2513 42.4619H30.8798L30.625 41.6572H29.0704L28.8155 42.4619H27.4443L29.0704 37.8073Z" fill="white"/>
  <path d="M32.5889 37.8073H33.869V39.4834H35.4232V37.8073H36.7033V42.4619H35.4232V40.599H33.869V42.4619H32.5889V37.8073Z" fill="white"/>
  <path d="M39.6645 40.6462C39.1939 40.7125 39.0959 40.7125 38.8087 40.7125C37.2605 40.7125 37.1953 39.9282 37.1953 39.1562V37.8073H38.4761V38.9712C38.4761 39.33 38.4691 39.6691 39.1806 39.6691C39.2857 39.6691 39.4163 39.649 39.6645 39.6226V37.8073H40.9446V42.4619H39.6645V40.6462Z" fill="white"/>
  <path d="M43.1313 40.6332H44.1754L43.653 38.9173L43.1313 40.6332ZM42.8753 37.8073H44.4303L46.0573 42.4619H44.6849L44.4303 41.6572H42.8753L42.6215 42.4619H41.25L42.8753 37.8073Z" fill="white"/>
  <path d="M49.8332 36.8104C49.5847 37.355 49.0045 37.5542 48.4625 37.5542C47.9198 37.5542 47.3385 37.355 47.09 36.8104L47.8217 36.5302C47.9391 36.8492 48.2272 36.9232 48.4625 36.9232C48.6971 36.9232 48.9842 36.8492 49.1014 36.5302L49.8332 36.8104ZM47.5672 37.8073V40.599L49.3371 37.8073H50.5913V42.4619H49.3571V39.6691L47.5861 42.4619H46.333V37.8073H47.5672Z" fill="white"/>
  <path d="M51.1526 38.1057C51.375 37.9799 51.9296 37.6739 52.694 37.6739C53.7188 37.6739 54.4505 38.2125 54.4505 38.9905C54.4505 39.4558 54.1638 39.8816 53.6988 40.0409V40.0614C54.0718 40.1812 54.549 40.4667 54.549 41.1717C54.549 42.0554 53.745 42.5947 52.7132 42.5947C52.0665 42.5947 51.6488 42.4678 50.917 41.9031L51.4467 41.0385C51.7731 41.3515 52.2108 41.5707 52.5567 41.5707C53.1053 41.5707 53.2296 41.2517 53.2296 41.0589C53.2296 40.7854 53.0399 40.5732 52.4909 40.5732H51.7661V39.6426H52.4909C53.0721 39.6426 53.1701 39.3694 53.1701 39.1632C53.1701 38.8714 52.9093 38.6979 52.5171 38.6979C52.1452 38.6979 51.8771 38.8312 51.5962 39.018L51.1526 38.1057Z" fill="white"/>
  <path d="M56.2782 37.8073V40.599L58.0481 37.8073H59.3026V42.4619H58.068V39.6691L56.2974 42.4619H55.0439V37.8073H56.2782Z" fill="white"/>
  <path d="M59.8193 37.8073H61.0991V39.4834H62.6537V37.8073H63.9334V42.4619H62.6537V40.599H61.0991V42.4619H59.8193V37.8073Z" fill="white"/>
  <path d="M64.5811 37.8073H67.3236V38.9243H65.8608V42.4619H64.5811V37.8073Z" fill="white"/>
</svg>