<svg width="104" height="104" viewBox="0 0 104 104" fill="none" xmlns="http://www.w3.org/2000/svg">
<g clip-path="url(#clip0_560_10200)">
<path fill-rule="evenodd" clip-rule="evenodd" d="M84.9631 7.24474C84.9631 3.81396 86.9186 1.62427 90.3709 1.62427C93.8224 1.62427 95.7732 3.817 95.7732 7.24474C95.7732 10.1155 94.2337 13.7226 91.1001 14.2818C90.6171 14.3679 90.1198 14.3677 89.637 14.281C86.5042 13.7193 84.9631 10.1167 84.9631 7.24474ZM52.0006 31.8409C56.3326 31.8409 58.7212 34.5271 58.7212 38.8335C58.7212 42.3368 56.9625 46.64 53.2161 47.5248C52.51 47.6916 51.7706 47.7125 51.0575 47.5789C49.2425 47.2384 47.7892 45.9774 46.8282 44.4485C45.7851 42.7892 45.2798 40.7851 45.2798 38.8335C45.2796 34.5267 47.6683 31.8409 52.0006 31.8409ZM12.9031 14.2814C9.76966 13.7206 8.22754 10.1171 8.22754 7.24474C8.22754 3.81416 10.1832 1.62427 13.6355 1.62427C17.087 1.62427 19.0379 3.817 19.0379 7.24474C19.0379 10.1151 17.4992 13.7212 14.3666 14.2816C13.8834 14.3679 13.3861 14.3679 12.9031 14.2814ZM19.0379 80.4351C19.0379 83.3049 17.4982 86.9087 14.3668 87.469C13.8838 87.5555 13.3863 87.5553 12.9031 87.4688C9.77088 86.9081 8.22774 83.3067 8.22774 80.4351C8.22774 77.0015 10.1786 74.8088 13.6357 74.8088C17.0919 74.8088 19.0379 77.0042 19.0379 80.4351ZM95.7732 80.4351C95.7732 83.3053 94.2325 86.9102 91.1003 87.4694C90.6173 87.5555 90.1198 87.5551 89.6368 87.4685C86.5054 86.9067 84.9633 83.3063 84.9633 80.4351C84.9633 77.0013 86.9139 74.8088 90.3711 74.8088C93.8271 74.8088 95.7732 77.0042 95.7732 80.4351Z" fill="#fff"/>
<path fill-rule="evenodd" clip-rule="evenodd" d="M29.2049 50.8557C29.2049 51.7535 28.4781 52.4789 27.5813 52.4789H18.5871C15.2122 52.4789 12.4666 49.7308 12.4666 46.3524V30.2897C12.4666 29.3919 13.1937 28.6647 14.0905 28.6647C14.9873 28.6647 15.7141 29.3919 15.7141 30.2897V46.3524C15.7141 47.9411 17.0027 49.2327 18.5871 49.2327H27.5813C28.4781 49.2325 29.2049 49.9597 29.2049 50.8557ZM74.191 13.1137C74.191 14.0095 73.4642 14.7358 72.5672 14.7358H56.503C54.9154 14.7358 53.6241 16.0285 53.6241 17.617V23.3918C53.6241 24.2868 52.8974 25.014 52.0006 25.014C51.1034 25.014 50.3766 24.2868 50.3766 23.3918V17.617C50.3766 14.2386 53.1249 11.4905 56.5032 11.4905H72.5674C73.4642 11.4905 74.191 12.2148 74.191 13.1137ZM85.5916 52.4787H76.5748C75.6784 52.4787 74.9511 51.7533 74.9511 50.8555C74.9511 49.9597 75.6782 49.2323 76.5748 49.2323H85.5916C88.9665 49.2323 91.7123 51.9774 91.7123 55.3531V68.8422C91.7123 69.7411 90.9855 70.4672 90.0887 70.4672C89.1919 70.4672 88.465 69.7409 88.465 68.8422V55.3531C88.465 53.7685 87.1759 52.4787 85.5916 52.4787ZM53.6241 72.9844V84.0914C53.6241 87.469 50.8785 90.2179 47.5036 90.2179H31.439C30.5422 90.2179 29.8155 89.4907 29.8155 88.5929C29.8155 87.6971 30.5422 86.9697 31.439 86.9697H47.5036C49.088 86.9697 50.3766 85.677 50.3766 84.0914V72.9844C50.3766 72.0865 51.1036 71.3594 52.0006 71.3594C52.8972 71.3594 53.6241 72.0865 53.6241 72.9844ZM90.3709 3.24931C92.094 3.24931 94.1482 3.944 94.1482 7.24498C94.1482 10.2153 92.4182 12.7218 90.3709 12.7218C88.3201 12.7218 86.5881 10.2153 86.5881 7.24498C86.5881 3.944 88.6449 3.24931 90.3709 3.24931ZM97.6832 15.0385C96.5804 14.7645 95.4781 14.5557 94.3783 14.4051C96.2 12.8271 97.3958 10.2065 97.3958 7.24478C97.3958 2.84489 94.6381 0.00195312 90.3709 0.00195312C86.1 0.00195312 83.3407 2.84469 83.3407 7.24478C83.3407 10.2007 84.5317 12.8145 86.3488 14.3946C85.241 14.5469 84.1382 14.7606 83.0442 15.0413C79.0389 16.0752 76.742 18.4189 76.742 21.4735V29.1829C76.742 30.0797 77.4688 30.8069 78.3656 30.8069C79.2624 30.8069 79.9892 30.0797 79.9892 29.1829V21.4735C79.9892 19.5812 82.0917 18.6403 83.8536 18.1869C88.1012 17.0945 92.4907 17.0965 96.8993 18.1887C98.3385 18.5471 100.752 19.4506 100.752 21.4733V29.1827C100.752 30.0795 101.479 30.8067 102.376 30.8067C103.273 30.8067 103.999 30.0795 103.999 29.1827V21.4733C103.999 18.3825 101.698 16.0379 97.6832 15.0385ZM13.6355 3.24931C15.3586 3.24931 17.4129 3.944 17.4129 7.24498C17.4129 10.2153 15.6832 12.7218 13.6355 12.7218C11.5852 12.7218 9.85254 10.2153 9.85254 7.24498C9.85254 3.944 11.91 3.24931 13.6355 3.24931ZM1.62476 30.8071C2.52155 30.8071 3.24834 30.0799 3.24834 29.1831V21.4737C3.24834 19.5832 5.35393 18.6423 7.11888 18.1871C11.3674 17.0947 15.7547 17.0967 20.1597 18.189C21.6003 18.5473 24.0171 19.4508 24.0171 21.4735V29.1829C24.0171 30.0797 24.7442 30.8069 25.641 30.8069C26.5378 30.8069 27.2646 30.0797 27.2646 29.1829V21.4735C27.2646 18.3825 24.9602 16.0358 20.9424 15.0385C19.8416 14.7645 18.7413 14.5557 17.6426 14.4051C19.465 12.8271 20.6604 10.2065 20.6604 7.24478C20.6604 2.84489 17.9032 0.00195312 13.6355 0.00195312C9.36484 0.00195312 6.60538 2.84469 6.60538 7.24478C6.60538 10.2007 7.79671 12.8145 9.61346 14.3946C8.50562 14.5469 7.40326 14.7606 6.30923 15.0413C2.30035 16.0773 0.00117969 18.4209 0.00117969 21.4735V29.1829C0.00117969 30.0797 0.727961 30.8071 1.62476 30.8071ZM90.3709 76.4338C92.094 76.4338 94.1482 77.1257 94.1482 80.4352C94.1482 83.4026 92.4182 85.9092 90.3709 85.9092C88.3201 85.9092 86.5881 83.4026 86.5881 80.4352C86.5881 77.1257 88.6449 76.4338 90.3709 76.4338ZM97.6832 88.2269C96.5804 87.9528 95.4785 87.744 94.3783 87.5935C96.2 86.0144 97.3958 83.3947 97.3958 80.4352C97.3958 76.0314 94.6381 73.1857 90.3709 73.1857C86.1 73.1857 83.3407 76.0314 83.3407 80.4352C83.3407 83.3882 84.5317 86.0049 86.3488 87.5832C85.2406 87.7355 84.1382 87.9492 83.0442 88.2309C79.0389 89.2628 76.742 91.6095 76.742 94.6621V102.372C76.742 103.268 77.4688 103.995 78.3656 103.995C79.2624 103.995 79.9892 103.268 79.9892 102.372V94.6621C79.9892 92.7687 82.0919 91.8307 83.8536 91.3755C88.1012 90.2823 92.4907 90.2851 96.8993 91.3773C98.3385 91.7367 100.752 92.6391 100.752 94.6619V102.372C100.752 103.268 101.479 103.995 102.376 103.995C103.273 103.995 103.999 103.268 103.999 102.372V94.6619C103.999 91.5699 101.698 89.2262 97.6832 88.2269ZM13.6355 76.4338C15.3586 76.4338 17.4129 77.1257 17.4129 80.4352C17.4129 83.4026 15.6832 85.9092 13.6355 85.9092C11.5852 85.9092 9.85254 83.4026 9.85254 80.4352C9.85254 77.1257 11.91 76.4338 13.6355 76.4338ZM20.9424 88.2269C19.8416 87.9528 18.7413 87.744 17.643 87.5935C19.465 86.0144 20.6604 83.3947 20.6604 80.4352C20.6604 76.0314 17.9032 73.1857 13.6355 73.1857C9.36484 73.1857 6.60538 76.0314 6.60538 80.4352C6.60538 83.3882 7.79671 86.0049 9.61346 87.5832C8.50562 87.7355 7.40326 87.9492 6.30882 88.2309C2.30035 89.2648 0.000976562 91.6095 0.000976562 94.6621V102.372C0.000976562 103.268 0.727961 103.995 1.62455 103.995C2.52135 103.995 3.24813 103.268 3.24813 102.372V94.6621C3.24813 92.7708 5.35373 91.8307 7.11868 91.3755C11.3672 90.2823 15.7545 90.2851 20.1595 91.3773C21.6001 91.7367 24.0169 92.6391 24.0169 94.6619V102.372C24.0169 103.268 24.744 103.995 25.6408 103.995C26.5376 103.995 27.2644 103.268 27.2644 102.372V94.6619C27.2646 91.5699 24.9602 89.2244 20.9424 88.2269ZM61.7715 59.4178V69.8627C61.7715 70.7605 61.0443 71.4877 60.1475 71.4877C59.2511 71.4877 58.5243 70.7605 58.5243 69.8627V59.4178C58.5243 58.5221 59.2511 57.7947 60.1475 57.7947C61.0443 57.7947 61.7715 58.5219 61.7715 59.4178ZM43.8532 71.4877C44.7496 71.4877 45.4764 70.7605 45.4764 69.8627V59.4178C45.4764 58.5221 44.7496 57.7947 43.8532 57.7947C42.9564 57.7947 42.2292 58.5219 42.2292 59.4178V69.8627C42.2292 70.7605 42.9564 71.4877 43.8532 71.4877ZM52.0006 33.466C54.3249 33.466 57.0962 34.3983 57.0962 38.8336C57.0962 42.8081 54.8104 46.0419 52.0006 46.0419C49.2381 46.0419 46.9048 42.7409 46.9048 38.8336C46.9046 34.3981 49.6758 33.466 52.0006 33.466ZM60.9982 48.6748C59.4205 48.2848 57.8445 47.9973 56.2729 47.8105C58.7088 45.9834 60.3435 42.6432 60.3435 38.8334C60.3435 33.5212 57.1465 30.2205 52.0004 30.2205C49.6384 30.2205 47.6119 30.9478 46.1406 32.3246C44.5158 33.8442 43.6568 36.095 43.6568 38.8334C43.6568 42.6353 45.2846 45.9687 47.7114 47.7989C46.1274 47.9858 44.5536 48.2781 42.994 48.6784C38.1972 49.9116 35.4463 52.6873 35.4463 56.2968V69.8625C35.4463 70.7603 36.1735 71.4875 37.0703 71.4875C37.9667 71.4875 38.6934 70.7603 38.6934 69.8625V56.2968C38.6934 53.6848 41.4718 52.422 43.802 51.825C49.1389 50.4511 54.6617 50.4539 60.2176 51.826C62.1201 52.2975 65.3124 53.5067 65.3124 56.2968V69.8625C65.3124 70.7603 66.0391 71.4875 66.9359 71.4875C67.8327 71.4875 68.5595 70.7603 68.5595 69.8625V56.2968C68.5599 52.6436 65.8041 49.8667 60.9982 48.6748Z" fill="#231F20"/>
</g>
<defs>
<clipPath id="clip0_560_10200">
<rect width="104" height="104" fill="white"/>
</clipPath>
</defs>
</svg>
