<svg width="104" height="104" viewBox="0 0 104 104" fill="none" xmlns="http://www.w3.org/2000/svg">
<g clip-path="url(#clip0_560_10312)">
<path fill-rule="evenodd" clip-rule="evenodd" d="M82.858 59.5701C85.4387 60.0741 87.8689 61.0806 90.0426 62.5512L93.8873 60.8494L97.1913 64.149L95.4798 67.9842C96.9464 70.1694 97.9565 72.5905 98.4609 75.1734L102.377 76.681V81.3522L98.4647 82.8562C97.9559 85.4395 96.9464 87.8618 95.4804 90.047L97.1907 93.8808L93.8857 97.1895L90.0531 95.4837C87.8683 96.9486 85.4326 97.9532 82.8586 98.4637C82.8497 98.4718 81.4863 102.031 81.3533 102.377H76.6761C76.5465 102.038 75.1892 98.4643 75.1712 98.4607C72.5927 97.9537 70.166 96.9453 67.9895 95.4812L64.1429 97.1871L60.8403 93.8808L62.5512 90.0448C61.0857 87.861 60.0741 85.4389 59.571 82.8582L55.6547 81.3524V76.684L59.5651 75.1775C60.0668 72.5941 61.0875 70.1706 62.5508 67.9838L60.8399 64.149L64.1445 60.849L67.9753 62.5534C70.1591 61.082 72.5892 60.0767 75.1724 59.5705C75.1858 59.5679 76.5469 55.9923 76.6765 55.6543H81.3521L82.858 59.5701ZM19.5338 22.1706C17.2876 21.6105 15.5095 19.9996 14.3261 18.0589C13.0084 15.8979 12.3936 13.3145 12.3936 10.796C12.3936 5.15702 15.557 1.62305 21.2047 1.62305C26.8524 1.62305 30.0159 5.15702 30.0159 10.796C30.0159 13.3145 29.401 15.8977 28.0833 18.0587C26.8999 19.9994 25.1218 21.6103 22.8758 22.1706C21.7824 22.4432 20.6274 22.4432 19.5338 22.1706ZM68.036 79.0157C68.036 85.066 72.9595 89.9946 79.0108 89.9946C85.066 89.9946 89.9952 85.0719 89.9952 79.0157C89.9952 72.9599 85.0644 68.0427 79.0108 68.0427C72.9612 68.0427 68.036 72.9654 68.036 79.0157Z" fill="#fff"/>
<path fill-rule="evenodd" clip-rule="evenodd" d="M88.3723 79.0155C88.3723 73.8602 84.1756 69.6637 79.0111 69.6637C73.8562 69.6637 69.6594 73.86 69.6594 79.0155C69.6594 84.1745 73.8562 88.3715 79.0111 88.3715C84.1756 88.3715 88.3723 84.1745 88.3723 79.0155ZM91.6205 79.0155C91.6205 85.9644 85.9673 91.6194 79.0111 91.6194C72.0644 91.6194 66.4113 85.9644 66.4113 79.0155C66.4113 72.0685 72.0644 66.4175 79.0111 66.4175C85.9673 66.4175 91.6205 72.0685 91.6205 79.0155ZM100.752 77.7964V80.2359L97.8774 81.3411C97.36 81.5398 96.9767 81.9931 96.8713 82.5396C96.4019 84.9141 95.4819 87.1342 94.1309 89.1429C93.8244 89.6059 93.7669 90.1992 93.9969 90.7088L95.252 93.5225L93.5272 95.2491L91.5726 94.3755L90.7101 93.9954C90.1927 93.772 89.6081 93.8248 89.1483 94.1335C87.1361 95.4825 84.9036 96.4024 82.537 96.8717C81.9908 96.9813 81.5404 97.363 81.3393 97.8852L80.2374 100.752H77.794L76.692 97.8751C76.4907 97.3531 76.0309 96.973 75.4847 96.8656C73.1276 96.4022 70.9046 95.4823 68.8829 94.1333C68.423 93.8246 67.8384 93.7718 67.3306 93.9952L64.5039 95.2487L62.7792 93.5221L64.0345 90.7084C64.2644 90.197 64.207 89.6036 63.9004 89.1385C62.5495 87.1338 61.6295 84.9135 61.1601 82.5432C61.0547 81.9944 60.6714 81.5416 60.154 81.3405L57.2796 80.2353V77.7978L60.154 76.6887C60.6714 76.4874 61.0547 76.0326 61.1601 75.486C61.62 73.1219 62.5495 70.9015 63.9004 68.8863C64.207 68.4234 64.2646 67.8301 64.0345 67.3204L62.7792 64.5073L64.5039 62.785L67.3209 64.0341C67.8287 64.2634 68.4228 64.213 68.8827 63.9C70.8949 62.5474 73.1179 61.627 75.4845 61.1641C76.0307 61.0562 76.4905 60.6746 76.6918 60.1544L77.7938 57.2783H80.2372L81.0038 59.2647L81.3391 60.1465C81.5307 60.6703 81.9908 61.0562 82.5465 61.1641C84.9131 61.627 87.1361 62.5474 89.1387 63.8982C89.5986 64.2108 90.1927 64.2634 90.7006 64.0363L93.527 62.7852L95.2518 64.5075L93.9967 67.3206C93.7667 67.8325 93.8242 68.4258 94.1307 68.8889C95.4817 70.8958 96.4017 73.1139 96.8711 75.4865C96.9765 76.0329 97.3598 76.4879 97.8772 76.6891L100.752 77.7964ZM104 76.6833V81.3531C104 82.0257 103.578 82.6269 102.955 82.8686L99.8607 84.0571C99.3338 86.2265 98.4809 88.2819 97.3216 90.1852L98.6726 93.2239C98.9409 93.8374 98.8067 94.5544 98.3372 95.0297L95.0316 98.3344C94.5524 98.8119 93.834 98.9441 93.2207 98.6697L90.1929 97.3189C88.2862 98.4849 86.2261 99.3378 84.0606 99.8619L84.0415 99.9187L82.863 102.957C82.6235 103.585 82.0198 103.998 81.3491 103.998H76.6829C76.0122 103.998 75.4085 103.585 75.169 102.957L73.9712 99.86C71.8057 99.3378 69.7458 98.4867 67.839 97.3189L67.772 97.3492L64.8113 98.6697C64.1885 98.9441 63.4698 98.8097 62.9909 98.3325L59.6947 95.0297C59.2253 94.5544 59.0911 93.8372 59.3594 93.2239L60.7104 90.187C59.5414 88.2819 58.6887 86.2263 58.1713 84.0571L55.0667 82.8686C54.444 82.6287 54.032 82.0257 54.032 81.3531V76.6833C54.032 76.0109 54.4442 75.4099 55.0667 75.1682L58.1713 73.9738C58.6887 71.8087 59.5414 69.7526 60.7104 67.8435L59.3594 64.8065C59.0911 64.1931 59.2253 63.474 59.6947 63.001L63.0004 59.7002C63.4698 59.2267 64.1885 59.0926 64.8017 59.3648L67.839 60.7138C69.7458 59.5438 71.8059 58.6925 73.9712 58.1704L75.169 55.071C75.4085 54.4451 76.0122 54.0308 76.6829 54.0308H81.3491C82.0198 54.0308 82.6235 54.4451 82.863 55.071L84.0606 58.1727C86.2261 58.6925 88.2862 59.5456 90.1832 60.7138L93.2205 59.3648C93.8338 59.0926 94.5524 59.2249 95.0218 59.6977L98.337 63.0008C98.8065 63.4738 98.9407 64.1929 98.6724 64.8063L97.3214 67.8433C98.4904 69.7465 99.3431 71.802 99.8605 73.9736L102.955 75.1679C103.588 75.4101 104 76.0111 104 76.6833ZM30.2597 36.9888V47.4276C30.2597 48.3252 30.9879 49.0503 31.8886 49.0503C32.7797 49.0503 33.5079 48.325 33.5079 47.4276V36.9888C33.5079 36.091 32.7797 35.3636 31.8886 35.3636C30.9879 35.3636 30.2597 36.091 30.2597 36.9888ZM8.90232 36.9888V47.4276C8.90232 48.3252 9.63052 49.0503 10.5216 49.0503C11.4223 49.0503 12.1505 48.325 12.1505 47.4276V36.9888C12.1505 36.091 11.4223 35.3636 10.5216 35.3636C9.63052 35.3636 8.90232 36.091 8.90232 36.9888ZM21.205 20.751C25.1718 20.751 28.3911 16.2842 28.3911 10.7958C28.3911 4.22918 23.8879 3.24789 21.205 3.24789C18.5221 3.24789 14.0188 4.22898 14.0188 10.7958C14.0188 16.2842 17.2384 20.751 21.205 20.751ZM1.62984 49.0503C0.72918 49.0503 0.000976562 48.325 0.000976562 47.4276V33.6435C0.000976562 29.0953 3.38321 25.7196 9.5251 24.1411C11.978 23.5094 14.4692 23.0849 16.97 22.8592C13.3195 20.8017 10.7707 16.1705 10.7707 10.7956C10.7707 4.13696 14.7661 -0.000488281 21.205 -0.000488281C27.6439 -0.000488281 31.6393 4.13676 31.6393 10.7956C31.6393 16.1804 29.0714 20.82 25.4113 22.8714C27.8929 23.0989 30.3842 23.5194 32.8753 24.1387C38.9404 25.6459 42.409 29.1114 42.409 33.6431V47.4272C42.409 48.3248 41.6808 49.0499 40.7897 49.0499C39.889 49.0499 39.1608 48.3246 39.1608 47.4272V33.6431C39.1608 29.6454 34.7341 27.9473 32.0992 27.2894C24.7406 25.4673 17.4106 25.4651 10.3297 27.2871C7.1006 28.1181 3.24874 29.8932 3.24874 33.6431V47.4272C3.24915 48.3252 2.52095 49.0503 1.62984 49.0503ZM47.5066 87.847H25.651C19.5379 87.847 14.5555 82.8666 14.5555 76.7466V58.9102L20.1896 66.058C20.7453 66.7632 21.7609 66.8829 22.4701 66.3281C23.1694 65.7716 23.2941 64.7521 22.7384 64.0473L14.201 53.2225C13.8945 52.8325 13.4249 52.6032 12.9266 52.6032C12.4379 52.6032 11.9685 52.8307 11.6522 53.2225L3.11509 64.0473C2.55934 64.7499 2.68385 65.7716 3.38341 66.3281C3.68038 66.5617 4.03504 66.6755 4.38949 66.6755C4.86866 66.6755 5.34763 66.4644 5.6639 66.058L11.3075 58.9082V76.7468C11.3075 84.6583 17.7464 91.0952 25.6512 91.0952H47.5068C48.4075 91.0952 49.1357 90.368 49.1357 89.4722C49.1355 88.5742 48.4073 87.847 47.5066 87.847ZM40.2437 14.5272C40.2437 15.423 40.9623 16.1502 41.863 16.1502H78.3499C84.463 16.1502 89.4454 21.1326 89.4454 27.2571V45.193L83.8116 38.0491C83.2558 37.3463 82.2306 37.2244 81.5311 37.7812C80.8315 38.3355 80.707 39.3572 81.2628 40.0602L89.7999 50.8807C90.1064 51.2707 90.576 51.4978 91.0648 51.4978C91.563 51.4978 92.0324 51.2707 92.3487 50.8807L100.886 40.0621C101.442 39.3572 101.317 38.3355 100.618 37.7812C99.9086 37.2246 98.893 37.3463 98.3372 38.0491L92.6936 45.1971V27.2571C92.6936 19.3431 86.2548 12.9022 78.3499 12.9022H41.863C40.9623 12.9022 40.2437 13.6294 40.2437 14.5272Z" fill="#231F20"/>
</g>
<defs>
<clipPath id="clip0_560_10312">
<rect width="104" height="104" fill="white"/>
</clipPath>
</defs>
</svg>
