<svg width="104" height="104" viewBox="0 0 104 104" fill="none" xmlns="http://www.w3.org/2000/svg">
<g clip-path="url(#clip0_560_10256)">
<path fill-rule="evenodd" clip-rule="evenodd" d="M57.3844 80.5244C57.3844 83.3855 55.8451 86.9773 52.7226 87.5318C52.2451 87.6165 51.7535 87.6167 51.276 87.5318C48.1535 86.9773 46.6147 83.3854 46.6147 80.5246C46.6147 77.1081 48.5588 74.9204 51.9995 74.9204C55.4402 74.9204 57.3844 77.1079 57.3844 80.5244ZM42.609 35.5217C42.6058 35.5213 39.6286 36.8467 39.3454 36.9726L36.5291 34.1607L37.9835 30.9018C36.7375 29.0385 35.8765 26.9744 35.446 24.7762L32.1156 23.4995V19.5193L35.4448 18.2406C35.8756 16.0434 36.7355 13.9784 37.9835 12.1199L36.5328 8.85462L39.3444 6.0452L42.6062 7.49693C44.4642 6.24345 46.5296 5.38626 48.728 4.95564L50.0136 1.62256H53.9853L55.2696 4.95564C57.4693 5.38646 59.5346 6.24365 61.391 7.49409L64.6542 6.045L67.4659 8.85442L66.0157 12.1184C67.2631 13.9782 68.1228 16.0432 68.554 18.239L71.8828 19.5191V23.4993L68.5534 24.775C68.1223 26.9717 67.2627 29.0383 66.0147 30.8973L67.4654 34.1611L64.6552 36.9714L61.3902 35.5266C59.532 36.7723 57.4654 37.6287 55.2704 38.0603L53.9848 41.3946H50.0127L48.7268 38.0603C46.5289 37.6273 44.464 36.7735 42.609 35.5217ZM18.9677 80.5244C18.9677 83.3834 17.4333 86.9696 14.3156 87.5302C13.8335 87.6167 13.3371 87.6171 12.8551 87.531C9.73488 86.9736 8.19824 83.3844 8.19824 80.5244C8.19824 77.1075 10.1419 74.9202 13.5831 74.9202C17.0246 74.92 18.9677 77.1071 18.9677 80.5244ZM85.0313 80.5244C85.0313 77.1062 86.975 74.9202 90.4169 74.9202C93.8577 74.9202 95.8008 77.1083 95.8008 80.5244C95.8008 83.3846 94.2633 86.9755 91.1421 87.5314C90.6601 87.6174 90.1634 87.6167 89.6816 87.5298C86.5649 86.9676 85.0313 83.383 85.0313 80.5244ZM51.9995 12.167C46.8503 12.167 42.6556 16.3536 42.6556 21.5044C42.6556 26.6561 46.8474 30.8504 51.9995 30.8504C57.1516 30.8504 61.3435 26.6561 61.3435 21.5044C61.3435 16.3536 57.1487 12.167 51.9995 12.167Z" fill="#fff"/>
<path fill-rule="evenodd" clip-rule="evenodd" d="M11.9598 67.4533V57.6245C11.9598 56.7287 12.687 56.0013 13.583 56.0013H50.3765V48.3599C50.3765 47.4641 51.1018 46.7368 51.9996 46.7368C52.8974 46.7368 53.6228 47.4639 53.6228 48.3599V56.0013H90.4171C91.312 56.0013 92.0392 56.7285 92.0392 57.6245V67.4533C92.0392 68.349 91.312 69.0764 90.4171 69.0764C89.5193 69.0764 88.7921 68.3493 88.7921 67.4533V59.2495H53.6228V67.4533C53.6228 68.349 52.8974 69.0764 51.9996 69.0764C51.1018 69.0764 50.3765 68.3493 50.3765 67.4533V59.2495H15.208V67.4533C15.208 68.349 14.4808 69.0764 13.583 69.0764C12.6872 69.0764 11.9598 68.349 11.9598 67.4533ZM90.4171 76.5451C92.1312 76.5451 94.1759 77.236 94.1759 80.5244C94.1759 83.4756 92.454 85.9706 90.4171 85.9706C88.3773 85.9706 86.6564 83.4756 86.6564 80.5244C86.6564 77.236 88.7001 76.5451 90.4171 76.5451ZM97.6991 88.2817C96.604 88.0095 95.5106 87.8025 94.4203 87.6522C96.234 86.078 97.4241 83.4717 97.4241 80.5244C97.4241 76.135 94.6723 73.297 90.4171 73.297C86.159 73.297 83.4091 76.135 83.4091 80.5244C83.4091 83.464 84.5925 86.0654 86.3966 87.6396C85.2977 87.792 84.2053 88.0038 83.1206 88.2835C79.1251 89.3118 76.8331 91.6495 76.8331 94.6984V102.374C76.8331 103.272 77.5605 103.997 78.4563 103.997C79.3541 103.997 80.0813 103.272 80.0813 102.374V94.6984C80.0813 92.8128 82.1738 91.8815 83.9293 91.4301C88.2065 90.3253 92.454 90.3272 96.9191 91.432C98.3487 91.7874 100.752 92.6834 100.752 94.6984V102.374C100.752 103.272 101.479 103.997 102.375 103.997C103.273 103.997 104 103.272 104 102.374V94.6984C104 91.6134 101.702 89.2736 97.6991 88.2817ZM51.9996 76.5451C53.7138 76.5451 55.7595 77.236 55.7595 80.5244C55.7595 83.4756 54.0368 85.9706 51.9996 85.9706C49.9625 85.9706 48.2398 83.4756 48.2398 80.5244C48.2398 77.236 50.2855 76.5451 51.9996 76.5451ZM59.2817 88.2817C58.1884 88.0095 57.0942 87.8025 56.0057 87.6522C57.8175 86.078 59.0076 83.4717 59.0076 80.5244C59.0076 76.135 56.2567 73.297 51.9996 73.297C47.7425 73.297 44.9916 76.135 44.9916 80.5244C44.9916 83.464 46.1758 86.0654 47.982 87.6396C46.8811 87.792 45.7879 88.0038 44.7032 88.2835C40.7077 89.3118 38.4167 91.6495 38.4167 94.6984V102.374C38.4167 103.272 39.1439 103.997 40.0398 103.997C40.9376 103.997 41.6648 103.272 41.6648 102.374V94.6984C41.6648 92.8128 43.7564 91.8815 45.5139 91.4301C49.7892 90.3253 54.0368 90.3272 58.5017 91.432C59.9341 91.7874 62.3342 92.6834 62.3342 94.6984V102.374C62.3342 103.272 63.0614 103.997 63.9592 103.997C64.855 103.997 65.5824 103.272 65.5824 102.374V94.6984C65.5826 91.6134 63.2859 89.2736 59.2817 88.2817ZM13.583 76.5451C15.299 76.5451 17.3429 77.236 17.3429 80.5244C17.3429 83.4756 15.622 85.9706 13.583 85.9706C11.5451 85.9706 9.82316 83.4756 9.82316 80.5244C9.82316 77.236 11.868 76.5451 13.583 76.5451ZM20.8669 88.2817C19.7716 88.0095 18.6794 87.8025 17.588 87.6522C19.4017 86.078 20.591 83.4717 20.591 80.5244C20.591 76.135 17.8401 73.297 13.583 73.297C9.32693 73.297 6.57499 76.135 6.57499 80.5244C6.57499 83.464 7.75921 86.0654 9.5654 87.6396C8.46344 87.792 7.37124 88.0038 6.28655 88.2835C2.29109 89.3118 -0.000976562 91.6495 -0.000976562 94.6984V102.374C-0.000976562 103.272 0.726211 103.997 1.62402 103.997C2.5198 103.997 3.2472 103.272 3.2472 102.374V94.6984C3.2472 92.8128 5.33979 91.8815 7.09723 91.4301C11.3726 90.3253 15.622 90.3272 20.0842 91.432C21.5167 91.7874 23.9178 92.6834 23.9178 94.6984V102.374C23.9178 103.272 24.645 103.997 25.5428 103.997C26.4386 103.997 27.166 103.272 27.166 102.374V94.6984C27.166 91.6134 24.8703 89.2736 20.8669 88.2817ZM51.9996 13.7895C56.2567 13.7895 59.7204 17.2513 59.7204 21.5046C59.7204 25.7627 56.2567 29.2274 51.9996 29.2274C47.7425 29.2274 44.2786 25.7627 44.2786 21.5046C44.2786 17.2511 47.7425 13.7895 51.9996 13.7895ZM51.9996 32.4755C58.0485 32.4755 62.9686 27.5534 62.9686 21.5046C62.9686 15.4596 58.0485 10.5423 51.9996 10.5423C45.9508 10.5423 41.0307 15.4596 41.0307 21.5046C41.0307 27.5534 45.9508 32.4755 51.9996 32.4755ZM33.7409 20.6354V22.3823L36.0281 23.2589C36.5504 23.4611 36.9316 23.9152 37.0399 24.4625C37.427 26.4401 38.1993 28.3009 39.3348 29.9986C39.6462 30.4644 39.6961 31.0573 39.467 31.5672L38.4695 33.8015L39.7047 35.0347L41.9478 34.0374C42.4595 33.8093 43.0526 33.8611 43.5153 34.1735C45.1931 35.3051 47.0519 36.0745 49.0419 36.4663C49.591 36.5746 50.0441 36.9561 50.2444 37.4763L51.1288 39.7702H52.8708L53.7552 37.4763C53.9555 36.9561 54.4097 36.5746 54.9577 36.4663C56.9441 36.0763 58.8047 35.3051 60.4864 34.1773C60.9473 33.8688 61.5347 33.8162 62.0425 34.0374L64.2952 35.0347L65.5284 33.8015L64.531 31.5574C64.3039 31.0476 64.3537 30.4555 64.6671 29.9907C65.8006 28.3005 66.5728 26.4397 66.96 24.4621C67.0683 23.9148 67.4497 23.4607 67.9718 23.2585L70.2589 22.3819V20.635L67.9718 19.7555C67.4495 19.5562 67.0683 19.101 66.96 18.5529C66.573 16.5743 65.8006 14.7137 64.6671 13.0235C64.3565 12.5608 64.3039 11.9695 64.531 11.4598L65.5284 9.21489L64.2948 7.98293L62.0507 8.97947C61.541 9.20757 60.9469 9.15679 60.4842 8.84439C58.8063 7.71278 56.9476 6.9405 54.9575 6.5505C54.4095 6.44325 53.9553 6.06076 53.755 5.54056L52.8706 3.24768H51.1286L50.2442 5.54056C50.0439 6.06076 49.5908 6.44325 49.0417 6.5505C47.0517 6.9405 45.1927 7.71278 43.5151 8.84439C43.0524 9.15679 42.4593 9.20757 41.9494 8.97947L39.7045 7.98293L38.4713 9.21509L39.4689 11.46C39.6959 11.9699 39.6433 12.561 39.3328 13.0237C38.1993 14.7139 37.427 16.5745 37.0399 18.5532C36.9316 19.1012 36.5504 19.5564 36.0281 19.7557L33.7409 20.6354ZM31.5342 25.0123L34.0493 25.9792C34.4919 27.7565 35.1933 29.4506 36.1457 31.0354L35.0507 33.5017C34.7767 34.117 34.9107 34.8336 35.386 35.3087L38.1955 38.12C38.6708 38.5933 39.3902 38.7273 40.0035 38.4553L42.4716 37.3583C44.0459 38.3087 45.7389 39.0121 47.5268 39.4547L48.4974 41.9775C48.7397 42.6032 49.3426 43.0171 50.0131 43.0171H53.9866C54.6563 43.0171 55.259 42.6032 55.5015 41.9775L56.4722 39.4547C58.2602 39.0121 59.9542 38.3107 61.5323 37.3601L63.9958 38.4553C64.61 38.7275 65.3287 38.5933 65.8038 38.12L68.6132 35.3087C69.0885 34.8334 69.2226 34.1168 68.9486 33.5017L67.8515 31.0307C68.804 29.4526 69.5072 27.7586 69.95 25.9792L72.4651 25.0123C73.0899 24.7728 73.5047 24.1692 73.5047 23.4974V19.5182C73.5047 18.8475 73.0897 18.2438 72.4651 18.0025L69.95 17.0376C69.5074 15.2583 68.804 13.5642 67.8515 11.9843L68.9486 9.51409C69.2226 8.90086 69.0885 8.18139 68.6132 7.70607L65.804 4.89665C65.3287 4.42134 64.61 4.28911 63.996 4.56129L61.5286 5.65837C59.9544 4.70592 58.2603 4.00372 56.4724 3.55989L55.5017 1.04012C55.2594 0.414496 54.6567 -0.000488281 53.9868 -0.000488281H50.0133C49.3426 -0.000488281 48.7399 0.414293 48.4976 1.04012L47.527 3.56009C45.7391 4.00372 44.0461 4.70612 42.4719 5.65857L40.0037 4.5615C39.3904 4.28931 38.6708 4.42154 38.1957 4.89686L35.386 7.70607C34.9107 8.18139 34.7767 8.90086 35.0507 9.51409L36.1478 11.9843C35.1953 13.5642 34.4921 15.2583 34.0493 17.0376L31.5342 18.0025C30.9094 18.2438 30.4946 18.8475 30.4946 19.5182V23.4974C30.4946 24.1692 30.9096 24.7728 31.5342 25.0123Z" fill="#231F20"/>
</g>
<defs>
<clipPath id="clip0_560_10256">
<rect width="104" height="104" fill="white"/>
</clipPath>
</defs>
</svg>
