<svg xmlns="http://www.w3.org/2000/svg" width="56" height="56" viewBox="0 0 56 56" fill="none">
  <g clip-path="url(#clip0_560_11608)">
    <path d="M44.8007 0.93335H11.2007C10.1697 0.93335 9.33398 1.76908 9.33398 2.80002V49.4667C9.33398 50.4976 10.1697 51.3334 11.2007 51.3334H44.8007C45.8316 51.3334 46.6673 50.4976 46.6673 49.4667V2.80002C46.6673 1.76908 45.8316 0.93335 44.8007 0.93335Z" fill="white"/>
    <path fill-rule="evenodd" clip-rule="evenodd" d="M44.8 0.93335H42C43.0309 0.93335 43.8667 1.76908 43.8667 2.80002V49.4667C43.8667 50.4976 43.0309 51.3334 42 51.3334H44.8C45.8309 51.3334 46.6667 50.4976 46.6667 49.4667V2.80002C46.6667 1.76908 45.8309 0.93335 44.8 0.93335Z" fill="white"/>
    <path fill-rule="evenodd" clip-rule="evenodd" d="M11.2012 51.3333H20.5345V53.1999C20.5345 54.2309 19.6988 55.0666 18.6678 55.0666H13.0678C12.0369 55.0666 11.2012 54.2309 11.2012 53.1999V51.3333Z" fill="#E26655"/>
    <path fill-rule="evenodd" clip-rule="evenodd" d="M17.7339 51.3333V53.1999C17.7339 54.2309 16.8981 55.0666 15.8672 55.0666H18.6672C19.6981 55.0666 20.5339 54.2309 20.5339 53.1999V51.3333H17.7339Z" fill="#E26655"/>
    <path fill-rule="evenodd" clip-rule="evenodd" d="M35.4668 51.3333H44.8001V53.1999C44.8001 54.2309 43.9644 55.0666 42.9335 55.0666H37.3335C36.3025 55.0666 35.4668 54.2309 35.4668 53.1999V51.3333Z" fill="#E26655"/>
    <path fill-rule="evenodd" clip-rule="evenodd" d="M41.9995 51.3333V53.1999C41.9995 54.2309 41.1637 55.0666 40.1328 55.0666H42.9328C43.9637 55.0666 44.7995 54.2309 44.7995 53.1999V51.3333H41.9995Z" fill="#E26655"/>
    <path fill-rule="evenodd" clip-rule="evenodd" d="M14.9333 42.9333H31.7333C32.2488 42.9333 32.6667 43.3512 32.6667 43.8667V45.7333C32.6667 46.7643 31.8309 47.6 30.8 47.6H15.8667C14.8357 47.6 14 46.7643 14 45.7333V43.8667C14 43.3512 14.4179 42.9333 14.9333 42.9333Z" fill="#E26655"/>
    <path fill-rule="evenodd" clip-rule="evenodd" d="M31.7333 42.9333H28.9333C29.4488 42.9333 29.8667 43.3512 29.8667 43.8667V45.7333C29.8667 46.7643 29.0309 47.6 28 47.6H30.8C31.8309 47.6 32.6667 46.7643 32.6667 45.7333V43.8667C32.6667 43.3512 32.2488 42.9333 31.7333 42.9333Z" fill="#E26655"/>
    <path fill-rule="evenodd" clip-rule="evenodd" d="M35.4673 31.7334V37.3334C35.4642 38.3631 34.6303 39.197 33.6007 39.2001H9.33398V31.7334H35.4673Z" fill="#E26655"/>
    <path fill-rule="evenodd" clip-rule="evenodd" d="M32.6674 31.7334V37.3334C32.6644 38.3631 31.8304 39.197 30.8008 39.2001H33.6008C34.6304 39.197 35.4644 38.3631 35.4674 37.3334V31.7334H32.6674Z" fill="#E26655"/>
    <path fill-rule="evenodd" clip-rule="evenodd" d="M9.33398 22.3999H35.4673V31.7332H9.33398V22.3999Z" fill="#E26655"/>
    <path fill-rule="evenodd" clip-rule="evenodd" d="M32.668 22.3999H35.468V31.7332H32.668V22.3999Z" fill="#E26655"/>
    <path fill-rule="evenodd" clip-rule="evenodd" d="M9.33398 13.0667H35.4673V22.4H9.33398V13.0667Z" fill="#E26655"/>
    <path fill-rule="evenodd" clip-rule="evenodd" d="M32.668 13.0667H35.468V22.4H32.668V13.0667Z" fill="#E26655"/>
    <path fill-rule="evenodd" clip-rule="evenodd" d="M35.4673 7.46676V13.0668H9.33398V5.6001H33.6007C34.6303 5.60317 35.4642 6.43711 35.4673 7.46676Z" fill="#E26655"/>
    <path fill-rule="evenodd" clip-rule="evenodd" d="M33.6008 5.6001H30.8008C31.8304 5.60317 32.6644 6.43711 32.6674 7.46676V13.0668H35.4674V7.46676C35.4644 6.43711 34.6304 5.60317 33.6008 5.6001Z" fill="#E26655"/>
    <path d="M42.0012 11.2H40.1345C39.619 11.2 39.2012 11.6178 39.2012 12.1333V14C39.2012 14.5154 39.619 14.9333 40.1345 14.9333H42.0012C42.5166 14.9333 42.9345 14.5154 42.9345 14V12.1333C42.9345 11.6178 42.5166 11.2 42.0012 11.2Z" fill="#E26655"/>
    <path fill-rule="evenodd" clip-rule="evenodd" d="M9.33398 5.60002V49.4667C9.33398 50.4976 10.1697 51.3334 11.2007 51.3334V53.2C11.2007 54.231 12.0364 55.0667 13.0673 55.0667H15.8673C14.8364 55.0667 14.0007 54.231 14.0007 53.2V51.3334C12.9697 51.3334 12.134 50.4976 12.134 49.4667V2.80002C12.134 1.76908 12.9697 0.93335 14.0007 0.93335H11.2007C10.1697 0.93335 9.33398 1.76908 9.33398 2.80002V5.60002Z" fill="white"/>
    <path fill-rule="evenodd" clip-rule="evenodd" d="M8.40039 42H10.2671V49.4667H8.40039V42Z" fill="white"/>
    <path d="M39.2009 27.0666C39.7164 27.0666 40.1342 26.6488 40.1342 26.1333C40.1342 25.6178 39.7164 25.2 39.2009 25.2C38.6854 25.2 38.2676 25.6178 38.2676 26.1333C38.2676 26.6488 38.6854 27.0666 39.2009 27.0666Z" fill="#231F20"/>
    <path d="M42.9333 27.0666C43.4488 27.0666 43.8667 26.6488 43.8667 26.1333C43.8667 25.6178 43.4488 25.2 42.9333 25.2C42.4179 25.2 42 25.6178 42 26.1333C42 26.6488 42.4179 27.0666 42.9333 27.0666Z" fill="#231F20"/>
    <path d="M39.2009 23.3332C39.7164 23.3332 40.1342 22.9154 40.1342 22.3999C40.1342 21.8844 39.7164 21.4666 39.2009 21.4666C38.6854 21.4666 38.2676 21.8844 38.2676 22.3999C38.2676 22.9154 38.6854 23.3332 39.2009 23.3332Z" fill="#231F20"/>
    <path d="M42.9333 23.3332C43.4488 23.3332 43.8667 22.9154 43.8667 22.3999C43.8667 21.8844 43.4488 21.4666 42.9333 21.4666C42.4179 21.4666 42 21.8844 42 22.3999C42 22.9154 42.4179 23.3332 42.9333 23.3332Z" fill="#231F20"/>
    <path d="M39.2009 19.6001C39.7164 19.6001 40.1342 19.1822 40.1342 18.6667C40.1342 18.1513 39.7164 17.7334 39.2009 17.7334C38.6854 17.7334 38.2676 18.1513 38.2676 18.6667C38.2676 19.1822 38.6854 19.6001 39.2009 19.6001Z" fill="#231F20"/>
    <path d="M42.9333 19.6001C43.4488 19.6001 43.8667 19.1822 43.8667 18.6667C43.8667 18.1513 43.4488 17.7334 42.9333 17.7334C42.4179 17.7334 42 18.1513 42 18.6667C42 19.1822 42.4179 19.6001 42.9333 19.6001Z" fill="#231F20"/>
    <path d="M9.33372 46.6667C9.84919 46.6667 10.2671 46.2488 10.2671 45.7334C10.2671 45.2179 9.84919 44.8 9.33372 44.8C8.81826 44.8 8.40039 45.2179 8.40039 45.7334C8.40039 46.2488 8.81826 46.6667 9.33372 46.6667Z" fill="#231F20"/>
    <path d="M10.2671 52.0949V53.2C10.2671 54.7464 11.5207 56 13.0671 56H18.6671C20.2135 56 21.4671 54.7464 21.4671 53.2V52.2667H34.5337V53.2C34.5337 54.7464 35.7873 56 37.3337 56H42.9337C44.4801 56 45.7337 54.7464 45.7337 53.2V52.0949C46.8485 51.7008 47.5955 50.649 47.6004 49.4667V2.8C47.6004 1.2536 46.3468 0 44.8004 0H11.2004C9.65399 0 8.40039 1.2536 8.40039 2.8V42C8.40039 42.5155 8.81826 42.9333 9.33372 42.9333C9.84919 42.9333 10.2671 42.5155 10.2671 42V40.1333H33.6004C35.1468 40.1333 36.4004 38.8797 36.4004 37.3333V7.46667C36.4004 5.92027 35.1468 4.66667 33.6004 4.66667H10.2671V2.8C10.2671 2.28453 10.6849 1.86667 11.2004 1.86667H44.8004C45.3159 1.86667 45.7337 2.28453 45.7337 2.8V49.4667C45.7337 49.9821 45.3159 50.4 44.8004 50.4H11.2004C10.6849 50.4 10.2671 49.9821 10.2671 49.4667C10.2671 48.9512 9.84919 48.5333 9.33372 48.5333C8.81826 48.5333 8.40039 48.9512 8.40039 49.4667C8.40529 50.649 9.15233 51.7008 10.2671 52.0949ZM10.2671 23.3333H34.5337V30.8H10.2671V23.3333ZM10.2671 21.4667V14H34.5337V21.4667H10.2671ZM33.6004 38.2667H10.2671V32.6667H34.5337V37.3333C34.5337 37.8488 34.1159 38.2667 33.6004 38.2667ZM33.6004 6.53333C34.1159 6.53333 34.5337 6.9512 34.5337 7.46667V12.1333H10.2671V6.53333H33.6004ZM43.8671 52.2667V53.2C43.8671 53.7155 43.4492 54.1333 42.9337 54.1333H37.3337C36.8183 54.1333 36.4004 53.7155 36.4004 53.2V52.2667H43.8671ZM19.6004 52.2667V53.2C19.6004 53.7155 19.1825 54.1333 18.6671 54.1333H13.0671C12.5516 54.1333 12.1337 53.7155 12.1337 53.2V52.2667H19.6004Z" fill="#231F20"/>
    <path d="M30.7997 48.5333C32.3461 48.5333 33.5997 47.2797 33.5997 45.7333V43.8667C33.5997 42.8357 32.764 42 31.7331 42H14.9331C13.9021 42 13.0664 42.8357 13.0664 43.8667V45.7333C13.0664 47.2797 14.32 48.5333 15.8664 48.5333H30.7997ZM14.9331 45.7333V43.8667H31.7331V45.7333C31.7331 46.2488 31.3152 46.6667 30.7997 46.6667H15.8664C15.3509 46.6667 14.9331 46.2488 14.9331 45.7333Z" fill="#231F20"/>
    <path fill-rule="evenodd" clip-rule="evenodd" d="M39.2009 30.8H42.9342C43.4497 30.8 43.8676 30.3821 43.8676 29.8667C43.8676 29.3512 43.4497 28.9333 42.9342 28.9333H39.2009C38.6854 28.9333 38.2676 29.3512 38.2676 29.8667C38.2676 30.3821 38.6854 30.8 39.2009 30.8Z" fill="#231F20"/>
    <path d="M40.1342 15.8666H42.0009C43.0318 15.8666 43.8676 15.0309 43.8676 13.9999V12.1333C43.8676 11.1023 43.0318 10.2666 42.0009 10.2666H40.1342C39.1033 10.2666 38.2676 11.1023 38.2676 12.1333V13.9999C38.2676 15.0309 39.1033 15.8666 40.1342 15.8666ZM40.1342 12.1333H42.0009V13.9999H40.1342V12.1333Z" fill="#231F20"/>
  </g>
  <defs>
    <clipPath id="clip0_560_11608">
      <rect width="56" height="56" fill="white"/>
    </clipPath>
  </defs>
</svg>