<svg xmlns="http://www.w3.org/2000/svg" width="168" height="48" viewBox="0 0 168 48" fill="none">
  <path d="M21.8614 29.7984C21.773 29.8058 21.6704 29.8681 21.6108 29.9371C20.9844 30.657 20.3727 31.389 19.7404 32.102C19.5758 32.2866 19.6143 32.391 19.7707 32.5368C20.6502 33.359 21.4499 34.2517 22.0849 35.2833C22.2808 35.601 22.4454 35.9382 22.6331 36.2627C22.883 36.6961 23.1431 37.1226 23.3946 37.556C23.8093 38.2691 24.4581 38.6265 25.2345 38.785C26.1161 38.965 26.9975 39.0393 27.869 38.7271C27.9688 38.6907 28.0649 38.6456 28.2678 38.5603C28.0139 38.3347 27.8061 38.1515 27.5988 37.967C26.8583 37.308 26.0174 36.8 25.1358 36.3674C24.6263 36.1178 24.2976 35.7399 24.0857 35.2319C23.7114 34.3296 23.3568 33.4227 23.2231 32.443C23.1534 31.9399 23.2467 31.7794 23.7057 31.5853C24.5431 31.3521 25.5424 30.9898 26.0928 30.3562C26.1397 30.3226 23.2844 29.659 21.8614 29.7984Z" fill="white"/>
  <path d="M41.2881 30.3727C41.8352 32.1131 46.538 35.267 46.4727 38.2643C46.5231 38.6963 46.8766 39.0991 47.3171 39.2432C48.3818 39.5918 49.4864 39.6096 50.6558 39.5207C50.5682 39.3944 50.5085 39.2883 50.4298 39.2002C49.8371 38.5304 49.268 37.8372 48.6365 37.2075C47.3448 35.9055 45.6139 30.9653 45.5694 29.8962C44.607 29.5238 42.1192 29.8136 41.2881 30.3727Z" fill="white"/>
  <path d="M56.512 21.9745C55.7913 23.1202 54.8193 24.2934 54.8193 24.2934C55.047 24.691 55.3535 25.3026 55.6052 25.7825C56.3319 24.6273 56.7567 23.1804 56.512 21.9745Z" fill="white"/>
  <path d="M54.3167 30.063C54.3167 30.063 54.8141 29.5585 54.8141 29.3215C53.9629 29.5388 53.2528 30.0055 52.0882 30.8922C53.1206 29.6058 54.627 28.6207 55.7001 28.6489C55.5631 29.1183 54.7928 29.8948 54.3167 30.063ZM44.0407 16.7448C43.8476 15.1658 46.4851 14.5771 46.7629 17.1271C45.8034 16.3836 44.6722 16.4285 44.0407 16.7448ZM42.1834 10.6018C41.0235 9.8242 39.7157 9.53246 38.3402 9.387C38.4188 10.478 39.3371 11.7882 40.2341 11.8716C40.2477 11.3152 39.9027 10.9097 39.6046 10.4301C40.4075 10.6018 41.0666 10.9073 41.6338 11.3978C41.6257 11.4235 41.6184 11.4486 41.6102 11.4746C41.2462 11.4935 40.8824 11.512 40.5238 11.5304C40.5526 11.8128 40.5797 12.084 40.612 12.3996C40.462 12.3632 40.3969 12.3501 40.334 12.3315C39.0257 11.9468 38.0801 11.138 37.5213 9.88027C37.41 9.6301 37.3091 9.37413 37.2177 9.11577C37.1708 8.98292 37.2082 8.87813 37.3807 8.8894C37.9933 8.92762 38.6183 8.90137 39.2155 9.01897C40.1864 9.21117 41.0463 9.70059 41.8706 10.2423C41.9973 10.3257 42.1058 10.437 42.223 10.5362C42.2097 10.558 42.1967 10.5797 42.1834 10.6018ZM54.63 28.149C54.889 28.0432 55.1448 27.9234 55.4095 27.834C55.6963 27.737 55.9898 27.659 56.2844 27.5885C56.5663 27.5215 56.8529 27.475 57.2048 27.4075C56.7024 27.1313 56.2605 26.8675 55.7988 26.6438C55.4435 26.4724 50.3829 19.0246 52.6343 15.0515C52.6802 14.9708 52.6769 14.8314 52.6368 14.7494C52.1433 13.7407 51.6973 12.7028 51.125 11.7417C50.0478 9.93109 48.669 8.36387 47.0054 7.07573C45.3322 5.78136 43.597 4.57889 41.613 3.80095C41.4478 3.73641 41.2342 3.73067 41.0596 3.77065C40.7099 3.851 40.3727 3.9814 39.9615 4.11349C40.9042 4.67017 41.7011 5.30755 42.3483 6.13302C42.2851 6.10047 42.2203 6.07254 42.1598 6.03565C41.1063 5.39337 39.9802 4.9316 38.7821 4.64938C38.7091 4.63188 38.6201 4.61249 38.5558 4.63762C37.9553 4.86839 37.3593 5.10876 36.7207 5.36278C37.4372 5.77072 38.0976 6.14751 38.7579 6.52346C38.7433 6.5579 38.7283 6.59261 38.7132 6.62789C38.6142 6.59618 38.5127 6.56881 38.4158 6.53221C37.525 6.19616 36.5916 6.05777 35.6533 6.05861C35.2888 6.05861 34.9033 6.25985 34.5634 6.43953C32.6549 7.45119 30.8265 8.59514 29.1333 9.94537C28.1264 10.7473 27.1604 11.6001 26.1527 12.3999C24.6114 13.6231 22.8721 14.5101 21.1029 15.338C19.5947 16.0443 18.0889 16.7536 16.5747 17.4445C16.1936 17.6184 15.7791 17.7163 15.3904 17.8754C15.2239 17.9446 15.0497 18.0532 14.9393 18.192C14.0997 19.2543 13.1189 20.1183 11.8174 20.5602C11.6858 20.605 11.5746 20.7102 11.4715 20.8289C12.3992 21.0999 13.2637 20.8675 14.17 20.6192C13.9256 21.0045 13.7042 21.4075 13.4316 21.7717C12.865 22.5277 12.2788 23.2692 11.685 24.0036C11.523 24.2046 11.4756 24.3602 11.6058 24.6068C11.9937 25.341 11.9977 26.1429 11.9359 26.9468C11.8656 27.866 11.5808 28.7259 11.1449 29.5293C10.7545 30.2475 10.2693 30.8909 9.46227 31.1862C9.23658 31.2682 9.1514 31.4232 9.12644 31.651C9.04018 32.4445 8.95148 33.2382 8.84894 34.0298C8.66014 35.4967 8.26004 36.8876 7.39579 38.112C7.2032 38.3846 7.03366 38.6744 6.8568 38.9588C6.82669 39.0075 6.79495 39.0654 6.79495 39.1196C6.78898 40.3204 7.6893 41.847 8.65797 42.3596C8.84216 41.7901 9.02553 41.2255 9.20917 40.6589C9.24065 40.6595 9.27238 40.6608 9.30439 40.6608C9.45548 41.1694 9.60684 41.6793 9.77937 42.2604C9.91744 42.1258 10.0476 42.0471 10.1092 41.9304C10.4 41.3854 10.684 40.8345 10.9398 40.2726C11.0065 40.1249 11.0044 39.9139 10.9591 39.7531C10.7613 39.0567 10.7952 38.3477 10.7885 37.6368C10.7779 36.6046 11.0443 35.6422 11.5027 34.7366C11.9326 33.8876 12.6596 33.3339 13.4764 32.8943C14.8276 32.1697 16.2799 32.0092 17.7816 32.1282C17.9134 32.1382 18.0862 32.1117 18.1828 32.0316C18.9002 31.4356 19.6197 30.839 20.3078 30.2087C21.3828 29.2235 22.0515 27.9653 22.5831 26.6241C22.6176 26.5367 22.6521 26.4497 22.7082 26.3704C22.5273 27.3432 22.32 28.3071 21.8285 29.24C25.1992 28.7732 29.0813 31.3694 33.3123 31.1001C33.1537 30.3433 31.7586 27.726 31.6202 27.4472C31.2673 26.7349 31.1566 26.0259 31.4418 25.2535C31.7605 24.3883 32.0252 23.5033 32.3165 22.6272C32.3485 22.531 32.3999 22.4408 32.4419 22.3472C32.4649 22.3549 32.488 22.362 32.511 22.3697C32.4406 22.7609 32.367 23.1516 32.2992 23.5432C32.1749 24.2615 32.0488 24.9795 31.9346 25.6986C31.8749 26.0724 31.9333 26.4314 32.1009 26.7778C32.8309 28.2816 33.5839 29.7759 34.2683 31.301C34.8328 32.5579 35.3495 33.8403 35.8199 35.1358C36.3193 36.5125 36.434 37.963 36.4351 39.4222C36.4359 39.9158 36.4571 40.4093 36.4582 40.9028C36.4587 41.1516 36.5273 41.3567 36.7007 41.544C37.5364 42.4422 38.5376 43.0656 39.7106 43.4109C39.7548 43.4238 39.8039 43.4219 39.8543 43.4287C39.8543 42.7635 39.8543 42.1127 39.8543 41.4633C40.51 41.6329 41.1762 41.8046 41.8424 41.9768C41.8628 41.9528 41.8839 41.9304 41.9043 41.9057C41.7825 41.6255 41.6808 41.3335 41.5343 41.0663C41.3496 40.7306 41.1209 40.4197 40.924 40.0916C40.4034 39.2226 39.843 38.3737 39.3826 37.4727C38.4658 35.6772 38.4031 33.755 38.647 31.7918C38.7916 30.6284 39.1607 29.5552 39.6962 28.5231C40.1257 27.6965 40.2363 26.7778 40.3736 25.8708C40.4327 25.4817 40.4669 25.0889 40.5656 24.6869C40.6052 25.0443 40.6562 25.4019 40.6809 25.7601C40.7077 26.1443 40.7278 26.5298 40.7172 26.9139C40.707 27.2858 40.1739 29.9495 40.1446 30.2707C42.4634 28.8695 45.5687 29.234 47.3395 29.7034C46.6549 28.9966 45.945 28.1613 45.2188 27.1018C44.0465 25.3896 43.6559 23.7133 43.9729 21.8792C44.0613 24.0288 44.8787 25.4216 45.6146 26.4205C47.7711 25.406 49.6916 22.9745 49.8189 22.8181C49.9285 23.6168 49.3254 26.4497 47.3214 28.3992C47.3073 28.4128 47.294 28.4356 47.2823 28.4525C48.7591 30.1007 49.5137 30.212 50.6562 31.0057C50.7157 30.9948 50.7721 30.9565 50.8372 30.8855C51.2861 30.3932 51.7918 29.9668 52.3644 29.6551C51.9358 30.1956 51.2237 31.035 50.7897 31.5827C50.8101 31.6141 50.8304 31.6455 50.8499 31.6775C52.9533 31.8739 57.2267 29.6023 58.1097 28.0856C58.1669 27.9871 58.2052 27.8769 58.2616 27.7512C57.1136 27.6002 55.7161 27.9562 54.63 28.149Z" fill="white"/>
  <path d="M63.6582 6.50174H65.7518V12.2319H68.2203V6.50174H70.3144V12.2319H71.2123V15.5493H69.4173V14.0414H63.6582V6.50174Z" fill="white"/>
  <path d="M71.958 6.50137H76.4452V8.31063H74.0516V9.36631H76.2214V11.0246H74.0516V12.2315H76.4452V14.041H71.958V6.50137Z" fill="white"/>
  <path d="M77.5674 6.50137H79.6611V9.21568H82.2048V6.50137H84.2992V14.041H82.2048V11.0246H79.6611V14.041H77.5674V6.50137Z" fill="white"/>
  <path d="M86.6897 8.31063H85.0439V6.50137H90.4299V8.31063H88.7841V14.041H86.6897V8.31063Z" fill="white"/>
  <path d="M93.2712 9.89458H93.8698C94.7996 9.89458 94.8954 9.34497 94.8954 9.02151C94.8954 8.64444 94.767 8.16028 93.8698 8.16028H93.2712V9.89458ZM91.1768 6.50137H94.3288C96.4558 6.50137 97.0537 7.98802 97.0537 9.02151C97.0537 10.0663 96.4447 11.5529 94.3288 11.5529H93.2712V14.041H91.1768V6.50137Z" fill="white"/>
  <path d="M65.7518 22.8167H66.3507C67.2801 22.8167 67.3764 22.2672 67.3764 21.9437C67.3764 21.5669 67.2478 21.0824 66.3507 21.0824H65.7518V22.8167ZM63.6582 19.4236H66.8097C68.9363 19.4236 69.5345 20.9099 69.5345 21.9437C69.5345 22.9884 68.9252 24.4751 66.8097 24.4751H65.7518V26.9624H63.6582V19.4236Z" fill="white"/>
  <path d="M70.5049 19.4236H74.9926V21.2328H72.5987V22.2885H74.7686V23.9468H72.5987V25.1537H74.9926V26.9624H70.5049V19.4236Z" fill="white"/>
  <path d="M78.4423 24.0012H80.152L79.2972 21.2224L78.4423 24.0012ZM78.0257 19.4236H80.5687L83.2297 26.9624H80.9853L80.5687 25.6596H78.0257L77.609 26.9624H75.3652L78.0257 19.4236Z" fill="white"/>
  <path d="M90.3337 19.4237V26.9625H88.24V21.2329H86.7442V24.2058C86.7442 25.2941 86.6366 27.0596 84.0297 27.0596C83.72 27.0596 83.4846 27.0494 83.1533 26.9625V25.1538C83.3137 25.197 83.463 25.229 83.613 25.229C84.5318 25.229 84.6491 24.6474 84.6491 23.5813V19.4237H90.3337Z" fill="white"/>
  <path d="M94.672 25.4545C95.3234 25.4545 95.7185 25.2611 95.7185 24.6574C95.7185 24.066 95.3345 23.8716 94.672 23.8716H93.7741V25.4545H94.672ZM91.6797 19.4236H93.7741V22.3637H94.8748C95.9435 22.3637 97.8136 22.5794 97.8136 24.6574C97.8136 26.7472 95.9324 26.9624 94.8748 26.9624H91.6797V19.4236Z" fill="white"/>
  <path d="M98.7842 19.4236H100.878V22.1376H103.421V19.4236H105.516V26.9624H103.421V23.9468H100.878V26.9624H98.7842V19.4236Z" fill="white"/>
  <path d="M112.405 23.1933C112.405 21.7395 111.518 21.0182 110.546 21.0182C109.574 21.0182 108.686 21.7395 108.686 23.1933C108.686 24.6476 109.574 25.3686 110.546 25.3686C111.518 25.3686 112.405 24.6476 112.405 23.1933ZM106.527 23.1933C106.527 21.1795 107.811 19.2084 110.546 19.2084C113.281 19.2084 114.563 21.1795 114.563 23.1933C114.563 25.2081 113.281 27.1787 110.546 27.1787C107.811 27.1787 106.527 25.2081 106.527 23.1933Z" fill="white"/>
  <path d="M121.305 17.8079C120.899 18.6911 119.948 19.0143 119.061 19.0143C118.174 19.0143 117.223 18.6911 116.817 17.8079L118.014 17.3557C118.207 17.8725 118.677 17.9914 119.061 17.9914C119.445 17.9914 119.916 17.8725 120.109 17.3557L121.305 17.8079ZM117.597 19.4236V23.9468L120.493 19.4236H122.544V26.9624H120.525V22.4397L117.629 26.9624H115.578V19.4236H117.597Z" fill="white"/>
  <path d="M65.9877 36.9231H67.6977L66.8424 34.1437L65.9877 36.9231ZM65.571 32.3455H68.1143L70.7746 39.8843H68.5304L68.1143 38.5814H65.571L65.1538 39.8843H62.9102L65.571 32.3455Z" fill="white"/>
  <path d="M74.4259 38.3763C74.7471 38.3763 75.5481 38.3662 75.5481 37.5793C75.5481 36.8255 74.7685 36.8255 74.4259 36.8255H73.4642V38.3763H74.4259ZM74.3405 35.319C75.1629 35.319 75.3023 34.8874 75.3023 34.608C75.3023 34.2094 75.0566 33.8539 74.3405 33.8539H73.4642V35.319H74.3405ZM74.9925 32.3455C77.0232 32.3455 77.226 33.6811 77.226 34.2627C77.226 35.0597 76.6704 35.6197 76.0611 35.8349V35.8567C76.5524 35.9743 77.6426 36.4058 77.6426 37.7844C77.6426 38.8406 76.926 39.8843 75.1957 39.8843H71.3701V32.3455H74.9925Z" fill="white"/>
  <path d="M79.6614 34.1547H78.0156V32.3455H83.4016V34.1547H81.7558V39.8843H79.6614V34.1547Z" fill="white"/>
  <path d="M89.6931 36.1147C89.6931 34.6614 88.8056 33.9401 87.8341 33.9401C86.8619 33.9401 85.9737 34.6614 85.9737 36.1147C85.9737 37.5693 86.8619 38.2903 87.8341 38.2903C88.8056 38.2903 89.6931 37.5693 89.6931 36.1147ZM83.8154 36.1147C83.8154 34.1009 85.098 32.1301 87.8341 32.1301C90.5687 32.1301 91.8514 34.1009 91.8514 36.1147C91.8514 38.1298 90.5687 40.1003 87.8341 40.1003C85.098 40.1003 83.8154 38.1298 83.8154 36.1147Z" fill="white"/>
  <path d="M93.4314 32.3457H95.5258L96.841 36.9447L98.1542 32.3457H100.249L101.339 39.8845H99.3305L98.7743 35.5125L97.5132 39.8845H96.1674L94.9063 35.5125L94.3508 39.8845H92.3418L93.4314 32.3457Z" fill="white"/>
  <path d="M104.488 36.9234H106.198L105.344 34.144L104.488 36.9234ZM104.071 32.3457H106.614L109.276 39.8845H107.031L106.614 38.5817H104.071L103.655 39.8845H101.411L104.071 32.3457Z" fill="white"/>
  <path d="M110.92 34.155H109.274V32.3457H114.66V34.155H113.015V39.8845H110.92V34.155Z" fill="white"/>
  <path d="M117.426 32.3455V36.8684L120.321 32.3455H122.373V39.8843H120.353V35.3619L117.458 39.8843H115.406V32.3455H117.426Z" fill="white"/>
  <path d="M123.505 32.8309C123.868 32.6258 124.775 32.1301 126.026 32.1301C127.704 32.1301 128.9 33.0017 128.9 34.2628C128.9 35.0169 128.43 35.7059 127.672 35.9643V35.9971C128.28 36.1904 129.061 36.6538 129.061 37.7948C129.061 39.2276 127.747 40.1003 126.059 40.1003C125 40.1003 124.316 39.8953 123.119 38.9801L123.986 37.5794C124.519 38.0866 125.235 38.442 125.802 38.442C126.7 38.442 126.902 37.9247 126.902 37.6122C126.902 37.1706 126.592 36.8256 125.694 36.8256H124.508V35.319H125.694C126.646 35.319 126.806 34.8766 126.806 34.5425C126.806 34.0681 126.379 33.7884 125.738 33.7884C125.128 33.7884 124.691 34.0044 124.231 34.306L123.505 32.8309Z" fill="white"/>
  <path d="M132.36 36.9231H134.07L133.215 34.1437L132.36 36.9231ZM131.943 32.3455H134.486L137.147 39.8843H134.903L134.486 38.5814H131.943L131.527 39.8843H129.282L131.943 32.3455Z" fill="white"/>
  <path d="M137.745 32.3456H139.839V38.0757H142.307V32.3456H144.402V38.0757H145.299V41.3923H143.505V39.8844H137.745V32.3456Z" fill="white"/>
  <path d="M148.064 32.3455V36.8684L150.96 32.3455H153.011V39.8843H150.992V35.3619L148.096 39.8843H146.045V32.3455H148.064Z" fill="white"/>
  <path d="M156.376 32.3457V36.8687L159.272 32.3457H161.324V39.8845H159.305V35.3621L156.409 39.8845H154.357V32.3457H156.376Z" fill="white"/>
</svg>