<svg width="188" height="48" viewBox="0 0 188 48" fill="none" xmlns="http://www.w3.org/2000/svg">
<g clip-path="url(#clip0_646_3608)">
<path d="M17.8302 31.1004C17.7227 31.1094 17.5979 31.1848 17.5253 31.2682C16.7633 32.1389 16.0191 33.0243 15.2498 33.8868C15.0495 34.1101 15.0964 34.2364 15.2867 34.4127C16.3567 35.4072 17.3296 36.487 18.1022 37.7349C18.3404 38.1192 18.5408 38.5269 18.7691 38.9195C19.0731 39.4437 19.3896 39.9596 19.6955 40.4838C20.2001 41.3464 20.9895 41.7786 21.934 41.9704C23.0065 42.1881 24.0788 42.278 25.1392 41.9003C25.2606 41.8563 25.3774 41.8018 25.6243 41.6986C25.3154 41.4257 25.0625 41.2042 24.8104 40.9809C23.9095 40.1839 22.8865 39.5694 21.8139 39.0462C21.1941 38.7442 20.7941 38.2871 20.5364 37.6726C20.081 36.5813 19.6496 35.4843 19.4869 34.2993C19.4021 33.6907 19.5156 33.4966 20.0741 33.2618C21.0928 32.9797 22.3086 32.5415 22.9782 31.7751C23.0352 31.7345 19.5615 30.9318 17.8302 31.1004Z" fill="white"/>
<path d="M41.4648 31.7952C42.1305 33.9003 47.852 37.7152 47.7725 41.3407C47.8338 41.8632 48.2638 42.3504 48.7998 42.5246C50.0951 42.9463 51.4389 42.9678 52.8616 42.8603C52.755 42.7075 52.6825 42.5792 52.5867 42.4727C51.8657 41.6624 51.1733 40.8241 50.405 40.0624C48.8334 38.4874 46.7276 32.5119 46.6735 31.2188C45.5026 30.7684 42.476 31.1189 41.4648 31.7952Z" fill="white"/>
<path d="M59.9861 21.6367C59.1092 23.0224 57.9268 24.4416 57.9268 24.4416C58.2037 24.9225 58.5766 25.6623 58.8829 26.2427C59.767 24.8453 60.2838 23.0952 59.9861 21.6367Z" fill="white"/>
<path d="M57.3152 31.4203C57.3152 31.4203 57.9205 30.8101 57.9205 30.5233C56.8849 30.7862 56.0209 31.3508 54.6041 32.4233C55.8601 30.8673 57.6928 29.6757 58.9983 29.7098C58.8316 30.2776 57.8945 31.2168 57.3152 31.4203ZM44.8134 15.3109C44.5785 13.401 47.7873 12.6889 48.1252 15.7733C46.9579 14.874 45.5817 14.9283 44.8134 15.3109ZM42.5538 7.88046C41.1427 6.9399 39.5517 6.58701 37.8782 6.41108C37.9738 7.73068 39.091 9.31554 40.1823 9.41638C40.1988 8.74337 39.7791 8.2529 39.4164 7.67277C40.3932 7.88046 41.1951 8.24994 41.8852 8.84328C41.8753 8.87435 41.8665 8.90474 41.8565 8.93616C41.4136 8.95901 40.9711 8.98145 40.5348 9.00364C40.5698 9.34526 40.6028 9.67334 40.642 10.055C40.4595 10.011 40.3804 9.99516 40.3038 9.97264C38.7121 9.50731 37.5617 8.52908 36.8819 7.00772C36.7465 6.70512 36.6238 6.3955 36.5126 6.083C36.4555 5.9223 36.501 5.79556 36.7109 5.80919C37.4561 5.85542 38.2165 5.82367 38.9431 5.9659C40.1243 6.1984 41.1704 6.79038 42.1733 7.44561C42.3275 7.54645 42.4595 7.68107 42.6021 7.80112C42.5858 7.82754 42.57 7.8537 42.5538 7.88046ZM57.6964 29.1052C58.0115 28.9772 58.3228 28.8323 58.6448 28.7242C58.9937 28.6068 59.3508 28.5125 59.7092 28.4272C60.0521 28.3462 60.4009 28.2899 60.8289 28.2082C60.2178 27.8742 59.6801 27.555 59.1185 27.2845C58.6862 27.0772 52.5293 18.0685 55.2684 13.2628C55.3243 13.1651 55.3203 12.9965 55.2715 12.8973C54.6711 11.6772 54.1285 10.4218 53.4322 9.25932C52.1217 7.06919 50.4443 5.17352 48.4203 3.61541C46.3847 2.04977 44.2736 0.595291 41.8599 -0.345688C41.6589 -0.423748 41.3991 -0.430691 41.1866 -0.382347C40.7612 -0.285149 40.351 -0.127415 39.8507 0.0323486C40.9975 0.705696 41.9671 1.47667 42.7545 2.47513C42.6776 2.43576 42.5988 2.40198 42.5252 2.35736C41.2434 1.58046 39.8735 1.02192 38.4158 0.68055C38.327 0.659386 38.2188 0.635929 38.1405 0.666325C37.4099 0.945469 36.6848 1.23621 35.9079 1.54347C36.7796 2.0369 37.5831 2.49266 38.3864 2.9474C38.3685 2.98905 38.3504 3.03105 38.332 3.07372C38.2115 3.03536 38.0881 3.00226 37.9702 2.95798C36.8864 2.5515 35.7509 2.38411 34.6093 2.38513C34.1658 2.38513 33.6968 2.62855 33.2833 2.84588C30.9614 4.06956 28.737 5.45325 26.6771 7.08646C25.452 8.05648 24.2768 9.08796 23.0508 10.0554C21.1756 11.535 19.0596 12.6079 16.9072 13.6093C15.0722 14.4636 13.2404 15.3215 11.3982 16.1572C10.9345 16.3676 10.4302 16.486 9.9573 16.6784C9.7547 16.7622 9.54281 16.8935 9.40848 17.0615C8.38706 18.3463 7.19374 19.3914 5.61032 19.9259C5.45026 19.9801 5.31495 20.1074 5.18955 20.251C6.31821 20.5787 7.36998 20.2976 8.47256 19.9973C8.17526 20.4633 7.90592 20.9508 7.57425 21.3914C6.88485 22.3058 6.17168 23.2027 5.44927 24.091C5.25225 24.3341 5.1945 24.5223 5.35291 24.8206C5.82483 25.7086 5.82978 26.6787 5.75454 27.651C5.66906 28.7629 5.32255 29.803 4.7922 30.7747C4.31731 31.6435 3.72691 32.4217 2.74511 32.7789C2.47053 32.8781 2.3669 33.0656 2.33654 33.3411C2.23159 34.3009 2.12368 35.261 1.99893 36.2185C1.76924 37.9928 1.28247 39.6752 0.231026 41.1562C-0.00328726 41.4859 -0.209548 41.8365 -0.42472 42.1804C-0.461352 42.2393 -0.499964 42.3094 -0.499964 42.3749C-0.507225 43.8275 0.588104 45.6739 1.7666 46.294C1.99068 45.6051 2.21377 44.9222 2.43719 44.2369C2.47548 44.2376 2.51409 44.2392 2.55303 44.2392C2.73685 44.8544 2.921 45.4712 3.1309 46.174C3.29888 46.0112 3.45729 45.916 3.5322 45.7748C3.88598 45.1156 4.2315 44.4492 4.54271 43.7696C4.62389 43.591 4.62126 43.3357 4.56615 43.1412C4.32556 42.2988 4.36681 41.4413 4.35856 40.5814C4.34569 39.3329 4.66977 38.1688 5.2275 37.0734C5.75058 36.0464 6.63502 35.3767 7.62871 34.8449C9.27255 33.9685 11.0395 33.7743 12.8664 33.9183C13.0268 33.9305 13.2371 33.8984 13.3545 33.8015C14.2274 33.0805 15.1027 32.3589 15.9399 31.5966C17.2477 30.4049 18.0612 28.8829 18.708 27.2607C18.7499 27.1549 18.7919 27.0498 18.8602 26.9538C18.6401 28.1305 18.3879 29.2964 17.7899 30.4248C21.8907 29.8602 26.6137 33.0005 31.7613 32.6747C31.5682 31.7593 29.8709 28.5936 29.7026 28.2562C29.2733 27.3947 29.1386 26.5371 29.4855 25.6028C29.8733 24.5563 30.1953 23.4858 30.5497 22.4261C30.5887 22.3097 30.6511 22.2006 30.7022 22.0875C30.7303 22.0968 30.7583 22.1053 30.7864 22.1147C30.7006 22.5879 30.6112 23.0605 30.5286 23.5341C30.3775 24.4029 30.2241 25.2714 30.0851 26.1412C30.0125 26.5933 30.0835 27.0276 30.2874 27.4466C31.1755 29.2655 32.0916 31.073 32.9243 32.9178C33.611 34.4381 34.2397 35.9893 34.812 37.5562C35.4195 39.2214 35.5591 40.9759 35.5604 42.741C35.5615 43.338 35.5871 43.9349 35.5885 44.5319C35.5892 44.8329 35.6726 45.0809 35.8835 45.3075C36.9003 46.3939 38.1184 47.148 39.5454 47.5657C39.5992 47.5812 39.659 47.5789 39.7203 47.5872C39.7203 46.7825 39.7203 45.9954 39.7203 45.2099C40.518 45.415 41.3285 45.6226 42.139 45.831C42.1638 45.8019 42.1895 45.7748 42.2143 45.745C42.0661 45.406 41.9423 45.0528 41.7641 44.7297C41.5394 44.3235 41.2612 43.9475 41.0216 43.5506C40.3883 42.4996 39.7064 41.4727 39.1464 40.383C38.0309 38.2111 37.9547 35.8861 38.2514 33.5115C38.4273 32.1042 38.8765 30.8061 39.5279 29.5576C40.0504 28.5578 40.185 27.4466 40.352 26.3496C40.4239 25.8789 40.4655 25.4037 40.5857 24.9175C40.6338 25.3497 40.6958 25.7824 40.7259 26.2156C40.7585 26.6803 40.7829 27.1466 40.7701 27.6113C40.7576 28.0611 40.1091 31.283 40.0734 31.6716C42.8945 29.9767 46.6724 30.4175 48.8268 30.9854C47.9939 30.1304 47.1302 29.1201 46.2467 27.8385C44.8205 25.7675 44.3452 23.7398 44.731 21.5213C44.8385 24.1215 45.8329 25.8062 46.7283 27.0144C49.3519 25.7873 51.6884 22.8462 51.8432 22.657C51.9766 23.6231 51.2429 27.0498 48.8048 29.4078C48.7876 29.4243 48.7714 29.4518 48.7572 29.4723C50.5538 31.4659 51.4719 31.6005 52.862 32.5606C52.9343 32.5474 53.0029 32.5011 53.0821 32.4151C53.6282 31.8197 54.2435 31.3039 54.9401 30.9269C54.4187 31.5807 53.5524 32.596 53.0243 33.2585C53.0491 33.2965 53.0738 33.3345 53.0976 33.3732C55.6565 33.6107 60.8556 30.863 61.9299 29.0285C61.9995 28.9094 62.046 28.7761 62.1147 28.6239C60.718 28.4414 59.0178 28.872 57.6964 29.1052Z" fill="white"/>
<path d="M68.6797 2.921H71.2267V9.85209H74.2299V2.921H76.7776V9.85209H77.87V13.8647H75.6862V12.0408H68.6797V2.921Z" fill="white"/>
<path d="M78.7783 2.92098H84.2375V5.10943H81.3254V6.38636H83.9652V8.39218H81.3254V9.85207H84.2375V12.0408H78.7783V2.92098Z" fill="white"/>
<path d="M85.6025 2.92098H88.1498V6.20416H91.2444V2.92098H93.7925V12.0408H91.2444V8.39218H88.1498V12.0408H85.6025V2.92098Z" fill="white"/>
<path d="M96.7005 5.10943H94.6982V2.92098H101.251V5.10943H99.2486V12.0408H96.7005V5.10943Z" fill="white"/>
<path d="M104.707 7.02533H105.435C106.567 7.02533 106.683 6.36053 106.683 5.96929C106.683 5.5132 106.527 4.92756 105.435 4.92756H104.707V7.02533ZM102.159 2.92098H105.994C108.582 2.92098 109.309 4.7192 109.309 5.96929C109.309 7.23302 108.568 9.03115 105.994 9.03115H104.707V12.0408H102.159V2.92098Z" fill="white"/>
<path d="M71.2267 22.6554H71.9554C73.0861 22.6554 73.2032 21.9907 73.2032 21.5995C73.2032 21.1437 73.0468 20.5576 71.9554 20.5576H71.2267V22.6554ZM68.6797 18.5511H72.5138C75.1011 18.5511 75.8289 20.3489 75.8289 21.5995C75.8289 22.8631 75.0876 24.6613 72.5138 24.6613H71.2267V27.6699H68.6797V18.5511Z" fill="white"/>
<path d="M77.0107 18.5511H82.4706V20.7395H79.5581V22.0164H82.198V24.0223H79.5581V25.4822H82.4706V27.6699H77.0107V18.5511Z" fill="white"/>
<path d="M86.6674 24.0881H88.7474L87.7074 20.727L86.6674 24.0881ZM86.1605 18.5511H89.2543L92.4918 27.6699H89.7613L89.2543 26.094H86.1605L85.6536 27.6699H82.9238L86.1605 18.5511Z" fill="white"/>
<path d="M101.134 18.5511V27.6699H98.5869V20.7395H96.7671V24.3355C96.7671 25.6518 96.6362 27.7874 93.4646 27.7874C93.0878 27.7874 92.8014 27.7751 92.3984 27.6699V25.4822C92.5936 25.5344 92.7752 25.5731 92.9577 25.5731C94.0755 25.5731 94.2182 24.8697 94.2182 23.5801V18.5511H101.134Z" fill="white"/>
<path d="M106.411 25.846C107.203 25.846 107.684 25.6121 107.684 24.8819C107.684 24.1665 107.217 23.9314 106.411 23.9314H105.319V25.846H106.411ZM102.771 18.5511H105.319V22.1075H106.658C107.958 22.1075 110.233 22.3684 110.233 24.8819C110.233 27.4097 107.944 27.6699 106.658 27.6699H102.771V18.5511Z" fill="white"/>
<path d="M111.414 18.5511H113.961V21.8339H117.055V18.5511H119.604V27.6699H117.055V24.0223H113.961V27.6699H111.414V18.5511Z" fill="white"/>
<path d="M127.987 23.1104C127.987 21.352 126.907 20.4795 125.725 20.4795C124.542 20.4795 123.462 21.352 123.462 23.1104C123.462 24.8696 124.542 25.7417 125.725 25.7417C126.907 25.7417 127.987 24.8696 127.987 23.1104ZM120.836 23.1104C120.836 20.6747 122.397 18.2905 125.725 18.2905C129.052 18.2905 130.613 20.6747 130.613 23.1104C130.613 25.5476 129.052 27.9312 125.725 27.9312C122.397 27.9312 120.836 25.5476 120.836 23.1104Z" fill="white"/>
<path d="M138.813 16.5969C138.319 17.6651 137.162 18.056 136.083 18.056C135.004 18.056 133.847 17.6651 133.353 16.5969L134.809 16.0499C135.043 16.675 135.615 16.8188 136.083 16.8188C136.551 16.8188 137.123 16.675 137.357 16.0499L138.813 16.5969ZM134.302 18.5511V24.0223L137.825 18.5511H140.32V27.6699H137.864V22.1994L134.341 27.6699H131.846V18.5511H134.302Z" fill="white"/>
<path d="M71.5136 39.7183H73.5941L72.5535 36.3564L71.5136 39.7183ZM71.0067 34.1813H74.101L77.3374 43.3H74.6072L74.101 41.7241H71.0067L70.4991 43.3H67.7695L71.0067 34.1813Z" fill="white"/>
<path d="M81.7811 41.4761C82.1719 41.4761 83.1464 41.4639 83.1464 40.512C83.1464 39.6002 82.198 39.6002 81.7811 39.6002H80.6112V41.4761H81.7811ZM81.6772 37.778C82.6778 37.778 82.8474 37.256 82.8474 36.918C82.8474 36.4358 82.5484 36.0059 81.6772 36.0059H80.6112V37.778H81.6772ZM82.4705 34.1813C84.941 34.1813 85.1877 35.7969 85.1877 36.5003C85.1877 37.4643 84.5119 38.1417 83.7705 38.402V38.4284C84.3682 38.5707 85.6946 39.0926 85.6946 40.7601C85.6946 42.0377 84.8228 43.3 82.7177 43.3H78.0635V34.1813H82.4705Z" fill="white"/>
<path d="M88.1498 36.3697H86.1475V34.1813H92.7001V36.3697H90.6978V43.3H88.1498V36.3697Z" fill="white"/>
<path d="M100.355 38.7403C100.355 36.9825 99.2752 36.11 98.0932 36.11C96.9104 36.11 95.8299 36.9825 95.8299 38.7403C95.8299 40.4998 96.9104 41.3719 98.0932 41.3719C99.2752 41.3719 100.355 40.4998 100.355 38.7403ZM93.2041 38.7403C93.2041 36.3045 94.7645 33.9206 98.0932 33.9206C101.42 33.9206 102.981 36.3045 102.981 38.7403C102.981 41.1777 101.42 43.5613 98.0932 43.5613C94.7645 43.5613 93.2041 41.1777 93.2041 38.7403Z" fill="white"/>
<path d="M104.902 34.1813H107.45L109.05 39.7441L110.648 34.1813H113.196L114.522 43.3H112.079L111.402 38.0117L109.868 43.3H108.23L106.696 38.0117L106.02 43.3H103.576L104.902 34.1813Z" fill="white"/>
<path d="M118.355 39.7183H120.435L119.396 36.3564L118.355 39.7183ZM117.848 34.1813H120.942L124.179 43.3H121.449L120.942 41.7241H117.848L117.341 43.3H114.611L117.848 34.1813Z" fill="white"/>
<path d="M126.178 36.3697H124.176V34.1813H130.728V36.3697H128.726V43.3H126.178V36.3697Z" fill="white"/>
<path d="M134.094 34.1813V39.6521L137.617 34.1813H140.112V43.3H137.655V37.8299L134.133 43.3H131.637V34.1813H134.094Z" fill="white"/>
<path d="M141.488 34.7683C141.93 34.5202 143.034 33.9206 144.556 33.9206C146.597 33.9206 148.053 34.975 148.053 36.5003C148.053 37.4124 147.481 38.2459 146.558 38.5584V38.5981C147.298 38.8319 148.248 39.3925 148.248 40.7726C148.248 42.5056 146.65 43.5613 144.596 43.5613C143.308 43.5613 142.476 43.3132 141.02 42.2063L142.074 40.512C142.723 41.1255 143.594 41.5554 144.283 41.5554C145.376 41.5554 145.622 40.9297 145.622 40.5517C145.622 40.0176 145.245 39.6002 144.152 39.6002H142.709V37.7779H144.152C145.311 37.7779 145.505 37.2427 145.505 36.8386C145.505 36.2648 144.985 35.9264 144.205 35.9264C143.464 35.9264 142.931 36.1877 142.372 36.5525L141.488 34.7683Z" fill="white"/>
<path d="M152.264 39.7183H154.344L153.304 36.3564L152.264 39.7183ZM151.756 34.1813H154.851L158.088 43.3H155.358L154.851 41.7241H151.756L151.25 43.3H148.52L151.756 34.1813Z" fill="white"/>
<path d="M158.814 34.1813H161.362V41.1123H164.364V34.1813H166.913V41.1123H168.005V45.124H165.822V43.3001H158.814V34.1813Z" fill="white"/>
<path d="M171.369 34.1813V39.6521L174.892 34.1813H177.388V43.3H174.931V37.8299L171.408 43.3H168.912V34.1813H171.369Z" fill="white"/>
<path d="M181.48 34.1813V39.6521L185.003 34.1813H187.5V43.3H185.043V37.8299L181.52 43.3H179.024V34.1813H181.48Z" fill="white"/>
</g>
<defs>
<clipPath id="clip0_646_3608">
<rect width="188" height="48" fill="white"/>
</clipPath>
</defs>
</svg>
