<svg width="204" height="48" viewBox="0 0 204 48" fill="none" xmlns="http://www.w3.org/2000/svg">
<path d="M37.1909 21.0117H60.4347L57.7246 26.8445H34.4883L37.1909 21.0117Z" fill="white"/>
<path d="M182.188 12.8837H175.93V9.21094H192.976V12.8837H186.717V28.6886H182.188V12.8837Z" fill="white"/>
<path d="M164.115 12.831V17.9789H173.174V21.6065H164.115V28.7036H159.586V9.21094H174.36V12.831H164.115Z" fill="white"/>
<path d="M91.2799 32.98L98.0288 18.4244L103.291 29.7814H110.432L100.852 9.0544L100.814 9.04688H95.2357L81.4434 38.7977L113.739 38.7901L116.441 32.98H91.2799Z" fill="white"/>
<path d="M116.433 32.9863L113.738 38.7814H133.019L135.653 32.9863H116.433Z" fill="#00ABEA"/>
<path d="M135.654 32.9863L133.02 38.7814H151.462L154.097 32.9863H135.654Z" fill="#008ECB"/>
<path d="M154.096 32.9863L151.461 38.7814H169.904L172.538 32.9863H154.096Z" fill="#E26655"/>
<path d="M172.539 32.9863L169.904 38.7814H188.347L190.982 32.9863H172.539Z" fill="#FCCB26"/>
<path d="M73.1009 9.05273H65.7857L63.068 14.8855H72.6555L72.6857 14.9005L61.6035 38.8035L68.7299 38.796L79.8121 14.8855H87.4669L90.1922 9.05273H73.1009Z" fill="white"/>
<path d="M42.5424 9.05273H65.7863L63.0686 14.8855H39.8398L42.5424 9.05273Z" fill="white"/>
<path d="M22.0174 32.9858L33.1448 9.05273H7.0625L9.7651 14.878H23.3158L12.211 38.8035L52.0253 38.8111L54.7429 32.9783L22.0174 32.9858Z" fill="white"/>
<path d="M140.553 27.7626C138.961 26.9127 137.629 25.648 136.701 24.1032C135.773 22.5585 135.283 20.7915 135.283 18.9909C135.283 17.1902 135.773 15.4233 136.701 13.8785C137.629 12.3337 138.961 11.069 140.553 10.2192C142.252 9.35616 144.131 8.90625 146.037 8.90625C147.944 8.90625 149.823 9.35616 151.522 10.2192C153.1 11.0549 154.423 12.3005 155.349 13.8242C156.264 15.3919 156.746 17.1733 156.746 18.9871C156.746 20.8009 156.264 22.5823 155.349 24.15C154.423 25.676 153.101 26.9242 151.522 27.7626C149.821 28.6186 147.943 29.0646 146.037 29.0646C144.132 29.0646 142.254 28.6186 140.553 27.7626ZM149.174 24.4285C150.097 23.9091 150.855 23.1426 151.363 22.2158C151.889 21.2203 152.164 20.1122 152.164 18.9871C152.164 17.8621 151.889 16.7539 151.363 15.7584C150.855 14.8316 150.097 14.0652 149.174 13.5457C148.215 13.022 147.139 12.7475 146.045 12.7475C144.951 12.7475 143.875 13.022 142.916 13.5457C141.993 14.0652 141.235 14.8316 140.727 15.7584C140.201 16.7539 139.926 17.8621 139.926 18.9871C139.926 20.1122 140.201 21.2203 140.727 22.2158C141.235 23.1426 141.993 23.9091 142.916 24.4285C143.875 24.9522 144.951 25.2267 146.045 25.2267C147.139 25.2267 148.215 24.9522 149.174 24.4285Z" fill="white"/>
<path d="M120.699 28.4109C119.449 28.0856 118.269 27.5346 117.219 26.7853L118.729 23.3835C119.645 24.0482 120.665 24.5569 121.748 24.8887C122.864 25.2571 124.031 25.4451 125.206 25.4456C126.19 25.5113 127.175 25.3166 128.059 24.8812C128.334 24.7349 128.563 24.5182 128.725 24.2536C128.887 23.9889 128.975 23.6859 128.98 23.3759C128.984 23.1543 128.937 22.9347 128.843 22.7339C128.749 22.5331 128.61 22.3563 128.437 22.2169C128.022 21.8814 127.549 21.6262 127.04 21.4643C126.466 21.2837 125.704 21.0805 124.73 20.8547C123.492 20.5738 122.272 20.2194 121.076 19.7935C120.129 19.4464 119.287 18.8634 118.63 18.1001C117.917 17.2196 117.554 16.1075 117.611 14.9768C117.602 13.8818 117.922 12.8093 118.532 11.8986C119.226 10.9178 120.192 10.1594 121.31 9.716C122.749 9.14138 124.291 8.86729 125.84 8.91071C127.072 8.90668 128.299 9.05585 129.494 9.35475C130.599 9.61407 131.656 10.0459 132.627 10.6342L131.23 14.0586C129.585 13.0959 127.717 12.5771 125.81 12.5534C124.834 12.4837 123.859 12.6953 123.001 13.163C122.723 13.3313 122.493 13.5689 122.334 13.8526C122.175 14.1363 122.093 14.4562 122.095 14.7811C122.092 15.1084 122.191 15.4288 122.377 15.6982C122.564 15.9677 122.829 16.1731 123.137 16.2863C124.17 16.7105 125.242 17.0307 126.338 17.2421C127.579 17.5232 128.801 17.8775 129.999 18.3033C130.94 18.652 131.78 19.2258 132.445 19.9741C133.161 20.8389 133.525 21.9402 133.465 23.0598C133.471 24.1496 133.145 25.2155 132.528 26.1154C131.823 27.0975 130.848 27.8554 129.72 28.298C128.281 28.8714 126.74 29.1455 125.191 29.1033C123.668 29.0888 122.155 28.8556 120.699 28.4109Z" fill="white"/>
</svg>
