
<?xml version="1.0" encoding="UTF-8"?>
<svg viewBox="0 0 193 45" xmlns="http://www.w3.org/2000/svg">
<path d="m86.357 30.918 6.3851-13.646 4.978 10.647h6.756l-9.0629-19.432-0.0357-0.00706h-5.278l-13.049 27.891 30.554-0.0071 2.557-5.4471h-23.805z" fill="#231F20"/>
<path d="m69.161 8.4868h-6.9207l-2.5711 5.4682h9.0704l0.0286 0.0141-10.485 22.409 6.7421-0.0071 10.485-22.416h7.2421l2.5783-5.4682h-16.17z" fill="#231F20"/>
<path d="m35.186 19.698h21.99l-2.564 5.4682h-21.983l2.5569-5.4682z" fill="#231F20"/>
<path d="m40.248 8.4868h21.99l-2.5712 5.4682h-21.976l2.5569-5.4682z" fill="#231F20"/>
<path d="m20.83 30.924 10.528-22.437h-24.676l2.5569 5.4612h12.82l-10.506 22.43 37.667 7e-3 2.5712-5.4682-30.961 0.0071z" fill="#231F20"/>
<path d="m114.19 26.635c-1.183-0.3049-2.299-0.8215-3.293-1.524l1.429-3.1892c0.867 0.6232 1.832 1.1001 2.857 1.4111 1.055 0.3454 2.159 0.5217 3.271 0.5222 0.931 0.0615 1.862-0.121 2.699-0.5292 0.26-0.1371 0.477-0.3402 0.631-0.5884 0.153-0.2481 0.236-0.5322 0.241-0.8228 3e-3 -0.2078-0.041-0.4136-0.13-0.6019-0.09-0.1882-0.221-0.354-0.384-0.4846-0.392-0.3146-0.841-0.5539-1.322-0.7056-0.543-0.1694-1.264-0.3599-2.185-0.5715-1.171-0.2634-2.326-0.5956-3.457-0.9949-0.896-0.3254-1.692-0.8719-2.314-1.5875-0.675-0.8255-1.019-1.8682-0.964-2.9282-9e-3 -1.0265 0.294-2.032 0.871-2.8858 0.657-0.9195 1.57-1.6304 2.628-2.0462 1.362-0.5387 2.82-0.79566 4.286-0.75496 1.165-0.00377 2.326 0.13607 3.456 0.41629 1.046 0.24311 2.047 0.64792 2.964 1.1995l-1.321 3.2103c-1.556-0.9025-3.323-1.3889-5.128-1.4111-0.923-0.0653-1.845 0.1331-2.657 0.5715-0.263 0.1578-0.481 0.3806-0.631 0.6465-0.151 0.266-0.228 0.5659-0.226 0.8705-3e-3 0.3069 0.09 0.6072 0.267 0.8598 0.176 0.2526 0.427 0.4452 0.719 0.5513 0.976 0.3977 1.991 0.6979 3.028 0.8961 1.174 0.2635 2.33 0.5957 3.464 0.9949 0.89 0.3269 1.684 0.8648 2.314 1.5663 0.677 0.8108 1.021 1.8433 0.964 2.8929 7e-3 1.0216-0.302 2.0209-0.885 2.8646-0.668 0.9207-1.591 1.6313-2.657 2.0462-1.362 0.5376-2.82 0.7945-4.286 0.755-1.44-0.0136-2.871-0.2323-4.249-0.6492z" fill="#231F20"/>
<path d="m132.97 26.027c-1.507-0.7967-2.766-1.9824-3.644-3.4306-0.878-1.4483-1.342-3.1047-1.342-4.7929 0-1.6881 0.464-3.3446 1.342-4.7928s2.137-2.6339 3.644-3.4306c1.607-0.80907 3.385-1.2309 5.189-1.2309 1.803 0 3.581 0.42179 5.188 1.2309 1.494 0.78343 2.745 1.9512 3.621 3.3797 0.866 1.4697 1.322 3.1398 1.322 4.8402 0 1.7005-0.456 3.3705-1.322 4.8403-0.876 1.4306-2.127 2.6008-3.621 3.3867-1.609 0.8025-3.386 1.2206-5.188 1.2206-1.803 0-3.58-0.4181-5.189-1.2206zm8.156-3.1257c0.873-0.4869 1.59-1.2055 2.071-2.0744 0.498-0.9333 0.758-1.9722 0.758-3.0269s-0.26-2.0936-0.758-3.0269c-0.481-0.8689-1.198-1.5874-2.071-2.0744-0.907-0.491-1.925-0.7483-2.96-0.7483s-2.053 0.2573-2.961 0.7483c-0.872 0.487-1.59 1.2055-2.071 2.0744-0.497 0.9333-0.757 1.9722-0.757 3.0269s0.26 2.0936 0.757 3.0269c0.481 0.8689 1.199 1.5875 2.071 2.0744 0.908 0.491 1.926 0.7484 2.961 0.7484s2.053-0.2574 2.96-0.7484z" fill="#231F20"/>
<path d="m155.27 12.029v4.8261h8.57v3.4009h-8.57v6.6535h-4.286v-18.274h13.978v3.3938h-9.692z" fill="#231F20"/>
<path d="m172.36 12.078h-5.921v-3.4432h16.127v3.4432h-5.921v14.817h-4.285v-14.817z" fill="#231F20"/>
<path d="m110.16 30.925-2.55 5.4329h18.241l2.493-5.4329h-18.184z" fill="#00ABEA"/>
<path d="m128.34 30.925-2.492 5.4329h17.448l2.492-5.4329h-17.448z" fill="#008ECB"/>
<path d="m145.79 30.925-2.493 5.4329h17.448l2.493-5.4329h-17.448z" fill="#E26655"/>
<path d="m163.24 30.925-2.493 5.4329h17.448l2.493-5.4329h-17.448z" fill="#FCCB26"/>
</svg>
