<svg xmlns="http://www.w3.org/2000/svg" width="145" height="40" viewBox="0 0 145 40" fill="none">
  <path d="M111.642 32.1598L120.59 12.5948L127.575 27.8705H137.043L124.333 0.0101108L124.283 0H116.897L98.6113 39.9898L141.417 39.9696L145 32.1598H111.642Z" fill="#231F20"/>
  <path d="M87.5432 0H77.8452L74.2522 7.84015H86.9527L86.9928 7.86038L72.3105 39.9898L81.7584 39.9797L96.4506 7.84015H106.599L110.202 0H87.5432Z" fill="#231F20"/>
  <path d="M28.804 39.9895L32.3769 32.1797H19.8265L34.5688 0.00976562H0L3.57297 7.83981H21.5479L6.81567 39.9895H28.804Z" fill="#231F20"/>
  <path d="M39.9323 16.084H70.758L67.155 23.9241H36.3594L39.9323 16.084Z" fill="#231F20"/>
  <path d="M47.0302 0H77.8459L74.2529 7.84015H43.4473L47.0302 0Z" fill="#231F20"/>
  <path d="M32.3857 32.1602H63.2014L59.6084 40.0003H28.8027L32.3857 32.1602Z" fill="#231F20"/>
</svg>