<svg width="95" height="62" viewBox="0 0 95 62" fill="none" xmlns="http://www.w3.org/2000/svg">
<path fill-rule="evenodd" clip-rule="evenodd" d="M7.302 14.4521V19.2355H12.7689V44.3313H17.5551V14.4521H7.302ZM25.0247 44.3313H20.0466V11.9648H12.7689V6.98835H25.0247V44.3313ZM49.9484 31.6479C49.5907 31.6479 47.7083 31.6352 47.3598 31.6037C46.772 31.5546 45.9181 31.4667 45.3695 31.3401C44.7503 31.174 44.1689 30.9567 43.906 30.8124C42.0683 29.8186 40.817 27.8758 40.817 25.6379C40.817 22.3839 43.4549 19.7477 46.7127 19.7477C49.9028 19.7477 52.4955 22.2842 52.5989 25.4477H57.3518C57.2516 19.6598 52.5305 14.9967 46.7127 14.9967C40.8303 14.9967 36.0615 19.7632 36.0615 25.6379C36.0615 29.7835 38.4377 33.3653 41.9006 35.1191C42.4324 35.431 43.4361 35.7589 43.7219 35.833C44.6984 36.0912 46.0119 36.2656 47.0768 36.3453C47.4733 36.3771 49.4006 36.3917 49.8084 36.394V36.3986H87.6914V31.6479H49.9484ZM47.0768 39.3763C45.5974 39.2784 43.8864 39.0225 42.5409 38.6295C42.2884 38.5566 41.2436 38.1751 40.977 38.0526C36.2869 35.8786 33.0186 31.1371 33.0186 25.6379C33.0186 18.0945 39.1608 11.9552 46.7127 11.9552C54.1973 11.9552 60.2963 17.9911 60.3996 25.4477H65.3462C65.2438 15.2675 56.9253 7.01516 46.7127 7.01516C36.4365 7.01516 28.0752 15.3705 28.0752 25.6379C28.0752 32.7197 32.0577 38.8776 37.8932 42.0275C38.9466 42.5838 40.4589 43.1589 40.9716 43.3123C42.6356 43.8109 44.6737 44.1378 46.4927 44.2776C47.1097 44.3231 49.2626 44.3481 49.8923 44.3504H87.6914V39.4226H49.9484C49.4964 39.4226 47.5192 39.4081 47.0768 39.3763Z" fill="#D91920"/>
<path fill-rule="evenodd" clip-rule="evenodd" d="M75.1558 13.3078C73.6741 13.3078 72.3983 12.1459 72.3983 10.5578C72.3983 9.05074 73.6741 7.85789 75.1558 7.85789C76.6381 7.85789 77.9085 9.05074 77.9085 10.5578C77.9085 12.1459 76.6381 13.3078 75.1558 13.3078ZM75.1558 7.3356C73.3619 7.3356 71.8779 8.76436 71.8779 10.5578C71.8779 12.3507 73.3619 13.836 75.1558 13.836C77.0049 13.836 78.4348 12.3507 78.4348 10.5578C78.4348 8.76436 77.0049 7.3356 75.1558 7.3356Z" fill="#D91920"/>
<path fill-rule="evenodd" clip-rule="evenodd" d="M75.3106 10.377H74.6081V9.36305H75.2086C75.6255 9.36305 75.9103 9.49231 75.9103 9.88301C75.9103 10.0887 75.8078 10.377 75.3106 10.377ZM76.4042 11.4423C76.4042 11.0781 76.3532 10.7412 75.9363 10.6115C76.457 10.4284 76.5067 10.0887 76.5067 9.88301C76.5067 9.05067 75.7531 8.94554 75.4409 8.94554H74.0103V12.17H74.6081V10.8437H75.0764C75.7531 10.8437 75.8078 11.1559 75.8078 11.4423C75.8078 11.9892 75.8078 12.0943 75.9363 12.17H76.5345C76.4042 12.0411 76.457 11.9377 76.4042 11.4423Z" fill="#D91920"/>
<path d="M13.668 50.2171H12.7585V48.8344H15.2068V54.8466H13.668V50.2171Z" fill="#D91920"/>
<path d="M20.6959 54.5705C20.1605 54.9407 19.5996 55.0181 19.0893 55.0181C17.3213 55.0181 16.0469 53.7637 16.0469 51.8401C16.0469 49.8308 17.4498 48.6621 19.0642 48.6621C19.5913 48.6621 20.1942 48.8 20.6959 49.1438V50.8876C20.3901 50.5265 19.9226 50.1645 19.2847 50.1645C18.3666 50.1645 17.7633 50.9035 17.7633 51.8915C17.7633 52.8021 18.3338 53.5147 19.2847 53.5147C19.9049 53.5147 20.3901 53.18 20.6959 52.8622V54.5705Z" fill="#D91920"/>
<path d="M22.268 53.2483C22.7437 53.2483 23.135 53.643 23.135 54.1247C23.135 54.6046 22.7437 54.9998 22.268 54.9998C21.7919 54.9998 21.4004 54.6046 21.4004 54.1247C21.4004 53.643 21.7919 53.2483 22.268 53.2483ZM22.268 50.5438C22.7437 50.5438 23.135 50.9385 23.135 51.4189C23.135 51.9006 22.7437 52.2944 22.268 52.2944C21.7919 52.2944 21.4004 51.9006 21.4004 51.4189C21.4004 50.9385 21.7919 50.5438 22.268 50.5438Z" fill="#D91920"/>
<path d="M28.0476 52.8023C28.4635 52.81 29.3056 52.6643 29.3056 51.5989C29.3056 50.5344 28.4635 50.3887 28.0476 50.3983V52.8023ZM26.6199 50.3983C26.203 50.3887 25.3619 50.5344 25.3619 51.5989C25.3619 52.6643 26.203 52.81 26.6199 52.8023V50.3983ZM26.5006 54.0042C25.4804 54.0134 23.696 53.7129 23.696 51.5989C23.696 49.5127 25.4804 49.1607 26.5006 49.1949V48.5333H28.1669V49.1949C29.1866 49.1607 30.9714 49.5127 30.9714 51.5989C30.9714 53.7129 29.1866 54.0134 28.1669 54.0042V54.8466H26.5006V54.0042Z" fill="#D91920"/>
<path d="M33.1993 51.5398H33.674C34.414 51.5398 34.4905 51.1018 34.4905 50.8431C34.4905 50.544 34.3889 50.157 33.674 50.157H33.1993V51.5398ZM31.533 48.8344H34.0399C35.7323 48.8344 36.2084 50.0191 36.2084 50.8431C36.2084 51.6777 35.7232 52.8624 34.0399 52.8624H33.1993V54.8466H31.533V48.8344Z" fill="#D91920"/>
<path d="M38.1631 52.4845H39.5228L38.8425 50.2681L38.1631 52.4845ZM37.8309 48.8344H39.8541L41.9705 54.8466H40.1857L39.8541 53.8072H37.8309L37.4992 54.8466H35.7148L37.8309 48.8344Z" fill="#D91920"/>
<path d="M42.4104 48.8344H44.0764V50.9993H46.0989V48.8344H47.7649V54.8466H46.0989V52.4403H44.0764V54.8466H42.4104V48.8344Z" fill="#D91920"/>
<path d="M51.6183 52.5014C51.0059 52.587 50.8784 52.587 50.5047 52.587C48.4898 52.587 48.405 51.5739 48.405 50.5768V48.8344H50.0718V50.3378C50.0718 50.8013 50.0627 51.2393 50.9886 51.2393C51.1254 51.2393 51.2953 51.2133 51.6183 51.1792V48.8344H53.2843V54.8466H51.6183V52.5014Z" fill="#D91920"/>
<path d="M56.1299 52.4845H57.4887L56.8088 50.2681L56.1299 52.4845ZM55.7968 48.8344H57.8204L59.9378 54.8466H58.1517L57.8204 53.8072H55.7968L55.4665 54.8466H53.6816L55.7968 48.8344Z" fill="#D91920"/>
<path d="M64.8507 47.5467C64.5273 48.2501 63.7722 48.5074 63.067 48.5074C62.3607 48.5074 61.6042 48.2501 61.2807 47.5467L62.233 47.1847C62.3857 47.5968 62.7608 47.6924 63.067 47.6924C63.3722 47.6924 63.7458 47.5968 63.8984 47.1847L64.8507 47.5467ZM61.9018 48.8343V52.4403L64.2051 48.8343H65.8373V54.8466H64.2311V51.2392L61.9264 54.8466H60.2957V48.8343H61.9018Z" fill="#D91920"/>
<path d="M66.5684 49.2198C66.8578 49.0573 67.5795 48.6621 68.5742 48.6621C69.9079 48.6621 70.8602 49.3577 70.8602 50.3626C70.8602 50.9636 70.487 51.5136 69.8819 51.7194V51.7458C70.3672 51.9006 70.9883 52.2694 70.9883 53.18C70.9883 54.3215 69.9421 55.0181 68.5992 55.0181C67.7577 55.0181 67.214 54.8542 66.2617 54.1248L66.9511 53.0079C67.3758 53.4122 67.9454 53.6954 68.3955 53.6954C69.1095 53.6954 69.2713 53.2834 69.2713 53.0343C69.2713 52.681 69.0244 52.4069 68.3099 52.4069H67.3667V51.2049H68.3099C69.0663 51.2049 69.1939 50.852 69.1939 50.5857C69.1939 50.2087 68.8544 49.9847 68.3441 49.9847C67.8601 49.9847 67.5111 50.1568 67.1457 50.3981L66.5684 49.2198Z" fill="#D91920"/>
<path d="M73.2388 48.8344V52.4403L75.5421 48.8344H77.1747V54.8466H75.568V51.2393L73.2638 54.8466H71.6326V48.8344H73.2388Z" fill="#D91920"/>
<path d="M77.8469 48.8344H79.5124V50.9993H81.5355V48.8344H83.2009V54.8466H81.5355V52.4403H79.5124V54.8466H77.8469V48.8344Z" fill="#D91920"/>
<path d="M84.043 48.8343H87.612V50.2771H85.7083V54.8466H84.043V48.8343Z" fill="#D91920"/>
</svg>
