<svg xmlns="http://www.w3.org/2000/svg" width="104" height="104" viewBox="0 0 104 104" fill="none">
  <path d="M82.5932 66C89.4998 49.1867 81.2598 32.1333 65.7932 24.22C50.0465 16.1667 29.1932 17.16 13.8532 25.5933C10.6598 27.3533 13.4598 31.8133 16.6532 30.3867C30.6065 24.16 47.1198 22.9533 61.3198 29.0533C67.5005 31.6665 72.7018 36.1587 76.1865 41.8933C80.7932 49.3933 80.0932 57.2267 79.3798 65.54C79.2065 67.54 81.9532 67.5333 82.5932 66Z" fill="white"/>
  <path d="M79.8807 84.3726C84.4874 77.5926 90.0941 70.3726 91.5341 62.0926C91.5998 61.8002 91.5505 61.4937 91.3964 61.2366C91.2423 60.9796 90.9951 60.7917 90.7062 60.712C90.4173 60.6322 90.1087 60.6668 89.8446 60.8084C89.5804 60.95 89.3809 61.1879 89.2874 61.4726C86.5541 68.4326 82.5141 74.3526 78.1074 80.2726C75.1141 76.5126 72.6541 72.1726 69.1341 68.9393C68.8204 68.6484 68.4138 68.4781 67.9864 68.4589C67.5591 68.4397 67.1388 68.5728 66.8004 68.8344C66.4619 69.0961 66.2273 69.4693 66.1382 69.8877C66.0492 70.3061 66.1115 70.7425 66.3141 71.1193C69.1629 76.128 72.697 80.7145 76.8141 84.746C77.0279 84.9497 77.2842 85.1036 77.5645 85.1966C77.8449 85.2895 78.1423 85.3192 78.4355 85.2835C78.7287 85.2478 79.0104 85.1476 79.2603 84.9901C79.5101 84.8326 79.722 84.6217 79.8807 84.3726Z" fill="white"/>
</svg>