<svg xmlns="http://www.w3.org/2000/svg" width="80" height="80" viewBox="0 0 80 80" fill="none">
  <path fill-rule="evenodd" clip-rule="evenodd" d="M54.5232 57.0739C54.3723 57.0736 54.2248 57.0285 54.0994 56.9443C53.9741 56.8602 53.8765 56.7407 53.819 56.6012C53.7614 56.4616 53.7466 56.3081 53.7763 56.16C53.806 56.012 53.8788 55.8761 53.9857 55.7695C54.0926 55.6628 54.2287 55.5903 54.3768 55.561C54.5249 55.5317 54.6784 55.5469 54.8178 55.6047C54.9573 55.6626 55.0764 55.7605 55.1603 55.8861C55.2441 56.0116 55.2889 56.1592 55.2889 56.3102C55.2884 56.5129 55.2075 56.7072 55.064 56.8503C54.9204 56.9935 54.726 57.0739 54.5232 57.0739ZM60.487 54.9969H57.0936C56.7954 54.414 56.3083 53.9494 55.712 53.6791V47.0339C55.712 46.7521 55.6 46.4819 55.4008 46.2826C55.2015 46.0834 54.9313 45.9714 54.6495 45.9714C54.3677 45.9714 54.0974 46.0834 53.8982 46.2826C53.6989 46.4819 53.587 46.7521 53.587 47.0339V53.5808C53.1181 53.7417 52.6986 54.0206 52.3687 54.3906C52.0389 54.7606 51.8098 55.2093 51.7036 55.6934C51.5974 56.1776 51.6176 56.681 51.7623 57.1551C51.907 57.6292 52.1713 58.0581 52.5298 58.4004C52.8883 58.7428 53.3289 58.9871 53.8091 59.1098C54.2894 59.2326 54.7931 59.2297 55.2719 59.1013C55.7507 58.973 56.1884 58.7235 56.5428 58.377C56.8973 58.0305 57.1566 57.5986 57.2957 57.1228H60.4875C60.7693 57.1228 61.0395 57.0109 61.2388 56.8116C61.438 56.6124 61.55 56.3421 61.55 56.0603C61.55 55.7785 61.438 55.5083 61.2388 55.309C61.0395 55.1098 60.7693 54.9978 60.4875 54.9978L60.487 54.9969ZM47.3395 46.9969C47.4382 47.0956 47.5165 47.2128 47.5699 47.3418C47.6233 47.4708 47.6507 47.6091 47.6507 47.7487C47.6507 47.8883 47.6231 48.0265 47.5697 48.1555C47.5162 48.2845 47.4379 48.4016 47.3392 48.5003C47.2404 48.599 47.1232 48.6773 46.9942 48.7307C46.8652 48.7841 46.727 48.8116 46.5874 48.8116C46.4478 48.8115 46.3096 48.784 46.1806 48.7305C46.0516 48.6771 45.9344 48.5988 45.8357 48.5L44.4181 47.0819C44.3194 46.9832 44.2411 46.8661 44.1876 46.7371C44.1342 46.6082 44.1067 46.47 44.1067 46.3304C44.1067 46.1909 44.1341 46.0526 44.1875 45.9237C44.2409 45.7947 44.3192 45.6776 44.4179 45.5789C44.5165 45.4801 44.6337 45.4018 44.7626 45.3484C44.8916 45.295 45.0298 45.2675 45.1693 45.2674C45.3089 45.2674 45.4471 45.2949 45.5761 45.3483C45.705 45.4017 45.8222 45.4799 45.9209 45.5786L47.3395 46.9969ZM43.1896 56.7641H41.1845C40.9027 56.7641 40.6325 56.6521 40.4332 56.4529C40.2339 56.2536 40.122 55.9834 40.122 55.7016C40.122 55.4198 40.2339 55.1495 40.4332 54.9503C40.6325 54.751 40.9027 54.6391 41.1845 54.6391H43.1901C43.4719 54.6391 43.7422 54.751 43.9414 54.9503C44.1407 55.1495 44.2526 55.4198 44.2526 55.7016C44.2526 55.9834 44.1407 56.2536 43.9414 56.4529C43.7422 56.6521 43.4719 56.7641 43.1901 56.7641H43.1896ZM47.1618 62.9767C47.2608 63.0753 47.3392 63.1924 47.3928 63.3214C47.4464 63.4503 47.4739 63.5886 47.4739 63.7282C47.4739 63.8679 47.4464 64.0061 47.3928 64.1351C47.3392 64.264 47.2608 64.3812 47.1618 64.4797L45.7442 65.8977C45.5449 66.097 45.2745 66.2091 44.9926 66.2091C44.7107 66.2092 44.4403 66.0972 44.241 65.8979C44.0416 65.6986 43.9296 65.4283 43.9295 65.1464C43.9295 64.8645 44.0414 64.5941 44.2407 64.3947L45.6593 62.9767C45.8588 62.7777 46.1291 62.6659 46.4109 62.6659C46.6927 62.6659 46.963 62.7777 47.1625 62.9767H47.1618ZM55.4264 67.126V69.1314C55.4264 69.4132 55.3144 69.6835 55.1152 69.8827C54.9159 70.082 54.6457 70.1939 54.3639 70.1939C54.0821 70.1939 53.8118 70.082 53.6126 69.8827C53.4133 69.6835 53.3014 69.4132 53.3014 69.1314V67.1258C53.3014 66.844 53.4133 66.5738 53.6126 66.3745C53.8118 66.1752 54.0821 66.0633 54.3639 66.0633C54.6457 66.0633 54.9159 66.1752 55.1152 66.3745C55.3144 66.5738 55.4264 66.8442 55.4264 67.126ZM64.5587 64.5722C64.6574 64.6709 64.7357 64.7881 64.7891 64.917C64.8425 65.046 64.87 65.1842 64.87 65.3238C64.87 65.4634 64.8425 65.6016 64.7891 65.7305C64.7357 65.8595 64.6574 65.9766 64.5587 66.0753C64.46 66.174 64.3428 66.2523 64.2139 66.3057C64.0849 66.3591 63.9467 66.3866 63.8071 66.3866C63.6676 66.3866 63.5294 66.3591 63.4004 66.3057C63.2715 66.2523 63.1543 66.174 63.0556 66.0753L61.6375 64.6574C61.4382 64.4581 61.3262 64.1877 61.3262 63.9059C61.3262 63.624 61.4382 63.3537 61.6375 63.1544C61.8368 62.9551 62.1071 62.8431 62.3889 62.8431C62.6708 62.8431 62.9411 62.9551 63.1404 63.1544L64.5587 64.5722ZM68.8556 55.9519C68.8556 56.2337 68.7436 56.5039 68.5444 56.7032C68.3451 56.9025 68.0749 57.0144 67.7931 57.0144H65.7871C65.5054 57.0144 65.2351 56.9025 65.0358 56.7032C64.8366 56.5039 64.7246 56.2337 64.7246 55.9519C64.7246 55.6701 64.8366 55.3999 65.0358 55.2006C65.2351 55.0013 65.5054 54.8894 65.7871 54.8894H67.7926C68.0743 54.8896 68.3444 55.0017 68.5436 55.2009C68.7428 55.4001 68.8549 55.6702 68.8551 55.9519H68.8556ZM61.8153 48.6764C61.6163 48.477 61.5045 48.2068 61.5045 47.925C61.5045 47.6433 61.6163 47.3731 61.8153 47.1736L63.2336 45.7561C63.3322 45.6574 63.4493 45.5792 63.5782 45.5258C63.7071 45.4723 63.8453 45.4448 63.9849 45.4448C64.1244 45.4448 64.2626 45.4723 64.3915 45.5257C64.5204 45.5791 64.6375 45.6573 64.7362 45.756C64.8349 45.8546 64.9132 45.9717 64.9666 46.1006C65.02 46.2296 65.0475 46.3677 65.0475 46.5073C65.0475 46.6468 65.02 46.785 64.9667 46.9139C64.9133 47.0428 64.835 47.1599 64.7364 47.2586L63.3182 48.6764C63.2196 48.7751 63.1024 48.8535 62.9735 48.9069C62.8445 48.9603 62.7063 48.9878 62.5668 48.9878C62.4272 48.9878 62.289 48.9603 62.16 48.9069C62.0311 48.8535 61.9139 48.7751 61.8153 48.6764ZM53.5506 44.5277V42.5219C53.5506 42.2401 53.6625 41.9699 53.8618 41.7706C54.061 41.5713 54.3313 41.4594 54.6131 41.4594C54.8949 41.4594 55.1651 41.5713 55.3644 41.7706C55.5636 41.9699 55.6756 42.2401 55.6756 42.5219V44.5274C55.6756 44.8092 55.5636 45.0794 55.3644 45.2787C55.1651 45.4779 54.8949 45.5899 54.6131 45.5899C54.3313 45.5899 54.061 45.4779 53.8618 45.2787C53.6625 45.0794 53.5506 44.8092 53.5506 44.5274V44.5277ZM54.4881 71.2024C57.529 71.2024 60.5016 70.3006 63.03 68.6112C65.5584 66.9218 67.529 64.5205 68.6927 61.7111C69.8564 58.9017 70.1609 55.8103 69.5677 52.8279C68.9744 49.8454 67.5101 47.1058 65.3599 44.9556C63.2096 42.8054 60.4701 41.341 57.4876 40.7478C54.5051 40.1545 51.4137 40.459 48.6043 41.6227C45.7949 42.7864 43.3937 44.7571 41.7042 47.2855C40.0148 49.8139 39.1131 52.7865 39.1131 55.8274C39.1176 59.9037 40.7388 63.8118 43.6213 66.6942C46.5037 69.5766 50.4118 71.1979 54.4881 71.2024ZM54.4881 38.3258C51.0267 38.3256 47.6429 39.3518 44.7647 41.2747C41.8866 43.1976 39.6432 45.9308 38.3184 49.1287C36.9936 52.3265 36.6469 55.8454 37.322 59.2404C37.9971 62.6353 39.6638 65.7538 42.1113 68.2015C44.5588 70.6492 47.6771 72.3162 51.072 72.9916C54.4669 73.667 57.9858 73.3206 61.1838 71.996C64.3818 70.6715 67.1152 68.4285 69.0383 65.5504C70.9615 62.6724 71.988 59.2888 71.9881 55.8274C71.9829 51.1875 70.1376 46.7392 66.8568 43.4582C63.5761 40.1771 59.1279 38.3314 54.4881 38.3258ZM54.4881 75.3744C58.3541 75.3744 62.1333 74.228 65.3477 72.0802C68.5622 69.9323 71.0676 66.8795 72.547 63.3078C74.0265 59.7361 74.4136 55.8058 73.6594 52.0141C72.9052 48.2224 71.0435 44.7395 68.3098 42.0058C65.5761 39.2721 62.0932 37.4105 58.3015 36.6562C54.5098 35.902 50.5795 36.2891 47.0078 37.7686C43.4361 39.248 40.3833 41.7534 38.2355 44.9679C36.0876 48.1823 34.9412 51.9615 34.9412 55.8275C34.947 61.0099 37.0082 65.9784 40.6727 69.6429C44.3372 73.3074 49.3057 75.3687 54.4881 75.3744ZM5.96496 65.0111C5.96604 66.3167 6.48501 67.5684 7.40798 68.4918C8.33096 69.4151 9.58255 69.9345 10.8881 69.9361H38.0504C34.6692 66.0134 32.8113 61.0056 32.8161 55.8267C32.8161 43.8758 42.539 34.1531 54.4887 34.1533C59.6264 34.1489 64.597 35.9776 68.5068 39.3106V25.208H5.96496V65.0111ZM10.8881 9.93955H12.5961V10.673C12.5973 11.8874 13.0803 13.0518 13.939 13.9106C14.7977 14.7693 15.9621 15.2523 17.1765 15.2536C17.4583 15.2536 17.7286 15.1417 17.9278 14.9424C18.1271 14.7432 18.239 14.4729 18.239 14.1911C18.239 13.9093 18.1271 13.6391 17.9278 13.4398C17.7286 13.2406 17.4583 13.1286 17.1765 13.1286C16.5255 13.128 15.9014 12.869 15.4411 12.4086C14.9808 11.9482 14.722 11.324 14.7215 10.673V7.08065C14.7189 6.75661 14.7805 6.43527 14.9027 6.13516C15.025 5.83505 15.2054 5.5621 15.4336 5.33205C15.6618 5.10201 15.9333 4.91942 16.2324 4.79481C16.5316 4.67021 16.8524 4.60606 17.1764 4.60606C17.5005 4.60606 17.8213 4.67021 18.1205 4.79481C18.4196 4.91942 18.6911 5.10201 18.9193 5.33205C19.1475 5.5621 19.3279 5.83505 19.4501 6.13516C19.5724 6.43527 19.634 6.75661 19.6314 7.08065V7.81408H18.4726C18.1908 7.81408 17.9206 7.92602 17.7213 8.12528C17.5221 8.32454 17.4101 8.59479 17.4101 8.87658C17.4101 9.15838 17.5221 9.42863 17.7213 9.62788C17.9206 9.82714 18.1908 9.93908 18.4726 9.93908H32.6545V10.6725C32.6557 11.887 33.1386 13.0513 33.9973 13.9101C34.856 14.7688 36.0204 15.2519 37.2348 15.2531C37.5166 15.2531 37.7868 15.1412 37.9861 14.9419C38.1854 14.7427 38.2973 14.4724 38.2973 14.1906C38.2973 13.9089 38.1854 13.6386 37.9861 13.4393C37.7868 13.2401 37.5166 13.1281 37.2348 13.1281C36.5841 13.1271 35.9604 12.868 35.5004 12.4078C35.0405 11.9475 34.7818 11.3237 34.7811 10.673V7.08065C34.7785 6.75661 34.8401 6.43527 34.9623 6.13516C35.0845 5.83505 35.2649 5.5621 35.4931 5.33205C35.7213 5.10201 35.9928 4.91942 36.292 4.79481C36.5911 4.67021 36.9119 4.60606 37.236 4.60606C37.56 4.60606 37.8809 4.67021 38.18 4.79481C38.4791 4.91942 38.7506 5.10201 38.9788 5.33205C39.2071 5.5621 39.3875 5.83505 39.5097 6.13516C39.6319 6.43527 39.6935 6.75661 39.6909 7.08065V7.81408H38.5403C38.4007 7.81408 38.2626 7.84156 38.1337 7.89496C38.0048 7.94836 37.8876 8.02662 37.789 8.12528C37.6903 8.22394 37.612 8.34107 37.5587 8.46998C37.5053 8.59889 37.4778 8.73705 37.4778 8.87658C37.4778 9.01611 37.5053 9.15428 37.5587 9.28318C37.612 9.41209 37.6903 9.52922 37.789 9.62788C37.8876 9.72655 38.0048 9.80481 38.1337 9.8582C38.2626 9.9116 38.4007 9.93908 38.5403 9.93908H52.7145V10.6725C52.7157 11.887 53.1987 13.0513 54.0574 13.9101C54.9162 14.7688 56.0805 15.2519 57.295 15.2531C57.5768 15.2531 57.847 15.1412 58.0463 14.9419C58.2455 14.7427 58.3575 14.4724 58.3575 14.1906C58.3575 13.9089 58.2455 13.6386 58.0463 13.4393C57.847 13.2401 57.5768 13.1281 57.295 13.1281C56.6439 13.1276 56.0196 12.8689 55.5591 12.4086C55.0986 11.9483 54.8396 11.3241 54.8389 10.673V7.08065C54.8389 6.75825 54.9024 6.43901 55.0257 6.14116C55.1491 5.8433 55.3299 5.57267 55.5579 5.3447C55.7859 5.11673 56.0565 4.9359 56.3544 4.81252C56.6522 4.68914 56.9715 4.62564 57.2939 4.62564C57.6163 4.62564 57.9355 4.68914 58.2334 4.81252C58.5312 4.9359 58.8018 5.11673 59.0298 5.3447C59.2578 5.57267 59.4386 5.8433 59.562 6.14116C59.6854 6.43901 59.7489 6.75825 59.7489 7.08065V7.81408H58.5889C58.4493 7.81408 58.3112 7.84156 58.1823 7.89496C58.0534 7.94836 57.9362 8.02662 57.8376 8.12528C57.7389 8.22394 57.6606 8.34107 57.6072 8.46998C57.5538 8.59889 57.5264 8.73705 57.5264 8.87658C57.5264 9.01611 57.5538 9.15428 57.6072 9.28318C57.6606 9.41209 57.7389 9.52922 57.8376 9.62788C57.9362 9.72655 58.0534 9.80481 58.1823 9.8582C58.3112 9.9116 58.4493 9.93908 58.5889 9.93908H63.5811C64.8867 9.94053 66.1385 10.4599 67.0618 11.3831C67.985 12.3064 68.5043 13.5582 68.5057 14.8639V23.0827H5.96496V14.8639C5.96628 13.5585 6.48535 12.3069 7.4083 11.3838C8.33124 10.4606 9.58268 9.94121 10.8881 9.93955ZM70.6317 41.3821V14.8644C70.6293 12.9952 69.8857 11.2032 68.5639 9.88145C67.2421 8.55976 65.45 7.81627 63.5807 7.81408H61.8748V7.08065C61.8783 6.47687 61.7625 5.87835 61.5338 5.31952C61.3052 4.76068 60.9684 4.25256 60.5427 3.82437C60.117 3.39619 59.6109 3.05638 59.0534 2.82451C58.4959 2.59264 57.898 2.47327 57.2943 2.47327C56.6905 2.47327 56.0926 2.59264 55.5351 2.82451C54.9777 3.05638 54.4715 3.39619 54.0458 3.82437C53.6201 4.25256 53.2833 4.76068 53.0547 5.31952C52.8261 5.87835 52.7102 6.47687 52.7137 7.08065V7.81408H41.8159V7.08065C41.8159 5.86579 41.3333 4.70069 40.4743 3.84165C39.6152 2.98262 38.4501 2.50002 37.2353 2.50002C36.0204 2.50002 34.8553 2.98262 33.9963 3.84165C33.1372 4.70069 32.6546 5.86579 32.6546 7.08065V7.81408H21.757V7.08065C21.757 6.47913 21.6385 5.8835 21.4083 5.32778C21.1781 4.77205 20.8407 4.2671 20.4154 3.84176C19.9901 3.41643 19.4851 3.07903 18.9294 2.84884C18.3737 2.61865 17.778 2.50018 17.1765 2.50018C16.575 2.50018 15.9794 2.61865 15.4237 2.84884C14.8679 3.07903 14.363 3.41643 13.9376 3.84176C13.5123 4.2671 13.1749 4.77205 12.9447 5.32778C12.7145 5.8835 12.5961 6.47913 12.5961 7.08065V7.81408H10.8881C9.01904 7.8164 7.22722 8.55998 5.90571 9.8817C4.58419 11.2034 3.84089 12.9953 3.83887 14.8644V65.0111C3.8406 66.8804 4.58378 68.6726 5.90532 69.9945C7.22687 71.3165 9.01885 72.0602 10.8881 72.0625H40.1475C44.1007 75.5698 49.2034 77.5046 54.4882 77.5C66.4382 77.5 76.1601 67.7774 76.1601 55.8281C76.1646 50.4953 74.1953 45.3494 70.6317 41.3821Z" fill="#231F20"/>
  <path fill-rule="evenodd" clip-rule="evenodd" d="M52.7133 9.93953H38.5391C38.2573 9.93953 37.987 9.82759 37.7878 9.62833C37.5885 9.42907 37.4766 9.15882 37.4766 8.87703C37.4766 8.59524 37.5885 8.32499 37.7878 8.12573C37.987 7.92647 38.2573 7.81453 38.5391 7.81453H39.6897V7.08109C39.6923 6.75706 39.6307 6.43572 39.5085 6.13561C39.3863 5.83549 39.2058 5.56254 38.9776 5.3325C38.7494 5.10245 38.4779 4.91986 38.1788 4.79526C37.8796 4.67066 37.5588 4.60651 37.2348 4.60651C36.9107 4.60651 36.5899 4.67066 36.2908 4.79526C35.9916 4.91986 35.7201 5.10245 35.4919 5.3325C35.2637 5.56254 35.0833 5.83549 34.9611 6.13561C34.8388 6.43572 34.7773 6.75706 34.7798 7.08109V10.673C34.7805 11.3239 35.0394 11.948 35.4997 12.4082C35.96 12.8685 36.5841 13.1274 37.235 13.1281C37.5168 13.1281 37.787 13.2401 37.9863 13.4393C38.1856 13.6386 38.2975 13.9088 38.2975 14.1906C38.2975 14.4724 38.1856 14.7427 37.9863 14.9419C37.787 15.1412 37.5168 15.2531 37.235 15.2531C36.0206 15.2518 34.8562 14.7688 33.9975 13.9101C33.1388 13.0513 32.6559 11.8869 32.6547 10.6725V9.93953H18.4728C18.191 9.93953 17.9208 9.82759 17.7215 9.62833C17.5223 9.42907 17.4103 9.15882 17.4103 8.87703C17.4103 8.59524 17.5223 8.32499 17.7215 8.12573C17.9208 7.92647 18.191 7.81453 18.4728 7.81453H19.6316V7.08109C19.6341 6.75706 19.5726 6.43572 19.4503 6.13561C19.3281 5.83549 19.1477 5.56254 18.9195 5.3325C18.6913 5.10245 18.4198 4.91986 18.1207 4.79526C17.8215 4.67066 17.5007 4.60651 17.1766 4.60651C16.8526 4.60651 16.5318 4.67066 16.2326 4.79526C15.9335 4.91986 15.662 5.10245 15.4338 5.3325C15.2056 5.56254 15.0251 5.83549 14.9029 6.13561C14.7807 6.43572 14.7191 6.75706 14.7217 7.08109V10.673C14.7223 11.3238 14.9811 11.9479 15.4413 12.4082C15.9015 12.8685 16.5255 13.1274 17.1764 13.1281C17.4582 13.1281 17.7285 13.2401 17.9277 13.4393C18.127 13.6386 18.2389 13.9088 18.2389 14.1906C18.2389 14.4724 18.127 14.7427 17.9277 14.9419C17.7285 15.1412 17.4582 15.2531 17.1764 15.2531C15.962 15.2518 14.7978 14.7689 13.9391 13.9102C13.0803 13.0516 12.5973 11.8873 12.5959 10.673V9.93953H10.888C9.58248 9.94118 8.33097 10.4606 7.40801 11.3839C6.48506 12.3072 5.96604 13.5589 5.96484 14.8644V23.0831H68.5062V14.8644C68.5048 13.5586 67.9855 12.3067 67.0621 11.3834C66.1387 10.4601 64.8867 9.94081 63.5809 9.93953H58.5887C58.307 9.93953 58.0367 9.82759 57.8374 9.62833C57.6382 9.42907 57.5263 9.15882 57.5263 8.87703C57.5263 8.59524 57.6382 8.32499 57.8374 8.12573C58.0367 7.92647 58.307 7.81453 58.5887 7.81453H59.7497V7.08062C59.7497 6.75823 59.6862 6.43899 59.5628 6.14113C59.4394 5.84328 59.2586 5.57264 59.0306 5.34468C58.8027 5.11671 58.532 4.93587 58.2342 4.8125C57.9363 4.68912 57.6171 4.62562 57.2947 4.62562C56.9723 4.62562 56.653 4.68912 56.3552 4.8125C56.0573 4.93587 55.7867 5.11671 55.5587 5.34468C55.3308 5.57264 55.1499 5.84328 55.0266 6.14113C54.9032 6.43899 54.8397 6.75823 54.8397 7.08062V10.673C54.8404 11.3237 55.0992 11.9476 55.5592 12.4078C56.0193 12.8681 56.643 13.1271 57.2938 13.1281C57.5755 13.1281 57.8458 13.2401 58.0451 13.4393C58.2443 13.6386 58.3562 13.9088 58.3562 14.1906C58.3562 14.4724 58.2443 14.7427 58.0451 14.9419C57.8458 15.1412 57.5755 15.2531 57.2938 15.2531C56.0793 15.2518 54.915 14.7688 54.0562 13.9101C53.1975 13.0513 52.7145 11.8869 52.7133 10.6725V9.93953Z" fill="#00ABEA"/>
  <path fill-rule="evenodd" clip-rule="evenodd" d="M54.4883 38.3258C57.9497 38.3256 61.3335 39.3518 64.2116 41.2747C67.0898 43.1976 69.3331 45.9308 70.6579 49.1286C71.9827 52.3265 72.3295 55.8454 71.6544 59.2403C70.9793 62.6353 69.3126 65.7538 66.8651 68.2015C64.4176 70.6492 61.2993 72.3161 57.9044 72.9916C54.5095 73.667 50.9906 73.3205 47.7926 71.996C44.5946 70.6715 41.8612 68.4284 39.9381 65.5504C38.0149 62.6724 36.9884 59.2888 36.9883 55.8273C36.9933 51.1874 38.8386 46.739 42.1194 43.4579C45.4001 40.1769 49.8484 38.3312 54.4883 38.3258ZM74.0352 55.8273C74.0352 51.9613 72.8888 48.1821 70.7409 44.9677C68.5931 41.7532 65.5403 39.2478 61.9686 37.7684C58.3968 36.2889 54.4666 35.9018 50.6749 36.6561C46.8832 37.4103 43.4002 39.2719 40.6666 42.0056C37.9329 44.7393 36.0712 48.2222 35.317 52.0139C34.5628 55.8057 34.9499 59.7359 36.4293 63.3076C37.9088 66.8793 40.4142 69.9321 43.6286 72.08C46.8431 74.2278 50.6223 75.3742 54.4883 75.3742C59.6706 75.3685 64.639 73.3074 68.3034 69.643C71.9679 65.9787 74.0293 61.0104 74.0352 55.8281V55.8273Z" fill="#00ABEA"/>
</svg>