<svg width="95" height="62" viewBox="0 0 95 62" fill="none" xmlns="http://www.w3.org/2000/svg">
<path fill-rule="evenodd" clip-rule="evenodd" d="M7.30176 14.452V19.2354H12.7687V44.3312H17.5548V14.452H7.30176ZM25.0244 44.3312H20.0464V11.9647H12.7687V6.98829H25.0244V44.3312ZM49.9482 31.6479C49.5904 31.6479 47.7081 31.6352 47.3595 31.6037C46.7718 31.5545 45.9179 31.4666 45.3693 31.34C44.75 31.1739 44.1687 30.9567 43.9057 30.8124C42.0681 29.8185 40.8168 27.8757 40.8168 25.6378C40.8168 22.3839 43.4547 19.7476 46.7125 19.7476C49.9026 19.7476 52.4953 22.2841 52.5986 25.4476H57.3515C57.2513 19.6597 52.5303 14.9966 46.7125 14.9966C40.8301 14.9966 36.0612 19.7631 36.0612 25.6378C36.0612 29.7834 38.4374 33.3652 41.9003 35.1191C42.4321 35.431 43.4359 35.7588 43.7217 35.833C44.6981 36.0911 46.0117 36.2655 47.0765 36.3452C47.473 36.3771 49.4004 36.3916 49.8082 36.394V36.3985H87.6912V31.6479H49.9482ZM47.0765 39.3762C45.5971 39.2783 43.8861 39.0224 42.5406 38.6294C42.2882 38.5566 41.2434 38.1751 40.9767 38.0526C36.2867 35.8785 33.0184 31.137 33.0184 25.6378C33.0184 18.0945 39.1605 11.9551 46.7125 11.9551C54.197 11.9551 60.296 17.9911 60.3994 25.4476H65.3459C65.2435 15.2675 56.9251 7.0151 46.7125 7.0151C36.4362 7.0151 28.075 15.3704 28.075 25.6378C28.075 32.7196 32.0574 38.8776 37.8929 42.0274C38.9464 42.5837 40.4587 43.1588 40.9714 43.3122C42.6353 43.8108 44.6735 44.1377 46.4925 44.2775C47.1094 44.323 49.2624 44.3481 49.8921 44.3503H87.6912V39.4226H49.9482C49.4962 39.4226 47.519 39.408 47.0765 39.3762Z" fill="#D91920"/>
<path fill-rule="evenodd" clip-rule="evenodd" d="M75.1558 13.3077C73.6741 13.3077 72.3983 12.1459 72.3983 10.5578C72.3983 9.05068 73.6741 7.85783 75.1558 7.85783C76.6381 7.85783 77.9085 9.05068 77.9085 10.5578C77.9085 12.1459 76.6381 13.3077 75.1558 13.3077ZM75.1558 7.33554C73.3619 7.33554 71.8779 8.76429 71.8779 10.5578C71.8779 12.3506 73.3619 13.8359 75.1558 13.8359C77.0049 13.8359 78.4348 12.3506 78.4348 10.5578C78.4348 8.76429 77.0049 7.33554 75.1558 7.33554Z" fill="#D91920"/>
<path fill-rule="evenodd" clip-rule="evenodd" d="M75.3101 10.3769H74.6076V9.36299H75.2081C75.625 9.36299 75.9098 9.49225 75.9098 9.88295C75.9098 10.0887 75.8073 10.3769 75.3101 10.3769ZM76.4037 11.4423C76.4037 11.078 76.3527 10.7412 75.9358 10.6114C76.4566 10.4283 76.5062 10.0887 76.5062 9.88295C76.5062 9.05061 75.7526 8.94548 75.4404 8.94548H74.0098V12.1699H74.6076V10.8436H75.0759C75.7526 10.8436 75.8073 11.1559 75.8073 11.4423C75.8073 11.9891 75.8073 12.0943 75.9358 12.1699H76.534C76.4037 12.041 76.4566 11.9376 76.4037 11.4423Z" fill="#D91920"/>
<path d="M13.6673 50.2172H12.7578V48.8344H15.206V54.8467H13.6673V50.2172Z" fill="#D91920"/>
<path d="M20.6959 54.5705C20.1605 54.9407 19.5996 55.0181 19.0893 55.0181C17.3213 55.0181 16.0469 53.7637 16.0469 51.8401C16.0469 49.8308 17.4498 48.6621 19.0642 48.6621C19.5913 48.6621 20.1942 48.8 20.6959 49.1438V50.8876C20.3901 50.5265 19.9226 50.1645 19.2847 50.1645C18.3666 50.1645 17.7633 50.9035 17.7633 51.8915C17.7633 52.8021 18.3338 53.5147 19.2847 53.5147C19.9049 53.5147 20.3901 53.18 20.6959 52.8622V54.5705Z" fill="#D91920"/>
<path d="M22.268 53.2482C22.7437 53.2482 23.135 53.643 23.135 54.1247C23.135 54.6046 22.7437 54.9998 22.268 54.9998C21.7919 54.9998 21.4004 54.6046 21.4004 54.1247C21.4004 53.643 21.7919 53.2482 22.268 53.2482ZM22.268 50.5437C22.7437 50.5437 23.135 50.9385 23.135 51.4188C23.135 51.9005 22.7437 52.2943 22.268 52.2943C21.7919 52.2943 21.4004 51.9005 21.4004 51.4188C21.4004 50.9385 21.7919 50.5437 22.268 50.5437Z" fill="#D91920"/>
<path d="M28.0468 52.8021C28.4628 52.8099 29.3049 52.6642 29.3049 51.5988C29.3049 50.5343 28.4628 50.3886 28.0468 50.3981V52.8021ZM26.6192 50.3981C26.2023 50.3886 25.3612 50.5343 25.3612 51.5988C25.3612 52.6642 26.2023 52.8099 26.6192 52.8021V50.3981ZM26.4999 54.0041C25.4797 54.0132 23.6953 53.7127 23.6953 51.5988C23.6953 49.5126 25.4797 49.1606 26.4999 49.1948V48.5332H28.1662V49.1948C29.1859 49.1606 30.9707 49.5126 30.9707 51.5988C30.9707 53.7127 29.1859 54.0132 28.1662 54.0041V54.8464H26.4999V54.0041Z" fill="#D91920"/>
<path d="M33.1995 51.5398H33.6743C34.4143 51.5398 34.4908 51.1018 34.4908 50.8432C34.4908 50.5441 34.3892 50.1571 33.6743 50.1571H33.1995V51.5398ZM31.5332 48.8344H34.0402C35.7325 48.8344 36.2087 50.0191 36.2087 50.8432C36.2087 51.6778 35.7234 52.8625 34.0402 52.8625H33.1995V54.8467H31.5332V48.8344Z" fill="#D91920"/>
<path d="M38.1631 52.4846H39.5228L38.8425 50.2682L38.1631 52.4846ZM37.8309 48.8344H39.8541L41.9705 54.8467H40.1857L39.8541 53.8072H37.8309L37.4992 54.8467H35.7148L37.8309 48.8344Z" fill="#D91920"/>
<path d="M42.4102 48.8344H44.0761V50.9994H46.0987V48.8344H47.7646V54.8467H46.0987V52.4404H44.0761V54.8467H42.4102V48.8344Z" fill="#D91920"/>
<path d="M51.6176 52.5014C51.0052 52.587 50.8777 52.587 50.5039 52.587C48.4891 52.587 48.4043 51.574 48.4043 50.5769V48.8344H50.0711V50.3378C50.0711 50.8013 50.062 51.2393 50.9879 51.2393C51.1246 51.2393 51.2946 51.2134 51.6176 51.1792V48.8344H53.2835V54.8467H51.6176V52.5014Z" fill="#D91920"/>
<path d="M56.1299 52.4846H57.4887L56.8088 50.2682L56.1299 52.4846ZM55.7968 48.8344H57.8204L59.9378 54.8467H58.1517L57.8204 53.8072H55.7968L55.4665 54.8467H53.6816L55.7968 48.8344Z" fill="#D91920"/>
<path d="M64.85 47.5466C64.5265 48.25 63.7715 48.5073 63.0662 48.5073C62.3599 48.5073 61.6035 48.25 61.28 47.5466L62.2323 47.1846C62.385 47.5967 62.76 47.6923 63.0662 47.6923C63.3715 47.6923 63.7451 47.5967 63.8977 47.1846L64.85 47.5466ZM61.901 48.8342V52.4402L64.2044 48.8342H65.8366V54.8464H64.2304V51.2391L61.9256 54.8464H60.2949V48.8342H61.901Z" fill="#D91920"/>
<path d="M66.5684 49.2198C66.8578 49.0573 67.5795 48.6621 68.5742 48.6621C69.9079 48.6621 70.8602 49.3577 70.8602 50.3626C70.8602 50.9636 70.487 51.5136 69.8819 51.7194V51.7458C70.3672 51.9006 70.9883 52.2694 70.9883 53.18C70.9883 54.3215 69.9421 55.0181 68.5992 55.0181C67.7577 55.0181 67.214 54.8542 66.2617 54.1248L66.9511 53.0079C67.3758 53.4122 67.9454 53.6954 68.3955 53.6954C69.1095 53.6954 69.2713 53.2834 69.2713 53.0343C69.2713 52.681 69.0244 52.4069 68.3099 52.4069H67.3667V51.2049H68.3099C69.0663 51.2049 69.1939 50.852 69.1939 50.5857C69.1939 50.2087 68.8544 49.9847 68.3441 49.9847C67.8601 49.9847 67.5111 50.1568 67.1457 50.3981L66.5684 49.2198Z" fill="#D91920"/>
<path d="M73.2381 48.8344V52.4404L75.5414 48.8344H77.174V54.8467H75.5673V51.2393L73.263 54.8467H71.6318V48.8344H73.2381Z" fill="#D91920"/>
<path d="M77.8467 48.8344H79.5122V50.9994H81.5353V48.8344H83.2007V54.8467H81.5353V52.4404H79.5122V54.8467H77.8467V48.8344Z" fill="#D91920"/>
<path d="M84.043 48.8342H87.612V50.277H85.7083V54.8464H84.043V48.8342Z" fill="#D91920"/>
</svg>
