<svg width="43" height="22" viewBox="0 0 43 22" fill="none" xmlns="http://www.w3.org/2000/svg">
<path fill-rule="evenodd" clip-rule="evenodd" d="M3.30469 3.4496V5.63189H5.77919V17.0811H7.94556V3.4496H3.30469ZM11.3265 17.0811H9.07331V2.31483H5.77919V0.0444813H11.3265V17.0811ZM22.6078 11.2947C22.4459 11.2947 21.5939 11.2889 21.4361 11.2745C21.1701 11.2521 20.7836 11.212 20.5353 11.1543C20.255 11.0785 19.9918 10.9794 19.8728 10.9135C19.041 10.4601 18.4747 9.57377 18.4747 8.55279C18.4747 7.06828 19.6686 5.86555 21.1432 5.86555C22.5872 5.86555 23.7607 7.02276 23.8075 8.46601H25.9588C25.9134 5.82545 23.7765 3.69804 21.1432 3.69804C18.4807 3.69804 16.3221 5.87262 16.3221 8.55279C16.3221 10.4441 17.3977 12.0782 18.9651 12.8783C19.2058 13.0206 19.6601 13.1702 19.7895 13.204C20.2315 13.3218 20.826 13.4014 21.308 13.4377C21.4875 13.4523 22.3599 13.4589 22.5444 13.46V13.462H39.6915V11.2947H22.6078ZM21.308 14.8205C20.6384 14.7759 19.8639 14.6591 19.2549 14.4798C19.1406 14.4466 18.6677 14.2726 18.547 14.2167C16.4242 13.2248 14.9448 11.0616 14.9448 8.55279C14.9448 5.11135 17.725 2.31047 21.1432 2.31047C24.531 2.31047 27.2916 5.06418 27.3384 8.46601H29.5773C29.531 3.82162 25.7658 0.0567131 21.1432 0.0567131C16.4919 0.0567131 12.7073 3.86858 12.7073 8.55279C12.7073 11.7837 14.5099 14.593 17.1512 16.0301C17.628 16.2839 18.3126 16.5463 18.5446 16.6162C19.2978 16.8437 20.2203 16.9928 21.0437 17.0566C21.3229 17.0774 22.2974 17.0888 22.5824 17.0898H39.6915V14.8417H22.6078C22.4032 14.8417 21.5083 14.8351 21.308 14.8205Z" fill="#D91920"/>
<path fill-rule="evenodd" clip-rule="evenodd" d="M34.0188 2.93088C33.3481 2.93088 32.7707 2.40082 32.7707 1.6763C32.7707 0.988737 33.3481 0.444534 34.0188 0.444534C34.6897 0.444534 35.2648 0.988737 35.2648 1.6763C35.2648 2.40082 34.6897 2.93088 34.0188 2.93088ZM34.0188 0.206254C33.2069 0.206254 32.5352 0.858084 32.5352 1.6763C32.5352 2.49425 33.2069 3.17188 34.0188 3.17188C34.8558 3.17188 35.503 2.49425 35.503 1.6763C35.503 0.858084 34.8558 0.206254 34.0188 0.206254Z" fill="#D91920"/>
<path fill-rule="evenodd" clip-rule="evenodd" d="M34.0886 1.59606H33.7706V1.13348H34.0424C34.2311 1.13348 34.36 1.19245 34.36 1.3707C34.36 1.46455 34.3136 1.59606 34.0886 1.59606ZM34.5836 2.08209C34.5836 1.91591 34.5605 1.76223 34.3718 1.70305C34.6075 1.61951 34.63 1.46455 34.63 1.3707C34.63 0.990968 34.2889 0.943003 34.1476 0.943003H33.5V2.41406H33.7706V1.80897H33.9826C34.2889 1.80897 34.3136 1.95143 34.3136 2.08209C34.3136 2.33159 34.3136 2.37955 34.3718 2.41406H34.6426C34.5836 2.35525 34.6075 2.30808 34.5836 2.08209Z" fill="#D91920"/>
<path d="M6.1851 19.7707H5.77344V19.1399H6.88158V21.8828H6.1851V19.7707Z" fill="#D91920"/>
<path d="M9.36601 21.7568C9.12366 21.9256 8.86981 21.9609 8.63882 21.9609C7.83858 21.9609 7.26172 21.3887 7.26172 20.5111C7.26172 19.5944 7.89674 19.0612 8.62746 19.0612C8.86606 19.0612 9.13892 19.1241 9.36601 19.281V20.0765C9.22762 19.9118 9.01601 19.7467 8.72725 19.7467C8.3117 19.7467 8.03863 20.0838 8.03863 20.5345C8.03863 20.95 8.29685 21.2751 8.72725 21.2751C9.00798 21.2751 9.22762 21.1224 9.36601 20.9774V21.7568Z" fill="#D91920"/>
<path d="M10.0802 21.154C10.2955 21.154 10.4727 21.3341 10.4727 21.5539C10.4727 21.7728 10.2955 21.9531 10.0802 21.9531C9.86469 21.9531 9.6875 21.7728 9.6875 21.5539C9.6875 21.3341 9.86469 21.154 10.0802 21.154ZM10.0802 19.9202C10.2955 19.9202 10.4727 20.1003 10.4727 20.3194C10.4727 20.5392 10.2955 20.7189 10.0802 20.7189C9.86469 20.7189 9.6875 20.5392 9.6875 20.3194C9.6875 20.1003 9.86469 19.9202 10.0802 19.9202Z" fill="#D91920"/>
<path d="M12.6923 20.9502C12.8806 20.9537 13.2617 20.8872 13.2617 20.4012C13.2617 19.9155 12.8806 19.849 12.6923 19.8534V20.9502ZM12.0461 19.8534C11.8574 19.849 11.4767 19.9155 11.4767 20.4012C11.4767 20.8872 11.8574 20.9537 12.0461 20.9502V19.8534ZM11.9921 21.4985C11.5303 21.5027 10.7227 21.3656 10.7227 20.4012C10.7227 19.4494 11.5303 19.2888 11.9921 19.3044V19.0026H12.7463V19.3044C13.2079 19.2888 14.0157 19.4494 14.0157 20.4012C14.0157 21.3656 13.2079 21.5027 12.7463 21.4985V21.8828H11.9921V21.4985Z" fill="#D91920"/>
<path d="M15.0277 20.3742H15.2425C15.5775 20.3742 15.6121 20.1743 15.6121 20.0563C15.6121 19.9199 15.5661 19.7433 15.2425 19.7433H15.0277V20.3742ZM14.2734 19.1399H15.4082C16.1742 19.1399 16.3897 19.6804 16.3897 20.0563C16.3897 20.4371 16.1701 20.9776 15.4082 20.9776H15.0277V21.8828H14.2734V19.1399Z" fill="#D91920"/>
<path d="M17.2722 20.8052H17.8877L17.5797 19.794L17.2722 20.8052ZM17.1219 19.1399H18.0376L18.9956 21.8828H18.1877L18.0376 21.4086H17.1219L16.9717 21.8828H16.1641L17.1219 19.1399Z" fill="#D91920"/>
<path d="M19.1953 19.1399H19.9494V20.1276H20.8648V19.1399H21.6189V21.8828H20.8648V20.785H19.9494V21.8828H19.1953V19.1399Z" fill="#D91920"/>
<path d="M23.3646 20.8129C23.0874 20.8519 23.0297 20.8519 22.8605 20.8519C21.9485 20.8519 21.9102 20.3897 21.9102 19.9348V19.1399H22.6646V19.8258C22.6646 20.0372 22.6605 20.2371 23.0796 20.2371C23.1415 20.2371 23.2184 20.2252 23.3646 20.2096V19.1399H24.1187V21.8828H23.3646V20.8129Z" fill="#D91920"/>
<path d="M25.4051 20.8052H26.02L25.7123 19.794L25.4051 20.8052ZM25.2543 19.1399H26.1702L27.1286 21.8828H26.3202L26.1702 21.4086H25.2543L25.1047 21.8828H24.2969L25.2543 19.1399Z" fill="#D91920"/>
<path d="M29.3547 18.5525C29.2083 18.8734 28.8666 18.9907 28.5473 18.9907C28.2277 18.9907 27.8853 18.8734 27.7388 18.5525L28.1699 18.3873C28.239 18.5753 28.4088 18.6189 28.5473 18.6189C28.6855 18.6189 28.8546 18.5753 28.9237 18.3873L29.3547 18.5525ZM28.0199 19.1399V20.785L29.0625 19.1399H29.8013V21.8828H29.0743V20.2371L28.0311 21.8828H27.293V19.1399H28.0199Z" fill="#D91920"/>
<path d="M30.131 19.3156C30.262 19.2415 30.5886 19.0612 31.0389 19.0612C31.6426 19.0612 32.0736 19.3786 32.0736 19.837C32.0736 20.1112 31.9047 20.3621 31.6308 20.456V20.4681C31.8505 20.5387 32.1316 20.7069 32.1316 21.1224C32.1316 21.6431 31.658 21.9609 31.0502 21.9609C30.6693 21.9609 30.4232 21.8862 29.9922 21.5534L30.3042 21.0439C30.4965 21.2283 30.7543 21.3575 30.958 21.3575C31.2812 21.3575 31.3544 21.1695 31.3544 21.0559C31.3544 20.8947 31.2427 20.7697 30.9193 20.7697H30.4923V20.2213H30.9193C31.2616 20.2213 31.3194 20.0603 31.3194 19.9388C31.3194 19.7668 31.1657 19.6646 30.9347 19.6646C30.7157 19.6646 30.5577 19.7431 30.3923 19.8532L30.131 19.3156Z" fill="#D91920"/>
<path d="M33.1528 19.1399V20.785L34.1954 19.1399H34.9343V21.8828H34.2071V20.2371L33.1641 21.8828H32.4258V19.1399H33.1528Z" fill="#D91920"/>
<path d="M35.2344 19.1399H35.9882V20.1276H36.904V19.1399H37.6578V21.8828H36.904V20.785H35.9882V21.8828H35.2344V19.1399Z" fill="#D91920"/>
<path d="M38.043 19.1399H39.6584V19.7981H38.7968V21.8828H38.043V19.1399Z" fill="#D91920"/>
</svg>
