<svg width="1440" height="254" viewBox="0 0 1440 254" fill="none" xmlns="http://www.w3.org/2000/svg">
<g clip-path="url(#clip0_1736_8512)">
<path d="M1148.75 219.768C1148.51 217.561 1148.72 217.905 1148 218.263" stroke="#00ABEA" stroke-width="3.6" stroke-linecap="round"/>
<path d="M296.798 192.194C284.709 189.679 270.166 190.649 242.146 190.303" stroke="#231F20" stroke-width="3.6" stroke-linecap="round" stroke-dasharray="7.2 7.2"/>
<path d="M1224.8 193.798C1243.06 187.636 1263.97 194.355 1291.4 198.15" stroke="#231F20" stroke-width="3.6" stroke-linecap="round"/>
<path d="M1290 189.6C1290.58 192.208 1291.66 197.603 1294.82 198.655C1295.12 198.755 1295.88 198.837 1296.05 199.175C1296.12 199.32 1295.72 199.18 1295.56 199.187C1294.7 199.225 1293.94 199.475 1293.15 199.826C1291.08 200.751 1289.16 201.912 1287.24 203.117C1286.93 203.315 1285.1 204.505 1285.1 204.3" stroke="#231F20" stroke-width="3.6" stroke-linecap="round"/>
<path d="M798.55 190.194C814.554 192.111 815.222 186.976 850.296 191.864" stroke="#231F20" stroke-width="3.6" stroke-linecap="round" stroke-dasharray="7.2 7.2"/>
<path d="M845.241 187.257C845.828 187.345 852.266 192.242 852.195 192.322C851.719 192.858 850.537 192.999 849.917 193.371C848.588 194.168 847.399 195.484 846.05 196.159" stroke="#231F20" stroke-width="3.6" stroke-linecap="round"/>
<path d="M239.047 189.147C229.27 182.915 222.423 175.843 213.211 168.766M213.425 165.718C203.243 175.208 197.012 176.952 187.987 192.234M184.354 189.605C193.726 200.103 201.765 204.35 214.98 218.452M216.298 218.188C226.93 203.793 233.596 198.161 236.952 194.8" stroke="#00ABEA" stroke-width="3.6" stroke-linecap="round"/>
<g clip-path="url(#clip1_1736_8512)">
<path d="M224.847 192.087C216.773 190.681 214.278 191.702 203.642 190.818" stroke="#00ABEA" stroke-width="3.6" stroke-linecap="round" stroke-linejoin="round"/>
<path d="M216.36 200.272C212.011 193.808 215.658 188.761 213.82 180.511" stroke="#00ABEA" stroke-width="3.6" stroke-linecap="round" stroke-linejoin="round"/>
</g>
<path d="M794.111 190.63C790.155 184.584 783.99 174.611 766.64 164.266M764.316 164.266C762.917 173.962 749.898 179.804 741.249 190.589M740.72 190.338C753.118 200.214 758.631 210.924 766.64 219.774C774.504 207.49 787.791 193.703 792.8 191.4" stroke="#00ABEA" stroke-width="3.6" stroke-linecap="round"/>
<path d="M677.03 167.624C628.075 169.463 573.141 168.24 520.946 168.468M517.954 170.542C519.809 189.546 518.866 199.991 523.687 215.842M523.337 214.756C582.296 214.34 644.048 218.107 682.393 216.123M684.379 215.888C683.075 201.772 685.457 193.117 684.767 170.37" stroke="#231F20" stroke-width="3.6" stroke-linecap="round"/>
<path d="M684.978 191.414C703.418 191.414 715.377 194.564 728.178 192.314" stroke="#231F20" stroke-width="3.6" stroke-linecap="round" stroke-dasharray="7.2 7.2"/>
<path d="M726.016 186.731C729.258 186.893 732.144 188.765 734.991 190.188C737.069 191.227 735.791 191.914 734.692 193.014C733.158 194.548 731.262 195.995 729.606 197.468C728.697 198.276 726.614 201.224 726.614 199.296" stroke="#231F20" stroke-width="3.6" stroke-linecap="round"/>
<path d="M1149.31 176.275C1135.7 176.275 1177.7 171.957 1190.12 176.275C1200.01 179.714 1209.21 183.877 1216.54 190.221C1222.96 195.786 1222.06 202.457 1222.06 209.454C1222.06 222.549 1192.77 228.893 1180.06 230.679C1160.53 233.425 1134.3 235.781 1114.9 230.756C1101.89 227.383 1094.3 215.463 1094.3 205.24C1094.3 194.521 1097.9 188.082 1108.1 180.72C1122.42 170.385 1152.65 168 1170.6 168" stroke="#00ABEA" stroke-width="3.6" stroke-linecap="round"/>
<path d="M458.339 165.659C428.809 165.393 390.817 164.925 303.724 165.656M299.886 169.632C297.229 181.212 300.236 195.61 295.612 212.372M298.794 215.923C348.546 219.997 406.146 215.757 459.711 214.983C463.307 198.887 458.965 181.438 462.113 170.019" stroke="#231F20" stroke-width="3.6" stroke-linecap="round"/>
<path d="M600.03 127.907C602.325 140.596 606.044 157.552 600.084 163.876" stroke="#231F20" stroke-width="3.6" stroke-linecap="round"/>
<path d="M608.304 158.908C606.305 160.264 599.927 166.568 599.927 161.6C599.927 159.291 599.444 157.458 598.73 155.317" stroke="#231F20" stroke-width="3.6" stroke-linecap="round"/>
<path d="M853.566 166.742C939.199 169.913 975.527 168.281 1008.14 162.772C1005.61 178.102 1012.44 206.506 1013.75 216.618M855.068 172.344C850.073 188.058 854.679 202.862 854.947 215.409M858.312 215.558C892.106 217.073 918.282 214.076 1011.94 217.497" stroke="#231F20" stroke-width="3.6" stroke-linecap="round"/>
<path d="M1153.24 120.3C1157.17 133.71 1159.74 149.488 1159.35 161.236" stroke="#231F20" stroke-width="3.6" stroke-linecap="round"/>
<path d="M1164.89 147.824C1165.17 151.213 1163.91 153.907 1163.03 157.179C1162.55 158.963 1162.91 161.156 1161.67 162.598C1160.72 163.694 1160.02 161.903 1159.52 161.167C1158.02 158.954 1156.89 156.772 1154.91 154.913C1153.11 153.229 1151.81 151.202 1150.1 149.494" stroke="#231F20" stroke-width="3.6" stroke-linecap="round"/>
<path d="M1151.38 188.987C1151.38 185.4 1155.96 185.978 1158.53 185.978C1162.88 185.978 1163.42 188.283 1163.42 192.748C1163.42 202.939 1148.37 198.911 1148.37 208.544" stroke="#00ABEA" stroke-width="3.6" stroke-linecap="round"/>
<path d="M128.076 191.495C150.502 187.677 172.709 192.068 187.262 187.708" stroke="#231F20" stroke-width="3.6" stroke-linecap="round" stroke-dasharray="7.2 7.2"/>
<path d="M175.181 183.666C177.156 183.789 178.976 184.306 180.828 184.982C182.185 185.477 184.03 186.641 185.499 186.722C186.559 186.781 186.209 187.207 185.796 187.869C184.641 189.716 181.987 191.129 180.489 192.751C179.03 194.331 177.802 195.998 176.115 197.337C175.869 197.532 175.564 198.224 175.564 197.804" stroke="#231F20" stroke-width="3.6" stroke-linecap="round"/>
<path d="M766.7 164.851C769.58 164.131 785.6 181.351 793.25 190.051L766.7 218.85L741.95 190.051C748.7 187.352 763.1 165.751 766.7 164.851Z" fill="#00ABEA"/>
<path d="M1415.09 142.083C1374.91 139.112 1387 142.221 1297.09 147.157M1297.09 151.35C1298.23 170.11 1301.56 212.429 1298.65 223.211M1301.14 224.408C1337.66 228.063 1338.7 227.609 1410.4 229.347M1417.51 224.694C1418.72 210.461 1412.55 166.308 1417.51 147.157" stroke="#231F20" stroke-width="3.6" stroke-linecap="round"/>
<path d="M935.007 130.218C935.229 146.917 934.182 150.919 935.004 166.809" stroke="#231F20" stroke-width="3.6" stroke-linecap="round"/>
<path d="M958.558 101.063C954.296 93.4493 950.531 92.092 934 78.6606M933.602 79.7265C927.044 84.4602 918.738 90.6893 905.291 104.772C914.391 111.219 922.24 110.263 933.602 127.067M935.115 125.16C939.955 124.351 946.084 121.322 958.516 99.5885" stroke="#00ABEA" stroke-width="3.6" stroke-linecap="round"/>
<path d="M934.55 80.2498L957.95 100.5L945.8 118.95L933.65 124.8L906.65 104.1L934.55 80.2498Z" fill="#00ABEA"/>
<path d="M406.057 100.948C399.069 94.9582 390.038 90.8252 378.593 76.078M376.304 75.6899C377.222 84.3976 369.892 87.2341 351.715 105.684C359.47 111.688 367 113.001 377.816 131.156M380.6 128.85C385.041 127.029 388.112 117.271 406.056 103.2" stroke="#00ABEA" stroke-width="3.6" stroke-linecap="round"/>
<path d="M378.8 78L406.25 101.4L377.9 130.2L352.25 105.45L378.8 78Z" fill="#00ABEA"/>
<path d="M211.5 164C210.472 121.898 209.489 170.8 215.404 107.798M214 106.898C247.171 105.088 316.54 104.772 339.658 106.899" stroke="#231F20" stroke-width="3.6" stroke-linecap="round" stroke-dasharray="7.2 7.2"/>
<path d="M336.059 102C338.034 102.123 339.854 102.64 341.706 103.316C343.063 103.811 344.907 104.975 346.376 105.057C347.437 105.116 347.087 105.542 346.673 106.203C345.519 108.051 342.864 109.463 341.366 111.086C339.908 112.666 338.679 114.332 336.993 115.671C336.747 115.867 336.441 116.559 336.441 116.138" stroke="#231F20" stroke-width="3.6" stroke-linecap="round"/>
<path d="M387.807 155.446C386.823 156.954 385.36 158.305 384.086 159.579C383.45 160.214 381.518 161.513 381.419 162.452C381.394 162.691 381.031 164.263 380.847 163.894C380.71 163.622 380.843 163.248 380.789 162.956C380.608 161.955 379.899 160.957 379.473 160.048C378.552 158.085 376.988 155.96 375.444 154.416" stroke="#231F20" stroke-width="3.6" stroke-linecap="round"/>
<path d="M381.046 163.127C385.095 147.827 382.399 144.161 382.399 133.445" stroke="#231F20" stroke-width="3.6" stroke-linecap="round"/>
<path d="M47.5999 186.939C47.868 203.733 59.1895 228.103 89.6555 223.148M83.7168 222.915C101.713 221.624 122.435 210.905 121.36 186.782M119.834 186.939C117.377 162.749 104.788 155.461 83.7168 150.967M83.7168 150.964C66.7505 149.528 43.553 172.588 51.4645 182.702" stroke="#231F20" stroke-width="3.6" stroke-linecap="round"/>
<path d="M611.299 114.351C611.988 113.739 612.42 113.614 612.804 112.847" stroke="#00ABEA" stroke-width="3.6" stroke-linecap="round"/>
<path d="M412.097 101.419C445.885 99.0827 481.734 102.918 531.8 101.418" stroke="#231F20" stroke-width="3.6" stroke-linecap="round"/>
<path d="M520.663 95.687C522.162 95.9288 523.477 97.1167 524.765 97.8591C526.314 98.7509 527.913 99.5445 529.432 100.487C529.827 100.733 530.365 100.89 530.678 101.238C531.206 101.824 528.896 103.188 528.52 103.517C526.519 105.268 524.317 107.113 523.197 109.578C523.023 109.96 522.364 112.11 522.111 111.857" stroke="#231F20" stroke-width="3.6" stroke-linecap="round"/>
<path d="M603.638 86.5212C603.638 83.5978 603.76 82.554 606.061 80.6707C609.357 77.9745 614.46 79.7798 616.007 83.0945C617.926 87.2069 614.542 92.8334 611.202 95.1297C608.118 97.2495 608.151 98.8691 608.151 102.317" stroke="#00ABEA" stroke-width="3.6" stroke-linecap="round"/>
<path d="M649.479 75.4418C667.88 78.5453 687.253 82.0504 693.225 94.2954C699.347 106.849 685.587 115.542 667.096 119.394C639.881 125.065 604.736 124.923 576.634 121.515C554.796 118.867 531.859 110.608 535.857 96.0629C538.05 88.0843 553.701 77.798 565.549 74.1456C579.221 69.9308 596.219 69.9749 611.077 68.5484C623.187 67.3857 661.196 64.7246 671.75 68.5488" stroke="#00ABEA" stroke-width="3.6" stroke-linecap="round"/>
<path d="M1086.65 65.4148C1086.65 65.4148 1018.7 48.7638 962 97.9308" stroke="#231F20" stroke-width="3.6" stroke-linecap="round"/>
<path d="M1080.55 70.8627C1083.04 68.9847 1085.47 66.6994 1088.29 65.415C1089.31 64.9527 1083.86 62.084 1083.52 61.8769C1081.59 60.686 1079.7 59.4116 1077.73 58.3012C1077.63 58.2441 1076.17 57.3461 1076.46 57.7295" stroke="#231F20" stroke-width="3.6" stroke-linecap="round"/>
<path d="M1089.81 114.992C1094.18 91.7567 1089.59 43.4815 1089.81 32.2654C1145.34 34.9565 1176.51 27.1341 1211.94 31.844M1092.4 114.992C1144.04 118.104 1181.23 121.013 1214.9 114.992C1213.8 106.906 1213.16 56.7769 1214.16 34.9762" stroke="#231F20" stroke-width="3.6" stroke-linecap="round"/>
</g>
<defs>
<clipPath id="clip0_1736_8512">
<rect width="1440" height="254" fill="white" transform="matrix(-1 0 0 1 1440 0)"/>
</clipPath>
<clipPath id="clip1_1736_8512">
<rect width="23.4" height="25.2" fill="white" transform="matrix(0 -1 -1 0 226.9 202.1)"/>
</clipPath>
</defs>
</svg>
