<svg width="104" height="104" viewBox="0 0 104 104" fill="none" xmlns="http://www.w3.org/2000/svg">
<path fill-rule="evenodd" clip-rule="evenodd" d="M19.4317 28.8782C19.0654 28.8782 18.714 28.7326 18.455 28.4736C18.196 28.2146 18.0504 27.8632 18.0504 27.4969V18.6943C18.0504 18.3279 18.196 17.9766 18.455 17.7176C18.714 17.4586 19.0654 17.313 19.4317 17.313C19.798 17.313 20.1494 17.4586 20.4084 17.7176C20.6674 17.9766 20.813 18.3279 20.813 18.6943V27.4963C20.813 27.8626 20.6674 28.214 20.4084 28.473C20.1494 28.732 19.798 28.8775 19.4317 28.8775V28.8782ZM18.0504 13.5483V12.6308C18.0504 12.2645 18.196 11.9131 18.455 11.6541C18.714 11.3951 19.0654 11.2495 19.4317 11.2495C19.798 11.2495 20.1494 11.3951 20.4084 11.6541C20.6674 11.9131 20.813 12.2645 20.813 12.6308V13.5485C20.813 13.9148 20.6674 14.2662 20.4084 14.5252C20.1494 14.7842 19.798 14.9298 19.4317 14.9298C19.0654 14.9298 18.714 14.7842 18.455 14.5252C18.196 14.2662 18.0504 13.9146 18.0504 13.5483ZM9.91204 11.3535C7.72477 13.5358 6.36202 16.4091 6.05609 19.4837C5.75017 22.5583 6.51999 25.6438 8.23436 28.2143C9.94872 30.7848 12.5015 32.6812 15.4576 33.5802C18.4136 34.4793 21.59 34.3253 24.4452 33.1446C27.3005 31.9638 29.6578 29.8294 31.1155 27.1051C32.5732 24.3808 33.041 21.2353 32.4391 18.2048C31.8373 15.1742 30.203 12.4462 27.8149 10.4857C25.4268 8.5252 22.4327 7.4536 19.3429 7.45354C15.8069 7.45346 12.4152 8.85603 9.91204 11.3535ZM30.7273 32.169C33.3677 29.5345 35.0128 26.0658 35.382 22.3542C35.7513 18.6426 34.8219 14.9178 32.7523 11.8147C30.6827 8.71159 27.601 6.42231 24.0324 5.33704C20.4638 4.25177 16.6293 4.43769 13.1825 5.86312C9.73568 7.28855 6.88988 9.86526 5.13019 13.154C3.3705 16.4428 2.80585 20.24 3.53247 23.8985C4.2591 27.557 6.23202 30.8502 9.11496 33.2169C11.9979 35.5836 15.6124 36.8772 19.3423 36.8772C23.611 36.8773 27.7055 35.1841 30.7273 32.169ZM86.2775 16.6017L83.9995 22.694C83.8711 23.0372 83.8844 23.4173 84.0363 23.7507C84.1882 24.084 84.4663 24.3434 84.8095 24.4718C85.1527 24.6001 85.5328 24.5868 85.8662 24.4349C86.1995 24.283 86.4589 24.0049 86.5873 23.6617L90.3292 13.6525C90.4056 13.4495 90.433 13.2313 90.4093 13.0157C90.3855 12.8001 90.3113 12.5931 90.1926 12.4116C90.0738 12.23 89.914 12.079 89.726 11.9708C89.538 11.8626 89.3271 11.8003 89.1105 11.7888L78.0075 11.1807C77.6416 11.1605 77.2828 11.2865 77.0098 11.531C76.7369 11.7754 76.5722 12.1183 76.5521 12.4841C76.5319 12.85 76.6579 13.2088 76.9024 13.4818C77.1468 13.7547 77.4897 13.9194 77.8555 13.9395L84.7212 14.3159C63.2466 28.0287 39.071 39.711 12.8025 49.0625C12.4572 49.1854 12.1749 49.4404 12.0177 49.7714C11.8604 50.1024 11.8411 50.4824 11.964 50.8276C12.0869 51.1729 12.3419 51.4552 12.6729 51.6125C13.004 51.7697 13.3839 51.789 13.7292 51.6661C40.2213 42.2355 64.6085 30.4451 86.2775 16.6017ZM33.8796 96.5454H18.7648V70.4361L26.3223 64.6399L33.8796 70.4361V96.5454ZM36.1022 68.6584L27.163 61.8021C26.9218 61.617 26.6263 61.5167 26.3222 61.5167C26.0182 61.5167 25.7226 61.617 25.4814 61.8021L16.5422 68.6584C16.374 68.7874 16.2376 68.9535 16.1439 69.1437C16.0501 69.3339 16.0014 69.5432 16.0015 69.7552V97.9266C16.0015 98.293 16.1471 98.6443 16.4061 98.9033C16.6651 99.1624 17.0164 99.3079 17.3828 99.3079H35.2608C35.6272 99.3079 35.9785 99.1624 36.2375 98.9033C36.4966 98.6443 36.6421 98.293 36.6421 97.9266V69.7532C36.6422 69.5411 36.5935 69.3319 36.4997 69.1417C36.406 68.9514 36.2696 68.7854 36.1014 68.6563L36.1022 68.6584ZM65.9339 96.5454H50.8182V53.9964L58.3754 48.2002L65.9339 53.9964V96.5454ZM68.1563 52.219C68.3246 52.3481 68.461 52.5141 68.5548 52.7043C68.6486 52.8946 68.6973 53.1038 68.6972 53.3159V97.9266C68.6972 98.293 68.5517 98.6443 68.2927 98.9033C68.0336 99.1624 67.6823 99.3079 67.316 99.3079H49.4377C49.0714 99.3079 48.7201 99.1624 48.461 98.9033C48.202 98.6443 48.0565 98.293 48.0565 97.9266V53.3155C48.0564 53.1034 48.1051 52.8942 48.1989 52.7039C48.2927 52.5137 48.4291 52.3477 48.5974 52.2186L57.5361 45.363C57.7774 45.1778 58.073 45.0774 58.3772 45.0774C58.6813 45.0774 58.9769 45.1778 59.2182 45.363L68.1571 52.2188L68.1563 52.219ZM97.987 96.5454H82.8725V35.0913L90.4288 29.2948L97.987 35.0913V96.5454ZM100.209 33.3126C100.377 33.4416 100.513 33.6077 100.607 33.7979C100.701 33.9881 100.75 34.1974 100.75 34.4095V97.9266C100.75 98.293 100.604 98.6443 100.345 98.9033C100.086 99.1624 99.7346 99.3079 99.3683 99.3079H81.4913C81.1249 99.3079 80.7736 99.1624 80.5146 98.9033C80.2555 98.6443 80.11 98.293 80.11 97.9266V34.4095C80.1099 34.1974 80.1586 33.9881 80.2524 33.7979C80.3461 33.6077 80.4824 33.4416 80.6507 33.3126L89.5882 26.4569C89.8295 26.2718 90.1251 26.1714 90.4292 26.1714C90.7333 26.1714 91.0289 26.2718 91.2701 26.4569L100.209 33.3126Z" fill="white"/>
<path fill-rule="evenodd" clip-rule="evenodd" d="M33.8794 96.5452V70.4363L26.3221 64.6401L18.7646 70.4363V96.5452H33.8794Z" fill="#00ABEA"/>
<path fill-rule="evenodd" clip-rule="evenodd" d="M82.8721 35.0915V96.5451H97.9858V35.0915L90.4279 29.2949L82.8721 35.0915Z" fill="#00ABEA"/>
</svg>
