<svg width="104" height="104" viewBox="0 0 104 104" fill="none" xmlns="http://www.w3.org/2000/svg">
<path fill-rule="evenodd" clip-rule="evenodd" d="M87.2163 50.5751C85.086 50.5751 83.0036 49.9434 81.2323 48.7598C79.4611 47.5763 78.0806 45.8941 77.2654 43.926C76.4502 41.9579 76.2369 39.7922 76.6525 37.7029C77.0681 35.6135 78.094 33.6944 79.6003 32.188C81.1066 30.6817 83.0258 29.6559 85.1151 29.2403C87.2045 28.8247 89.3701 29.038 91.3382 29.8532C93.3063 30.6684 94.9885 32.0489 96.1721 33.8201C97.3556 35.5913 97.9873 37.6738 97.9874 39.804C97.9843 42.6596 96.8485 45.3974 94.8294 47.4167C92.8102 49.436 90.0725 50.5719 87.2169 50.5751H87.2163ZM87.2163 26.2702C84.5395 26.2701 81.9228 27.0638 79.697 28.5509C77.4713 30.038 75.7366 32.1517 74.7122 34.6248C73.6877 37.0978 73.4197 39.819 73.9419 42.4444C74.4641 45.0698 75.753 47.4814 77.6458 49.3742C79.5386 51.267 81.9501 52.556 84.5755 53.0782C87.2008 53.6004 89.9221 53.3324 92.3951 52.308C94.8682 51.2836 96.9819 49.5489 98.4691 47.3232C99.9562 45.0975 100.75 42.4808 100.75 39.804C100.746 36.2159 99.3189 32.7758 96.7817 30.2385C94.2445 27.7013 90.8044 26.2741 87.2163 26.2702ZM91.6708 37.3029C91.9298 37.0438 92.0753 36.6925 92.0753 36.3261C92.0753 35.9597 91.9297 35.6083 91.6706 35.3493C91.4115 35.0902 91.0601 34.9447 90.6937 34.9448C90.3273 34.9448 89.976 35.0904 89.7169 35.3495L87.2163 37.8502L84.7156 35.3495C84.5873 35.2212 84.4351 35.1194 84.2675 35.05C84.0999 34.9805 83.9202 34.9448 83.7388 34.9448C83.5574 34.9448 83.3778 34.9805 83.2101 35.0499C83.0425 35.1193 82.8902 35.221 82.7619 35.3493C82.6336 35.4776 82.5319 35.6298 82.4624 35.7974C82.393 35.965 82.3572 36.1447 82.3572 36.3261C82.3572 36.5075 82.3929 36.6871 82.4623 36.8547C82.5317 37.0224 82.6335 37.1747 82.7617 37.3029L85.2624 39.804L82.7617 42.3049C82.5027 42.564 82.3571 42.9155 82.3572 43.2819C82.3572 43.6483 82.5028 43.9997 82.7619 44.2588C83.0211 44.5178 83.3725 44.6634 83.7389 44.6633C84.1053 44.6633 84.4567 44.5177 84.7158 44.2586L87.2163 41.7579L89.7169 44.259C89.9761 44.5181 90.3276 44.6636 90.6941 44.6635C91.0606 44.6635 91.412 44.5178 91.6711 44.2587C91.9302 43.9995 92.0757 43.648 92.0757 43.2815C92.0756 42.915 91.93 42.5636 91.6708 42.3045L89.1703 39.804L91.6708 37.3029ZM16.7559 49.6639C14.631 49.6636 12.554 49.0332 10.7874 47.8525C9.02086 46.6718 7.64407 44.9937 6.83115 43.0305C6.01824 41.0674 5.80571 38.9072 6.22044 36.8232C6.63517 34.7393 7.65853 32.8251 9.16113 31.3227C10.6637 29.8203 12.5781 28.7973 14.6621 28.3829C16.7461 27.9684 18.9062 28.1813 20.8693 28.9945C22.8324 29.8077 24.5102 31.1848 25.6907 32.9515C26.8711 34.7183 27.5012 36.7954 27.5012 38.9202C27.498 41.7689 26.3648 44.5 24.3503 46.5142C22.3358 48.5284 19.6046 49.6612 16.7559 49.6639ZM16.7559 25.413C14.0843 25.413 11.4727 26.2052 9.25133 27.6895C7.02998 29.1738 5.29865 31.2834 4.27627 33.7516C3.2539 36.2199 2.9864 38.9358 3.5076 41.5561C4.0288 44.1763 5.3153 46.5832 7.2044 48.4723C9.0935 50.3614 11.5004 51.6479 14.1206 52.1691C16.7409 52.6903 19.4568 52.4228 21.9251 51.4004C24.3933 50.3781 26.5029 48.6467 27.9872 46.4254C29.4715 44.204 30.2637 41.5924 30.2637 38.9208C30.2598 35.3395 28.8354 31.906 26.3031 29.3736C23.7707 26.8413 20.3372 25.4169 16.7559 25.413ZM23.4171 34.134C23.1579 33.8751 22.8065 33.7297 22.4401 33.7297C22.0737 33.7297 21.7223 33.8751 21.4631 34.134L14.8209 40.7762L12.0505 38.0031C11.9222 37.8748 11.7699 37.7731 11.6023 37.7037C11.4347 37.6342 11.2551 37.5985 11.0736 37.5985C10.8922 37.5985 10.7126 37.6342 10.545 37.7037C10.3774 37.7731 10.2251 37.8748 10.0968 38.0031C9.96854 38.1314 9.86678 38.2837 9.79736 38.4513C9.72793 38.6189 9.6922 38.7985 9.6922 38.9799C9.6922 39.1614 9.72793 39.341 9.79736 39.5086C9.86678 39.6762 9.96854 39.8285 10.0968 39.9568L13.8447 43.7063C13.9729 43.8346 14.1253 43.9365 14.2929 44.0059C14.4605 44.0754 14.6402 44.1112 14.8217 44.1112C15.0032 44.1112 15.1829 44.0754 15.3505 44.0059C15.5182 43.9365 15.6705 43.8346 15.7987 43.7063L23.4169 36.0891C23.5455 35.9609 23.6475 35.8086 23.7172 35.641C23.7868 35.4733 23.8226 35.2936 23.8226 35.112C23.8226 34.9305 23.7868 34.7507 23.7172 34.5831C23.6475 34.4154 23.5455 34.2632 23.4169 34.135L23.4171 34.134ZM72.3229 80.7106C72.3211 82.1051 71.7662 83.442 70.7799 84.428C69.7937 85.414 68.4566 85.9685 67.062 85.9699H65.2879V75.6495C65.2879 75.283 65.1423 74.9316 64.8832 74.6724C64.6241 74.4133 64.2726 74.2677 63.9062 74.2677C63.5397 74.2677 63.1882 74.4133 62.9291 74.6724C62.67 74.9316 62.5244 75.283 62.5244 75.6495V85.9703H41.4743V75.6495C41.4743 75.2832 41.3288 74.9318 41.0698 74.6728C40.8108 74.4138 40.4594 74.2682 40.0931 74.2682C39.7268 74.2682 39.3754 74.4138 39.1164 74.6728C38.8574 74.9318 38.7118 75.2832 38.7118 75.6495V85.9703H36.9373C35.543 85.9687 34.2061 85.4141 33.2201 84.4282C32.234 83.4423 31.6793 82.1055 31.6774 80.7112V57.0636C31.6804 54.4238 32.7304 51.893 34.5971 50.0265C36.4638 48.16 38.9947 47.1103 41.6344 47.1076H42.0906C41.8572 47.7254 41.7647 48.3875 41.82 49.0456C41.8753 49.7037 42.0769 50.3411 42.4101 50.9113L48.1161 60.7913C48.5096 61.4733 49.0758 62.0396 49.7576 62.4334C50.4394 62.8272 51.2129 63.0345 52.0003 63.0345C52.7877 63.0345 53.5611 62.8272 54.243 62.4334C54.9248 62.0396 55.4909 61.4733 55.8844 60.7913L61.5904 50.9107C61.9238 50.3406 62.1255 49.7033 62.1808 49.0452C62.2361 48.3872 62.1436 47.7251 61.9101 47.1074H62.366C65.0058 47.1101 67.5368 48.16 69.4035 50.0265C71.2703 51.8931 72.3203 54.4239 72.3233 57.0638V80.7112L72.3229 80.7106ZM59.1962 47.8067C59.0284 47.5028 58.7704 47.2584 58.4578 47.1074H45.5419C45.2293 47.2582 44.9713 47.5026 44.8038 47.8065C44.6441 48.0654 44.5595 48.3636 44.5595 48.6678C44.5595 48.972 44.6441 49.2702 44.8038 49.529L50.5075 59.4097C50.6588 59.6716 50.8763 59.889 51.1382 60.0402C51.4001 60.1914 51.6972 60.271 51.9997 60.271C52.3021 60.271 52.5992 60.1914 52.8611 60.0402C53.1231 59.889 53.3406 59.6716 53.4918 59.4097L59.1958 49.5297C59.3554 49.2707 59.4399 48.9724 59.4399 48.6682C59.4399 48.364 59.3554 48.0657 59.1958 47.8067H59.1962ZM62.3649 44.3443C65.7373 44.3479 68.9705 45.6891 71.3553 48.0736C73.74 50.4581 75.0815 53.6912 75.0854 57.0636V80.7114C75.0828 82.8384 74.2366 84.8775 72.7324 86.3815C71.2283 87.8854 69.189 88.7313 67.062 88.7336H36.9367C34.8095 88.7312 32.7701 87.8851 31.2659 86.381C29.7617 84.8768 28.9157 82.8374 28.9133 80.7101V57.0638C28.9172 53.6914 30.2586 50.4583 32.6433 48.0737C35.028 45.6892 38.2612 44.3479 41.6336 44.3443H62.3649ZM51.9999 18.029C53.8089 18.029 55.5773 18.5654 57.0814 19.5704C58.5856 20.5754 59.758 22.0038 60.4503 23.6751C61.1426 25.3464 61.3238 27.1855 60.9709 28.9597C60.618 30.734 59.7469 32.3638 58.4678 33.643C57.1887 34.9222 55.5589 35.7933 53.7847 36.1463C52.0104 36.4992 50.1714 36.3181 48.5 35.6259C46.8287 34.9337 45.4002 33.7614 44.3951 32.2572C43.3901 30.7531 42.8536 28.9848 42.8536 27.1757C42.8563 24.7508 43.8207 22.4259 45.5354 20.7111C47.2501 18.9964 49.5749 18.0318 51.9999 18.029ZM51.9999 39.085C54.3553 39.085 56.6579 38.3865 58.6164 37.0778C60.5749 35.7692 62.1014 33.9092 63.0028 31.733C63.9042 29.5569 64.14 27.1623 63.6804 24.8521C63.2209 22.5418 62.0866 20.4198 60.421 18.7542C58.7555 17.0887 56.6334 15.9544 54.3232 15.4949C52.0129 15.0354 49.6184 15.2713 47.4422 16.1727C45.266 17.0742 43.4061 18.6006 42.0975 20.5592C40.7889 22.5177 40.0904 24.8203 40.0905 27.1757C40.0942 30.3331 41.3502 33.3601 43.5828 35.5927C45.8155 37.8253 48.8425 39.0813 51.9999 39.085Z" fill="white"/>
<path fill-rule="evenodd" clip-rule="evenodd" d="M51.9996 36.3218C53.8087 36.3219 55.5771 35.7856 57.0813 34.7806C58.5855 33.7756 59.7579 32.3471 60.4502 30.6758C61.1425 29.0045 61.3237 27.1654 60.9708 25.3911C60.6179 23.6168 59.7468 21.987 58.4677 20.7078C57.1885 19.4286 55.5587 18.5575 53.7844 18.2046C52.0102 17.8516 50.1711 18.0328 48.4998 18.7251C46.8284 19.4174 45.3999 20.5897 44.3949 22.0939C43.3899 23.5981 42.8535 25.3665 42.8535 27.1755C42.8564 29.6004 43.8209 31.9251 45.5355 33.6397C47.2501 35.3544 49.5748 36.3189 51.9996 36.3218Z" fill="#00ABEA"/>
<path fill-rule="evenodd" clip-rule="evenodd" d="M61.5898 50.9105L55.8838 60.7911C55.4903 61.473 54.9241 62.0394 54.2423 62.4332C53.5605 62.8269 52.787 63.0342 51.9996 63.0342C51.2122 63.0342 50.4388 62.8269 49.7569 62.4332C49.0751 62.0394 48.509 61.473 48.1155 60.7911L42.4095 50.9111C42.0762 50.3409 41.8746 49.7035 41.8193 49.0454C41.764 48.3873 41.8565 47.7251 42.09 47.1073H41.6337C38.994 47.11 36.4631 48.1598 34.5964 50.0263C32.7297 51.8928 31.6797 54.4236 31.6768 57.0633V80.7111C31.6786 82.1055 32.2334 83.4422 33.2194 84.4281C34.2055 85.414 35.5423 85.9686 36.9367 85.9702H38.7112V75.6492C38.7112 75.2829 38.8567 74.9316 39.1157 74.6726C39.3748 74.4135 39.7261 74.268 40.0924 74.268C40.4588 74.268 40.8101 74.4135 41.0691 74.6726C41.3282 74.9316 41.4737 75.2829 41.4737 75.6492V85.97H62.5253V75.6492C62.5253 75.2828 62.6709 74.9313 62.9301 74.6722C63.1892 74.4131 63.5406 74.2675 63.9071 74.2675C64.2736 74.2675 64.625 74.4131 64.8842 74.6722C65.1433 74.9313 65.2889 75.2828 65.2889 75.6492V85.97H67.063C68.4575 85.9686 69.7946 85.4141 70.7809 84.4282C71.7672 83.4422 72.3221 82.1053 72.3239 80.7107V57.0633C72.3209 54.4235 71.2708 51.8926 69.4041 50.0261C67.5373 48.1595 65.0063 47.1097 62.3665 47.1069H61.9107C62.144 47.7248 62.2363 48.3869 62.1808 49.045C62.1253 49.7031 61.9233 50.3405 61.5898 50.9105Z" fill="#00ABEA"/>
</svg>
