<svg width="104" height="104" viewBox="0 0 104 104" fill="none" xmlns="http://www.w3.org/2000/svg">
<path fill-rule="evenodd" clip-rule="evenodd" d="M30.0824 30.7017L33.7317 27.9033L37.3811 30.7017V47.5631H30.0824V30.7017ZM28.7011 50.3262H38.7629C38.9443 50.3262 39.1239 50.2905 39.2915 50.2211C39.4591 50.1517 39.6114 50.0499 39.7396 49.9217C39.8679 49.7934 39.9696 49.6412 40.0391 49.4736C40.1085 49.306 40.1442 49.1264 40.1442 48.945V30.0207C40.1444 29.8085 40.0957 29.5992 40.0019 29.409C39.9081 29.2188 39.7717 29.0527 39.6033 28.9238L34.5729 25.0644C34.3316 24.8793 34.036 24.7789 33.7319 24.7789C33.4278 24.7789 33.1322 24.8793 32.891 25.0644L27.8604 28.925C27.6921 29.054 27.5557 29.2201 27.4619 29.4103C27.3681 29.6005 27.3194 29.8098 27.3195 30.0219V48.946C27.3195 49.1274 27.3552 49.307 27.4246 49.4746C27.494 49.6422 27.5958 49.7944 27.724 49.9227C27.8523 50.051 28.0046 50.1527 28.1722 50.2221C28.3397 50.2915 28.5194 50.3273 28.7007 50.3273L28.7011 50.3262ZM47.0287 17.8141L50.6778 15.0152L54.3272 17.8141V47.5631H47.0287V17.8141ZM45.6475 50.326H55.7086C55.89 50.326 56.0696 50.2903 56.2372 50.2209C56.4048 50.1515 56.5571 50.0497 56.6853 49.9215C56.8136 49.7932 56.9153 49.641 56.9848 49.4734C57.0542 49.3058 57.0899 49.1262 57.0899 48.9448V17.1332C57.0901 16.9211 57.0415 16.7118 56.9477 16.5216C56.8539 16.3313 56.7175 16.1653 56.5492 16.0363L51.5188 12.1769C51.2775 11.9917 50.9819 11.8914 50.6777 11.8914C50.3736 11.8914 50.078 11.9917 49.8367 12.1769L44.8061 16.0363C44.6381 16.1657 44.502 16.3318 44.4083 16.5219C44.3145 16.7121 44.2656 16.9212 44.2652 17.1332V48.9448C44.2655 49.311 44.4111 49.6622 44.6701 49.9211C44.9291 50.1801 45.2802 50.3257 45.6464 50.326H45.6475ZM63.9771 21.9436L67.6264 19.1449L71.2753 21.944V47.5631H63.9771V21.9436ZM62.5958 50.326H72.6574C72.8388 50.326 73.0184 50.2903 73.186 50.2209C73.3536 50.1515 73.5058 50.0497 73.6341 49.9215C73.7623 49.7932 73.8641 49.641 73.9335 49.4734C74.0029 49.3058 74.0386 49.1262 74.0386 48.9448V21.2625C74.0388 21.0504 73.9901 20.8411 73.8963 20.6508C73.8024 20.4606 73.666 20.2946 73.4975 20.1656L68.4667 16.3063C68.2255 16.1212 67.9299 16.0208 67.6259 16.0208C67.3218 16.0208 67.0263 16.1212 66.7851 16.3063L61.7543 20.1656C61.586 20.2947 61.4497 20.4608 61.3559 20.651C61.2621 20.8412 61.2134 21.0504 61.2135 21.2625V48.9448C61.2135 49.1262 61.2493 49.3058 61.3187 49.4734C61.3881 49.641 61.4898 49.7932 61.6181 49.9215C61.7464 50.0497 61.8986 50.1515 62.0662 50.2209C62.2338 50.2903 62.4134 50.326 62.5948 50.326H62.5958ZM80.9221 12.7057L84.5715 9.90681L88.2204 12.7053V47.5631H80.9221V12.7057ZM79.5409 50.3262H89.6027C89.7841 50.3262 89.9637 50.2905 90.1313 50.2211C90.2989 50.1517 90.4511 50.0499 90.5794 49.9217C90.7076 49.7934 90.8094 49.6412 90.8788 49.4736C90.9482 49.306 90.9839 49.1264 90.9839 48.945V12.0244C90.9842 11.8123 90.9355 11.6029 90.8416 11.4127C90.7478 11.2224 90.6113 11.0564 90.4428 10.9275L85.4122 7.06813C85.171 6.88304 84.8754 6.78271 84.5714 6.78271C84.2673 6.78271 83.9718 6.88304 83.7305 7.06813L78.6996 10.9281C78.5313 11.0572 78.395 11.2232 78.3012 11.4135C78.2074 11.6037 78.1587 11.8129 78.1588 12.025V48.9456C78.1588 49.3119 78.3044 49.6633 78.5634 49.9223C78.8224 50.1813 79.1738 50.3269 79.5401 50.3269L79.5409 50.3262ZM15.3891 71.5609C15.5723 71.8784 15.6219 72.2557 15.5269 72.6097C15.4319 72.9637 15.2002 73.2655 14.8827 73.4487C14.5652 73.6318 14.1879 73.6814 13.8339 73.5864C13.4799 73.4914 13.1781 73.2597 12.9949 72.9422L11.061 69.5906C10.9661 69.4334 10.9035 69.2588 10.8768 69.0771C10.8502 68.8954 10.8601 68.7103 10.9059 68.5324C10.9516 68.3546 11.0324 68.1877 11.1435 68.0414C11.2546 67.8952 11.3937 67.7725 11.5527 67.6807C11.7118 67.5889 11.8875 67.5297 12.0697 67.5066C12.2519 67.4834 12.4368 67.4969 12.6137 67.5461C12.7907 67.5954 12.956 67.6794 13.1 67.7933C13.2441 67.9071 13.364 68.0486 13.4528 68.2094L15.3891 71.5609ZM97.9826 64.4516C97.8914 66.1842 96.4959 67.7572 94.0487 68.8797C94.0018 68.901 93.9564 68.9253 93.9126 68.9524L63.7753 87.1256C63.7672 87.1301 63.7611 87.1347 63.7532 87.1394C60.9095 88.9297 57.8323 89.2074 54.3447 87.9889C54.3152 87.9781 54.2837 87.9686 54.2539 87.9608L34.725 82.5951C34.5061 82.5342 34.3537 82.4819 34.2194 82.4348C33.2071 82.0804 32.7352 82.2798 31.9024 82.8183L30.6217 83.6463L20.4768 66.0743L33.8288 58.0072C35.9781 56.8455 40.3951 56.7143 45.6586 57.657C50.9328 58.602 56.1468 60.449 59.6084 62.598C62.2099 64.2137 63.61 65.8627 63.5539 67.2405C63.4985 68.5088 62.1782 69.8486 59.7328 71.1202C56.5532 70.8587 52.1322 69.9369 45.9903 67.9142C45.6423 67.7996 45.263 67.8279 44.9359 67.9929C44.6087 68.1579 44.3605 68.4461 44.2459 68.7942C44.1313 69.1422 44.1596 69.5215 44.3246 69.8486C44.4896 70.1758 44.7778 70.424 45.1258 70.5386C56.9883 74.4451 64.5604 74.9913 68.2727 72.2061L88.4715 61.2016C88.4948 61.1892 88.5166 61.1762 88.5381 61.1626C90.9801 59.6483 93.6569 59.4659 95.7066 60.6751C97.1849 61.5485 98.0574 62.996 97.9816 64.4514L97.9826 64.4516ZM28.6382 90.9663C29.2381 90.6191 29.6759 90.0482 29.8554 89.3787C30.0348 88.7092 29.9414 87.9958 29.5955 87.3951L16.3223 64.4075C15.9737 63.8094 15.403 63.3733 14.7343 63.1941C14.0657 63.0149 13.3533 63.1072 12.7524 63.4508L7.31859 66.5882C6.72017 66.9368 6.28378 67.5078 6.10454 68.1767C5.92529 68.8456 6.01771 69.5583 6.36166 70.1594L19.6341 93.147C19.9827 93.7454 20.5536 94.1816 21.2225 94.3609C21.8914 94.5401 22.604 94.4476 23.205 94.1037L28.6382 90.9663ZM97.1122 58.2969C94.1732 56.5606 90.439 56.7476 87.1152 58.7945L66.858 69.8311C66.7913 69.867 66.7278 69.9085 66.6683 69.9552C66.096 70.3787 65.4442 70.6827 64.752 70.849C65.7349 69.7606 66.2616 68.5943 66.313 67.3579C66.4196 64.8694 64.6533 62.4784 61.0651 60.2509C53.3995 55.4909 38.4016 52.3463 32.4766 55.5984C32.4594 55.6073 32.4431 55.617 32.4273 55.627L19.0954 63.6811L18.7167 63.0258C18.0012 61.7932 16.8266 60.8941 15.4499 60.5253C14.0732 60.1564 12.6064 60.3479 11.3705 61.0577L5.93713 64.195C4.70444 64.9103 3.8053 66.0848 3.4365 67.4615C3.06769 68.8382 3.25925 70.3049 3.96926 71.5406L17.24 94.5287C17.5924 95.1406 18.0624 95.6766 18.6231 96.1059C19.1837 96.5351 19.8238 96.849 20.5065 97.0295C20.9654 97.1527 21.4385 97.2154 21.9137 97.216C22.8523 97.2158 23.7742 96.9677 24.586 96.4968L30.0196 93.3593C31.2484 92.6478 32.1463 91.4797 32.5178 90.1093C32.8892 88.7388 32.7042 87.2772 32.0029 86.0425L33.4025 85.1392C33.4185 85.1285 33.4399 85.1144 33.4654 85.0986C33.6019 85.1449 33.7774 85.2002 33.9926 85.2611L53.4785 90.6143C55.0591 91.181 56.7236 91.4783 58.4027 91.4938C60.8185 91.4909 63.1825 90.7941 65.2137 89.4863L95.2746 71.3578C99.8339 69.2376 100.657 66.2139 100.741 64.5937C100.87 62.1087 99.4782 59.6956 97.1122 58.2969Z" fill="white"/>
<path fill-rule="evenodd" clip-rule="evenodd" d="M29.5944 87.395L16.3219 64.4073C15.9733 63.8092 15.4025 63.3731 14.7339 63.194C14.0652 63.0148 13.3529 63.107 12.7519 63.4506L7.31813 66.5881C6.71972 66.9366 6.28333 67.5076 6.10408 68.1765C5.92484 68.8454 6.01726 69.5581 6.36121 70.1592L19.6336 93.1468C19.9822 93.7452 20.5531 94.1815 21.222 94.3607C21.8909 94.5399 22.6035 94.4475 23.2045 94.1036L28.6377 90.9661C29.2377 90.619 29.6754 90.048 29.8549 89.3785C30.0344 88.709 29.9409 87.9956 29.5951 87.395H29.5944ZM12.9945 72.942L11.0605 69.5904C10.9656 69.4332 10.903 69.2587 10.8764 69.077C10.8498 68.8953 10.8596 68.7101 10.9054 68.5322C10.9512 68.3544 11.032 68.1875 11.1431 68.0412C11.2541 67.895 11.3932 67.7724 11.5523 67.6805C11.7113 67.5887 11.887 67.5295 12.0692 67.5064C12.2514 67.4833 12.4364 67.4967 12.6133 67.546C12.7902 67.5952 12.9555 67.6792 13.0996 67.7931C13.2437 67.907 13.3636 68.0484 13.4523 68.2092L15.3887 71.5608C15.5719 71.8782 15.6214 72.2555 15.5264 72.6095C15.4314 72.9635 15.1997 73.2653 14.8822 73.4485C14.5647 73.6317 14.1875 73.6812 13.8334 73.5862C13.4794 73.4912 13.1776 73.2595 12.9945 72.942Z" fill="#00ABEA"/>
<path fill-rule="evenodd" clip-rule="evenodd" d="M30.082 47.5632H37.3807V30.7018L33.7314 27.9033L30.082 30.7018V47.5632Z" fill="#00ABEA"/>
<path fill-rule="evenodd" clip-rule="evenodd" d="M63.9756 21.9437V47.563H71.2739V21.9441L67.6249 19.145L63.9756 21.9437Z" fill="#00ABEA"/>
</svg>
