<svg width="104" height="104" viewBox="0 0 104 104" fill="none" xmlns="http://www.w3.org/2000/svg">
<path fill-rule="evenodd" clip-rule="evenodd" d="M58.3137 74.0187C57.0506 75.2822 55.7746 76.571 54.5418 77.8172C53.3125 79.0607 52.0391 80.3465 50.782 81.6051C50.602 81.7845 50.3582 81.8852 50.1041 81.8852C49.8499 81.8852 49.6061 81.7845 49.4261 81.6051C48.8777 81.0554 48.3089 80.4156 47.7071 79.7379C47.0599 79.0067 46.3886 78.2513 45.686 77.5485C45.5101 77.3679 45.4125 77.1253 45.4142 76.8732C45.4159 76.6211 45.5168 76.3799 45.695 76.2016C45.8733 76.0234 46.1146 75.9225 46.3666 75.9209C46.6187 75.9192 46.8613 76.0169 47.0418 76.1928L49.2608 78.4128C49.389 78.541 49.5413 78.6428 49.7089 78.7122C49.8765 78.7816 50.0561 78.8173 50.2375 78.8173C50.4189 78.8173 50.5985 78.7816 50.7661 78.7122C50.9337 78.6428 51.086 78.541 51.2142 78.4128L56.9627 72.6643C57.1439 72.4881 57.3867 72.3895 57.6395 72.3895C57.8923 72.3895 58.1351 72.4881 58.3163 72.6643C58.4938 72.8448 58.5931 73.0879 58.5927 73.341C58.5924 73.5941 58.4924 73.8369 58.3145 74.0169L58.3137 74.0187ZM55.008 70.7121L50.2376 75.4823L48.9943 74.2389C48.2962 73.5412 47.3496 73.1494 46.3626 73.1496C45.3756 73.1499 44.4291 73.5422 43.7314 74.2403C43.0337 74.9383 42.6419 75.885 42.6421 76.872C42.6423 77.8589 43.0347 78.8054 43.7327 79.5031C44.3764 80.1474 45.0195 80.8722 45.6421 81.5726C46.2718 82.2821 46.8657 82.9522 47.4737 83.5597C48.1722 84.2567 49.1187 84.6481 50.1055 84.6481C51.0922 84.6481 52.0387 84.2567 52.7373 83.5597C54.0009 82.2963 55.2763 81.0077 56.5091 79.7613C57.739 78.5174 59.0118 77.2318 60.2689 75.9732C60.9666 75.2758 61.3586 74.3297 61.3587 73.3432C61.3589 72.3568 60.9671 71.4106 60.2696 70.713C59.5722 70.0153 58.6262 69.6233 57.6397 69.6232C56.6532 69.6231 55.7071 70.0148 55.0094 70.7123L55.008 70.7121ZM51.9999 90.7542C54.6934 90.7542 57.3263 89.9555 59.5659 88.4591C61.8054 86.9627 63.5509 84.8358 64.5816 82.3474C65.6124 79.8589 65.882 77.1207 65.3565 74.479C64.8311 71.8373 63.534 69.4108 61.6295 67.5062C59.7249 65.6017 57.2983 64.3047 54.6566 63.7792C52.0149 63.2538 49.2767 63.5235 46.7883 64.5543C44.2999 65.5851 42.173 67.3306 40.6766 69.5701C39.1802 71.8097 38.3816 74.4427 38.3816 77.1361C38.3856 80.7467 39.8217 84.2082 42.3747 86.7612C44.9278 89.3143 48.3894 90.7503 51.9999 90.7542ZM51.9999 60.7547C48.7599 60.7547 45.5927 61.7155 42.8988 63.5155C40.2048 65.3155 38.1052 67.874 36.8653 70.8673C35.6254 73.8607 35.301 77.1545 35.9331 80.3322C36.5652 83.5099 38.1254 86.4289 40.4164 88.7199C42.7074 91.0109 45.6263 92.5711 48.804 93.2032C51.9817 93.8353 55.2755 93.5108 58.2689 92.271C61.2622 91.0311 63.8207 88.9314 65.6207 86.2375C67.4208 83.5435 68.3815 80.3763 68.3815 77.1363C68.3768 72.7931 66.6493 68.6292 63.5782 65.558C60.5071 62.4869 56.3431 60.7595 51.9999 60.7547ZM76.0702 51.4778C76.0702 51.6592 76.0345 51.8388 75.9651 52.0063C75.8957 52.1739 75.7939 52.3262 75.6657 52.4545C75.5374 52.5827 75.3851 52.6845 75.2176 52.7539C75.05 52.8233 74.8704 52.859 74.689 52.859H27.6172C27.2509 52.859 26.8995 52.7135 26.6405 52.4545C26.3815 52.1954 26.236 51.8441 26.236 51.4778C26.236 51.1114 26.3815 50.7601 26.6405 50.5011C26.8995 50.242 27.2509 50.0965 27.6172 50.0965H74.6896C74.871 50.0965 75.0506 50.1322 75.2182 50.2017C75.3858 50.2711 75.538 50.3728 75.6663 50.5011C75.7945 50.6293 75.8963 50.7816 75.9657 50.9492C76.0351 51.1168 76.0708 51.2964 76.0708 51.4778H76.0702ZM76.0702 38.4516C76.0702 38.6329 76.0345 38.8126 75.9651 38.9801C75.8957 39.1477 75.7939 39.3 75.6657 39.4283C75.5374 39.5565 75.3851 39.6583 75.2176 39.7277C75.05 39.7971 74.8704 39.8328 74.689 39.8328H27.6172C27.4358 39.8328 27.2562 39.7971 27.0886 39.7277C26.921 39.6583 26.7688 39.5565 26.6405 39.4283C26.5122 39.3 26.4105 39.1477 26.3411 38.9801C26.2717 38.8126 26.236 38.6329 26.236 38.4516C26.236 38.2702 26.2717 38.0906 26.3411 37.923C26.4105 37.7554 26.5122 37.6031 26.6405 37.4749C26.7688 37.3466 26.921 37.2449 27.0886 37.1755C27.2562 37.106 27.4358 37.0703 27.6172 37.0703H74.689C74.8704 37.0703 75.05 37.106 75.2176 37.1755C75.3851 37.2449 75.5374 37.3466 75.6657 37.4749C75.7939 37.6031 75.8957 37.7554 75.9651 37.923C76.0345 38.0906 76.0702 38.2702 76.0702 38.4516ZM26.2357 25.4256C26.2357 25.0592 26.3813 24.7079 26.6403 24.4489C26.8993 24.1898 27.2507 24.0443 27.617 24.0443H51.6952C52.0616 24.0443 52.4129 24.1898 52.6719 24.4489C52.931 24.7079 53.0765 25.0592 53.0765 25.4256C53.0765 25.7919 52.931 26.1432 52.6719 26.4023C52.4129 26.6613 52.0616 26.8068 51.6952 26.8068H27.6172C27.2509 26.8068 26.8995 26.6613 26.6405 26.4023C26.3815 26.1432 26.236 25.7919 26.236 25.4256H26.2357ZM82.8467 97.9875C84.9919 97.9875 86.7369 96.0123 86.7369 93.5842V34.5312H62.2197C61.8541 34.5313 61.5033 34.3863 61.2444 34.1281C60.9855 33.8699 60.8395 33.5195 60.8385 33.1539L60.7534 6.0125H21.1532C19.0077 6.0125 17.2631 7.98769 17.2631 10.4154V93.5835C17.2631 96.0117 19.008 97.9869 21.1532 97.9869L82.8467 97.9875ZM84.9899 31.7687H63.5984L63.5232 8.21173L84.9899 31.7687ZM89.1389 32.2199L63.1515 3.70114C63.0222 3.55894 62.8645 3.44534 62.6887 3.36765C62.5129 3.28996 62.3228 3.24988 62.1306 3.25H21.1532C17.4843 3.25 14.5 6.46506 14.5 10.4169V93.5835C14.5 97.5349 17.4841 100.75 21.1532 100.75H82.8467C86.5157 100.75 89.4996 97.5351 89.4996 93.5835V33.15C89.5 32.8054 89.3713 32.4733 89.1389 32.2189V32.2199Z" fill="white"/>
<path fill-rule="evenodd" clip-rule="evenodd" d="M50.7807 81.6059C52.0379 80.3465 53.3113 79.0615 54.5406 77.818C55.7742 76.5716 57.0494 75.2828 58.3124 74.0196C58.4904 73.8396 58.5904 73.5967 58.5907 73.3436C58.591 73.0905 58.4917 72.8474 58.3142 72.6669C58.133 72.4907 57.8902 72.3921 57.6374 72.3921C57.3846 72.3921 57.1418 72.4907 56.9606 72.6669L51.2122 78.4154C51.0839 78.5437 50.9316 78.6454 50.7641 78.7148C50.5965 78.7842 50.4169 78.82 50.2355 78.82C50.0541 78.82 49.8744 78.7842 49.7069 78.7148C49.5393 78.6454 49.387 78.5437 49.2587 78.4154L47.0398 76.1954C46.8592 76.0196 46.6166 75.9219 46.3646 75.9235C46.1125 75.9252 45.8712 76.026 45.693 76.2043C45.5147 76.3825 45.4138 76.6238 45.4121 76.8758C45.4104 77.1279 45.5081 77.3705 45.6839 77.5511C46.3865 78.2539 47.0579 79.0095 47.705 79.7406C48.3069 80.4182 48.8754 81.058 49.4241 81.6077C49.6044 81.7871 49.8484 81.8877 50.1028 81.8873C50.3571 81.887 50.6009 81.7858 50.7807 81.6059Z" fill="#00ABEA"/>
<path fill-rule="evenodd" clip-rule="evenodd" d="M63.5966 31.768H84.9892L63.5215 8.21094L63.5966 31.768Z" fill="#00ABEA"/>
</svg>
