<svg width="104" height="104" viewBox="0 0 104 104" fill="none" xmlns="http://www.w3.org/2000/svg">
<path fill-rule="evenodd" clip-rule="evenodd" d="M71.1502 64.5158C71.1502 64.3344 71.1145 64.1548 71.0451 63.9872C70.9757 63.8196 70.8739 63.6673 70.7457 63.5391C70.6174 63.4108 70.4651 63.3091 70.2976 63.2396C70.13 63.1702 69.9504 63.1345 69.769 63.1345H32.7568C32.3904 63.1345 32.0391 63.28 31.7801 63.5391C31.521 63.7981 31.3755 64.1494 31.3755 64.5158C31.3755 64.8821 31.521 65.2334 31.7801 65.4924C32.0391 65.7515 32.3904 65.897 32.7568 65.897H69.7686C70.1349 65.897 70.4862 65.7515 70.7453 65.4924C71.0043 65.2334 71.1498 64.8821 71.1498 64.5158H71.1502ZM34.1382 58.3375H37.1776V51.2562L35.658 50.0908L34.1382 51.2562V58.3375ZM31.3757 59.7188V50.5749C31.3754 50.3628 31.424 50.1535 31.5178 49.9632C31.6116 49.773 31.748 49.6069 31.9164 49.478L34.8181 47.2526C35.0593 47.0676 35.3547 46.9673 35.6587 46.9673C35.9627 46.9673 36.2581 47.0676 36.4993 47.2526L39.401 49.4778C39.5689 49.6071 39.705 49.7733 39.7986 49.9634C39.8923 50.1536 39.9411 50.3627 39.9413 50.5747V59.7188C39.941 60.085 39.7953 60.4361 39.5364 60.6951C39.2774 60.9541 38.9263 61.0997 38.56 61.1H32.7568C32.5754 61.1 32.3958 61.0643 32.2282 60.9949C32.0606 60.9254 31.9083 60.8237 31.7801 60.6954C31.6518 60.5672 31.5501 60.4149 31.4806 60.2473C31.4112 60.0797 31.3757 59.9001 31.3757 59.7188ZM44.5419 58.3375H47.5816V45.9205L46.062 44.7549L44.5419 45.9205V58.3375ZM41.7794 59.7188V45.2394C41.7791 45.0273 41.8278 44.818 41.9216 44.6278C42.0154 44.4376 42.1517 44.2715 42.3201 44.1425L45.2213 41.9173C45.4625 41.7322 45.758 41.6319 46.062 41.6319C46.3661 41.6319 46.6616 41.7322 46.9028 41.9173L49.8042 44.1423C49.9725 44.2714 50.1088 44.4374 50.2026 44.6277C50.2964 44.8179 50.3451 45.0271 50.3449 45.2392V59.7188C50.3449 59.9001 50.3092 60.0797 50.2398 60.2473C50.1704 60.4149 50.0686 60.5672 49.9404 60.6954C49.8121 60.8237 49.6599 60.9254 49.4923 60.9949C49.3247 61.0643 49.1451 61.1 48.9637 61.1H43.1596C42.9782 61.1 42.7986 61.0643 42.631 60.9949C42.4634 60.9254 42.3112 60.8237 42.1829 60.6954C42.0546 60.5672 41.9529 60.4149 41.8835 60.2473C41.8141 60.0797 41.7783 59.9001 41.7783 59.7188H41.7794ZM54.9457 58.3375H57.9851V39.7843L56.4653 38.6185L54.9457 39.7843V58.3375ZM52.1832 59.7188V39.1016C52.1831 38.8897 52.2318 38.6806 52.3255 38.4905C52.4193 38.3005 52.5555 38.1346 52.7237 38.0057L55.6252 35.7805C55.8664 35.5955 56.1618 35.4952 56.4658 35.4952C56.7698 35.4952 57.0652 35.5955 57.3064 35.7805L60.2062 38.0067C60.3746 38.1357 60.511 38.3018 60.6048 38.492C60.6985 38.6822 60.7472 38.8915 60.747 39.1036V59.7188C60.747 60.0851 60.6014 60.4364 60.3424 60.6954C60.0834 60.9545 59.732 61.1 59.3657 61.1H53.5641C53.3827 61.1 53.2031 61.0643 53.0355 60.9949C52.8679 60.9254 52.7156 60.8237 52.5874 60.6954C52.4591 60.5672 52.3574 60.4149 52.288 60.2473C52.2185 60.0797 52.1828 59.9001 52.1828 59.7188H52.1832ZM65.3496 58.3375H68.3887V34.6791L66.8692 33.5136L65.3496 34.6791V58.3375ZM62.5844 59.7188V33.9976C62.5846 33.7856 62.6335 33.5765 62.7272 33.3863C62.821 33.1962 62.9571 33.03 63.1252 32.9008L66.0268 30.6755C66.268 30.4905 66.5635 30.3903 66.8674 30.3903C67.1714 30.3903 67.4669 30.4905 67.7081 30.6755L70.6097 32.9006C70.778 33.0296 70.9142 33.1957 71.008 33.3859C71.1017 33.5761 71.1504 33.7854 71.1502 33.9974V59.7188C71.1502 60.0851 71.0047 60.4364 70.7457 60.6954C70.4866 60.9545 70.1353 61.1 69.769 61.1H63.9663C63.6001 61.0997 63.2489 60.9541 62.99 60.6951C62.731 60.4361 62.5854 60.085 62.585 59.7188H62.5844ZM50.3575 85.4602C33.1019 84.6231 19.2359 70.6702 18.5303 53.3812H24.7571C25.1234 53.3812 25.4747 53.2357 25.7338 52.9767C25.9928 52.7177 26.1383 52.3663 26.1383 52C26.1383 51.6337 25.9928 51.2823 25.7338 51.0233C25.4747 50.7643 25.1234 50.6187 24.7571 50.6187H18.5303C19.2347 33.33 33.1019 19.3781 50.3575 18.5396V24.7575C50.3575 25.1238 50.5031 25.4751 50.7621 25.7342C51.0211 25.9932 51.3725 26.1387 51.7388 26.1387C52.1051 26.1387 52.4564 25.9932 52.7155 25.7342C52.9745 25.4751 53.12 25.1238 53.12 24.7575V18.5195C70.6166 19.0976 84.7582 33.1555 85.4687 50.6183H79.2421C78.8758 50.6183 78.5245 50.7639 78.2654 51.0229C78.0064 51.2819 77.8609 51.6333 77.8609 51.9996C77.8609 52.3659 78.0064 52.7173 78.2654 52.9763C78.5245 53.2353 78.8758 53.3808 79.2421 53.3808H85.4687C84.7578 70.8437 70.6168 84.9016 53.1202 85.4793V79.2429C53.1202 78.8766 52.9747 78.5253 52.7157 78.2662C52.4566 78.0072 52.1053 77.8617 51.739 77.8617C51.3727 77.8617 51.0213 78.0072 50.7623 78.2662C50.5033 78.5253 50.3577 78.8766 50.3577 79.2429V85.4606L50.3575 85.4602ZM53.12 88.2454V94.522C53.12 94.8883 52.9745 95.2396 52.7155 95.4987C52.4564 95.7577 52.1051 95.9032 51.7388 95.9032C51.3725 95.9032 51.0211 95.7577 50.7621 95.4987C50.5031 95.2396 50.3575 94.8883 50.3575 94.522V88.2251C31.5782 87.3844 16.4734 72.1941 15.7651 53.3812H9.477C9.11067 53.3812 8.75934 53.2357 8.50031 52.9767C8.24127 52.7177 8.09575 52.3663 8.09575 52C8.09575 51.6337 8.24127 51.2823 8.50031 51.0233C8.75934 50.7643 9.11067 50.6187 9.477 50.6187H15.7651C16.4734 31.8061 31.578 16.6156 50.3575 15.7747V9.47781C50.3575 9.11148 50.5031 8.76016 50.7621 8.50112C51.0211 8.24209 51.3725 8.09656 51.7388 8.09656C52.1051 8.09656 52.4564 8.24209 52.7155 8.50112C52.9745 8.76016 53.12 9.11148 53.12 9.47781V15.7544C72.1403 16.3347 87.5192 31.6316 88.2336 50.6183H94.5226C94.8889 50.6183 95.2402 50.7639 95.4993 51.0229C95.7583 51.2819 95.9038 51.6333 95.9038 51.9996C95.9038 52.3659 95.7583 52.7173 95.4993 52.9763C95.2402 53.2353 94.8889 53.3808 94.5226 53.3808H88.2343C87.5201 72.3678 72.1409 87.6647 53.1206 88.2448L53.12 88.2454ZM25.2608 97.9875H11.2531C9.86367 97.986 8.53154 97.4334 7.54905 96.451C6.56655 95.4685 6.01395 94.1363 6.0125 92.7469V78.74C6.0125 78.3737 5.86698 78.0223 5.60794 77.7633C5.34891 77.5043 4.99758 77.3587 4.63125 77.3587C4.26492 77.3587 3.91359 77.5043 3.65456 77.7633C3.39552 78.0223 3.25 78.3737 3.25 78.74V92.7469C3.25231 94.8687 4.09624 96.903 5.59661 98.4034C7.09699 99.9038 9.13127 100.748 11.2531 100.75H25.2608C25.6272 100.75 25.9785 100.604 26.2375 100.345C26.4966 100.086 26.6421 99.7351 26.6421 99.3688C26.6421 99.0024 26.4966 98.6511 26.2375 98.3921C25.9785 98.133 25.6272 97.9875 25.2608 97.9875ZM99.3688 77.3583C99.0024 77.3583 98.6511 77.5039 98.3921 77.7629C98.133 78.0219 97.9875 78.3732 97.9875 78.7396V92.7469C97.9862 94.1364 97.4336 95.4686 96.4511 96.4511C95.4686 97.4336 94.1364 97.9862 92.7469 97.9875H78.739C78.3726 97.9875 78.0213 98.133 77.7623 98.3921C77.5032 98.6511 77.3577 99.0024 77.3577 99.3688C77.3577 99.7351 77.5032 100.086 77.7623 100.345C78.0213 100.604 78.3726 100.75 78.739 100.75H92.7469C94.8687 100.748 96.9031 99.9038 98.4034 98.4034C99.9038 96.9031 100.748 94.8687 100.75 92.7469V78.7398C100.75 78.3735 100.604 78.0221 100.345 77.7631C100.086 77.5041 99.7351 77.3585 99.3688 77.3585V77.3583ZM92.7469 3.25H78.739C78.3725 3.25 78.021 3.39558 77.7619 3.65471C77.5028 3.91384 77.3572 4.26529 77.3572 4.63176C77.3572 4.99822 77.5028 5.34968 77.7619 5.60881C78.021 5.86794 78.3725 6.01352 78.739 6.01352H92.7469C94.1361 6.01513 95.468 6.56783 96.4503 7.55033C97.4325 8.53283 97.9848 9.86487 97.9861 11.2541V25.2608C97.9861 25.6272 98.1316 25.9785 98.3906 26.2375C98.6497 26.4966 99.001 26.6421 99.3673 26.6421C99.7337 26.6421 100.085 26.4966 100.344 26.2375C100.603 25.9785 100.749 25.6272 100.749 25.2608L100.75 11.2531C100.747 9.13134 99.9035 7.09718 98.4031 5.59685C96.9028 4.09652 94.8687 3.25253 92.7469 3.25ZM3.25 25.26C3.25 25.6263 3.39552 25.9777 3.65456 26.2367C3.91359 26.4957 4.26492 26.6413 4.63125 26.6413C4.99758 26.6413 5.34891 26.4957 5.60794 26.2367C5.86698 25.9777 6.0125 25.6263 6.0125 25.26V11.2531C6.01401 9.86369 6.56662 8.53159 7.54911 7.54911C8.53159 6.56662 9.86369 6.01401 11.2531 6.0125H25.2602C25.6265 6.0125 25.9779 5.86698 26.2369 5.60794C26.4959 5.34891 26.6415 4.99758 26.6415 4.63125C26.6415 4.26492 26.4959 3.91359 26.2369 3.65456C25.9779 3.39552 25.6265 3.25 25.2602 3.25H11.2531C9.13127 3.25231 7.09699 4.09624 5.59661 5.59661C4.09624 7.09699 3.25231 9.13127 3.25 11.2531V25.26Z" fill="white"/>
<path fill-rule="evenodd" clip-rule="evenodd" d="M37.178 58.3373V51.2561L35.6585 50.0908L34.1387 51.2561V58.3373H37.178Z" fill="#00ABEA"/>
<path fill-rule="evenodd" clip-rule="evenodd" d="M54.9453 39.7844V58.3374H57.9847V39.7844L56.4649 38.6187L54.9453 39.7844Z" fill="#00ABEA"/>
</svg>
