<svg width="104" height="104" viewBox="0 0 104 104" fill="none" xmlns="http://www.w3.org/2000/svg">
<path fill-rule="evenodd" clip-rule="evenodd" d="M39.3657 25.3807C39.3657 25.0143 39.5113 24.663 39.7703 24.404C40.0293 24.1449 40.3807 23.9994 40.747 23.9994H57.3543C57.7206 23.9994 58.072 24.1449 58.331 24.404C58.59 24.663 58.7355 25.0143 58.7355 25.3807C58.7355 25.747 58.59 26.0983 58.331 26.3574C58.072 26.6164 57.7206 26.7619 57.3543 26.7619H40.747C40.3807 26.7619 40.0293 26.6164 39.7703 26.3574C39.5113 26.0983 39.3657 25.747 39.3657 25.3807ZM39.3657 20.2081C39.3657 19.8418 39.5113 19.4904 39.7703 19.2314C40.0293 18.9724 40.3807 18.8268 40.747 18.8268H49.051C49.4174 18.8268 49.7689 18.9724 50.028 19.2316C50.2871 19.4907 50.4327 19.8421 50.4327 20.2086C50.4327 20.5751 50.2871 20.9265 50.028 21.1857C49.7689 21.4448 49.4174 21.5904 49.051 21.5904H40.747C40.3807 21.5904 40.0293 21.4448 39.7703 21.1858C39.5113 20.9268 39.3657 20.5754 39.3657 20.2091V20.2081ZM32.5611 27.1298H23.8895V18.4592H32.5596V27.1298H32.5611ZM35.3236 28.511V17.0777C35.3232 16.7115 35.1775 16.3604 34.9186 16.1015C34.6596 15.8425 34.3085 15.6969 33.9423 15.6965H22.5074C22.1411 15.6965 21.7897 15.842 21.5307 16.101C21.2717 16.3601 21.1261 16.7114 21.1261 17.0777V28.5114C21.1261 28.6928 21.1619 28.8724 21.2313 29.04C21.3007 29.2076 21.4024 29.3599 21.5307 29.4881C21.659 29.6164 21.8112 29.7181 21.9788 29.7875C22.1464 29.857 22.326 29.8927 22.5074 29.8927H33.9423C34.3085 29.8923 34.6596 29.7467 34.9186 29.4877C35.1775 29.2288 35.3232 28.8777 35.3236 28.5114V28.511ZM82.8469 97.9875C84.9919 97.9875 86.7371 96.0123 86.7371 93.5842V34.5312H62.22C61.8543 34.5313 61.5035 34.3863 61.2446 34.1281C60.9857 33.8699 60.8397 33.5195 60.8387 33.1539L60.7532 6.0125H21.1534C19.008 6.0125 17.2637 7.98769 17.2637 10.4154V93.5825C17.2637 96.0107 19.0086 97.9859 21.1544 97.9859L82.8469 97.9875ZM84.9901 31.7687H63.5986L63.5232 8.21173L84.9901 31.7687ZM89.1387 32.2199L63.1517 3.70114C63.0224 3.55888 62.8648 3.44524 62.689 3.36755C62.5131 3.28985 62.323 3.24981 62.1308 3.25H21.154C17.4849 3.25 14.5 6.46506 14.5 10.4169V93.5835C14.5 97.5349 17.4837 100.75 21.1528 100.75H82.8469C86.5159 100.75 89.5 97.5351 89.5 93.5835V33.15C89.5001 32.8055 89.3711 32.4735 89.1385 32.2195L89.1387 32.2199ZM75.7913 81.3621C75.7909 81.7283 75.6453 82.0794 75.3863 82.3383C75.1274 82.5973 74.7763 82.7429 74.4101 82.7434H28.4732C28.1069 82.743 27.7558 82.5974 27.4968 82.3385C27.2379 82.0795 27.0922 81.7284 27.0919 81.3621V39.0666C27.0919 38.7003 27.2374 38.349 27.4965 38.0899C27.7555 37.8309 28.1068 37.6854 28.4732 37.6854C28.8395 37.6854 29.1908 37.8309 29.4499 38.0899C29.7089 38.349 29.8544 38.7003 29.8544 39.0666V79.9795H74.4095C74.7757 79.9797 75.1269 80.1253 75.3859 80.3843C75.6449 80.6433 75.7905 80.9945 75.7907 81.3607L75.7913 81.3621ZM31.93 59.8228C44.9876 55.175 56.4209 48.8589 65.9717 41.0272L65.6487 41.0091C65.2829 40.9893 64.9399 40.825 64.6952 40.5523C64.4505 40.2796 64.3241 39.9209 64.3439 39.555C64.3637 39.1892 64.528 38.8462 64.8007 38.6015C65.0734 38.3568 65.4322 38.2305 65.798 38.2503L69.5814 38.4575C69.7705 38.4678 69.9555 38.5169 70.1249 38.6017C70.2943 38.6865 70.4444 38.8052 70.566 38.9504C70.6876 39.0956 70.778 39.2643 70.8317 39.4459C70.8854 39.6276 70.9012 39.8183 70.8782 40.0063L70.4162 43.7517C70.3749 44.086 70.2129 44.3937 69.9607 44.6171C69.7085 44.8404 69.3834 44.9639 69.0466 44.9646C68.9892 44.9644 68.9319 44.961 68.8749 44.9542C68.5115 44.9088 68.1809 44.7212 67.9556 44.4325C67.7302 44.1438 67.6286 43.7775 67.6728 43.4139L67.7029 43.1819C57.9092 51.2078 46.2054 57.6747 32.8572 62.4262C32.7083 62.479 32.5515 62.5061 32.3935 62.5064C32.0673 62.5073 31.7513 62.3927 31.5015 62.1829C31.2517 61.9731 31.0843 61.6817 31.0287 61.3603C30.9732 61.0388 31.0333 60.7081 31.1982 60.4267C31.3632 60.1453 31.6224 59.9314 31.93 59.8228ZM38.5084 75.9499H35.1787V68.4125L36.8423 67.1363L38.508 68.4125V75.9484L38.5084 75.9499ZM37.6833 64.2992L40.7301 66.6352C40.8985 66.7642 41.0349 66.9302 41.1287 67.1204C41.2226 67.3107 41.2713 67.5199 41.2713 67.732V77.3319C41.2713 77.5133 41.2355 77.6929 41.1661 77.8605C41.0967 78.0281 40.995 78.1804 40.8667 78.3086C40.7384 78.4369 40.5862 78.5386 40.4186 78.608C40.251 78.6774 40.0714 78.7132 39.89 78.7132H33.7963C33.4299 78.7132 33.0786 78.5676 32.8196 78.3086C32.5605 78.0496 32.415 77.6982 32.415 77.3319V67.7324C32.415 67.5203 32.4638 67.311 32.5576 67.1208C32.6515 66.9306 32.7879 66.7646 32.9563 66.6356L36.0012 64.2996C36.2424 64.1145 36.538 64.0141 36.8421 64.0141C37.1462 64.0141 37.4418 64.1145 37.6831 64.2996L37.6833 64.2992ZM49.431 75.9499H46.1014V62.8115L47.7648 61.5347L49.4304 62.8115V75.9499H49.431ZM48.6059 58.6976L51.6528 61.0336C51.8212 61.1624 51.9576 61.3282 52.0515 61.5183C52.1454 61.7083 52.1943 61.9175 52.1943 62.1294V77.3313C52.1943 77.6976 52.0488 78.049 51.7898 78.308C51.5307 78.567 51.1794 78.7126 50.8131 78.7126H44.7193C44.353 78.7126 44.0017 78.567 43.7426 78.308C43.4836 78.049 43.3381 77.6976 43.3381 77.3313V62.1298C43.338 61.9178 43.3867 61.7085 43.4805 61.5183C43.5743 61.3281 43.7107 61.162 43.879 61.033L46.9259 58.697C47.1668 58.512 47.4622 58.4116 47.766 58.4116C48.0698 58.4116 48.3651 58.512 48.6061 58.697L48.6059 58.6976ZM60.3526 75.9499H57.0238V56.3686L58.6894 55.092L60.353 56.3686V75.9499H60.3526ZM59.5302 52.2553L62.575 54.5913C62.7433 54.7201 62.8796 54.886 62.9734 55.076C63.0672 55.2661 63.1159 55.4752 63.1157 55.6871V77.3317C63.1157 77.698 62.9702 78.0494 62.7112 78.3084C62.4521 78.5674 62.1008 78.713 61.7345 78.713H55.6407C55.2745 78.7126 54.9234 78.567 54.6644 78.3081C54.4054 78.0491 54.2598 77.6979 54.2595 77.3317V55.6877C54.2594 55.4756 54.3081 55.2664 54.4019 55.0762C54.4957 54.8859 54.6321 54.7199 54.8004 54.5909L57.8473 52.2549C58.0886 52.0697 58.3842 51.9693 58.6884 51.9693C58.9926 51.9693 59.2883 52.0697 59.5296 52.2549L59.5302 52.2553ZM71.2753 75.9499H67.9454V51.0094L69.6111 49.7329L71.2747 51.0094V75.9499H71.2753ZM68.7705 46.8953C69.0119 46.7103 69.3076 46.6101 69.6117 46.6101C69.9158 46.6101 70.2114 46.7103 70.4528 46.8953L73.4972 49.2312C73.6656 49.3602 73.8019 49.5263 73.8957 49.7165C73.9895 49.9067 74.0383 50.116 74.0382 50.3281V77.3317C74.0382 77.698 73.8926 78.0494 73.6336 78.3084C73.3746 78.5674 73.0233 78.713 72.6569 78.713H66.5632C66.1969 78.7127 65.8457 78.5671 65.5868 78.3081C65.3278 78.0491 65.1822 77.698 65.1819 77.3317V50.3283C65.1819 50.1162 65.2308 49.9069 65.3246 49.7167C65.4184 49.5265 65.5548 49.3605 65.723 49.2314L68.7705 46.8953Z" fill="white"/>
<path d="M23.8896 18.4595H32.5598V27.1301H23.8896V18.4595Z" fill="#00ABEA"/>
<path fill-rule="evenodd" clip-rule="evenodd" d="M63.5225 8.21094L63.5978 31.768H84.9899L63.5225 8.21094Z" fill="#00ABEA"/>
<path fill-rule="evenodd" clip-rule="evenodd" d="M38.5083 68.4134L36.8423 67.1372L35.1787 68.4134V75.9502H38.5083V68.4134Z" fill="#00ABEA"/>
<path fill-rule="evenodd" clip-rule="evenodd" d="M57.0244 56.3694V75.9501H60.3532V56.3694L58.6896 55.0928L57.0244 56.3694Z" fill="#00ABEA"/>
</svg>
