<svg width="104" height="104" viewBox="0 0 104 104" fill="none" xmlns="http://www.w3.org/2000/svg">
<path fill-rule="evenodd" clip-rule="evenodd" d="M39.5618 51.1109C37.277 51.111 35.0436 50.4336 33.1438 49.1644C31.2441 47.8951 29.7634 46.091 28.8889 43.9802C28.0145 41.8695 27.7857 39.5468 28.2313 37.3059C28.677 35.0651 29.7771 33.0067 31.3927 31.3911C33.0082 29.7755 35.0665 28.6752 37.3073 28.2295C39.5481 27.7837 41.8708 28.0124 43.9817 28.8867C46.0925 29.761 47.8967 31.2416 49.166 33.1413C50.4354 35.041 51.1129 37.2744 51.1129 39.5592C51.1096 42.6217 49.8915 45.5579 47.726 47.7236C45.5605 49.8892 42.6244 51.1074 39.5618 51.1109ZM39.5618 25.2443C36.7306 25.2443 33.9629 26.0837 31.6088 27.6566C29.2547 29.2295 27.4198 31.4652 26.3363 34.0808C25.2528 36.6965 24.9693 39.5748 25.5215 42.3516C26.0738 45.1284 27.4372 47.6791 29.4391 49.6811C31.4411 51.6831 33.9917 53.0465 36.7685 53.5989C39.5453 54.1513 42.4236 53.8678 45.0393 52.7844C47.655 51.7009 49.8907 49.8662 51.4637 47.5121C53.0366 45.158 53.8762 42.3904 53.8762 39.5592C53.872 35.764 52.3625 32.1255 49.679 29.4418C46.9954 26.7582 43.3569 25.2486 39.5618 25.2443ZM55.1656 49.7152C54.9539 49.5027 54.8169 49.2273 54.7751 48.9303C54.7333 48.6333 54.789 48.3307 54.9339 48.0681C55.5761 46.9107 56.0847 45.6841 56.4498 44.4118C56.533 44.1236 56.7076 43.8703 56.9472 43.6899C57.1869 43.5095 57.4787 43.4118 57.7786 43.4116H62.353C62.5835 43.4087 62.8037 43.316 62.9668 43.1531C63.1299 42.9903 63.2231 42.7703 63.2264 42.5398V36.5773C63.2231 36.3471 63.1302 36.1273 62.9673 35.9646C62.8045 35.8018 62.5846 35.709 62.3544 35.7059H57.778C57.4782 35.7055 57.1866 35.6078 56.947 35.4274C56.7075 35.247 56.533 34.9938 56.4498 34.7057C56.085 33.4333 55.5764 32.2067 54.9339 31.0495C54.7891 30.7868 54.7334 30.4842 54.7752 30.1873C54.817 29.8903 54.954 29.6148 55.1656 29.4023L58.4018 26.1663C58.5637 26.0021 58.6544 25.7807 58.6544 25.5501C58.6544 25.3196 58.5637 25.0982 58.4018 24.934L54.1858 20.7189C54.0206 20.5584 53.7994 20.4686 53.5691 20.4686C53.3388 20.4686 53.1175 20.5584 52.9524 20.7189L49.7176 23.9553C49.5053 24.1675 49.2296 24.3048 48.9323 24.3466C48.635 24.3883 48.3322 24.3322 48.0697 24.1867C46.9123 23.5444 45.6857 23.0357 44.4134 22.6705C44.1252 22.5877 43.8717 22.4133 43.6913 22.1737C43.511 21.9341 43.4135 21.6422 43.4136 21.3423V16.7681C43.4109 16.5381 43.3184 16.3181 43.1557 16.1553C42.9931 15.9925 42.7733 15.8997 42.5432 15.8967H36.5789C36.3488 15.8997 36.1289 15.9924 35.9661 16.1551C35.8033 16.3178 35.7104 16.5376 35.7073 16.7677V21.3425C35.7077 21.6423 35.6104 21.9341 35.4302 22.1736C35.25 22.4132 34.9966 22.5876 34.7085 22.6703C33.4367 23.0358 32.2105 23.5444 31.0535 24.1865C30.7909 24.332 30.4882 24.3882 30.1909 24.3464C29.8936 24.3047 29.618 24.1673 29.4057 23.9551L26.1679 20.7189C26.0032 20.5583 25.7823 20.4684 25.5522 20.4684C25.3222 20.4684 25.1013 20.5583 24.9366 20.7189L20.7189 24.9348C20.557 25.0989 20.4663 25.3202 20.4663 25.5508C20.4663 25.7813 20.557 26.0026 20.7189 26.1667L23.9555 29.4033C24.1679 29.6154 24.3053 29.8909 24.347 30.1882C24.3887 30.4854 24.3323 30.7882 24.1864 31.0505C23.5451 32.2078 23.0367 33.434 22.6707 34.7055C22.588 34.9939 22.4136 35.2475 22.174 35.428C21.9344 35.6084 21.6425 35.706 21.3425 35.7059H16.7673C16.5373 35.709 16.3177 35.8019 16.1551 35.9646C15.9926 36.1273 15.9 36.3471 15.8971 36.5771V42.541C15.9001 42.7711 15.9928 42.9909 16.1554 43.1536C16.318 43.3164 16.5377 43.4092 16.7677 43.4125H21.3427C21.6427 43.4123 21.9345 43.5099 22.1742 43.6903C22.4138 43.8708 22.5882 44.1243 22.6709 44.4126C23.0366 45.6847 23.5451 46.9112 24.1866 48.0689C24.3324 48.3312 24.3889 48.6339 24.3473 48.9311C24.3058 49.2283 24.1686 49.5039 23.9565 49.7162L20.7189 52.9512C20.557 53.1154 20.4663 53.3367 20.4663 53.5673C20.4663 53.7978 20.557 54.0191 20.7189 54.1834L24.9364 58.4006C25.1006 58.5625 25.3219 58.6533 25.5525 58.6533C25.7832 58.6533 26.0045 58.5625 26.1687 58.4006L29.4047 55.1649C29.6171 54.9526 29.8927 54.8152 30.1901 54.7735C30.4874 54.7317 30.7903 54.7879 31.0529 54.9335C32.2099 55.5755 33.4361 56.084 34.7079 56.4494C34.9961 56.5323 35.2494 56.7066 35.4297 56.9462C35.6101 57.1857 35.7076 57.4774 35.7075 57.7773V62.352C35.711 62.5824 35.8042 62.8023 35.9673 62.965C36.1304 63.1277 36.3505 63.2205 36.5809 63.2234H42.5449C42.775 63.2203 42.9948 63.1275 43.1576 62.9647C43.3203 62.802 43.4131 62.5822 43.4163 62.352V57.7775C43.4163 57.4775 43.5139 57.1856 43.6945 56.9461C43.875 56.7065 44.1287 56.5323 44.4171 56.4496C45.6894 56.0846 46.916 55.5759 48.0733 54.9335C48.3359 54.7879 48.6388 54.7317 48.9361 54.7735C49.2334 54.8152 49.5091 54.9526 49.7215 55.1649L52.956 58.401C53.1212 58.5616 53.3425 58.6515 53.5729 58.6515C53.8033 58.6515 54.0246 58.5616 54.1898 58.401L58.4055 54.1844C58.566 54.0194 58.6558 53.7983 58.6558 53.5681C58.6558 53.3379 58.566 53.1168 58.4055 52.9518L55.1691 49.716L55.1656 49.7152ZM62.3534 46.1754C63.3172 46.1745 64.2413 45.7914 64.9229 45.11C65.6045 44.4287 65.9881 43.5048 65.9893 42.541V36.5771C65.9878 35.6134 65.6042 34.6896 64.9226 34.0083C64.2411 33.3271 63.3171 32.9439 62.3534 32.9428H58.7912C58.5198 32.1566 58.2005 31.3878 57.8353 30.6406L60.3561 28.1206C61.0366 27.4386 61.4187 26.5145 61.4187 25.5511C61.4187 24.5876 61.0366 23.6635 60.3561 22.9815L56.1386 18.7647C55.4566 18.0842 54.5325 17.7021 53.5691 17.7021C52.6057 17.7021 51.6816 18.0842 50.9995 18.7647L48.4808 21.2834C47.7331 20.9185 46.9638 20.5997 46.1771 20.3287V16.7663C46.1759 15.8029 45.7926 14.8793 45.1114 14.1981C44.4302 13.5169 43.5066 13.1335 42.5432 13.1322H36.5793C35.6156 13.1333 34.6916 13.5166 34.01 14.1979C33.3285 14.8792 32.9449 15.803 32.9434 16.7667V20.3289C32.1571 20.5997 31.3882 20.9185 30.6411 21.2836L28.1224 18.7649C27.4402 18.0843 26.516 17.702 25.5523 17.702C24.5887 17.702 23.6645 18.0843 22.9823 18.7649L18.7666 22.9817C18.0871 23.6641 17.7055 24.5878 17.7051 25.5508C17.7047 26.5139 18.0856 27.4379 18.7646 28.1208L21.2854 30.6395C20.9203 31.3868 20.6015 32.1557 20.3307 32.942H16.7673C15.8039 32.9434 14.8803 33.3268 14.1992 34.0081C13.5181 34.6894 13.1349 35.6131 13.1338 36.5765V42.5406C13.1348 43.5041 13.5178 44.4279 14.1989 45.1093C14.88 45.7907 15.8036 46.1742 16.7671 46.1756H20.3295C20.6004 46.9618 20.9193 47.7307 21.2842 48.478L18.7654 50.9978C18.0859 51.6802 17.7042 52.6038 17.7039 53.5669C17.7035 54.5299 18.0844 55.4539 18.7634 56.1368L22.9815 60.3537C23.6635 61.0342 24.5876 61.4164 25.551 61.4164C26.5145 61.4164 27.4386 61.0342 28.1206 60.3537L30.6407 57.8335C31.3876 58.1985 32.1562 58.5173 32.9421 58.7882V62.3506C32.9434 63.3142 33.3268 64.2379 34.0082 64.9192C34.6895 65.6006 35.6133 65.9839 36.5769 65.9851H42.5412C43.5047 65.984 44.4284 65.6007 45.1096 64.9194C45.7908 64.238 46.174 63.3143 46.1749 62.3508V58.7886C46.9611 58.5177 47.7301 58.1988 48.4773 57.8339L50.9961 60.3527C51.6781 61.0331 52.6022 61.4153 53.5656 61.4153C54.529 61.4153 55.4531 61.0331 56.1351 60.3527L60.3532 56.1358C61.0339 55.4537 61.4161 54.5294 61.4161 53.5658C61.4161 52.6021 61.0339 51.6779 60.3532 50.9957L57.8331 48.4758C58.1982 47.7288 58.517 46.96 58.7878 46.1739L62.3534 46.1754ZM95.5126 95.5108C94.135 96.8892 92.4179 97.7543 90.6782 97.9468C89.0532 98.1264 87.6189 97.6875 86.6419 96.7096L68.7624 78.8299C68.7279 78.7799 68.7038 78.7234 68.6916 78.6639C68.6795 78.6044 68.6794 78.543 68.6915 78.4834C68.7381 78.1807 68.884 77.9021 69.1061 77.6912L77.6938 69.1023C77.905 68.8809 78.1836 68.7358 78.486 68.6897C78.5162 68.6863 78.5466 68.6846 78.577 68.6845C78.6689 68.6768 78.7604 68.7038 78.8336 68.76L96.711 86.6393C98.792 88.7189 98.2426 92.7818 95.5126 95.511V95.5108ZM65.2345 65.2334C66.2964 64.1718 67.2917 63.0457 68.2148 61.8615L74.6392 68.2477L68.2463 74.6401L61.8419 68.2343C63.0332 67.3046 64.1661 66.3024 65.2341 65.2334H65.2345ZM15.84 63.2795C18.955 66.3945 22.6531 68.8655 26.723 70.5513C30.793 72.2372 35.1552 73.1049 39.5605 73.1049C43.9657 73.1049 48.3279 72.2372 52.3979 70.5513C56.4678 68.8655 60.1659 66.3945 63.2809 63.2795C76.3605 50.1999 76.3611 28.9181 63.2809 15.8384C56.9898 9.54739 48.4573 6.01313 39.5604 6.01314C30.6635 6.01316 22.131 9.54746 15.8399 15.8385C9.54887 22.1296 6.01461 30.6621 6.01463 39.559C6.01465 48.4559 9.54895 56.9884 15.84 63.2795ZM98.6646 84.685L80.7854 66.8058C80.4443 66.4754 80.033 66.2263 79.5822 66.0769C79.1315 65.9276 78.6528 65.8818 78.1819 65.9431C77.6674 66.0035 77.1698 66.1644 76.7174 66.4168L69.8495 59.5895C79.173 45.4986 77.6351 26.286 65.2345 13.8848C58.4253 7.07548 49.19 3.25004 39.5602 3.25C29.9304 3.24996 20.6951 7.07534 13.8858 13.8846C7.07646 20.6938 3.25101 29.9292 3.25098 39.5589C3.25094 49.1887 7.07631 58.4241 13.8856 65.2334C19.8025 71.1471 27.5789 74.8379 35.9018 75.6826C44.2246 76.5272 52.584 74.474 59.5684 69.8695L66.4169 76.7174C66.1658 77.1695 66.0056 77.6663 65.9453 78.1799C65.8837 78.651 65.9293 79.13 66.0786 79.581C66.228 80.032 66.4772 80.4435 66.8077 80.7848L84.688 98.6639C86.0512 100.026 87.8964 100.75 89.9642 100.75C90.3035 100.75 90.6426 100.731 90.9798 100.693C93.3424 100.432 95.6454 99.2852 97.465 97.4648C101.322 93.6109 101.858 87.8781 98.6646 84.685Z" fill="white"/>
<path fill-rule="evenodd" clip-rule="evenodd" d="M49.7182 55.1647L52.9527 58.4009C53.1179 58.5615 53.3392 58.6513 53.5696 58.6513C53.8 58.6513 54.0213 58.5615 54.1865 58.4009L58.4022 54.1842C58.5627 54.0192 58.6525 53.7981 58.6525 53.5679C58.6525 53.3377 58.5627 53.1166 58.4022 52.9516L55.1658 49.7159C54.9541 49.5034 54.8171 49.2279 54.7753 48.9309C54.7335 48.6339 54.7892 48.3314 54.934 48.0687C55.5763 46.9114 56.0849 45.6847 56.4499 44.4125C56.5331 44.1243 56.7077 43.8709 56.9474 43.6905C57.187 43.5101 57.4788 43.4125 57.7788 43.4123H62.3532C62.5836 43.4093 62.8038 43.3166 62.967 43.1538C63.1301 42.991 63.2232 42.7709 63.2266 42.5405V36.5775C63.2233 36.3474 63.1303 36.1275 62.9675 35.9648C62.8047 35.8021 62.5848 35.7093 62.3546 35.7061H57.7784C57.4785 35.7057 57.1869 35.608 56.9474 35.4276C56.7079 35.2473 56.5334 34.994 56.4501 34.7059C56.0854 33.4336 55.5768 32.2069 54.9342 31.0497C54.7895 30.787 54.7338 30.4845 54.7756 30.1875C54.8174 29.8905 54.9544 29.6151 55.166 29.4025L58.4022 26.1666C58.564 26.0023 58.6548 25.781 58.6548 25.5504C58.6548 25.3198 58.564 25.0985 58.4022 24.9342L54.1861 20.7192C54.021 20.5586 53.7997 20.4688 53.5694 20.4688C53.3391 20.4688 53.1179 20.5586 52.9527 20.7192L49.718 23.9556C49.5056 24.1677 49.23 24.3051 48.9327 24.3468C48.6354 24.3885 48.3326 24.3324 48.07 24.1869C46.9127 23.5446 45.686 23.036 44.4138 22.6708C44.1255 22.588 43.8721 22.4135 43.6917 22.1739C43.5113 21.9343 43.4138 21.6425 43.414 21.3426V16.7684C43.4113 16.5383 43.3187 16.3184 43.1561 16.1556C42.9935 15.9928 42.7737 15.9 42.5436 15.897H36.5792C36.3491 15.9 36.1292 15.9927 35.9664 16.1554C35.8037 16.318 35.7108 16.5378 35.7076 16.768V21.3428C35.708 21.6425 35.6108 21.9343 35.4306 22.1739C35.2503 22.4135 34.997 22.5878 34.7089 22.6706C33.4371 23.036 32.2109 23.5447 31.0538 24.1867C30.7913 24.3323 30.4885 24.3884 30.1913 24.3467C29.894 24.3049 29.6184 24.1676 29.4061 23.9553L26.1683 20.7192C26.0036 20.5585 25.7826 20.4686 25.5526 20.4686C25.3226 20.4686 25.1016 20.5585 24.9369 20.7192L20.7192 24.935C20.5574 25.0992 20.4666 25.3205 20.4666 25.551C20.4666 25.7815 20.5574 26.0028 20.7192 26.167L23.9558 29.4036C24.1682 29.6156 24.3057 29.8912 24.3474 30.1884C24.3891 30.4857 24.3327 30.7884 24.1868 31.0507C23.5455 32.2081 23.037 33.4342 22.6711 34.7057C22.5883 34.9941 22.414 35.2477 22.1744 35.4282C21.9347 35.6087 21.6428 35.7062 21.3428 35.7061H16.7676C16.5377 35.7093 16.318 35.8021 16.1555 35.9649C15.9929 36.1276 15.9004 36.3473 15.8975 36.5773V42.5413C15.9005 42.7713 15.9931 42.9911 16.1557 43.1539C16.3183 43.3166 16.538 43.4095 16.7681 43.4127H21.343C21.643 43.4126 21.9349 43.5101 22.1745 43.6905C22.4141 43.871 22.5885 44.1245 22.6713 44.4129C23.037 45.6849 23.5454 46.9115 24.187 48.0691C24.3328 48.3314 24.3892 48.6341 24.3477 48.9313C24.3062 49.2286 24.169 49.5042 23.9569 49.7165L20.7192 52.9514C20.5574 53.1157 20.4667 53.337 20.4667 53.5675C20.4667 53.7981 20.5574 54.0194 20.7192 54.1836L24.9367 58.4009C25.101 58.5628 25.3223 58.6535 25.5529 58.6535C25.7835 58.6535 26.0049 58.5628 26.1691 58.4009L29.4051 55.1651C29.6174 54.9528 29.8931 54.8155 30.1904 54.7737C30.4878 54.732 30.7906 54.7881 31.0532 54.9337C32.2103 55.5757 33.4365 56.0843 34.7083 56.4497C34.9964 56.5325 35.2498 56.7069 35.4301 56.9464C35.6104 57.186 35.7079 57.4777 35.7078 57.7775V62.3523C35.7114 62.5826 35.8046 62.8025 35.9677 62.9653C36.1308 63.128 36.3509 63.2207 36.5813 63.2237H42.5452C42.7754 63.2205 42.9952 63.1277 43.1579 62.965C43.3207 62.8022 43.4135 62.5824 43.4166 62.3523V57.7777C43.4166 57.4777 43.5143 57.1859 43.6948 56.9463C43.8754 56.7068 44.129 56.5325 44.4174 56.4499C45.6897 56.0848 46.9164 55.5761 48.0737 54.9337C48.3363 54.7881 48.6391 54.732 48.9365 54.7737C49.2338 54.8155 49.5095 54.9528 49.7218 55.1651L49.7182 55.1647ZM53.8766 39.5594C53.8766 42.3907 53.037 45.1584 51.4641 47.5125C49.8911 49.8667 47.6554 51.7015 45.0396 52.785C42.4239 53.8685 39.5456 54.1519 36.7687 53.5996C33.9918 53.0472 31.4411 51.6838 29.4391 49.6817C27.4371 47.6797 26.0738 45.1289 25.5215 42.352C24.9692 39.5751 25.2528 36.6968 26.3363 34.0811C27.4199 31.4654 29.2548 29.2297 31.6089 27.6568C33.9631 26.0839 36.7309 25.2445 39.5621 25.2446C43.3572 25.2492 46.9956 26.7588 49.6791 29.4424C52.3625 32.1259 53.8721 35.7643 53.8766 39.5594Z" fill="#00ABEA"/>
<path fill-rule="evenodd" clip-rule="evenodd" d="M77.693 69.1022L69.1053 77.6911C68.8831 77.902 68.7373 78.1806 68.6907 78.4833C68.6786 78.5429 68.6786 78.6043 68.6908 78.6638C68.703 78.7234 68.7271 78.7798 68.7616 78.8299L86.641 96.7095C87.6181 97.6874 89.0532 98.1263 90.6773 97.9468C92.4181 97.7542 94.1351 96.8891 95.5117 95.5107C98.2413 92.7815 98.7908 88.7186 96.7102 86.639L78.8331 68.7599C78.76 68.7037 78.6685 68.6767 78.5766 68.6844C78.5462 68.6845 78.5158 68.6863 78.4856 68.6897C78.183 68.7356 77.9042 68.8807 77.693 69.1022Z" fill="#00ABEA"/>
</svg>
