<svg width="104" height="104" viewBox="0 0 104 104" fill="none" xmlns="http://www.w3.org/2000/svg">
<path fill-rule="evenodd" clip-rule="evenodd" d="M99.8304 49.5928L96.6746 52.9921C96.5483 53.1284 96.3957 53.2377 96.2261 53.3136C96.0564 53.3895 95.8732 53.4303 95.6874 53.4337H95.6618C95.4803 53.4335 95.3006 53.3975 95.133 53.3278C94.9654 53.258 94.8131 53.156 94.685 53.0274L91.5232 49.8611C91.2722 49.6004 91.1335 49.2516 91.137 48.8897C91.1405 48.5278 91.2859 48.1818 91.5419 47.926C91.7979 47.6702 92.1441 47.5251 92.506 47.5219C92.8678 47.5187 93.2165 47.6576 93.477 47.9089L94.2806 48.7126V27.0065H64.2607C63.8944 27.0065 63.5431 26.861 63.284 26.6019C63.025 26.3429 62.8795 25.9916 62.8795 25.6252C62.8795 25.2589 63.025 24.9076 63.284 24.6485C63.5431 24.3895 63.8944 24.244 64.2607 24.244H95.662C96.0284 24.244 96.3797 24.3895 96.6387 24.6485C96.8978 24.9076 97.0433 25.2589 97.0433 25.6252V48.5337L97.8052 47.7124C97.9287 47.5795 98.0771 47.4721 98.2421 47.3965C98.407 47.321 98.5852 47.2786 98.7665 47.2719C98.9479 47.2652 99.1287 47.2942 99.2988 47.3574C99.4689 47.4206 99.6249 47.5167 99.7579 47.6401C99.8908 47.7636 99.9981 47.912 100.074 48.077C100.149 48.2419 100.192 48.4202 100.198 48.6015C100.205 48.7828 100.176 48.9637 100.113 49.1337C100.05 49.3038 99.9536 49.4598 99.8302 49.5928H99.8304ZM54.0212 95.109C54.2784 95.366 54.4239 95.7141 54.4261 96.0777C54.4284 96.4414 54.2871 96.7912 54.033 97.0513L50.8356 100.333C50.5797 100.596 50.2301 100.745 49.8637 100.75C49.4974 100.754 49.1442 100.613 48.8819 100.357C48.6197 100.101 48.4698 99.7519 48.4653 99.3855C48.4608 99.0191 48.6021 98.666 48.858 98.4037L49.7698 97.4681H17.9245C17.5581 97.4681 17.2068 97.3226 16.9478 97.0636C16.6887 96.8045 16.5432 96.4532 16.5432 96.0869V73.1104C16.5432 72.744 16.6887 72.3927 16.9478 72.1337C17.2068 71.8746 17.5581 71.7291 17.9245 71.7291C18.2908 71.7291 18.6421 71.8746 18.9012 72.1337C19.1602 72.3927 19.3057 72.744 19.3057 73.1104V94.7046H49.7089L48.4812 93.4769C48.3529 93.3486 48.2511 93.1963 48.1817 93.0287C48.1123 92.8611 48.0765 92.6814 48.0765 92.5C48.0765 92.3185 48.1123 92.1389 48.1817 91.9713C48.2511 91.8036 48.3529 91.6513 48.4812 91.523C48.6095 91.3948 48.7618 91.293 48.9294 91.2236C49.097 91.1541 49.2767 91.1184 49.4581 91.1184C49.6395 91.1184 49.8192 91.1541 49.9868 91.2236C50.1544 91.293 50.3067 91.3948 50.435 91.523L54.0212 95.109ZM23.5238 58.4738V58.552C23.5238 58.9183 23.3783 59.2697 23.1193 59.5287C22.8602 59.7877 22.5089 59.9333 22.1426 59.9333C21.7762 59.9333 21.4249 59.7877 21.1659 59.5287C20.9068 59.2697 20.7613 58.9183 20.7613 58.552V58.4738C20.7613 58.1075 20.9068 57.7561 21.1659 57.4971C21.4249 57.2381 21.7762 57.0925 22.1426 57.0925C22.5089 57.0925 22.8602 57.2381 23.1193 57.4971C23.3783 57.7561 23.5238 58.1075 23.5238 58.4738ZM35.0384 58.552V58.4738C35.0384 58.1075 35.1839 57.7561 35.4429 57.4971C35.702 57.2381 36.0533 57.0925 36.4196 57.0925C36.7859 57.0925 37.1373 57.2381 37.3963 57.4971C37.6553 57.7561 37.8009 58.1075 37.8009 58.4738V58.5518C37.8009 58.9181 37.6553 59.2695 37.3963 59.5285C37.1373 59.7875 36.7859 59.933 36.4196 59.933C36.0533 59.933 35.702 59.7875 35.4429 59.5285C35.1839 59.2695 35.0384 58.9181 35.0384 58.5518V58.552ZM29.0303 60.4177C28.8489 60.4177 28.6693 60.382 28.5017 60.3126C28.3342 60.2431 28.1819 60.1414 28.0536 60.0131C27.9254 59.8849 27.8236 59.7326 27.7542 59.565C27.6848 59.3975 27.6491 59.2178 27.6491 59.0365V58.9583C27.6491 58.5919 27.7946 58.2406 28.0536 57.9816C28.3127 57.7225 28.664 57.577 29.0303 57.577C29.3967 57.577 29.748 57.7225 30.007 57.9816C30.2661 58.2406 30.4116 58.5919 30.4116 58.9583V59.0365C30.4111 59.4026 30.2654 59.7537 30.0065 60.0126C29.7476 60.2715 29.3965 60.4172 29.0303 60.4177ZM20.7597 44.4234V44.3452C20.7597 43.9789 20.9052 43.6276 21.1642 43.3685C21.4233 43.1095 21.7746 42.964 22.1409 42.964C22.5073 42.964 22.8586 43.1095 23.1176 43.3685C23.3767 43.6276 23.5222 43.9789 23.5222 44.3452V44.4232C23.5222 44.7896 23.3767 45.1409 23.1176 45.3999C22.8586 45.659 22.5073 45.8045 22.1409 45.8045C21.7746 45.8045 21.4233 45.659 21.1642 45.3999C20.9052 45.1409 20.7597 44.7898 20.7597 44.4234ZM35.0375 44.4234V44.3452C35.0375 43.9789 35.1831 43.6276 35.4421 43.3685C35.7011 43.1095 36.0525 42.964 36.4188 42.964C36.7851 42.964 37.1365 43.1095 37.3955 43.3685C37.6545 43.6276 37.8 43.9789 37.8 44.3452V44.4232C37.8 44.7896 37.6545 45.1409 37.3955 45.3999C37.1365 45.659 36.7851 45.8045 36.4188 45.8045C36.0525 45.8045 35.7011 45.659 35.4421 45.3999C35.1831 45.1409 35.0375 44.7898 35.0375 44.4234ZM27.6481 44.9065V44.8285C27.6481 44.4621 27.7936 44.1108 28.0526 43.8518C28.3117 43.5927 28.663 43.4472 29.0293 43.4472C29.3956 43.4472 29.747 43.5927 30.006 43.8518C30.265 44.1108 30.4106 44.4621 30.4106 44.8285V44.9063C30.4106 45.2726 30.265 45.6239 30.006 45.883C29.747 46.142 29.3956 46.2875 29.0293 46.2875C28.663 46.2875 28.3117 46.142 28.0526 45.883C27.7936 45.6239 27.6481 45.2726 27.6481 44.9063V44.9065ZM23.523 30.8529V30.9309C23.523 31.2972 23.3775 31.6485 23.1184 31.9076C22.8594 32.1666 22.5081 32.3121 22.1418 32.3121C21.7754 32.3121 21.4241 32.1666 21.1651 31.9076C20.906 31.6485 20.7605 31.2972 20.7605 30.9309V30.8525C20.7605 30.4861 20.906 30.1348 21.1651 29.8758C21.4241 29.6167 21.7754 29.4712 22.1418 29.4712C22.5081 29.4712 22.8594 29.6167 23.1184 29.8758C23.3775 30.1348 23.523 30.4861 23.523 30.8525V30.8529ZM37.8007 30.8529V30.9309C37.8007 31.2972 37.6551 31.6485 37.3961 31.9076C37.1371 32.1666 36.7857 32.3121 36.4194 32.3121C36.0531 32.3121 35.7017 32.1666 35.4427 31.9076C35.1837 31.6485 35.0382 31.2972 35.0382 30.9309V30.8525C35.0382 30.4861 35.1837 30.1348 35.4427 29.8758C35.7017 29.6167 36.0531 29.4712 36.4194 29.4712C36.7857 29.4712 37.1371 29.6167 37.3961 29.8758C37.6551 30.1348 37.8007 30.4861 37.8007 30.8525V30.8529ZM30.4112 31.3359V31.4141C30.4112 31.7804 30.2656 32.1318 30.0066 32.3908C29.7476 32.6498 29.3963 32.7953 29.0299 32.7953C28.6636 32.7953 28.3123 32.6498 28.0532 32.3908C27.7942 32.1318 27.6487 31.7804 27.6487 31.4141V31.3357C27.6487 30.9694 27.7942 30.618 28.0532 30.359C28.3123 30.1 28.6636 29.9544 29.0299 29.9544C29.3963 29.9544 29.7476 30.1 30.0066 30.359C30.2656 30.618 30.4112 30.9696 30.4112 31.3359ZM93.4506 93.2281C91.5516 94.0672 89.5855 94.7453 87.573 95.2553V91.8466C87.573 91.4803 87.4275 91.129 87.1684 90.8699C86.9094 90.6109 86.5581 90.4654 86.1917 90.4654C85.8254 90.4654 85.4741 90.6109 85.215 90.8699C84.956 91.129 84.8105 91.4803 84.8105 91.8466V95.8177C81.3791 96.3748 77.8726 96.2663 74.4822 95.498L75.0822 91.0965C75.1275 90.7352 75.0285 90.3705 74.8065 90.0818C74.5846 89.7931 74.2577 89.6037 73.8969 89.5546C73.536 89.5055 73.1704 89.6007 72.8794 89.8196C72.5884 90.0386 72.3955 90.3634 72.3427 90.7238L71.7979 94.7284C70.3555 94.2329 68.955 93.6231 67.6097 92.9047C67.4444 92.8227 67.3124 92.6863 67.2359 92.5184C67.1594 92.3505 67.143 92.1615 67.1894 91.9829C68.2631 87.3151 68.9736 83.3381 69.3149 80.0875C81.623 80.3873 89.1052 80.573 91.8447 80.6402C92.2536 84.56 92.9482 88.4446 93.9229 92.2632C93.9741 92.4539 93.9546 92.6567 93.8679 92.834C93.7812 93.0114 93.6332 93.1514 93.4512 93.2281H93.4506ZM70.2527 74.9938C73.5853 74.413 76.9595 74.1041 80.3421 74.0701C84.726 74.0701 88.3217 74.7275 91.0927 76.036C91.2329 76.0971 91.3524 76.1974 91.4368 76.3249C91.5212 76.4524 91.5669 76.6015 91.5685 76.7544C91.5843 77.1253 91.6022 77.4965 91.6257 77.8716C88.6831 77.7987 81.3429 77.6191 69.5284 77.3289C69.5502 76.7998 69.5594 76.2972 69.556 75.8211C69.5512 75.6219 69.6194 75.4279 69.7477 75.2756C69.876 75.1232 70.0557 75.0228 70.2527 74.9938ZM78.3942 50.5905V71.3519C79.9119 71.2929 81.3547 71.3021 82.7224 71.3795V50.5903C82.7224 50.0164 82.4944 49.4659 82.0885 49.0601C81.6827 48.6542 81.1322 48.4262 80.5583 48.4262C79.9843 48.4262 79.4339 48.6542 79.028 49.0601C78.6222 49.4659 78.3942 50.0164 78.3942 50.5903V50.5905ZM94.3297 76.6417C94.3088 75.9849 94.1056 75.3468 93.7427 74.7989C93.3799 74.2509 92.8717 73.8148 92.2751 73.5392C90.3387 72.6234 88.0755 71.9905 85.4857 71.6406V50.5901C85.4857 49.2833 84.9665 48.03 84.0425 47.1059C83.1184 46.1818 81.8651 45.6627 80.5583 45.6627C79.2514 45.6627 77.9981 46.1818 77.0741 47.1059C76.15 48.03 75.6309 49.2833 75.6309 50.5901V71.5236C73.7834 71.6835 71.8401 71.9309 69.8012 72.2658C68.954 72.4025 68.1842 72.8391 67.632 73.4959C67.0799 74.1528 66.7821 74.9862 66.7931 75.8442C66.8228 79.3869 66.0511 84.6093 64.496 91.363C64.312 92.134 64.3908 92.9444 64.7197 93.6656C65.0486 94.3868 65.6089 94.9776 66.3117 95.3442C70.8196 97.7439 75.5269 98.944 80.4017 98.944C84.9848 98.944 89.7155 97.8823 94.5611 95.7604C95.3412 95.4203 95.9749 94.814 96.3491 94.0497C96.7233 93.2854 96.8135 92.413 96.6037 91.5882C95.2854 86.3537 94.5195 81.325 94.3301 76.6413L94.3297 76.6417ZM6.56409 56.2597C6.56409 60.2775 15.7908 64.7558 29.0297 64.7558C42.2686 64.7558 51.4953 60.2775 51.4953 56.2597V47.3253C50.2085 48.4506 48.4936 49.4685 46.3815 50.3395C41.7177 52.2624 35.5559 53.3211 29.0289 53.3211C19.1426 53.3211 10.7152 50.8668 6.56328 47.2115V56.2597H6.56409ZM29.0303 6.0125C42.27 6.0125 51.496 10.49 51.496 14.5086C51.496 18.5272 42.269 23.0045 29.0303 23.0045C15.7917 23.0045 6.56389 18.5276 6.56389 14.5092C6.56389 10.4908 15.7908 6.0125 29.0303 6.0125ZM6.56409 33.2648V42.0469C6.65692 46.0734 15.9056 50.5578 29.0297 50.5588C42.2125 50.5588 51.4509 46.0982 51.4953 42.0952V33.2652C50.2085 34.3903 48.4936 35.4079 46.3815 36.2791C41.7177 38.2019 35.5559 39.2608 29.0289 39.261C22.5019 39.2612 16.3377 38.2011 11.6737 36.2781C9.56384 35.4077 7.84866 34.3891 6.56409 33.2654V33.2648ZM51.4968 28.0312V19.7736C50.2197 20.8908 48.5167 21.9026 46.4225 22.7701C41.7547 24.7035 35.577 25.7684 29.0303 25.7684C22.4836 25.7684 16.306 24.7035 11.6382 22.7703C9.54414 21.9032 7.84094 20.8912 6.56409 19.7738V28.0312C6.6035 32.0363 15.8424 36.4985 29.0297 36.4987C42.2125 36.4987 51.4509 32.0377 51.4953 28.0345V28.0312H51.4968ZM46.4225 64.5208C51.4771 62.4268 54.2599 59.4937 54.2599 56.2597V14.8035C54.2599 14.7694 54.2576 14.7355 54.2558 14.702C54.2578 14.6374 54.2597 14.574 54.2597 14.5096C54.2597 11.2759 51.4769 8.34214 46.4223 6.24873C41.7549 4.31438 35.577 3.25 29.0303 3.25C22.4836 3.25 16.306 4.31478 11.6382 6.24833C6.5838 8.34133 3.80078 11.2757 3.80078 14.5092C3.80078 14.5498 3.80281 14.5905 3.80281 14.6325C3.80281 14.6545 3.80078 14.6762 3.80078 14.6983V56.2597C3.80078 59.4937 6.58359 62.427 11.6382 64.521C16.306 66.4534 22.4836 67.5192 29.0303 67.5192C35.577 67.5192 41.7547 66.4534 46.4225 64.5208Z" fill="white"/>
<path fill-rule="evenodd" clip-rule="evenodd" d="M69.3145 80.0879C68.9732 83.3379 68.2627 87.3155 67.189 91.9833C67.1425 92.1618 67.1589 92.3509 67.2355 92.5188C67.312 92.6866 67.444 92.823 67.6092 92.9051C68.9545 93.6235 70.3551 94.2333 71.7975 94.7287L72.3422 90.7241C72.3951 90.3638 72.588 90.0389 72.879 89.82C73.17 89.6011 73.5356 89.5058 73.8964 89.5549C74.2573 89.604 74.5842 89.7935 74.8061 90.0822C75.028 90.3709 75.1271 90.7355 75.0818 91.0969L74.4817 95.4984C77.8721 96.2666 81.3787 96.3752 84.81 95.8181V91.847C84.81 91.4807 84.9556 91.1293 85.2146 90.8703C85.4736 90.6113 85.825 90.4658 86.1913 90.4658C86.5576 90.4658 86.909 90.6113 87.168 90.8703C87.427 91.1293 87.5725 91.4807 87.5725 91.847V95.2556C89.5851 94.7457 91.5512 94.0675 93.4502 93.2285C93.6321 93.1518 93.7801 93.0118 93.8668 92.8344C93.9535 92.657 93.9731 92.4543 93.9218 92.2636C92.9473 88.4451 92.253 84.5606 91.8443 80.641C89.1047 80.5734 81.6226 80.3877 69.3145 80.0879Z" fill="#00ABEA"/>
<path fill-rule="evenodd" clip-rule="evenodd" d="M29.0299 23.0053C42.2694 23.0053 51.4955 18.5278 51.4955 14.5094C51.4955 10.491 42.2702 6.0127 29.0299 6.0127C15.7896 6.0127 6.56368 10.4908 6.56348 14.5094C6.56327 18.528 15.7904 23.0051 29.0299 23.0053Z" fill="#00ABEA"/>
</svg>
