<svg width="104" height="104" viewBox="0 0 104 104" fill="none" xmlns="http://www.w3.org/2000/svg">
<path fill-rule="evenodd" clip-rule="evenodd" d="M45.5781 18.8841C45.765 18.6997 46.017 18.5963 46.2796 18.5963C46.5422 18.5963 46.7942 18.6997 46.9811 18.8841L49.2358 21.1372C49.364 21.2655 49.5163 21.3673 49.684 21.4367C49.8516 21.5062 50.0313 21.542 50.2127 21.542C50.3941 21.542 50.5738 21.5062 50.7414 21.4367C50.9091 21.3673 51.0614 21.2655 51.1896 21.1372L57.0224 15.304C57.1145 15.2119 57.2238 15.1388 57.3442 15.089C57.4645 15.0391 57.5935 15.0135 57.7238 15.0135C57.854 15.0135 57.983 15.0391 58.1033 15.089C58.2237 15.1388 58.333 15.2119 58.4252 15.304C58.5173 15.3961 58.5903 15.5055 58.6402 15.6258C58.69 15.7462 58.7157 15.8751 58.7157 16.0054C58.7157 16.1357 58.69 16.2646 58.6402 16.385C58.5903 16.5053 58.5173 16.6147 58.4252 16.7068C57.1444 17.9877 55.8495 19.2944 54.6001 20.5582C53.3507 21.8221 52.0582 23.128 50.7791 24.4065C50.5926 24.5924 50.3399 24.6968 50.0765 24.6968C49.8131 24.6968 49.5605 24.5924 49.3739 24.4065C48.8157 23.8485 48.239 23.1987 47.6293 22.5105C46.9701 21.7685 46.2911 21.0021 45.5777 20.2891C45.393 20.1018 45.2895 19.8494 45.2895 19.5864C45.2895 19.3234 45.393 19.071 45.5777 18.8837L45.5781 18.8841ZM45.5621 24.3441C46.1999 25.0644 46.8034 25.7444 47.4192 26.3607C48.1244 27.0642 49.0798 27.4592 50.0758 27.4592C51.0718 27.4592 52.0272 27.0642 52.7324 26.3607C54.0155 25.077 55.31 23.768 56.5633 22.5013C57.8107 21.2401 59.1024 19.9361 60.3784 18.66C61.0662 17.9524 61.4478 17.0025 61.4407 16.0157C61.4336 15.0289 61.0384 14.0846 60.3405 13.3869C59.6425 12.6892 58.698 12.2943 57.7112 12.2876C56.7244 12.2809 55.7747 12.6629 55.0673 13.351L50.2126 18.2069L48.936 16.9306C48.2314 16.2263 47.276 15.8307 46.2798 15.8308C45.2836 15.8309 44.3282 16.2267 43.6238 16.9312C42.9195 17.6358 42.5239 18.5912 42.524 19.5874C42.5241 20.5837 42.9199 21.539 43.6244 22.2434C44.2779 22.8978 44.9309 23.6334 45.5627 24.3441H45.5621ZM47.7274 48.3031V52.3562H43.6734C42.8719 52.356 42.0885 52.1181 41.4222 51.6727C40.7559 51.2272 40.2366 50.5942 39.9301 49.8537C39.6235 49.1131 39.5434 48.2983 39.6999 47.5122C39.8563 46.7262 40.2424 46.0042 40.8092 45.4375C41.376 44.8708 42.0981 44.4849 42.8842 44.3286C43.6703 44.1723 44.4851 44.2525 45.2255 44.5592C45.966 44.866 46.5989 45.3853 47.0442 46.0517C47.4896 46.7181 47.7273 47.5016 47.7274 48.3031ZM58.9673 52.3567V48.3031C58.9676 47.5017 59.2055 46.7185 59.6509 46.0523C60.0963 45.3862 60.7292 44.867 61.4697 44.5606C62.2101 44.2541 63.0248 44.1741 63.8107 44.3306C64.5966 44.4871 65.3184 44.8732 65.885 45.4399C66.4515 46.0067 66.8372 46.7287 66.9934 47.5147C67.1496 48.3006 67.0693 49.1153 66.7625 49.8556C66.4558 50.5959 65.9364 51.2286 65.2701 51.6738C64.6037 52.1189 63.8204 52.3565 63.019 52.3565L58.9673 52.3567ZM72.037 56.2885C74.7408 52.8943 77.0777 49.9626 77.0775 41.8303C77.0721 38.2183 76.2887 34.6497 74.7807 31.3676C73.2726 28.0854 71.0752 25.1666 68.3381 22.8097C67.6466 26.6394 65.6317 30.1045 62.6453 32.5998C59.659 35.0951 55.891 36.4621 51.9993 36.4619C48.1077 36.4617 44.3397 35.0945 41.3536 32.5989C38.3675 30.1033 36.3529 26.638 35.6617 22.8083C32.9242 25.1652 30.7267 28.0842 29.2186 31.3667C27.7105 34.6491 26.9273 38.218 26.9223 41.8303C26.9223 50.6898 29.504 53.5624 32.494 56.889C35.7761 60.544 39.4829 64.667 39.7417 76.8881H47.7272V55.1198H43.6732C42.3252 55.1195 41.0076 54.7195 39.887 53.9705C38.7663 53.2214 37.8929 52.1568 37.3773 50.9114C36.8616 49.666 36.7268 48.2957 36.9898 46.9736C37.2529 45.6516 37.9021 44.4373 38.8553 43.4841C39.8085 42.531 41.0229 41.882 42.3449 41.619C43.667 41.356 45.0373 41.491 46.2827 42.0068C47.5281 42.5226 48.5925 43.396 49.3415 44.5168C50.0905 45.6375 50.4903 46.9551 50.4905 48.3031V52.5787H56.2048V48.3035C56.2049 46.9556 56.6047 45.638 57.3537 44.5173C58.1026 43.3966 59.167 42.5232 60.4124 42.0075C61.6577 41.4917 63.028 41.3568 64.35 41.6199C65.672 41.8829 66.8863 42.5321 67.8394 43.4852C68.7924 44.4384 69.4415 45.6527 69.7044 46.9747C69.9673 48.2968 69.8323 49.667 69.3165 50.9123C68.8006 52.1576 67.9271 53.222 66.8063 53.9708C65.6856 54.7197 64.3679 55.1194 63.02 55.1194H58.9673V76.8881H65.2077C65.4486 64.5545 68.9422 60.1709 72.037 56.2885ZM56.2048 76.8881H50.4909V55.3426H56.2048V76.8881ZM56.0273 97.9867H48.9234C46.4928 97.9838 44.1626 97.017 42.4439 95.2984C40.7252 93.5798 39.7583 91.2496 39.7553 88.819V79.6514H65.1943V88.819C65.1919 91.2497 64.2253 93.5802 62.5067 95.2991C60.788 97.018 58.4576 97.9848 56.0269 97.9875L56.0273 97.9867ZM52.0001 6.01247C49.2622 6.01251 46.5859 6.82441 44.3094 8.34551C42.033 9.86661 40.2587 12.0286 39.211 14.5581C38.1633 17.0875 37.8892 19.8709 38.4233 22.5561C38.9575 25.2414 40.2759 27.7079 42.2118 29.6439C44.1478 31.5799 46.6144 32.8983 49.2996 33.4324C51.9849 33.9665 54.7682 33.6924 57.2977 32.6447C59.8271 31.597 61.9891 29.8227 63.5102 27.5463C65.0313 25.2699 65.8432 22.5935 65.8433 19.8556C65.8389 16.1855 64.379 12.667 61.7839 10.0718C59.1887 7.47669 55.6702 6.01682 52.0001 6.01247ZM68.5966 19.4817C68.5009 15.1435 66.7103 11.0153 63.6084 7.98102C60.5065 4.94671 56.3399 3.24753 52.0007 3.24731C47.6615 3.2471 43.4947 4.94588 40.3925 7.97988C37.2903 11.0139 35.4994 15.1419 35.4032 19.4801C31.9193 22.0737 29.0888 25.4446 27.1368 29.3245C25.1848 33.2045 24.1652 37.4864 24.1592 41.8297C24.1592 51.7485 27.3505 55.3003 30.4374 58.7352C33.6606 62.3216 36.992 66.0302 36.992 78.2691V88.8184C36.9956 91.9817 38.2538 95.0144 40.4905 97.2512C42.7273 99.488 45.7599 100.746 48.9232 100.75H56.0269C59.19 100.746 62.2226 99.4883 64.4593 97.2516C66.696 95.0148 67.954 91.9822 67.9574 88.819V78.2697C67.9574 65.8413 71.129 61.8605 74.1962 58.0108C76.9713 54.5291 79.8408 50.9289 79.8408 41.8303C79.8338 37.4874 78.8138 33.206 76.8619 29.3265C74.91 25.447 72.08 22.0762 68.5968 19.4823L68.5966 19.4817Z" fill="white"/>
<path fill-rule="evenodd" clip-rule="evenodd" d="M39.7549 88.819C39.7576 91.2497 40.7244 93.5801 42.4431 95.2989C44.1619 97.0177 46.4922 97.9846 48.9229 97.9875H56.0264C58.457 97.9848 60.7873 97.0181 62.5059 95.2994C64.2246 93.5807 65.1913 91.2504 65.1938 88.8198V79.6514H39.7553L39.7549 88.819Z" fill="#00ABEA"/>
<path fill-rule="evenodd" clip-rule="evenodd" d="M49.3726 24.4069C49.5591 24.5928 49.8118 24.6972 50.0752 24.6972C50.3386 24.6972 50.5912 24.5928 50.7778 24.4069L58.4238 16.7072C58.6099 16.5212 58.7144 16.2689 58.7144 16.0058C58.7144 15.7428 58.6099 15.4905 58.4238 15.3044C58.2378 15.1184 57.9855 15.0139 57.7224 15.0139C57.4594 15.0139 57.2071 15.1184 57.0211 15.3044L51.1883 21.1376C51.06 21.2659 50.9078 21.3677 50.7401 21.4372C50.5725 21.5066 50.3928 21.5424 50.2114 21.5424C50.0299 21.5424 49.8503 21.5066 49.6827 21.4372C49.515 21.3677 49.3627 21.2659 49.2345 21.1376L46.9798 18.8845C46.8875 18.7924 46.778 18.7193 46.6575 18.6695C46.537 18.6196 46.4079 18.594 46.2775 18.5941C46.1471 18.5942 46.018 18.6199 45.8976 18.6699C45.7771 18.7199 45.6677 18.7931 45.5756 18.8853C45.4834 18.9776 45.4103 19.0871 45.3605 19.2076C45.3107 19.3281 45.2851 19.4572 45.2852 19.5876C45.2852 19.718 45.311 19.8471 45.361 19.9675C45.4109 20.088 45.4841 20.1974 45.5764 20.2895C46.8756 21.5828 48.1433 23.1766 49.3726 24.4069Z" fill="#00ABEA"/>
</svg>
