<svg width="104" height="104" viewBox="0 0 104 104" fill="none" xmlns="http://www.w3.org/2000/svg">
<path fill-rule="evenodd" clip-rule="evenodd" d="M52 97.9875C35.713 97.9875 21.3761 89.4751 13.2051 76.6679L53.9959 52.8172L86.5282 82.3749C82.2169 87.2863 76.906 91.2199 70.9513 93.9125C64.9965 96.6051 58.5352 97.9944 52 97.9875ZM52 6.0125C26.6421 6.0125 6.01249 26.6427 6.01249 52C6.00448 59.8022 7.99364 67.4766 11.7906 74.2926L52.6041 50.4294V6.01758C52.401 6.01453 52.2003 6.01311 52.0004 6.01311L52 6.0125ZM55.367 50.3305V4.67594C55.367 4.31977 55.2294 3.97736 54.983 3.72021C54.7365 3.46306 54.4003 3.31104 54.0444 3.29591C53.3244 3.26462 52.6551 3.25 52 3.25C42.3582 3.25029 32.933 6.10961 24.9162 11.4664C16.8993 16.8232 10.651 24.4369 6.96114 33.3447C3.27131 42.2526 2.30574 52.0545 4.18652 61.5111C6.0673 70.9677 10.71 79.6543 17.5274 86.4723C22.3231 91.2678 28.0665 95.01 34.3906 97.4595C40.7147 99.9091 47.4804 101.012 54.255 100.698C61.0297 100.384 67.6643 98.6603 73.7348 95.6364C79.8053 92.6125 85.1781 88.3553 89.5097 83.1368C89.7376 82.8633 89.8511 82.5122 89.8265 82.157C89.8019 81.8018 89.641 81.4698 89.3774 81.2303L55.3672 50.3311L55.367 50.3305ZM92.2854 74.19C96.0308 67.3941 97.9925 59.7597 97.9875 52C97.9875 30.875 83.3903 12.3669 63.0417 7.35109V47.6196L92.2854 74.19ZM89.6545 21.0358C82.5893 12.4603 72.8143 6.54665 61.9393 4.26867C61.7384 4.22699 61.5307 4.23062 61.3313 4.27927C61.1319 4.32793 60.9459 4.4204 60.7868 4.54996C60.6276 4.67952 60.4993 4.84291 60.4113 5.02827C60.3232 5.21362 60.2775 5.41627 60.2775 5.62148V48.2312C60.2775 48.4237 60.3176 48.6141 60.3954 48.7901C60.4732 48.9662 60.5869 49.124 60.7293 49.2535L91.6973 77.3894C91.8486 77.5267 92.0283 77.6287 92.2237 77.6881C92.4191 77.7475 92.6253 77.7629 92.8273 77.7331C93.0293 77.7032 93.2223 77.629 93.3922 77.5156C93.562 77.4023 93.7047 77.2527 93.8098 77.0776C98.9828 68.4486 101.36 58.4308 100.616 48.3975C99.8718 38.3643 96.0425 28.8068 89.6531 21.0354L89.6545 21.0358Z" fill="white"/>
<path fill-rule="evenodd" clip-rule="evenodd" d="M52.0002 6.01245C26.6423 6.01245 6.01272 26.6426 6.01272 52C6.00471 59.8021 7.99386 67.4765 11.7908 74.2925L52.6043 50.4294V6.01753C52.4008 6.01448 52.2003 6.01245 52.0002 6.01245Z" fill="#00ABEA"/>
<path fill-rule="evenodd" clip-rule="evenodd" d="M53.9966 52.8171L13.2061 76.6671C21.377 89.4743 35.7139 97.9875 52.0007 97.9875C58.5358 97.9944 64.997 96.6052 70.9518 93.9128C76.9065 91.2204 82.2173 87.2869 86.5287 82.3757L53.9966 52.8171Z" fill="#00ABEA"/>
</svg>
