<svg width="104" height="104" viewBox="0 0 104 104" fill="none" xmlns="http://www.w3.org/2000/svg">
<path fill-rule="evenodd" clip-rule="evenodd" d="M78.2623 8.92389V4.63125C78.2623 4.26492 78.4079 3.91359 78.6669 3.65456C78.9259 3.39552 79.2773 3.25 79.6436 3.25C80.0099 3.25 80.3612 3.39552 80.6203 3.65456C80.8793 3.91359 81.0248 4.26492 81.0248 4.63125V8.92389C81.0248 9.29022 80.8793 9.64155 80.6203 9.90058C80.3612 10.1596 80.0099 10.3051 79.6436 10.3051C79.2773 10.3051 78.9259 10.1596 78.6669 9.90058C78.4079 9.64155 78.2623 9.29022 78.2623 8.92389ZM64.5695 8.92389V4.63125C64.5695 4.26492 64.715 3.91359 64.974 3.65456C65.2331 3.39552 65.5844 3.25 65.9507 3.25C66.317 3.25 66.6684 3.39552 66.9274 3.65456C67.1864 3.91359 67.332 4.26492 67.332 4.63125V8.92348C67.332 9.28981 67.1864 9.64114 66.9274 9.90018C66.6684 10.1592 66.317 10.3047 65.9507 10.3047C65.5844 10.3047 65.2331 10.1592 64.974 9.90018C64.715 9.64114 64.5695 9.28981 64.5695 8.92348V8.92389ZM50.8734 8.92389V4.63125C50.8734 4.26492 51.0189 3.91359 51.2779 3.65456C51.537 3.39552 51.8883 3.25 52.2546 3.25C52.6209 3.25 52.9723 3.39552 53.2313 3.65456C53.4903 3.91359 53.6359 4.26492 53.6359 4.63125V8.92348C53.6359 9.29 53.4903 9.64151 53.2311 9.90068C52.9719 10.1598 52.6204 10.3054 52.2539 10.3054C51.8874 10.3054 51.5359 10.1598 51.2767 9.90068C51.0175 9.64151 50.8719 9.29 50.8719 8.92348L50.8734 8.92389ZM37.1805 8.92389V4.63125C37.1805 4.26492 37.326 3.91359 37.5851 3.65456C37.8441 3.39552 38.1954 3.25 38.5618 3.25C38.9281 3.25 39.2794 3.39552 39.5384 3.65456C39.7975 3.91359 39.943 4.26492 39.943 4.63125V8.92348C39.943 9.28981 39.7975 9.64114 39.5384 9.90018C39.2794 10.1592 38.9281 10.3047 38.5618 10.3047C38.1954 10.3047 37.8441 10.1592 37.5851 9.90018C37.326 9.64114 37.1805 9.28981 37.1805 8.92348V8.92389ZM84.0888 21.8006V17.5094C84.0888 17.143 84.2343 16.7917 84.4933 16.5327C84.7524 16.2736 85.1037 16.1281 85.47 16.1281C85.8363 16.1281 86.1877 16.2736 86.4467 16.5327C86.7057 16.7917 86.8513 17.143 86.8513 17.5094V21.8014C86.8513 22.1677 86.7057 22.5191 86.4467 22.7781C86.1877 23.0371 85.8363 23.1827 85.47 23.1827C85.1037 23.1827 84.7524 23.0371 84.4933 22.7781C84.2343 22.5191 84.0888 22.1677 84.0888 21.8014V21.8006ZM70.7014 21.8006V17.5094C70.7014 17.143 70.8469 16.7917 71.106 16.5327C71.365 16.2736 71.7163 16.1281 72.0827 16.1281C72.449 16.1281 72.8003 16.2736 73.0593 16.5327C73.3184 16.7917 73.4639 17.143 73.4639 17.5094V21.8014C73.4639 22.1677 73.3184 22.5191 73.0593 22.7781C72.8003 23.0371 72.449 23.1827 72.0827 23.1827C71.7163 23.1827 71.365 23.0371 71.106 22.7781C70.8469 22.5191 70.7014 22.1677 70.7014 21.8014V21.8006ZM57.3143 21.8006V17.5094C57.3143 17.143 57.4598 16.7917 57.7188 16.5327C57.9778 16.2736 58.3292 16.1281 58.6955 16.1281C59.0618 16.1281 59.4132 16.2736 59.6722 16.5327C59.9312 16.7917 60.0767 17.143 60.0767 17.5094V21.8014C60.0767 22.1679 59.9312 22.5194 59.672 22.7786C59.4128 23.0378 59.0613 23.1834 58.6948 23.1834C58.3283 23.1834 57.9768 23.0378 57.7176 22.7786C57.4584 22.5194 57.3128 22.1679 57.3128 21.8014L57.3143 21.8006ZM43.9245 21.8006V17.5094C43.9245 17.143 44.07 16.7917 44.329 16.5327C44.588 16.2736 44.9394 16.1281 45.3057 16.1281C45.672 16.1281 46.0234 16.2736 46.2824 16.5327C46.5414 16.7917 46.687 17.143 46.687 17.5094V21.8014C46.687 22.1677 46.5414 22.5191 46.2824 22.7781C46.0234 23.0371 45.672 23.1827 45.3057 23.1827C44.9394 23.1827 44.588 23.0371 44.329 22.7781C44.07 22.5191 43.9245 22.1677 43.9245 21.8014V21.8006ZM30.5371 21.8006V17.5094C30.5371 17.143 30.6826 16.7917 30.9417 16.5327C31.2007 16.2736 31.552 16.1281 31.9183 16.1281C32.2847 16.1281 32.636 16.2736 32.895 16.5327C33.1541 16.7917 33.2996 17.143 33.2996 17.5094V21.8014C33.2996 22.1677 33.1541 22.5191 32.895 22.7781C32.636 23.0371 32.2847 23.1827 31.9183 23.1827C31.552 23.1827 31.2007 23.0371 30.9417 22.7781C30.6826 22.5191 30.5371 22.1677 30.5371 21.8014V21.8006ZM23.4852 8.92389V4.63125C23.4852 4.44986 23.5209 4.27025 23.5903 4.10267C23.6598 3.93509 23.7615 3.78282 23.8898 3.65456C24.018 3.5263 24.1703 3.42456 24.3379 3.35514C24.5055 3.28573 24.6851 3.25 24.8665 3.25C25.0478 3.25 25.2275 3.28573 25.395 3.35514C25.5626 3.42456 25.7149 3.5263 25.8431 3.65456C25.9714 3.78282 26.0731 3.93509 26.1426 4.10267C26.212 4.27025 26.2477 4.44986 26.2477 4.63125V8.92348C26.2477 9.10487 26.212 9.28449 26.1426 9.45207C26.0731 9.61965 25.9714 9.77191 25.8431 9.90018C25.7149 10.0284 25.5626 10.1302 25.395 10.1996C25.2275 10.269 25.0478 10.3047 24.8665 10.3047C24.6851 10.3047 24.5055 10.269 24.3379 10.1996C24.1703 10.1302 24.018 10.0284 23.8898 9.90018C23.7615 9.77191 23.6598 9.61965 23.5903 9.45207C23.5209 9.28449 23.4852 9.10487 23.4852 8.92348V8.92389ZM17.1491 21.8006V17.5094C17.1491 17.328 17.1849 17.1484 17.2543 16.9808C17.3237 16.8132 17.4254 16.6609 17.5537 16.5327C17.6819 16.4044 17.8342 16.3027 18.0018 16.2333C18.1694 16.1639 18.349 16.1281 18.5304 16.1281C18.7118 16.1281 18.8914 16.1639 19.059 16.2333C19.2265 16.3027 19.3788 16.4044 19.5071 16.5327C19.6353 16.6609 19.7371 16.8132 19.8065 16.9808C19.8759 17.1484 19.9116 17.328 19.9116 17.5094V21.8014C19.9116 21.9828 19.8759 22.1624 19.8065 22.33C19.7371 22.4976 19.6353 22.6498 19.5071 22.7781C19.3788 22.9064 19.2265 23.0081 19.059 23.0775C18.8914 23.1469 18.7118 23.1827 18.5304 23.1827C18.349 23.1827 18.1694 23.1469 18.0018 23.0775C17.8342 23.0081 17.6819 22.9064 17.5537 22.7781C17.4254 22.6498 17.3237 22.4976 17.2543 22.33C17.1849 22.1624 17.1491 21.9828 17.1491 21.8014V21.8006ZM88.6361 41.1671C88.6339 41.3556 88.5581 41.5356 88.4249 41.6689C88.2918 41.8022 88.1118 41.8782 87.9234 41.8807H16.078C15.8896 41.8784 15.7096 41.8025 15.5763 41.6693C15.4431 41.536 15.3672 41.356 15.3649 41.1675V33.5024C15.3671 33.314 15.4428 33.134 15.576 33.0007C15.7091 32.8674 15.8891 32.7915 16.0774 32.789H87.9238C88.1119 32.7918 88.2915 32.868 88.4243 33.0013C88.5571 33.1346 88.6326 33.3145 88.6347 33.5026V41.1673L88.6361 41.1671ZM61.8236 65.1664C61.6599 65.3625 61.554 65.6004 61.5177 65.8533L57.5426 93.2738L47.2362 97.4303L42.5859 65.8513C42.5482 65.5994 42.4425 65.3625 42.28 65.1664L25.1602 44.6438H78.9418L61.8234 65.1664H61.8236ZM87.924 30.0257H16.078C15.1563 30.0268 14.2727 30.3935 13.6209 31.0452C12.9692 31.697 12.6026 32.5807 12.6016 33.5024V41.1671C12.6025 42.0888 12.969 42.9725 13.6206 43.6242C14.2722 44.276 15.1558 44.6427 16.0774 44.6438H21.564L39.9081 66.6388L44.7575 99.5696C44.7876 99.7765 44.8643 99.9738 44.9819 100.147C45.0995 100.319 45.2548 100.463 45.4361 100.567C45.6174 100.671 45.82 100.733 46.0285 100.747C46.237 100.761 46.4461 100.728 46.6398 100.649L59.3128 95.5394C59.5369 95.449 59.7333 95.3013 59.8825 95.1112C60.0317 94.9211 60.1283 94.6951 60.1629 94.456L64.1951 66.6366L82.5389 44.6438H87.9232C88.8447 44.6427 89.7282 44.276 90.3797 43.6243C91.0312 42.9725 91.3976 42.0889 91.3984 41.1673V33.5024C91.3975 32.581 91.0312 31.6975 90.3798 31.0458C89.7285 30.394 88.8452 30.0272 87.9238 30.0257H87.924Z" fill="white"/>
<path d="M16.0774 32.7891H87.9227C88.1118 32.7891 88.2931 32.8642 88.4268 32.9978C88.5604 33.1315 88.6355 33.3128 88.6355 33.5018V41.1686C88.6355 41.3575 88.5605 41.5386 88.4269 41.6721C88.2934 41.8057 88.1122 41.8807 87.9234 41.8807H16.0768C15.8878 41.8807 15.7066 41.8057 15.573 41.672C15.4393 41.5384 15.3643 41.3572 15.3643 41.1682V33.5022C15.3643 33.3131 15.4394 33.1317 15.5731 32.9979C15.7069 32.8642 15.8883 32.7891 16.0774 32.7891Z" fill="#00ABEA"/>
</svg>
