<svg width="104" height="104" viewBox="0 0 104 104" fill="none" xmlns="http://www.w3.org/2000/svg">
<path fill-rule="evenodd" clip-rule="evenodd" d="M72.31 68.0164V78.4708C72.31 78.8372 72.1645 79.1885 71.9054 79.4475C71.6464 79.7066 71.2951 79.8521 70.9287 79.8521C70.5624 79.8521 70.2111 79.7066 69.952 79.4475C69.693 79.1885 69.5475 78.8372 69.5475 78.4708V68.0164C69.5475 67.6501 69.693 67.2988 69.952 67.0397C70.2111 66.7807 70.5624 66.6352 70.9287 66.6352C71.2951 66.6352 71.6464 66.7807 71.9054 67.0397C72.1645 67.2988 72.31 67.6501 72.31 68.0164ZM70.9287 59.4348C71.2951 59.4348 71.6464 59.5803 71.9054 59.8393C72.1645 60.0984 72.31 60.4497 72.31 60.816V61.9052C72.31 62.2715 72.1645 62.6228 71.9054 62.8819C71.6464 63.1409 71.2951 63.2864 70.9287 63.2864C70.5624 63.2864 70.2111 63.1409 69.952 62.8819C69.693 62.6228 69.5475 62.2715 69.5475 61.9052V60.8156C69.5475 60.4493 69.693 60.098 69.952 59.8389C70.2111 59.5799 70.5624 59.4344 70.9287 59.4344V59.4348ZM78.2616 8.9243V4.63125C78.2616 4.26492 78.4071 3.91359 78.6661 3.65456C78.9251 3.39552 79.2765 3.25 79.6428 3.25C80.0091 3.25 80.3605 3.39552 80.6195 3.65456C80.8785 3.91359 81.0241 4.26492 81.0241 4.63125V8.9243C81.0241 9.29063 80.8785 9.64195 80.6195 9.90099C80.3605 10.16 80.0091 10.3055 79.6428 10.3055C79.2765 10.3055 78.9251 10.16 78.6661 9.90099C78.4071 9.64195 78.2616 9.29063 78.2616 8.9243ZM64.5671 8.9243V4.63125C64.5671 4.26492 64.7126 3.91359 64.9716 3.65456C65.2307 3.39552 65.582 3.25 65.9483 3.25C66.3146 3.25 66.666 3.39552 66.925 3.65456C67.184 3.91359 67.3296 4.26492 67.3296 4.63125V8.9243C67.3296 9.29063 67.184 9.64195 66.925 9.90099C66.666 10.16 66.3146 10.3055 65.9483 10.3055C65.582 10.3055 65.2307 10.16 64.9716 9.90099C64.7126 9.64195 64.5671 9.29063 64.5671 8.9243ZM50.8726 8.9243V4.63125C50.8726 4.26492 51.0181 3.91359 51.2771 3.65456C51.5362 3.39552 51.8875 3.25 52.2538 3.25C52.6202 3.25 52.9715 3.39552 53.2305 3.65456C53.4896 3.91359 53.6351 4.26492 53.6351 4.63125V8.9243C53.6351 9.29063 53.4896 9.64195 53.2305 9.90099C52.9715 10.16 52.6202 10.3055 52.2538 10.3055C51.8875 10.3055 51.5362 10.16 51.2771 9.90099C51.0181 9.64195 50.8726 9.29063 50.8726 8.9243ZM37.1781 8.9243V4.63125C37.1781 4.26492 37.3236 3.91359 37.5827 3.65456C37.8417 3.39552 38.193 3.25 38.5594 3.25C38.9257 3.25 39.277 3.39552 39.536 3.65456C39.7951 3.91359 39.9406 4.26492 39.9406 4.63125V8.9243C39.9406 9.29063 39.7951 9.64195 39.536 9.90099C39.277 10.16 38.9257 10.3055 38.5594 10.3055C38.193 10.3055 37.8417 10.16 37.5827 9.90099C37.3236 9.64195 37.1781 9.29063 37.1781 8.9243ZM84.0874 21.8004V17.5078C84.0874 17.1414 84.2329 16.7901 84.4919 16.5311C84.751 16.272 85.1023 16.1265 85.4686 16.1265C85.835 16.1265 86.1863 16.272 86.4453 16.5311C86.7044 16.7901 86.8499 17.1414 86.8499 17.5078V21.8002C86.8499 22.1665 86.7044 22.5178 86.4453 22.7769C86.1863 23.0359 85.835 23.1814 85.4686 23.1814C85.1023 23.1814 84.751 23.0359 84.4919 22.7769C84.2329 22.5178 84.0874 22.1667 84.0874 21.8004ZM70.6994 21.8004V17.5078C70.6994 17.1414 70.8449 16.7901 71.104 16.5311C71.363 16.272 71.7143 16.1265 72.0807 16.1265C72.447 16.1265 72.7983 16.272 73.0574 16.5311C73.3164 16.7901 73.4619 17.1414 73.4619 17.5078V21.8002C73.4619 22.1665 73.3164 22.5178 73.0574 22.7769C72.7983 23.0359 72.447 23.1814 72.0807 23.1814C71.7143 23.1814 71.363 23.0359 71.104 22.7769C70.8449 22.5178 70.6994 22.1667 70.6994 21.8004ZM57.3114 21.8004V17.5078C57.3114 17.1414 57.457 16.7901 57.716 16.5311C57.975 16.272 58.3264 16.1265 58.6927 16.1265C59.059 16.1265 59.4104 16.272 59.6694 16.5311C59.9284 16.7901 60.0739 17.1414 60.0739 17.5078V21.8002C60.0739 22.1665 59.9284 22.5178 59.6694 22.7769C59.4104 23.0359 59.059 23.1814 58.6927 23.1814C58.3264 23.1814 57.975 23.0359 57.716 22.7769C57.457 22.5178 57.3114 22.1667 57.3114 21.8004ZM43.9237 21.8004V17.5078C43.9237 17.1414 44.0692 16.7901 44.3282 16.5311C44.5873 16.272 44.9386 16.1265 45.3049 16.1265C45.6713 16.1265 46.0226 16.272 46.2816 16.5311C46.5407 16.7901 46.6862 17.1414 46.6862 17.5078V21.8002C46.6862 22.1665 46.5407 22.5178 46.2816 22.7769C46.0226 23.0359 45.6713 23.1814 45.3049 23.1814C44.9386 23.1814 44.5873 23.0359 44.3282 22.7769C44.0692 22.5178 43.9237 22.1667 43.9237 21.8004ZM30.5357 21.8004V17.5078C30.5357 17.1414 30.6812 16.7901 30.9403 16.5311C31.1993 16.272 31.5506 16.1265 31.917 16.1265C32.2833 16.1265 32.6346 16.272 32.8937 16.5311C33.1527 16.7901 33.2982 17.1414 33.2982 17.5078V21.8002C33.2982 22.1665 33.1527 22.5178 32.8937 22.7769C32.6346 23.0359 32.2833 23.1814 31.917 23.1814C31.5506 23.1814 31.1993 23.0359 30.9403 22.7769C30.6812 22.5178 30.5357 22.1667 30.5357 21.8004ZM23.4838 8.9243V4.63125C23.4838 4.26492 23.6293 3.91359 23.8884 3.65456C24.1474 3.39552 24.4987 3.25 24.8651 3.25C25.2314 3.25 25.5827 3.39552 25.8418 3.65456C26.1008 3.91359 26.2463 4.26492 26.2463 4.63125V8.9243C26.2463 9.10569 26.2106 9.2853 26.1412 9.45288C26.0718 9.62046 25.97 9.77273 25.8418 9.90099C25.7135 10.0292 25.5612 10.131 25.3937 10.2004C25.2261 10.2698 25.0465 10.3055 24.8651 10.3055C24.6837 10.3055 24.5041 10.2698 24.3365 10.2004C24.1689 10.131 24.0166 10.0292 23.8884 9.90099C23.7601 9.77273 23.6584 9.62046 23.589 9.45288C23.5195 9.2853 23.4838 9.10569 23.4838 8.9243ZM17.1479 21.8004V17.5078C17.1479 17.1414 17.2935 16.7901 17.5525 16.5311C17.8115 16.272 18.1629 16.1265 18.5292 16.1265C18.8955 16.1265 19.2469 16.272 19.5059 16.5311C19.7649 16.7901 19.9104 17.1414 19.9104 17.5078V21.8002C19.9104 22.1665 19.7649 22.5178 19.5059 22.7769C19.2469 23.0359 18.8955 23.1814 18.5292 23.1814C18.1629 23.1814 17.8115 23.0359 17.5525 22.7769C17.2935 22.5178 17.1479 22.1667 17.1479 21.8004ZM88.6349 41.1663C88.6325 41.3549 88.5566 41.535 88.4233 41.6685C88.2901 41.8019 88.1101 41.8781 87.9216 41.8809H16.0773C15.8887 41.8782 15.7086 41.8021 15.5753 41.6686C15.442 41.5351 15.3661 41.3549 15.3637 41.1663V33.5026C15.3661 33.314 15.442 33.1339 15.5753 33.0004C15.7086 32.867 15.8887 32.7909 16.0773 32.7882H87.9226C88.1111 32.791 88.2912 32.8672 88.4244 33.0006C88.5576 33.1341 88.6335 33.3143 88.636 33.5028V41.1665L88.6349 41.1663ZM73.0026 51.7611L78.9398 44.6438H25.1602L42.2784 65.1664C42.4415 65.362 42.5474 65.599 42.5843 65.8511L47.234 97.4301L57.542 93.2736L58.7439 84.9822C58.3118 84.6211 57.8908 84.2418 57.4845 83.8374C54.8465 81.1994 53.05 77.8384 52.3221 74.1794C51.5943 70.5204 51.9678 66.7278 53.3955 63.2811C54.8231 59.8344 57.2408 56.8884 60.3428 54.8157C63.4447 52.7431 67.0916 51.6368 70.8223 51.6368C71.551 51.6374 72.279 51.6789 73.0031 51.7611H73.0026ZM86.9214 70.4992C86.9201 66.7781 85.6288 63.1725 83.2674 60.2967C80.906 57.4208 77.6207 55.4526 73.971 54.7272C70.3212 54.0019 66.5329 54.5643 63.2513 56.3186C59.9697 58.073 57.3979 60.9108 55.9738 64.3486C54.5497 67.7865 54.3616 71.6117 55.4414 75.1727C56.5212 78.7336 58.8022 81.8101 61.8958 83.8781C64.9893 85.946 68.7042 86.8775 72.4075 86.5138C76.1108 86.1501 79.5734 84.5138 82.2056 81.8835C83.7054 80.392 84.8944 78.6179 85.7039 76.6637C86.5133 74.7096 86.9272 72.6143 86.9214 70.4992ZM87.9212 30.0247H16.0773C15.1554 30.0261 14.2717 30.393 13.62 31.045C12.9683 31.697 12.6017 32.5808 12.6006 33.5026V41.1663C12.6014 42.0882 12.9679 42.9722 13.6197 43.6242C14.2715 44.2762 15.1554 44.643 16.0773 44.644H21.5616L39.9065 66.6388L44.7561 99.5696C44.7865 99.7764 44.8635 99.9736 44.9813 100.146C45.099 100.319 45.2544 100.463 45.4357 100.567C45.6171 100.671 45.8197 100.732 46.0282 100.746C46.2368 100.761 46.4458 100.728 46.6397 100.649L59.312 95.5394C59.5362 95.449 59.7328 95.3014 59.882 95.1112C60.0312 94.921 60.128 94.695 60.1625 94.4558L61.2766 86.7683C63.5831 88.1194 66.1504 88.965 68.8084 89.2488C71.4664 89.5327 74.1544 89.2485 76.6942 88.415C79.234 87.5814 81.5677 86.2176 83.5406 84.414C85.5134 82.6103 87.0805 80.4079 88.1378 77.9528C89.1951 75.4977 89.7186 72.846 89.6736 70.1732C89.6285 67.5005 89.016 64.8679 87.8765 62.4498C86.7371 60.0317 85.0967 57.8834 83.0642 56.1473C81.0317 54.4111 78.6534 53.1267 76.0869 52.3792L82.5386 44.644H87.9214C88.8432 44.643 89.7271 44.2763 90.3788 43.6243C91.0306 42.9723 91.3971 42.0884 91.3979 41.1665V33.5026C91.3968 32.5809 91.0303 31.6972 90.3787 31.0453C89.7272 30.3933 88.8437 30.0263 87.922 30.0247H87.9212Z" fill="white"/>
<path fill-rule="evenodd" clip-rule="evenodd" d="M88.6359 41.1664V33.5027C88.6335 33.3141 88.5576 33.1339 88.4244 33.0005C88.2911 32.867 88.1111 32.7908 87.9225 32.7881H16.0778C15.8893 32.7907 15.7092 32.8669 15.5759 33.0003C15.4426 33.1337 15.3667 33.3139 15.3643 33.5025V41.1662C15.3667 41.3548 15.4426 41.535 15.5759 41.6684C15.7091 41.8019 15.8892 41.8781 16.0778 41.8808H87.9231C88.1115 41.8778 88.2914 41.8016 88.4245 41.6682C88.5575 41.5348 88.6334 41.3548 88.6359 41.1664Z" fill="#00ABEA"/>
</svg>
