<svg width="104" height="104" viewBox="0 0 104 104" fill="none" xmlns="http://www.w3.org/2000/svg">
<path fill-rule="evenodd" clip-rule="evenodd" d="M28.0275 81.8392C28.156 81.9673 28.258 82.1196 28.3276 82.2873C28.3972 82.4549 28.433 82.6347 28.433 82.8162C28.433 82.9977 28.3972 83.1775 28.3276 83.3451C28.258 83.5128 28.156 83.6651 28.0275 83.7932L20.1151 91.7066C19.9869 91.8349 19.8346 91.9368 19.6669 92.0062C19.4993 92.0757 19.3196 92.1115 19.1381 92.1115C18.9566 92.1115 18.777 92.0757 18.6093 92.0062C18.4417 91.9368 18.2894 91.8349 18.1611 91.7066L14.267 87.8125C14.0079 87.5534 13.8623 87.202 13.8623 86.8355C13.8623 86.4691 14.0079 86.1177 14.267 85.8586C14.5261 85.5995 14.8775 85.4539 15.2439 85.4539C15.6103 85.4539 15.9617 85.5995 16.2208 85.8586L19.1381 88.7757L26.0754 81.8392C26.3344 81.5805 26.6855 81.4353 27.0515 81.4353C27.4175 81.4353 27.7685 81.5805 28.0275 81.8392ZM37.7608 6.04084V17.0953L27.5469 23.0672C26.7462 21.2885 26.3877 19.3424 26.5021 17.3952C26.6165 15.4479 27.2004 13.5572 28.2038 11.8845C29.2073 10.2117 30.6005 8.80664 32.2647 7.78907C33.9289 6.77151 35.8146 6.1717 37.7608 6.04084ZM38.5778 30.2066C41.7168 30.2095 44.7334 28.989 46.9872 26.8041L39.0171 19.5625L28.9625 25.4403C30.0897 26.9214 31.5438 28.1221 33.2113 28.9489C34.8789 29.7756 36.7149 30.2061 38.5762 30.2066H38.5778ZM38.5778 32.9691C40.7612 32.9712 42.9182 32.4911 44.8946 31.5631C46.871 30.6351 48.6182 29.2822 50.0113 27.6009C50.2384 27.3269 50.3511 26.9759 50.3262 26.6208C50.3012 26.2658 50.1404 25.934 49.8772 25.6944L40.5233 17.1979V4.64334C40.5232 4.2873 40.3855 3.94508 40.1392 3.68806C39.8928 3.43105 39.5567 3.2791 39.201 3.26391C38.9938 3.25579 38.7846 3.2501 38.5772 3.2501C36.6211 3.24287 34.6829 3.62189 32.8737 4.36542C31.0645 5.10895 29.4199 6.20236 28.0342 7.58293C26.6485 8.9635 25.549 10.6041 24.7988 12.4105C24.0486 14.217 23.6624 16.1538 23.6624 18.1098C23.6624 20.0659 24.0486 22.0026 24.7988 23.8091C25.549 25.6156 26.6485 27.2561 28.0342 28.6367C29.4199 30.0173 31.0645 31.1107 32.8737 31.8542C34.6829 32.5977 36.6211 32.9768 38.5772 32.9695L38.5778 32.9691ZM44.4782 6.78305C45.8929 7.31421 47.1867 8.12372 48.2831 9.1637C49.3795 10.2037 50.2561 11.453 50.8612 12.8377C51.4662 14.2225 51.7874 15.7145 51.8057 17.2256C51.824 18.7366 51.539 20.236 50.9676 21.6349L44.4782 15.7396V6.78305ZM50.4545 24.9018L42.1686 17.3738C42.0255 17.2443 41.9112 17.0862 41.833 16.9097C41.7548 16.7332 41.7146 16.5423 41.7148 16.3492V4.94741C41.7152 4.74233 41.7611 4.53989 41.8493 4.35476C41.9376 4.16963 42.0659 4.00645 42.225 3.87704C42.3841 3.74763 42.57 3.65525 42.7692 3.60657C42.9684 3.5579 43.176 3.55415 43.3768 3.59562C45.573 4.05321 47.6279 5.02965 49.3698 6.44338C51.1116 7.8571 52.49 9.66708 53.3897 11.7222C54.2893 13.7772 54.6843 16.0177 54.5414 18.2566C54.3986 20.4954 53.7222 22.6676 52.5686 24.5916C52.463 24.7664 52.3202 24.9156 52.1503 25.0289C51.9804 25.1421 51.7876 25.2165 51.5857 25.2467C51.519 25.2563 51.4518 25.2609 51.3844 25.2605C51.0407 25.2606 50.7093 25.1326 50.4549 24.9014L50.4545 24.9018ZM17.7603 23.4231C17.7603 23.057 17.9056 22.7059 18.1643 22.4469C18.423 22.188 18.7739 22.0422 19.1399 22.0418H19.1422C19.4154 22.0418 19.6824 22.1228 19.9096 22.2746C20.1367 22.4264 20.3137 22.6421 20.4183 22.8945C20.5228 23.1469 20.5502 23.4246 20.4969 23.6925C20.4436 23.9605 20.312 24.2066 20.1189 24.3997C19.9257 24.5929 19.6796 24.7245 19.4116 24.7778C19.1437 24.8311 18.866 24.8037 18.6136 24.6992C18.3612 24.5946 18.1455 24.4176 17.9937 24.1904C17.8419 23.9633 17.7609 23.6962 17.7609 23.4231H17.7603ZM23.5809 44.1684C23.6765 44.4374 23.853 44.6702 24.0862 44.8349C24.3194 44.9995 24.5978 45.088 24.8833 45.0882C25.0415 45.0881 25.1985 45.0606 25.3472 45.0069C46.819 37.3631 66.607 27.8282 84.2242 16.6472L82.6175 20.9423C82.4893 21.2857 82.5027 21.6659 82.6549 21.9994C82.807 22.3329 83.0854 22.5922 83.4288 22.7204C83.7722 22.8487 84.1524 22.8352 84.4859 22.6831C84.8194 22.5309 85.0787 22.2525 85.207 21.9092L88.2741 13.7068C88.3501 13.5038 88.3772 13.2857 88.3533 13.0703C88.3294 12.8548 88.2551 12.648 88.1364 12.4666C88.0178 12.2852 87.8581 12.1343 87.6703 12.026C87.4825 11.9178 87.2718 11.8553 87.0554 11.8435L77.9568 11.3442C77.5909 11.3241 77.232 11.4501 76.9591 11.6946C76.6861 11.939 76.5215 12.2819 76.5013 12.6478C76.4812 13.0137 76.6072 13.3725 76.8517 13.6455C77.0961 13.9185 77.439 14.0831 77.8049 14.1033L82.6581 14.3698C65.2353 25.4186 45.6644 34.8427 24.4196 42.4041C24.0746 42.5272 23.7926 42.782 23.6354 43.1128C23.4781 43.4436 23.4585 43.8232 23.5809 44.1684ZM41.5274 81.3033H34.0079C33.0587 79.0858 31.5536 77.1505 29.6381 75.6845V60.2776L35.5825 55.7183L41.5272 60.2776L41.5274 81.3033ZM21.1474 97.9876C23.365 97.9876 25.5329 97.33 27.3768 96.098C29.2206 94.8659 30.6578 93.1148 31.5064 91.0659C32.3551 89.0171 32.5771 86.7627 32.1445 84.5876C31.7118 82.4126 30.644 80.4148 29.0759 78.8467C27.5078 77.2786 25.5099 76.2107 23.3349 75.778C21.1599 75.3454 18.9054 75.5675 16.8566 76.4161C14.8078 77.2647 13.0566 78.7019 11.8246 80.5458C10.5925 82.3897 9.93493 84.5575 9.93493 86.7751C9.93869 89.7477 11.1212 92.5974 13.2231 94.6994C15.3251 96.8013 18.1748 97.9838 21.1474 97.9876ZM43.7498 58.5021L36.4236 52.8829C36.1824 52.6978 35.8869 52.5975 35.5828 52.5975C35.2788 52.5975 34.9832 52.6978 34.742 52.8829L27.4157 58.5013C27.2476 58.6303 27.1114 58.7961 27.0176 58.986C26.9238 59.176 26.875 59.3849 26.8747 59.5968V74.0302C24.0159 72.7451 20.8082 72.4578 17.7665 73.2146C14.7248 73.9713 12.0256 75.7281 10.1022 78.203C8.17875 80.6779 7.14272 83.7273 7.16038 86.8616C7.17804 89.996 8.24836 93.0335 10.1995 95.4866C12.1507 97.9396 14.8695 99.6659 17.9195 100.388C20.9696 101.111 24.1739 100.787 27.0181 99.4701C29.8622 98.1529 32.1813 95.9181 33.603 93.1247C35.0247 90.3312 35.4665 87.1411 34.8575 84.0664H42.9084C43.2747 84.0664 43.6261 83.9209 43.8851 83.6619C44.1441 83.4028 44.2897 83.0515 44.2897 82.6852V59.597C44.2899 59.3851 44.2412 59.176 44.1474 58.986C44.0536 58.7959 43.9171 58.6302 43.7487 58.5015L43.7498 58.5021ZM67.7955 81.3033H55.9078V46.8054L61.8525 42.246L67.7955 46.8054V81.3033ZM70.0171 45.027C70.1854 45.1561 70.3217 45.3221 70.4154 45.5124C70.5092 45.7026 70.5579 45.9118 70.5578 46.1239V82.685C70.5578 83.0513 70.4123 83.4026 70.1532 83.6617C69.8942 83.9207 69.5429 84.0662 69.1765 84.0662H54.5261C54.1598 84.0662 53.8085 83.9207 53.5494 83.6617C53.2904 83.4026 53.1449 83.0513 53.1449 82.685V46.1243C53.1449 45.9122 53.1937 45.703 53.2875 45.5128C53.3813 45.3226 53.5176 45.1565 53.6858 45.0274L61.0121 39.4104C61.2533 39.2251 61.5489 39.1247 61.853 39.1247C62.1571 39.1247 62.4527 39.2251 62.6938 39.4104L70.0171 45.027ZM94.065 81.3033H82.1755V31.3118L88.1202 26.7517L94.065 31.3118V81.3033ZM96.2874 29.5345C96.4556 29.6636 96.5919 29.8297 96.6856 30.0199C96.7794 30.2101 96.8282 30.4193 96.8281 30.6314V82.685C96.8281 83.0513 96.6826 83.4026 96.4236 83.6617C96.1646 83.9207 95.8132 84.0662 95.4469 84.0662H80.7939C80.4275 84.0662 80.0762 83.9207 79.8172 83.6617C79.5581 83.4026 79.4126 83.0513 79.4126 82.685V30.6314C79.413 30.4194 79.462 30.2103 79.5557 30.0202C79.6494 29.83 79.7854 29.6639 79.9533 29.5345L87.2796 23.9175C87.5208 23.7322 87.8164 23.6317 88.1205 23.6317C88.4246 23.6317 88.7202 23.7322 88.9613 23.9175L96.2874 29.5345Z" fill="white"/>
<path fill-rule="evenodd" clip-rule="evenodd" d="M27.5463 23.0677L37.7602 17.0958V6.04077C35.8139 6.17159 33.9282 6.7714 32.2639 7.78901C30.5997 8.80661 29.2063 10.2118 28.2029 11.8846C27.1994 13.5574 26.6156 15.4482 26.5013 17.3955C26.3869 19.3429 26.7455 21.289 27.5463 23.0677Z" fill="#00ABEA"/>
<path fill-rule="evenodd" clip-rule="evenodd" d="M39.0176 19.5625L28.9629 25.4403C29.9972 26.7994 31.3079 27.9237 32.8084 28.7393C34.3089 29.555 35.9653 30.0433 37.6683 30.1721C39.3713 30.301 41.0823 30.0675 42.6884 29.4869C44.2946 28.9064 45.7595 27.992 46.9866 26.8041L39.0176 19.5625Z" fill="#00ABEA"/>
<path fill-rule="evenodd" clip-rule="evenodd" d="M41.5278 60.2776L35.5831 55.7183L29.6387 60.2776V75.6844C31.5543 77.1505 33.0593 79.0858 34.0085 81.3035H41.528L41.5278 60.2776Z" fill="#00ABEA"/>
<path fill-rule="evenodd" clip-rule="evenodd" d="M82.1758 31.3118V81.3033H94.0653V31.3118L88.1204 26.7524L82.1758 31.3118Z" fill="#00ABEA"/>
</svg>
