<svg width="104" height="104" viewBox="0 0 104 104" fill="none" xmlns="http://www.w3.org/2000/svg">
<path fill-rule="evenodd" clip-rule="evenodd" d="M35.9138 63.4022C35.5476 63.4028 35.1966 63.5485 34.9377 63.8074C34.6788 64.0663 34.5331 64.4173 34.5325 64.7835V72.2264C34.5325 72.5927 34.678 72.944 34.9371 73.2031C35.1961 73.4621 35.5474 73.6076 35.9138 73.6076C36.2801 73.6076 36.6314 73.4621 36.8905 73.2031C37.1495 72.944 37.295 72.5927 37.295 72.2264V64.7841C37.295 64.6027 37.2593 64.4231 37.1899 64.2555C37.1205 64.0879 37.0187 63.9356 36.8905 63.8074C36.7622 63.6791 36.6099 63.5774 36.4423 63.508C36.2748 63.4386 36.0952 63.4028 35.9138 63.4028V63.4022ZM35.9138 58.2766C35.5474 58.2766 35.1961 58.4221 34.9371 58.6811C34.678 58.9402 34.5325 59.2915 34.5325 59.6578V60.4333C34.5325 60.7997 34.678 61.151 34.9371 61.41C35.1961 61.6691 35.5474 61.8146 35.9138 61.8146C36.2801 61.8146 36.6314 61.6691 36.8905 61.41C37.1495 61.151 37.295 60.7997 37.295 60.4333V59.6578C37.295 59.4764 37.2593 59.2968 37.1899 59.1292C37.1205 58.9617 37.0187 58.8094 36.8905 58.6811C36.7622 58.5529 36.6099 58.4511 36.4423 58.3817C36.2748 58.3123 36.0952 58.2766 35.9138 58.2766ZM79.5028 70.9934C79.503 69.1639 78.9606 67.3754 77.9444 65.8541C76.9282 64.3329 75.4836 63.1471 73.7935 62.4468C72.1033 61.7465 70.2434 61.5631 68.4491 61.9198C66.6547 62.2765 65.0064 63.1573 63.7126 64.4509C62.4188 65.7444 61.5376 67.3925 61.1805 69.1868C60.8234 70.9811 61.0063 72.841 61.7063 74.5313C62.4062 76.2216 63.5917 77.6664 65.1127 78.683C66.6338 79.6996 68.4221 80.2423 70.2516 80.2425C72.7039 80.2395 75.0549 79.2641 76.7891 77.5303C78.5233 75.7965 79.4992 73.4457 79.5028 70.9934ZM82.2653 70.9934C82.2651 73.3694 81.5604 75.6919 80.2403 77.6674C78.9202 79.6428 77.044 81.1825 74.8489 82.0917C72.6538 83.0008 70.2384 83.2387 67.9081 82.7752C65.5778 82.3116 63.4373 81.1675 61.7572 79.4875C60.0771 77.8075 58.933 75.667 58.4693 73.3367C58.0057 71.0065 58.2435 68.5911 59.1526 66.3959C60.0617 64.2008 61.6013 62.3245 63.5767 61.0043C65.5522 59.6842 67.8747 58.9794 70.2506 58.9792C73.436 58.9826 76.4899 60.2495 78.7423 62.5018C80.9947 64.7542 82.2617 67.8081 82.2653 70.9934ZM96.8574 93.845L88.6982 85.686L84.9465 89.4382L93.1058 97.5977C93.8032 98.2944 95.2888 98.0281 96.2896 97.029C97.2904 96.0298 97.5527 94.5421 96.8584 93.8454L96.8574 93.845ZM81.9021 84.6491L83.8641 86.6111L85.8691 84.6077L83.9014 82.6518C83.5967 83.005 83.2815 83.3544 82.948 83.6877C82.6104 84.0251 82.259 84.343 81.9021 84.6489V84.6491ZM70.2508 86.1827C66.7368 86.182 63.3317 84.9629 60.6158 82.7332C57.8998 80.5034 56.041 77.4009 55.356 73.9543C54.671 70.5077 55.2022 66.9302 56.8591 63.8314C58.516 60.7325 61.1962 58.304 64.4428 56.9597C67.6895 55.6153 71.3019 55.4382 74.6645 56.4586C78.0271 57.479 80.9319 59.6337 82.8839 62.5557C84.836 65.4776 85.7145 68.986 85.3699 72.4831C85.0253 75.9802 83.4788 79.2496 80.9939 81.7343C79.5864 83.1493 77.9121 84.2711 76.068 85.0347C74.2239 85.7983 72.2467 86.1885 70.2508 86.1827ZM9.83089 83.3611C8.13317 83.3611 6.75375 81.786 6.75375 79.8497V9.5227C6.75375 7.58834 8.135 6.01311 9.83109 6.01311H43.1042L43.1751 28.7511C43.176 29.1168 43.322 29.4672 43.5809 29.7255C43.8399 29.9837 44.1906 30.1287 44.5563 30.1287H65.0762V53.804C62.1393 54.6865 59.4776 56.307 57.3452 58.5108C55.2127 60.7146 53.6806 63.4281 52.8952 66.3925C52.1097 69.3568 52.097 72.473 52.8584 75.4436C53.6198 78.4141 55.1298 81.14 57.2443 83.3611H9.83089ZM45.8736 8.20991L45.9325 27.3646H63.3298L45.8736 8.20991ZM98.2419 98.9828C97.172 100.084 95.7107 100.72 94.1753 100.75C93.6171 100.76 93.0623 100.66 92.5433 100.454C92.0243 100.248 91.5512 99.9415 91.1516 99.5516L82.6683 91.0683C82.3848 90.7724 82.1865 90.4056 82.0941 90.0065C82.0017 89.6073 82.0186 89.1907 82.1432 88.8004L79.6427 86.2995C76.7689 88.0598 73.4582 88.9769 70.0882 88.9461C66.7182 88.9152 63.4248 87.9377 60.5837 86.125H9.83089C6.60994 86.125 3.99023 83.3105 3.99023 79.8507V9.52352C3.99044 6.0645 6.61116 3.25 9.83089 3.25H44.4822C44.6743 3.25009 44.8643 3.29034 45.04 3.36817C45.2157 3.446 45.3731 3.55969 45.5023 3.70195L67.4778 27.8155C67.7096 28.0704 67.8383 28.4025 67.8387 28.7471V53.2118C71.2063 52.7545 74.6345 53.2624 77.7248 54.6766C80.8151 56.0907 83.4406 58.353 85.2958 61.2004C87.1511 64.0478 88.1601 67.3634 88.2054 70.7616C88.2507 74.1598 87.3305 77.501 85.5518 80.3969L88.0529 82.8819C88.1977 82.838 88.3463 82.8076 88.4967 82.7911C88.8286 82.7492 89.1656 82.783 89.4825 82.89C89.7994 82.9969 90.088 83.1743 90.3265 83.4088L98.812 91.8921C100.61 93.69 100.353 96.8719 98.2419 98.9836V98.9828ZM47.2179 65.9425C47.2181 68.178 46.5554 70.3633 45.3136 72.2222C44.0718 74.0811 42.3066 75.5299 40.2414 76.3856C38.1762 77.2413 35.9036 77.4653 33.711 77.0294C31.5184 76.5935 29.5043 75.5172 27.9234 73.9367C26.3425 72.3561 25.2658 70.3422 24.8295 68.1497C24.3932 65.9572 24.6168 63.6846 25.472 61.6192C26.3273 59.5538 27.7758 57.7883 29.6344 56.5462C31.4931 55.304 33.6783 54.6409 35.9138 54.6406C38.9106 54.6433 41.7839 55.8347 43.9032 57.9536C46.0225 60.0724 47.2146 62.9455 47.2179 65.9423V65.9425ZM49.9804 65.9425C49.9807 68.7246 49.1561 71.4443 47.6107 73.7577C46.0653 76.0711 43.8686 77.8743 41.2984 78.9392C38.7282 80.0042 35.8999 80.283 33.1713 79.7405C30.4426 79.198 27.936 77.8585 25.9687 75.8914C24.0013 73.9243 22.6614 71.418 22.1184 68.6894C21.5755 65.9608 21.8539 63.1325 22.9184 60.5621C23.9829 57.9917 25.7858 55.7948 28.0989 54.249C30.4121 52.7033 33.1317 51.8782 35.9138 51.8781C39.643 51.8821 43.2184 53.3651 45.8555 56.0019C48.4927 58.6386 49.9764 62.2137 49.981 65.9429L49.9804 65.9425ZM56.4826 44.2451C56.4826 43.8788 56.3371 43.5274 56.0781 43.2684C55.819 43.0094 55.4677 42.8638 55.1014 42.8638H15.2962C14.9298 42.8638 14.5785 43.0094 14.3195 43.2684C14.0604 43.5274 13.9149 43.8788 13.9149 44.2451C13.9149 44.6114 14.0604 44.9627 14.3195 45.2218C14.5785 45.4808 14.9298 45.6263 15.2962 45.6263H55.101C55.4673 45.6263 55.8186 45.4808 56.0776 45.2218C56.3367 44.9627 56.4822 44.6114 56.4822 44.2451H56.4826ZM15.2962 34.6125H55.101C55.4673 34.6125 55.8186 34.467 56.0776 34.2079C56.3367 33.9489 56.4822 33.5976 56.4822 33.2313C56.4822 32.8649 56.3367 32.5136 56.0776 32.2546C55.8186 31.9955 55.4673 31.85 55.101 31.85H15.2962C14.9298 31.85 14.5785 31.9955 14.3195 32.2546C14.0604 32.5136 13.9149 32.8649 13.9149 33.2313C13.9149 33.5976 14.0604 33.9489 14.3195 34.2079C14.5785 34.467 14.9298 34.6125 15.2962 34.6125ZM13.9137 22.2158C13.9142 22.5819 14.0599 22.933 14.3189 23.1919C14.5778 23.4508 14.9288 23.5965 15.295 23.597H35.2532C35.6195 23.597 35.9709 23.4515 36.2299 23.1925C36.4889 22.9334 36.6345 22.5821 36.6345 22.2158C36.6345 21.8495 36.4889 21.4981 36.2299 21.2391C35.9709 20.9801 35.6195 20.8345 35.2532 20.8345H15.295C14.9286 20.8345 14.5773 20.9801 14.3183 21.2391C14.0592 21.4981 13.9137 21.8495 13.9137 22.2158Z" fill="white"/>
<path fill-rule="evenodd" clip-rule="evenodd" d="M80.9947 60.2505C78.5095 57.7644 75.2391 56.2171 71.7409 55.872C68.2427 55.5269 64.733 56.4055 61.81 58.358C58.8869 60.3106 56.7313 63.2163 55.7105 66.58C54.6896 69.9437 54.8667 73.5573 56.2115 76.8051C57.5564 80.0529 59.9857 82.7339 63.0857 84.3913C66.1856 86.0487 69.7644 86.5799 73.2121 85.8945C76.6598 85.209 79.7632 83.3493 81.9935 80.6322C84.2238 77.9151 85.4429 74.5087 85.4432 70.9935C85.4417 66.9647 83.8418 63.101 80.9947 60.2505ZM70.2514 58.9793C72.6275 58.9791 74.9503 59.6834 76.926 61.0033C78.9017 62.3232 80.4417 64.1993 81.3512 66.3944C82.2607 68.5895 82.4988 71.0049 82.0355 73.3354C81.5721 75.6658 80.4281 77.8065 78.7482 79.4868C77.0682 81.167 74.9277 82.3114 72.5973 82.7751C70.267 83.2389 67.8514 83.0011 65.6562 82.092C63.4609 81.1829 61.5846 79.6433 60.2644 77.6677C58.9442 75.6922 58.2394 73.3696 58.2392 70.9935C58.2431 67.8087 59.5099 64.7554 61.7617 62.5032C64.0135 60.251 67.0666 58.9837 70.2514 58.9793Z" fill="#00ABEA"/>
<path fill-rule="evenodd" clip-rule="evenodd" d="M88.699 85.686L84.9473 89.4382L93.1066 97.5977C93.8039 98.2944 95.2896 98.0281 96.2904 97.0289C97.2912 96.0298 97.5534 94.5421 96.8591 93.8454L88.699 85.686Z" fill="#00ABEA"/>
<path fill-rule="evenodd" clip-rule="evenodd" d="M45.9329 27.3655H63.3302L45.874 8.20996L45.9329 27.3655Z" fill="#00ABEA"/>
</svg>
