<svg width="104" height="104" viewBox="0 0 104 104" fill="none" xmlns="http://www.w3.org/2000/svg">
<path fill-rule="evenodd" clip-rule="evenodd" d="M52.1522 74.8609H46.1322V45.7178L49.1423 43.4105L52.1522 45.7178V74.8609ZM54.3744 43.9414L49.9832 40.5724C49.742 40.3872 49.4464 40.2869 49.1423 40.2869C48.8382 40.2869 48.5426 40.3872 48.3014 40.5724L43.91 43.9414C43.7416 44.0701 43.6053 44.2359 43.5114 44.4259C43.4176 44.6159 43.3689 44.825 43.3691 45.0369V76.2426C43.3691 76.6089 43.5146 76.9602 43.7736 77.2193C44.0327 77.4783 44.384 77.6238 44.7503 77.6238H53.5336C53.7151 77.624 53.8948 77.5884 54.0624 77.519C54.2301 77.4496 54.3824 77.3479 54.5107 77.2196C54.639 77.0913 54.7407 76.939 54.8101 76.7713C54.8794 76.6037 54.9151 76.424 54.9149 76.2426V45.0367C54.9152 44.8248 54.8665 44.6157 54.7727 44.4258C54.6789 44.2358 54.5425 44.07 54.3742 43.9414H54.3744ZM26.9881 44.9558C27.2101 45.4242 27.5331 45.8377 27.9337 46.1667C28.3343 46.4956 28.8027 46.732 29.3053 46.8587C29.808 46.9854 30.3324 46.9995 30.8411 46.8998C31.3498 46.8001 31.8302 46.5891 32.2478 46.282L43.4979 38.0025L43.4046 38.4526C43.3652 38.6312 43.3616 38.8159 43.394 38.9959C43.4265 39.1759 43.4944 39.3476 43.5938 39.5012C43.6932 39.6548 43.8221 39.787 43.9731 39.8904C44.124 39.9937 44.294 40.066 44.4731 40.1031C44.6522 40.1402 44.8369 40.1414 45.0165 40.1065C45.1961 40.0717 45.3669 40.0015 45.5191 39.9001C45.6714 39.7987 45.8019 39.6681 45.9033 39.5158C46.0046 39.3635 46.0747 39.1926 46.1094 39.013L46.9299 35.0521C46.969 34.863 46.9681 34.6678 46.9272 34.4791C46.8863 34.2904 46.8062 34.1124 46.6922 33.9565C46.5783 33.8006 46.4329 33.6704 46.2655 33.5742C46.098 33.478 45.9123 33.418 45.7202 33.398L41.4489 32.9511C41.2673 32.9297 41.0832 32.9446 40.9073 32.9949C40.7314 33.0452 40.5673 33.1299 40.4244 33.2442C40.2816 33.3584 40.1628 33.4999 40.0751 33.6604C39.9874 33.8209 39.9324 33.9972 39.9134 34.1792C39.8943 34.3611 39.9116 34.545 39.9642 34.7202C40.0168 34.8954 40.1037 35.0584 40.2198 35.1997C40.336 35.341 40.479 35.4579 40.6407 35.5435C40.8023 35.6291 40.9793 35.6818 41.1615 35.6984L41.8694 35.7715L30.6094 44.057C30.5204 44.123 30.4179 44.1685 30.3092 44.1901C30.2006 44.2116 30.0885 44.2088 29.981 44.1818C29.8736 44.1548 29.7735 44.1043 29.688 44.0338C29.6025 43.9634 29.5336 43.8749 29.4865 43.7747L28.8438 42.4137C28.6349 41.973 28.3365 41.5806 27.9677 41.2614C27.5989 40.9423 27.1677 40.7034 26.7015 40.5599C26.2354 40.4164 25.7445 40.3714 25.26 40.4279C24.7756 40.4844 24.3082 40.6411 23.8876 40.888L11.8494 47.954C11.6929 48.0459 11.5561 48.1677 11.4468 48.3125C11.3375 48.4572 11.2577 48.6221 11.2121 48.7977C11.1665 48.9733 11.1559 49.1562 11.1809 49.3358C11.206 49.5155 11.2662 49.6885 11.3581 49.8449C11.45 50.0014 11.5718 50.1382 11.7166 50.2475C11.8614 50.3568 12.0263 50.4366 12.2018 50.4822C12.3774 50.5278 12.5603 50.5384 12.74 50.5134C12.9197 50.4883 13.0927 50.4281 13.2491 50.3362L25.2861 43.2703C25.376 43.2176 25.4759 43.1843 25.5794 43.1723C25.6829 43.1604 25.7878 43.1701 25.8873 43.201C25.9868 43.2318 26.0789 43.283 26.1575 43.3513C26.2362 43.4197 26.2997 43.5037 26.3441 43.5979L26.9881 44.9558ZM20.6562 74.8609H14.6364V63.0841L17.6463 60.775L20.6562 63.0843V74.8611V74.8609ZM22.8784 61.3058L18.4875 57.9367C18.2459 57.7523 17.9504 57.6525 17.6464 57.6525C17.3425 57.6525 17.047 57.7523 16.8054 57.9367L12.4142 61.3058C12.2461 61.4346 12.1098 61.6004 12.016 61.7904C11.9221 61.9804 11.8733 62.1894 11.8731 62.4012V76.2426C11.8731 76.6089 12.0186 76.9602 12.2777 77.2193C12.5367 77.4783 12.888 77.6238 13.2544 77.6238H22.0391C22.2206 77.624 22.4003 77.5884 22.5679 77.5191C22.7356 77.4497 22.8879 77.348 23.0162 77.2197C23.1445 77.0914 23.2463 76.939 23.3156 76.7714C23.385 76.6037 23.4206 76.424 23.4204 76.2426V62.4012C23.4203 62.1894 23.3715 61.9803 23.2777 61.7904C23.1839 61.6004 23.0476 61.4346 22.8794 61.3058H22.8784ZM36.4043 74.8609H30.3843V55.0077L33.3938 52.6985L36.4039 55.0077V74.8609H36.4043ZM38.6265 53.2295C38.7947 53.3583 38.9309 53.5241 39.0247 53.714C39.1185 53.904 39.1672 54.1129 39.1672 54.3248V76.242C39.1674 76.4234 39.1318 76.6031 39.0624 76.7707C38.9931 76.9384 38.8913 77.0907 38.763 77.219C38.6347 77.3473 38.4824 77.449 38.3147 77.5184C38.1471 77.5877 37.9674 77.6234 37.786 77.6232H29.0026C28.6363 77.6232 28.285 77.4777 28.026 77.2186C27.7669 76.9596 27.6214 76.6083 27.6214 76.242V54.3248C27.6214 54.1129 27.6702 53.9039 27.764 53.7139C27.8578 53.524 27.9941 53.3581 28.1623 53.2293L32.5537 49.8603C32.7949 49.6751 33.0905 49.5748 33.3946 49.5748C33.6987 49.5748 33.9943 49.6751 34.2356 49.8603L38.6267 53.2293L38.6265 53.2295ZM86.9449 75.0366L81.545 80.4375L86.9449 85.8374C87.204 86.0966 87.3496 86.4481 87.3495 86.8147C87.3495 87.1812 87.2039 87.5327 86.9447 87.7918C86.6855 88.051 86.3339 88.1966 85.9674 88.1965C85.6009 88.1965 85.2493 88.0508 84.9902 87.7916L79.5909 82.3914L74.1909 87.7906C74.0626 87.919 73.9102 88.0208 73.7426 88.0903C73.575 88.1598 73.3953 88.1955 73.2138 88.1956C73.0323 88.1956 72.8526 88.1599 72.685 88.0905C72.5173 88.0211 72.3649 87.9193 72.2366 87.791C72.1082 87.6627 72.0064 87.5104 71.9369 87.3428C71.8675 87.1751 71.8317 86.9955 71.8316 86.814C71.8316 86.6325 71.8673 86.4528 71.9367 86.2851C72.0061 86.1175 72.1079 85.9651 72.2362 85.8368L77.6369 80.4375L72.237 75.0374C72.1087 74.9092 72.0069 74.7569 71.9375 74.5893C71.868 74.4217 71.8323 74.2421 71.8322 74.0607C71.8322 73.8793 71.8679 73.6997 71.9373 73.5321C72.0067 73.3645 72.1084 73.2122 72.2367 73.0839C72.3649 72.9556 72.5172 72.8538 72.6848 72.7844C72.8524 72.7149 73.032 72.6791 73.2134 72.6791C73.3948 72.6791 73.5744 72.7148 73.7421 72.7842C73.9097 72.8536 74.062 72.9553 74.1902 73.0836L79.5909 78.4834L84.991 73.0836C85.2501 72.8246 85.6015 72.6791 85.9679 72.6792C86.1493 72.6793 86.3289 72.715 86.4965 72.7845C86.6641 72.854 86.8163 72.9558 86.9446 73.0841C87.0728 73.2124 87.1745 73.3647 87.2439 73.5323C87.3133 73.6999 87.3489 73.8795 87.3489 74.061C87.3489 74.2424 87.3131 74.422 87.2436 74.5896C87.1741 74.7571 87.0724 74.9094 86.9441 75.0376L86.9449 75.0366ZM92.0013 92.8472C94.8731 89.9762 96.6607 86.1982 97.0593 82.157C97.4579 78.1157 96.4429 74.0613 94.1873 70.6845C91.9316 67.3077 88.5749 64.8175 84.6891 63.6382C80.8032 62.459 76.6287 62.6635 72.8768 64.2171C69.1249 65.7707 66.0277 68.5771 64.113 72.1583C62.1984 75.7394 61.5847 79.8737 62.3765 83.8566C63.1683 87.8395 65.3167 91.4246 68.4555 94.0011C71.5944 96.5775 75.5295 97.9859 79.5903 97.9863C81.896 97.9926 84.1801 97.5417 86.3104 96.6596C88.4407 95.7775 90.375 94.4817 92.0013 92.8472ZM6.8606 90.5558C6.8606 92.8748 8.5242 94.7617 10.5705 94.7617H65.1881C62.7071 92.264 60.9173 89.1648 59.9941 85.7675C59.0709 82.3703 59.0459 78.7914 59.9216 75.3816C60.7973 71.9718 62.5437 68.8479 64.9896 66.3158C67.4356 63.7838 70.4973 61.9305 73.8748 60.9375V33.5597H50.2375C49.8718 33.5597 49.521 33.4147 49.2621 33.1564C49.0031 32.8981 48.8572 32.5476 48.8563 32.1819L48.775 6.01291H10.5705C8.52379 6.01291 6.8606 7.89973 6.8606 10.2188V90.5548V90.5558ZM72.1277 30.7964H51.6157L51.5446 8.20889L72.1277 30.7964ZM93.9551 66.0723C92.0729 64.1802 89.8342 62.6803 87.3684 61.6592C84.9027 60.6382 82.2589 60.1163 79.5901 60.1238C78.6021 60.1232 77.6154 60.1938 76.6375 60.3348V32.178C76.6365 31.8336 76.5078 31.5017 76.2761 31.2467L51.1733 3.70175C51.0442 3.55931 50.8867 3.44552 50.7109 3.36771C50.535 3.2899 50.3449 3.2498 50.1526 3.25H10.5705C6.99995 3.25 4.09668 6.3763 4.09668 10.219V90.555C4.09668 94.3977 6.99913 97.5242 10.5697 97.5242H68.5968C72.8128 100.235 77.882 101.291 82.8299 100.491C87.7778 99.6901 92.2551 97.0887 95.4011 93.1867C98.5471 89.2848 100.14 84.3576 99.8728 79.3525C99.6059 74.3474 97.4983 69.6175 93.9551 66.0723Z" fill="white"/>
<path fill-rule="evenodd" clip-rule="evenodd" d="M20.6565 74.861V63.0842L17.6466 60.7749L14.6367 63.0842V74.861H20.6565Z" fill="#00ABEA"/>
<path fill-rule="evenodd" clip-rule="evenodd" d="M46.1328 45.7177V74.8609H52.1528V45.7177L49.1429 43.4104L46.1328 45.7177Z" fill="#00ABEA"/>
<path fill-rule="evenodd" clip-rule="evenodd" d="M51.616 30.7966H72.128L51.5449 8.20972L51.616 30.7966Z" fill="#00ABEA"/>
</svg>
