<svg width="104" height="104" viewBox="0 0 104 104" fill="none" xmlns="http://www.w3.org/2000/svg">
<path fill-rule="evenodd" clip-rule="evenodd" d="M79.8331 77.2137C79.8331 77.58 79.6876 77.9314 79.4286 78.1904C79.1695 78.4494 78.8182 78.5949 78.4519 78.5949H42.2881C41.9218 78.5949 41.5705 78.4494 41.3114 78.1904C41.0524 77.9314 40.9069 77.58 40.9069 77.2137C40.9069 76.8474 41.0524 76.496 41.3114 76.237C41.5705 75.978 41.9218 75.8325 42.2881 75.8325H78.4525C78.8188 75.8325 79.1701 75.978 79.4292 76.237C79.6882 76.496 79.8337 76.8474 79.8337 77.2137H79.8331ZM79.8331 65.1743C79.8331 65.5406 79.6876 65.8919 79.4286 66.151C79.1695 66.41 78.8182 66.5555 78.4519 66.5555H42.2881C41.9218 66.5555 41.5705 66.41 41.3114 66.151C41.0524 65.8919 40.9069 65.5406 40.9069 65.1743C40.9069 64.808 41.0524 64.4566 41.3114 64.1976C41.5705 63.9386 41.9218 63.793 42.2881 63.793H78.4525C78.8188 63.793 79.1701 63.9386 79.4292 64.1976C79.6882 64.4566 79.8337 64.808 79.8337 65.1743H79.8331ZM79.8331 53.1347C79.8331 53.501 79.6876 53.8523 79.4286 54.1113C79.1695 54.3704 78.8182 54.5159 78.4519 54.5159H42.2881C41.9218 54.5159 41.5705 54.3704 41.3114 54.1113C41.0524 53.8523 40.9069 53.501 40.9069 53.1347C40.9069 52.7683 41.0524 52.417 41.3114 52.158C41.5705 51.8989 41.9218 51.7534 42.2881 51.7534H78.4525C78.8188 51.7534 79.1701 51.8989 79.4292 52.158C79.6882 52.417 79.8337 52.7683 79.8337 53.1347H79.8331ZM86.7784 97.9875C88.5049 97.9875 89.911 96.385 89.911 94.417V44.0558H69.1177C68.7522 44.0551 68.4018 43.9099 68.143 43.6518C67.8842 43.3937 67.738 43.0437 67.7364 42.6782L67.6653 19.6393H33.9606C32.234 19.6393 30.8292 21.2418 30.8292 23.2115V94.4162C30.8292 96.384 32.235 97.9865 33.9616 97.9865L86.7784 97.9875ZM17.2225 84.3603H28.0651V23.2117C28.0651 19.718 30.71 16.8762 33.9606 16.8762H61.5947L51.6954 6.0125H17.2217C15.4951 6.0125 14.0899 7.61516 14.0899 9.58283V80.7875C14.0899 82.7578 15.4953 84.3596 17.2229 84.3596L17.2225 84.3603ZM88.1639 41.2927H70.4959L70.4364 21.838L88.1639 41.2927ZM92.3143 41.7448L70.0632 17.3282C69.9342 17.1857 69.7767 17.0718 69.6009 16.994C69.4251 16.9161 69.235 16.876 69.0427 16.8762H65.3322L53.3241 3.70175C53.1952 3.55945 53.0378 3.44573 52.8623 3.36793C52.6867 3.29012 52.4968 3.24995 52.3048 3.25H17.2225C13.9725 3.25 11.3262 6.09213 11.3262 9.58364V80.7881C11.3262 84.2818 13.97 87.1236 17.2209 87.1236H28.0643V94.4157C28.0643 97.9075 30.709 100.75 33.9598 100.75H86.7784C90.0284 100.75 92.6735 97.9075 92.6735 94.4159V42.6737C92.6734 42.3302 92.5454 41.999 92.3143 41.7448Z" fill="white"/>
<path fill-rule="evenodd" clip-rule="evenodd" d="M51.6954 6.01245H17.2216C15.4951 6.01245 14.0898 7.61511 14.0898 9.58278V80.7874C14.0898 82.7577 15.4953 84.3596 17.2228 84.3596H28.0655V23.2117C28.0655 19.7179 30.7103 16.8762 33.961 16.8762H61.5947L51.6954 6.01245Z" fill="#00ABEA"/>
<path fill-rule="evenodd" clip-rule="evenodd" d="M70.4365 21.8379L70.496 41.2926H88.1641L70.4365 21.8379Z" fill="#00ABEA"/>
</svg>
