<svg width="104" height="104" viewBox="0 0 104 104" fill="none" xmlns="http://www.w3.org/2000/svg">
<path fill-rule="evenodd" clip-rule="evenodd" d="M81.7631 89.5058C80.7601 89.5063 79.7796 89.2093 78.9454 88.6525C78.1113 88.0956 77.461 87.3039 77.0769 86.3774C76.6927 85.451 76.592 84.4314 76.7874 83.4476C76.9827 82.4639 77.4655 81.5602 78.1745 80.8509C78.8836 80.1415 79.787 79.6584 80.7707 79.4626C81.7543 79.2668 82.7739 79.3671 83.7006 79.7508C84.6272 80.1345 85.4192 80.7844 85.9764 81.6183C86.5337 82.4522 86.8311 83.4327 86.831 84.4356C86.8294 85.7794 86.295 87.0677 85.345 88.0182C84.395 88.9686 83.1069 89.5036 81.7631 89.5058ZM81.7631 76.6019C80.2136 76.6014 78.6988 77.0604 77.4102 77.9208C76.1216 78.7813 75.1171 80.0046 74.5238 81.436C73.9304 82.8673 73.7749 84.4425 74.0769 85.9623C74.3789 87.482 75.1248 88.8781 76.2202 89.9739C77.3157 91.0698 78.7115 91.8161 80.2312 92.1186C81.7508 92.4211 83.3261 92.2661 84.7576 91.6733C86.1892 91.0804 87.4128 90.0764 88.2737 88.7881C89.1346 87.4998 89.5941 85.9851 89.5941 84.4356C89.5923 82.359 88.7668 80.3679 87.2986 78.8993C85.8305 77.4306 83.8397 76.6044 81.7631 76.6019ZM95.3139 86.1744V82.6946H92.6248C92.325 82.6946 92.0334 82.5973 91.7938 82.4172C91.5542 82.2371 91.3796 81.984 91.2963 81.6961C91.0901 80.9779 90.8035 80.2853 90.4418 79.6315C90.2961 79.3694 90.2398 79.067 90.2816 78.7701C90.3233 78.4732 90.4607 78.198 90.6729 77.9862L92.5758 76.0835L90.1164 73.6223L88.2135 75.5249C88.0012 75.7372 87.7257 75.8747 87.4284 75.9167C87.1312 75.9588 86.8284 75.903 86.5656 75.7579C85.9129 75.3947 85.2209 75.1073 84.503 74.9013C84.2147 74.8184 83.9612 74.644 83.7807 74.4044C83.6002 74.1647 83.5025 73.8729 83.5024 73.5729V70.8841H80.0223V73.5723C80.0224 73.8723 79.9249 74.1643 79.7443 74.404C79.5638 74.6437 79.3101 74.818 79.0217 74.9007C78.3039 75.1071 77.612 75.3945 76.9592 75.7573C76.6968 75.9023 76.3943 75.9579 76.0975 75.9159C75.8007 75.8739 75.5257 75.7364 75.3138 75.5243L73.4114 73.6216L70.9493 76.0829L72.8516 77.9856C73.0638 78.1974 73.2012 78.4726 73.2429 78.7695C73.2846 79.0664 73.2283 79.3689 73.0825 79.6309C72.7209 80.2848 72.4342 80.9773 72.2278 81.6954C72.1447 81.9834 71.9703 82.2366 71.7308 82.4167C71.4912 82.5968 71.1996 82.6942 70.8999 82.694H68.2116V86.1738H70.8995C71.1995 86.1738 71.4913 86.2715 71.7309 86.452C71.9705 86.6325 72.1449 86.886 72.2278 87.1743C72.4342 87.8918 72.7209 88.5837 73.0825 89.2369C73.2284 89.4993 73.2847 89.8022 73.2431 90.0995C73.2014 90.3969 73.0639 90.6726 72.8516 90.8848L70.9493 92.7875L73.4104 95.2467L75.3128 93.3441C75.5249 93.1323 75.8001 92.9953 76.0969 92.9537C76.3937 92.912 76.696 92.9681 76.9581 93.1133C77.6115 93.4751 78.3033 93.7624 79.0207 93.9699C79.3091 94.0519 79.5629 94.2258 79.7435 94.4651C79.9242 94.7045 80.0218 94.9962 80.0217 95.2961V97.9875H83.501V95.2967C83.5011 94.997 83.5989 94.7054 83.7794 94.4662C83.9599 94.2269 84.2134 94.0529 84.5016 93.9705C85.2191 93.7635 85.911 93.4761 86.5641 93.1139C86.8267 92.9685 87.1294 92.9124 87.4267 92.954C87.7239 92.9956 87.9996 93.1327 88.2121 93.3447L90.115 95.2473L92.575 92.7875L90.6719 90.8848C90.4595 90.6726 90.3221 90.3969 90.2804 90.0995C90.2388 89.8022 90.2951 89.4993 90.441 89.2369C90.8027 88.5838 91.0894 87.8919 91.2955 87.1743C91.3789 86.8862 91.5535 86.6329 91.7933 86.4525C92.033 86.2722 92.3248 86.1746 92.6248 86.1744H95.3139ZM70.6273 72.4967L70.3568 72.7689H66.6918V51.0309L68.6595 49.5231L70.6273 51.0309V72.4967ZM24.5456 89.7014C24.5456 91.5271 25.8444 93.0124 27.4389 93.0124H68.1817C68.1487 92.6183 68.2021 92.2219 68.3382 91.8506C68.4742 91.4794 68.6897 91.1423 68.9694 90.8629L70.1949 89.6374C70.0902 89.4065 69.9937 89.1736 69.9052 88.9387H68.172C67.4499 88.9379 66.7576 88.6507 66.2471 88.1401C65.7365 87.6295 65.4493 86.9373 65.4485 86.2152V82.6585C65.4493 82.0029 65.6865 81.3697 66.1164 80.8748C66.5464 80.38 67.1403 80.0567 67.7893 79.9642H34.6312C34.4498 79.9642 34.2702 79.9285 34.1026 79.8591C33.935 79.7897 33.7827 79.6879 33.6545 79.5597C33.5262 79.4314 33.4245 79.2791 33.355 79.1115C33.2856 78.944 33.2499 78.7644 33.2499 78.583V39.8619C33.2499 39.4955 33.3954 39.1442 33.6545 38.8852C33.9135 38.6261 34.2648 38.4806 34.6312 38.4806C34.9975 38.4806 35.3488 38.6261 35.6078 38.8852C35.8669 39.1442 36.0124 39.4955 36.0124 39.8619V77.1999H68.4123C68.2538 76.8488 68.1717 76.4679 68.1716 76.0827C68.172 75.8978 68.1906 75.7133 68.227 75.532H65.3101C64.9438 75.532 64.5925 75.3865 64.3334 75.1275C64.0744 74.8684 63.9289 74.5171 63.9289 74.1508V50.35C63.9287 50.1381 63.9774 49.929 64.0713 49.739C64.1651 49.549 64.3016 49.3832 64.47 49.2546L67.8189 46.6848C68.0602 46.4997 68.3557 46.3994 68.6598 46.3994C68.9638 46.3994 69.2594 46.4997 69.5006 46.6848L72.8499 49.2546C73.0183 49.3832 73.1547 49.5489 73.2485 49.7389C73.3423 49.9289 73.3909 50.138 73.3907 50.3498V70.8467C73.7517 70.8429 74.1099 70.9113 74.4442 71.0479C74.7785 71.1844 75.0821 71.3864 75.3372 71.642L76.5625 72.8676C76.7914 72.763 77.0246 72.6684 77.2596 72.5776V70.8447C77.2608 70.1224 77.5485 69.43 78.0594 68.9194C78.5704 68.4088 79.263 68.1217 79.9853 68.121H80.3822V42.0585H60.7528C60.3871 42.0585 60.0363 41.9134 59.7774 41.6551C59.5184 41.3968 59.3725 41.0464 59.3716 40.6807L59.3041 18.925H27.442C25.8454 18.925 24.5466 20.4092 24.5466 22.2369V89.7012L24.5456 89.7014ZM11.5805 80.1013C9.98377 80.1013 8.68519 78.6151 8.68519 76.7904V9.32506C8.68519 7.49917 9.98377 6.01413 11.5805 6.01413H44.2115L53.46 16.1629H27.442C24.3218 16.1629 21.7835 18.8886 21.7835 22.2379V80.1013H11.5805ZM78.6345 39.2953H62.1306L62.0733 21.1218L78.6345 39.2953ZM95.3517 79.9315H93.6201C93.5311 79.6967 93.4342 79.4643 93.3314 79.2348L94.5575 78.0091C95.0668 77.4975 95.3528 76.8049 95.3528 76.0829C95.3528 75.3609 95.0668 74.6684 94.5575 74.1567L92.0416 71.6422C91.5301 71.1317 90.837 70.8451 90.1143 70.8451C89.3917 70.8451 88.6986 71.1317 88.1871 71.6422L86.9614 72.8678C86.7327 72.7632 86.4995 72.6686 86.2647 72.5778V70.8449C86.2638 70.1228 85.9765 69.4304 85.4658 68.9198C84.9551 68.4092 84.2628 68.122 83.5406 68.1212H83.1441V40.677C83.1444 40.3322 83.0155 39.9999 82.7828 39.7455L61.7022 16.6118C61.5727 16.4701 61.415 16.3569 61.2393 16.2795C61.0636 16.202 60.8737 16.1619 60.6817 16.1618H57.1983L45.8416 3.70195C45.7126 3.55945 45.5551 3.4456 45.3793 3.36776C45.2035 3.28991 45.0134 3.24979 44.8211 3.25H11.5805C8.46012 3.25 5.92188 5.97574 5.92188 9.32506V76.7896C5.92188 80.1389 8.45972 82.8644 11.5803 82.8644H21.7823V89.7012C21.7823 93.0505 24.3213 95.7747 27.4387 95.7747H70.0295L71.4839 97.2292C71.9952 97.7393 72.688 98.0257 73.4102 98.0257C74.1324 98.0257 74.8251 97.7393 75.3364 97.2292L76.5625 96.0036C76.791 96.1064 77.0239 96.203 77.2588 96.2918V98.0247C77.2596 98.7473 77.547 99.4401 78.058 99.951C78.569 100.462 79.2619 100.749 79.9845 100.75H83.541C84.2635 100.749 84.956 100.462 85.4667 99.9505C85.9773 99.4395 86.2643 98.7467 86.2647 98.0243V96.2914C86.4991 96.2026 86.7319 96.1059 86.961 96.0034L88.1871 97.2288C88.6987 97.7389 89.3917 98.0252 90.1141 98.0252C90.8366 98.0252 91.5295 97.7389 92.0412 97.2288L94.5561 94.7143C95.0661 94.2026 95.3524 93.5096 95.3524 92.7871C95.3524 92.0646 95.0661 91.3716 94.5561 90.8598L93.3308 89.6362C93.4333 89.4051 93.5293 89.1721 93.6187 88.9375H95.3517C96.0741 88.937 96.7668 88.65 97.2778 88.1394C97.7887 87.6288 98.0763 86.9363 98.0772 86.214V82.6572C98.0764 81.9346 97.7889 81.2417 97.2779 80.7307C96.7668 80.2197 96.074 79.9323 95.3513 79.9315H95.3517ZM42.67 64.2763L44.6377 62.7656L46.6056 64.2755V72.7681H42.67V64.2755V64.2763ZM41.2888 75.5322C40.9226 75.5318 40.5716 75.3861 40.3126 75.1271C40.0537 74.8682 39.908 74.5172 39.9075 74.151V63.5934C39.908 63.3816 39.9569 63.1727 40.0507 62.9828C40.1445 62.7929 40.2806 62.627 40.4485 62.4979L43.7978 59.9284C44.0393 59.744 44.3348 59.6442 44.6386 59.6442C44.9425 59.6442 45.2379 59.744 45.4795 59.9284L48.8286 62.4981C48.9968 62.6269 49.1331 62.7927 49.2269 62.9827C49.3207 63.1727 49.3695 63.3817 49.3695 63.5936V74.1508C49.3695 74.3322 49.3338 74.5118 49.2644 74.6794C49.1949 74.8469 49.0932 74.9992 48.9649 75.1275C48.8367 75.2557 48.6844 75.3575 48.5168 75.4269C48.3493 75.4963 48.1696 75.532 47.9883 75.532L41.2888 75.5322ZM54.6824 58.1165L56.6501 56.6067L58.6178 58.1165V72.7689H54.6822V58.1165H54.6824ZM53.3012 75.5322C52.9349 75.5322 52.5835 75.3867 52.3245 75.1277C52.0655 74.8686 51.9199 74.5173 51.9199 74.151V57.4338C51.9199 57.2219 51.9686 57.0129 52.0625 56.8229C52.1563 56.6329 52.2926 56.4671 52.4609 56.3383L55.81 53.7686C56.0516 53.5843 56.347 53.4844 56.6509 53.4844C56.9548 53.4844 57.2503 53.5843 57.4919 53.7686L60.841 56.3383C61.0089 56.4674 61.145 56.6333 61.2387 56.8232C61.3325 57.0131 61.3815 57.222 61.3819 57.4338V74.151C61.3814 74.5172 61.2357 74.8682 60.9768 75.1271C60.7179 75.3861 60.3668 75.5318 60.0007 75.5322H53.3012Z" fill="white"/>
<path fill-rule="evenodd" clip-rule="evenodd" d="M8.68555 9.32501V76.7895C8.68555 78.615 9.98413 80.1005 11.5809 80.1005H21.7828V22.2369C21.7828 18.8875 24.3219 16.1618 27.4413 16.1618H53.4604L44.2119 6.01245H11.5809C9.98413 6.01245 8.68555 7.49912 8.68555 9.32501Z" fill="#00ABEA"/>
<path fill-rule="evenodd" clip-rule="evenodd" d="M62.0732 21.1216L62.1305 39.2952H78.6344L62.0732 21.1216Z" fill="#00ABEA"/>
<path fill-rule="evenodd" clip-rule="evenodd" d="M46.6055 64.2762L44.6376 62.7664L42.6699 64.2762V72.7688H46.6055V64.2762Z" fill="#00ABEA"/>
<path fill-rule="evenodd" clip-rule="evenodd" d="M66.6924 51.0307V72.7688H70.3574L70.6279 72.4966V51.0307L68.6601 49.5229L66.6924 51.0307Z" fill="#00ABEA"/>
<path fill-rule="evenodd" clip-rule="evenodd" d="M81.7629 79.365C80.76 79.3646 79.7795 79.6616 78.9454 80.2185C78.1113 80.7754 77.4611 81.5671 77.077 82.4936C76.6929 83.42 76.5922 84.4396 76.7876 85.4233C76.983 86.407 77.4657 87.3106 78.1747 88.0199C78.8837 88.7292 79.7872 89.2124 80.7708 89.4082C81.7544 89.604 82.774 89.5038 83.7006 89.1201C84.6272 88.7364 85.4192 88.0866 85.9765 87.2527C86.5337 86.4189 86.8312 85.4385 86.8312 84.4356C86.8301 83.0915 86.2958 81.8028 85.3456 80.8522C84.3954 79.9016 83.1069 79.3668 81.7629 79.365Z" fill="#00ABEA"/>
</svg>
