<svg width="104" height="104" viewBox="0 0 104 104" fill="none" xmlns="http://www.w3.org/2000/svg">
<path fill-rule="evenodd" clip-rule="evenodd" d="M43.9831 67.0493H44.2268V62.4053C44.2268 62.039 44.3723 61.6876 44.6314 61.4286C44.8904 61.1696 45.2417 61.024 45.6081 61.024C45.9744 61.024 46.3257 61.1696 46.5848 61.4286C46.8438 61.6876 46.9893 62.039 46.9893 62.4053V67.0493H56.4846V62.4053C56.4846 62.039 56.6301 61.6876 56.8892 61.4286C57.1482 61.1696 57.4995 61.024 57.8658 61.024C58.2322 61.024 58.5835 61.1696 58.8425 61.4286C59.1016 61.6876 59.2471 62.039 59.2471 62.4053V67.0493H59.4953C60.0353 67.0486 60.5529 66.8338 60.9347 66.4519C61.3165 66.0701 61.5312 65.5524 61.5318 65.0124V52.8369C61.5306 51.7564 61.1371 50.7132 60.4244 49.9011C59.7118 49.0891 58.7285 48.5634 57.6574 48.4217C57.6752 48.9766 57.5363 49.5252 57.2567 50.0047L54.3199 55.0908C54.0584 55.5438 53.6823 55.9201 53.2293 56.1817C52.7763 56.4433 52.2624 56.581 51.7393 56.581C51.2162 56.581 50.7023 56.4433 50.2493 56.1817C49.7963 55.9201 49.4201 55.5438 49.1587 55.0908L46.2221 50.0045C45.9426 49.525 45.8036 48.9765 45.8211 48.4217C44.7498 48.5631 43.7662 49.0887 43.0533 49.9008C42.3404 50.7129 41.9467 51.7562 41.9453 52.8369V65.0126C41.946 65.5526 42.1608 66.0703 42.5426 66.4521C42.9245 66.834 43.4422 67.0487 43.9823 67.0493H43.9831ZM54.846 48.3821C54.8524 48.3897 54.8583 48.3976 54.8637 48.4059C54.8858 48.4378 54.8976 48.4757 54.8976 48.5145C54.8976 48.5533 54.8858 48.5912 54.8637 48.623L51.9269 53.7111C51.9108 53.7464 51.884 53.7756 51.8503 53.7948C51.8166 53.8139 51.7777 53.822 51.7392 53.8178C51.7002 53.8218 51.661 53.8135 51.6271 53.794C51.5931 53.7745 51.5662 53.7448 51.5501 53.7091L48.6149 48.623C48.5921 48.5915 48.5796 48.5537 48.5793 48.5148C48.579 48.4758 48.5908 48.4378 48.6131 48.4059C48.6208 48.3962 48.6251 48.3901 48.6308 48.3821H54.846ZM59.4943 69.8118H43.9831C42.7105 69.8104 41.4905 69.3044 40.5906 68.4046C39.6907 67.5049 39.1844 66.2849 39.1828 65.0124V52.8369C39.185 50.923 39.9464 49.0881 41.2999 47.7349C42.6534 46.3818 44.4884 45.6208 46.4023 45.619H57.0761C58.9897 45.6212 60.8243 46.3824 62.1774 47.7355C63.5305 49.0887 64.2916 50.9233 64.2937 52.8369V65.0126C64.2923 66.2851 63.7861 67.5051 62.8864 68.4049C61.9866 69.3047 60.7666 69.8109 59.4941 69.8124L59.4943 69.8118ZM47.6994 37.45C47.6992 38.2488 47.9359 39.0298 48.3796 39.6942C48.8233 40.3585 49.454 40.8764 50.192 41.1823C50.93 41.4882 51.7422 41.5684 52.5257 41.4127C53.3093 41.257 54.0291 40.8724 54.5941 40.3076C55.1591 39.7429 55.544 39.0232 55.7 38.2397C55.856 37.4562 55.7761 36.644 55.4705 35.9059C55.1649 35.1678 54.6473 34.5369 53.9832 34.0929C53.319 33.649 52.5381 33.4119 51.7392 33.4118C50.6684 33.4128 49.6416 33.8385 48.8843 34.5955C48.127 35.3526 47.7008 36.3791 47.6994 37.45ZM44.9369 37.45C44.9368 36.1046 45.3356 34.7894 46.0829 33.6707C46.8302 32.552 47.8924 31.68 49.1353 31.165C50.3782 30.65 51.7459 30.5151 53.0654 30.7774C54.385 31.0397 55.5971 31.6875 56.5485 32.6387C57.5 33.5898 58.1479 34.8018 58.4106 36.1213C58.6732 37.4408 58.5387 38.8085 58.024 40.0515C57.5093 41.2945 56.6375 42.357 55.519 43.1046C54.4005 43.8521 53.0854 44.2512 51.74 44.2514C49.9365 44.2497 48.2074 43.5326 46.932 42.2575C45.6566 40.9824 44.9391 39.2534 44.9369 37.45ZM50.3585 85.46C33.1019 84.6231 19.2359 70.671 18.5303 53.3812H24.7571C25.1234 53.3812 25.4747 53.2357 25.7338 52.9767C25.9928 52.7177 26.1383 52.3663 26.1383 52C26.1383 51.6337 25.9928 51.2823 25.7338 51.0233C25.4747 50.7643 25.1234 50.6187 24.7571 50.6187H18.5301C19.2347 33.3292 33.1019 19.3781 50.3577 18.5382V24.7575C50.3577 25.1238 50.5033 25.4751 50.7623 25.7342C51.0213 25.9932 51.3727 26.1387 51.739 26.1387C52.1053 26.1387 52.4566 25.9932 52.7157 25.7342C52.9747 25.4751 53.1202 25.1238 53.1202 24.7575V18.5185C70.617 19.0968 84.7586 33.1553 85.4691 50.6183H79.2425C78.8762 50.6183 78.5249 50.7639 78.2658 51.0229C78.0068 51.2819 77.8613 51.6333 77.8613 51.9996C77.8613 52.3659 78.0068 52.7173 78.2658 52.9763C78.5249 53.2353 78.8762 53.3808 79.2425 53.3808H85.4691C84.7582 70.8439 70.6176 84.9024 53.1204 85.4787V79.2427C53.1204 78.8764 52.9749 78.5251 52.7159 78.266C52.4568 78.007 52.1055 77.8615 51.7392 77.8615C51.3729 77.8615 51.0215 78.007 50.7625 78.266C50.5035 78.5251 50.3579 78.8764 50.3579 79.2427V85.4598L50.3585 85.46ZM53.121 88.2448V94.523C53.121 94.8893 52.9755 95.2407 52.7165 95.4997C52.4575 95.7587 52.1061 95.9043 51.7398 95.9043C51.3735 95.9043 51.0221 95.7587 50.7631 95.4997C50.5041 95.2407 50.3585 94.8893 50.3585 94.523V88.2249C31.5782 87.3844 16.4734 72.1947 15.7649 53.3812H9.4768C9.11047 53.3812 8.75914 53.2357 8.50011 52.9767C8.24107 52.7177 8.09555 52.3663 8.09555 52C8.09555 51.6337 8.24107 51.2823 8.50011 51.0233C8.75914 50.7643 9.11047 50.6187 9.4768 50.6187H15.7649C16.4736 31.8055 31.5782 16.6156 50.3571 15.7753V9.477C50.3571 9.11067 50.5026 8.75934 50.7617 8.50031C51.0207 8.24127 51.372 8.09575 51.7384 8.09575C52.1047 8.09575 52.456 8.24127 52.7151 8.50031C52.9741 8.75934 53.1196 9.11067 53.1196 9.477V15.7536C72.1404 16.3339 87.5191 31.632 88.2334 50.619H94.522C94.8883 50.619 95.2396 50.7645 95.4987 51.0235C95.7577 51.2825 95.9032 51.6339 95.9032 52.0002C95.9032 52.3665 95.7577 52.7179 95.4987 52.9769C95.2396 53.2359 94.8883 53.3815 94.522 53.3815H88.2351C87.5207 72.3684 72.1413 87.6665 53.1208 88.2448H53.121ZM25.2606 97.9875H11.2531C9.86369 97.986 8.53159 97.4334 7.54911 96.4509C6.56662 95.4684 6.01401 94.1363 6.0125 92.7469V78.7394C6.0125 78.373 5.86698 78.0217 5.60794 77.7627C5.34891 77.5036 4.99758 77.3581 4.63125 77.3581C4.26492 77.3581 3.91359 77.5036 3.65456 77.7627C3.39552 78.0217 3.25 78.373 3.25 78.7394V92.7469C3.25242 94.8687 4.09638 96.9029 5.59673 98.4033C7.09709 99.9036 9.13131 100.748 11.2531 100.75H25.2606C25.627 100.75 25.9783 100.604 26.2373 100.345C26.4963 100.086 26.6419 99.7351 26.6419 99.3688C26.6419 99.0024 26.4963 98.6511 26.2373 98.3921C25.9783 98.133 25.627 97.9875 25.2606 97.9875ZM99.3688 77.3579C99.0024 77.3579 98.6511 77.5034 98.3921 77.7625C98.133 78.0215 97.9875 78.3728 97.9875 78.7392V92.7465C97.986 94.1359 97.4334 95.468 96.4509 96.4505C95.4684 97.433 94.1363 97.9856 92.7469 97.9871H78.7394C78.373 97.9871 78.0217 98.1326 77.7627 98.3917C77.5036 98.6507 77.3581 99.002 77.3581 99.3683C77.3581 99.7347 77.5036 100.086 77.7627 100.345C78.0217 100.604 78.373 100.75 78.7394 100.75H92.7469C94.8686 100.747 96.9028 99.9033 98.4032 98.4031C99.9035 96.9028 100.748 94.8686 100.75 92.7469V78.7396C100.75 78.3732 100.604 78.0219 100.345 77.7629C100.086 77.5039 99.7351 77.3583 99.3688 77.3583V77.3579ZM92.7469 3.25H78.7394C78.373 3.25 78.0217 3.39552 77.7627 3.65456C77.5036 3.91359 77.3581 4.26492 77.3581 4.63125C77.3581 4.99758 77.5036 5.34891 77.7627 5.60794C78.0217 5.86698 78.373 6.0125 78.7394 6.0125H92.7469C94.1363 6.0139 95.4685 6.56648 96.451 7.54899C97.4335 8.53149 97.9861 9.86365 97.9875 11.2531V25.2602C97.9875 25.6265 98.133 25.9779 98.3921 26.2369C98.6511 26.4959 99.0024 26.6415 99.3688 26.6415C99.7351 26.6415 100.086 26.4959 100.345 26.2369C100.604 25.9779 100.75 25.6265 100.75 25.2602V11.2531C100.748 9.13131 99.9036 7.09709 98.4033 5.59673C96.9029 4.09638 94.8687 3.25242 92.7469 3.25ZM3.25 25.2604C3.25 25.6268 3.39552 25.9781 3.65456 26.2371C3.91359 26.4961 4.26492 26.6417 4.63125 26.6417C4.99758 26.6417 5.34891 26.4961 5.60794 26.2371C5.86698 25.9781 6.0125 25.6268 6.0125 25.2604V11.2531C6.01401 9.86369 6.56662 8.53159 7.54911 7.54911C8.53159 6.56662 9.86369 6.01401 11.2531 6.0125H25.2604C25.6268 6.0125 25.9781 5.86698 26.2371 5.60794C26.4961 5.34891 26.6417 4.99758 26.6417 4.63125C26.6417 4.26492 26.4961 3.91359 26.2371 3.65456C25.9781 3.39552 25.6268 3.25 25.2604 3.25H11.2531C9.13131 3.25242 7.09709 4.09638 5.59673 5.59673C4.09638 7.09709 3.25242 9.13131 3.25 11.2531V25.2604Z" fill="white"/>
<path fill-rule="evenodd" clip-rule="evenodd" d="M47.6992 37.45C47.699 38.2489 47.9357 39.0299 48.3794 39.6942C48.8231 40.3586 49.4538 40.8764 50.1918 41.1823C50.9298 41.4882 51.7419 41.5684 52.5255 41.4127C53.3091 41.257 54.0289 40.8725 54.5939 40.3077C55.1589 39.7429 55.5437 39.0233 55.6997 38.2398C55.8557 37.4562 55.7759 36.6441 55.4703 35.906C55.1647 35.1678 54.6471 34.5369 53.9829 34.0929C53.3188 33.649 52.5379 33.412 51.739 33.4119C50.6681 33.4128 49.6414 33.8385 48.8841 34.5956C48.1267 35.3526 47.7006 36.3792 47.6992 37.45Z" fill="#00ABEA"/>
</svg>
