<svg width="104" height="104" viewBox="0 0 104 104" fill="none" xmlns="http://www.w3.org/2000/svg">
<path fill-rule="evenodd" clip-rule="evenodd" d="M72.6415 41.4551C69.4561 44.6405 66.2386 47.8911 63.1281 51.0352C60.0177 54.1794 56.8044 57.426 53.6219 60.6075C52.7724 61.455 51.6215 61.9309 50.4216 61.9309C49.2216 61.9309 48.0707 61.455 47.2212 60.6075C45.7906 59.1767 44.3356 57.5365 42.7963 55.8016C41.1799 53.9799 39.5082 52.0951 37.7771 50.3661C36.9337 49.5162 36.4613 48.3667 36.4635 47.1693C36.4658 45.9718 36.9423 44.8241 37.7889 43.9773C38.6355 43.1304 39.7831 42.6535 40.9805 42.651C42.178 42.6484 43.3276 43.1204 44.1778 43.9636L49.784 49.5687C49.9123 49.697 50.0646 49.7988 50.2322 49.8682C50.3998 49.9376 50.5794 49.9734 50.7609 49.9734C50.9423 49.9734 51.1219 49.9376 51.2895 49.8682C51.4571 49.7988 51.6094 49.697 51.7377 49.5687L66.2467 35.0595C67.0947 34.2115 68.2449 33.7351 69.4441 33.7351C70.6434 33.7351 71.7935 34.2115 72.6415 35.0595C73.4895 35.9075 73.9659 37.0576 73.9659 38.2568C73.9659 39.4561 73.4895 40.6062 72.6415 41.4542V41.4551ZM64.2945 33.1066L50.7609 46.6376L46.1327 42.0092C44.7654 40.6421 42.9111 39.8742 40.9777 39.8744C39.0443 39.8745 37.1901 40.6427 35.8231 42.01C34.456 43.3772 33.6881 45.2315 33.6883 47.165C33.6884 49.0984 34.4566 50.9526 35.8239 52.3196C37.4958 53.9915 39.1397 55.8428 40.7285 57.6348C42.2977 59.402 43.7778 61.0708 45.268 62.5612C46.6373 63.9238 48.4904 64.6887 50.4222 64.6887C52.3539 64.6887 54.2071 63.9238 55.5764 62.5612C58.7624 59.3735 61.9791 56.1221 65.0915 52.9789C68.1994 49.8368 71.415 46.5882 74.5947 43.4065C75.2753 42.7311 75.8159 41.9279 76.1853 41.0431C76.5548 40.1583 76.7459 39.2092 76.7477 38.2504C76.7495 37.2916 76.562 36.3418 76.1959 35.4556C75.8298 34.5694 75.2924 33.7642 74.6144 33.0862C73.9363 32.4082 73.1311 31.8707 72.2449 31.5047C71.3587 31.1386 70.4089 30.9511 69.4501 30.9529C68.4913 30.9548 67.5422 31.1459 66.6574 31.5154C65.7726 31.8849 64.9695 32.4254 64.2941 33.106L64.2945 33.1066ZM88.1308 63.1313C89.3248 57.167 88.8551 40.1985 88.5135 27.8079C88.4068 23.9118 88.3124 20.4637 88.2846 17.9433C75.3722 16.8157 62.8727 12.8283 51.6926 6.27035C43.6755 11.6391 31.5513 15.436 15.6237 17.5704C15.5961 20.0079 15.5221 23.3749 15.4362 27.1843C15.1382 40.5381 14.6863 60.7202 15.8831 64.7649C19.6706 77.5617 31.7534 88.6916 51.798 97.8515C73.249 88.0712 85.4749 76.3909 88.1308 63.1313ZM91.2766 27.7336C91.1505 23.1527 91.0397 19.1974 91.0397 16.6712C91.0398 16.3228 90.9083 15.9873 90.6715 15.7319C90.4346 15.4764 90.11 15.3198 89.7627 15.2936C76.5349 14.33 63.7186 10.2716 52.3471 3.44569C52.1175 3.30834 51.853 3.24061 51.5856 3.25075C51.3183 3.26088 51.0596 3.34843 50.8411 3.50277C43.0184 9.01375 30.6474 12.8782 14.0765 14.984C13.7435 15.0267 13.4374 15.1889 13.2152 15.4405C12.9929 15.6921 12.8697 16.0159 12.8685 16.3516C12.8606 18.7891 12.7737 22.6485 12.6731 27.1221C12.2746 45.0211 12.0158 61.43 13.2335 65.5473C15.2766 72.4513 19.5395 78.9152 25.9026 84.7629C32.1892 90.5378 40.7092 95.8739 51.2268 100.627C51.4058 100.707 51.5996 100.749 51.7956 100.749C51.9917 100.749 52.1855 100.707 52.3643 100.627C63.6264 95.5505 72.5629 89.8961 78.9278 83.821C85.39 77.6552 89.3963 70.8757 90.8411 63.6739C92.0938 57.4032 91.6219 40.255 91.2766 27.734V27.7336Z" fill="white"/>
<path fill-rule="evenodd" clip-rule="evenodd" d="M51.738 49.5689C51.6098 49.6972 51.4575 49.799 51.2899 49.8684C51.1223 49.9379 50.9426 49.9736 50.7612 49.9736C50.5798 49.9736 50.4001 49.9379 50.2325 49.8684C50.0649 49.799 49.9126 49.6972 49.7844 49.5689L44.1781 43.9639C43.3279 43.1207 42.1783 42.6487 40.9809 42.6512C39.7834 42.6538 38.6358 43.1307 37.7892 43.9775C36.9426 44.8243 36.4661 45.9721 36.4639 47.1695C36.4617 48.3669 36.934 49.5165 37.7774 50.3664C39.5085 52.0954 41.1802 53.9802 42.7967 55.8018C44.3359 57.5367 45.7909 59.1769 47.2215 60.6078C48.071 61.4552 49.222 61.9312 50.4219 61.9312C51.6218 61.9312 52.7727 61.4552 53.6222 60.6078C56.8038 57.4262 60.0192 54.1776 63.1285 51.0355C66.2377 47.8933 69.4564 44.6407 72.6418 41.4553C73.49 40.6072 73.9665 39.457 73.9665 38.2576C73.9666 37.0582 73.4902 35.9079 72.6421 35.0598C71.7941 34.2117 70.6438 33.7352 69.4444 33.7351C68.2451 33.7351 67.0948 34.2115 66.2466 35.0595L51.738 49.5689Z" fill="#00ABEA"/>
</svg>
