<svg width="104" height="104" viewBox="0 0 104 104" fill="none" xmlns="http://www.w3.org/2000/svg">
<path fill-rule="evenodd" clip-rule="evenodd" d="M77.0026 58.2981C75.129 58.2984 73.2975 57.7431 71.7395 56.7024C70.1816 55.6618 68.9672 54.1825 68.25 52.4516C67.5328 50.7208 67.3449 48.8162 67.7102 46.9786C68.0755 45.141 68.9774 43.453 70.3021 42.128C71.6267 40.803 73.3145 39.9006 75.152 39.5349C76.9895 39.1691 78.8942 39.3565 80.6252 40.0733C82.3562 40.79 83.8358 42.004 84.8769 43.5617C85.9179 45.1194 86.4737 46.9508 86.4739 48.8243C86.4715 51.3358 85.473 53.7437 83.6973 55.5198C81.9217 57.2959 79.514 58.2951 77.0026 58.2981ZM77.0026 36.5895C74.5825 36.5892 72.2166 37.3066 70.2042 38.651C68.1918 39.9954 66.6233 41.9063 65.697 44.1422C64.7707 46.378 64.5283 48.8383 65.0003 51.212C65.4724 53.5856 66.6377 55.7659 68.349 57.4773C70.0602 59.1886 72.2405 60.354 74.6142 60.8261C76.9878 61.2982 79.4481 61.0559 81.684 60.1297C83.9199 59.2034 85.8308 57.635 87.1753 55.6226C88.5197 53.6103 89.2372 51.2445 89.237 48.8243C89.2334 45.5806 87.9433 42.4708 85.6497 40.1771C83.3561 37.8835 80.2463 36.5932 77.0026 36.5895ZM96.6389 51.327V46.3237C96.6374 46.1893 96.5834 46.0609 96.4885 45.9658C96.3937 45.8706 96.2654 45.8163 96.1311 45.8144H92.292C91.9919 45.8146 91.7 45.717 91.4603 45.5365C91.2206 45.356 91.0463 45.1023 90.9636 44.8138C90.6613 43.7625 90.2409 42.7488 89.7103 41.7922C89.5647 41.53 89.5086 41.2276 89.5504 40.9307C89.5921 40.6338 89.7296 40.3586 89.9418 40.1468L92.657 37.4311C92.7508 37.3346 92.8033 37.2054 92.8033 37.0708C92.8033 36.9363 92.7508 36.807 92.657 36.7106L89.1165 33.1703C89.0201 33.0767 88.891 33.0243 88.7566 33.0243C88.6222 33.0243 88.4931 33.0767 88.3967 33.1703L85.6803 35.8861C85.4682 36.0979 85.193 36.2349 84.8962 36.2766C84.5994 36.3183 84.2971 36.2623 84.035 36.1171C83.0782 35.5867 82.0645 35.1662 81.0133 34.8636C80.7248 34.781 80.4712 34.6067 80.2907 34.367C80.1102 34.1273 80.0128 33.8354 80.0131 33.5353V29.6963C80.0113 29.562 79.9573 29.4337 79.8625 29.3386C79.7677 29.2436 79.6395 29.1892 79.5053 29.187H74.4997C74.3653 29.189 74.2369 29.2433 74.1419 29.3384C74.0468 29.4335 73.9926 29.5618 73.9906 29.6963V33.5353C73.9907 33.8354 73.8932 34.1273 73.7126 34.3669C73.5321 34.6065 73.2785 34.7809 72.9901 34.8636C71.9389 35.1664 70.9253 35.5869 69.9684 36.1171C69.7062 36.2623 69.4039 36.3183 69.1071 36.2766C68.8103 36.2349 68.5351 36.0979 68.323 35.8861L65.606 33.1703C65.5098 33.0764 65.3806 33.0238 65.2461 33.0238C65.1116 33.0238 64.9824 33.0764 64.8862 33.1703L61.3467 36.709C61.2531 36.8055 61.2008 36.9347 61.2008 37.0692C61.2008 37.2037 61.2531 37.3329 61.3467 37.4294L64.0625 40.1452C64.2748 40.357 64.4122 40.6322 64.4538 40.9292C64.4955 41.2261 64.4392 41.5285 64.2935 41.7905C63.7641 42.7478 63.3437 43.7613 63.0402 44.8122C62.9578 45.1003 62.7839 45.3538 62.5447 45.5344C62.3055 45.7149 62.014 45.8126 61.7144 45.8128H57.8753C57.741 45.8148 57.6127 45.8691 57.5179 45.9642C57.423 46.0593 57.3691 46.1877 57.3675 46.322V51.3254C57.3691 51.4599 57.4233 51.5884 57.5184 51.6836C57.6135 51.7787 57.742 51.8328 57.8765 51.8345H61.7156C62.0154 51.8345 62.307 51.9322 62.5463 52.1127C62.7856 52.2933 62.9596 52.5468 63.042 52.835C63.3451 53.8867 63.7649 54.9011 64.2937 55.8594C64.4393 56.1214 64.4956 56.4238 64.454 56.7207C64.4123 57.0176 64.275 57.2928 64.0629 57.5047L61.3467 60.2205C61.2531 60.317 61.2008 60.4462 61.2008 60.5806C61.2008 60.7151 61.2531 60.8442 61.3467 60.9408L64.8856 64.4796C64.982 64.5735 65.1113 64.626 65.2459 64.626C65.3805 64.626 65.5098 64.5735 65.6063 64.4796L68.3216 61.7638C68.5336 61.5518 68.8088 61.4146 69.1056 61.3729C69.4025 61.3312 69.7048 61.3874 69.9669 61.5329C70.9238 62.063 71.9374 62.4834 72.9886 62.7861C73.2771 62.8688 73.5308 63.0431 73.7114 63.2827C73.8921 63.5224 73.9897 63.8143 73.9896 64.1144V67.9534C73.9916 68.0878 74.0459 68.2161 74.1411 68.3109C74.2363 68.4058 74.3647 68.4597 74.4991 68.4613H79.5041C79.6381 68.4593 79.7662 68.4052 79.861 68.3104C79.9558 68.2156 80.0099 68.0875 80.0119 67.9534V64.1144C80.0118 63.8144 80.1094 63.5224 80.2899 63.2828C80.4704 63.0432 80.7241 62.8688 81.0125 62.7861C82.0637 62.4836 83.0774 62.0632 84.0342 61.5329C84.2966 61.387 84.5995 61.3306 84.8969 61.3722C85.1943 61.4139 85.47 61.5514 85.6823 61.7638L88.3979 64.4796C88.494 64.5735 88.623 64.626 88.7573 64.626C88.8917 64.626 89.0207 64.5735 89.1168 64.4796L92.6552 60.9408C92.7498 60.8447 92.8028 60.7153 92.8028 60.5805C92.8028 60.4457 92.7498 60.3163 92.6552 60.2203L89.9396 57.5047C89.7275 57.2928 89.5903 57.0176 89.5486 56.7207C89.5069 56.4238 89.5631 56.1215 89.7087 55.8594C90.2391 54.9026 90.6595 53.889 90.9619 52.8377C91.0446 52.5492 91.219 52.2955 91.4586 52.1149C91.6983 51.9344 91.9903 51.8368 92.2904 51.8369H96.1294C96.264 51.8353 96.3927 51.7811 96.4879 51.686C96.5832 51.5908 96.6375 51.4623 96.6393 51.3277L96.6389 51.327ZM96.1299 43.0513H93.2975C93.096 42.4847 92.8654 41.9287 92.6068 41.3857L94.6111 39.3843C95.2241 38.7702 95.5685 37.9379 95.5685 37.0702C95.5685 36.2025 95.2241 35.3702 94.6111 34.7561L91.0726 31.2173C90.4585 30.6049 89.6265 30.2611 88.7593 30.2611C87.892 30.2611 87.0601 30.6049 86.4459 31.2173L84.4435 33.2205C83.9005 32.9618 83.3445 32.7313 82.7778 32.5299V29.6975C82.7771 28.8302 82.4324 27.9986 81.8193 27.3851C81.2062 26.7717 80.3748 26.4264 79.5075 26.4251H74.5025C73.635 26.4263 72.8033 26.7714 72.1898 27.3848C71.5763 27.9983 71.2312 28.8299 71.23 29.6975V32.5299C70.6636 32.7312 70.1081 32.9618 69.5656 33.2205L67.5628 31.2171C66.9482 30.6047 66.1159 30.2609 65.2483 30.2609C64.3808 30.2609 63.5485 30.6047 62.9339 31.2171L59.3935 34.7559C58.7816 35.3707 58.4381 36.2027 58.4381 37.0701C58.4381 37.9375 58.7816 38.7696 59.3935 39.3843L61.3973 41.3855C61.1387 41.9285 60.9082 42.4845 60.7067 43.0511H57.8751C57.0074 43.0516 56.1753 43.3965 55.5617 44.0101C54.9482 44.6237 54.6032 45.4557 54.6028 46.3235V51.3268C54.6035 52.1944 54.9485 53.0263 55.5619 53.6398C56.1753 54.2533 57.0071 54.5983 57.8747 54.5992H60.7057C60.907 55.1653 61.1375 55.7207 61.3963 56.263L59.3935 58.2664C58.7812 58.881 58.4374 59.7131 58.4374 60.5806C58.4374 61.4481 58.7812 62.2803 59.3935 62.8948L62.9329 66.4337C63.5473 67.0461 64.3794 67.3899 65.2468 67.3899C66.1143 67.3899 66.9464 67.0461 67.5607 66.4337L69.5648 64.4304C70.1068 64.6891 70.6619 64.9196 71.2277 65.1211V67.9534C71.2289 68.8207 71.574 69.6521 72.1874 70.2652C72.8008 70.8783 73.6324 71.2231 74.4997 71.2238H79.5053C80.3724 71.2231 81.2039 70.8783 81.817 70.2652C82.4302 69.652 82.7749 68.8206 82.7756 67.9534V65.1211C83.3423 64.9197 83.8983 64.6891 84.4412 64.4304L86.4446 66.4339C87.0587 67.0462 87.8905 67.3902 88.7577 67.3902C89.6249 67.3902 90.4568 67.0462 91.0708 66.4339L94.6105 62.8952C95.2232 62.2809 95.5672 61.4487 95.5672 60.581C95.5672 59.7134 95.2232 58.8811 94.6105 58.2668L92.6077 56.2636C92.8666 55.7214 93.0971 55.166 93.2983 54.5998H96.1313C96.9987 54.5987 97.8304 54.2535 98.4437 53.6401C99.057 53.0266 99.402 52.1949 99.403 51.3275V46.3237C99.4022 45.4561 99.0572 44.6243 98.4438 44.0108C97.8304 43.3973 96.9986 43.0522 96.1311 43.0513H96.1299ZM26.9975 16.1777C28.8708 16.1778 30.702 16.7334 32.2595 17.7743C33.817 18.8151 35.031 20.2944 35.7478 22.0252C36.4646 23.7559 36.652 25.6603 36.2865 27.4976C35.921 29.3349 35.0188 31.0226 33.6942 32.3471C32.3695 33.6717 30.6818 34.5738 28.8445 34.9392C27.0072 35.3046 25.1027 35.117 23.372 34.4001C21.6414 33.6832 20.1621 32.4692 19.1214 30.9115C18.0806 29.3539 17.5251 27.5227 17.5251 25.6494C17.5277 23.138 18.5265 20.7302 20.3024 18.9545C22.0782 17.1787 24.4861 16.1801 26.9975 16.1777ZM26.9975 37.8842C29.4173 37.8842 31.7828 37.1665 33.7948 35.822C35.8068 34.4776 37.3749 32.5667 38.3009 30.331C39.2269 28.0953 39.4691 25.6353 38.9969 23.2619C38.5248 20.8886 37.3595 18.7086 35.6483 16.9975C33.9372 15.2865 31.7571 14.1212 29.3837 13.6492C27.0104 13.1772 24.5503 13.4195 22.3147 14.3456C20.0791 15.2717 18.1682 16.8399 16.8239 18.852C15.4795 20.864 14.762 23.2296 14.762 25.6494C14.7656 28.8933 16.0559 32.0033 18.3497 34.297C20.6436 36.5907 23.7536 37.8808 26.9975 37.8842ZM7.36117 28.1519C7.36265 28.2864 7.41672 28.415 7.51181 28.5102C7.60691 28.6054 7.73547 28.6596 7.87 28.6611H11.7091C12.0091 28.6608 12.3011 28.7584 12.5408 28.9389C12.7805 29.1195 12.9548 29.3732 13.0373 29.6617C13.3398 30.7124 13.7603 31.7255 14.2908 32.6816C14.4367 32.944 14.4931 33.2469 14.4514 33.5442C14.4098 33.8416 14.2724 34.1173 14.06 34.3295L11.3438 37.0453C11.249 37.1412 11.1959 37.2706 11.1959 37.4055C11.1959 37.5403 11.249 37.6697 11.3438 37.7656L14.8827 41.3047C14.9796 41.3979 15.109 41.4498 15.2434 41.4495C15.3779 41.4491 15.507 41.3964 15.6034 41.3026L18.3167 38.5868C18.5291 38.3746 18.8048 38.2372 19.1021 38.1956C19.3995 38.1539 19.7023 38.2102 19.9649 38.3559C20.9212 38.8869 21.9349 39.3075 22.9864 39.6094C23.2747 39.6922 23.5283 39.8666 23.7089 40.1062C23.8895 40.3458 23.9873 40.6376 23.9876 40.9376V44.7767C23.9892 44.9112 24.0435 45.0398 24.1386 45.135C24.2338 45.2301 24.3624 45.2843 24.497 45.2859H29.5C29.6346 45.2843 29.7633 45.2302 29.8585 45.135C29.9538 45.0399 30.0081 44.9113 30.0098 44.7767V40.9376C30.0099 40.6378 30.1075 40.3461 30.2878 40.1066C30.4681 39.867 30.7213 39.6925 31.0094 39.6094C32.0609 39.3076 33.0747 38.8871 34.0311 38.3561C34.2934 38.2106 34.5959 38.1545 34.8929 38.1962C35.1899 38.2378 35.4653 38.375 35.6774 38.587L38.393 41.3028C38.4894 41.3968 38.6187 41.4494 38.7533 41.4494C38.888 41.4494 39.0173 41.3968 39.1137 41.3028L42.6521 37.766C42.7459 37.6696 42.7984 37.5403 42.7984 37.4058C42.7984 37.2712 42.7459 37.142 42.6521 37.0455L39.9355 34.3298C39.7231 34.1175 39.5857 33.8418 39.544 33.5445C39.5023 33.2471 39.5587 32.9443 39.7046 32.6818C40.2355 31.7262 40.6554 30.713 40.956 29.6619C41.0392 29.3738 41.2137 29.1204 41.4533 28.94C41.6929 28.7595 41.9845 28.6618 42.2845 28.6613H46.1235C46.2581 28.6597 46.3868 28.6056 46.4821 28.5104C46.5774 28.4153 46.6317 28.2867 46.6336 28.1521V23.1469C46.6319 23.0124 46.5778 22.8838 46.4827 22.7887C46.3876 22.6936 46.259 22.6394 46.1245 22.6377H42.2855C41.9856 22.6372 41.694 22.5394 41.4544 22.359C41.2149 22.1785 41.0404 21.9252 40.9572 21.6371C40.6564 20.5862 40.2366 19.573 39.7058 18.6174C39.56 18.3549 39.5037 18.052 39.5454 17.7546C39.5872 17.4571 39.7248 17.1815 39.9373 16.9693L42.6525 14.2535C42.6996 14.2063 42.7368 14.1502 42.7618 14.0884C42.7868 14.0266 42.7992 13.9604 42.7982 13.8938C42.7989 13.827 42.7864 13.7607 42.7615 13.6987C42.7366 13.6367 42.6997 13.5803 42.6529 13.5326L39.1133 9.99375C39.0166 9.90066 38.8876 9.84865 38.7533 9.84865C38.6191 9.84865 38.4901 9.90066 38.3934 9.99375L35.677 12.7099C35.4652 12.922 35.1901 13.0594 34.8933 13.1014C34.5965 13.1434 34.2941 13.0877 34.0317 12.9427C33.0753 12.4117 32.0615 11.9912 31.01 11.6894C30.7217 11.6067 30.4681 11.4323 30.2877 11.1927C30.1072 10.953 30.0097 10.6612 30.0098 10.3612V6.52214C30.0082 6.38782 29.9543 6.25942 29.8594 6.1643C29.7646 6.06918 29.6363 6.01486 29.502 6.01291H24.4966C24.3623 6.0148 24.234 6.06908 24.1392 6.16417C24.0443 6.25926 23.9904 6.38763 23.9888 6.52194V10.361C23.9889 10.661 23.8913 10.9529 23.7108 11.1926C23.5302 11.4322 23.2766 11.6066 22.9882 11.6892C21.9367 11.9912 20.923 12.4117 19.9665 12.9425C19.7037 13.0876 19.4008 13.1433 19.1035 13.1014C18.8063 13.0594 18.5307 12.9219 18.3183 12.7097L15.6007 9.99375C15.5044 9.90069 15.3757 9.84868 15.2418 9.84868C15.1079 9.84868 14.9792 9.90069 14.8829 9.99375L11.3434 13.533C11.2486 13.6289 11.1955 13.7583 11.1955 13.8931C11.1955 14.028 11.2486 14.1574 11.3434 14.2533L14.0592 16.9691C14.2717 17.1813 14.4091 17.457 14.4508 17.7545C14.4925 18.0519 14.4361 18.3547 14.2902 18.6172C13.7597 19.5733 13.3392 20.5863 13.0367 21.6369C12.954 21.9253 12.7797 22.1789 12.54 22.3595C12.3004 22.54 12.0085 22.6376 11.7085 22.6375H7.86939C7.73488 22.6391 7.60634 22.6933 7.51126 22.7885C7.41618 22.8836 7.36209 23.0122 7.36056 23.1467V28.1519H7.36117ZM10.7024 31.4234C10.904 31.9895 11.1345 32.5448 11.393 33.0872L9.38978 35.0907C8.77688 35.7045 8.43263 36.5364 8.43263 37.4038C8.43263 38.2713 8.77688 39.1032 9.38978 39.717L12.9292 43.2577C13.5436 43.8703 14.376 44.2141 15.2436 44.2137C16.1112 44.2133 16.9432 43.8688 17.557 43.2557L19.5584 41.2545C20.101 41.5135 20.657 41.7434 21.224 41.9433V44.7755C21.2245 45.6433 21.5694 46.4755 22.183 47.0893C22.7966 47.7031 23.6287 48.0482 24.4966 48.0488H29.5006C30.3681 48.0476 31.1996 47.7024 31.813 47.0889C32.4263 46.4754 32.7713 45.6437 32.7723 44.7763V41.9441C33.3386 41.7441 33.8938 41.5142 34.4357 41.2553L36.4393 43.2565C37.0532 43.8698 37.8855 44.2143 38.7532 44.2143C39.621 44.2143 40.4532 43.8698 41.0671 43.2565L44.606 39.7178C45.2185 39.1038 45.5624 38.2719 45.5624 37.4047C45.5624 36.5374 45.2185 35.7055 44.606 35.0915L42.6034 33.088C42.8617 32.5455 43.0922 31.9902 43.294 31.4242H46.1243C46.992 31.4235 47.8239 31.0786 48.4375 30.465C49.051 29.8515 49.396 29.0196 49.3967 28.1519V23.1467C49.3957 22.279 49.0505 21.4471 48.4369 20.8336C47.8232 20.2201 46.9912 19.8751 46.1235 19.8744H43.294C43.0921 19.3084 42.8616 18.7531 42.6034 18.2106L44.6066 16.2071C45.2191 15.5932 45.563 14.7613 45.563 13.8941C45.563 13.0268 45.2191 12.195 44.6066 11.581L41.0677 8.04212C40.4536 7.42883 39.6212 7.08434 38.7533 7.08434C37.8854 7.08434 37.053 7.42883 36.4389 8.04212L34.4357 10.0435C33.8937 9.78455 33.3383 9.55456 32.7719 9.35452V6.52214C32.7706 5.65464 32.4254 4.82305 31.8119 4.20967C31.1985 3.59629 30.3669 3.25118 29.4994 3.25H24.4966C23.6289 3.25081 22.7971 3.59582 22.1835 4.20933C21.57 4.82283 21.2249 5.65469 21.224 6.52234V9.35452C20.657 9.55458 20.1011 9.78457 19.5584 10.0435L17.5558 8.04009C16.9416 7.42752 16.1094 7.08369 15.2419 7.08407C14.3744 7.08446 13.5425 7.42902 12.9288 8.04212L9.38958 11.581C8.77669 12.1947 8.43245 13.0267 8.43245 13.8941C8.43245 14.7614 8.77669 15.5934 9.38958 16.2071L11.3934 18.2104C11.1353 18.753 10.9048 19.3084 10.7028 19.8744H7.87C7.00248 19.8755 6.17084 20.2207 5.55741 20.8341C4.94398 21.4475 4.59884 22.2792 4.59766 23.1467V28.1519C4.59889 29.0193 4.94408 29.8509 5.55752 30.4641C6.17096 31.0774 7.00257 31.4224 7.87 31.4234H10.7024ZM30.1512 87.2381C28.1545 87.2381 26.2027 86.646 24.5425 85.5368C22.8824 84.4275 21.5884 82.8508 20.8243 81.0061C20.0602 79.1614 19.8603 77.1316 20.2499 75.1733C20.6394 73.215 21.6009 71.4162 23.0127 70.0043C24.4246 68.5925 26.2234 67.631 28.1817 67.2415C30.14 66.8519 32.1698 67.0519 34.0145 67.816C35.8592 68.58 37.4358 69.874 38.5451 71.5342C39.6544 73.1943 40.2465 75.1461 40.2465 77.1428C40.2434 79.8193 39.1788 82.3853 37.2862 84.2778C35.3936 86.1704 32.8277 87.235 30.1512 87.2381ZM30.1512 64.285C27.6082 64.285 25.1222 65.0391 23.0078 66.4519C20.8933 67.8648 19.2453 69.8729 18.2721 72.2223C17.2989 74.5718 17.0443 77.1571 17.5404 79.6512C18.0366 82.1454 19.2611 84.4365 21.0593 86.2347C22.8575 88.0329 25.1486 89.2574 27.6428 89.7536C30.1369 90.2497 32.7222 89.9951 35.0717 89.0219C37.4211 88.0487 39.4292 86.4007 40.8421 84.2862C42.2549 82.1718 43.009 79.6858 43.009 77.1428C43.0053 73.7338 41.6495 70.4655 39.239 68.055C36.8285 65.6445 33.5602 64.2887 30.1512 64.285ZM50.9955 79.7895V74.4961C50.9931 74.3331 50.9272 74.1774 50.812 74.062C50.6967 73.9467 50.541 73.8809 50.378 73.8784H46.3173C46.0173 73.8782 45.7255 73.7805 45.4859 73.6C45.2463 73.4195 45.0718 73.1661 44.9889 72.8778C44.6679 71.7605 44.221 70.6832 43.6568 69.6668C43.5121 69.4044 43.4565 69.1022 43.4983 68.8055C43.54 68.5089 43.6769 68.2337 43.8883 68.0215L46.7613 65.1497C46.8749 65.0325 46.9384 64.8757 46.9384 64.7125C46.9384 64.5493 46.8749 64.3925 46.7613 64.2753L43.019 60.5333C42.902 60.4196 42.7453 60.356 42.5822 60.356C42.4191 60.356 42.2625 60.4196 42.1455 60.5333L39.2739 63.4051C39.0616 63.6175 38.7859 63.7549 38.4885 63.7965C38.1911 63.8382 37.8882 63.7817 37.6258 63.6358C36.6089 63.0728 35.5317 62.6266 34.4146 62.3055C34.1264 62.2224 33.873 62.048 33.6926 61.8084C33.5121 61.5689 33.4143 61.2772 33.414 60.9773V56.9156C33.412 56.7525 33.3464 56.5966 33.2311 56.4812C33.1158 56.3658 32.96 56.3 32.7969 56.2979H27.5041C27.3408 56.2998 27.1848 56.3655 27.0694 56.4809C26.9539 56.5964 26.8883 56.7524 26.8864 56.9156V60.9755C26.886 61.2754 26.7882 61.5671 26.6078 61.8066C26.4273 62.0462 26.1739 62.2206 25.8858 62.3037C24.7688 62.6252 23.6915 63.0715 22.6744 63.634C22.4124 63.7799 22.1099 63.8364 21.813 63.7947C21.516 63.7531 21.2408 63.6156 21.029 63.4032L18.1567 60.5323C18.0397 60.4185 17.8831 60.3549 17.7199 60.3549C17.5568 60.3549 17.4001 60.4185 17.2832 60.5323L13.5402 64.2742C13.425 64.3906 13.3604 64.5477 13.3604 64.7115C13.3604 64.8752 13.425 65.0323 13.5402 65.1487L16.4122 68.0205C16.6245 68.2322 16.7619 68.5075 16.8035 68.8044C16.8452 69.1014 16.7888 69.4038 16.643 69.6658C16.0794 70.6825 15.6325 71.7597 15.3109 72.8768C15.2282 73.1652 15.0539 73.4189 14.8143 73.5995C14.5746 73.78 14.2827 73.8777 13.9826 73.8776H9.92441C9.7613 73.8799 9.60554 73.9458 9.49026 74.0612C9.37497 74.1766 9.30926 74.3324 9.30711 74.4955V79.7889C9.30948 79.9521 9.37543 80.108 9.49093 80.2234C9.60644 80.3387 9.76239 80.4045 9.92563 80.4066H13.9824C14.2826 80.406 14.5748 80.5033 14.8145 80.6839C15.0543 80.8646 15.2285 81.1185 15.3107 81.4072C15.6322 82.5244 16.0791 83.6017 16.6428 84.6184C16.7886 84.8804 16.8449 85.1828 16.8034 85.4797C16.7618 85.7766 16.6245 86.0519 16.4124 86.2637L13.5402 89.1353C13.4263 89.2523 13.3626 89.4092 13.3626 89.5725C13.3626 89.7359 13.4263 89.8927 13.5402 90.0098L17.2818 93.7519C17.3986 93.866 17.5553 93.9298 17.7185 93.9298C17.8817 93.9298 18.0385 93.866 18.1552 93.7519L21.0286 90.8802C21.1567 90.7515 21.3089 90.6494 21.4766 90.58C21.6443 90.5105 21.8242 90.475 22.0057 90.4755C22.2399 90.4745 22.4704 90.5343 22.6746 90.6492C23.6915 91.2122 24.7688 91.6584 25.886 91.9795C26.1741 92.0627 26.4275 92.2372 26.6079 92.4767C26.7884 92.7163 26.8861 93.008 26.8866 93.3079V97.3678C26.8886 97.531 26.9543 97.687 27.0698 97.8025C27.1853 97.9179 27.3414 97.9836 27.5047 97.9855H32.7957C32.9589 97.9836 33.115 97.9179 33.2304 97.8025C33.3459 97.687 33.4116 97.531 33.4136 97.3678V93.3093C33.4137 93.0093 33.5114 92.7175 33.6919 92.4779C33.8723 92.2383 34.1259 92.0638 34.4142 91.9809C35.5313 91.66 36.6086 91.2137 37.6254 90.6506C37.8879 90.5047 38.1908 90.4483 38.4882 90.4899C38.7857 90.5316 39.0615 90.6691 39.2737 90.8816L42.1451 93.7534C42.2623 93.8672 42.4192 93.9309 42.5825 93.9309C42.7459 93.9309 42.9028 93.8672 43.02 93.7534L46.7615 90.0112C46.8755 89.8942 46.9394 89.7373 46.9394 89.574C46.9394 89.4106 46.8755 89.2537 46.7615 89.1367L43.8877 86.2652C43.6762 86.0524 43.5393 85.7768 43.4977 85.4797C43.456 85.1825 43.5119 84.8799 43.6568 84.6172C44.2215 83.6016 44.6684 82.5248 44.9889 81.4078C45.0716 81.1194 45.246 80.8657 45.4857 80.6851C45.7254 80.5046 46.0174 80.407 46.3175 80.4072H50.3772C50.5402 80.4046 50.6959 80.3387 50.8113 80.2235C50.9266 80.1082 50.9927 79.9526 50.9955 79.7895ZM50.3774 71.1161H47.3264C47.1041 70.484 46.847 69.8646 46.5562 69.2609L48.7156 67.1036C49.348 66.4683 49.7028 65.6084 49.7024 64.712C49.702 63.8157 49.3463 62.956 48.7134 62.3214L44.9716 58.5782C44.3371 57.945 43.4774 57.5893 42.581 57.5893C41.6846 57.5893 40.8249 57.945 40.1904 58.5782L38.0341 60.7352C37.4292 60.445 36.809 60.1881 36.1761 59.9655V56.9156C36.1754 56.0191 35.8189 55.1596 35.185 54.5257C34.5511 53.8918 33.6915 53.5353 32.7951 53.5346H27.5045C26.608 53.5354 25.7484 53.8918 25.1144 54.5257C24.4805 55.1596 24.1239 56.0191 24.123 56.9156V59.9649C23.4911 60.1878 22.8716 60.4448 22.2675 60.7348L20.1091 58.5782C19.4748 57.945 18.6152 57.5893 17.7189 57.5893C16.8227 57.5893 15.963 57.945 15.3288 58.5782L11.5872 62.3202C10.9537 62.9547 10.5979 63.8147 10.5979 64.7114C10.5979 65.608 10.9537 66.468 11.5872 67.1026L13.7452 69.2595C13.4549 69.8636 13.1977 70.4829 12.9747 71.1149H9.92522C9.02874 71.1159 8.16927 71.4724 7.53532 72.1063C6.90138 72.7402 6.54472 73.5996 6.54359 74.4961V79.7895C6.54456 80.6859 6.90106 81.5452 7.53488 82.1791C8.1687 82.8129 9.02806 83.1694 9.92441 83.1703H12.9743C13.1969 83.8023 13.4537 84.4216 13.7436 85.0257L11.587 87.1829C10.9537 87.8175 10.598 88.6774 10.598 89.574C10.598 90.4705 10.9537 91.3305 11.587 91.965L15.3294 95.7072C15.9642 96.3392 16.8235 96.694 17.7193 96.694C18.6151 96.694 19.4744 96.3392 20.1093 95.7072L22.2687 93.548C22.8719 93.8396 23.4912 94.0966 24.1237 94.3178V97.3692C24.1243 98.2656 24.4806 99.1251 25.1144 99.7589C25.7482 100.393 26.6077 100.749 27.5041 100.75H32.7963C33.6926 100.749 34.552 100.393 35.1857 99.7588C35.8194 99.125 36.1757 98.2655 36.1763 97.3692V94.3176C36.8097 94.097 37.4298 93.84 38.0337 93.548L40.1908 95.7072C40.8253 96.34 41.6848 96.6953 42.5809 96.6953C43.477 96.6953 44.3365 96.34 44.971 95.7072L48.7136 91.965C49.3466 91.3303 49.7022 90.4704 49.7022 89.574C49.7022 88.6775 49.3466 87.8176 48.7136 87.1829L46.556 85.0257C46.8468 84.422 47.1037 83.8026 47.3254 83.1703H50.377C51.2732 83.169 52.1323 82.8124 52.766 82.1786C53.3997 81.5449 53.7563 80.6857 53.7576 79.7895V74.4961C53.7561 73.6 53.3995 72.741 52.766 72.1072C52.1324 71.4735 51.2735 71.1167 50.3774 71.1151V71.1161Z" fill="white"/>
<path fill-rule="evenodd" clip-rule="evenodd" d="M39.2325 25.6494C39.2324 28.0693 38.5148 30.4347 37.1704 32.4467C35.826 34.4587 33.9152 36.0268 31.6796 36.9528C29.4439 37.8788 26.9839 38.1211 24.6106 37.6489C22.2373 37.1768 20.0573 36.0116 18.3462 34.3005C16.6352 32.5894 15.4699 30.4094 14.9979 28.0361C14.5258 25.6627 14.7681 23.2027 15.6941 20.9671C16.6202 18.7315 18.1883 16.8207 20.2003 15.4763C22.2123 14.132 24.5778 13.4144 26.9976 13.4144C30.2414 13.418 33.3513 14.7082 35.645 17.002C37.9387 19.2957 39.2289 22.4056 39.2325 25.6494ZM13.0377 29.6618C13.3402 30.7125 13.7607 31.7255 14.2911 32.6816C14.437 32.9441 14.4934 33.2469 14.4518 33.5443C14.4101 33.8416 14.2727 34.1173 14.0604 34.3296L11.3442 37.0454C11.2494 37.1413 11.1962 37.2707 11.1962 37.4055C11.1962 37.5403 11.2494 37.6697 11.3442 37.7656L14.883 41.3047C14.98 41.3979 15.1093 41.4499 15.2438 41.4495C15.3783 41.4491 15.5074 41.3965 15.6037 41.3027L18.3171 38.5869C18.5295 38.3746 18.8052 38.2373 19.1025 38.1956C19.3999 38.1539 19.7027 38.2102 19.9652 38.3559C20.9217 38.887 21.9355 39.3075 22.9871 39.6094C23.2755 39.6922 23.5291 39.8666 23.7097 40.1062C23.8903 40.3458 23.9881 40.6376 23.9883 40.9376V44.7767C23.99 44.9113 24.0442 45.0399 24.1394 45.135C24.2346 45.2301 24.3632 45.2843 24.4978 45.2859H29.5007C29.6354 45.2844 29.764 45.2302 29.8593 45.1351C29.9545 45.0399 30.0088 44.9113 30.0106 44.7767V40.9376C30.0107 40.6378 30.1083 40.3462 30.2886 40.1066C30.4688 39.867 30.7221 39.6925 31.0102 39.6094C32.0617 39.3076 33.0754 38.8872 34.0318 38.3561C34.2941 38.2107 34.5966 38.1545 34.8936 38.1962C35.1907 38.2379 35.466 38.3751 35.6782 38.5871L38.3937 41.3029C38.4902 41.3968 38.6195 41.4494 38.7541 41.4494C38.8887 41.4494 39.018 41.3968 39.1144 41.3029L42.6529 37.766C42.7467 37.6696 42.7991 37.5403 42.7991 37.4058C42.7991 37.2713 42.7467 37.142 42.6529 37.0456L39.9363 34.3298C39.7239 34.1175 39.5865 33.8418 39.5448 33.5445C39.5031 33.2471 39.5595 32.9443 39.7053 32.6818C40.2363 31.7262 40.6561 30.713 40.9568 29.662C41.04 29.3738 41.2145 29.1205 41.4541 28.94C41.6936 28.7596 41.9853 28.6618 42.2852 28.6614H46.1243C46.2589 28.6597 46.3876 28.6056 46.4828 28.5105C46.5781 28.4153 46.6325 28.2868 46.6343 28.1521V23.1469C46.6327 23.0124 46.5786 22.8839 46.4834 22.7887C46.3883 22.6936 46.2598 22.6394 46.1253 22.6377H42.2862C41.9863 22.6372 41.6947 22.5394 41.4552 22.359C41.2157 22.1786 41.0412 21.9252 40.958 21.6371C40.6572 20.5862 40.2373 19.5731 39.7065 18.6175C39.5607 18.3549 39.5044 18.052 39.5462 17.7546C39.588 17.4572 39.7256 17.1815 39.9381 16.9693L42.6533 14.2535C42.7004 14.2063 42.7375 14.1502 42.7625 14.0884C42.7876 14.0266 42.7999 13.9604 42.7989 13.8938C42.7997 13.827 42.7872 13.7607 42.7623 13.6987C42.7374 13.6368 42.7005 13.5803 42.6537 13.5326L39.114 9.99378C39.0173 9.90069 38.8883 9.84868 38.7541 9.84868C38.6199 9.84868 38.4909 9.90069 38.3942 9.99378L35.6778 12.71C35.4659 12.922 35.1908 13.0595 34.894 13.1014C34.5972 13.1434 34.2948 13.0877 34.0325 12.9428C33.076 12.4117 32.0623 11.9913 31.0108 11.6895C30.7224 11.6067 30.4689 11.4323 30.2884 11.1927C30.108 10.9531 30.0105 10.6612 30.0106 10.3612V6.52217C30.009 6.38785 29.955 6.25945 29.8602 6.16433C29.7653 6.06921 29.6371 6.01489 29.5028 6.01294H24.4974C24.3631 6.01484 24.2348 6.06911 24.14 6.1642C24.0451 6.25929 23.9911 6.38767 23.9895 6.52197V10.361C23.9896 10.6611 23.8921 10.953 23.7115 11.1926C23.531 11.4322 23.2774 11.6066 22.989 11.6893C21.9375 11.9912 20.9238 12.4117 19.9673 12.9425C19.7044 13.0876 19.4016 13.1434 19.1043 13.1014C18.807 13.0594 18.5315 12.922 18.3191 12.7098L15.6015 9.99378C15.5052 9.90073 15.3765 9.84871 15.2426 9.84871C15.1087 9.84871 14.98 9.90073 14.8837 9.99378L11.3442 13.533C11.2494 13.6289 11.1962 13.7583 11.1962 13.8932C11.1962 14.028 11.2494 14.1574 11.3442 14.2533L14.06 16.9691C14.2724 17.1814 14.4099 17.4571 14.4516 17.7545C14.4932 18.0519 14.4368 18.3548 14.2909 18.6173C13.7605 19.5733 13.34 20.5863 13.0375 21.6369C12.9548 21.9253 12.7804 22.179 12.5408 22.3595C12.3011 22.54 12.0092 22.6376 11.7092 22.6375H7.87016C7.73564 22.6391 7.60711 22.6933 7.51203 22.7885C7.41694 22.8836 7.36286 23.0122 7.36133 23.1467V28.1519C7.3628 28.2865 7.41688 28.4151 7.51197 28.5102C7.60706 28.6054 7.73563 28.6596 7.87016 28.6612H11.7092C12.0093 28.6608 12.3014 28.7583 12.5411 28.9389C12.7808 29.1194 12.9551 29.3732 13.0377 29.6618Z" fill="#00ABEA"/>
<path fill-rule="evenodd" clip-rule="evenodd" d="M42.1454 60.5322L39.2738 63.404C39.0615 63.6164 38.7858 63.7538 38.4884 63.7954C38.191 63.8371 37.8881 63.7807 37.6257 63.6347C36.6088 63.0718 35.5316 62.6255 34.4145 62.3045C34.1263 62.2214 33.8729 62.0469 33.6925 61.8074C33.512 61.5678 33.4142 61.2761 33.4139 60.9762V56.9156C33.4119 56.7524 33.3463 56.5965 33.231 56.4811C33.1157 56.3657 32.9599 56.3 32.7968 56.2979H27.5046C27.3413 56.2998 27.1853 56.3654 27.0699 56.4809C26.9545 56.5963 26.8888 56.7523 26.8869 56.9156V60.9754C26.8865 61.2753 26.7887 61.567 26.6083 61.8066C26.4278 62.0461 26.1744 62.2206 25.8863 62.3037C24.7693 62.6252 23.692 63.0714 22.6749 63.6339C22.4129 63.7799 22.1105 63.8363 21.8135 63.7946C21.5165 63.753 21.2413 63.6155 21.0296 63.4032L18.1572 60.5322C18.0403 60.4184 17.8836 60.3548 17.7204 60.3548C17.5573 60.3548 17.4006 60.4184 17.2837 60.5322L13.5407 64.2742C13.4255 64.3905 13.3609 64.5476 13.3609 64.7114C13.3609 64.8751 13.4255 65.0323 13.5407 65.1486L16.4127 68.0204C16.625 68.2322 16.7624 68.5074 16.804 68.8044C16.8457 69.1013 16.7893 69.4037 16.6435 69.6657C16.0799 70.6825 15.6331 71.7596 15.3114 72.8767C15.2287 73.1652 15.0544 73.4188 14.8148 73.5994C14.5751 73.78 14.2832 73.8776 13.9831 73.8775H9.92491C9.76181 73.8798 9.60605 73.9457 9.49076 74.0611C9.37548 74.1765 9.30977 74.3323 9.30762 74.4954V79.7889C9.30998 79.9521 9.37593 80.1079 9.49144 80.2233C9.60695 80.3387 9.7629 80.4044 9.92613 80.4066H13.9829C14.2831 80.4059 14.5753 80.5033 14.815 80.6839C15.0548 80.8645 15.229 81.1184 15.3112 81.4071C15.6327 82.5243 16.0796 83.6016 16.6433 84.6184C16.7891 84.8803 16.8454 85.1827 16.8039 85.4796C16.7623 85.7765 16.6251 86.0518 16.4129 86.2637L13.5407 89.1352C13.4268 89.2523 13.3631 89.4091 13.3631 89.5725C13.3631 89.7358 13.4268 89.8927 13.5407 90.0097L17.2823 93.7519C17.3991 93.8659 17.5558 93.9298 17.719 93.9298C17.8822 93.9298 18.039 93.8659 18.1557 93.7519L21.0291 90.8801C21.1572 90.7514 21.3094 90.6494 21.4771 90.5799C21.6448 90.5105 21.8247 90.475 22.0062 90.4755C22.2404 90.4744 22.4709 90.5343 22.6751 90.6491C23.692 91.2121 24.7693 91.6584 25.8865 91.9794C26.1746 92.0626 26.428 92.2371 26.6084 92.4767C26.7889 92.7162 26.8867 93.0079 26.8871 93.3078V97.3677C26.8891 97.531 26.9549 97.687 27.0703 97.8024C27.1858 97.9178 27.3419 97.9835 27.5052 97.9854H32.7962C32.9594 97.9835 33.1155 97.9178 33.2309 97.8024C33.3464 97.687 33.4121 97.5309 33.4141 97.3677V93.3093C33.4142 93.0093 33.5119 92.7174 33.6924 92.4778C33.8729 92.2382 34.1264 92.0638 34.4147 91.9808C35.5318 91.6599 36.6091 91.2137 37.6259 90.6506C37.8884 90.5046 38.1913 90.4482 38.4888 90.4899C38.7862 90.5315 39.062 90.669 39.2742 90.8815L42.1456 93.7533C42.2628 93.8671 42.4197 93.9308 42.583 93.9308C42.7464 93.9308 42.9033 93.8671 43.0205 93.7533L46.762 90.0111C46.8761 89.8941 46.9399 89.7372 46.9399 89.5739C46.9399 89.4105 46.8761 89.2536 46.762 89.1367L43.8882 86.2651C43.6767 86.0523 43.5398 85.7767 43.4982 85.4796C43.4566 85.1825 43.5124 84.8798 43.6573 84.6171C44.222 83.6015 44.6689 82.5247 44.9894 81.4078C45.0721 81.1193 45.2465 80.8656 45.4862 80.6851C45.7259 80.5045 46.0179 80.407 46.318 80.4072H50.3777C50.5407 80.4046 50.6964 80.3387 50.8118 80.2234C50.9272 80.1081 50.9932 79.9525 50.996 79.7895V74.496C50.9936 74.333 50.9277 74.1773 50.8125 74.062C50.6972 73.9467 50.5415 73.8808 50.3785 73.8783H46.3178C46.0178 73.8781 45.726 73.7804 45.4864 73.6C45.2468 73.4195 45.0724 73.166 44.9894 72.8777C44.6684 71.7604 44.2215 70.6831 43.6573 69.6667C43.5126 69.4044 43.457 69.1021 43.4988 68.8055C43.5405 68.5088 43.6774 68.2337 43.8888 68.0214L46.7618 65.1496C46.8754 65.0324 46.9389 64.8756 46.9389 64.7124C46.9389 64.5492 46.8754 64.3924 46.7618 64.2752L43.0195 60.5332C42.9025 60.4196 42.7458 60.356 42.5827 60.356C42.4197 60.356 42.263 60.4196 42.146 60.5332L42.1454 60.5322ZM30.1517 64.2841C32.6947 64.2844 35.1805 65.0387 37.2948 66.4516C39.4091 67.8646 41.0569 69.8728 42.0299 72.2223C43.0029 74.5718 43.2573 77.157 42.7611 79.6511C42.2648 82.1452 41.0401 84.4361 39.2419 86.2342C37.4436 88.0323 35.1526 89.2567 32.6585 89.7528C30.1643 90.2488 27.5791 89.9941 25.2297 89.0209C22.8803 88.0477 20.8723 86.3996 19.4595 84.2852C18.0467 82.1708 17.2927 79.6849 17.2927 77.1419C17.2965 73.7328 18.6526 70.4644 21.0633 68.0539C23.4741 65.6434 26.7426 64.2877 30.1517 64.2841Z" fill="#00ABEA"/>
</svg>
