<svg width="104" height="104" viewBox="0 0 104 104" fill="none" xmlns="http://www.w3.org/2000/svg">
<path fill-rule="evenodd" clip-rule="evenodd" d="M35.7799 59.5573C36.2125 59.5573 36.6353 59.6855 36.9949 59.9258C37.3545 60.1661 37.6348 60.5076 37.8003 60.9072C37.9658 61.3068 38.0092 61.7465 37.9248 62.1707C37.8404 62.5949 37.6321 62.9846 37.3263 63.2904C37.0204 63.5963 36.6308 63.8046 36.2066 63.8889C35.7824 63.9733 35.3427 63.93 34.9431 63.7645C34.5435 63.599 34.2019 63.3187 33.9617 62.9591C33.7214 62.5994 33.5931 62.1766 33.5931 61.7441C33.5937 61.1643 33.8244 60.6085 34.2343 60.1985C34.6443 59.7885 35.2002 59.5579 35.7799 59.5573ZM35.7799 66.6941C36.7589 66.694 37.716 66.4037 38.5299 65.8597C39.3439 65.3158 39.9783 64.5427 40.353 63.6382C40.7276 62.7337 40.8256 61.7385 40.6346 60.7783C40.4435 59.8181 39.9721 58.9361 39.2798 58.2439C38.5875 57.5517 37.7056 57.0802 36.7454 56.8893C35.7852 56.6983 34.7899 56.7963 33.8854 57.171C32.981 57.5456 32.2079 58.1801 31.664 58.9941C31.1201 59.8081 30.8298 60.7651 30.8298 61.7441C30.8315 63.0564 31.3535 64.3145 32.2815 65.2425C33.2095 66.1704 34.4676 66.6924 35.7799 66.6941ZM52.0001 60.3941C52.4326 60.3941 52.8554 60.5224 53.215 60.7627C53.5747 61.003 53.8549 61.3445 54.0205 61.7441C54.186 62.1437 54.2293 62.5834 54.1449 63.0076C54.0605 63.4318 53.8523 63.8215 53.5464 64.1273C53.2406 64.4332 52.8509 64.6414 52.4267 64.7258C52.0025 64.8102 51.5628 64.7669 51.1632 64.6014C50.7636 64.4358 50.4221 64.1556 50.1818 63.7959C49.9415 63.4363 49.8132 63.0135 49.8132 62.581C49.8138 62.0012 50.0444 61.4453 50.4544 61.0353C50.8644 60.6253 51.4203 60.3947 52.0001 60.3941ZM52.0001 67.5309C52.9791 67.5309 53.9361 67.2406 54.7501 66.6966C55.5641 66.1527 56.1985 65.3796 56.5731 64.4751C56.9477 63.5706 57.0457 62.5754 56.8547 61.6152C56.6637 60.655 56.1922 59.773 55.5 59.0808C54.8077 58.3885 53.9257 57.9171 52.9655 57.7261C52.0053 57.5352 51.01 57.6332 50.1056 58.0078C49.2011 58.3825 48.428 59.0169 47.8841 59.831C47.3402 60.645 47.0499 61.602 47.0499 62.581C47.0516 63.8933 47.5737 65.1514 48.5017 66.0794C49.4296 67.0073 50.6878 67.5293 52.0001 67.5309ZM68.2198 59.579C68.6523 59.579 69.0751 59.7073 69.4347 59.9477C69.7943 60.188 70.0746 60.5295 70.2401 60.9291C70.4055 61.3287 70.4488 61.7684 70.3644 62.1926C70.28 62.6168 70.0717 63.0064 69.7659 63.3122C69.46 63.6181 69.0704 63.8263 68.6462 63.9107C68.222 63.995 67.7823 63.9517 67.3827 63.7862C66.9831 63.6207 66.6416 63.3404 66.4013 62.9808C66.161 62.6212 66.0328 62.1984 66.0328 61.7658C66.0334 61.186 66.264 60.6301 66.674 60.2201C67.084 59.8101 67.64 59.5795 68.2198 59.579ZM68.2198 66.7158C69.1989 66.7158 70.1559 66.4255 70.97 65.8815C71.7841 65.3376 72.4185 64.5645 72.7932 63.6599C73.1678 62.7554 73.2659 61.7601 73.0748 60.7998C72.8838 59.8396 72.4124 58.9576 71.72 58.2653C71.0277 57.573 70.1457 57.1016 69.1854 56.9106C68.2252 56.7196 67.2299 56.8177 66.3253 57.1924C65.4208 57.567 64.6477 58.2016 64.1038 59.0156C63.5599 59.8297 63.2696 60.7868 63.2697 61.7658C63.2713 63.0782 63.7934 64.3363 64.7214 65.2642C65.6494 66.1922 66.9075 66.7142 68.2198 66.7158ZM35.7808 88.7085C35.348 88.7087 34.925 88.5806 34.5651 88.3404C34.2052 88.1002 33.9246 87.7586 33.7588 87.3589C33.593 86.9592 33.5495 86.5193 33.6337 86.0949C33.7179 85.6704 33.9261 85.2805 34.232 84.9744C34.5378 84.6682 34.9276 84.4597 35.3519 84.3751C35.7763 84.2905 36.2162 84.3336 36.6161 84.499C37.0159 84.6644 37.3577 84.9447 37.5983 85.3043C37.8389 85.664 37.9674 86.087 37.9676 86.5197C37.9671 87.0997 37.7366 87.6558 37.3266 88.0661C36.9167 88.4764 36.3608 88.7075 35.7808 88.7085ZM35.7808 81.5697C34.8015 81.5695 33.8441 81.8597 33.0298 82.4037C32.2154 82.9476 31.5807 83.7208 31.2058 84.6256C30.831 85.5303 30.7329 86.5258 30.9239 87.4863C31.1149 88.4468 31.5864 89.3291 32.2789 90.0216C32.9713 90.714 33.8536 91.1856 34.8141 91.3766C35.7746 91.5676 36.7702 91.4694 37.6749 91.0946C38.5796 90.7197 39.3528 90.085 39.8967 89.2707C40.4407 88.4563 40.7309 87.499 40.7307 86.5197C40.729 85.2074 40.207 83.9493 39.2791 83.0214C38.3511 82.0934 37.0931 81.5714 35.7808 81.5697ZM52.0001 89.5454C51.5676 89.5454 51.1448 89.4172 50.7851 89.1769C50.4255 88.9366 50.1452 88.595 49.9797 88.1954C49.8142 87.7959 49.7709 87.3562 49.8553 86.9319C49.9396 86.5077 50.1479 86.1181 50.4538 85.8122C50.7596 85.5064 51.1493 85.2981 51.5735 85.2138C51.9977 85.1294 52.4374 85.1727 52.837 85.3382C53.2365 85.5037 53.5781 85.784 53.8184 86.1436C54.0587 86.5033 54.1869 86.9261 54.1869 87.3586C54.1863 87.9384 53.9558 88.4943 53.5458 88.9043C53.1358 89.3142 52.5799 89.5448 52.0001 89.5454ZM52.0001 82.4084C51.021 82.4084 50.0639 82.6987 49.2499 83.2426C48.4358 83.7865 47.8013 84.5596 47.4266 85.4641C47.0519 86.3686 46.9538 87.3639 47.1448 88.3242C47.3358 89.2844 47.8072 90.1665 48.4995 90.8588C49.1918 91.5511 50.0738 92.0226 51.0341 92.2136C51.9943 92.4046 52.9896 92.3066 53.8942 91.9319C54.7987 91.5573 55.5718 90.9228 56.1158 90.1088C56.6597 89.2947 56.95 88.3376 56.95 87.3586C56.9486 86.0461 56.4266 84.7879 55.4987 83.8597C54.5707 82.9316 53.3125 82.4095 52.0001 82.4078V82.4084ZM68.2198 88.7303C67.7873 88.7303 67.3645 88.602 67.0049 88.3617C66.6453 88.1214 66.365 87.7799 66.1994 87.3803C66.0339 86.9807 65.9906 86.541 66.075 86.1168C66.1594 85.6926 66.3677 85.3029 66.6735 84.9971C66.9793 84.6913 67.369 84.483 67.7932 84.3986C68.2174 84.3142 68.6571 84.3575 69.0567 84.5231C69.4563 84.6886 69.7978 84.9689 70.0381 85.3285C70.2784 85.6881 70.4067 86.1109 70.4067 86.5434C70.406 87.1232 70.1754 87.6791 69.7654 88.0891C69.3555 88.499 68.7996 88.7296 68.2198 88.7303ZM68.2198 81.5935C67.2408 81.5935 66.2838 81.8838 65.4698 82.4277C64.6558 82.9716 64.0213 83.7447 63.6467 84.6492C63.272 85.5537 63.174 86.5489 63.365 87.5091C63.556 88.4693 64.0274 89.3513 64.7197 90.0436C65.4119 90.7358 66.2939 91.2073 67.2541 91.3983C68.2143 91.5893 69.2096 91.4912 70.1141 91.1166C71.0186 90.7419 71.7917 90.1075 72.3356 89.2935C72.8795 88.4795 73.1698 87.5224 73.1698 86.5434C73.1681 85.2311 72.6461 83.9731 71.7181 83.0451C70.7902 82.1172 69.5321 81.5952 68.2198 81.5935ZM35.7799 40.5092C35.3474 40.5092 34.9246 40.381 34.565 40.1407C34.2054 39.9004 33.9251 39.5588 33.7596 39.1592C33.5941 38.7597 33.5507 38.32 33.6351 37.8957C33.7195 37.4715 33.9278 37.0819 34.2336 36.776C34.5395 36.4702 34.9291 36.2619 35.3533 36.1776C35.7775 36.0932 36.2172 36.1365 36.6168 36.302C37.0164 36.4675 37.3579 36.7478 37.5982 37.1074C37.8385 37.4671 37.9668 37.8899 37.9668 38.3224C37.9662 38.9022 37.7356 39.4581 37.3256 39.8681C36.9156 40.278 36.3598 40.5086 35.7799 40.5092ZM35.7799 33.3724C34.8009 33.3724 33.8439 33.6627 33.0299 34.2066C32.2159 34.7505 31.5814 35.5236 31.2068 36.4281C30.8321 37.3326 30.7341 38.3279 30.9251 39.2881C31.1161 40.2483 31.5875 41.1303 32.2798 41.8225C32.9721 42.5148 33.8541 42.9862 34.8143 43.1772C35.7745 43.3682 36.7697 43.2702 37.6742 42.8955C38.5787 42.5209 39.3518 41.8864 39.8957 41.0724C40.4396 40.2584 40.7299 39.3014 40.7299 38.3224C40.728 37.0103 40.2058 35.7524 39.2779 34.8247C38.35 33.897 37.0921 33.3751 35.7799 33.3734V33.3724ZM52.0001 41.3461C51.5676 41.3461 51.1448 41.2178 50.7851 40.9775C50.4255 40.7373 50.1452 40.3957 49.9797 39.9961C49.8142 39.5965 49.7709 39.1568 49.8553 38.7326C49.9396 38.3084 50.1479 37.9188 50.4538 37.6129C50.7596 37.3071 51.1493 37.0988 51.5735 37.0144C51.9977 36.93 52.4374 36.9734 52.837 37.1389C53.2365 37.3044 53.5781 37.5847 53.8184 37.9443C54.0587 38.3039 54.1869 38.7267 54.1869 39.1592C54.1863 39.7391 53.9558 40.2949 53.5458 40.7049C53.1358 41.1149 52.5799 41.3455 52.0001 41.3461ZM52.0001 34.2093C51.0211 34.2093 50.0641 34.4996 49.25 35.0435C48.436 35.5874 47.8016 36.3605 47.4269 37.265C47.0523 38.1695 46.9543 39.1647 47.1452 40.1249C47.3362 41.0851 47.8077 41.9671 48.4999 42.6594C49.1922 43.3517 50.0742 43.8231 51.0344 44.0141C51.9946 44.2051 52.9899 44.1071 53.8944 43.7324C54.7988 43.3578 55.5719 42.7233 56.1158 41.9093C56.6597 41.0953 56.95 40.1383 56.95 39.1592C56.9484 37.847 56.4263 36.5889 55.4984 35.6609C54.5705 34.733 53.3124 34.211 52.0001 34.2093ZM68.2198 40.531C67.7873 40.531 67.3645 40.4027 67.0049 40.1624C66.6453 39.9221 66.365 39.5806 66.1994 39.181C66.0339 38.7814 65.9906 38.3417 66.075 37.9175C66.1594 37.4933 66.3677 37.1036 66.6735 36.7978C66.9793 36.4919 67.369 36.2837 67.7932 36.1993C68.2174 36.1149 68.6571 36.1582 69.0567 36.3237C69.4563 36.4892 69.7978 36.7695 70.0381 37.1292C70.2784 37.4888 70.4067 37.9116 70.4067 38.3441C70.406 38.9239 70.1754 39.4798 69.7654 39.8897C69.3555 40.2997 68.7996 40.5303 68.2198 40.531ZM68.2198 33.3942C67.2408 33.3942 66.2838 33.6845 65.4698 34.2284C64.6558 34.7723 64.0213 35.5454 63.6467 36.4498C63.272 37.3543 63.174 38.3496 63.365 39.3098C63.556 40.27 64.0274 41.152 64.7197 41.8443C65.4119 42.5365 66.2939 43.008 67.2541 43.199C68.2143 43.3899 69.2096 43.2919 70.1141 42.9173C71.0186 42.5426 71.7917 41.9082 72.3356 41.0942C72.8795 40.2801 73.1698 39.3231 73.1698 38.3441C73.1682 37.0318 72.6462 35.7736 71.7183 34.8456C70.7904 33.9176 69.5324 33.3955 68.22 33.3937L68.2198 33.3942ZM80.8357 95.3144C88.5725 93.5598 93.0074 91.0928 93.0074 88.5446V68.0493C90.6469 69.8986 86.7875 71.4321 81.4292 72.6499C73.6528 74.4142 63.2122 75.3872 52.0273 75.3872H52.0001C40.8164 75.3872 30.3752 74.4183 22.5933 72.6558C17.2308 71.4419 13.3641 69.9064 10.9932 68.0493V88.5467C10.9932 91.0928 15.4291 93.5598 23.1634 95.3144C30.7532 97.0375 40.9942 97.9875 52.0001 97.9875C63.006 97.9875 73.2449 97.0375 80.8357 95.3144ZM52.0001 6.0125C77.4074 6.0125 93.0072 11.6317 93.0072 15.6609C93.0072 19.6901 77.4074 25.3094 52.0001 25.3094C26.5928 25.3094 10.9926 19.6909 10.9926 15.6609C10.9926 11.6309 26.5932 6.0125 52.0001 6.0125ZM93.0074 39.7869V20.2731C90.3192 22.345 86.0977 23.8158 82.322 24.7967C74.2061 26.9104 63.4379 28.0731 52.0003 28.0731C40.5627 28.0731 29.7953 26.9104 21.6784 24.7967C17.9019 23.8158 13.6816 22.3454 10.9926 20.2731V39.7751C10.9927 39.7764 10.9927 39.7777 10.9926 39.779C11.0219 42.2894 15.3742 44.7308 22.9333 46.4776C30.3539 48.1908 40.4106 49.1599 51.2512 49.2054C62.1921 49.2448 72.8421 48.3033 80.4782 46.6117C88.3887 44.8591 92.956 42.3723 93.0072 39.7908L93.0074 39.7869ZM10.9926 44.6243V63.1922C11.0113 65.7402 15.4614 68.2073 23.2029 69.9599C30.7902 71.679 41.0169 72.6243 51.9995 72.6243H52.0275C63.0113 72.6243 73.237 71.6751 80.818 69.956C88.5469 68.2033 92.9897 65.7382 93.0074 63.192V44.6205C90.5956 46.5132 86.6186 48.0764 81.0764 49.31C73.3199 51.0291 63.0312 51.9685 52.0322 51.9685C51.7681 51.9685 51.5041 51.9685 51.24 51.9665C40.1999 51.923 29.9267 50.9283 22.3119 49.1697C17.0957 47.9644 13.3226 46.4493 10.9926 44.6243ZM95.7707 15.6609C95.7707 11.0031 88.4582 8.12134 82.322 6.52478C74.2061 4.41248 63.4376 3.25 52.0001 3.25C40.5625 3.25 29.7951 4.41248 21.6784 6.52437C15.544 8.12094 8.22949 11.0027 8.22949 15.6605V15.6823C8.22949 15.6823 8.22949 15.694 8.22949 15.7026V88.5452V88.5473C8.22949 92.6707 13.048 95.8539 22.5512 98.0111C30.3364 99.777 40.7945 100.75 52.0001 100.75C63.2057 100.75 73.6644 99.777 81.4485 98.0105C90.9548 95.8533 95.7715 92.6683 95.7715 88.5448V15.7117C95.7715 15.704 95.7715 15.6961 95.7715 15.6882C95.7715 15.6802 95.7705 15.6705 95.7707 15.6609Z" fill="white"/>
<path fill-rule="evenodd" clip-rule="evenodd" d="M51.9997 25.3093C77.4067 25.3093 93.0068 19.6901 93.0068 15.6609C93.0068 11.6317 77.4072 6.01245 51.9997 6.01245C26.5922 6.01245 10.9922 11.6321 10.9922 15.6609C10.9922 19.6897 26.5928 25.3093 51.9997 25.3093Z" fill="#00ABEA"/>
<path fill-rule="evenodd" clip-rule="evenodd" d="M35.7796 40.5092C36.2121 40.5092 36.6349 40.3809 36.9946 40.1406C37.3542 39.9003 37.6345 39.5588 37.8 39.1592C37.9655 38.7596 38.0088 38.3199 37.9244 37.8957C37.8401 37.4715 37.6318 37.0818 37.3259 36.776C37.0201 36.4702 36.6305 36.2619 36.2063 36.1775C35.782 36.0931 35.3423 36.1364 34.9427 36.302C34.5432 36.4675 34.2016 36.7478 33.9613 37.1074C33.721 37.467 33.5928 37.8898 33.5928 38.3223C33.5934 38.9021 33.824 39.458 34.234 39.868C34.644 40.2779 35.1998 40.5085 35.7796 40.5092Z" fill="#00ABEA"/>
<path fill-rule="evenodd" clip-rule="evenodd" d="M49.8135 39.1593C49.8135 39.5918 49.9417 40.0146 50.182 40.3742C50.4223 40.7338 50.7639 41.0141 51.1635 41.1797C51.5631 41.3452 52.0028 41.3885 52.427 41.3041C52.8512 41.2197 53.2409 41.0114 53.5467 40.7055C53.8526 40.3997 54.0608 40.01 54.1452 39.5858C54.2295 39.1615 54.1862 38.7218 54.0206 38.3222C53.8551 37.9227 53.5748 37.5811 53.2151 37.3409C52.8555 37.1006 52.4326 36.9724 52.0001 36.9724C51.4203 36.9731 50.8645 37.2037 50.4546 37.6136C50.0446 38.0236 49.8141 38.5795 49.8135 39.1593Z" fill="#00ABEA"/>
<path fill-rule="evenodd" clip-rule="evenodd" d="M66.0322 38.3441C66.0322 38.7766 66.1604 39.1995 66.4007 39.5592C66.641 39.9189 66.9826 40.1992 67.3822 40.3648C67.7818 40.5303 68.2216 40.5737 68.6458 40.4893C69.0701 40.405 69.4598 40.1967 69.7657 39.8908C70.0716 39.585 70.2799 39.1953 70.3643 38.771C70.4487 38.3468 70.4054 37.907 70.2399 37.5074C70.0743 37.1077 69.794 36.7661 69.4344 36.5258C69.0747 36.2855 68.6518 36.1572 68.2193 36.1572C67.6394 36.1578 67.0835 36.3884 66.6735 36.7984C66.2635 37.2084 66.0329 37.7642 66.0322 38.3441Z" fill="#00ABEA"/>
<path fill-rule="evenodd" clip-rule="evenodd" d="M68.22 59.5789C67.7875 59.5789 67.3647 59.7071 67.0051 59.9474C66.6455 60.1877 66.3652 60.5292 66.1997 60.9288C66.0341 61.3284 65.9908 61.7681 66.0752 62.1923C66.1596 62.6165 66.3679 63.0062 66.6737 63.312C66.9795 63.6179 67.3692 63.8261 67.7934 63.9105C68.2176 63.9949 68.6573 63.9516 69.0569 63.7861C69.4565 63.6206 69.798 63.3403 70.0383 62.9806C70.2786 62.621 70.4069 62.1982 70.4069 61.7657C70.4062 61.1859 70.1756 60.6301 69.7657 60.2201C69.3557 59.8101 68.7998 59.5795 68.22 59.5789Z" fill="#00ABEA"/>
<path fill-rule="evenodd" clip-rule="evenodd" d="M54.1872 62.5809C54.1872 62.1484 54.0589 61.7256 53.8186 61.366C53.5783 61.0063 53.2368 60.7261 52.8372 60.5605C52.4377 60.395 51.998 60.3517 51.5738 60.436C51.1496 60.5204 50.7599 60.7287 50.4541 61.0345C50.1482 61.3403 49.9399 61.7299 49.8555 62.1541C49.7711 62.5783 49.8144 63.018 49.9799 63.4176C50.1454 63.8172 50.4256 64.1588 50.7852 64.3991C51.1448 64.6394 51.5676 64.7677 52.0001 64.7677C52.58 64.7672 53.1359 64.5366 53.5459 64.1266C53.956 63.7166 54.1866 63.1607 54.1872 62.5809Z" fill="#00ABEA"/>
<path fill-rule="evenodd" clip-rule="evenodd" d="M37.9665 61.744C37.9665 61.3115 37.8382 60.8887 37.5979 60.529C37.3576 60.1694 37.0161 59.8891 36.6165 59.7236C36.2169 59.5581 35.7772 59.5148 35.353 59.5991C34.9288 59.6835 34.5391 59.8918 34.2333 60.1976C33.9275 60.5035 33.7192 60.8931 33.6348 61.3173C33.5504 61.7415 33.5937 62.1813 33.7592 62.5808C33.9248 62.9804 34.205 63.322 34.5647 63.5623C34.9243 63.8026 35.3471 63.9308 35.7796 63.9308C36.3594 63.9302 36.9153 63.6996 37.3252 63.2896C37.7352 62.8796 37.9658 62.3238 37.9665 61.744Z" fill="#00ABEA"/>
<path fill-rule="evenodd" clip-rule="evenodd" d="M37.9665 86.5195C37.9661 86.0871 37.8375 85.6645 37.5969 85.3051C37.3564 84.9458 37.0147 84.6658 36.6151 84.5006C36.2154 84.3354 35.7758 84.2924 35.3517 84.377C34.9277 84.4616 34.5382 84.67 34.2326 84.9759C33.9269 85.2819 33.7189 85.6715 33.6346 86.0957C33.5504 86.5198 33.5939 86.9594 33.7594 87.3589C33.925 87.7584 34.2053 88.0998 34.5649 88.34C34.9245 88.5802 35.3472 88.7084 35.7796 88.7084C36.3598 88.7078 36.9159 88.4769 37.326 88.0665C37.736 87.656 37.9664 87.0997 37.9665 86.5195Z" fill="#00ABEA"/>
<path fill-rule="evenodd" clip-rule="evenodd" d="M51.9993 85.1716C51.5668 85.1716 51.144 85.2999 50.7844 85.5402C50.4248 85.7805 50.1445 86.122 49.979 86.5216C49.8134 86.9212 49.7701 87.3609 49.8545 87.7851C49.9389 88.2093 50.1472 88.599 50.453 88.9048C50.7588 89.2106 51.1485 89.4189 51.5727 89.5033C51.9969 89.5877 52.4366 89.5444 52.8362 89.3789C53.2358 89.2133 53.5773 88.933 53.8176 88.5734C54.0579 88.2138 54.1862 87.791 54.1862 87.3585C54.1856 86.7787 53.955 86.2228 53.545 85.8128C53.135 85.4028 52.5791 85.1722 51.9993 85.1716Z" fill="#00ABEA"/>
<path fill-rule="evenodd" clip-rule="evenodd" d="M68.22 84.3564C67.7875 84.3564 67.3647 84.4847 67.0051 84.725C66.6455 84.9653 66.3652 85.3068 66.1997 85.7064C66.0341 86.106 65.9908 86.5457 66.0752 86.9699C66.1596 87.3941 66.3679 87.7838 66.6737 88.0896C66.9795 88.3955 67.3692 88.6037 67.7934 88.6881C68.2176 88.7725 68.6573 88.7292 69.0569 88.5637C69.4565 88.3982 69.798 88.1179 70.0383 87.7582C70.2786 87.3986 70.4069 86.9758 70.4069 86.5433C70.4062 85.9635 70.1756 85.4076 69.7657 84.9977C69.3557 84.5877 68.7998 84.3571 68.22 84.3564Z" fill="#00ABEA"/>
</svg>
