<svg width="104" height="104" viewBox="0 0 104 104" fill="none" xmlns="http://www.w3.org/2000/svg">
<path fill-rule="evenodd" clip-rule="evenodd" d="M67.7875 61.452H63.191V37.3709L65.4875 35.6078L67.7869 37.3703V61.452H67.7875ZM70.0101 35.5942L66.329 32.772C66.0879 32.5866 65.7923 32.4862 65.4882 32.4862C65.1841 32.4862 64.8885 32.5866 64.6474 32.772L60.9686 35.5942C60.8001 35.7228 60.6637 35.8886 60.5699 36.0786C60.476 36.2686 60.4274 36.4777 60.4277 36.6896V62.8335C60.4277 63.1998 60.5732 63.5511 60.8322 63.8101C61.0912 64.0692 61.4426 64.2147 61.8089 64.2147H69.1689C69.5353 64.2147 69.8866 64.0692 70.1456 63.8101C70.4047 63.5511 70.5502 63.1998 70.5502 62.8335V36.69C70.55 36.4782 70.5012 36.2693 70.4075 36.0794C70.3138 35.8895 70.1777 35.7236 70.0097 35.5946L70.0101 35.5942ZM46.7265 36.7173C46.9265 37.1395 47.2175 37.5123 47.5786 37.8089C47.9396 38.1055 48.3618 38.3186 48.8149 38.4329C49.2679 38.5472 49.7407 38.5599 50.1992 38.47C50.6578 38.3802 51.0908 38.1901 51.4672 37.9133L60.4374 31.3117C60.4139 31.6605 60.5235 32.0053 60.7442 32.2764C60.9649 32.5476 61.2801 32.725 61.6265 32.7728C61.9728 32.8207 62.3244 32.7355 62.6103 32.5343C62.8962 32.3331 63.0952 32.031 63.1672 31.6889L63.854 28.369C63.8931 28.1801 63.8923 27.985 63.8515 27.7964C63.8106 27.6078 63.7307 27.4298 63.6169 27.274C63.5031 27.1182 63.3579 26.9879 63.1907 26.8916C63.0234 26.7953 62.8379 26.7352 62.646 26.715L59.0687 26.34C58.8883 26.3211 58.706 26.3379 58.5321 26.3895C58.3582 26.441 58.1961 26.5263 58.0552 26.6405C57.9143 26.7547 57.7972 26.8956 57.7107 27.055C57.6242 27.2144 57.5699 27.3893 57.551 27.5697C57.5321 27.7501 57.5489 27.9325 57.6005 28.1064C57.652 28.2803 57.7373 28.4424 57.8515 28.5833C57.9657 28.7242 58.1065 28.8413 58.266 28.9278C58.4254 29.0143 58.6003 29.0686 58.7807 29.0875L58.7984 29.0895L49.83 35.6874C49.782 35.7229 49.7267 35.7472 49.6681 35.7588C49.6095 35.7704 49.5491 35.7688 49.4912 35.7543C49.4333 35.7398 49.3793 35.7126 49.3332 35.6748C49.287 35.637 49.2497 35.5894 49.2241 35.5355L48.6852 34.3968C48.4971 33.9994 48.2284 33.6456 47.8961 33.3577C47.5638 33.0699 47.1752 32.8545 46.7551 32.725C46.335 32.5956 45.8925 32.5551 45.4558 32.6061C45.0192 32.657 44.5979 32.7983 44.2189 33.021L34.1331 38.9401C33.9766 39.032 33.8396 39.1538 33.7302 39.2986C33.6207 39.4434 33.5408 39.6084 33.4951 39.784C33.4028 40.1388 33.4552 40.5158 33.6407 40.832C33.8263 41.1481 34.1299 41.3776 34.4847 41.47C34.8395 41.5623 35.2165 41.5099 35.5327 41.3243L45.6162 35.4053C45.6645 35.3764 45.7184 35.3579 45.7743 35.351C45.8302 35.3442 45.8869 35.3491 45.9408 35.3654C45.9947 35.3818 46.0446 35.4092 46.0873 35.446C46.13 35.4828 46.1645 35.5281 46.1886 35.5789L46.7275 36.7177L46.7265 36.7173ZM41.3995 61.452H36.8046V51.9187L39.1022 50.158L41.3995 51.9187V61.4516V61.452ZM43.6219 50.1428L39.9429 47.3194C39.7017 47.134 39.4061 47.0336 39.102 47.0336C38.7978 47.0336 38.5022 47.134 38.261 47.3194L34.5822 50.1428C34.4139 50.2714 34.2774 50.4372 34.1836 50.6271C34.0898 50.8171 34.0411 51.0262 34.0413 51.2381V62.8335C34.0413 63.0148 34.077 63.1944 34.1465 63.362C34.2159 63.5296 34.3176 63.6819 34.4459 63.8101C34.5741 63.9384 34.7264 64.0401 34.894 64.1096C35.0616 64.179 35.2412 64.2147 35.4226 64.2147H42.7806C43.1469 64.2147 43.4982 64.0692 43.7573 63.8101C44.0163 63.5511 44.1618 63.1998 44.1618 62.8335V51.2381C44.1621 51.0262 44.1134 50.8171 44.0196 50.6272C43.9258 50.4372 43.7894 50.2714 43.6211 50.1428H43.6219ZM54.5935 61.452H49.9968V45.1532L52.2962 43.3907L54.5935 45.1532V61.452ZM56.8159 43.3749C56.9841 43.504 57.1203 43.6701 57.2141 43.8603C57.3078 44.0505 57.3566 44.2597 57.3566 44.4718V62.8328C57.3566 63.0142 57.3209 63.1938 57.2515 63.3614C57.1821 63.529 57.0803 63.6813 56.9521 63.8095C56.8238 63.9378 56.6715 64.0395 56.5039 64.1089C56.3364 64.1784 56.1567 64.2141 55.9754 64.2141H48.6151C48.4337 64.2141 48.2541 64.1784 48.0865 64.1089C47.919 64.0395 47.7667 63.9378 47.6384 63.8095C47.5102 63.6813 47.4084 63.529 47.339 63.3614C47.2696 63.1938 47.2339 63.0142 47.2339 62.8328V44.4724C47.2343 44.2602 47.2835 44.0509 47.3776 43.8607C47.4717 43.6705 47.6083 43.5045 47.7768 43.3755L51.4556 40.5533C51.6972 40.3689 51.9926 40.269 52.2965 40.269C52.6003 40.269 52.8958 40.3689 53.1373 40.5533L56.8163 43.3755L56.8159 43.3749ZM28.0375 79.1361V79.221C28.0375 79.5873 27.892 79.9386 27.633 80.1977C27.374 80.4567 27.0226 80.6022 26.6563 80.6022C26.29 80.6022 25.9386 80.4567 25.6796 80.1977C25.4206 79.9386 25.275 79.5873 25.275 79.221V79.1361C25.275 78.7697 25.4206 78.4184 25.6796 78.1594C25.9386 77.9003 26.29 77.7548 26.6563 77.7548C27.0226 77.7548 27.374 77.9003 27.633 78.1594C27.892 78.4184 28.0375 78.7697 28.0375 79.1361ZM18.3369 79.1361V79.221C18.3369 79.5873 18.1914 79.9386 17.9323 80.1977C17.6733 80.4567 17.322 80.6022 16.9557 80.6022C16.5893 80.6022 16.238 80.4567 15.979 80.1977C15.7199 79.9386 15.5744 79.5873 15.5744 79.221V79.1361C15.5744 78.7697 15.7199 78.4184 15.979 78.1594C16.238 77.9003 16.5893 77.7548 16.9557 77.7548C17.322 77.7548 17.6733 77.9003 17.9323 78.1594C18.1914 78.4184 18.3369 78.7697 18.3369 79.1361ZM14.7645 79.1361V79.221C14.7645 79.5873 14.619 79.9386 14.36 80.1977C14.101 80.4567 13.7496 80.6022 13.3833 80.6022C13.017 80.6022 12.6656 80.4567 12.4066 80.1977C12.1476 79.9386 12.002 79.5873 12.002 79.221V79.1361C12.002 78.7697 12.1476 78.4184 12.4066 78.1594C12.6656 77.9003 13.017 77.7548 13.3833 77.7548C13.7496 77.7548 14.101 77.9003 14.36 78.1594C14.619 78.4184 14.7645 78.7697 14.7645 79.1361ZM11.1922 79.1361V79.221C11.1922 79.5873 11.0467 79.9386 10.7876 80.1977C10.5286 80.4567 10.1773 80.6022 9.81094 80.6022C9.44461 80.6022 9.09328 80.4567 8.83425 80.1977C8.57521 79.9386 8.42969 79.5873 8.42969 79.221V79.1361C8.42969 78.7697 8.57521 78.4184 8.83425 78.1594C9.09328 77.9003 9.44461 77.7548 9.81094 77.7548C10.1773 77.7548 10.5286 77.9003 10.7876 78.1594C11.0467 78.4184 11.1922 78.7697 11.1922 79.1361ZM56.4645 79.1767C56.4645 79.543 56.319 79.8943 56.0599 80.1534C55.8009 80.4124 55.4496 80.5579 55.0832 80.5579H48.9172C48.5508 80.5579 48.1995 80.4124 47.9405 80.1534C47.6814 79.8943 47.5359 79.543 47.5359 79.1767C47.5359 78.8103 47.6814 78.459 47.9405 78.2C48.1995 77.941 48.5508 77.7954 48.9172 77.7954H55.0828C55.449 77.7959 55.8001 77.9416 56.059 78.2005C56.3179 78.4594 56.4636 78.8105 56.4641 79.1767H56.4645ZM97.9869 79.1767V76.6236C97.9864 76.3301 97.8695 76.0488 97.662 75.8413C97.4545 75.6337 97.1731 75.5169 96.8797 75.5164H7.12034C6.82689 75.517 6.54562 75.6338 6.33814 75.8413C6.13065 76.0489 6.01385 76.3301 6.01331 76.6236V79.1781C6.01423 80.149 6.4002 81.08 7.08658 81.7668C7.77295 82.4535 8.70369 82.84 9.67464 82.8415H94.3256C95.2966 82.8402 96.2276 82.4538 96.9141 81.767C97.6006 81.0802 97.9866 80.1492 97.9875 79.1781L97.9869 79.1767ZM14.7645 25.9415V72.7533H89.3344V25.9413C89.3328 24.6731 88.8282 23.4573 87.9313 22.5608C87.0343 21.6642 85.8184 21.1601 84.5502 21.1591H19.5467C18.2788 21.1606 17.0633 21.6649 16.1667 22.5614C15.2702 23.458 14.7659 24.6736 14.7645 25.9415ZM96.8797 72.7533H92.0969V25.9415C92.094 23.9408 91.2979 22.0229 89.883 20.6084C88.4681 19.194 86.55 18.3983 84.5494 18.396H19.5467C17.5463 18.3983 15.6284 19.1939 14.2138 20.6084C12.7993 22.023 12.0035 23.9408 12.0012 25.9413V72.7533H7.12034C6.09431 72.7547 5.11072 73.1629 4.3852 73.8885C3.65968 74.614 3.25145 75.5976 3.25 76.6236V79.1781C3.25167 80.8816 3.92897 82.5149 5.13332 83.7197C6.33767 84.9244 7.97073 85.6023 9.67423 85.6046H94.3258C96.0293 85.6023 97.6623 84.9244 98.8667 83.7197C100.071 82.5149 100.748 80.8816 100.75 79.1781V76.6236C100.749 75.5975 100.34 74.6139 99.6149 73.8884C98.8893 73.1629 97.9057 72.7547 96.8797 72.7533Z" fill="white"/>
<path fill-rule="evenodd" clip-rule="evenodd" d="M41.3996 61.452V51.9191L39.1022 50.1584L36.8047 51.9191V61.452H41.3996Z" fill="#00ABEA"/>
<path fill-rule="evenodd" clip-rule="evenodd" d="M63.1914 37.3709V61.452H67.7879V37.3709L65.4886 35.6084L63.1914 37.3709Z" fill="#00ABEA"/>
</svg>
