<svg width="104" height="104" viewBox="0 0 104 104" fill="none" xmlns="http://www.w3.org/2000/svg">
<path fill-rule="evenodd" clip-rule="evenodd" d="M62.9247 37.9888C61.2194 39.695 59.4979 41.4328 57.8343 43.1163C56.1764 44.79 54.4613 46.5229 52.7658 48.2184C52.6011 48.3831 52.4055 48.5138 52.1903 48.6029C51.9751 48.6921 51.7444 48.738 51.5115 48.738C51.2785 48.738 51.0479 48.6921 50.8326 48.6029C50.6174 48.5138 50.4219 48.3831 50.2572 48.2184C49.5072 47.4684 48.7356 46.5999 47.9212 45.6793C47.0508 44.6982 46.1528 43.6858 45.2152 42.7482C45.0505 42.5835 44.9199 42.388 44.8307 42.1727C44.7416 41.9575 44.6957 41.7269 44.6957 41.494C44.6957 41.261 44.7416 41.0304 44.8308 40.8152C44.9199 40.6 45.0506 40.4044 45.2153 40.2397C45.38 40.075 45.5756 39.9444 45.7908 39.8552C46.006 39.7661 46.2366 39.7202 46.4696 39.7203C46.7025 39.7203 46.9332 39.7662 47.1484 39.8553C47.3636 39.9445 47.5591 40.0751 47.7238 40.2398L50.716 43.2319C50.8443 43.3602 50.9966 43.462 51.1642 43.5315C51.3319 43.6009 51.5115 43.6367 51.693 43.6367C51.8744 43.6367 52.0541 43.6009 52.2217 43.5315C52.3893 43.462 52.5416 43.3602 52.6699 43.2319L60.4209 35.4832C60.7541 35.1531 61.2041 34.9679 61.6731 34.9679C62.1421 34.9679 62.5921 35.1531 62.9253 35.4832C63.257 35.8156 63.4433 36.266 63.4433 36.7355C63.4433 37.2051 63.257 37.6554 62.9253 37.9878L62.9247 37.9888ZM61.671 32.2058C61.0757 32.2038 60.486 32.3198 59.9358 32.5471C59.3857 32.7744 58.886 33.1086 58.4659 33.5302L51.6922 40.302L49.677 38.2868C48.8264 37.4359 47.6726 36.9578 46.4695 36.9576C45.2664 36.9574 44.1124 37.4352 43.2616 38.2858C42.4107 39.1364 41.9325 40.2902 41.9323 41.4933C41.9322 42.6964 42.4099 43.8504 43.2605 44.7013C44.1388 45.5814 45.0113 46.5643 45.854 47.5137C46.6968 48.4631 47.4941 49.3622 48.3033 50.1724C49.155 51.0217 50.3088 51.4986 51.5116 51.4986C52.7144 51.4986 53.8681 51.0217 54.7198 50.1724C56.4212 48.4711 58.1382 46.7362 59.798 45.0586C61.4577 43.381 63.179 41.642 64.8783 39.9427C65.5135 39.3091 65.9463 38.5012 66.1217 37.6215C66.2972 36.7417 66.2075 35.8296 65.8639 35.0008C65.5204 34.1721 64.9384 33.4641 64.192 32.9665C63.4455 32.4689 62.5681 32.2041 61.671 32.2058ZM91.5647 91.9059C91.495 91.9789 91.404 92.028 91.3047 92.0463C91.2054 92.0645 91.1029 92.0509 91.0118 92.0074L80.2691 87.5996C79.4811 87.2735 78.5969 87.2681 77.805 87.5846C77.0131 87.9011 76.3761 88.5143 76.0299 89.2937L72.2621 97.6828C72.2218 97.7795 72.152 97.8611 72.0626 97.9158C71.9732 97.9705 71.8688 97.9956 71.7643 97.9874C71.6595 97.9865 71.5578 97.9521 71.474 97.8892C71.3902 97.8264 71.3287 97.7384 71.2985 97.6381L63.0055 73.5515C63.2858 73.4667 63.564 73.3793 63.8401 73.2891C64.1944 73.1628 64.5725 73.1171 64.9466 73.1553C65.3208 73.1936 65.6818 73.3148 66.0032 73.5101L66.7198 73.9247C67.5436 74.4002 68.4781 74.6506 69.4293 74.6507C70.3805 74.6507 71.315 74.4004 72.1388 73.9249C72.9627 73.4494 73.6469 72.7654 74.1226 71.9417C74.5984 71.1181 74.849 70.1837 74.8493 69.2325V68.3897C74.8403 68.0141 74.9153 67.6412 75.069 67.2983C75.2226 66.9554 75.451 66.6513 75.7374 66.408C76.7043 65.5443 77.6216 64.6266 78.4848 63.6593C78.7283 63.3732 79.0325 63.1449 79.3753 62.9913C79.7181 62.8377 80.091 62.7625 80.4665 62.7713H81.3097C81.4948 62.7713 81.6764 62.7593 81.8581 62.7434L91.6989 91.3619C91.7366 91.4553 91.744 91.5582 91.7199 91.656C91.6959 91.7538 91.6416 91.8415 91.5649 91.9067L91.5647 91.9059ZM55.9181 74.1881C56.2932 73.5197 56.8093 72.941 57.4306 72.4921C58.0519 72.0432 58.7634 71.735 59.5158 71.5887C60.6853 71.3481 61.8399 71.0397 62.9736 70.6651C63.6977 70.4161 64.4673 70.3276 65.2291 70.4056C65.9908 70.4837 66.7265 70.7264 67.3851 71.1171L68.1013 71.5314C68.5051 71.7645 68.9631 71.8872 69.4293 71.8872C69.8955 71.8873 70.3535 71.7647 70.7573 71.5317C71.1611 71.2987 71.4966 70.9636 71.7299 70.56C71.9632 70.1564 72.0862 69.6985 72.0866 69.2323V68.3895C72.0776 67.6244 72.235 66.8664 72.5478 66.1681C72.8607 65.4699 73.3215 64.8479 73.8985 64.3453C74.7871 63.5517 75.6299 62.7083 76.4227 61.819C76.9256 61.2424 77.5477 60.7817 78.246 60.4689C78.9442 60.1561 79.7021 59.9986 80.4671 60.0071H81.3097C81.7757 60.007 82.2335 59.8841 82.637 59.651C83.0406 59.4179 83.3756 59.0828 83.6086 58.6792C83.8416 58.2756 83.9643 57.8178 83.9643 57.3517C83.9644 56.8857 83.8418 56.4279 83.6089 56.0243L83.1945 55.3058C82.8043 54.6471 82.5618 53.9115 82.4838 53.1499C82.4057 52.3883 82.494 51.6189 82.7425 50.8948C83.1174 49.7617 83.4258 48.6078 83.6662 47.4388C83.8122 46.6862 84.1205 45.9745 84.5695 45.3531C85.0185 44.7317 85.5975 44.2156 86.2662 43.8406L86.9862 43.4242C87.39 43.1911 87.7254 42.8558 87.9585 42.452C88.1917 42.0482 88.3144 41.5902 88.3144 41.1239C88.3144 40.6577 88.1917 40.1996 87.9585 39.7958C87.7254 39.3921 87.39 39.0568 86.9862 38.8236L86.2656 38.4093C85.5975 38.0337 85.0191 37.5174 84.5705 36.8961C84.1218 36.2748 83.8137 35.5634 83.6674 34.8111C83.4264 33.6415 83.1173 32.4869 82.7417 31.3533C82.4936 30.6291 82.4055 29.8596 82.4836 29.098C82.5617 28.3365 82.804 27.6009 83.1939 26.942L83.6081 26.2236C83.841 25.82 83.9635 25.3622 83.9635 24.8962C83.9635 24.4302 83.8408 23.9725 83.6079 23.5689C83.375 23.1653 83.0399 22.8301 82.6365 22.597C82.233 22.3638 81.7753 22.241 81.3093 22.2407H80.4661C79.7011 22.2493 78.9433 22.0917 78.245 21.7789C77.5468 21.4661 76.9248 21.0055 76.4219 20.4288C75.6286 19.5401 74.7858 18.6966 73.8977 17.9026C73.3206 17.4001 72.8597 16.7782 72.5469 16.0799C72.2341 15.3816 72.0769 14.6237 72.0862 13.8586V13.0178C72.0863 12.5514 71.9636 12.0932 71.7305 11.6893C71.4974 11.2854 71.1621 10.9499 70.7582 10.7167C70.3543 10.4834 69.8962 10.3606 69.4298 10.3606C68.9634 10.3605 68.5052 10.4832 68.1013 10.7164L67.3829 11.1312C66.7247 11.5218 65.9894 11.7646 65.228 11.8426C64.4666 11.9207 63.6974 11.8321 62.9736 11.5832C61.8402 11.2096 60.6864 10.9011 59.5178 10.6593H59.5158C58.7637 10.5131 58.0523 10.2051 57.4311 9.7566C56.8099 9.3081 56.2936 8.72987 55.9181 8.06198L55.5013 7.3415C55.2684 6.93771 54.9333 6.60236 54.5297 6.36919C54.126 6.13603 53.6681 6.01327 53.202 6.01327C52.7358 6.01327 52.2779 6.13603 51.8743 6.36919C51.4707 6.60236 51.1356 6.93771 50.9027 7.3415L50.4863 8.06198C50.1107 8.72988 49.5943 9.30811 48.973 9.75661C48.3517 10.2051 47.6403 10.5131 46.8881 10.6593C45.7192 10.9007 44.5653 11.2097 43.4322 11.585C42.7078 11.8333 41.9382 11.9214 41.1765 11.843C40.4147 11.7647 39.6791 11.5218 39.0205 11.1312L38.302 10.7166C37.8981 10.4834 37.44 10.3607 36.9736 10.3608C36.5072 10.3608 36.049 10.4836 35.6452 10.7169C35.2413 10.9501 34.9059 11.2856 34.6728 11.6895C34.4397 12.0935 34.317 12.5516 34.3171 13.018V13.8608C34.326 14.6259 34.1685 15.3837 33.8557 16.0819C33.5428 16.7802 33.0821 17.4021 32.5053 17.9048C31.6163 18.6971 30.7737 19.5399 29.9814 20.4288C29.4786 21.0055 28.8566 21.4661 28.1584 21.7789C27.4602 22.0917 26.7024 22.2493 25.9374 22.2407H25.0945C24.6285 22.241 24.1708 22.3638 23.7673 22.5969C23.3638 22.83 23.0288 23.1652 22.7958 23.5687C22.5629 23.9723 22.4402 24.43 22.4402 24.896C22.4401 25.362 22.5626 25.8198 22.7955 26.2234L23.2099 26.9439C23.6006 27.6023 23.8434 28.3379 23.9215 29.0996C23.9995 29.8613 23.9109 30.6309 23.6618 31.3549C23.2879 32.4873 22.9795 33.6402 22.7382 34.8081C22.592 35.5603 22.284 36.2717 21.8355 36.893C21.387 37.5143 20.8087 38.0306 20.1408 38.4062L19.4185 38.8226C19.0147 39.0557 18.6793 39.391 18.4461 39.7948C18.2129 40.1986 18.0902 40.6566 18.0902 41.1229C18.0902 41.5892 18.2129 42.0473 18.4461 42.4511C18.6793 42.8549 19.0147 43.1901 19.4185 43.4232L20.1388 43.8396C20.8069 44.215 21.3852 44.7313 21.8338 45.3526C22.2823 45.974 22.5902 46.6855 22.7362 47.4378C22.9784 48.6065 23.2875 49.7604 23.6618 50.8937C23.9105 51.6178 23.9988 52.3873 23.9208 53.149C23.8428 53.9106 23.6002 54.6462 23.2099 55.3048L22.7955 56.0232C22.5626 56.4269 22.44 56.8847 22.44 57.3507C22.4401 57.8167 22.5628 58.2745 22.7957 58.6781C23.0287 59.0817 23.3638 59.4169 23.7673 59.65C24.1709 59.8831 24.6286 60.0059 25.0947 60.0061H25.9374C26.7025 59.9975 27.4603 60.1551 28.1585 60.4679C28.8567 60.7807 29.4788 61.2414 29.9816 61.818C30.7745 62.7073 31.6172 63.5507 32.5059 64.3443C33.083 64.8467 33.544 65.4687 33.8568 66.167C34.1697 66.8653 34.327 67.6233 34.3177 68.3885V69.2312C34.318 69.6975 34.441 70.1554 34.6743 70.5591C34.9075 70.9627 35.243 71.2979 35.6468 71.5309C36.0506 71.7639 36.5087 71.8865 36.9749 71.8864C37.4411 71.8863 37.8991 71.7635 38.3029 71.5304L39.0211 71.116C39.833 70.6361 40.7582 70.3813 41.7013 70.3779C42.2893 70.3797 42.8731 70.4764 43.4303 70.6641C44.5641 71.0387 45.7186 71.3471 46.8881 71.5877C47.6404 71.7339 48.3518 72.0419 48.9731 72.4904C49.5945 72.9389 50.1109 73.5172 50.4865 74.1851L50.9027 74.9055C51.1356 75.3093 51.4707 75.6447 51.8744 75.8778C52.278 76.111 52.7359 76.2337 53.2021 76.2337C53.6682 76.2337 54.1261 76.111 54.5298 75.8778C54.9334 75.6447 55.2686 75.3093 55.5015 74.9055L55.9181 74.1871V74.1881ZM32.7009 97.6375C32.6671 97.7358 32.6045 97.8217 32.5212 97.8839C32.438 97.9462 32.3379 97.982 32.234 97.9867C32.1302 97.9914 32.0273 97.9648 31.9388 97.9102C31.8503 97.8557 31.7802 97.7758 31.7377 97.6809L27.9705 89.2937C27.6243 88.5143 26.9871 87.901 26.195 87.585C25.4028 87.269 24.5185 87.2752 23.7309 87.6023L12.9882 92.0101C12.8961 92.048 12.795 92.0584 12.6971 92.0403C12.5991 92.0222 12.5085 91.9762 12.436 91.9079C12.3635 91.8396 12.3123 91.7518 12.2884 91.6552C12.2646 91.5585 12.2691 91.4569 12.3014 91.3627L22.3764 62.0634C23.2038 62.5354 24.1415 62.7799 25.094 62.7721H25.937C26.3126 62.7631 26.6855 62.8381 27.0283 62.9918C27.3711 63.1454 27.6753 63.3738 27.9185 63.6601C28.782 64.628 29.6999 65.5459 30.6678 66.4094C30.9536 66.6531 31.1814 66.9574 31.3347 67.3002C31.488 67.643 31.563 68.0157 31.554 68.3911V69.2339C31.5542 70.1851 31.8048 71.1196 32.2806 71.9433C32.7564 72.767 33.4406 73.451 34.2644 73.9265C35.0883 74.402 36.0228 74.6523 36.974 74.6522C37.9252 74.6521 38.8597 74.4017 39.6835 73.9261L40.402 73.5115C40.6225 73.3834 40.8595 73.2858 41.1064 73.2214L32.7015 97.6375H32.7009ZM94.3115 90.4631L84.4496 61.7855C85.0853 61.3289 85.615 60.7405 86.0027 60.0606C86.4901 59.241 86.7473 58.3051 86.7473 57.3516C86.7473 56.3981 86.4901 55.4622 86.0027 54.6426L85.5883 53.9242C85.3927 53.6032 85.2711 53.2427 85.2325 52.8689C85.1938 52.495 85.2391 52.1173 85.3649 51.7631C85.7732 50.5283 86.1099 49.271 86.3734 47.9974C86.4406 47.6269 86.5898 47.2762 86.8101 46.9708C87.0304 46.6655 87.3162 46.4134 87.6466 46.2328L88.3671 45.8164C89.1908 45.341 89.8749 44.657 90.3505 43.8334C90.8261 43.0097 91.0764 42.0753 91.0764 41.1242C91.0764 40.1731 90.8261 39.2388 90.3505 38.4151C89.8749 37.5915 89.1908 36.9075 88.3671 36.432L87.647 36.0156C87.3166 35.8356 87.0308 35.5838 86.8104 35.2788C86.5901 34.9738 86.4408 34.6233 86.3736 34.2531C86.1106 32.979 85.7746 31.7211 85.3671 30.4856C85.2403 30.1317 85.1944 29.7539 85.2326 29.3799C85.2709 29.0059 85.3923 28.6452 85.5881 28.3243L86.0033 27.6046C86.4787 26.7808 86.7288 25.8464 86.7286 24.8953C86.7285 23.9441 86.4779 23.0098 86.0022 22.1862C85.5265 21.3626 84.8424 20.6787 84.0186 20.2032C83.1948 19.7278 82.2604 19.4775 81.3093 19.4776H80.4667C80.0911 19.4866 79.7181 19.4116 79.3752 19.2579C79.0323 19.1042 78.7281 18.8758 78.4848 18.5893C77.6212 17.6223 76.704 16.7044 75.7376 15.84C75.4512 15.5968 75.2228 15.2927 75.0691 14.9499C74.9154 14.607 74.8403 14.2342 74.8493 13.8586V13.0178C74.8492 12.0665 74.5988 11.1319 74.1231 10.3081C73.6474 9.48419 72.9632 8.80005 72.1393 8.32438C71.3154 7.84871 70.3808 7.59828 69.4295 7.59825C68.4781 7.59823 67.5436 7.8486 66.7196 8.32422L66.0032 8.7388C65.6819 8.93458 65.3209 9.05603 64.9466 9.09427C64.5723 9.13251 64.1942 9.08657 63.8399 8.9598C62.6053 8.55147 61.3479 8.2154 60.0742 7.95331C59.704 7.88609 59.3536 7.73684 59.0486 7.51653C58.7436 7.29622 58.4918 7.01043 58.3117 6.68012L57.8953 5.95984C57.4196 5.13595 56.7355 4.45178 55.9116 3.9761C55.0878 3.50043 54.1532 3.25 53.2019 3.25C52.2505 3.25 51.316 3.50043 50.4921 3.9761C49.6682 4.45178 48.9841 5.13595 48.5085 5.95984L48.0941 6.68012C47.9133 7.01032 47.6611 7.29598 47.3558 7.51625C47.0505 7.73652 46.6999 7.88584 46.3295 7.95331C45.0559 8.21591 43.7985 8.55197 42.5636 8.9598C42.2097 9.08658 41.8319 9.13254 41.4579 9.09429C41.084 9.05605 40.7233 8.93458 40.4024 8.7388L39.6841 8.32422C38.8602 7.84854 37.9256 7.59811 36.9742 7.5981C36.0229 7.5981 35.0883 7.84853 34.2644 8.3242C33.4404 8.79988 32.7563 9.48405 32.2806 10.308C31.8049 11.1319 31.5544 12.0665 31.5544 13.0178V13.8606C31.5631 14.236 31.488 14.6086 31.3347 14.9513C31.1813 15.294 30.9536 15.5983 30.668 15.8421C29.7006 16.7053 28.7827 17.6226 27.9187 18.5893C27.6755 18.8758 27.3713 19.1042 27.0284 19.2579C26.6856 19.4116 26.3127 19.4866 25.937 19.4776H25.0942C24.1432 19.4777 23.2089 19.7281 22.3853 20.2036C21.5617 20.6791 20.8777 21.363 20.4021 22.1866C19.9265 23.0102 19.6761 23.9445 19.6759 24.8955C19.6758 25.8466 19.9259 26.7809 20.4012 27.6046L20.8179 28.3251C21.0136 28.646 21.1351 29.0067 21.1733 29.3806C21.2115 29.7545 21.1656 30.1323 21.0389 30.4862C20.6317 31.7206 20.2957 32.9772 20.0324 34.2501C19.9652 34.6205 19.816 34.9712 19.5957 35.2765C19.3754 35.5818 19.0896 35.8339 18.7592 36.0144L18.0371 36.4308C17.2133 36.9063 16.5292 37.5902 16.0536 38.4138C15.5779 39.2375 15.3275 40.1719 15.3275 41.123C15.3275 42.0741 15.5779 43.0085 16.0536 43.8322C16.5292 44.6558 17.2133 45.3398 18.0371 45.8152L18.7576 46.2316C19.0878 46.4118 19.3736 46.6636 19.5939 46.9685C19.8142 47.2735 19.9634 47.624 20.0305 47.9941C20.2934 49.2685 20.6302 50.5266 21.0391 51.7619C21.165 52.1161 21.2103 52.4939 21.1716 52.8678C21.133 53.2417 21.0113 53.6022 20.8156 53.9231L20.4015 54.6414C19.9424 55.4118 19.687 56.2864 19.6593 57.1828C19.6317 58.0792 19.8326 58.9679 20.2432 59.7652L9.68925 90.4631C9.48403 91.0595 9.45509 91.7025 9.60589 92.3149C9.7567 92.9274 10.0809 93.4834 10.5395 93.9164C10.9982 94.3494 11.572 94.6409 12.1921 94.7562C12.8123 94.8714 13.4525 94.8055 14.0361 94.5662L24.7814 90.1572C24.9059 90.1057 25.0455 90.105 25.1705 90.1551C25.2955 90.2053 25.3959 90.3023 25.4503 90.4255L29.2203 98.8146C29.4772 99.392 29.8963 99.8823 30.4267 100.226C30.9571 100.569 31.5759 100.752 32.2079 100.75C32.2593 100.75 32.3095 100.748 32.3598 100.746C33.0177 100.719 33.652 100.494 34.1793 100.1C34.7067 99.7053 35.1024 99.1608 35.3145 98.5375L43.8705 73.6868C44.683 73.9196 45.5047 74.1249 46.3298 74.2945C46.7001 74.362 47.0507 74.5113 47.3559 74.7316C47.6612 74.9518 47.9134 75.2375 48.0941 75.5677L48.5087 76.288C48.9843 77.1119 49.6684 77.7961 50.4923 78.2718C51.3162 78.7474 52.2507 78.9979 53.2021 78.9979C54.1534 78.9979 55.088 78.7474 55.9118 78.2718C56.7357 77.7961 57.4199 77.1119 57.8955 76.288L58.3099 75.5696C58.4905 75.2392 58.7427 74.9535 59.048 74.7332C59.3533 74.513 59.704 74.3638 60.0744 74.2966C60.1577 74.2789 60.2381 74.2592 60.321 74.2413L68.6857 98.5373C68.8977 99.1606 69.2934 99.7052 69.8207 100.099C70.348 100.494 70.9823 100.719 71.6401 100.746C71.6917 100.748 71.7417 100.75 71.7921 100.75C72.4244 100.751 73.0436 100.569 73.5744 100.225C74.1052 99.8818 74.5248 99.3913 74.7823 98.8138L78.55 90.4247C78.6046 90.3017 78.7051 90.2048 78.8301 90.1549C78.955 90.1049 79.0946 90.1057 79.2189 90.1572L89.9643 94.5662C90.5479 94.8056 91.1882 94.8716 91.8084 94.7564C92.4287 94.6412 93.0025 94.3497 93.4613 93.9167C93.9201 93.4838 94.2444 92.9277 94.3953 92.3152C94.5462 91.7027 94.5173 91.0596 94.3121 90.4631H94.3115ZM53.2021 62.6843C57.4661 62.6841 61.6343 61.4195 65.1796 59.0504C68.7249 56.6813 71.4881 53.3141 73.1197 49.3745C74.7514 45.435 75.1782 41.1002 74.3462 36.9181C73.5141 32.736 71.4607 28.8946 68.4455 25.8796C65.4303 22.8645 61.5887 20.8113 57.4066 19.9795C53.2245 19.1477 48.8896 19.5748 44.9502 21.2066C41.0108 22.8385 37.6438 25.6018 35.2748 29.1473C32.9059 32.6927 31.6415 36.861 31.6416 41.125C31.6483 46.8411 33.922 52.321 37.964 56.3628C42.006 60.4045 47.4861 62.6779 53.2021 62.6843ZM77.5261 41.125C77.5265 36.3141 76.1003 31.6111 73.4279 27.6108C70.7554 23.6104 66.9567 20.4924 62.5121 18.651C58.0675 16.8096 53.1767 16.3276 48.4581 17.2659C43.7396 18.2042 39.4053 20.5206 36.0033 23.9223C32.6013 27.3239 30.2844 31.658 29.3456 36.3765C28.4069 41.0949 28.8884 45.9858 30.7293 50.4306C32.5703 54.8753 35.6879 58.6744 39.688 61.3472C43.6881 64.0201 48.391 65.4468 53.2019 65.4468C59.6504 65.4396 65.8328 62.8749 70.3929 58.3153C74.9529 53.7557 77.5182 47.5736 77.5261 41.125Z" fill="white"/>
<path fill-rule="evenodd" clip-rule="evenodd" d="M52.766 48.2184C54.4614 46.5229 56.1766 44.7901 57.8345 43.1163C59.4981 41.4328 61.2196 39.6941 62.9249 37.9888C63.2566 37.6565 63.4428 37.2061 63.4428 36.7366C63.4428 36.267 63.2566 35.8167 62.9249 35.4843C62.5917 35.1542 62.1417 34.969 61.6727 34.969C61.2037 34.969 60.7537 35.1542 60.4205 35.4843L52.6695 43.2329C52.5412 43.3613 52.3889 43.4631 52.2213 43.5325C52.0537 43.602 51.874 43.6377 51.6925 43.6377C51.5111 43.6377 51.3314 43.602 51.1638 43.5325C50.9962 43.4631 50.8439 43.3613 50.7156 43.2329L47.7234 40.2409C47.3907 39.9082 46.9396 39.7213 46.4692 39.7213C45.9987 39.7213 45.5475 39.9082 45.2149 40.2408C44.8822 40.5734 44.6953 41.0246 44.6953 41.495C44.6953 41.9654 44.8822 42.4166 45.2148 42.7493C46.1524 43.6869 47.0504 44.6993 47.9208 45.6804C48.736 46.5999 49.5076 47.4679 50.2568 48.2194C50.4215 48.3842 50.6172 48.5149 50.8325 48.604C51.0478 48.6931 51.2785 48.7389 51.5116 48.7388C51.7446 48.7387 51.9753 48.6927 52.1905 48.6034C52.4058 48.5141 52.6013 48.3833 52.766 48.2184Z" fill="#00ABEA"/>
<path fill-rule="evenodd" clip-rule="evenodd" d="M74.8497 69.2323C74.8494 70.1835 74.5988 71.1179 74.123 71.9416C73.6472 72.7653 72.963 73.4492 72.1392 73.9247C71.3154 74.4002 70.3809 74.6505 69.4297 74.6505C68.4785 74.6505 67.544 74.4001 66.7202 73.9245L66.0036 73.5099C65.6821 73.3146 65.3212 73.1934 64.947 73.1552C64.5728 73.117 64.1948 73.1627 63.8405 73.2889C63.5641 73.3798 63.2859 73.4673 63.0059 73.5514L71.299 97.6383C71.3293 97.7386 71.3908 97.8266 71.4746 97.8895C71.5584 97.9523 71.6601 97.9868 71.7648 97.9877C71.8694 97.9957 71.9738 97.9704 72.0632 97.9154C72.1525 97.8605 72.2222 97.7787 72.2623 97.6818L76.0302 89.2938C76.3769 88.5148 77.0142 87.9021 77.8061 87.5861C78.598 87.2702 79.482 87.276 80.2697 87.6023L91.0123 92.0101C91.1045 92.0481 91.2056 92.0586 91.3035 92.0405C91.4015 92.0224 91.4922 91.9764 91.5647 91.9081C91.6372 91.8398 91.6885 91.752 91.7123 91.6553C91.7362 91.5586 91.7317 91.457 91.6993 91.3628L81.8583 62.7427C81.6767 62.7585 81.4951 62.7705 81.3099 62.7705H80.4667C80.0911 62.7617 79.7183 62.8369 79.3755 62.9905C79.0326 63.1442 78.7284 63.3724 78.485 63.6586C77.6218 64.626 76.7046 65.5439 75.7377 66.4079C75.4514 66.6511 75.223 66.9553 75.0694 67.2982C74.9157 67.641 74.8406 68.0139 74.8497 68.3896V69.2323Z" fill="#00ABEA"/>
<path fill-rule="evenodd" clip-rule="evenodd" d="M32.7016 97.6374L41.1073 73.2189C40.8604 73.2833 40.6234 73.3808 40.4029 73.509L39.6844 73.9236C38.8606 74.3992 37.9262 74.6497 36.9749 74.6497C36.0237 74.6498 35.0892 74.3995 34.2653 73.924C33.4415 73.4485 32.7573 72.7645 32.2815 71.9408C31.8057 71.1171 31.5552 70.1826 31.5549 69.2314V68.3886C31.5639 68.0132 31.4889 67.6405 31.3356 67.2977C31.1823 66.9549 30.9545 66.6506 30.6687 66.4069C29.7008 65.544 28.7828 64.6266 27.9192 63.6593C27.676 63.3729 27.3718 63.1446 27.029 62.9909C26.6862 62.8373 26.3133 62.7622 25.9377 62.7712H25.0948C24.1422 62.7791 23.2046 62.5345 22.3771 62.0625L12.3015 91.361C12.2692 91.4552 12.2647 91.5568 12.2885 91.6535C12.3124 91.7502 12.3636 91.8379 12.4361 91.9062C12.5086 91.9745 12.5992 92.0205 12.6972 92.0386C12.7951 92.0568 12.8962 92.0463 12.9883 92.0084L23.731 87.6006C24.5188 87.2736 25.4033 87.2676 26.1955 87.584C26.9876 87.9003 27.6247 88.5139 27.9706 89.2936L31.7384 97.6827C31.7809 97.7776 31.851 97.8575 31.9395 97.912C32.028 97.9665 32.1309 97.9932 32.2348 97.9885C32.3386 97.9838 32.4387 97.948 32.5219 97.8857C32.6052 97.8234 32.6678 97.7376 32.7016 97.6392V97.6374Z" fill="#00ABEA"/>
</svg>
