<svg width="104" height="104" viewBox="0 0 104 104" fill="none" xmlns="http://www.w3.org/2000/svg">
<path fill-rule="evenodd" clip-rule="evenodd" d="M32.3263 29.8692C32.7095 29.8689 33.0841 29.9824 33.4028 30.1951C33.7214 30.4078 33.9699 30.7102 34.1167 31.0641C34.2635 31.418 34.3021 31.8075 34.2275 32.1833C34.153 32.5591 33.9687 32.9044 33.6979 33.1754C33.4271 33.4465 33.082 33.6312 32.7063 33.7061C32.3305 33.7811 31.941 33.7429 31.5869 33.5965C31.2329 33.45 30.9302 33.2019 30.7172 32.8835C30.5042 32.565 30.3903 32.1905 30.3901 31.8074C30.3906 31.2938 30.5947 30.8014 30.9576 30.4381C31.3206 30.0748 31.8128 29.8702 32.3263 29.8692ZM42.9882 35.4112C43.3713 35.411 43.7459 35.5244 44.0646 35.7371C44.3833 35.9498 44.6317 36.2522 44.7785 36.6061C44.9253 36.96 44.9639 37.3495 44.8894 37.7253C44.8148 38.1012 44.6305 38.4464 44.3597 38.7175C44.0889 38.9886 43.7438 39.1733 43.3681 39.2482C42.9924 39.3231 42.6028 39.285 42.2488 39.1385C41.8947 38.9921 41.592 38.744 41.379 38.4255C41.166 38.1071 41.0522 37.7326 41.052 37.3494C41.0523 36.8358 41.2564 36.3434 41.6194 35.98C41.9823 35.6167 42.4746 35.4121 42.9882 35.4112ZM54.16 24.5846C54.5431 24.5849 54.9175 24.6987 55.2358 24.9116C55.5542 25.1246 55.8023 25.4272 55.9488 25.7811C56.0953 26.1351 56.1335 26.5245 56.0587 26.9002C55.9839 27.2758 55.7994 27.6209 55.5286 27.8917C55.2577 28.1626 54.9126 28.347 54.5369 28.4218C54.1612 28.4966 53.7718 28.4583 53.4179 28.3118C53.064 28.1653 52.7614 27.9171 52.5485 27.5987C52.3356 27.2803 52.2218 26.9059 52.2216 26.5229C52.222 26.0089 52.4264 25.5161 52.7898 25.1527C53.1533 24.7893 53.6461 24.585 54.16 24.5846ZM32.3269 36.5081C33.5676 36.5085 34.7577 36.0167 35.6362 35.1406L38.3602 36.5361C38.3123 36.8043 38.2884 37.0762 38.2889 37.3486C38.2885 38.0776 38.4578 38.7966 38.7833 39.4489C39.1087 40.1011 39.5815 40.6687 40.1641 41.1068C40.7467 41.5449 41.4233 41.8414 42.1403 41.9729C42.8573 42.1044 43.595 42.0673 44.2952 41.8646C44.9954 41.6618 45.6388 41.299 46.1746 40.8047C46.7104 40.3104 47.1238 39.6983 47.3822 39.0167C47.6407 38.3351 47.737 37.6027 47.6636 36.8775C47.5901 36.1522 47.349 35.454 46.9593 34.838L51.3547 30.2906C52.2581 30.9635 53.3728 31.2904 54.4965 31.212C55.6203 31.1335 56.6788 30.655 57.48 29.8631C58.2812 29.0712 58.7721 28.0184 58.8636 26.8957C58.9552 25.7729 58.6414 24.6545 57.9791 23.7432C57.3168 22.832 56.3499 22.1882 55.2537 21.9287C54.1575 21.6692 53.0046 21.8112 52.004 22.3288C51.0035 22.8464 50.2216 23.7054 49.8001 24.7501C49.3786 25.7948 49.3454 26.9559 49.7065 28.0229L44.8573 33.0361C43.9821 32.6555 43.0117 32.5512 42.0756 32.737C41.1396 32.9229 40.2825 33.39 39.6191 34.0761L36.9407 32.7046C36.9979 32.4086 37.027 32.108 37.0277 31.8066C37.0279 30.8769 36.7524 29.9681 36.2361 29.195C35.7198 28.422 34.9858 27.8193 34.127 27.4634C33.2682 27.1075 32.3232 27.0142 31.4114 27.1953C30.4995 27.3765 29.6619 27.824 29.0044 28.4812C28.3469 29.1384 27.8991 29.9758 27.7175 30.8876C27.536 31.7993 27.6289 32.7444 27.9844 33.6033C28.34 34.4623 28.9423 35.1965 29.7151 35.7131C30.488 36.2298 31.3967 36.5057 32.3263 36.5059L32.3269 36.5081ZM56.4911 55.4909H53.0806V37.687L54.7859 36.3783L56.4921 37.687V55.4895L56.4911 55.4909ZM58.7133 35.9097C58.8815 36.0388 59.0177 36.2049 59.1115 36.3951C59.2053 36.5853 59.2541 36.7945 59.2542 37.0066V56.8722C59.2542 57.0536 59.2185 57.2332 59.1491 57.4008C59.0796 57.5683 58.9779 57.7206 58.8496 57.8489C58.7214 57.9771 58.5691 58.0789 58.4015 58.1483C58.234 58.2177 58.0543 58.2534 57.873 58.2534H51.698C51.3318 58.253 50.9807 58.1073 50.7218 57.8483C50.4629 57.5894 50.3172 57.2384 50.3167 56.8722V37.0066C50.3172 36.7946 50.3663 36.5855 50.4601 36.3954C50.5539 36.2052 50.6899 36.0391 50.8578 35.9097L53.9453 33.5433C54.1866 33.3582 54.4821 33.2579 54.7862 33.2579C55.0902 33.2579 55.3858 33.3582 55.627 33.5433L58.7145 35.9097H58.7133ZM34.3541 55.4909H30.9437V42.6798L32.6489 41.3711L34.3551 42.6798V55.4909H34.3541ZM36.5765 40.9015C36.7447 41.0306 36.8809 41.1967 36.9747 41.3869C37.0685 41.5771 37.1172 41.7863 37.1172 41.9984V56.871C37.1172 57.2373 36.9717 57.5886 36.7127 57.8477C36.4536 58.1067 36.1023 58.2522 35.736 58.2522H29.5612C29.195 58.2518 28.8439 58.1062 28.5849 57.8472C28.326 57.5883 28.1803 57.2372 28.1799 56.871V41.9971C28.1799 41.7851 28.2287 41.5758 28.3225 41.3856C28.4163 41.1954 28.5526 41.0294 28.7209 40.9003L31.8084 38.5318C32.05 38.3473 32.3456 38.2474 32.6496 38.2478C32.9537 38.2482 33.2491 38.3487 33.4902 38.5339L36.5777 40.9003L36.5765 40.9015ZM45.4224 55.4909H42.0119V46.8626L43.7182 45.5559L45.4244 46.8626V55.4895L45.4224 55.4909ZM47.645 45.0877L44.5575 42.7192C44.3161 42.5344 44.0205 42.4342 43.7165 42.4342C43.4124 42.4342 43.1168 42.5344 42.8754 42.7192L39.7879 45.0877C39.6198 45.2165 39.4835 45.3823 39.3897 45.5722C39.2959 45.7621 39.247 45.9711 39.2468 46.1829V56.8726C39.2472 57.2388 39.3929 57.5899 39.6518 57.8488C39.9108 58.1077 40.2618 58.2534 40.628 58.2538H46.8018C46.9832 58.2538 47.1628 58.2181 47.3304 58.1487C47.498 58.0793 47.6503 57.9775 47.7785 57.8493C47.9068 57.721 48.0085 57.5688 48.0779 57.4012C48.1474 57.2336 48.1831 57.054 48.1831 56.8726V46.1815C48.1833 45.9697 48.1347 45.7606 48.0409 45.5707C47.9472 45.3807 47.8109 45.2149 47.6426 45.0863L47.645 45.0877ZM82.1486 71.6158C80.6632 71.6159 79.2111 71.1754 77.9759 70.3502C76.7408 69.5251 75.7781 68.3521 75.2095 66.9798C74.6409 65.6075 74.492 64.0974 74.7816 62.6405C75.0712 61.1836 75.7863 59.8452 76.8365 58.7947C77.8867 57.7441 79.2248 57.0286 80.6817 56.7385C82.1385 56.4484 83.6487 56.5968 85.0211 57.165C86.3936 57.7331 87.5669 58.6955 88.3925 59.9303C89.218 61.1652 89.6589 62.6172 89.6594 64.1026C89.6575 66.0943 88.8655 68.0038 87.4572 69.4122C86.0488 70.8205 84.1393 71.6125 82.1476 71.6144L82.1486 71.6158ZM82.1486 53.831C80.1166 53.8312 78.1302 54.4339 76.4408 55.563C74.7513 56.692 73.4346 58.2967 72.6571 60.1741C71.8796 62.0516 71.6764 64.1174 72.073 66.1103C72.4696 68.1033 73.4482 69.9338 74.8852 71.3706C76.3222 72.8073 78.153 73.7856 80.146 74.1819C82.139 74.5781 84.2048 74.3745 86.082 73.5967C87.9593 72.8189 89.5638 71.5019 90.6926 69.8122C91.8213 68.1225 92.4237 66.1361 92.4235 64.104C92.4203 61.3801 91.3367 58.7687 89.4104 56.8428C87.4842 54.9168 84.8726 53.8337 82.1486 53.831ZM97.9875 66.1534V62.0547C97.9866 62.0105 97.9687 61.9684 97.9374 61.9372C97.9062 61.906 97.8641 61.888 97.8199 61.8871H94.6749C94.3749 61.8872 94.083 61.7896 93.8433 61.609C93.6037 61.4285 93.4294 61.1748 93.3467 60.8863C93.1042 60.0432 92.7672 59.2301 92.342 58.4627C92.1964 58.2006 92.1402 57.8982 92.1819 57.6013C92.2236 57.3044 92.361 57.0291 92.5732 56.8173L94.7972 54.5911C94.8276 54.5592 94.8445 54.5168 94.8445 54.4727C94.8445 54.4286 94.8276 54.3862 94.7972 54.3542L91.8976 51.4548C91.8655 51.4249 91.8233 51.4083 91.7794 51.4083C91.7355 51.4083 91.6933 51.4249 91.6612 51.4548L89.4359 53.6797C89.2234 53.8916 88.9478 54.0287 88.6505 54.0704C88.3533 54.1121 88.0506 54.056 87.788 53.9106C87.0218 53.4843 86.2093 53.1472 85.3663 52.906C85.078 52.8231 84.8245 52.6487 84.644 52.4091C84.4635 52.1695 84.3658 51.8777 84.3657 51.5777V48.4315C84.3644 48.3877 84.3462 48.346 84.315 48.3152C84.2837 48.2844 84.2418 48.2667 84.198 48.266C83.359 48.266 82.6589 48.2457 82.0408 48.2284C81.2671 48.2081 80.3991 48.1849 80.0573 48.254C79.9289 48.6921 79.9291 49.9692 79.9311 51.3151V51.5777C79.931 51.8777 79.8333 52.1695 79.6528 52.4091C79.4723 52.6487 79.2188 52.8231 78.9305 52.906C78.087 53.1476 77.2738 53.4847 76.5066 53.9106C76.2445 54.0558 75.9422 54.1118 75.6454 54.0702C75.3486 54.0285 75.0734 53.8915 74.8613 53.6797L72.6347 51.4532C72.6025 51.4233 72.5603 51.4066 72.5163 51.4066C72.4724 51.4066 72.4301 51.4233 72.398 51.4532L69.4984 54.3526C69.468 54.3846 69.4511 54.427 69.4511 54.471C69.4511 54.5151 69.468 54.5575 69.4984 54.5895L71.7245 56.8157C71.9362 57.0278 72.0733 57.303 72.115 57.5998C72.1566 57.8966 72.1006 58.1989 71.9554 58.461C71.5296 59.2281 71.1926 60.0413 70.951 60.8847C70.8678 61.1729 70.6934 61.4262 70.4539 61.6067C70.2144 61.7872 69.9228 61.885 69.6229 61.8855H66.4765C66.4324 61.8864 66.3903 61.9044 66.3591 61.9356C66.3279 61.9669 66.31 62.009 66.3091 62.0531V66.1526C66.3105 66.1967 66.3286 66.2387 66.3599 66.2699C66.3912 66.3011 66.4332 66.3191 66.4773 66.3203H69.6229C69.9229 66.3207 70.2145 66.4185 70.4541 66.5989C70.6937 66.7794 70.8682 67.0328 70.9514 67.3209C71.1927 68.1638 71.5297 68.9763 71.9558 69.7426C72.1012 70.0052 72.1573 70.3079 72.1157 70.6052C72.0741 70.9025 71.937 71.1782 71.7251 71.3908L69.4986 73.615C69.4682 73.6469 69.4513 73.6893 69.4513 73.7334C69.4513 73.7775 69.4682 73.8199 69.4986 73.8518L72.3978 76.7512C72.4134 76.7666 72.4319 76.7787 72.4523 76.7868C72.4726 76.7949 72.4943 76.7989 72.5162 76.7985C72.5382 76.7993 72.56 76.7954 72.5804 76.7873C72.6008 76.7791 72.6193 76.7669 72.6347 76.7512L74.8609 74.5268C75.0728 74.3147 75.348 74.1774 75.6449 74.1358C75.9418 74.0941 76.2441 74.1503 76.5062 74.2958C77.2738 74.7209 78.0869 75.0579 78.9301 75.3005C79.2186 75.3831 79.4723 75.5575 79.6528 75.7971C79.8334 76.0368 79.931 76.3287 79.9309 76.6287V79.7729C79.9319 79.8171 79.95 79.8592 79.9813 79.8905C80.0126 79.9217 80.0547 79.9397 80.0989 79.9407H84.198C84.2421 79.9394 84.284 79.9213 84.3153 79.8901C84.3465 79.859 84.3646 79.817 84.3659 79.7729V76.6295C84.3658 76.3295 84.4635 76.0376 84.644 75.7979C84.8246 75.5583 85.0783 75.384 85.3667 75.3013C86.2094 75.0591 87.0218 74.7221 87.7884 74.2967C88.0509 74.1507 88.3538 74.0943 88.6513 74.136C88.9487 74.1776 89.2245 74.3151 89.4367 74.5276L91.6608 76.752C91.6928 76.7824 91.7352 76.7993 91.7793 76.7993C91.8234 76.7993 91.8658 76.7824 91.8978 76.752L94.7968 73.8526C94.8272 73.8207 94.8441 73.7783 94.8441 73.7342C94.8441 73.6901 94.8272 73.6477 94.7968 73.6158L92.5722 71.3916C92.3598 71.1793 92.2223 70.9036 92.1806 70.6062C92.1389 70.3088 92.1953 70.0059 92.3412 69.7434C92.7657 68.9763 93.1027 68.164 93.3459 67.3217C93.4286 67.0333 93.6029 66.7797 93.8426 66.5992C94.0822 66.4186 94.3741 66.3211 94.6741 66.3212H97.8189C97.863 66.3199 97.905 66.3018 97.9362 66.2706C97.9674 66.2394 97.9856 66.1975 97.9869 66.1534H97.9875ZM52.7323 78.325H34.1453C34.8087 77.0125 35.1413 75.5578 35.1142 74.0874H51.7646C51.7378 75.5575 52.0697 77.012 52.7315 78.325H52.7323ZM58.9635 83.208C58.9627 83.77 58.739 84.3087 58.3415 84.706C57.9441 85.1033 57.4053 85.3269 56.8433 85.3276H30.2366C29.6746 85.3268 29.1358 85.1033 28.7384 84.7059C28.341 84.3086 28.1173 83.7699 28.1164 83.208V81.0875H58.9635V83.2073V83.208ZM6.01352 67.1066V65.4843H63.546V66.1534C63.5471 66.9304 63.8562 67.6752 64.4057 68.2246C64.9551 68.7741 65.6999 69.0832 66.4769 69.0843H68.6227C68.7546 69.4434 68.9026 69.7966 69.0625 70.146L67.8844 71.3241H10.2312C9.11303 71.3227 8.04106 70.8779 7.25039 70.0872C6.45972 69.2966 6.01491 68.2246 6.01352 67.1064V67.1066ZM10.2312 18.6725C9.11305 18.6739 8.04111 19.1188 7.25045 19.9094C6.4598 20.7001 6.01497 21.772 6.01352 22.8902V62.7212H63.546V62.0547C63.5472 61.2777 63.8564 60.5328 64.4059 59.9834C64.9554 59.434 65.7003 59.1249 66.4773 59.1238H68.6223C68.7546 58.7647 68.9028 58.4094 69.0627 58.0621L67.5445 56.5443C66.9966 55.9943 66.6889 55.2494 66.6889 54.473C66.6889 53.6965 66.9966 52.9517 67.5445 52.4016L70.4456 49.5002C70.9955 48.9515 71.7406 48.6434 72.5175 48.6434C73.2943 48.6434 74.0394 48.9515 74.5893 49.5002L76.1069 51.0179C76.4542 50.8581 76.8097 50.71 77.1688 50.5777C77.1747 48.2351 77.2537 47.0864 78.1162 46.2455C78.7932 45.5864 79.6396 45.4503 80.8677 45.4462V22.8902C80.8667 21.7723 80.4223 20.7004 79.632 19.9097C78.8418 19.1191 77.7702 18.6741 76.6523 18.6725H10.2312ZM97.8187 59.123H95.6759C95.5415 58.7639 95.3952 58.4086 95.2335 58.0613L96.7515 56.5435C97.3005 55.9938 97.6089 55.2486 97.6089 54.4717C97.6089 53.6947 97.3005 52.9495 96.7515 52.3998L93.8523 49.4985C93.3017 48.9506 92.5566 48.643 91.7798 48.643C91.003 48.643 90.2579 48.9506 89.7073 49.4985L88.1916 51.0163C87.8426 50.8564 87.489 50.7084 87.1297 50.5761V48.4315C87.1284 47.6547 86.8191 46.9101 86.2697 46.3611C85.7202 45.812 84.9753 45.5033 84.1986 45.5027C84.0015 45.5027 83.8138 45.5006 83.6298 45.4986V22.8902C83.6281 21.0397 82.8924 19.2654 81.5841 17.9566C80.2758 16.6479 78.5018 15.9115 76.6512 15.9092H10.2312C8.38042 15.9115 6.60609 16.6477 5.29737 17.9564C3.98865 19.2651 3.25237 21.0394 3.25 22.8902V67.1066C3.2522 68.9574 3.98836 70.7316 5.29699 72.0403C6.60562 73.349 8.37988 74.0852 10.2306 74.0874H32.3509C32.3848 75.6315 31.8608 77.1361 30.875 78.325H27.3843C26.8456 78.3259 26.3292 78.5405 25.9484 78.9216C25.5676 79.3026 25.3535 79.8192 25.353 80.3579V83.208C25.3546 84.5025 25.8695 85.7435 26.7849 86.6589C27.7002 87.5743 28.9412 88.0893 30.2358 88.0909H56.8431C58.1376 88.0893 59.3787 87.5743 60.294 86.6589C61.2094 85.7435 61.7243 84.5025 61.7258 83.208V80.3579C61.7252 79.8189 61.5107 79.3021 61.1296 78.921C60.7484 78.5399 60.2316 78.3256 59.6925 78.325H56.0038C55.0179 77.1361 54.4937 75.6316 54.5275 74.0874H66.7109C66.7883 74.7375 67.0816 75.3428 67.5437 75.8065L70.4437 78.7059C70.9939 79.2542 71.7389 79.5622 72.5156 79.5622C73.2924 79.5622 74.0374 79.2542 74.5875 78.7059L76.1055 77.1902C76.4528 77.35 76.8079 77.4961 77.1672 77.6303V79.7737C77.1679 80.5508 77.4769 81.2958 78.0263 81.8453C78.5758 82.3948 79.3208 82.7039 80.0979 82.7046H84.1973C84.9744 82.7039 85.7194 82.3948 86.2689 81.8453C86.8183 81.2958 87.1273 80.5508 87.128 79.7737V77.6303C87.4874 77.4961 87.8404 77.35 88.1898 77.1902L89.7059 78.7059C90.2558 79.2545 91.0009 79.5627 91.7778 79.5627C92.5546 79.5627 93.2997 79.2545 93.8496 78.7059L96.7515 75.8063C97.3 75.2563 97.6081 74.5112 97.6081 73.7344C97.6081 72.9576 97.3 72.2125 96.7515 71.6625L95.2337 70.1466C95.3962 69.7972 95.5429 69.4433 95.6737 69.0849H97.8193C98.5965 69.0841 99.3416 68.7749 99.891 68.2253C100.44 67.6757 100.749 66.9305 100.75 66.1534V62.0547C100.749 61.2775 100.44 60.5323 99.891 59.9826C99.3415 59.433 98.5963 59.1238 97.8191 59.123H97.8187Z" fill="white"/>
<path fill-rule="evenodd" clip-rule="evenodd" d="M92.5727 56.8158L94.7967 54.5895C94.827 54.5576 94.844 54.5152 94.844 54.4711C94.844 54.427 94.827 54.3847 94.7967 54.3527L91.8971 51.4533C91.865 51.4234 91.8227 51.4068 91.7788 51.4068C91.735 51.4068 91.6927 51.4234 91.6606 51.4533L89.4354 53.6798C89.2229 53.8917 88.9472 54.0288 88.65 54.0705C88.3528 54.1121 88.05 54.0561 87.7874 53.9107C87.0213 53.4844 86.2087 53.1473 85.3658 52.906C85.0775 52.8232 84.8239 52.6488 84.6434 52.4092C84.4629 52.1696 84.3653 51.8778 84.3652 51.5778V48.4316C84.3638 48.3878 84.3457 48.3461 84.3144 48.3153C84.2832 48.2844 84.2413 48.2668 84.1974 48.2661C83.3585 48.2661 82.6583 48.2458 82.0402 48.2285C81.2665 48.2082 80.3986 48.185 80.0567 48.2541C79.9283 48.6922 79.9285 49.9693 79.9306 51.3152V51.5778C79.9304 51.8778 79.8328 52.1696 79.6523 52.4092C79.4718 52.6488 79.2183 52.8232 78.93 52.906C78.0864 53.1477 77.2732 53.4848 76.5061 53.9107C76.2439 54.0559 75.9416 54.1119 75.6448 54.0703C75.348 54.0286 75.0728 53.8915 74.8608 53.6798L72.6341 51.4533C72.602 51.4233 72.5597 51.4067 72.5158 51.4067C72.4719 51.4067 72.4296 51.4233 72.3975 51.4533L69.4979 54.3527C69.4675 54.3847 69.4505 54.427 69.4505 54.4711C69.4505 54.5152 69.4675 54.5576 69.4979 54.5895L71.7239 56.8158C71.9357 57.0279 72.0728 57.3031 72.1144 57.5998C72.1561 57.8966 72.1001 58.1989 71.9549 58.4611C71.529 59.2282 71.192 60.0414 70.9504 60.8848C70.8673 61.1729 70.6929 61.4263 70.4534 61.6068C70.2139 61.7873 69.9223 61.8851 69.6224 61.8856H66.476C66.4318 61.8865 66.3898 61.9045 66.3586 61.9357C66.3274 61.967 66.3095 62.009 66.3086 62.0532V66.1526C66.3099 66.1968 66.3281 66.2388 66.3594 66.2699C66.3906 66.3011 66.4326 66.3192 66.4768 66.3204H69.6224C69.9223 66.3208 70.214 66.4186 70.4536 66.599C70.6931 66.7795 70.8676 67.0329 70.9508 67.321C71.1922 68.1639 71.5292 68.9764 71.9553 69.7427C72.1007 70.0053 72.1568 70.308 72.1152 70.6053C72.0735 70.9026 71.9364 71.1783 71.7245 71.3908L69.4981 73.615C69.4677 73.647 69.4507 73.6894 69.4507 73.7335C69.4507 73.7776 69.4677 73.82 69.4981 73.8519L72.3973 76.7513C72.4129 76.7667 72.4314 76.7788 72.4517 76.7869C72.472 76.795 72.4938 76.799 72.5157 76.7986C72.5376 76.7993 72.5595 76.7955 72.5799 76.7874C72.6002 76.7792 72.6187 76.7669 72.6341 76.7513L74.8604 74.5269C75.0722 74.3148 75.3475 74.1775 75.6443 74.1359C75.9412 74.0942 76.2436 74.1504 76.5057 74.2959C77.2733 74.721 78.0864 75.058 78.9296 75.3006C79.218 75.3832 79.4717 75.5576 79.6523 75.7972C79.8328 76.0368 79.9305 76.3288 79.9304 76.6288V79.773C79.9314 79.8172 79.9494 79.8593 79.9807 79.8906C80.012 79.9218 80.0541 79.9398 80.0983 79.9408H84.1974C84.2415 79.9395 84.2835 79.9214 84.3147 79.8902C84.3459 79.859 84.3641 79.8171 84.3654 79.773V76.6296C84.3653 76.3296 84.4629 76.0377 84.6435 75.798C84.824 75.5584 85.0777 75.384 85.3662 75.3014C86.2088 75.0592 87.0212 74.7221 87.7878 74.2967C88.0503 74.1508 88.3533 74.0944 88.6507 74.136C88.9482 74.1777 89.2239 74.3152 89.4362 74.5277L91.6602 76.7521C91.6922 76.7825 91.7346 76.7994 91.7787 76.7994C91.8228 76.7994 91.8653 76.7825 91.8973 76.7521L94.7963 73.8527C94.8266 73.8208 94.8436 73.7784 94.8436 73.7343C94.8436 73.6902 94.8266 73.6478 94.7963 73.6159L92.5716 71.3916C92.3592 71.1794 92.2217 70.9037 92.1801 70.6063C92.1384 70.3088 92.1948 70.006 92.3407 69.7435C92.7652 68.9764 93.1022 68.1641 93.3453 67.3218C93.428 67.0334 93.6024 66.7798 93.842 66.5993C94.0816 66.4187 94.3736 66.3211 94.6736 66.3212H97.8184C97.8625 66.32 97.9044 66.3019 97.9357 66.2707C97.9669 66.2395 97.985 66.1976 97.9863 66.1535V62.0548C97.9855 62.0106 97.9675 61.9685 97.9363 61.9373C97.905 61.906 97.8629 61.8881 97.8188 61.8872H94.6744C94.3743 61.8873 94.0824 61.7897 93.8428 61.6091C93.6031 61.4286 93.4288 61.1749 93.3462 60.8864C93.1037 60.0432 92.7666 59.2302 92.3415 58.4627C92.1959 58.2007 92.1397 57.8983 92.1814 57.6013C92.2231 57.3044 92.3605 57.0292 92.5727 56.8174V56.8158ZM82.1475 53.8299C84.1796 53.8297 86.1661 54.4321 87.8558 55.5609C89.5455 56.6898 90.8625 58.2944 91.6403 60.1717C92.418 62.0491 92.6216 64.115 92.2252 66.108C91.8288 68.1011 90.8503 69.9319 89.4133 71.3688C87.9764 72.8057 86.1457 73.7842 84.1526 74.1806C82.1595 74.577 80.0937 74.3735 78.2163 73.5957C76.3389 72.818 74.7343 71.501 73.6055 69.8113C72.4766 68.1215 71.8742 66.135 71.8744 64.1029C71.8775 61.3793 72.9609 58.7681 74.8868 56.8421C76.8126 54.9162 79.4238 53.8328 82.1475 53.8297V53.8299Z" fill="#00ABEA"/>
<path fill-rule="evenodd" clip-rule="evenodd" d="M34.3529 55.4897V42.6786L32.6476 41.3699L30.9424 42.6786V55.4897H34.3529Z" fill="#00ABEA"/>
<path fill-rule="evenodd" clip-rule="evenodd" d="M53.0801 37.6872V55.4896H56.4905V37.6872L54.7853 36.3784L53.0801 37.6872Z" fill="#00ABEA"/>
<path fill-rule="evenodd" clip-rule="evenodd" d="M32.3258 33.7435C32.7091 33.7437 33.0837 33.6303 33.4025 33.4175C33.7212 33.2047 33.9697 32.9022 34.1164 32.5482C34.2631 32.1941 34.3016 31.8045 34.2269 31.4287C34.1522 31.0528 33.9676 30.7075 33.6967 30.4365C33.4257 30.1656 33.0804 29.981 32.7045 29.9063C32.3287 29.8316 31.9391 29.87 31.585 30.0168C31.231 30.1635 30.9285 30.412 30.7157 30.7307C30.5029 31.0495 30.3894 31.4241 30.3896 31.8074C30.3902 32.3207 30.5944 32.8128 30.9574 33.1758C31.3204 33.5388 31.8125 33.743 32.3258 33.7435Z" fill="#00ABEA"/>
<path fill-rule="evenodd" clip-rule="evenodd" d="M42.988 35.4114C42.6049 35.4112 42.2303 35.5246 41.9116 35.7373C41.5929 35.95 41.3445 36.2524 41.1977 36.6063C41.0508 36.9602 41.0123 37.3497 41.0868 37.7255C41.1614 38.1013 41.3457 38.4466 41.6165 38.7177C41.8873 38.9887 42.2323 39.1734 42.6081 39.2484C42.9838 39.3233 43.3734 39.2851 43.7274 39.1387C44.0815 38.9923 44.3841 38.7441 44.5972 38.4257C44.8102 38.1072 44.924 37.7327 44.9242 37.3496C44.9237 36.836 44.7196 36.3436 44.3567 35.9803C43.9938 35.617 43.5016 35.4124 42.988 35.4114Z" fill="#00ABEA"/>
<path fill-rule="evenodd" clip-rule="evenodd" d="M52.2207 26.522C52.2209 26.905 52.3347 27.2794 52.5476 27.5978C52.7605 27.9162 53.0631 28.1644 53.417 28.3109C53.7709 28.4574 54.1603 28.4957 54.536 28.4209C54.9117 28.3461 55.2568 28.1617 55.5276 27.8908C55.7985 27.62 55.983 27.2749 56.0578 26.8992C56.1326 26.5236 56.0944 26.1342 55.9479 25.7802C55.8014 25.4263 55.5533 25.1237 55.2349 24.9107C54.9165 24.6978 54.5422 24.584 54.1591 24.5837C53.6451 24.5838 53.1521 24.7881 52.7886 25.1515C52.4251 25.515 52.2209 26.0079 52.2207 26.522Z" fill="#00ABEA"/>
<path fill-rule="evenodd" clip-rule="evenodd" d="M58.9632 81.0876H28.1162V83.2075C28.1171 83.7694 28.3408 84.3081 28.7383 84.7055C29.1357 85.1028 29.6744 85.3263 30.2364 85.3271H56.843C57.405 85.3264 57.9437 85.1028 58.3412 84.7055C58.7386 84.3082 58.9623 83.7695 58.9632 83.2075V81.0876Z" fill="#00ABEA"/>
</svg>
