<svg width="104" height="104" viewBox="0 0 104 104" fill="none" xmlns="http://www.w3.org/2000/svg">
<path fill-rule="evenodd" clip-rule="evenodd" d="M36.1725 43.4854L45.5402 38.0106L52.9618 44.7527C51.8135 45.8486 50.4477 46.6911 48.9531 47.2254C47.4584 47.7598 45.8681 47.9742 44.2853 47.8548C42.7025 47.7353 41.1624 47.2846 39.7649 46.5319C38.3674 45.7792 37.1436 44.7413 36.1729 43.4854H36.1725ZM44.2867 25.2328C42.4764 25.3669 40.7248 25.9339 39.1792 26.886C37.6337 27.8381 36.3394 29.1475 35.4054 30.7041C34.4713 32.2606 33.9248 34.0187 33.8118 35.8304C33.6987 37.6422 34.0225 39.4546 34.7559 41.1151L44.2867 35.5434V25.2328ZM55.9867 45.554C56.2147 45.2804 56.3282 44.9293 56.3035 44.5741C56.2788 44.2188 56.1179 43.8867 55.8542 43.6473L47.0498 35.6484V23.8316C47.0497 23.4752 46.9117 23.1325 46.6648 22.8754C46.4179 22.6183 46.0812 22.4666 45.725 22.452C45.53 22.4421 45.3324 22.4382 45.1329 22.4382C42.7579 22.4381 40.4213 23.0377 38.3397 24.1814C36.2582 25.3251 34.4991 26.9758 33.2257 28.9806C31.9522 30.9853 31.2055 33.2791 31.0548 35.6494C30.9041 38.0196 31.3544 40.3896 32.3638 42.5394C33.3732 44.6893 34.9091 46.5494 36.8291 47.9475C38.749 49.3455 40.9909 50.2361 43.3468 50.5368C45.7028 50.8374 48.0965 50.5383 50.306 49.6672C52.5155 48.7962 54.4693 47.3813 55.9863 45.5538L55.9867 45.554ZM50.784 25.9612V34.2725L56.8014 39.7394C57.3159 38.44 57.5682 37.0518 57.5439 35.6545C57.5195 34.2573 57.2191 32.8786 56.6597 31.598C56.1004 30.3174 55.2933 29.16 54.2848 28.1926C53.2763 27.2252 52.0864 26.4668 50.7836 25.9612H50.784ZM56.2967 43.0137C56.4479 43.151 56.6277 43.253 56.8231 43.3124C57.0185 43.3719 57.2246 43.3872 57.4266 43.3574C57.6287 43.3276 57.8216 43.2533 57.9915 43.14C58.1614 43.0266 58.304 42.877 58.4092 42.702C59.5045 40.8751 60.1469 38.8128 60.2827 36.6871C60.4185 34.5614 60.0437 32.434 59.1896 30.4827C58.3355 28.5314 57.027 26.8127 55.3732 25.4703C53.7195 24.1278 51.7685 23.2005 49.6833 22.7658C49.4824 22.724 49.2747 22.7275 49.0753 22.776C48.8759 22.8245 48.6899 22.9169 48.5307 23.0464C48.3715 23.1759 48.2432 23.3393 48.1552 23.5246C48.0671 23.71 48.0214 23.9126 48.0215 24.1178V34.8822C48.0213 35.0751 48.0614 35.2658 48.1393 35.4422C48.2171 35.6186 48.3309 35.7768 48.4735 35.9066L56.2973 43.0137H56.2967ZM77.8334 84.6032C77.8334 84.9695 77.6879 85.3208 77.4288 85.5799C77.1698 85.8389 76.8185 85.9844 76.4521 85.9844H37.7534C37.387 85.9844 37.0357 85.8389 36.7767 85.5799C36.5176 85.3208 36.3721 84.9695 36.3721 84.6032C36.3721 84.2369 36.5176 83.8855 36.7767 83.6265C37.0357 83.3675 37.387 83.2219 37.7534 83.2219H76.4521C76.8185 83.2219 77.1698 83.3675 77.4288 83.6265C77.6879 83.8855 77.8334 84.2369 77.8334 84.6032ZM77.8334 70.4578C77.8334 70.8241 77.6879 71.1754 77.4288 71.4345C77.1698 71.6935 76.8185 71.839 76.4521 71.839H37.7534C37.387 71.839 37.0357 71.6935 36.7767 71.4345C36.5176 71.1754 36.3721 70.8241 36.3721 70.4578C36.3721 70.0914 36.5176 69.7401 36.7767 69.4811C37.0357 69.222 37.387 69.0765 37.7534 69.0765H76.4521C76.8185 69.0765 77.1698 69.222 77.4288 69.4811C77.6879 69.7401 77.8334 70.0914 77.8334 70.4578ZM77.8334 58.0751C77.8331 58.4413 77.6874 58.7924 77.4285 59.0514C77.1695 59.3104 76.8184 59.456 76.4521 59.4563H37.7534C37.387 59.4563 37.0357 59.3108 36.7767 59.0518C36.5176 58.7927 36.3721 58.4414 36.3721 58.0751C36.3721 57.7087 36.5176 57.3574 36.7767 57.0984C37.0357 56.8393 37.387 56.6938 37.7534 56.6938H76.4521C76.8185 56.6938 77.1698 56.8393 77.4288 57.0984C77.6879 57.3574 77.8334 57.7087 77.8334 58.0751ZM84.9011 97.9875C86.8133 97.9875 88.3668 96.2203 88.3668 94.0499V39.858H65.9339C65.5684 39.8583 65.2178 39.7137 64.9588 39.4557C64.6999 39.1978 64.5538 38.8477 64.5527 38.4822L64.4755 13.6356H28.171C26.2606 13.6356 24.7054 15.4028 24.7054 17.573V94.0495C24.7054 96.2207 26.2608 97.9871 28.1712 97.9871L84.9011 97.9875ZM19.0984 90.3644H21.9421V17.573C21.9421 13.8783 24.7375 10.8725 28.171 10.8725H60.595L56.1685 6.0125H19.098C17.1855 6.0125 15.6329 7.77969 15.6329 9.95008V86.4266C15.6329 88.5976 17.1868 90.364 19.0988 90.364L19.0984 90.3644ZM86.6198 37.0947H67.3113L67.2445 15.8342L86.6198 37.0947ZM90.771 37.5466L66.8734 11.3244C66.7443 11.1819 66.5868 11.0681 66.4109 10.9902C66.2351 10.9124 66.045 10.8723 65.8527 10.8725H64.3351L57.7984 3.70216C57.6693 3.55961 57.5118 3.44573 57.336 3.36784C57.1601 3.28996 56.97 3.24982 56.7777 3.25H19.0984C15.6621 3.25 12.8691 6.25625 12.8691 9.95069V86.4273C12.8691 90.1219 15.6611 93.1277 19.0972 93.1277H21.9409V94.0495C21.9409 97.7444 24.7355 100.75 28.1695 100.75H84.9011C88.3376 100.75 91.1295 97.7439 91.1295 94.0495V38.4765C91.1293 38.1329 91.0016 37.8015 90.771 37.5466Z" fill="white"/>
<path fill-rule="evenodd" clip-rule="evenodd" d="M86.6194 37.0947L67.2441 15.8342L67.311 37.0947H86.6194Z" fill="#00ABEA"/>
<path fill-rule="evenodd" clip-rule="evenodd" d="M44.287 35.5433V25.2327C42.4767 25.3668 40.725 25.9338 39.1795 26.8859C37.634 27.838 36.3397 29.1474 35.4057 30.7039C34.4716 32.2605 33.9251 34.0186 33.812 35.8303C33.699 37.6421 34.0228 39.4545 34.7561 41.115L44.287 35.5433Z" fill="#00ABEA"/>
<path fill-rule="evenodd" clip-rule="evenodd" d="M45.5402 38.0105L36.1729 43.4853C37.1436 44.7412 38.3674 45.7791 39.7649 46.5318C41.1624 47.2845 42.7025 47.7352 44.2853 47.8547C45.8681 47.9741 47.4584 47.7597 48.9531 47.2254C50.4477 46.691 51.8135 45.8485 52.9617 44.7526L45.5402 38.0105Z" fill="#00ABEA"/>
<path fill-rule="evenodd" clip-rule="evenodd" d="M21.9421 17.5729C21.9421 13.8783 24.7375 10.8724 28.1709 10.8724H60.5949L56.1684 6.01245H19.0979C17.1855 6.01245 15.6328 7.77964 15.6328 9.95003V86.4266C15.6328 88.5976 17.1867 90.364 19.0987 90.364H21.9425L21.9421 17.5729Z" fill="#00ABEA"/>
</svg>
