<svg width="327" height="68" viewBox="0 0 327 68" fill="none" xmlns="http://www.w3.org/2000/svg">
<path fill-rule="evenodd" clip-rule="evenodd" d="M1.89486 0.213867H39.0172C39.7836 0.213867 40.4006 0.841746 40.4006 1.59919V38.7736C40.4006 39.541 39.7836 40.1589 39.0172 40.1589H1.89486C1.13847 40.1589 0.511475 39.541 0.511475 38.7736V1.59919C0.511475 0.841746 1.13847 0.213867 1.89486 0.213867Z" fill="#2095F2"/>
<path d="M11.7875 32.1758V28.8968L22.3669 12.7614H12.7827V8.19678H29.015V11.4757L18.4357 27.6112H29.1245V32.1758H11.7875Z" fill="white"/>
<path fill-rule="evenodd" clip-rule="evenodd" d="M46.3222 6.81152H83.4545C84.2109 6.81152 84.8279 7.42944 84.8279 8.18688V45.3713C84.8279 46.1287 84.2109 46.7466 83.4545 46.7466H46.3222C45.5658 46.7466 44.9487 46.1287 44.9487 45.3713V8.18688C44.9487 7.42944 45.5658 6.81152 46.3222 6.81152Z" fill="#F34235"/>
<path d="M57.7278 38.7635V14.7944H72.7161V19.349H63.1319V24.1727H71.2829V28.6875H63.1319V34.2088H73.0744V38.7635H57.7278Z" fill="white"/>
<path fill-rule="evenodd" clip-rule="evenodd" d="M92.0136 0.213867H129.146C129.902 0.213867 130.529 0.841746 130.529 1.59919V38.7736C130.529 39.541 129.902 40.1589 129.146 40.1589H92.0136C91.2572 40.1589 90.6401 39.541 90.6401 38.7736V1.59919C90.6401 0.841746 91.2572 0.213867 92.0136 0.213867Z" fill="#FFCC00"/>
<path d="M108.087 32.166V12.7516H101.518V8.18701H120.089V12.7516H113.521V32.166H108.087Z" fill="white"/>
<path fill-rule="evenodd" clip-rule="evenodd" d="M137.834 6.81152H174.957C175.723 6.81152 176.34 7.42944 176.34 8.18688V45.3713C176.34 46.1287 175.723 46.7466 174.957 46.7466H137.834C137.068 46.7466 136.451 46.1287 136.451 45.3713V8.18688C136.451 7.42944 137.068 6.81152 137.834 6.81152Z" fill="#00BBD3"/>
<path d="M154.266 28.837H159.371L158.814 26.6344C158.695 26.166 158.048 23.5947 156.873 18.9105H156.724C155.818 22.8074 155.191 25.3787 154.853 26.6344L154.266 28.837ZM161.939 38.7635L160.476 33.0627H153.161L151.698 38.7635H146.185L153.679 14.7944H160.178L167.672 38.7635H161.939Z" fill="white"/>
<path d="M209.93 29.0565L203.102 26.3258C200.425 25.2394 198.524 23.9039 197.409 22.3392C196.285 20.7645 195.728 18.7115 195.728 16.1601C195.728 12.333 196.693 9.74178 198.644 8.40629C200.594 7.0708 204.058 6.39309 209.044 6.39309C213.821 6.39309 217.782 6.91134 220.917 7.93787L220.33 14.0273C214.488 13.9276 210.686 13.8778 208.944 13.8778C207.352 13.8778 206.297 14.0173 205.75 14.2765C205.202 14.5456 204.933 15.1236 204.933 16.0106C204.933 16.778 205.162 17.366 205.62 17.7746C206.088 18.1833 206.944 18.6118 208.198 19.0404L214.488 21.4722C217.225 22.5585 219.155 23.894 220.28 25.4786C221.395 27.0732 221.962 29.1562 221.962 31.7275C221.962 35.5944 220.997 38.2555 219.066 39.7105C217.135 41.1656 213.642 41.8932 208.596 41.8932C204.237 41.8932 200.067 41.3948 196.066 40.4082L196.613 33.8105C203.381 33.9799 207.352 34.0596 208.546 34.0596C210.198 34.0596 211.293 33.9201 211.84 33.641C212.378 33.362 212.657 32.7839 212.657 31.9268C212.657 31.1395 212.467 30.5515 212.089 30.1927C211.701 29.8339 210.985 29.4452 209.93 29.0565ZM244.415 6.34326C248.306 6.34326 251.331 6.87148 253.471 7.90798C255.621 8.95444 257.203 10.7484 258.228 13.3097C259.244 15.8711 259.761 19.4889 259.761 24.1431C259.761 28.8074 259.244 32.4152 258.228 34.9765C257.203 37.5379 255.621 39.3418 253.471 40.3783C251.331 41.4247 248.306 41.943 244.415 41.943C238.672 41.943 234.681 40.6972 232.462 38.1957C230.232 35.7041 229.118 31.0199 229.118 24.1431C229.118 17.2664 230.232 12.5822 232.462 10.0906C234.681 7.59902 238.672 6.34326 244.415 6.34326ZM248.823 15.6717C248.057 14.2167 246.594 13.4891 244.415 13.4891C242.235 13.4891 240.762 14.2167 240.006 15.6717C239.249 17.1169 238.871 19.9473 238.871 24.1431C238.871 28.339 239.249 31.1694 240.006 32.6245C240.762 34.0796 242.235 34.8071 244.415 34.8071C246.594 34.8071 248.057 34.0796 248.823 32.6245C249.58 31.1694 249.958 28.339 249.958 24.1431C249.958 19.9473 249.58 17.1169 248.823 15.6717ZM292.017 14.127H279.935C278.352 14.127 277.556 14.8445 277.556 16.2598V21.0735H290.186V27.5117H277.556V41.2453H268.251V14.3263C268.251 12.0839 268.977 10.28 270.43 8.92454C271.883 7.56912 273.784 6.89141 276.123 6.89141C283.945 6.89141 289.389 7.09074 292.465 7.48939L292.017 14.127ZM326.691 14.2266H316.848V41.2453H307.533V14.2266H297.739V7.0409H326.691V14.2266Z" fill="white"/>
<path d="M30.8165 55.7362L30.9658 56.962C31.354 56.5434 31.8516 56.1946 32.4786 55.9255C33.1056 55.6564 33.7226 55.5169 34.3297 55.5169C36.2008 55.5169 37.1263 56.9919 37.1263 59.922C37.1263 61.4867 36.8775 62.583 36.37 63.2209C35.8624 63.8587 35.0562 64.1777 33.9714 64.1777C32.8667 64.1777 31.9113 63.9086 31.1251 63.3704C31.1649 63.9385 31.1848 64.5165 31.1748 65.0846V67.2573H29.1445V55.7362H30.8165ZM31.1748 58.2278V62.1645C32.2198 62.3937 32.9563 62.5133 33.3743 62.5133C34.0013 62.5133 34.4292 62.3439 34.6681 62.005C34.9169 61.6562 35.0363 60.9585 35.0363 59.9121C35.0363 58.8855 34.9269 58.1779 34.7079 57.7892C34.489 57.4006 34.1108 57.2012 33.5932 57.2012C33.2051 57.2012 32.8468 57.281 32.4885 57.4504C32.1402 57.6098 31.7023 57.869 31.1748 58.2278ZM46.0238 60.7193H42.6599C42.7295 61.4369 42.9286 61.9153 43.257 62.1545C43.5854 62.3937 44.1229 62.5133 44.8593 62.5133C45.6953 62.5133 46.6806 62.4435 47.8152 62.314L48.0043 63.6195C47.2181 63.9983 46.0835 64.1777 44.6105 64.1777C43.1177 64.1777 42.0627 63.8488 41.4357 63.191C40.8087 62.5232 40.5002 61.407 40.5002 59.8423C40.5002 58.2377 40.7988 57.1115 41.4158 56.4737C42.0329 55.8259 43.058 55.5069 44.4712 55.5069C45.7849 55.5069 46.7304 55.7461 47.3176 56.2146C47.9048 56.6929 48.2033 57.4105 48.2033 58.3573C48.2232 59.932 47.4967 60.7193 46.0238 60.7193ZM42.6101 59.2842H45.4465C45.9442 59.2842 46.183 58.9653 46.183 58.3274C46.183 57.8789 46.0735 57.57 45.8347 57.3906C45.5958 57.2112 45.1778 57.1215 44.5608 57.1215C43.8342 57.1215 43.3366 57.271 43.0679 57.56C42.7992 57.859 42.64 58.4371 42.6101 59.2842ZM63.3011 55.7362V63.9783H51.8559V55.7362H53.8165V62.4136H56.6728V55.7362H58.4842V62.4136H61.3405V55.7362H63.3011ZM72.5369 60.7193H69.183C69.2526 61.4369 69.4517 61.9153 69.7801 62.1545C70.1085 62.3937 70.646 62.5133 71.3824 62.5133C72.2184 62.5133 73.2037 62.4435 74.3383 62.314L74.5174 63.6195C73.7411 63.9983 72.6066 64.1777 71.1336 64.1777C69.6408 64.1777 68.5858 63.8488 67.9588 63.191C67.3318 62.5232 67.0133 61.407 67.0133 59.8423C67.0133 58.2377 67.3219 57.1115 67.9389 56.4737C68.556 55.8259 69.5711 55.5069 70.9943 55.5069C72.308 55.5069 73.2535 55.7461 73.8407 56.2146C74.4279 56.6929 74.7264 57.4105 74.7264 58.3573C74.7463 59.932 74.0198 60.7193 72.5369 60.7193ZM69.1332 59.2842H71.9696C72.4672 59.2842 72.7061 58.9653 72.7061 58.3274C72.7061 57.8789 72.5867 57.57 72.3578 57.3906C72.1189 57.2112 71.691 57.1215 71.0839 57.1215C70.3573 57.1215 69.8597 57.271 69.591 57.56C69.3223 57.859 69.1631 58.4371 69.1332 59.2842ZM85.9826 55.7362V63.9783H83.9822V60.3606H80.3893V63.9783H78.369V55.7362H80.3893V58.8656H83.9822V55.7362H85.9826ZM97.6866 63.9783H95.8553V59.2144C95.8553 59.1845 95.8852 58.7759 95.9449 57.9886H95.8852C95.7757 58.2876 95.5767 58.6563 95.2881 59.1048L91.745 63.9783H90.0631V55.7362H91.8744V60.5499C91.8744 60.9486 91.8545 61.3373 91.8147 61.706H91.8644C92.0535 61.2974 92.2526 60.9486 92.4616 60.6695L96.0046 55.7362H97.6866V63.9783ZM103.439 60.4502V60.3805C102.782 60.2609 102.324 60.0117 102.046 59.6529C101.757 59.2842 101.618 58.7759 101.618 58.1281C101.618 57.2212 101.857 56.5733 102.334 56.1847C102.812 55.796 103.678 55.6066 104.942 55.6066C106.693 55.6066 107.967 55.6465 108.774 55.7262V63.9783H106.773V61.0682H104.932C104.295 61.0682 103.917 61.3074 103.817 61.7758L103.23 63.9783H101.13L101.857 61.4568C102.016 60.8987 102.543 60.5599 103.439 60.4502ZM106.773 59.643V57.1813L104.982 57.1713C104.394 57.1713 104.026 57.2511 103.857 57.4006C103.688 57.56 103.598 57.8889 103.598 58.3773C103.598 58.8756 103.688 59.2045 103.867 59.3839C104.036 59.5533 104.404 59.643 104.982 59.643H106.773ZM127.076 62.4136V66.3802H125.742L125.593 63.9783H119.233L119.084 66.3802H117.751V62.4136H118.776C119.323 61.128 119.681 59.5632 119.851 57.7394C119.95 56.4039 120.716 55.7362 122.15 55.7362H125.832V62.4136H127.076ZM123.911 62.4136V57.2311H122.587C122.02 57.2311 121.712 57.5301 121.662 58.1082C121.473 59.9121 121.114 61.3472 120.577 62.4136H123.911ZM137.844 55.7362V63.9783H135.794V57.2511H134.431C134.122 57.2511 133.893 57.3208 133.774 57.4504C133.645 57.57 133.555 57.8191 133.505 58.1779C133.256 60.1313 133.018 61.4369 132.818 62.1146C132.44 63.5298 131.425 64.1876 129.783 64.0581L129.584 62.5332C130.032 62.4535 130.35 62.3439 130.539 62.2143C130.728 62.0748 130.888 61.8555 131.007 61.5366C131.246 60.819 131.445 59.5732 131.614 57.8092C131.684 57.1115 131.893 56.5933 132.271 56.2544C132.639 55.9056 133.187 55.7362 133.913 55.7362H137.844ZM143.567 60.4502V60.3805C142.92 60.2609 142.462 60.0117 142.174 59.6529C141.895 59.2842 141.756 58.7759 141.756 58.1281C141.756 57.2212 141.995 56.5733 142.472 56.1847C142.95 55.796 143.816 55.6066 145.08 55.6066C146.831 55.6066 148.105 55.6465 148.911 55.7262V63.9783H146.911V61.0682H145.07C144.423 61.0682 144.055 61.3074 143.955 61.7758L143.368 63.9783H141.268L141.995 61.4568C142.154 60.8987 142.681 60.5599 143.567 60.4502ZM146.911 59.643V57.1813L145.12 57.1713C144.532 57.1713 144.164 57.2511 143.995 57.4006C143.826 57.56 143.736 57.8889 143.736 58.3773C143.736 58.8756 143.826 59.2045 143.995 59.3839C144.174 59.5533 144.542 59.643 145.12 59.643H146.911ZM166.438 55.7362L163.382 64.2275C162.954 65.4633 162.347 66.3304 161.571 66.8387C160.795 67.3768 159.67 67.5363 158.197 67.327L158.376 65.9118C159.312 65.9616 159.988 65.862 160.406 65.6028C160.834 65.3238 161.203 64.8354 161.501 64.1478L161.571 63.9783H161.163C160.795 63.9783 160.566 63.8089 160.476 63.47L157.67 55.7362H159.859L161.651 61.407C161.8 61.9253 161.889 62.2841 161.919 62.4933H162.138C162.248 62.1744 162.367 61.8057 162.477 61.407L164.238 55.7362H166.438ZM176.43 55.7362V63.9783H174.439V60.7692C173.414 61.0981 172.439 61.2675 171.493 61.2675C169.971 61.2675 169.214 60.6496 169.214 59.4237V55.7362H171.225V58.746C171.225 59.0948 171.294 59.334 171.434 59.4735C171.583 59.6031 171.832 59.6729 172.19 59.6729C172.927 59.6729 173.673 59.5234 174.439 59.2344V55.7362H176.43ZM183.018 54.1715H182.351C182.013 54.1715 181.844 54.012 181.844 53.6731V52.7463C181.844 52.3975 182.013 52.228 182.351 52.228H183.018C183.357 52.228 183.526 52.3975 183.526 52.7463V53.6731C183.526 54.012 183.357 54.1715 183.018 54.1715ZM186.024 54.1715H185.357C185.019 54.1715 184.85 54.012 184.85 53.6731V52.7463C184.85 52.3975 185.019 52.228 185.357 52.228H186.024C186.362 52.228 186.531 52.3975 186.531 52.7463V53.6731C186.531 54.012 186.362 54.1715 186.024 54.1715ZM185.705 60.7193H182.351C182.421 61.4369 182.61 61.9153 182.949 62.1545C183.277 62.3937 183.814 62.5133 184.551 62.5133C185.387 62.5133 186.372 62.4435 187.507 62.314L187.686 63.6195C186.9 63.9983 185.775 64.1777 184.292 64.1777C182.809 64.1777 181.754 63.8488 181.127 63.191C180.5 62.5232 180.182 61.407 180.182 59.8423C180.182 58.2377 180.49 57.1115 181.107 56.4737C181.724 55.8259 182.74 55.5069 184.163 55.5069C185.477 55.5069 186.422 55.7461 187.009 56.2146C187.596 56.6929 187.885 57.4105 187.885 58.3573C187.915 59.932 187.188 60.7193 185.705 60.7193ZM182.302 59.2842H185.138C185.626 59.2842 185.875 58.9653 185.875 58.3274C185.875 57.8789 185.755 57.57 185.526 57.3906C185.287 57.2112 184.859 57.1215 184.242 57.1215C183.516 57.1215 183.018 57.271 182.75 57.56C182.481 57.859 182.332 58.4371 182.302 59.2842ZM198.425 57.3507H195.598V63.9783H193.588V57.3507H190.751V55.7362H198.425V57.3507ZM201.858 57.3507L201.669 55.9056C203.112 55.6365 204.476 55.5069 205.769 55.5069C206.824 55.5069 207.611 55.7162 208.118 56.1448C208.616 56.5733 208.875 57.3109 208.875 58.3773V63.9783H207.262L207.043 62.7126C206.177 63.6793 205.132 64.1577 203.898 64.1577C203.132 64.1577 202.505 63.9484 202.017 63.5298C201.54 63.1113 201.301 62.5232 201.301 61.7758V60.9386C201.301 60.2709 201.51 59.7626 201.938 59.4038C202.366 59.045 202.963 58.8656 203.729 58.8656H206.824V58.3573C206.814 57.8889 206.705 57.5799 206.506 57.4205C206.307 57.261 205.909 57.1813 205.312 57.1813C204.466 57.1813 203.311 57.2411 201.858 57.3507ZM203.331 61.1878V61.5067C203.331 61.8655 203.411 62.1246 203.58 62.2741C203.749 62.4335 204.028 62.5133 204.406 62.5133C205.222 62.5133 206.028 62.1844 206.824 61.5366V60.2609H204.207C203.878 60.2709 203.65 60.3606 203.52 60.51C203.391 60.6695 203.331 60.8987 203.331 61.1878ZM226.162 63.9783H224.331V59.2144C224.331 59.1845 224.36 58.7759 224.42 57.9886H224.37C224.251 58.2876 224.052 58.6563 223.763 59.1048L220.22 63.9783H218.538V55.7362H220.35V60.5499C220.35 60.9486 220.33 61.3373 220.29 61.706H220.34C220.529 61.2974 220.728 60.9486 220.937 60.6695L224.48 55.7362H226.162V63.9783ZM243.37 55.7262V63.9783H241.389V57.281H237.896V63.9783H235.915V55.7262H243.37ZM249.152 55.7362L249.301 56.962C249.689 56.5434 250.187 56.1946 250.814 55.9255C251.441 55.6564 252.058 55.5169 252.665 55.5169C254.526 55.5169 255.462 56.9919 255.462 59.922C255.462 61.4867 255.213 62.583 254.705 63.2209C254.188 63.8587 253.392 64.1777 252.307 64.1777C251.202 64.1777 250.247 63.9086 249.45 63.3704C249.5 63.9385 249.52 64.5165 249.51 65.0846V67.2573H247.47V55.7362H249.152ZM249.51 58.2278V62.1645C250.555 62.3937 251.292 62.5133 251.7 62.5133C252.327 62.5133 252.765 62.3439 253.003 62.005C253.242 61.6562 253.362 60.9585 253.362 59.9121C253.362 58.8855 253.262 58.1779 253.043 57.7892C252.824 57.4006 252.446 57.2012 251.919 57.2012C251.54 57.2012 251.172 57.281 250.824 57.4504C250.476 57.6098 250.028 57.869 249.51 58.2278ZM259.751 56.4936C260.368 55.8358 261.413 55.5069 262.896 55.5069C264.369 55.5069 265.414 55.8358 266.031 56.4936C266.648 57.1614 266.957 58.2776 266.957 59.8622C266.957 61.4369 266.648 62.5531 266.041 63.2109C265.434 63.8687 264.379 64.1976 262.896 64.1976C261.413 64.1976 260.368 63.8687 259.751 63.2109C259.134 62.5531 258.826 61.4369 258.826 59.8622C258.826 58.2776 259.134 57.1614 259.751 56.4936ZM264.429 57.6995C264.15 57.3208 263.643 57.1315 262.896 57.1315C262.14 57.1315 261.632 57.3208 261.363 57.6995C261.095 58.0683 260.965 58.7958 260.965 59.8622C260.965 60.9087 261.095 61.6263 261.363 62.005C261.632 62.3738 262.14 62.5631 262.896 62.5631C263.643 62.5631 264.15 62.3738 264.429 62.005C264.707 61.6263 264.837 60.9087 264.837 59.8622C264.837 58.7958 264.707 58.0683 264.429 57.6995ZM279.248 62.4136V66.3802H277.924L277.775 63.9783H271.415L271.256 66.3802H269.932V62.4136H270.958C271.505 61.128 271.863 59.5632 272.032 57.7394C272.132 56.4039 272.898 55.7362 274.331 55.7362H278.004V62.4136H279.248ZM276.093 62.4136V57.2311H274.769C274.202 57.2311 273.893 57.5301 273.844 58.1082C273.655 59.9121 273.286 61.3472 272.749 62.4136H276.093ZM282.801 57.3507L282.612 55.9056C284.055 55.6365 285.428 55.5069 286.712 55.5069C287.777 55.5069 288.553 55.7162 289.061 56.1448C289.568 56.5733 289.817 57.3109 289.817 58.3773V63.9783H288.205L287.986 62.7126C287.13 63.6793 286.075 64.1577 284.851 64.1577C284.075 64.1577 283.448 63.9484 282.97 63.5298C282.482 63.1113 282.244 62.5232 282.244 61.7758V60.9386C282.244 60.2709 282.462 59.7626 282.88 59.4038C283.308 59.045 283.906 58.8656 284.682 58.8656H287.767V58.3573C287.757 57.8889 287.648 57.5799 287.449 57.4205C287.25 57.261 286.852 57.1813 286.254 57.1813C285.408 57.1813 284.254 57.2411 282.801 57.3507ZM284.274 61.1878V61.5067C284.274 61.8655 284.363 62.1246 284.533 62.2741C284.692 62.4335 284.97 62.5133 285.349 62.5133C286.165 62.5133 286.971 62.1844 287.767 61.5366V60.2609H285.15C284.821 60.2709 284.602 60.3606 284.473 60.51C284.343 60.6695 284.274 60.8987 284.274 61.1878ZM302.566 59.643V59.6928C302.875 59.7327 303.144 59.7925 303.362 59.8523C303.581 59.9121 303.79 60.0317 303.98 60.2011C304.169 60.3805 304.328 60.5399 304.447 60.6894C304.567 60.8389 304.716 61.108 304.875 61.4967C305.034 61.8854 305.174 62.2342 305.283 62.5432C305.393 62.8521 305.562 63.3305 305.771 63.9783H303.711C303.144 62.4435 302.736 61.4668 302.487 61.0582C302.228 60.6496 301.82 60.4403 301.272 60.4303H300.267C300.327 60.7094 300.347 60.9585 300.347 61.1678V63.9783H298.575V61.1678C298.575 60.9585 298.595 60.7094 298.655 60.4303H297.6C297.073 60.4403 296.674 60.6496 296.426 61.0582C296.167 61.4668 295.749 62.4435 295.182 63.9783H293.112C293.34 63.2907 293.5 62.8123 293.599 62.5332C293.699 62.2542 293.838 61.9053 294.007 61.5067C294.176 61.0981 294.316 60.829 294.425 60.6894C294.535 60.5499 294.694 60.3905 294.883 60.2111C295.082 60.0317 295.291 59.9121 295.51 59.8523C295.729 59.7925 295.988 59.7327 296.306 59.6928V59.643C295.52 59.5533 294.973 59.2842 294.654 58.8357C294.336 58.3872 293.928 57.4504 293.45 56.0451C293.41 55.9056 293.37 55.8059 293.35 55.7362H295.361C295.839 57.0418 296.207 57.8989 296.485 58.3274C296.764 58.756 297.172 58.9653 297.7 58.9653H298.655C298.595 58.6962 298.575 58.3773 298.575 58.0085V55.7362H300.347V58.0085C300.347 58.3773 300.327 58.6962 300.267 58.9653H301.173C301.71 58.9653 302.118 58.756 302.387 58.3274C302.666 57.8989 303.034 57.0418 303.492 55.7362H305.522C305.005 57.2311 304.646 58.158 304.427 58.5168C304.089 59.0849 303.611 59.4337 302.964 59.5732C302.845 59.6031 302.716 59.633 302.566 59.643Z" fill="white"/>
</svg>
