<svg width="340" height="74" viewBox="0 0 340 74" fill="none" xmlns="http://www.w3.org/2000/svg">
<path fill-rule="evenodd" clip-rule="evenodd" d="M1.43964 0H40.0718C40.8693 0 41.5114 0.682566 41.5114 1.50598V41.9182C41.5114 42.7524 40.8693 43.4242 40.0718 43.4242H1.43964C0.6525 43.4242 0 42.7524 0 41.9182V1.50598C0 0.682566 0.6525 0 1.43964 0Z" fill="#2095F2"/>
<path d="M11.7346 34.7462V31.1817L22.7443 13.6409H12.7703V8.67871H29.6628V12.2432L18.6532 29.7841H29.7768V34.7462H11.7346Z" fill="white"/>
<path fill-rule="evenodd" clip-rule="evenodd" d="M47.6739 7.17188H86.3164C87.1036 7.17188 87.7457 7.84361 87.7457 8.66702V49.0901C87.7457 49.9135 87.1036 50.5852 86.3164 50.5852H47.6739C46.8868 50.5852 46.2446 49.9135 46.2446 49.0901V8.66702C46.2446 7.84361 46.8868 7.17188 47.6739 7.17188Z" fill="#F34235"/>
<path d="M59.5432 41.9073V15.8506H75.1411V20.8019H65.1671V26.0457H73.6496V30.9537H65.1671V36.9559H75.5139V41.9073H59.5432Z" fill="white"/>
<path fill-rule="evenodd" clip-rule="evenodd" d="M95.2236 0H133.866C134.653 0 135.306 0.682566 135.306 1.50598V41.9182C135.306 42.7524 134.653 43.4242 133.866 43.4242H95.2236C94.4365 43.4242 93.7943 42.7524 93.7943 41.9182V1.50598C93.7943 0.682566 94.4365 0 95.2236 0Z" fill="#FFCC00"/>
<path d="M111.95 34.7355V13.6301H105.115V8.66797H124.441V13.6301H117.605V34.7355H111.95Z" fill="white"/>
<path fill-rule="evenodd" clip-rule="evenodd" d="M142.908 7.17188H181.54C182.338 7.17188 182.98 7.84361 182.98 8.66702V49.0901C182.98 49.9135 182.338 50.5852 181.54 50.5852H142.908C142.11 50.5852 141.468 49.9135 141.468 49.0901V8.66702C141.468 7.84361 142.11 7.17188 142.908 7.17188Z" fill="#00BBD3"/>
<path d="M160.008 31.1162H165.321L164.741 28.7218C164.616 28.2126 163.943 25.4173 162.721 20.3252H162.566C161.623 24.5614 160.971 27.3567 160.619 28.7218L160.008 31.1162ZM167.993 41.9073L166.47 35.71H158.858L157.335 41.9073H151.598L159.396 15.8506H166.16L173.959 41.9073H167.993Z" fill="white"/>
<path d="M217.935 31.3546L210.83 28.386C208.044 27.2051 206.066 25.7533 204.906 24.0523C203.735 22.3404 203.155 20.1085 203.155 17.3349C203.155 13.1745 204.16 10.3576 206.19 8.9058C208.22 7.454 211.824 6.71726 217.013 6.71726C221.985 6.71726 226.107 7.28065 229.369 8.39659L228.758 15.0164C222.679 14.908 218.722 14.8539 216.91 14.8539C215.253 14.8539 214.155 15.0056 213.585 15.2872C213.015 15.5798 212.736 16.2082 212.736 17.1724C212.736 18.0067 212.974 18.6459 213.45 19.0901C213.937 19.5343 214.828 20.0002 216.133 20.4661L222.679 23.1097C225.527 24.2906 227.536 25.7424 228.706 27.4651C229.866 29.1986 230.457 31.463 230.457 34.2582C230.457 38.462 229.452 41.3548 227.443 42.9366C225.434 44.5184 221.798 45.3093 216.547 45.3093C212.011 45.3093 207.671 44.7676 203.508 43.695L204.077 36.5226C211.12 36.7068 215.253 36.7935 216.495 36.7935C218.215 36.7935 219.354 36.6418 219.924 36.3384C220.483 36.0351 220.773 35.4067 220.773 34.4749C220.773 33.619 220.576 32.9798 220.183 32.5897C219.779 32.1997 219.033 31.7772 217.935 31.3546ZM253.823 6.66309C257.872 6.66309 261.021 7.23731 263.248 8.36408C265.485 9.50169 267.131 11.4519 268.198 14.2363C269.255 17.0207 269.793 20.9536 269.793 26.0133C269.793 31.0838 269.255 35.0058 268.198 37.7902C267.131 40.5747 265.485 42.5357 263.248 43.6625C261.021 44.8001 257.872 45.3635 253.823 45.3635C247.846 45.3635 243.693 44.0092 241.384 41.2897C239.064 38.5812 237.904 33.489 237.904 26.0133C237.904 18.5376 239.064 13.4454 241.384 10.7368C243.693 8.02822 247.846 6.66309 253.823 6.66309ZM258.411 16.8041C257.613 15.2222 256.091 14.4313 253.823 14.4313C251.554 14.4313 250.021 15.2222 249.234 16.8041C248.447 18.375 248.054 21.452 248.054 26.0133C248.054 30.5746 248.447 33.6515 249.234 35.2333C250.021 36.8152 251.554 37.6061 253.823 37.6061C256.091 37.6061 257.613 36.8152 258.411 35.2333C259.198 33.6515 259.591 30.5746 259.591 26.0133C259.591 21.452 259.198 18.375 258.411 16.8041ZM303.361 15.1247H290.787C289.14 15.1247 288.312 15.9048 288.312 17.4433V22.6763H301.455V29.6753H288.312V44.6051H278.628V15.3414C278.628 12.9037 279.384 10.9427 280.896 9.46919C282.408 7.99571 284.386 7.25898 286.82 7.25898C294.961 7.25898 300.626 7.47566 303.827 7.90904L303.361 15.1247ZM339.445 15.2331H329.202V44.6051H319.508V15.2331H309.316V7.42149H339.445V15.2331Z" fill="#273140"/>
<path d="M31.5375 60.3586L31.6928 61.6913C32.0968 61.2362 32.6146 60.857 33.2671 60.5645C33.9196 60.2719 34.5618 60.1203 35.1936 60.1203C37.1407 60.1203 38.1039 61.7238 38.1039 64.9091C38.1039 66.6101 37.845 67.8018 37.3168 68.4952C36.7886 69.1886 35.9496 69.5353 34.8207 69.5353C33.6711 69.5353 32.6768 69.2428 31.8586 68.6578C31.9 69.2753 31.9207 69.9037 31.9103 70.5213V72.8832H29.7975V60.3586H31.5375ZM31.9103 63.0672V67.3468C32.9978 67.596 33.7643 67.726 34.1993 67.726C34.8518 67.726 35.2971 67.5418 35.5457 67.1734C35.8046 66.7942 35.9289 66.0358 35.9289 64.8982C35.9289 63.7823 35.815 63.013 35.5871 62.5905C35.3593 62.168 34.9657 61.9513 34.4271 61.9513C34.0232 61.9513 33.6503 62.038 33.2775 62.2221C32.915 62.3955 32.4593 62.6772 31.9103 63.0672ZM47.3632 65.7758H43.8625C43.935 66.5559 44.1421 67.0759 44.4839 67.336C44.8257 67.596 45.385 67.726 46.1514 67.726C47.0214 67.726 48.0468 67.6502 49.2275 67.5093L49.4243 68.9286C48.6061 69.3403 47.4253 69.5353 45.8925 69.5353C44.3389 69.5353 43.2411 69.1778 42.5886 68.4627C41.9361 67.7368 41.615 66.5234 41.615 64.8224C41.615 63.0781 41.9257 61.8538 42.5678 61.1604C43.21 60.4561 44.2768 60.1094 45.7475 60.1094C47.1146 60.1094 48.0986 60.3695 48.7096 60.8787C49.3207 61.3987 49.6314 62.1788 49.6314 63.2081C49.6521 64.9199 48.8961 65.7758 47.3632 65.7758ZM43.8107 64.2157H46.7625C47.2803 64.2157 47.5289 63.869 47.5289 63.1756C47.5289 62.688 47.415 62.3521 47.1664 62.1571C46.9178 61.9621 46.4828 61.8646 45.8407 61.8646C45.0846 61.8646 44.5668 62.0271 44.2871 62.3413C44.0075 62.6663 43.8418 63.2947 43.8107 64.2157ZM65.3432 60.3586V69.3187H53.4325V60.3586H55.4728V67.6177H58.4453V60.3586H60.3303V67.6177H63.3028V60.3586H65.3432ZM74.9546 65.7758H71.4643C71.5368 66.5559 71.7439 67.0759 72.0857 67.336C72.4275 67.596 72.9868 67.726 73.7532 67.726C74.6232 67.726 75.6486 67.6502 76.8293 67.5093L77.0157 68.9286C76.2078 69.3403 75.0271 69.5353 73.4943 69.5353C71.9407 69.5353 70.8428 69.1778 70.1903 68.4627C69.5378 67.7368 69.2064 66.5234 69.2064 64.8224C69.2064 63.0781 69.5275 61.8538 70.1696 61.1604C70.8118 60.4561 71.8682 60.1094 73.3493 60.1094C74.7164 60.1094 75.7003 60.3695 76.3114 60.8787C76.9225 61.3987 77.2332 62.1788 77.2332 63.2081C77.2539 64.9199 76.4978 65.7758 74.9546 65.7758ZM71.4125 64.2157H74.3643C74.8821 64.2157 75.1307 63.869 75.1307 63.1756C75.1307 62.688 75.0064 62.3521 74.7682 62.1571C74.5196 61.9621 74.0743 61.8646 73.4425 61.8646C72.6864 61.8646 72.1686 62.0271 71.8889 62.3413C71.6093 62.6663 71.4436 63.2947 71.4125 64.2157ZM88.9471 60.3586V69.3187H86.8653V65.3858H83.1264V69.3187H81.0239V60.3586H83.1264V63.7606H86.8653V60.3586H88.9471ZM101.127 69.3187H99.2214V64.1398C99.2214 64.1073 99.2525 63.6631 99.3146 62.8072H99.2525C99.1386 63.1322 98.9314 63.5331 98.6311 64.0206L94.9439 69.3187H93.1936V60.3586H95.0786V65.5916C95.0786 66.025 95.0578 66.4475 95.0164 66.8484H95.0682C95.265 66.4042 95.4721 66.025 95.6896 65.7216L99.3768 60.3586H101.127V69.3187ZM107.114 65.4833V65.4074C106.43 65.2774 105.954 65.0066 105.664 64.6165C105.363 64.2157 105.218 63.6631 105.218 62.9589C105.218 61.9729 105.467 61.2687 105.964 60.8462C106.461 60.4236 107.362 60.2178 108.677 60.2178C110.5 60.2178 111.826 60.2611 112.665 60.3478V69.3187H110.583V66.155H108.667C108.004 66.155 107.611 66.415 107.507 66.9243L106.896 69.3187H104.711L105.467 66.5776C105.632 65.9708 106.181 65.6025 107.114 65.4833ZM110.583 64.6057V61.9296L108.719 61.9188C108.108 61.9188 107.725 62.0054 107.549 62.168C107.372 62.3413 107.279 62.6988 107.279 63.2297C107.279 63.7715 107.372 64.129 107.559 64.324C107.735 64.5082 108.118 64.6057 108.719 64.6057H110.583ZM131.712 67.6177V71.9297H130.324L130.169 69.3187H123.55L123.395 71.9297H122.007V67.6177H123.074C123.644 66.22 124.016 64.519 124.192 62.5363C124.296 61.0845 125.094 60.3586 126.585 60.3586H130.417V67.6177H131.712ZM128.418 67.6177V61.9838H127.041C126.45 61.9838 126.129 62.3088 126.077 62.9372C125.881 64.8982 125.508 66.4584 124.949 67.6177H128.418ZM142.918 60.3586V69.3187H140.785V62.0054H139.366C139.045 62.0054 138.806 62.0813 138.682 62.2221C138.547 62.3521 138.454 62.623 138.402 63.013C138.144 65.1366 137.895 66.5559 137.688 67.2926C137.294 68.8311 136.238 69.5462 134.529 69.4053L134.322 67.7477C134.788 67.661 135.119 67.5418 135.316 67.401C135.513 67.2493 135.679 67.0109 135.803 66.6642C136.051 65.8842 136.259 64.5299 136.435 62.6122C136.507 61.8538 136.725 61.2904 137.118 60.922C137.501 60.5428 138.071 60.3586 138.827 60.3586H142.918ZM148.874 65.4833V65.4074C148.2 65.2774 147.724 65.0066 147.424 64.6165C147.134 64.2157 146.989 63.6631 146.989 62.9589C146.989 61.9729 147.237 61.2687 147.734 60.8462C148.231 60.4236 149.132 60.2178 150.448 60.2178C152.271 60.2178 153.596 60.2611 154.435 60.3478V69.3187H152.354V66.155H150.437C149.764 66.155 149.381 66.415 149.277 66.9243L148.666 69.3187H146.481L147.237 66.5776C147.403 65.9708 147.952 65.6025 148.874 65.4833ZM152.354 64.6057V61.9296L150.489 61.9188C149.878 61.9188 149.495 62.0054 149.319 62.168C149.143 62.3413 149.05 62.6988 149.05 63.2297C149.05 63.7715 149.143 64.129 149.319 64.324C149.505 64.5082 149.889 64.6057 150.489 64.6057H152.354ZM172.674 60.3586L169.495 69.5895C169.049 70.933 168.417 71.8756 167.61 72.4281C166.802 73.0132 165.631 73.1865 164.099 72.959L164.285 71.4205C165.259 71.4747 165.963 71.3663 166.398 71.0847C166.843 70.7813 167.226 70.2504 167.537 69.5028L167.61 69.3187H167.185C166.802 69.3187 166.564 69.1345 166.47 68.7661L163.55 60.3586H165.828L167.692 66.5234C167.848 67.0868 167.941 67.4768 167.972 67.7043H168.2C168.314 67.3576 168.438 66.9568 168.552 66.5234L170.385 60.3586H172.674ZM183.073 60.3586V69.3187H181.001V65.83C179.935 66.1875 178.92 66.3717 177.936 66.3717C176.351 66.3717 175.564 65.7 175.564 64.3673V60.3586H177.656V63.6306C177.656 64.0098 177.729 64.2698 177.874 64.4215C178.029 64.5624 178.288 64.6382 178.661 64.6382C179.427 64.6382 180.204 64.4757 181.001 64.1615V60.3586H183.073ZM189.929 58.6576H189.235C188.883 58.6576 188.707 58.4843 188.707 58.1159V57.1083C188.707 56.7291 188.883 56.5449 189.235 56.5449H189.929C190.281 56.5449 190.457 56.7291 190.457 57.1083V58.1159C190.457 58.4843 190.281 58.6576 189.929 58.6576ZM193.057 58.6576H192.363C192.011 58.6576 191.835 58.4843 191.835 58.1159V57.1083C191.835 56.7291 192.011 56.5449 192.363 56.5449H193.057C193.409 56.5449 193.585 56.7291 193.585 57.1083V58.1159C193.585 58.4843 193.409 58.6576 193.057 58.6576ZM192.726 65.7758H189.235C189.308 66.5559 189.505 67.0759 189.857 67.336C190.199 67.596 190.758 67.726 191.524 67.726C192.394 67.726 193.42 67.6502 194.6 67.5093L194.787 68.9286C193.969 69.3403 192.798 69.5353 191.255 69.5353C189.712 69.5353 188.614 69.1778 187.961 68.4627C187.309 67.7368 186.977 66.5234 186.977 64.8224C186.977 63.0781 187.299 61.8538 187.941 61.1604C188.583 60.4561 189.639 60.1094 191.12 60.1094C192.487 60.1094 193.471 60.3695 194.082 60.8787C194.694 61.3987 194.994 62.1788 194.994 63.2081C195.025 64.9199 194.269 65.7758 192.726 65.7758ZM189.184 64.2157H192.135C192.643 64.2157 192.902 63.869 192.902 63.1756C192.902 62.688 192.777 62.3521 192.539 62.1571C192.291 61.9621 191.845 61.8646 191.203 61.8646C190.447 61.8646 189.929 62.0271 189.65 62.3413C189.37 62.6663 189.215 63.2947 189.184 64.2157ZM205.962 62.1138H203.021V69.3187H200.929V62.1138H197.977V60.3586H205.962V62.1138ZM209.535 62.1138L209.339 60.5428C210.84 60.2503 212.259 60.1094 213.606 60.1094C214.704 60.1094 215.522 60.337 216.05 60.8028C216.568 61.2687 216.837 62.0705 216.837 63.2297V69.3187H215.159L214.931 67.9427C214.03 68.9936 212.943 69.5137 211.659 69.5137C210.861 69.5137 210.209 69.2861 209.701 68.8311C209.204 68.3761 208.955 67.7368 208.955 66.9243V66.0142C208.955 65.2883 209.173 64.7357 209.618 64.3457C210.064 63.9556 210.685 63.7606 211.482 63.7606H214.704V63.2081C214.693 62.6988 214.579 62.363 214.372 62.1896C214.165 62.0163 213.751 61.9296 213.129 61.9296C212.249 61.9296 211.047 61.9946 209.535 62.1138ZM211.068 66.285V66.6317C211.068 67.0218 211.151 67.3035 211.327 67.466C211.503 67.6393 211.793 67.726 212.187 67.726C213.036 67.726 213.875 67.3685 214.704 66.6642V65.2774H211.98C211.638 65.2883 211.4 65.3858 211.265 65.5483C211.13 65.7216 211.068 65.9708 211.068 66.285ZM234.827 69.3187H232.922V64.1398C232.922 64.1073 232.953 63.6631 233.015 62.8072H232.963C232.839 63.1322 232.632 63.5331 232.331 64.0206L228.644 69.3187H226.894V60.3586H228.779V65.5916C228.779 66.025 228.758 66.4475 228.717 66.8484H228.769C228.965 66.4042 229.172 66.025 229.39 65.7216L233.077 60.3586H234.827V69.3187ZM252.735 60.3478V69.3187H250.674V62.038H247.039V69.3187H244.977V60.3478H252.735ZM258.752 60.3586L258.908 61.6913C259.312 61.2362 259.83 60.857 260.482 60.5645C261.135 60.2719 261.777 60.1203 262.409 60.1203C264.345 60.1203 265.319 61.7238 265.319 64.9091C265.319 66.6101 265.06 67.8018 264.532 68.4952C263.993 69.1886 263.165 69.5353 262.036 69.5353C260.886 69.5353 259.892 69.2428 259.063 68.6578C259.115 69.2753 259.136 69.9037 259.125 70.5213V72.8832H257.002V60.3586H258.752ZM259.125 63.0672V67.3468C260.213 67.596 260.979 67.726 261.404 67.726C262.056 67.726 262.512 67.5418 262.761 67.1734C263.009 66.7942 263.134 66.0358 263.134 64.8982C263.134 63.7823 263.03 63.013 262.802 62.5905C262.574 62.168 262.181 61.9513 261.632 61.9513C261.238 61.9513 260.855 62.038 260.492 62.2221C260.13 62.3955 259.664 62.6772 259.125 63.0672ZM269.783 61.182C270.425 60.467 271.512 60.1094 273.056 60.1094C274.589 60.1094 275.676 60.467 276.318 61.182C276.96 61.9079 277.281 63.1214 277.281 64.8441C277.281 66.5559 276.96 67.7693 276.329 68.4844C275.697 69.1995 274.599 69.557 273.056 69.557C271.512 69.557 270.425 69.1995 269.783 68.4844C269.141 67.7693 268.82 66.5559 268.82 64.8441C268.82 63.1214 269.141 61.9079 269.783 61.182ZM274.651 62.493C274.361 62.0813 273.832 61.8754 273.056 61.8754C272.269 61.8754 271.74 62.0813 271.461 62.493C271.181 62.8939 271.046 63.6848 271.046 64.8441C271.046 65.9817 271.181 66.7617 271.461 67.1734C271.74 67.5743 272.269 67.7802 273.056 67.7802C273.832 67.7802 274.361 67.5743 274.651 67.1734C274.941 66.7617 275.075 65.9817 275.075 64.8441C275.075 63.6848 274.941 62.8939 274.651 62.493ZM290.072 67.6177V71.9297H288.695L288.54 69.3187H281.921L281.756 71.9297H280.378V67.6177H281.445C282.015 66.22 282.387 64.519 282.564 62.5363C282.667 61.0845 283.465 60.3586 284.956 60.3586H288.778V67.6177H290.072ZM286.789 67.6177V61.9838H285.412C284.821 61.9838 284.5 62.3088 284.449 62.9372C284.252 64.8982 283.869 66.4584 283.309 67.6177H286.789ZM293.77 62.1138L293.573 60.5428C295.075 60.2503 296.504 60.1094 297.84 60.1094C298.949 60.1094 299.756 60.337 300.285 60.8028C300.813 61.2687 301.072 62.0705 301.072 63.2297V69.3187H299.394L299.166 67.9427C298.275 68.9936 297.177 69.5137 295.904 69.5137C295.096 69.5137 294.443 69.2861 293.946 68.8311C293.439 68.3761 293.19 67.7368 293.19 66.9243V66.0142C293.19 65.2883 293.418 64.7357 293.853 64.3457C294.298 63.9556 294.92 63.7606 295.727 63.7606H298.938V63.2081C298.928 62.6988 298.814 62.363 298.607 62.1896C298.4 62.0163 297.985 61.9296 297.364 61.9296C296.484 61.9296 295.282 61.9946 293.77 62.1138ZM295.303 66.285V66.6317C295.303 67.0218 295.396 67.3035 295.572 67.466C295.738 67.6393 296.028 67.726 296.421 67.726C297.271 67.726 298.11 67.3685 298.938 66.6642V65.2774H296.214C295.872 65.2883 295.645 65.3858 295.51 65.5483C295.375 65.7216 295.303 65.9708 295.303 66.285ZM314.339 64.6057V64.6599C314.66 64.7032 314.94 64.7682 315.168 64.8332C315.396 64.8982 315.613 65.0282 315.81 65.2124C316.007 65.4074 316.172 65.5808 316.297 65.7433C316.421 65.9058 316.576 66.1983 316.742 66.6209C316.908 67.0434 317.053 67.4226 317.167 67.7585C317.281 68.0944 317.457 68.6144 317.674 69.3187H315.53C314.94 67.6502 314.515 66.5884 314.256 66.1442C313.987 65.7 313.562 65.4724 312.993 65.4616H311.947C312.009 65.765 312.03 66.0358 312.03 66.2634V69.3187H310.186V66.2634C310.186 66.0358 310.207 65.765 310.269 65.4616H309.171C308.622 65.4724 308.208 65.7 307.949 66.1442C307.68 66.5884 307.245 67.6502 306.654 69.3187H304.5C304.738 68.5711 304.904 68.051 305.007 67.7477C305.111 67.4443 305.256 67.0651 305.432 66.6317C305.608 66.1875 305.753 65.895 305.867 65.7433C305.981 65.5916 306.147 65.4183 306.344 65.2233C306.551 65.0282 306.768 64.8982 306.996 64.8332C307.224 64.7682 307.493 64.7032 307.825 64.6599V64.6057C307.006 64.5082 306.437 64.2157 306.105 63.7281C305.774 63.2406 305.349 62.2221 304.852 60.6945C304.811 60.5428 304.769 60.4345 304.749 60.3586H306.841C307.338 61.7779 307.721 62.7097 308.011 63.1756C308.301 63.6414 308.726 63.869 309.275 63.869H310.269C310.207 63.5764 310.186 63.2297 310.186 62.8289V60.3586H312.03V62.8289C312.03 63.2297 312.009 63.5764 311.947 63.869H312.889C313.449 63.869 313.873 63.6414 314.153 63.1756C314.443 62.7097 314.826 61.7779 315.302 60.3586H317.415C316.877 61.9838 316.504 62.9914 316.276 63.3814C315.924 63.999 315.427 64.3782 314.754 64.5299C314.629 64.5624 314.495 64.5949 314.339 64.6057Z" fill="#273140"/>
</svg>
