<svg width="172" height="40" viewBox="0 0 172 40" fill="none" xmlns="http://www.w3.org/2000/svg">
<path d="M76.961 27.4823L82.6513 15.3527L87.0877 24.8168H93.109L85.0318 7.54436L85 7.53809H80.2963L68.6675 32.3304L95.8968 32.3241L98.1755 27.4823H76.961Z" fill="#231F20"/>
<path d="M61.6357 7.54395H55.4681L53.1767 12.4046H61.2602L61.2857 12.4171L51.9419 32.3363L57.9504 32.33L67.2942 12.4046H73.7483L76.046 7.54395H61.6357Z" fill="#231F20"/>
<path d="M31.3578 17.5098H50.9555L48.6705 22.3704H29.0791L31.3578 17.5098Z" fill="#231F20"/>
<path d="M35.869 7.54395H55.4667L53.1753 12.4046H33.5903L35.869 7.54395Z" fill="#231F20"/>
<path d="M18.5631 27.4882L27.9451 7.54395H5.9541L8.23276 12.3983H19.6579L10.295 32.3363L43.8639 32.3425L46.1553 27.4819L18.5631 27.4882Z" fill="#231F20"/>
<path d="M101.766 23.6758C100.712 23.4047 99.7179 22.9455 98.832 22.3211L100.105 19.4862C100.877 20.0402 101.738 20.4641 102.651 20.7406C103.591 21.0476 104.576 21.2043 105.566 21.2047C106.396 21.2594 107.226 21.0972 107.972 20.7343C108.203 20.6124 108.397 20.4319 108.534 20.2113C108.67 19.9908 108.744 19.7383 108.749 19.4799C108.752 19.2952 108.712 19.1123 108.633 18.9449C108.553 18.7776 108.436 18.6302 108.29 18.5141C107.941 18.2345 107.542 18.0218 107.113 17.8869C106.629 17.7364 105.986 17.5671 105.165 17.3789C104.121 17.1448 103.093 16.8495 102.085 16.4946C101.286 16.2053 100.576 15.7195 100.022 15.0834C99.4205 14.3496 99.1145 13.4229 99.163 12.4806C99.1548 11.5682 99.4253 10.6744 99.9395 9.91549C100.525 9.09815 101.339 8.4662 102.282 8.09667C103.495 7.61782 104.795 7.38941 106.101 7.42559C107.139 7.42224 108.174 7.54654 109.181 7.79563C110.113 8.01172 111.005 8.37156 111.823 8.86183L110.645 11.7155C109.259 10.9132 107.683 10.4809 106.075 10.4611C105.253 10.4031 104.431 10.5795 103.708 10.9691C103.473 11.1094 103.279 11.3074 103.145 11.5438C103.011 11.7802 102.942 12.0469 102.944 12.3176C102.941 12.5904 103.024 12.8573 103.181 13.0819C103.339 13.3064 103.562 13.4776 103.822 13.5719C104.693 13.9254 105.597 14.1923 106.521 14.3684C107.567 14.6027 108.598 14.8979 109.608 15.2528C110.401 15.5434 111.109 16.0215 111.67 16.6451C112.274 17.3657 112.58 18.2835 112.529 19.2165C112.535 20.1246 112.26 21.0129 111.74 21.7629C111.145 22.5813 110.323 23.2129 109.372 23.5817C108.159 24.0595 106.86 24.2879 105.553 24.2528C104.269 24.2407 102.994 24.0463 101.766 23.6758Z" fill="#231F20"/>
<path d="M118.506 23.1355C117.164 22.4273 116.041 21.3733 115.259 20.086C114.476 18.7987 114.063 17.3263 114.063 15.8257C114.063 14.3252 114.476 12.8528 115.259 11.5654C116.041 10.2781 117.164 9.22418 118.506 8.51598C119.938 7.7968 121.523 7.42188 123.13 7.42188C124.738 7.42188 126.322 7.7968 127.754 8.51598C129.085 9.21238 130.2 10.2504 130.982 11.5202C131.753 12.8266 132.159 14.3111 132.159 15.8226C132.159 17.3341 131.753 18.8186 130.982 20.125C130.201 21.3967 129.086 22.4368 127.754 23.1355C126.321 23.8488 124.737 24.2205 123.13 24.2205C121.524 24.2205 119.94 23.8488 118.506 23.1355ZM125.775 20.3571C126.553 19.9242 127.192 19.2855 127.621 18.5132C128.064 17.6836 128.296 16.7601 128.296 15.8226C128.296 14.8851 128.064 13.9616 127.621 13.132C127.192 12.3597 126.553 11.721 125.775 11.2881C124.966 10.8517 124.059 10.6229 123.137 10.6229C122.215 10.6229 121.307 10.8517 120.498 11.2881C119.721 11.721 119.081 12.3597 118.653 13.132C118.209 13.9616 117.978 14.8851 117.978 15.8226C117.978 16.7601 118.209 17.6836 118.653 18.5132C119.081 19.2855 119.721 19.9242 120.498 20.3571C121.307 20.7935 122.215 21.0223 123.137 21.0223C124.059 21.0223 124.966 20.7935 125.775 20.3571Z" fill="#231F20"/>
<path d="M138.371 10.6925V14.9824H146.009V18.0054H138.371V23.9197H134.552V7.67578H147.009V10.6925H138.371Z" fill="#231F20"/>
<path d="M153.609 10.7364H148.332V7.67578H162.704V10.7364H157.428V23.9071H153.609V10.7364Z" fill="#231F20"/>
<path d="M98.1688 27.4888L95.8965 32.318H112.153L114.374 27.4888H98.1688Z" fill="#00ABEA"/>
<path d="M114.376 27.4888L112.154 32.318H127.704L129.925 27.4888H114.376Z" fill="#008ECB"/>
<path d="M129.925 27.4888L127.703 32.318H143.253L145.474 27.4888H129.925Z" fill="#E26655"/>
<path d="M145.473 27.4888L143.252 32.318H158.802L161.023 27.4888H145.473Z" fill="#FCCB26"/>
</svg>
