<svg width="104" height="104" viewBox="0 0 104 104" fill="none" xmlns="http://www.w3.org/2000/svg">
<path fill-rule="evenodd" clip-rule="evenodd" d="M16.4212 37.5012C16.3293 37.3448 16.2691 37.1717 16.2442 36.992C16.2192 36.8123 16.2298 36.6294 16.2755 36.4538C16.3212 36.2782 16.4011 36.1133 16.5105 35.9686C16.62 35.8239 16.7569 35.7021 16.9134 35.6103L36.387 24.1799C36.9652 23.8406 37.6078 23.6253 38.2737 23.5478C38.9397 23.4703 39.6145 23.5322 40.2552 23.7296C40.896 23.927 41.4886 24.2556 41.9955 24.6944C42.5023 25.1333 42.9123 25.6729 43.1994 26.2788L44.2402 28.4758C44.3708 28.7515 44.5607 28.9949 44.7965 29.1886C45.0322 29.3823 45.3079 29.5214 45.6037 29.596C45.8995 29.6706 46.2082 29.6788 46.5076 29.6201C46.807 29.5614 47.0897 29.4372 47.3354 29.2564L67.3229 14.5475L63.988 14.1983C63.6236 14.1601 63.2893 13.9787 63.0587 13.694C62.828 13.4093 62.72 13.0447 62.7582 12.6803C62.7964 12.3159 62.9778 11.9816 63.2625 11.751C63.5472 11.5203 63.9118 11.4122 64.2762 11.4504L71.1863 12.1754C71.3783 12.1955 71.564 12.2556 71.7314 12.3518C71.8987 12.4481 72.044 12.5784 72.1579 12.7342C72.2718 12.8901 72.3518 13.0681 72.3926 13.2568C72.4335 13.4455 72.4343 13.6406 72.3951 13.8296L71.0685 20.2384C70.9943 20.5973 70.7805 20.9119 70.4742 21.1132C70.168 21.3144 69.7943 21.3857 69.4355 21.3115C69.0767 21.2372 68.762 21.0234 68.5608 20.7172C68.3596 20.4109 68.2882 20.0373 68.3625 19.6784L68.964 16.7725L48.9734 31.482C48.3994 31.9045 47.7391 32.1947 47.0398 32.3319C46.3405 32.4691 45.6195 32.4499 44.9284 32.2757C44.2374 32.1015 43.5935 31.7765 43.0428 31.3241C42.4921 30.8717 42.0484 30.3031 41.7434 29.659L40.7022 27.4624C40.5792 27.203 40.4036 26.9721 40.1866 26.7843C39.9696 26.5965 39.7159 26.4559 39.4416 26.3714C39.1673 26.2869 38.8784 26.2604 38.5934 26.2936C38.3083 26.3268 38.0332 26.4189 37.7857 26.5642L18.3121 37.994C18.1556 38.0859 17.9826 38.1461 17.8029 38.1711C17.6232 38.1961 17.4403 38.1855 17.2647 38.1398C17.0891 38.0941 16.9242 38.0142 16.7795 37.9048C16.6348 37.7954 16.513 37.6585 16.4212 37.502V37.5012ZM88.8426 81.3663C89.3497 81.9465 89.6894 82.6539 89.8251 83.4125C89.9608 84.1712 89.8874 84.9524 89.6128 85.6725C88.9712 87.3093 87.3941 88.446 85.3892 88.722V89.8855C85.3892 90.2519 85.2437 90.6032 84.9847 90.8622C84.7257 91.1213 84.3743 91.2668 84.008 91.2668C83.6417 91.2668 83.2903 91.1213 83.0313 90.8622C82.7723 90.6032 82.6267 90.2519 82.6267 89.8855V88.6394C80.2727 88.1472 78.4887 86.5577 77.9652 84.2809C77.8831 83.9238 77.9463 83.5486 78.1408 83.238C78.3352 82.9275 78.6451 82.7068 79.0023 82.6247C79.3594 82.5426 79.7346 82.6058 80.0452 82.8003C80.3558 82.9947 80.5764 83.3046 80.6585 83.6618C81.1039 85.6002 83.1516 86.2273 84.985 85.9892C85.984 85.8592 86.7725 85.3514 87.0413 84.6638C87.2405 84.156 87.1294 83.6266 86.7201 83.1349C86.0474 82.3266 85.3624 82.1914 84.1096 82.0033C83.3358 81.9106 82.5738 81.7368 81.8364 81.4847C81.822 81.4792 81.8077 81.4741 81.7935 81.4684C79.7674 80.647 78.5738 79.0513 78.6014 77.2008C78.6297 75.3146 79.9049 73.6301 81.8502 72.909C82.1042 72.8152 82.3636 72.7366 82.6269 72.6735V71.3918C82.6269 71.0255 82.7725 70.6742 83.0315 70.4151C83.2905 70.1561 83.6419 70.0106 84.0082 70.0106C84.3745 70.0106 84.7259 70.1561 84.9849 70.4151C85.2439 70.6742 85.3895 71.0255 85.3895 71.3918V72.6392C87.3078 73.0735 88.9311 74.4753 89.7363 76.6018C89.8006 76.7715 89.8308 76.9521 89.8253 77.1335C89.8197 77.3148 89.7785 77.4933 89.704 77.6588C89.6294 77.8242 89.523 77.9733 89.3909 78.0976C89.2587 78.2219 89.1034 78.319 88.9337 78.3833C88.764 78.4476 88.5833 78.4778 88.402 78.4722C88.2206 78.4667 88.0421 78.4255 87.8767 78.3509C87.7113 78.2764 87.5621 78.17 87.4378 78.0378C87.3135 77.9057 87.2164 77.7503 87.1522 77.5806C86.4189 75.6451 84.674 74.8092 82.8094 75.4998C81.9562 75.8165 81.3739 76.5169 81.3633 77.242C81.353 77.9233 81.8662 78.5114 82.8085 78.8985C83.3646 79.0791 83.9373 79.2038 84.518 79.2708C85.8308 79.4675 87.465 79.7126 88.8424 81.3665L88.8426 81.3663ZM93.8703 90.5947C95.8395 88.6255 97.1805 86.1166 97.7238 83.3852C98.2671 80.6539 97.9883 77.8228 96.9226 75.2499C95.8568 72.6771 94.0521 70.478 91.7366 68.9309C89.4211 67.3837 86.6988 66.5579 83.9139 66.5579C81.1291 66.5579 78.4068 67.3837 76.0913 68.9309C73.7758 70.478 71.9711 72.6771 70.9053 75.2499C69.8396 77.8228 69.5608 80.6539 70.1041 83.3852C70.6474 86.1166 71.9884 88.6255 73.9576 90.5947C76.6003 93.2312 80.1809 94.7119 83.9139 94.7119C87.647 94.7119 91.2276 93.2312 93.8703 90.5947ZM71.0866 30.8373V69.7292C71.3781 69.3868 71.6805 69.051 72.0037 68.728C74.8227 65.9052 78.5558 64.18 82.5325 63.8624V30.8373L76.8094 26.448L71.0866 30.8373ZM95.8244 68.7276C93.0053 65.9052 89.2723 64.1803 85.2958 63.8628V30.156C85.2959 29.9439 85.2472 29.7347 85.1534 29.5445C85.0596 29.3542 84.9232 29.1882 84.7549 29.0591L77.6504 23.6099C77.4091 23.4248 77.1135 23.3244 76.8094 23.3244C76.5054 23.3244 76.2098 23.4248 75.9685 23.6099L68.864 29.0587C68.6957 29.1878 68.5594 29.3539 68.4657 29.5441C68.3719 29.7343 68.3232 29.9435 68.3233 30.1556V74.2654C67.386 76.5735 66.9699 79.0601 67.1047 81.5475C67.2394 84.035 67.9216 86.4621 69.1027 88.6554H6.01348V7.90713C6.01348 7.5408 5.86795 7.18947 5.60892 6.93044C5.34988 6.6714 4.99856 6.52588 4.63223 6.52588C4.2659 6.52588 3.91457 6.6714 3.65554 6.93044C3.3965 7.18947 3.25098 7.5408 3.25098 7.90713V90.0369C3.25098 90.4032 3.3965 90.7545 3.65554 91.0136C3.91457 91.2726 4.2659 91.4181 4.63223 91.4181H70.9763C71.2999 91.8059 71.6401 92.1849 72.0041 92.5485C75.1689 95.6788 79.4441 97.4292 83.8954 97.417C88.3468 97.4048 92.6123 95.631 95.7599 92.4834C98.9074 89.3358 100.681 85.0702 100.693 80.6188C100.705 76.1675 98.9548 71.8923 95.8244 68.7276ZM31.5814 79.2564H20.1355V58.9289L25.8578 54.5389L31.5806 58.9283V79.2564H31.5814ZM26.6995 51.7021L33.8038 57.1513C33.9721 57.2804 34.1085 57.4464 34.2023 57.6366C34.2961 57.8269 34.3448 58.0361 34.3447 58.2482V80.6385C34.3447 81.0048 34.1992 81.3561 33.9402 81.6152C33.6812 81.8742 33.3298 82.0197 32.9635 82.0197H18.7539C18.3876 82.0197 18.0362 81.8742 17.7772 81.6152C17.5182 81.3561 17.3726 81.0048 17.3726 80.6385V58.2476C17.3726 58.0355 17.4214 57.8263 17.5151 57.6361C17.6089 57.4459 17.7451 57.2799 17.9134 57.1507L25.0179 51.7021C25.2591 51.5169 25.5548 51.4165 25.8589 51.4165C26.163 51.4165 26.4587 51.5169 26.6999 51.7021H26.6995ZM57.0578 79.2564H45.6111V45.8627L51.3339 41.4731L57.0578 45.8629V79.2566V79.2564ZM52.1749 38.6363L59.2794 44.0855C59.4476 44.2146 59.584 44.3806 59.6777 44.5709C59.7715 44.7611 59.8202 44.9703 59.8201 45.1824V80.6385C59.8201 81.0048 59.6745 81.3561 59.4155 81.6152C59.1565 81.8742 58.8052 82.0197 58.4388 82.0197H44.2294C43.8631 82.0197 43.5118 81.8742 43.2527 81.6152C42.9937 81.3561 42.8482 81.0048 42.8482 80.6385V45.1818C42.8482 44.9697 42.897 44.7605 42.9908 44.5703C43.0846 44.3801 43.2209 44.214 43.3891 44.0849L50.4938 38.6361C50.735 38.4512 51.0304 38.351 51.3344 38.351C51.6383 38.351 51.9337 38.4513 52.1749 38.6363Z" fill="#231F20"/>
<path fill-rule="evenodd" clip-rule="evenodd" d="M31.5816 79.2564V58.9289L25.8588 54.5396L20.1357 58.9289V79.2564H31.5816Z" fill="#00ABEA"/>
<path fill-rule="evenodd" clip-rule="evenodd" d="M71.0869 30.8371V69.729C71.3784 69.3866 71.6809 69.0508 72.004 68.7278C74.823 65.905 78.5561 64.1798 82.5328 63.8622V30.8371L76.8098 26.4478L71.0869 30.8371Z" fill="#00ABEA"/>
</svg>
