<svg width="104" height="104" viewBox="0 0 104 104" fill="none" xmlns="http://www.w3.org/2000/svg">
<path fill-rule="evenodd" clip-rule="evenodd" d="M37.3851 52C37.3851 54.8812 38.2394 57.6976 39.8401 60.0931C41.4407 62.4887 43.7158 64.3558 46.3776 65.4584C49.0394 66.5609 51.9684 66.8493 54.7941 66.2872C57.6199 65.7251 60.2155 64.3376 62.2527 62.3003C64.2899 60.263 65.6772 57.6673 66.2392 54.8416C66.8011 52.0158 66.5125 49.0868 65.4098 46.4251C64.3071 43.7633 62.4399 41.4883 60.0443 39.8878C57.6486 38.2873 54.8321 37.4331 51.951 37.4333C48.0893 37.4382 44.3871 38.9745 41.6565 41.7053C38.9259 44.436 37.3898 48.1383 37.3851 52ZM34.6226 52C34.6227 48.5725 35.6392 45.2219 37.5435 42.372C39.4479 39.5221 42.1545 37.301 45.3213 35.9894C48.488 34.6778 51.9725 34.3347 55.3342 35.0035C58.6959 35.6724 61.7838 37.323 64.2073 39.7468C66.6309 42.1705 68.2813 45.2586 68.9498 48.6203C69.6184 51.9821 69.275 55.4666 67.9632 58.6332C66.6513 61.7998 64.4299 64.5062 61.5799 66.4103C58.7299 68.3145 55.3792 69.3307 51.9516 69.3305C47.357 69.3252 42.952 67.4977 39.7032 64.2487C36.4544 60.9997 34.627 56.5947 34.622 52H34.6226ZM22.4489 55.6766V48.3235C22.4496 47.9531 22.5971 47.5981 22.859 47.3363C23.121 47.0745 23.4761 46.9272 23.8464 46.9268H29.487C29.787 46.9268 30.0789 46.8292 30.3185 46.6487C30.5582 46.4683 30.7326 46.2147 30.8155 45.9264C31.2726 44.3346 31.9088 42.7999 32.712 41.3516C32.8578 41.0892 32.9142 40.7865 32.8725 40.4892C32.8309 40.1919 32.6935 39.9163 32.4813 39.7041L28.4897 35.7135C28.2292 35.4507 28.0831 35.0957 28.0831 34.7258C28.0831 34.3558 28.2292 34.0008 28.4897 33.7381L33.6897 28.5381C33.9524 28.2783 34.307 28.1326 34.6766 28.1326C35.0461 28.1326 35.4007 28.2783 35.6634 28.5381L39.654 32.5291C39.8665 32.7413 40.1421 32.8786 40.4394 32.9203C40.7368 32.9621 41.0396 32.9059 41.3022 32.7604C42.7504 31.9568 44.2853 31.3201 45.8772 30.8629C46.1655 30.7802 46.4191 30.6059 46.5996 30.3664C46.7802 30.1268 46.8778 29.835 46.8778 29.535V23.8936C46.878 23.5234 47.0252 23.1685 47.2869 22.9066C47.5486 22.6448 47.9034 22.4974 48.2736 22.4969H55.6268C55.9972 22.497 56.3524 22.6441 56.6145 22.9059C56.8765 23.1677 57.0239 23.5228 57.0243 23.8932V29.5344C57.0243 29.8344 57.1219 30.1262 57.3025 30.3658C57.483 30.6054 57.7367 30.7796 58.0251 30.8622C59.6169 31.3199 61.1517 31.9565 62.6001 32.76C62.8622 32.9055 63.1646 32.9616 63.4614 32.9198C63.7583 32.8781 64.0335 32.7408 64.2454 32.5287L68.2378 28.5391C68.5001 28.2777 68.8554 28.1309 69.2258 28.1309C69.5962 28.1309 69.9514 28.2777 70.2138 28.5391L75.4138 33.7391C75.6754 34.0011 75.8224 34.3562 75.8224 34.7264C75.8224 35.0966 75.6754 35.4517 75.4138 35.7137L71.4228 39.7049C71.2104 39.9169 71.073 40.1925 71.0313 40.4897C70.9896 40.7869 71.046 41.0895 71.1918 41.3518C71.995 42.8003 72.6314 44.3351 73.0886 45.927C73.1715 46.2153 73.346 46.4688 73.5857 46.6493C73.8254 46.8297 74.1172 46.9272 74.4173 46.9272H80.0576C80.4279 46.9276 80.783 47.0749 81.0449 47.3366C81.3068 47.5984 81.4543 47.9534 81.4549 48.3237V55.6768C81.4543 56.0471 81.307 56.402 81.0451 56.6638C80.7833 56.9255 80.4283 57.0728 80.058 57.0733H74.4175C74.1175 57.0732 73.8256 57.1707 73.5859 57.3512C73.3463 57.5317 73.1719 57.7853 73.0892 58.0737C72.6317 59.6654 71.9954 61.2002 71.1924 62.6487C71.0466 62.9109 70.9902 63.2136 71.0319 63.5108C71.0736 63.8081 71.211 64.0836 71.4234 64.2956L75.4142 68.2866C75.6758 68.5486 75.8228 68.9037 75.8228 69.274C75.8228 69.6443 75.6758 69.9994 75.4142 70.2614L70.2142 75.4614C69.952 75.7229 69.5967 75.8697 69.2264 75.8697C68.8561 75.8697 68.5008 75.7229 68.2386 75.4614L64.2478 71.4708C64.036 71.2586 63.7607 71.1213 63.4639 71.0796C63.167 71.0379 62.8646 71.0941 62.6025 71.2396C61.1539 72.0426 59.6192 72.6792 58.0275 73.137C57.7392 73.2197 57.4856 73.394 57.305 73.6335C57.1245 73.8731 57.0269 74.1649 57.0269 74.4649V80.1062C57.0266 80.4766 56.8792 80.8317 56.6172 81.0934C56.3552 81.3552 56 81.5022 55.6296 81.5021H48.2765C47.9064 81.5016 47.5515 81.3543 47.2899 81.0925C47.0283 80.8307 46.8812 80.4758 46.881 80.1056V74.4657C46.881 74.1657 46.7834 73.8739 46.6029 73.6343C46.4224 73.3948 46.1688 73.2205 45.8804 73.1378C44.2887 72.6801 42.7539 72.0436 41.3054 71.2404C41.0429 71.0949 40.7402 71.0387 40.4429 71.0804C40.1456 71.122 39.87 71.2592 39.6575 71.4712L35.6665 75.4626C35.4038 75.7225 35.0492 75.8683 34.6797 75.8683C34.3102 75.8683 33.9556 75.7225 33.6929 75.4626L28.4929 70.2626C28.2313 70.0006 28.0844 69.6455 28.0844 69.2752C28.0844 68.905 28.2313 68.5498 28.4929 68.2878L32.4801 64.2962C32.6925 64.0841 32.8299 63.8086 32.8716 63.5113C32.9132 63.2141 32.8568 62.9114 32.7108 62.6491C31.9078 61.2004 31.2717 59.6654 30.8144 58.0735C30.7318 57.7851 30.5574 57.5314 30.3178 57.3509C30.0781 57.1704 29.7862 57.0728 29.4862 57.0729H23.8454C23.4751 57.0724 23.12 56.9251 22.8581 56.6633C22.5961 56.4015 22.4486 56.0466 22.4479 55.6762L22.4489 55.6766ZM19.6864 55.6766V48.3235C19.6879 47.2206 20.1268 46.1633 20.9068 45.3835C21.6868 44.6037 22.7441 44.1651 23.8471 44.1639H28.4683C28.838 43.0587 29.285 41.9809 29.8061 40.9385L26.5358 37.6682C25.7584 36.8868 25.3219 35.8294 25.3219 34.7271C25.3219 33.6248 25.7584 32.5674 26.5358 31.7861L31.7358 26.5861C32.5167 25.8078 33.5741 25.3709 34.6766 25.3709C35.779 25.3709 36.8365 25.8078 37.6173 26.5861L40.8896 29.8564C41.9316 29.3347 43.0093 28.8877 44.1147 28.5188V23.8932C44.1159 22.7906 44.5544 21.7336 45.3339 20.9538C46.1135 20.1741 47.1705 19.7353 48.273 19.7338H55.6262C56.7292 19.7348 57.7868 20.1734 58.5668 20.9533C59.3468 21.7332 59.7855 22.7908 59.7866 23.8938V28.5172C60.8917 28.8866 61.9694 29.3337 63.0114 29.8554L66.2817 26.585C67.0624 25.8058 68.1203 25.3682 69.2234 25.3682C70.3264 25.3682 71.3843 25.8058 72.165 26.585L77.365 31.785C78.1434 32.566 78.5804 33.6237 78.5804 34.7263C78.5804 35.8289 78.1434 36.8866 77.365 37.6675L74.0947 40.9379C74.6159 41.98 75.0623 43.0579 75.4304 44.1635H80.0552C81.1587 44.164 82.2169 44.6023 82.9975 45.3822C83.7781 46.1622 84.2174 47.22 84.2188 48.3235V55.6766C84.2173 56.7796 83.7785 57.8369 82.9985 58.6167C82.2184 59.3965 81.161 59.8352 80.058 59.8364H75.4339C75.0658 60.9421 74.6192 62.0201 74.0977 63.0622L77.368 66.3325C78.1464 67.1136 78.5834 68.1713 78.5834 69.2739C78.5834 70.3765 78.1464 71.4342 77.368 72.2152L72.1681 77.4152C71.3874 78.194 70.3298 78.6313 69.2272 78.6313C68.1246 78.6313 67.067 78.194 66.2864 77.4152L63.0142 74.1449C61.9719 74.6662 60.8941 75.1132 59.7888 75.4825V80.1062C59.7877 81.2093 59.3489 82.2668 58.5689 83.0467C57.7888 83.8266 56.7312 84.2651 55.6282 84.266H48.2751C47.1724 84.2647 46.1152 83.826 45.3356 83.0463C44.5559 82.2665 44.1173 81.2093 44.1161 80.1067V75.4829C43.0108 75.1136 41.9331 74.6666 40.8909 74.1453L37.6185 77.4156C36.8377 78.1939 35.7801 78.6309 34.6777 78.6309C33.5752 78.6309 32.5177 78.1939 31.7368 77.4156L26.5368 72.2157C25.7578 71.435 25.3203 70.3772 25.3203 69.2743C25.3203 68.1714 25.7578 67.1136 26.5368 66.333L29.8071 63.0626C29.2858 62.0202 28.8386 60.9424 28.469 59.837H23.8458C22.7428 59.8358 21.6853 59.3971 20.9053 58.6171C20.1253 57.8372 19.6865 56.7797 19.6852 55.6766H19.6864ZM100.606 67.0748C100.687 67.2371 100.735 67.4138 100.747 67.5947C100.76 67.7757 100.737 67.9574 100.68 68.1294C100.622 68.3015 100.531 68.4605 100.412 68.5974C100.293 68.7344 100.148 68.8465 99.986 68.9275L91.6504 73.0844C91.4584 73.1797 91.247 73.2293 91.0327 73.2294C90.7355 73.2293 90.4464 73.1333 90.2082 72.9557C89.97 72.7781 89.7955 72.5284 89.7105 72.2437L87.0994 63.5138C86.9943 63.1625 87.0331 62.7839 87.2072 62.4612C87.3813 62.1385 87.6765 61.8983 88.0277 61.7932C88.379 61.6882 88.7576 61.7269 89.0803 61.9011C89.403 62.0752 89.6433 62.3703 89.7483 62.7216L91.3012 67.9198C94.7665 59.3696 95.3479 49.9223 92.9571 41.0118C86.8973 18.4032 63.5742 4.93821 40.9654 10.9964C33.8811 12.8927 27.4089 16.5922 22.18 21.7344C21.919 21.9917 21.5666 22.1348 21.2001 22.1322C20.8337 22.1296 20.4832 21.9816 20.2259 21.7206C19.9686 21.4596 19.8256 21.1072 19.8281 20.7407C19.8307 20.3743 19.9788 20.0238 20.2398 19.7665C27.646 12.4796 37.3359 7.96582 47.6794 6.98444C58.0229 6.00305 68.3888 8.61399 77.0333 14.378C85.6778 20.142 92.0733 28.7074 95.1441 38.6332C98.2148 48.559 97.7733 59.2396 93.8939 68.8781L98.7531 66.4554C98.9153 66.3743 99.0919 66.3261 99.2728 66.3133C99.4537 66.3006 99.6353 66.3237 99.8073 66.3812C99.9792 66.4388 100.138 66.5297 100.275 66.6488C100.412 66.7679 100.524 66.9128 100.604 67.0752L100.606 67.0748ZM83.8301 82.121C83.9581 82.2496 84.0596 82.4021 84.1287 82.5699C84.1978 82.7376 84.2332 82.9174 84.2328 83.0988C84.2325 83.2803 84.1963 83.4599 84.1265 83.6273C84.0567 83.7948 83.9546 83.9469 83.826 84.0749C76.4307 91.4235 66.7232 95.9908 56.347 97.0035C45.9707 98.0162 35.5633 95.412 26.8867 89.6319C18.2102 83.8518 11.7976 75.2509 8.73471 65.2854C5.67182 55.3199 6.1468 44.6022 10.0792 34.9467L5.24791 37.3547C4.92031 37.5156 4.54235 37.5403 4.19662 37.4234C3.85088 37.3065 3.56546 37.0575 3.40272 36.7308C3.23999 36.4041 3.21316 36.0263 3.3281 35.6799C3.44304 35.3335 3.69041 35.0467 4.01616 34.8821L12.3504 30.726C12.5306 30.6361 12.7284 30.5867 12.9297 30.5813C13.1311 30.5759 13.3312 30.6146 13.516 30.6947C13.7009 30.7748 13.8659 30.8944 13.9997 31.045C14.1334 31.1956 14.2326 31.3737 14.2902 31.5667L16.9024 40.2966C16.9544 40.4704 16.9717 40.6528 16.9532 40.8333C16.9347 41.0138 16.8809 41.1889 16.7947 41.3485C16.7085 41.5082 16.5918 41.6494 16.451 41.7639C16.3103 41.8784 16.1484 41.9641 15.9745 42.016C15.8459 42.0544 15.7123 42.0741 15.578 42.0743C15.2806 42.0741 14.9911 41.9781 14.7525 41.8004C14.514 41.6227 14.339 41.3729 14.2537 41.088L12.6906 35.8589C8.96724 44.923 8.49386 54.9959 11.3508 64.3692C14.2077 73.7425 20.219 81.839 28.365 87.2853C36.511 92.7316 46.2902 95.1925 56.0438 94.2504C65.7974 93.3084 74.9249 89.0215 81.878 82.1168C82.0064 81.9888 82.1588 81.8873 82.3264 81.8183C82.494 81.7492 82.6736 81.7139 82.8549 81.7143C83.0362 81.7147 83.2157 81.7508 83.383 81.8206C83.5503 81.8904 83.7022 81.9925 83.8301 82.121Z" fill="#231F20"/>
<path fill-rule="evenodd" clip-rule="evenodd" d="M81.4554 55.6767V48.3236C81.4548 47.9533 81.3074 47.5983 81.0454 47.3366C80.7835 47.0748 80.4285 46.9275 80.0582 46.9271H74.4178C74.1178 46.9272 73.8259 46.8296 73.5862 46.6492C73.3465 46.4688 73.1721 46.2152 73.0891 45.9269C72.6319 44.3351 71.9956 42.8002 71.1924 41.3517C71.0465 41.0895 70.9902 40.7868 71.0318 40.4896C71.0735 40.1924 71.2109 39.9169 71.4233 39.7048L75.4143 35.7136C75.6759 35.4516 75.8229 35.0965 75.8229 34.7263C75.8229 34.3561 75.6759 34.001 75.4143 33.739L70.2143 28.539C69.952 28.2776 69.5967 28.1308 69.2263 28.1308C68.8559 28.1308 68.5007 28.2776 68.2383 28.539L64.2477 32.5298C64.0358 32.7419 63.7607 32.8792 63.4638 32.921C63.1669 32.9627 62.8645 32.9066 62.6024 32.7612C61.1541 31.9577 59.6192 31.321 58.0274 30.8634C57.739 30.7808 57.4854 30.6065 57.3048 30.3669C57.1243 30.1274 57.0266 29.8355 57.0266 29.5356V23.8934C57.0262 23.5229 56.8788 23.1678 56.6168 22.906C56.3548 22.6442 55.9995 22.4971 55.6291 22.4971H48.276C47.9058 22.4976 47.5509 22.6449 47.2892 22.9067C47.0275 23.1686 46.8804 23.5236 46.8801 23.8938V29.5345C46.8801 29.8345 46.7825 30.1263 46.602 30.3659C46.4215 30.6054 46.1679 30.7797 45.8795 30.8624C44.2876 31.3197 42.7528 31.9563 41.3045 32.76C41.0419 32.9055 40.7391 32.9616 40.4418 32.9198C40.1445 32.8781 39.8688 32.7408 39.6564 32.5286L35.6658 28.5376C35.403 28.2778 35.0484 28.1321 34.6789 28.1321C34.3094 28.1321 33.9548 28.2778 33.692 28.5376L28.492 33.7376C28.2316 34.0003 28.0854 34.3553 28.0854 34.7253C28.0854 35.0953 28.2316 35.4502 28.492 35.713L32.48 39.704C32.6922 39.9162 32.8296 40.1919 32.8712 40.4891C32.9128 40.7864 32.8565 41.0891 32.7107 41.3515C31.9075 42.7999 31.2713 44.3348 30.8144 45.9267C30.7315 46.215 30.557 46.4686 30.3174 46.649C30.0778 46.8295 29.7859 46.9271 29.4859 46.9271H23.8457C23.4754 46.9275 23.1203 47.0748 22.8583 47.3366C22.5964 47.5984 22.4489 47.9534 22.4482 48.3238V55.6769C22.4489 56.0473 22.5964 56.4023 22.8584 56.6641C23.1203 56.9259 23.4754 57.0731 23.8457 57.0736H29.4865C29.7864 57.0736 30.0782 57.1711 30.3177 57.3515C30.5572 57.5319 30.7316 57.7854 30.8144 58.0736C31.2717 59.6653 31.9079 61.2001 32.7109 62.6486C32.8569 62.9109 32.9133 63.2136 32.8717 63.5108C32.83 63.8081 32.6926 64.0837 32.4802 64.2957L28.4894 68.2865C28.2278 68.5485 28.0809 68.9037 28.0809 69.2739C28.0809 69.6442 28.2278 69.9993 28.4894 70.2613L33.6894 75.4613C33.9521 75.7212 34.3067 75.867 34.6762 75.867C35.0457 75.867 35.4003 75.7212 35.6629 75.4613L39.6539 71.4699C39.8664 71.2579 40.1421 71.1207 40.4394 71.0791C40.7366 71.0374 41.0394 71.0936 41.3019 71.2391C42.7504 72.0423 44.2852 72.6788 45.8769 73.1365C46.1652 73.2192 46.4188 73.3935 46.5993 73.633C46.7799 73.8726 46.8775 74.1644 46.8775 74.4644V80.1056C46.8777 80.4757 47.0248 80.8306 47.2864 81.0924C47.548 81.3542 47.9028 81.5016 48.2729 81.502H55.6261C55.9964 81.5021 56.3517 81.3551 56.6137 81.0933C56.8757 80.8316 57.023 80.4765 57.0234 80.1062V74.4658C57.0234 74.1658 57.121 73.874 57.3015 73.6345C57.482 73.3949 57.7356 73.2206 58.024 73.138C59.6156 72.6801 61.1504 72.0436 62.5989 71.2406C62.861 71.095 63.1634 71.0388 63.4603 71.0806C63.7572 71.1223 64.0324 71.2596 64.2443 71.4717L68.2351 75.4623C68.4973 75.7238 68.8525 75.8707 69.2229 75.8707C69.5932 75.8707 69.9484 75.7238 70.2106 75.4623L75.4106 70.2623C75.6723 70.0003 75.8193 69.6452 75.8193 69.2749C75.8193 68.9047 75.6723 68.5495 75.4106 68.2875L71.4199 64.2965C71.2075 64.0845 71.07 63.809 71.0283 63.5118C70.9866 63.2146 71.043 62.9119 71.1889 62.6496C71.9918 61.2011 72.6281 59.6663 73.0857 58.0746C73.1684 57.7862 73.3428 57.5326 73.5824 57.3522C73.822 57.1717 74.1139 57.0741 74.4139 57.0742H80.0551C80.4254 57.0737 80.7803 56.9265 81.0422 56.6647C81.304 56.4029 81.4514 56.048 81.452 55.6777L81.4554 55.6767ZM69.2818 52.0002C69.2818 55.4277 68.2654 58.7782 66.3612 61.6281C64.457 64.478 61.7504 66.6992 58.5838 68.0109C55.4172 69.3226 51.9328 69.6659 48.5711 68.9972C45.2095 68.3286 42.1215 66.6782 39.6979 64.2546C37.2742 61.8311 35.6236 58.7432 34.9548 55.3816C34.286 52.0199 34.6291 48.5355 35.9407 45.3688C37.2522 42.2022 39.4733 39.4955 42.3231 37.5912C45.1729 35.6868 48.5234 34.6703 51.9509 34.6701C56.5457 34.6751 60.9508 36.5026 64.1999 39.7515C67.4489 43.0004 69.2765 47.4054 69.2818 52.0002Z" fill="#00ABEA"/>
</svg>
