<svg width="104" height="104" viewBox="0 0 104 104" fill="none" xmlns="http://www.w3.org/2000/svg">
<path fill-rule="evenodd" clip-rule="evenodd" d="M83.8945 88.0492C83.8942 88.4154 83.7485 88.7666 83.4896 89.0255C83.2306 89.2845 82.8795 89.4301 82.5132 89.4305H41.5551C41.3737 89.4305 41.1941 89.3947 41.0265 89.3253C40.859 89.2559 40.7067 89.1542 40.5784 89.0259C40.4502 88.8976 40.3484 88.7454 40.279 88.5778C40.2096 88.4102 40.1739 88.2306 40.1739 88.0492C40.1739 87.8678 40.2096 87.6882 40.279 87.5206C40.3484 87.353 40.4502 87.2008 40.5784 87.0725C40.7067 86.9443 40.859 86.8425 41.0265 86.7731C41.1941 86.7037 41.3737 86.668 41.5551 86.668H82.5132C82.8794 86.6684 83.2305 86.814 83.4895 87.073C83.7484 87.3319 83.8941 87.683 83.8945 88.0492ZM83.8945 80.6609C83.8941 81.0272 83.7485 81.3783 83.4895 81.6372C83.2306 81.8962 82.8795 82.0418 82.5132 82.0422H41.5551C41.1888 82.0422 40.8375 81.8967 40.5784 81.6376C40.3194 81.3786 40.1739 81.0273 40.1739 80.6609C40.1739 80.2946 40.3194 79.9433 40.5784 79.6842C40.8375 79.4252 41.1888 79.2797 41.5551 79.2797H82.5132C82.8795 79.2801 83.2306 79.4257 83.4895 79.6847C83.7485 79.9436 83.8941 80.2947 83.8945 80.6609ZM83.8945 73.0789C83.8942 73.4451 83.7485 73.7963 83.4896 74.0552C83.2306 74.3142 82.8795 74.4598 82.5132 74.4601H41.5551C41.1888 74.4601 40.8375 74.3146 40.5784 74.0556C40.3194 73.7965 40.1739 73.4452 40.1739 73.0789C40.1739 72.7126 40.3194 72.3612 40.5784 72.1022C40.8375 71.8432 41.1888 71.6976 41.5551 71.6976H82.5132C82.8795 71.698 83.2306 71.8436 83.4896 72.1026C83.7485 72.3615 83.8942 72.7127 83.8945 73.0789ZM83.8945 66.4588C83.8941 66.8251 83.7485 67.1762 83.4895 67.4351C83.2306 67.6941 82.8795 67.8397 82.5132 67.8401H41.5551C41.1888 67.8401 40.8375 67.6946 40.5784 67.4355C40.3194 67.1765 40.1739 66.8252 40.1739 66.4588C40.1739 66.0925 40.3194 65.7412 40.5784 65.4821C40.8375 65.2231 41.1888 65.0776 41.5551 65.0776H82.5135C82.8796 65.078 83.2307 65.2237 83.4897 65.4826C83.7486 65.7416 83.8943 66.0926 83.8947 66.4588H83.8945ZM83.8945 59.9737C83.8942 60.3399 83.7485 60.691 83.4896 60.95C83.2306 61.209 82.8795 61.3546 82.5132 61.3549H41.5551C41.1888 61.3549 40.8375 61.2094 40.5784 60.9504C40.3194 60.6913 40.1739 60.34 40.1739 59.9737C40.1739 59.6073 40.3194 59.256 40.5784 58.997C40.8375 58.7379 41.1888 58.5924 41.5551 58.5924H82.5135C82.8796 58.5929 83.2307 58.7386 83.4896 58.9975C83.7485 59.2564 83.8942 59.6075 83.8947 59.9737H83.8945ZM41.5551 51.6342H62.0342C62.4005 51.6342 62.7518 51.7797 63.0109 52.0387C63.2699 52.2978 63.4154 52.6491 63.4154 53.0154C63.4154 53.3818 63.2699 53.7331 63.0109 53.9921C62.7518 54.2511 62.4005 54.3967 62.0342 54.3967H41.5551C41.1888 54.3967 40.8375 54.2511 40.5784 53.9921C40.3194 53.7331 40.1739 53.3818 40.1739 53.0154C40.1739 52.6491 40.3194 52.2978 40.5784 52.0387C40.8375 51.7797 41.1888 51.6342 41.5551 51.6342ZM41.9148 33.2613H54.4395V45.7866H41.9148V33.2605V33.2613ZM55.8206 48.5497C56.1869 48.5497 56.5382 48.4042 56.7973 48.1452C57.0563 47.8861 57.2018 47.5348 57.2018 47.1685V31.8799C57.2018 31.5135 57.0563 31.1622 56.7973 30.9032C56.5382 30.6441 56.1869 30.4986 55.8206 30.4986H40.533C40.1667 30.4986 39.8153 30.6441 39.5563 30.9032C39.2973 31.1622 39.1517 31.5135 39.1517 31.8799V47.1679C39.1517 47.5342 39.2973 47.8855 39.5563 48.1446C39.8153 48.4036 40.1667 48.5491 40.533 48.5491L55.8206 48.5497ZM87.1823 97.9873C88.8383 97.9873 90.1869 96.4482 90.1869 94.5563V45.6645H70.0231C69.6574 45.6645 69.3066 45.5195 69.0477 45.2613C68.7888 45.003 68.6428 44.6526 68.6418 44.2869L68.5726 21.9416H35.8627C34.2046 21.9416 32.8591 23.4802 32.8591 25.3721V94.5565C32.8591 96.4482 34.2059 97.9871 35.8631 97.9871L87.1823 97.9873ZM27.6528 91.091H30.096V25.3725C30.096 21.9572 32.6838 19.1785 35.8634 19.1785H64.8958L61.1301 15.0459H27.6522C25.9964 15.0459 24.649 16.5845 24.649 18.4765V87.6608C24.649 89.5523 25.9972 91.0914 27.6536 91.0914L27.6528 91.091ZM16.8173 82.058H21.8851V18.4769C21.8851 15.0617 24.4733 12.2828 27.6539 12.2828H56.0855L50.299 6.0123H16.8167C15.1609 6.0123 13.8135 7.55097 13.8135 9.44288V78.6272C13.8135 80.5187 15.1615 82.0578 16.8179 82.0578L16.8173 82.058ZM88.4404 42.9014H71.4017L71.342 24.1392L88.4404 42.9014ZM92.5891 43.3522L70.9717 19.6296C70.8423 19.4876 70.6847 19.3741 70.5089 19.2965C70.3331 19.2188 70.1431 19.1787 69.951 19.1787H68.6349L62.7626 12.7339C62.6327 12.5919 62.4747 12.4785 62.2986 12.4008C62.1224 12.3232 61.9321 12.2831 61.7397 12.283H59.8449L51.9186 3.69444C51.7892 3.55415 51.6322 3.44222 51.4573 3.36572C51.2825 3.28922 51.0938 3.24982 50.9029 3.25H16.8173C13.6378 3.2498 11.0498 6.02855 11.0498 9.44389V78.627C11.0498 82.0426 13.6374 84.8211 16.8169 84.8211H21.8853V87.66C21.8853 91.0752 24.4729 93.8553 27.6524 93.8553H30.0962V94.5569C30.0962 97.9725 32.6814 100.751 35.8631 100.751H87.1823C90.3628 100.751 92.9496 97.9725 92.9496 94.5573V44.2839C92.9498 43.9392 92.821 43.6068 92.5886 43.3522H92.5891Z" fill="#231F20"/>
<path d="M41.915 33.2607H54.4397V45.786H41.915V33.2607Z" fill="#00ABEA"/>
<path fill-rule="evenodd" clip-rule="evenodd" d="M71.3418 24.1396L71.4015 42.9019H88.4398L71.3418 24.1396Z" fill="#00ABEA"/>
<path fill-rule="evenodd" clip-rule="evenodd" d="M21.8851 82.0584V18.4773C21.8851 15.0621 24.4733 12.2832 27.6538 12.2832H56.0854L50.299 6.0127H16.8167C15.1608 6.0127 13.8135 7.55137 13.8135 9.44327V78.6276C13.8135 80.5191 15.1614 82.0582 16.8179 82.0582L21.8851 82.0584Z" fill="#00ABEA"/>
<path fill-rule="evenodd" clip-rule="evenodd" d="M24.6494 18.4774V87.6617C24.6494 89.5532 25.9976 91.0923 27.654 91.0923H30.0972V25.3739C30.0972 21.9585 32.685 19.1798 35.8646 19.1798H64.8962L61.1305 15.0464H27.6526C25.9967 15.0468 24.6494 16.5855 24.6494 18.4774Z" fill="#00ABEA"/>
</svg>
