<svg width="104" height="104" viewBox="0 0 104 104" fill="none" xmlns="http://www.w3.org/2000/svg">
<path fill-rule="evenodd" clip-rule="evenodd" d="M94.8878 89.3304C92.6864 89.6726 90.4623 89.8474 88.2345 89.8534C87.9109 89.8534 87.5891 89.8475 87.2674 89.8396L88.3805 85.6831C88.4755 85.3292 88.426 84.9521 88.243 84.6347C88.06 84.3173 87.7583 84.0856 87.4045 83.9906C87.0506 83.8956 86.6735 83.9451 86.3561 84.1281C86.0387 84.3111 85.8071 84.6128 85.7121 84.9666L84.4549 89.6639C80.222 89.2638 76.1115 88.0232 72.3641 86.0146L74.4642 81.0094C74.5343 80.842 74.5708 80.6626 74.5715 80.4812C74.5723 80.2998 74.5373 80.12 74.4686 79.9521C74.3999 79.7842 74.2988 79.6315 74.171 79.5027C74.0433 79.3739 73.8914 79.2716 73.7241 79.2014C73.5568 79.1313 73.3773 79.0948 73.1959 79.0941C73.0145 79.0933 72.8348 79.1283 72.6669 79.197C72.499 79.2658 72.3463 79.3669 72.2175 79.4946C72.0887 79.6224 71.9863 79.7742 71.9162 79.9415L69.9701 84.5811C68.3856 83.5336 66.8922 82.3545 65.5056 81.0563C65.3062 80.8764 65.1737 80.6342 65.1296 80.3693C65.0855 80.1044 65.1325 79.8324 65.2628 79.5976C67.9431 74.549 69.98 70.195 71.3517 66.5871C85.647 70.7918 94.2008 73.3134 97.124 74.174C96.3763 78.7955 95.9739 83.4663 95.9201 88.1476C95.9193 88.4359 95.8144 88.7143 95.6247 88.9314C95.4351 89.1486 95.1734 89.2901 94.8878 89.3298V89.3304ZM76.0116 92.1646C76.8134 92.1621 77.5852 91.8593 78.1747 91.3159C72.7766 89.8317 67.9116 87.0822 63.6208 83.0759C62.9744 82.4833 62.5447 81.6917 62.3998 80.8268C62.255 79.9619 62.4033 79.0734 62.8213 78.3025C66.6425 71.1025 69.1096 65.4041 70.1555 61.3619C70.3894 60.4417 70.9463 59.6363 71.7246 59.0925C72.5029 58.5488 73.4507 58.3029 74.3951 58.3997C76.0688 58.5642 77.6753 58.7637 79.2149 58.9981V42.4337H57.9893C57.623 42.4337 57.2717 42.2882 57.0127 42.0291C56.7536 41.7701 56.6081 41.4188 56.6081 41.0524V19.8261H22.3423C21.4928 19.8269 20.6783 20.1648 20.0775 20.7655C19.4767 21.3661 19.1388 22.1806 19.1378 23.0302V88.9613C19.1389 89.8107 19.4769 90.625 20.0776 91.2255C20.6783 91.826 21.4927 92.1638 22.3421 92.1646H76.0116ZM9.21761 84.1749C8.36794 84.1737 7.5534 83.8357 6.95257 83.2349C6.35175 82.6341 6.01368 81.8196 6.0125 80.9699V15.039C6.01352 14.1894 6.35157 13.3749 6.95246 12.7742C7.55335 12.1736 8.36799 11.8358 9.21761 11.8351H44.2928L49.5219 17.0624H22.3438C20.7616 17.0641 19.2447 17.6934 18.126 18.8122C17.0072 19.9309 16.3779 21.4478 16.3761 23.03V84.1749H9.21761ZM90.5062 36.15C90.6006 35.7978 90.7635 35.4676 90.9855 35.1783C91.2075 34.889 91.4843 34.6462 91.8001 34.4639C92.116 34.2816 92.4646 34.1633 92.8261 34.1157C93.1877 34.0681 93.5551 34.0922 93.9073 34.1866C94.2596 34.281 94.5898 34.4439 94.8791 34.6659C95.1684 34.8879 95.4111 35.1647 95.5934 35.4805C95.7757 35.7964 95.8941 36.145 95.9417 36.5065C95.9892 36.8681 95.9651 37.2355 95.8707 37.5877L89.4936 61.3871C87.7354 60.8038 85.9481 60.3119 84.139 59.9132L90.5062 36.15ZM59.371 21.7801L77.2608 39.6702H59.371V21.7801ZM97.953 69.9094C98.0073 69.6931 97.9987 69.4657 97.928 69.2541C97.8574 69.0426 97.7277 68.8556 97.5542 68.7154C92.8982 64.7661 85.0153 62.2219 74.1246 61.1502C74.0813 61.1464 74.0399 61.1443 73.9984 61.1443C73.7293 61.1421 73.4674 61.231 73.2552 61.3965C73.043 61.5621 72.8931 61.7946 72.8299 62.0562C72.6741 62.6621 72.4845 63.3036 72.2694 63.9765C86.0576 68.0345 94.4773 70.5133 97.6272 71.4409C97.7318 70.9278 97.8384 70.4148 97.9522 69.9094H97.953ZM99.3405 66.6094C97.4003 64.9636 94.985 63.5452 92.0948 62.3544L98.5392 38.3027C98.7275 37.6001 98.7755 36.8672 98.6806 36.146C98.5856 35.4247 98.3495 34.7293 97.9858 34.0993C97.6221 33.4693 97.1378 32.9171 96.5607 32.4742C95.9836 32.0314 95.3249 31.7065 94.6222 31.5182C93.9196 31.33 93.1867 31.2819 92.4655 31.3769C91.7442 31.4718 91.0488 31.7079 90.4188 32.0716C89.1464 32.8062 88.218 34.0161 87.8378 35.4352L81.978 57.3002V41.0514C81.9778 40.685 81.8323 40.3336 81.5734 40.0744L58.9672 17.4686C58.7079 17.2098 58.3565 17.0644 57.9902 17.0644H53.4286L45.8421 9.47766C45.5828 9.2188 45.2314 9.07336 44.865 9.07324H9.21761C7.63571 9.07496 6.11907 9.70402 5.00035 10.8224C3.88162 11.9409 3.25215 13.4573 3.25 15.0392V80.9697C3.25177 82.552 3.88104 84.069 4.99977 85.1879C6.1185 86.3068 7.63535 86.9363 9.21761 86.9384H16.3743V88.9615C16.3762 90.5435 17.0056 92.0601 18.1243 93.1786C19.243 94.2971 20.7598 94.9262 22.3417 94.9279H76.0116C77.0471 94.9226 78.0637 94.6499 78.9628 94.136C79.8618 93.6222 80.6128 92.8847 81.143 91.9952C83.4686 92.4173 85.8278 92.6267 88.1914 92.6208C90.5725 92.6145 92.9497 92.4277 95.3026 92.0622C96.2343 91.9239 97.0861 91.4581 97.7054 90.7484C98.3246 90.0387 98.6707 89.1316 98.6816 88.1898C98.7783 81.8403 99.4394 75.8939 100.649 70.5157C100.816 69.8074 100.781 69.0667 100.55 68.3767C100.319 67.6868 99.9004 67.0749 99.3409 66.6096L99.3405 66.6094ZM57.3166 62.8467C56.7597 62.8466 56.2153 62.6813 55.7524 62.3718C55.2894 62.0622 54.9286 61.6224 54.7156 61.1078C54.5026 60.5933 54.4469 60.0271 54.5557 59.4809C54.6644 58.9348 54.9327 58.4331 55.3265 58.0394C55.7204 57.6456 56.2221 57.3775 56.7683 57.2689C57.3146 57.1603 57.8807 57.2162 58.3952 57.4293C58.9097 57.6425 59.3494 58.0034 59.6588 58.4664C59.9682 58.9295 60.1333 59.4739 60.1333 60.0308C60.1326 60.7775 59.8355 61.4935 59.3074 62.0214C58.7793 62.5494 58.0633 62.8462 57.3166 62.8467ZM42.4848 58.365C41.928 58.365 41.3836 58.1998 40.9206 57.8905C40.4576 57.5811 40.0967 57.1414 39.8836 56.6269C39.6705 56.1124 39.6148 55.5463 39.7234 55.0002C39.832 54.454 40.1002 53.9523 40.4939 53.5586C40.8877 53.1648 41.3894 52.8967 41.9355 52.788C42.4817 52.6794 43.0478 52.7352 43.5623 52.9483C44.0767 53.1614 44.5165 53.5222 44.8258 53.9852C45.1352 54.4482 45.3003 54.9926 45.3003 55.5495C45.2995 56.2959 45.0026 57.0116 44.4748 57.5394C43.947 58.0673 43.2313 58.3642 42.4848 58.365ZM27.0847 68.9681C26.5278 68.9681 25.9834 68.803 25.5203 68.4936C25.0573 68.1842 24.6963 67.7445 24.4832 67.2299C24.2701 66.7154 24.2144 66.1493 24.3231 65.6031C24.4318 65.0569 24.7001 64.5552 25.0939 64.1614C25.4878 63.7677 25.9895 63.4996 26.5358 63.3911C27.082 63.2825 27.6481 63.3384 28.1626 63.5517C28.6771 63.7649 29.1167 64.1259 29.426 64.5891C29.7352 65.0522 29.9002 65.5967 29.9 66.1536C29.8993 66.9002 29.6025 67.616 29.0746 68.144C28.5468 68.672 27.8311 68.969 27.0845 68.9699L27.0847 68.9681ZM70.6956 49.2932C71.2526 49.293 71.7971 49.4579 72.2603 49.7671C72.7235 50.0764 73.0846 50.516 73.2979 51.0305C73.5112 51.545 73.5671 52.1112 73.4586 52.6574C73.3501 53.2037 73.0821 53.7055 72.6884 54.0994C72.2946 54.4934 71.793 54.7617 71.2467 54.8704C70.7005 54.9792 70.1343 54.9235 69.6197 54.7105C69.1052 54.4974 68.6653 54.1366 68.3558 53.6735C68.0464 53.2105 67.8812 52.6661 67.8811 52.1091C67.882 51.3628 68.1787 50.6473 68.7063 50.1194C69.2339 49.5916 69.9493 49.2944 70.6956 49.2932ZM62.7752 58.8791L66.9102 56.2013C67.9075 57.1211 69.2062 57.6454 70.5626 57.6757C71.919 57.7059 73.2398 57.2401 74.2771 56.3657C75.3144 55.4912 75.9969 54.2682 76.1965 52.9262C76.3961 51.5843 76.0991 50.2156 75.3611 49.0771C74.6232 47.9386 73.4951 47.1085 72.1887 46.7427C70.8822 46.3769 69.4871 46.5006 68.2653 47.0904C67.0434 47.6802 66.0789 48.6956 65.5526 49.9461C65.0264 51.1967 64.9746 52.5962 65.4071 53.8822L61.5367 56.3888C60.9099 55.6604 60.1054 55.1066 59.2013 54.7809C58.2973 54.4552 57.3244 54.3689 56.3771 54.5302C55.4298 54.6915 54.5403 55.095 53.795 55.7016C53.0497 56.3081 52.4739 57.0971 52.1235 57.9918L48.0448 55.9606C48.0547 55.8243 48.0616 55.6874 48.0616 55.5482C48.0623 54.7262 47.8812 53.9141 47.5315 53.1701C47.1817 52.4262 46.6719 51.7687 46.0384 51.2448C45.4049 50.7208 44.6634 50.3433 43.8671 50.1394C43.0707 49.9354 42.2391 49.9099 41.4317 50.0648C40.6244 50.2197 39.8612 50.5511 39.1969 51.0353C38.5325 51.5195 37.9834 52.1445 37.5888 52.8657C37.1941 53.5869 36.9638 54.3863 36.9141 55.2069C36.8645 56.0275 36.9968 56.8489 37.3017 57.6124L31.0139 62.1979C30.0506 61.243 28.772 60.6723 27.4179 60.5929C26.0638 60.5136 24.7273 60.9309 23.659 61.7668C22.5907 62.6026 21.8641 63.7995 21.6154 65.133C21.3668 66.4664 21.6131 67.8447 22.3083 69.0095C23.0035 70.1742 24.0997 71.0453 25.3914 71.4593C26.6831 71.8734 28.0814 71.8019 29.3242 71.2584C30.567 70.7149 31.5687 69.7366 32.1416 68.5071C32.7145 67.2776 32.8191 65.8813 32.4358 64.5802L38.9301 59.8456C39.5346 60.3462 40.2379 60.7134 40.9942 60.9233C41.7504 61.1332 42.5424 61.181 43.3184 61.0635C44.0944 60.946 44.8368 60.666 45.497 60.2416C46.1573 59.8173 46.7204 59.2583 47.1496 58.6012L51.8091 60.9211C52.0332 62.3053 52.7703 63.5544 53.8737 64.4197C54.9771 65.2849 56.3659 65.703 57.7636 65.5906C59.1613 65.4782 60.4654 64.8436 61.4164 63.8131C62.3674 62.7826 62.8954 61.4318 62.8954 60.0296C62.8948 59.6436 62.8548 59.2587 62.776 58.8809L62.7752 58.8791Z" fill="#231F20"/>
<path fill-rule="evenodd" clip-rule="evenodd" d="M24.2695 66.1539C24.2693 66.7108 24.4343 67.2552 24.7435 67.7183C25.0528 68.1815 25.4924 68.5425 26.0069 68.7558C26.5213 68.969 27.0875 69.0249 27.6337 68.9164C28.1799 68.8079 28.6817 68.5398 29.0756 68.1461C29.4694 67.7524 29.7377 67.2507 29.8464 66.7045C29.9551 66.1583 29.8994 65.5922 29.6863 65.0777C29.4733 64.5631 29.1124 64.1233 28.6494 63.8139C28.1863 63.5045 27.6419 63.3394 27.085 63.3394C26.3388 63.3403 25.6233 63.6371 25.0955 64.1646C24.5678 64.6922 24.2707 65.4076 24.2695 66.1539Z" fill="#00ABEA"/>
<path fill-rule="evenodd" clip-rule="evenodd" d="M39.6709 55.5504C39.6709 56.1072 39.836 56.6516 40.1454 57.1146C40.4548 57.5776 40.8945 57.9385 41.409 58.1516C41.9235 58.3647 42.4896 58.4204 43.0358 58.3118C43.5819 58.2031 44.0836 57.935 44.4774 57.5412C44.8711 57.1474 45.1392 56.6457 45.2479 56.0995C45.3565 55.5534 45.3007 54.9873 45.0876 54.4728C44.8744 53.9583 44.5135 53.5186 44.0505 53.2093C43.5874 52.8999 43.0431 52.7348 42.4862 52.7349C41.7398 52.7357 41.0242 53.0326 40.4964 53.5605C39.9686 54.0883 39.6717 54.8039 39.6709 55.5504Z" fill="#00ABEA"/>
<path fill-rule="evenodd" clip-rule="evenodd" d="M57.3171 57.2163C56.7602 57.2165 56.2158 57.3818 55.7528 57.6913C55.2898 58.0008 54.9291 58.4407 54.7161 58.9552C54.5031 59.4698 54.4474 60.036 54.5562 60.5822C54.6649 61.1284 54.9332 61.63 55.3271 62.0237C55.7209 62.4175 56.2227 62.6856 56.7689 62.7941C57.3152 62.9027 57.8813 62.8469 58.3958 62.6337C58.9103 62.4205 59.35 62.0595 59.6594 61.5964C59.9687 61.1334 60.1338 60.5889 60.1338 60.032C60.133 59.2853 59.8359 58.5695 59.3078 58.0415C58.7797 57.5136 58.0638 57.2168 57.3171 57.2163Z" fill="#00ABEA"/>
<path fill-rule="evenodd" clip-rule="evenodd" d="M67.8818 52.1108C67.8819 52.6677 68.0471 53.2121 68.3566 53.6751C68.6661 54.138 69.1059 54.4988 69.6204 54.7119C70.135 54.9249 70.7011 54.9805 71.2473 54.8717C71.7934 54.763 72.2951 54.4947 72.6887 54.1008C73.0824 53.7069 73.3504 53.2052 73.4589 52.6589C73.5674 52.1127 73.5115 51.5466 73.2982 51.0322C73.085 50.5178 72.7239 50.0781 72.2608 49.7689C71.7977 49.4597 71.2532 49.2947 70.6963 49.2949C69.95 49.2961 69.2345 49.5931 68.7069 50.121C68.1793 50.6489 67.8826 51.3645 67.8818 52.1108Z" fill="#00ABEA"/>
<path fill-rule="evenodd" clip-rule="evenodd" d="M59.3711 39.6707H77.2609L59.3711 21.7803V39.6707Z" fill="#00ABEA"/>
<path fill-rule="evenodd" clip-rule="evenodd" d="M16.3745 84.1749V23.0308C16.3761 21.4485 17.0053 19.9314 18.1241 18.8125C19.2428 17.6936 20.7598 17.0642 22.3421 17.0624H49.5221L44.293 11.835H9.2178C8.36815 11.8357 7.55348 12.1734 6.95258 12.7741C6.35169 13.3748 6.01366 14.1894 6.0127 15.0391V80.97C6.01388 81.8196 6.35194 82.6342 6.95277 83.2349C7.55359 83.8357 8.36814 84.1738 9.2178 84.1749H16.3745Z" fill="#00ABEA"/>
<path fill-rule="evenodd" clip-rule="evenodd" d="M71.3515 66.5879C69.9798 70.1958 67.9429 74.5504 65.2627 79.5985C65.1323 79.8332 65.0853 80.1053 65.1294 80.3702C65.1735 80.6351 65.306 80.8772 65.5054 81.0571C66.892 82.3551 68.3854 83.534 69.9699 84.5813L71.916 79.9411C72.0576 79.6032 72.3277 79.3354 72.6667 79.1967C73.0058 79.0579 73.3861 79.0594 73.7239 79.201C74.0618 79.3426 74.3296 79.6127 74.4684 79.9517C74.6072 80.2908 74.6056 80.6711 74.464 81.009L72.3639 86.0142C76.1113 88.0228 80.2218 89.2634 84.4547 89.6635L85.7119 84.9662C85.8069 84.6124 86.0386 84.3108 86.3559 84.1277C86.6733 83.9447 87.0504 83.8952 87.4043 83.9902C87.7582 84.0852 88.0598 84.3169 88.2428 84.6343C88.4259 84.9517 88.4753 85.3288 88.3803 85.6827L87.2672 89.8392C87.5889 89.8471 87.9107 89.8528 88.2343 89.853C90.4621 89.847 92.6863 89.6722 94.8876 89.33C95.1732 89.2903 95.4349 89.1489 95.6246 88.9317C95.8142 88.7145 95.9191 88.4361 95.9199 88.1478C95.9737 83.4665 96.3761 78.7957 97.1238 74.1742C94.2007 73.3142 85.6469 70.7936 71.3515 66.5879Z" fill="#00ABEA"/>
</svg>
