<svg width="104" height="104" viewBox="0 0 104 104" fill="none" xmlns="http://www.w3.org/2000/svg">
<path fill-rule="evenodd" clip-rule="evenodd" d="M82.1301 75.54C82.1312 75.5611 82.1239 75.5818 82.1099 75.5977C82.0959 75.6135 82.0763 75.6233 82.0552 75.6249C80.9152 75.8009 79.7645 75.8985 78.6112 75.917L79.0416 74.3083C79.1366 73.9544 79.0871 73.5773 78.904 73.2599C78.721 72.9425 78.4193 72.7108 78.0654 72.6158C77.7115 72.5208 77.3344 72.5703 77.017 72.7534C76.6996 72.9365 76.4679 73.2382 76.373 73.592L75.7888 75.771C73.8276 75.5364 71.9219 74.9641 70.1559 74.0795L71.1388 71.7406C71.2091 71.5732 71.2457 71.3937 71.2465 71.2123C71.2474 71.0309 71.2125 70.851 71.1439 70.6831C71.0752 70.5151 70.9742 70.3623 70.8465 70.2334C70.7188 70.1045 70.567 70.002 70.3997 69.9317C70.2324 69.8615 70.0529 69.8249 69.8714 69.824C69.69 69.8232 69.5101 69.8581 69.3422 69.9267C69.1742 69.9953 69.0214 70.0964 68.8925 70.2241C68.7636 70.3518 68.6611 70.5036 68.5909 70.6709L67.7719 72.6209C67.1253 72.1511 66.508 71.6423 65.9234 71.0975C65.9151 71.0918 65.908 71.0844 65.9025 71.0759C65.8971 71.0674 65.8934 71.0579 65.8918 71.0479C65.8901 71.038 65.8904 71.0278 65.8928 71.018C65.8952 71.0082 65.8995 70.9989 65.9055 70.9908C67.1218 68.7465 68.2167 66.4386 69.1858 64.0771C76.2714 66.1611 80.7733 67.4875 82.7391 68.0658C82.3642 70.5405 82.1606 73.0381 82.1297 75.5408L82.1301 75.54ZM70.3219 60.8636C70.3028 60.8632 70.2843 60.8696 70.2694 60.8815C70.2546 60.8934 70.2444 60.9102 70.2406 60.9288C70.1953 61.1025 70.1464 61.2821 70.0928 61.4636L83.2453 65.3342C83.2632 65.2552 83.2772 65.1717 83.2947 65.0933C83.3046 65.048 83.303 65.036 83.267 65.0066C80.7249 62.8512 76.375 61.4578 70.3335 60.8628L70.3219 60.8636ZM80.2439 46.2717C80.3113 46.0229 80.4745 45.8109 80.6978 45.6821C80.9211 45.5533 81.1863 45.5181 81.4355 45.5844C81.6831 45.6533 81.8937 45.8167 82.0222 46.0394C82.1506 46.262 82.1865 46.5262 82.1222 46.7751L78.6784 59.6239C78.0826 59.4396 77.4576 59.2693 76.8034 59.1129L80.2439 46.2713V46.2717ZM85.0537 62.901C83.9133 61.9541 82.643 61.1758 81.2815 60.5898L84.7911 47.4905C85.0457 46.5342 84.9104 45.5159 84.4149 44.6592C83.9194 43.8026 83.1042 43.1776 82.1482 42.9215C81.1923 42.6653 80.1738 42.799 79.3164 43.2932C78.459 43.7874 77.8327 44.6016 77.5751 45.5571L74.0896 58.5689C72.9928 58.3869 71.8309 58.2357 70.604 58.1151C69.9268 58.0456 69.2472 58.2219 68.6892 58.6118C68.1312 59.0017 67.732 59.5792 67.5645 60.239C66.9864 62.4809 65.6065 65.6624 63.4652 69.6951C63.1656 70.2477 63.0592 70.8846 63.1629 71.5046C63.2665 72.1246 63.5743 72.6922 64.0374 73.1173C68.0028 76.8179 72.8026 78.6811 78.3447 78.6811C79.7256 78.6775 81.1043 78.569 82.4688 78.3565C83.1363 78.2568 83.7467 77.9229 84.1907 77.4145C84.6347 76.9061 84.8833 76.2564 84.8922 75.5814C84.9196 72.2586 85.2871 68.9472 85.9891 65.6992C86.1087 65.1917 86.0843 64.661 85.9188 64.1666C85.7532 63.6722 85.4531 63.2338 85.0521 62.9006L85.0537 62.901ZM75.7218 83.7979C80.1253 83.7978 84.4299 82.4919 88.0912 80.0454C91.7526 77.5989 94.6062 74.1216 96.2914 70.0533C97.9765 65.9849 98.4174 61.5083 97.5583 57.1894C96.6992 52.8705 94.5787 48.9033 91.4649 45.7896C88.3511 42.6758 84.384 40.5553 80.0651 39.6962C75.7462 38.8371 71.2695 39.278 67.2012 40.9631C63.1329 42.6482 59.6556 45.5019 57.2091 49.1632C54.7626 52.8246 53.4567 57.1292 53.4566 61.5327C53.4635 67.4357 55.8115 73.0949 59.9855 77.2689C64.1596 81.443 69.8188 83.791 75.7218 83.7979ZM12.1593 73.4182C11.7265 73.4178 11.2944 73.3855 10.8664 73.3215L24.3171 50.6795C24.9685 49.5839 26.2874 48.9373 27.8283 48.9353L54.0684 48.9926C51.9216 52.692 50.7605 56.8806 50.6963 61.1573C50.632 65.4339 51.6667 69.6555 53.7014 73.4178L12.1593 73.4182ZM6.0125 22.9221V67.8507C6.01683 68.7161 6.22172 69.5687 6.6111 70.3416C7.00048 71.1145 7.56373 71.7865 8.25663 72.305L21.9401 49.269C23.0929 47.3294 25.2874 46.1728 27.8157 46.1728H27.8336L55.929 46.2337C59.1169 42.1122 63.5081 39.0846 68.4938 37.5705V35.614C68.4928 34.5982 68.0889 33.6244 67.3707 32.9062C66.6524 32.188 65.6785 31.7841 64.6628 31.7832H41.2687C40.5476 31.7891 39.8327 31.6499 39.1665 31.374C38.5002 31.0981 37.8963 30.6911 37.3904 30.1771L28.2141 20.9987C27.9655 20.7405 27.6663 20.5364 27.3352 20.3992C27.0041 20.262 26.6482 20.1948 26.2899 20.2016H8.73295C8.01156 20.202 7.31982 20.4888 6.80972 20.9989C6.29962 21.509 6.01288 22.2007 6.0125 22.9221ZM75.7209 36.5051C74.2238 36.5047 72.7297 36.6384 71.2565 36.9046V35.614C71.2543 33.8658 70.5588 32.1898 69.3225 30.9537C68.0863 29.7176 66.4102 29.0224 64.662 29.0205H41.2683C40.91 29.0274 40.554 28.9603 40.2229 28.8232C39.8917 28.6862 39.5924 28.4822 39.3437 28.2241L30.1661 19.0449C29.6603 18.5309 29.0563 18.1239 28.39 17.8481C27.7238 17.5723 27.0089 17.4332 26.2878 17.4391H8.73316C7.27923 17.4408 5.88535 18.0192 4.85739 19.0474C3.82942 20.0756 3.25134 21.4696 3.25 22.9235V67.8505C3.25726 69.4277 3.70929 70.9708 4.55418 72.3027C5.39906 73.6345 6.60252 74.701 8.02628 75.3795C8.04802 75.3895 8.07158 75.3974 8.09534 75.4072C8.14799 75.4367 8.2027 75.4625 8.25906 75.4841C9.5068 75.9483 10.8278 76.1843 12.1591 76.1809H55.4401C57.9489 79.6547 61.3077 82.4262 65.1947 84.2298C69.0816 86.0334 73.3667 86.8087 77.6392 86.4814C81.9117 86.1541 86.0286 84.7351 89.5956 82.3605C93.1625 79.9859 96.0599 76.7352 98.0103 72.9198C99.9606 69.1043 100.899 64.8519 100.734 60.57C100.57 56.2882 99.309 52.1202 97.0721 48.4654C94.8351 44.8106 91.6971 41.7914 87.9587 39.6971C84.2203 37.6027 80.0068 36.5034 75.7218 36.5045L75.7209 36.5051Z" fill="#231F20"/>
<path fill-rule="evenodd" clip-rule="evenodd" d="M6.0127 22.9221V67.8507C6.01702 68.7161 6.22192 69.5687 6.61129 70.3416C7.00067 71.1145 7.56393 71.7865 8.25682 72.305L21.9403 49.269C23.0931 47.3294 25.2876 46.1728 27.8159 46.1728H27.8338L55.9292 46.2337C59.1171 42.1122 63.5083 39.0846 68.4939 37.5705V35.614C68.493 34.5982 68.0891 33.6244 67.3709 32.9062C66.6526 32.188 65.6787 31.7841 64.663 31.7832H41.2689C40.5478 31.7891 39.8329 31.6499 39.1667 31.374C38.5004 31.0981 37.8964 30.6911 37.3906 30.1771L28.2143 20.9987C27.9657 20.7405 27.6665 20.5364 27.3354 20.3992C27.0043 20.262 26.6484 20.1948 26.2901 20.2016H8.73315C8.01175 20.202 7.32002 20.4888 6.80991 20.9989C6.29981 21.509 6.01307 22.2007 6.0127 22.9221Z" fill="#00ABEA"/>
<path fill-rule="evenodd" clip-rule="evenodd" d="M69.1867 64.0767C68.2176 66.4382 67.1226 68.7461 65.9064 70.9904C65.9004 70.9985 65.8961 71.0078 65.8937 71.0176C65.8913 71.0274 65.891 71.0376 65.8926 71.0476C65.8943 71.0575 65.898 71.067 65.9034 71.0755C65.9088 71.0841 65.9159 71.0914 65.9243 71.0971C66.5089 71.642 67.1262 72.1507 67.7727 72.6205L68.5917 70.6705C68.7336 70.3326 69.0038 70.0649 69.3431 69.9263C69.6823 69.7877 70.0627 69.7895 70.4006 69.9313C70.7384 70.0732 71.0061 70.3434 71.1448 70.6827C71.2834 71.0219 71.2816 71.4023 71.1397 71.7402L70.1558 74.0794C71.9218 74.964 73.8275 75.5362 75.7887 75.7708L76.3728 73.5918C76.4199 73.4166 76.5009 73.2524 76.6115 73.1085C76.722 72.9646 76.8597 72.8439 77.0169 72.7532C77.174 72.6626 77.3475 72.6038 77.5274 72.5802C77.7073 72.5566 77.89 72.5686 78.0653 72.6156C78.2405 72.6627 78.4048 72.7437 78.5486 72.8542C78.6925 72.9647 78.8133 73.1025 78.9039 73.2597C78.9946 73.4168 79.0534 73.5903 79.077 73.7702C79.1006 73.9501 79.0885 74.1328 79.0415 74.3081L78.6111 75.9168C79.7644 75.8983 80.9151 75.8007 82.0551 75.6247C82.0761 75.6231 82.0958 75.6133 82.1098 75.5975C82.1238 75.5816 82.131 75.5609 82.13 75.5398C82.1608 73.0371 82.3645 70.5395 82.7394 68.0648C80.7742 67.4871 76.2733 66.1607 69.1867 64.0767Z" fill="#00ABEA"/>
</svg>
