<svg width="104" height="104" viewBox="0 0 104 104" fill="none" xmlns="http://www.w3.org/2000/svg">
<path fill-rule="evenodd" clip-rule="evenodd" d="M81.5382 85.0526C79.9904 85.0527 78.4773 84.5938 77.1904 83.7339C75.9034 82.874 74.9003 81.6518 74.3079 80.2218C73.7156 78.7918 73.5606 77.2183 73.8626 75.7002C74.1646 74.1821 74.91 72.7877 76.0045 71.6933C77.099 70.5988 78.4935 69.8536 80.0116 69.5517C81.5297 69.2498 83.1032 69.4049 84.5332 69.9974C85.9631 70.5898 87.1852 71.593 88.045 72.8801C88.9048 74.1671 89.3636 75.6802 89.3634 77.228C89.3608 79.3026 88.5355 81.2915 87.0686 82.7585C85.6017 84.2255 83.6128 85.0509 81.5382 85.0536V85.0526ZM81.5382 66.6381C79.4439 66.638 77.3966 67.259 75.6552 68.4225C73.9138 69.5859 72.5566 71.2397 71.7551 73.1745C70.9536 75.1094 70.7438 77.2385 71.1523 79.2926C71.5609 81.3466 72.5693 83.2334 74.0502 84.7144C75.5311 86.1953 77.4178 87.2038 79.4719 87.6124C81.5259 88.021 83.655 87.8114 85.5899 87.0099C87.5248 86.2085 89.1786 84.8513 90.3422 83.1099C91.5057 81.3686 92.1267 79.3213 92.1267 77.227C92.1237 74.4197 91.0071 71.7282 89.0221 69.7431C87.037 67.7579 84.3456 66.6413 81.5382 66.6381ZM97.9875 79.3487V75.1033C97.9858 75.0448 97.9617 74.9892 97.9201 74.948C97.8785 74.9068 97.8226 74.8832 97.7641 74.8821H94.507C94.2072 74.8819 93.9157 74.7841 93.6765 74.6036C93.4372 74.4231 93.2631 74.1697 93.1805 73.8816C92.9271 73.0049 92.5763 72.1595 92.1347 71.361C91.9895 71.0988 91.9335 70.7965 91.9752 70.4997C92.0169 70.2029 92.154 69.9277 92.3658 69.7157L94.6709 67.4126C94.7109 67.3697 94.7331 67.3133 94.7331 67.2546C94.7331 67.1959 94.7109 67.1395 94.6709 67.0966L91.6687 64.0948C91.6261 64.0543 91.5696 64.0317 91.5109 64.0317C91.4521 64.0317 91.3956 64.0543 91.353 64.0948L89.05 66.3994C88.8375 66.6115 88.5619 66.7487 88.2646 66.7903C87.9674 66.832 87.6646 66.7759 87.402 66.6304C86.6048 66.1873 85.7598 65.8364 84.8833 65.5843C84.5952 65.5018 84.3417 65.3278 84.1613 65.0884C83.9808 64.8491 83.8832 64.5576 83.8831 64.2579V61.0014C83.882 60.9429 83.8585 60.8871 83.8174 60.8456C83.7763 60.804 83.7207 60.7798 83.6623 60.778H79.417C79.3582 60.7794 79.3022 60.8033 79.2606 60.8449C79.2189 60.8865 79.195 60.9426 79.1936 61.0014V64.2581C79.1935 64.5578 79.0958 64.8494 78.9153 65.0887C78.7347 65.328 78.4812 65.502 78.193 65.5843C77.3165 65.8366 76.4715 66.1875 75.6742 66.6304C75.4115 66.7753 75.1089 66.8311 74.8118 66.7895C74.5146 66.7478 74.239 66.611 74.0263 66.3994L71.7234 64.0942C71.681 64.0543 71.6249 64.0321 71.5666 64.0321C71.5084 64.0321 71.4523 64.0543 71.4098 64.0942L68.4076 67.0964C68.3668 67.1388 68.344 67.1954 68.344 67.2543C68.344 67.3132 68.3668 67.3698 68.4076 67.4122L70.7105 69.7155C70.9228 69.9277 71.0603 70.2034 71.102 70.5007C71.1436 70.7981 71.0873 71.101 70.9414 71.3634C70.4991 72.1607 70.1488 73.0057 69.8973 73.8822C69.8146 74.1705 69.6403 74.4241 69.4006 74.6046C69.161 74.7851 68.8691 74.8827 68.5691 74.8826H65.3122C65.2538 74.8837 65.1982 74.9073 65.1567 74.9485C65.1153 74.9897 65.0913 75.0452 65.0898 75.1036V79.3489C65.0913 79.4077 65.1153 79.4636 65.1569 79.5052C65.1985 79.5468 65.2544 79.5708 65.3132 79.5723H68.5689C68.8689 79.5722 69.1608 79.6698 69.4005 79.8503C69.6401 80.0308 69.8145 80.2845 69.8971 80.5729C70.1489 81.4492 70.4991 82.2942 70.9412 83.0916C71.0871 83.3541 71.1434 83.6569 71.1017 83.9543C71.0601 84.2517 70.9226 84.5273 70.7103 84.7396L68.407 87.043C68.3662 87.085 68.3433 87.1413 68.3433 87.1998C68.3433 87.2584 68.3662 87.3147 68.407 87.3567L71.4086 90.3588C71.4506 90.3997 71.5069 90.4225 71.5655 90.4225C71.6241 90.4225 71.6804 90.3997 71.7224 90.3588L74.0261 88.0546C74.2384 87.8423 74.5141 87.705 74.8115 87.6633C75.1088 87.6217 75.4117 87.6779 75.6742 87.8236C76.4715 88.266 77.3166 88.6163 78.193 88.8679C78.4813 88.9507 78.7349 89.1251 78.9155 89.3647C79.0961 89.6043 79.1938 89.8961 79.194 90.1961V93.4526C79.1955 93.5114 79.2195 93.5674 79.2611 93.6089C79.3027 93.6505 79.3586 93.6745 79.4174 93.6761H83.6627C83.7213 93.6744 83.777 93.6503 83.8182 93.6087C83.8595 93.5671 83.8831 93.5112 83.8843 93.4526V90.1961C83.8845 89.8962 83.9822 89.6044 84.1627 89.3648C84.3432 89.1252 84.5966 88.9508 84.8849 88.8679C85.7614 88.6164 86.6064 88.2661 87.4037 87.8236C87.666 87.6782 87.9685 87.622 88.2655 87.6637C88.5625 87.7054 88.8379 87.8426 89.05 88.0546L91.3532 90.358C91.3957 90.3989 91.4523 90.4217 91.5113 90.4217C91.5702 90.4217 91.6268 90.3989 91.6693 90.358L94.6711 87.356C94.6913 87.3355 94.7073 87.3112 94.7181 87.2844C94.7289 87.2577 94.7343 87.2291 94.734 87.2003C94.7345 87.1711 94.7292 87.1422 94.7184 87.1151C94.7076 87.088 94.6916 87.0633 94.6713 87.0424L92.3658 84.739C92.1539 84.5265 92.0167 84.2508 91.9751 83.9536C91.9334 83.6564 91.9895 83.3536 92.1349 83.091C92.577 82.2934 92.9278 81.4485 93.1807 80.5723C93.2633 80.2841 93.4374 80.0306 93.6767 79.8501C93.916 79.6695 94.2076 79.5718 94.5074 79.5715H97.7641C97.8228 79.5698 97.8787 79.5458 97.9202 79.5042C97.9618 79.4627 97.9859 79.4068 97.9875 79.3481V79.3487ZM97.7641 72.1192H95.5094C95.3652 71.7265 95.2046 71.3406 95.0276 70.9614L96.6245 69.3667C97.183 68.8057 97.4965 68.0464 97.4965 67.2549C97.4965 66.4634 97.183 65.7041 96.6245 65.1431L93.6203 62.1401C93.0597 61.5818 92.3007 61.2683 91.5094 61.2683C90.7182 61.2683 89.9592 61.5818 89.3986 62.1401L87.8042 63.7367C87.4251 63.5591 87.0391 63.3987 86.6464 63.2553V61.0006C86.6458 60.2091 86.3312 59.4502 85.7717 58.8904C85.2121 58.3306 84.4534 58.0157 83.6619 58.0146H79.4166C78.625 58.0157 77.8661 58.3307 77.3064 58.8904C76.7467 59.4501 76.4317 60.209 76.4307 61.0006V63.2553C76.0379 63.3994 75.652 63.5598 75.2728 63.7367L73.6781 62.1399C73.1175 61.5816 72.3585 61.2681 71.5672 61.2681C70.776 61.2681 70.017 61.5816 69.4564 62.1399L66.4534 65.1421C65.8941 65.7027 65.58 66.4622 65.58 67.254C65.58 68.0458 65.8941 68.8053 66.4534 69.3659L68.0483 70.9606C67.8706 71.3398 67.71 71.7257 67.5665 72.1184H65.3118C64.5204 72.1192 63.7617 72.4338 63.2019 72.9932C62.6421 73.5526 62.3271 74.3112 62.3259 75.1025V79.3478C62.327 80.1394 62.642 80.8982 63.2017 81.4579C63.7614 82.0176 64.5202 82.3326 65.3118 82.3338H67.5665C67.7109 82.7264 67.8724 83.1136 68.0479 83.4916L66.4536 85.0863C65.8943 85.6465 65.5803 86.4057 65.5803 87.1972C65.5803 87.9887 65.8943 88.7479 66.4536 89.3081L69.4557 92.3101C70.0158 92.8693 70.7749 93.1834 71.5664 93.1834C72.3579 93.1834 73.117 92.8693 73.6771 92.3101L75.2718 90.7153C75.6511 90.891 76.0376 91.0529 76.4296 91.1949V93.4508C76.4308 94.2424 76.7458 95.0012 77.3055 95.5609C77.8652 96.1206 78.624 96.4356 79.4156 96.4368H83.6609C84.4523 96.4356 85.2109 96.1205 85.7702 95.5608C86.3296 95.001 86.6441 94.2422 86.6448 93.4508V91.1967C87.0374 91.0546 87.4242 90.8921 87.8026 90.7172L89.3978 92.3119C89.9581 92.8706 90.7171 93.1843 91.5084 93.1843C92.2997 93.1843 93.0587 92.8706 93.6191 92.3119L96.6215 89.3099C97.1809 88.7499 97.4952 87.9909 97.4955 87.1994C97.4958 86.4079 97.1821 85.6486 96.6231 85.0882L95.0263 83.4932C95.2041 83.1141 95.3647 82.7281 95.5079 82.3354H97.7626C98.5542 82.3343 99.3131 82.0194 99.8728 81.4597C100.433 80.8999 100.748 80.1411 100.749 79.3495V75.1042C100.747 74.3128 100.432 73.5542 99.8725 72.9948C99.3128 72.4354 98.554 72.1208 97.7626 72.1201L97.7641 72.1192ZM67.2724 33.8129C67.2724 33.4466 67.4179 33.0953 67.6769 32.8362C67.936 32.5772 68.2873 32.4317 68.6536 32.4317H95.4149C95.7812 32.4319 96.1323 32.5775 96.3913 32.8365C96.6503 33.0955 96.7959 33.4467 96.7962 33.8129V52.8167L97.0919 52.4978C97.3413 52.2292 97.6871 52.0708 98.0533 52.0572C98.4195 52.0436 98.776 52.1761 99.0446 52.4255C99.3131 52.6748 99.4716 53.0206 99.4851 53.3868C99.4987 53.753 99.3662 54.1096 99.1169 54.3781L96.4271 57.2755C96.3006 57.4115 96.148 57.5207 95.9784 57.5965C95.8088 57.6723 95.6256 57.7133 95.4399 57.7169H95.4143C95.2327 57.7168 95.0529 57.6809 94.8853 57.6112C94.7176 57.5415 94.5654 57.4393 94.4373 57.3106L91.7412 54.6123C91.4823 54.3529 91.337 54.0013 91.3373 53.6349C91.3377 53.2684 91.4836 52.917 91.7429 52.6581C92.0023 52.3992 92.3539 52.254 92.7204 52.2543C93.0868 52.2546 93.4382 52.4005 93.6971 52.6599L94.0327 52.9958V35.1944H68.6538C68.2875 35.1944 67.9362 35.0488 67.6771 34.7898C67.4181 34.5308 67.2726 34.1794 67.2726 33.8131L67.2724 33.8129ZM60.1693 93.864C60.1693 94.2303 60.0238 94.5816 59.7647 94.8407C59.5057 95.0997 59.1544 95.2452 58.788 95.2452H29.1625C28.9811 95.2452 28.8015 95.2095 28.6339 95.1401C28.4663 95.0707 28.314 94.9689 28.1858 94.8407C28.0575 94.7124 27.9558 94.5601 27.8863 94.3926C27.8169 94.225 27.7812 94.0454 27.7812 93.864V77.6099L27.3646 78.0342C27.1076 78.2955 26.7573 78.444 26.3909 78.447C26.0244 78.4501 25.6717 78.3074 25.4104 78.0504C25.1492 77.7934 25.0007 77.4431 24.9976 77.0766C24.9946 76.7102 25.1373 76.3575 25.3943 76.0962L28.1793 73.2659C28.3069 73.1361 28.4589 73.0328 28.6265 72.962C28.7942 72.8912 28.9742 72.8543 29.1562 72.8533H29.1641C29.5286 72.8533 29.8783 72.9974 30.137 73.2541L32.9318 76.0272C33.192 76.2852 33.339 76.6361 33.3404 77.0025C33.3419 77.369 33.1977 77.721 32.9397 77.9811C32.6816 78.2413 32.3307 78.3882 31.9643 78.3897C31.5979 78.3912 31.2459 78.247 30.9857 77.9889L30.5435 77.5488V92.4815H58.7874C59.1537 92.4818 59.5048 92.6274 59.7638 92.8864C60.0227 93.1454 60.1684 93.4965 60.1687 93.8628L60.1693 93.864ZM32.4508 38.5752C32.4509 38.341 32.5204 38.1121 32.6506 37.9175C32.7807 37.7228 32.9657 37.5711 33.182 37.4816C33.3984 37.392 33.6364 37.3686 33.8661 37.4144C34.0957 37.4601 34.3067 37.5729 34.4722 37.7385C34.6378 37.9041 34.7505 38.1151 34.7962 38.3447C34.8418 38.5744 34.8183 38.8125 34.7287 39.0288C34.6391 39.2451 34.4873 39.43 34.2926 39.5601C34.0979 39.6902 33.869 39.7596 33.6349 39.7596C33.3209 39.7593 33.0198 39.6344 32.7978 39.4124C32.5758 39.1903 32.451 38.8892 32.4508 38.5752ZM37.4422 39.6046H42.0125C42.3789 39.6046 42.7302 39.4591 42.9892 39.2001C43.2483 38.941 43.3938 38.5897 43.3938 38.2234C43.3938 37.857 43.2483 37.5057 42.9892 37.2467C42.7302 36.9876 42.3789 36.8421 42.0125 36.8421H37.1757C36.7607 35.9962 36.0583 35.3255 35.194 34.95V25.5453C35.194 25.179 35.0485 24.8277 34.7895 24.5686C34.5305 24.3096 34.1791 24.1641 33.8128 24.1641C33.4465 24.1641 33.0951 24.3096 32.8361 24.5686C32.5771 24.8277 32.4315 25.179 32.4315 25.5453V34.818C31.7796 35.0263 31.193 35.4007 30.7294 35.9043C30.2658 36.4079 29.9412 37.0234 29.7874 37.6904C29.6336 38.3573 29.656 39.0528 29.8522 39.7086C30.0485 40.3643 30.412 40.9577 30.9069 41.4305C31.4018 41.9033 32.0112 42.2393 32.6752 42.4054C33.3393 42.5715 34.0351 42.562 34.6943 42.3779C35.3536 42.1938 35.9536 41.8414 36.4355 41.3552C36.9173 40.8691 37.2645 40.2661 37.4428 39.6052L37.4422 39.6046ZM23.4628 25.5707C23.5911 25.699 23.6929 25.8514 23.7623 26.019C23.8318 26.1867 23.8675 26.3664 23.8675 26.5478C23.8675 26.7293 23.8318 26.909 23.7623 27.0767C23.6929 27.2443 23.5911 27.3967 23.4628 27.525C23.3344 27.6533 23.1821 27.7551 23.0145 27.8245C22.8468 27.894 22.6671 27.9297 22.4856 27.9297C22.3042 27.9297 22.1245 27.894 21.9568 27.8245C21.7892 27.7551 21.6368 27.6533 21.5085 27.525L19.5179 25.5321C19.3896 25.4038 19.2879 25.2515 19.2185 25.0839C19.1491 24.9163 19.1133 24.7367 19.1134 24.5552C19.1134 24.3738 19.1491 24.1942 19.2186 24.0266C19.288 23.859 19.3898 23.7067 19.5181 23.5785C19.6464 23.4502 19.7987 23.3485 19.9663 23.279C20.1339 23.2096 20.3135 23.1739 20.4949 23.1739C20.6764 23.174 20.856 23.2097 21.0236 23.2792C21.1912 23.3486 21.3435 23.4504 21.4717 23.5787L23.4636 25.5707H23.4628ZM19.0938 37.7202C19.0938 38.0866 18.9482 38.4379 18.6892 38.6969C18.4302 38.9559 18.0788 39.1015 17.7125 39.1015H14.8948C14.7134 39.1015 14.5337 39.0657 14.3662 38.9963C14.1986 38.9269 14.0463 38.8252 13.9181 38.6969C13.7898 38.5687 13.6881 38.4164 13.6186 38.2488C13.5492 38.0812 13.5135 37.9016 13.5135 37.7202C13.5135 37.5388 13.5492 37.3592 13.6186 37.1916C13.6881 37.0241 13.7898 36.8718 13.9181 36.7435C14.0463 36.6153 14.1986 36.5135 14.3662 36.4441C14.5337 36.3747 14.7134 36.339 14.8948 36.339H17.7125C18.0788 36.339 18.4302 36.4845 18.6892 36.7435C18.9482 37.0026 19.0938 37.3539 19.0938 37.7202ZM23.2148 48.0187C23.4735 48.278 23.6188 48.6293 23.6188 48.9956C23.6188 49.3619 23.4735 49.7132 23.2148 49.9725L21.2241 51.9648C21.0958 52.0931 20.9435 52.1949 20.7759 52.2643C20.6083 52.3337 20.4286 52.3695 20.2472 52.3695C20.0657 52.3695 19.8861 52.3338 19.7184 52.2644C19.5508 52.1949 19.3985 52.0932 19.2702 51.9649C19.1419 51.8366 19.0401 51.6843 18.9706 51.5166C18.9012 51.349 18.8654 51.1694 18.8654 50.9879C18.8654 50.8065 18.9012 50.6268 18.9706 50.4592C19.04 50.2915 19.1418 50.1392 19.2701 50.0109L21.2619 48.0187C21.3902 47.8903 21.5425 47.7885 21.7101 47.7191C21.8777 47.6496 22.0574 47.6139 22.2388 47.6139C22.4203 47.6139 22.5999 47.6496 22.7676 47.7191C22.9352 47.7885 23.0875 47.8903 23.2158 48.0187H23.2148ZM33.4116 57.9683C33.2302 57.9683 33.0506 57.9326 32.883 57.8632C32.7155 57.7938 32.5632 57.692 32.4349 57.5638C32.3067 57.4355 32.2049 57.2832 32.1355 57.1157C32.0661 56.9481 32.0304 56.7685 32.0304 56.5871V53.7693C32.0304 53.403 32.1759 53.0517 32.4349 52.7926C32.694 52.5336 33.0453 52.3881 33.4116 52.3881C33.778 52.3881 34.1293 52.5336 34.3883 52.7926C34.6474 53.0517 34.7929 53.403 34.7929 53.7693V56.5867C34.7925 56.9529 34.6469 57.304 34.3879 57.563C34.1289 57.8219 33.7778 57.9676 33.4116 57.9679V57.9683ZM47.6531 50.2601C47.9123 50.5192 48.0578 50.8707 48.0579 51.2371C48.0579 51.6035 47.9123 51.955 47.6532 52.2141C47.3941 52.4732 47.0427 52.6188 46.6763 52.6188C46.3098 52.6189 45.9584 52.4733 45.6993 52.2142L43.7086 50.222C43.5804 50.0937 43.4786 49.9414 43.4092 49.7738C43.3398 49.6062 43.304 49.4265 43.304 49.2451C43.304 49.0637 43.3398 48.8841 43.4092 48.7165C43.4786 48.5489 43.5804 48.3966 43.7086 48.2683C43.8369 48.14 43.9892 48.0383 44.1568 47.9688C44.3244 47.8994 44.5041 47.8637 44.6855 47.8637C44.8669 47.8637 45.0465 47.8994 45.2141 47.9688C45.3817 48.0383 45.534 48.14 45.6623 48.2683L47.6529 50.2601H47.6531ZM48.0779 38.0726C48.0779 37.8913 48.1136 37.7116 48.183 37.5441C48.2524 37.3765 48.3542 37.2242 48.4824 37.096C48.6107 36.9677 48.7629 36.8659 48.9305 36.7965C49.0981 36.7271 49.2777 36.6914 49.4591 36.6914H52.2762C52.6426 36.6914 52.9939 36.8369 53.2529 37.096C53.512 37.355 53.6575 37.7063 53.6575 38.0726C53.6575 38.439 53.512 38.7903 53.2529 39.0493C52.9939 39.3084 52.6426 39.4539 52.2762 39.4539H49.4609C49.0946 39.4539 48.7433 39.3084 48.4842 39.0493C48.2252 38.7903 48.0797 38.439 48.0797 38.0726H48.0779ZM43.9567 27.7742C43.6979 27.5149 43.5526 27.1636 43.5526 26.7973C43.5526 26.431 43.6979 26.0796 43.9567 25.8203L45.9473 23.8281C46.2064 23.569 46.5578 23.4235 46.9243 23.4235C47.2907 23.4235 47.6421 23.5691 47.9012 23.8282C48.1603 24.0873 48.3059 24.4388 48.3059 24.8052C48.3059 25.1716 48.1603 25.5231 47.9011 25.7822L45.9105 27.7742C45.7822 27.9026 45.6299 28.0044 45.4623 28.0739C45.2946 28.1433 45.115 28.1791 44.9335 28.1791C44.752 28.1791 44.5723 28.1433 44.4047 28.0739C44.237 28.0044 44.0849 27.9026 43.9567 27.7742ZM32.3785 22.0237V19.2054C32.3785 18.839 32.5241 18.4877 32.7831 18.2287C33.0421 17.9697 33.3934 17.8241 33.7598 17.8241C34.1261 17.8241 34.4774 17.9697 34.7365 18.2287C34.9955 18.4877 35.141 18.839 35.141 19.2054V22.0227C35.141 22.2041 35.1053 22.3837 35.0359 22.5513C34.9665 22.7189 34.8647 22.8712 34.7365 22.9994C34.6082 23.1277 34.4559 23.2294 34.2884 23.2988C34.1208 23.3682 33.9412 23.404 33.7598 23.404C33.5784 23.404 33.3988 23.3682 33.2312 23.2988C33.0636 23.2294 32.9114 23.1277 32.7831 22.9994C32.6548 22.8712 32.5531 22.7189 32.4837 22.5513C32.4143 22.3837 32.3785 22.2041 32.3785 22.0227V22.0237ZM11.8749 37.8961C11.8748 42.1903 13.1481 46.3882 15.5338 49.9587C17.9196 53.5292 21.3105 56.3121 25.2778 57.9555C29.2452 59.5988 33.6107 60.0287 37.8224 59.1909C42.0341 58.3531 45.9028 56.2852 48.9392 53.2487C51.9757 50.2122 54.0434 46.3434 54.8811 42.1317C55.7187 37.9199 55.2886 33.5544 53.6451 29.5871C52.0017 25.6198 49.2186 22.229 45.648 19.8434C42.0774 17.4578 37.8795 16.1847 33.5853 16.1849C27.8291 16.1913 22.3106 18.4807 18.2404 22.551C14.1703 26.6213 11.881 32.14 11.8749 37.8961ZM58.0612 37.8961C58.0612 33.0556 56.6257 28.3238 53.9364 24.299C51.2472 20.2742 47.4248 17.1373 42.9527 15.2849C38.4807 13.4325 33.5597 12.9477 28.8122 13.892C24.0646 14.8363 19.7037 17.1671 16.2808 20.5898C12.8579 24.0125 10.5268 28.3733 9.58225 33.1208C8.63771 37.8683 9.12216 42.7893 10.9743 47.2614C12.8265 51.7336 15.9632 55.5562 19.9878 58.2457C24.0124 60.9352 28.7441 62.3709 33.5847 62.3713C40.0739 62.3644 46.2954 59.7836 50.8841 55.1951C55.4728 50.6067 58.054 44.3854 58.0612 37.8961ZM6.01311 37.8961C6.01311 53.1 18.3834 65.4677 33.5853 65.4679C48.7872 65.4681 61.1579 53.1 61.1577 37.8963C61.1575 22.6926 48.789 10.3237 33.5853 10.3241C18.3816 10.3246 6.0125 22.6926 6.0125 37.8961H6.01311ZM63.9208 37.8961C63.9208 54.6235 50.3124 68.2308 33.5853 68.231C16.8582 68.2312 3.25 54.6233 3.25 37.8963C3.25 21.1694 16.8594 7.56063 33.5853 7.56104C50.3112 7.56144 63.9208 21.169 63.9208 37.8961Z" fill="#231F20"/>
<path fill-rule="evenodd" clip-rule="evenodd" d="M58.0614 37.8962C58.0615 42.7368 56.6262 47.4687 53.937 51.4936C51.2478 55.5184 47.4255 58.6555 42.9535 60.508C38.4814 62.3606 33.5605 62.8454 28.8128 61.9012C24.0652 60.9571 19.7042 58.6263 16.2812 55.2036C12.8583 51.781 10.5271 47.4202 9.5825 42.6727C8.6379 37.9251 9.1223 33.0041 10.9744 28.5319C12.8266 24.0597 15.9633 20.2371 19.9879 17.5475C24.0125 14.858 28.7443 13.4222 33.5849 13.4219C40.0739 13.4289 46.2952 16.0096 50.8839 20.5979C55.4725 25.1861 58.0538 31.4072 58.0614 37.8962ZM6.0133 37.8962C6.0133 53.1001 18.3836 65.4678 33.5855 65.468C48.7874 65.4682 61.1581 53.1001 61.1579 37.8964C61.1577 22.6927 48.7892 10.3238 33.5855 10.3242C18.3818 10.3246 6.0127 22.6927 6.0127 37.8962H6.0133Z" fill="#00ABEA"/>
<path fill-rule="evenodd" clip-rule="evenodd" d="M79.1936 61.0015V64.2582C79.1936 64.558 79.0959 64.8495 78.9153 65.0888C78.7348 65.3281 78.4812 65.5021 78.193 65.5844C77.3166 65.8367 76.4716 66.1876 75.6743 66.6305C75.4116 66.7754 75.109 66.8312 74.8118 66.7896C74.5147 66.748 74.2391 66.6111 74.0263 66.3996L71.7235 64.0943C71.681 64.0544 71.625 64.0322 71.5667 64.0322C71.5084 64.0322 71.4524 64.0544 71.4099 64.0943L68.4077 67.0965C68.3668 67.1389 68.344 67.1955 68.344 67.2544C68.344 67.3133 68.3668 67.3699 68.4077 67.4123L70.7105 69.7156C70.9229 69.9278 71.0603 70.2035 71.102 70.5009C71.1437 70.7982 71.0873 71.1011 70.9415 71.3635C70.4991 72.1608 70.1488 73.0058 69.8974 73.8823C69.8147 74.1707 69.6403 74.4243 69.4007 74.6047C69.1611 74.7852 68.8692 74.8828 68.5692 74.8827H65.3123C65.2539 74.8839 65.1982 74.9075 65.1568 74.9486C65.1154 74.9898 65.0914 75.0453 65.0898 75.1037V79.349C65.0913 79.4078 65.1154 79.4637 65.1569 79.5053C65.1985 79.5469 65.2545 79.5709 65.3133 79.5724H68.569C68.869 79.5723 69.1609 79.6699 69.4005 79.8504C69.6402 80.031 69.8145 80.2846 69.8972 80.573C70.1489 81.4494 70.4992 82.2943 70.9413 83.0918C71.0871 83.3542 71.1435 83.6571 71.1018 83.9544C71.0601 84.2518 70.9227 84.5275 70.7103 84.7397L68.4071 87.0432C68.3662 87.0851 68.3434 87.1414 68.3434 87.2C68.3434 87.2585 68.3662 87.3148 68.4071 87.3568L71.4087 90.359C71.4507 90.3998 71.507 90.4226 71.5656 90.4226C71.6242 90.4226 71.6804 90.3998 71.7225 90.359L74.0261 88.0547C74.2385 87.8425 74.5142 87.7051 74.8116 87.6635C75.1089 87.6218 75.4117 87.6781 75.6743 87.8238C76.4716 88.2661 77.3166 88.6164 78.193 88.868C78.4814 88.9508 78.735 89.1252 78.9156 89.3648C79.0961 89.6044 79.1939 89.8962 79.194 90.1963V93.4528C79.1956 93.5115 79.2196 93.5675 79.2612 93.6091C79.3028 93.6506 79.3587 93.6747 79.4175 93.6762H83.6628C83.7213 93.6745 83.777 93.6504 83.8183 93.6088C83.8595 93.5672 83.8832 93.5113 83.8844 93.4528V90.1963C83.8846 89.8963 83.9822 89.6045 84.1627 89.3649C84.3432 89.1254 84.5967 88.951 84.885 88.868C85.7614 88.6165 86.6064 88.2662 87.4037 87.8238C87.666 87.6783 87.9685 87.6222 88.2655 87.6638C88.5626 87.7055 88.8379 87.8427 89.0501 88.0547L91.3533 90.3582C91.3958 90.399 91.4524 90.4218 91.5113 90.4218C91.5703 90.4218 91.6269 90.399 91.6694 90.3582L94.6711 87.3562C94.6914 87.3356 94.7073 87.3113 94.7181 87.2845C94.7289 87.2578 94.7344 87.2292 94.7341 87.2004C94.7345 87.1712 94.7292 87.1423 94.7185 87.1152C94.7077 87.0881 94.6917 87.0634 94.6713 87.0425L92.3659 84.7391C92.1539 84.5266 92.0168 84.2509 91.9751 83.9537C91.9335 83.6565 91.9896 83.3537 92.1349 83.0912C92.5771 82.2935 92.9279 81.4486 93.1808 80.5724C93.2634 80.2842 93.4375 80.0307 93.6768 79.8502C93.9161 79.6697 94.2076 79.5719 94.5074 79.5716H97.7641C97.8229 79.57 97.8788 79.5459 97.9203 79.5044C97.9619 79.4628 97.9859 79.4069 97.9876 79.3482V75.1029C97.9859 75.0443 97.9618 74.9887 97.9202 74.9475C97.8785 74.9063 97.8227 74.8827 97.7641 74.8817H94.507C94.2073 74.8814 93.9158 74.7836 93.6765 74.6031C93.4373 74.4226 93.2632 74.1692 93.1806 73.8811C92.9272 73.0044 92.5764 72.159 92.1347 71.3605C91.9895 71.0983 91.9336 70.796 91.9753 70.4992C92.017 70.2024 92.1541 69.9272 92.3659 69.7152L94.6709 67.4121C94.7109 67.3692 94.7332 67.3128 94.7332 67.2541C94.7332 67.1955 94.7109 67.139 94.6709 67.0961L91.6688 64.0943C91.6262 64.0538 91.5697 64.0312 91.5109 64.0312C91.4522 64.0312 91.3957 64.0538 91.3531 64.0943L89.0501 66.3996C88.8376 66.6116 88.5619 66.7488 88.2647 66.7904C87.9674 66.8321 87.6647 66.776 87.4021 66.6305C86.6049 66.1874 85.7599 65.8365 84.8834 65.5844C84.5952 65.5019 84.3418 65.3279 84.1613 65.0886C83.9809 64.8493 83.8832 64.5577 83.8832 64.258V61.0015C83.8821 60.9431 83.8585 60.8873 83.8174 60.8457C83.7763 60.8041 83.7208 60.7799 83.6624 60.7781H79.4171C79.3582 60.7795 79.3022 60.8035 79.2606 60.8451C79.219 60.8867 79.195 60.9427 79.1936 61.0015ZM81.5383 66.6382C83.6326 66.6383 85.6798 67.2593 87.4211 68.4229C89.1624 69.5864 90.5196 71.2402 91.321 73.1751C92.1224 75.11 92.3321 77.239 91.9235 79.2931C91.5149 81.3471 90.5064 83.2338 89.0255 84.7147C87.5446 86.1956 85.6579 87.204 83.6038 87.6126C81.5498 88.0212 79.4207 87.8115 77.4858 87.01C75.551 86.2085 73.8972 84.8513 72.7337 83.11C71.5702 81.3687 70.9492 79.3214 70.9492 77.2271C70.9522 74.4197 72.0688 71.7281 74.054 69.7429C76.0392 67.7577 78.7308 66.6412 81.5383 66.6382Z" fill="#00ABEA"/>
</svg>
