<svg width="104" height="104" viewBox="0 0 104 104" fill="none" xmlns="http://www.w3.org/2000/svg">
<path fill-rule="evenodd" clip-rule="evenodd" d="M60.639 73.3809C60.3189 73.0636 59.8864 72.8855 59.4357 72.8855C58.985 72.8855 58.5525 73.0636 58.2324 73.3809L50.6534 80.9597C50.5251 81.0881 50.3728 81.1899 50.2052 81.2593C50.0376 81.3288 49.8579 81.3645 49.6765 81.3645C49.495 81.3645 49.3153 81.3288 49.1477 81.2593C48.9801 81.1899 48.8278 81.0881 48.6995 80.9597L45.7731 78.0327C45.4526 77.7171 45.0205 77.541 44.5707 77.5426C44.1209 77.5442 43.69 77.7235 43.3718 78.0413C43.0536 78.3592 42.8739 78.7899 42.8718 79.2396C42.8697 79.6894 43.0454 80.1218 43.3606 80.4426C44.2791 81.3601 45.1587 82.352 46.0093 83.3103C46.8068 84.2103 47.5606 85.059 48.2931 85.7913C48.6142 86.1087 49.0474 86.2867 49.4989 86.2867C49.9504 86.2867 50.3837 86.1087 50.7048 85.7913C52.3631 84.1332 54.0403 82.4379 55.6627 80.7978C57.2889 79.1537 58.9736 77.4544 60.6392 75.7868C60.9576 75.4673 61.1364 75.0347 61.1364 74.5837C61.1364 74.1327 60.9576 73.7001 60.6392 73.3807L60.639 73.3809ZM62.5931 71.4269C63.4293 72.2647 63.899 73.4001 63.899 74.5838C63.899 75.7676 63.4293 76.903 62.5931 77.7408C60.9311 79.4026 59.2517 81.1001 57.6273 82.7422C56.0029 84.3842 54.3232 86.0815 52.6574 87.7453C51.8189 88.5809 50.6834 89.05 49.4996 89.05C48.3159 89.05 47.1804 88.5809 46.3419 87.7453C45.5482 86.9531 44.7687 86.0756 43.9438 85.1441C43.1191 84.2164 42.268 83.255 41.4075 82.3966C40.5883 81.5551 40.1334 80.4249 40.1413 79.2505C40.1492 78.0761 40.6192 76.952 41.4496 76.1215C42.2801 75.2911 43.4041 74.8211 44.5785 74.8132C45.7529 74.8053 46.8832 75.2602 47.7247 76.0795L49.6768 78.0294L56.2783 71.4279C57.1161 70.5916 58.2515 70.1219 59.4353 70.1219C60.6191 70.1219 61.7544 70.5916 62.5923 71.4279L62.5931 71.4269ZM82.7595 44.929C82.7595 27.9681 68.9594 14.1704 51.9995 14.1704C35.0396 14.1704 21.2397 27.9687 21.2397 44.9294C21.241 49.6784 22.3414 54.3626 24.4547 58.6154C26.568 62.8683 29.637 66.5743 33.4213 69.4434C35.2437 66.1081 37.9304 63.3249 41.1993 61.386C44.4682 59.4471 48.1988 58.4239 51.9995 58.4239C55.8002 58.4239 59.5308 59.4471 62.7997 61.386C66.0686 63.3249 68.7553 66.1081 70.5777 69.4434C74.3615 66.5737 77.4301 62.8675 79.5435 58.6148C81.6568 54.362 82.7575 49.6779 82.7595 44.929ZM85.522 44.929C85.522 26.4446 70.4829 11.4073 51.9989 11.4073C33.5149 11.4073 18.4764 26.445 18.4764 44.9294C18.4778 50.3772 19.8062 55.7426 22.3469 60.5616C24.8875 65.3807 28.5638 69.5083 33.0579 72.5875C33.2883 72.7446 33.5608 72.8285 33.8397 72.8282H33.9679C34.233 72.8281 34.4924 72.7514 34.715 72.6076C34.9377 72.4637 35.1141 72.2587 35.2232 72.0172C36.6792 68.7941 39.0329 66.0587 42.0028 64.1381C44.9726 62.2176 48.4328 61.1933 51.9695 61.1876C55.5062 61.182 58.9696 62.1953 61.9456 64.1064C64.9215 66.0174 67.2839 68.7453 68.7502 71.9637C68.8606 72.2045 69.0377 72.4085 69.2605 72.5516C69.4833 72.6947 69.7425 72.7709 70.0073 72.7712H70.248C70.5274 72.7721 70.8003 72.687 71.0297 72.5274C75.4982 69.4434 79.1515 65.321 81.6759 60.5141C84.2003 55.7072 85.5203 50.3595 85.5226 44.93L85.522 44.929ZM90.914 44.929C90.9032 51.7339 89.1134 58.4176 85.7223 64.3173C82.3311 70.217 77.4564 75.1275 71.5818 78.5618C71.2563 78.6085 70.9581 78.7697 70.7407 79.0164C70.5232 79.2631 70.4009 79.5792 70.3955 79.908C70.2239 89.8769 61.9725 97.9861 51.9989 97.9861C42.0533 97.9861 33.8019 89.8999 33.6041 79.9604C33.5978 79.6596 33.4936 79.3692 33.3074 79.133C33.1211 78.8969 32.8628 78.7279 32.5718 78.6518C26.6544 75.2303 21.7396 70.3143 18.3196 64.396C14.8995 58.4777 13.0942 51.7648 13.0844 44.9294C13.0844 23.4709 30.542 6.0125 51.9999 6.0125C73.4578 6.0125 90.9146 23.4707 90.9146 44.929H90.914ZM93.6779 44.929C93.6808 52.1906 91.7856 59.3269 88.1802 65.6303C84.5748 71.9336 79.3844 77.1851 73.1237 80.8641C72.7987 86.2464 70.4314 91.3017 66.5052 94.9977C62.579 98.6937 57.3901 100.752 51.998 100.751C46.6058 100.751 41.4171 98.6923 37.4915 94.9958C33.5658 91.2992 31.1992 86.2436 30.8749 80.8612C24.6141 77.1832 19.4236 71.9324 15.8183 65.6295C12.2129 59.3266 10.3179 52.1906 10.3213 44.9294C10.3213 21.947 29.0179 3.25 51.9999 3.25C74.9819 3.25 93.6781 21.9472 93.6781 44.9294L93.6779 44.929ZM54.2587 45.8735C54.2588 46.3067 54.1305 46.7301 53.8899 47.0903C53.6494 47.4505 53.3075 47.7312 52.9074 47.8971C52.5073 48.063 52.067 48.1065 51.6422 48.0221C51.2174 47.9377 50.8271 47.7293 50.5208 47.4231C50.2144 47.117 50.0057 46.7269 49.9211 46.3021C49.8365 45.8773 49.8797 45.437 50.0453 45.0368C50.2109 44.6366 50.4914 44.2945 50.8515 44.0538C51.2115 43.813 51.6348 43.6844 52.0679 43.6843C52.6486 43.6847 53.2053 43.9155 53.616 44.3259C54.0267 44.7364 54.2578 45.2929 54.2587 45.8735ZM65.1086 45.3838C65.1086 45.7501 64.9631 46.1015 64.704 46.3605C64.445 46.6195 64.0937 46.7651 63.7273 46.7651H56.9399C56.7793 47.6431 56.3843 48.4614 55.7968 49.1334C55.2093 49.8054 54.4511 50.3061 53.6024 50.5826C52.7537 50.8591 51.846 50.901 50.9754 50.704C50.1048 50.5069 49.3037 50.0783 48.6567 49.4633C48.0098 48.8483 47.541 48.0699 47.3001 47.2104C47.0592 46.351 47.0551 45.4423 47.2882 44.5807C47.5213 43.7191 47.9829 42.9365 48.6243 42.3156C49.2657 41.6948 50.0629 41.2589 50.9317 41.054V27.7375C50.9317 27.3712 51.0772 27.0199 51.3362 26.7608C51.5953 26.5018 51.9466 26.3563 52.3129 26.3563C52.6792 26.3563 53.0306 26.5018 53.2896 26.7608C53.5486 27.0199 53.6942 27.3712 53.6942 27.7375V41.196C54.3573 41.4285 54.9637 41.7987 55.4735 42.2823C55.9833 42.7659 56.385 43.3519 56.6523 44.0017H63.7259C64.0922 44.0017 64.4436 44.1473 64.7026 44.4063C64.9616 44.6653 65.1072 45.0167 65.1072 45.383L65.1086 45.3838ZM34.7546 25.3847L37.5277 28.1576C37.6571 28.2856 37.76 28.4379 37.8304 28.6058C37.9007 28.7737 37.9372 28.9538 37.9378 29.1359C37.9383 29.3179 37.9028 29.4982 37.8334 29.6665C37.764 29.8348 37.662 29.9877 37.5333 30.1165C37.4046 30.2452 37.2517 30.3472 37.0834 30.4166C36.9151 30.4861 36.7348 30.5216 36.5527 30.5211C36.3707 30.5206 36.1905 30.4841 36.0226 30.4137C35.8547 30.3433 35.7024 30.2405 35.5744 30.111L32.8013 27.3386C32.5422 27.0795 32.3967 26.728 32.3967 26.3616C32.3967 25.9952 32.5423 25.6437 32.8014 25.3846C33.0606 25.1255 33.412 24.98 33.7784 24.98C34.1449 24.98 34.4963 25.1256 34.7554 25.3847H34.7546ZM29.908 43.3028C30.2744 43.3028 30.6257 43.4483 30.8847 43.7074C31.1438 43.9664 31.2893 44.3177 31.2893 44.684C31.2893 45.0504 31.1438 45.4017 30.8847 45.6607C30.6257 45.9198 30.2744 46.0653 29.908 46.0653H25.9863C25.62 46.0653 25.2686 45.9198 25.0096 45.6607C24.7506 45.4017 24.605 45.0504 24.605 44.684C24.605 44.3177 24.7506 43.9664 25.0096 43.7074C25.2686 43.4483 25.62 43.3028 25.9863 43.3028H29.908ZM35.2262 59.4009C35.3546 59.2726 35.5069 59.1708 35.6746 59.1014C35.8423 59.0319 36.022 58.9962 36.2034 58.9962C36.3849 58.9962 36.5646 59.032 36.7322 59.1015C36.8999 59.1709 37.0522 59.2727 37.1805 59.4011C37.3088 59.5294 37.4106 59.6817 37.48 59.8494C37.5494 60.0171 37.5852 60.1968 37.5852 60.3782C37.5851 60.5597 37.5494 60.7394 37.4799 60.907C37.4104 61.0747 37.3086 61.227 37.1803 61.3553L34.4072 64.1282C34.279 64.2565 34.1266 64.3582 33.959 64.4277C33.7914 64.4971 33.6117 64.5328 33.4303 64.5328C33.2489 64.5328 33.0692 64.4971 32.9016 64.4277C32.734 64.3582 32.5817 64.2565 32.4534 64.1282C32.3251 63.9999 32.2233 63.8476 32.1539 63.68C32.0845 63.5123 32.0487 63.3327 32.0487 63.1513C32.0487 62.9698 32.0845 62.7902 32.1539 62.6225C32.2233 62.4549 32.3251 62.3026 32.4534 62.1743L35.2262 59.4009ZM68.4238 59.7462L71.1966 62.5188C71.3249 62.6471 71.4267 62.7994 71.4961 62.967C71.5656 63.1347 71.6013 63.3143 71.6013 63.4958C71.6013 63.6772 71.5656 63.8568 71.4961 64.0245C71.4267 64.1921 71.3249 64.3444 71.1966 64.4727C71.0683 64.601 70.916 64.7027 70.7484 64.7722C70.5808 64.8416 70.4011 64.8773 70.2197 64.8773C70.0383 64.8773 69.8586 64.8416 69.691 64.7722C69.5234 64.7027 69.3711 64.601 69.2428 64.4727L66.4705 61.7006C66.2115 61.4415 66.0659 61.0901 66.066 60.7237C66.066 60.3573 66.2116 60.0059 66.4707 59.7468C66.7299 59.4877 67.0813 59.3422 67.4477 59.3422C67.8141 59.3423 68.1655 59.4879 68.4246 59.747L68.4238 59.7462ZM78.0113 43.7917C78.3776 43.7917 78.7289 43.9372 78.988 44.1963C79.247 44.4553 79.3925 44.8066 79.3925 45.173C79.3925 45.5393 79.247 45.8906 78.988 46.1497C78.7289 46.4087 78.3776 46.5542 78.0113 46.5542H74.091C73.7246 46.5542 73.3733 46.4087 73.1143 46.1497C72.8552 45.8906 72.7097 45.5393 72.7097 45.173C72.7097 44.8066 72.8552 44.4553 73.1143 44.1963C73.3733 43.9372 73.7246 43.7917 74.091 43.7917H78.0113ZM69.5899 25.7302C69.849 25.4712 70.2003 25.3256 70.5667 25.3255C70.9331 25.3255 71.2845 25.471 71.5436 25.73C71.8027 25.9891 71.9483 26.3405 71.9483 26.7068C71.9483 27.0732 71.8028 27.4246 71.5438 27.6837L68.7699 30.4568C68.5108 30.7159 68.1594 30.8614 67.793 30.8615C67.4266 30.8615 67.0752 30.7159 66.8161 30.4569C66.557 30.1978 66.4115 29.8464 66.4115 29.48C66.4114 29.1136 66.557 28.7622 66.816 28.5031L69.5899 25.7302ZM50.8618 22.8357V18.9154C50.8618 18.5491 51.0073 18.1978 51.2664 17.9387C51.5254 17.6797 51.8767 17.5342 52.243 17.5342C52.6094 17.5342 52.9607 17.6797 53.2197 17.9387C53.4788 18.1978 53.6243 18.5491 53.6243 18.9154V22.8357C53.6243 23.202 53.4788 23.5534 53.2197 23.8124C52.9607 24.0714 52.6094 24.217 52.243 24.217C51.8767 24.217 51.5254 24.0714 51.2664 23.8124C51.0073 23.5534 50.8618 23.202 50.8618 22.8357Z" fill="#231F20"/>
<path fill-rule="evenodd" clip-rule="evenodd" d="M51.9995 97.9874C61.9729 97.9874 70.2245 89.8775 70.3961 79.9093C70.4015 79.5805 70.5238 79.2644 70.7412 79.0177C70.9586 78.771 71.2569 78.6099 71.5824 78.5632C77.4572 75.1288 82.3319 70.218 85.723 64.318C89.1141 58.4181 90.9036 51.734 90.9142 44.929C90.9142 23.4706 73.457 6.01245 51.9995 6.01245C30.542 6.01245 13.084 23.4708 13.084 44.9294C13.0937 51.765 14.8991 58.4781 18.3192 64.3965C21.7394 70.315 26.6543 75.2311 32.572 78.6526C32.863 78.7287 33.1212 78.8976 33.3075 79.1338C33.4938 79.3699 33.598 79.6604 33.6043 79.9611C33.8021 89.9006 42.0543 97.9868 51.9991 97.9868L51.9995 97.9874ZM62.5922 77.7414C60.9303 79.4031 59.2508 81.1007 57.6264 82.7427C56.0021 84.3848 54.3224 86.0821 52.6566 87.7459C51.8181 88.5814 50.6826 89.0506 49.4988 89.0506C48.3151 89.0506 47.1796 88.5814 46.341 87.7459C45.5474 86.9537 44.7678 86.0762 43.9429 85.1447C43.1182 84.217 42.2672 83.2556 41.4067 82.3972C40.5875 81.5557 40.1326 80.4254 40.1405 79.251C40.1483 78.0766 40.6184 76.9526 41.4488 76.1221C42.2793 75.2917 43.4033 74.8216 44.5777 74.8138C45.7521 74.8059 46.8824 75.2608 47.7239 76.08L49.6759 78.03L56.2775 71.4285C56.6921 71.0139 57.1842 70.6851 57.7259 70.4608C58.2676 70.2365 58.8481 70.121 59.4343 70.1211C60.0206 70.1211 60.6011 70.2366 61.1428 70.461C61.6844 70.6854 62.1765 71.0143 62.591 71.4289C63.0056 71.8434 63.3344 72.3356 63.5587 72.8773C63.783 73.4189 63.8984 73.9994 63.8984 74.5857C63.8984 75.172 63.7829 75.7525 63.5585 76.2941C63.3341 76.8357 63.0052 77.3279 62.5906 77.7424L62.5922 77.7414ZM51.9995 61.1875C48.4586 61.1916 44.9938 62.215 42.0189 64.1354C39.044 66.0558 36.6848 68.792 35.2232 72.0171C35.1141 72.2587 34.9376 72.4637 34.715 72.6075C34.4923 72.7514 34.233 72.828 33.9679 72.8282H33.8401C33.5612 72.8284 33.2887 72.7445 33.0583 72.5875C28.5641 69.5084 24.8876 65.3808 22.3468 60.5617C19.806 55.7427 18.4774 50.3772 18.4759 44.9294C18.4759 26.445 33.5155 11.4072 51.9991 11.4072C70.4826 11.4072 85.5222 26.4452 85.5222 44.929C85.5199 50.3584 84.1998 55.7062 81.6755 60.5131C79.1511 65.3199 75.4978 69.4424 71.0292 72.5263C70.7999 72.6859 70.527 72.771 70.2476 72.7701H70.0069C69.7421 72.7699 69.4829 72.6937 69.2601 72.5506C69.0372 72.4074 68.8601 72.2034 68.7498 71.9627C67.2812 68.7523 64.9224 66.0307 61.9534 64.1208C58.9844 62.2109 55.5298 61.1928 51.9995 61.1875Z" fill="#00ABEA"/>
</svg>
