<svg width="104" height="104" viewBox="0 0 104 104" fill="none" xmlns="http://www.w3.org/2000/svg">
<path fill-rule="evenodd" clip-rule="evenodd" d="M46.1409 51.0723H22.6613C22.295 51.0723 21.9436 51.2178 21.6846 51.4769C21.4256 51.7359 21.28 52.0872 21.28 52.4536C21.28 52.8199 21.4256 53.1712 21.6846 53.4303C21.9436 53.6893 22.295 53.8348 22.6613 53.8348H46.1409C46.5073 53.8348 46.8586 53.6893 47.1176 53.4303C47.3766 53.1712 47.5222 52.8199 47.5222 52.4536C47.5222 52.0872 47.3766 51.7359 47.1176 51.4769C46.8586 51.2178 46.5073 51.0723 46.1409 51.0723ZM46.1409 42.4903H22.6613C22.2948 42.4903 21.9434 42.6359 21.6842 42.895C21.4251 43.1541 21.2795 43.5056 21.2795 43.8721C21.2795 44.2385 21.4251 44.59 21.6842 44.8491C21.9434 45.1082 22.2948 45.2538 22.6613 45.2538H46.1409C46.5073 45.2538 46.8586 45.1083 47.1176 44.8493C47.3766 44.5902 47.5222 44.2389 47.5222 43.8726C47.5222 43.5062 47.3766 43.1549 47.1176 42.8959C46.8586 42.6368 46.5073 42.4913 46.1409 42.4913V42.4903ZM46.1409 34.9763H22.6613C22.295 34.9763 21.9436 35.1218 21.6846 35.3809C21.4256 35.6399 21.28 35.9912 21.28 36.3575C21.28 36.7239 21.4256 37.0752 21.6846 37.3342C21.9436 37.5933 22.295 37.7388 22.6613 37.7388H46.1409C46.5073 37.7388 46.8586 37.5933 47.1176 37.3342C47.3766 37.0752 47.5222 36.7239 47.5222 36.3575C47.5222 35.9912 47.3766 35.6399 47.1176 35.3809C46.8586 35.1218 46.5073 34.9763 46.1409 34.9763ZM24.2694 27.6358H30.271V21.6328H24.2694V27.635V27.6358ZM21.5069 29.017V20.2516C21.5072 19.8853 21.6528 19.5341 21.9118 19.2752C22.1708 19.0162 22.5219 18.8706 22.8882 18.8703H31.653C32.0192 18.8707 32.3704 19.0163 32.6293 19.2753C32.8883 19.5342 33.0339 19.8853 33.0343 20.2516V29.017C33.034 29.3832 32.8883 29.7344 32.6294 29.9934C32.3704 30.2523 32.0193 30.3979 31.653 30.3983H22.8878C22.5216 30.3979 22.1704 30.2523 21.9114 29.9934C21.6525 29.7344 21.5069 29.3832 21.5065 29.017H21.5069ZM49.9507 56.1844C49.9507 56.9305 49.4322 57.562 48.8183 57.562H19.3969C18.7832 57.562 18.2645 56.9302 18.2645 56.1842V16.5216C18.2645 15.7755 18.7832 15.1458 19.3971 15.1458H37.5613L37.5995 27.3674C37.6005 27.7331 37.7465 28.0834 38.0054 28.3416C38.2644 28.5998 38.6151 28.7448 38.9808 28.7448H49.9495V56.1844H49.9507ZM14.6909 53.6085C14.0768 53.6085 13.5585 52.9768 13.5585 52.2307V12.5682C13.5585 11.8221 14.0772 11.1924 14.6909 11.1924H33.6221L34.7066 12.3825H19.3969C17.249 12.3825 15.5011 14.2399 15.5011 16.5216V53.6085H14.6909ZM10.7951 48.4289H8.47952C7.86567 48.4289 7.3473 47.7992 7.3473 47.0511V7.39091C7.3473 6.6428 7.86567 6.01311 8.47952 6.01311H27.4165L29.6447 8.42969H14.6907C12.5426 8.42969 10.7951 10.2869 10.7951 12.5684V48.4293V48.4289ZM40.3315 17.3424L40.3584 25.9817H48.2041L40.3315 17.3424ZM52.3535 26.4318C52.5857 26.6866 52.7142 27.0189 52.7138 27.3636V56.1844C52.7138 58.4679 50.967 60.3253 48.8183 60.3253H19.3971C17.3083 60.3253 15.6033 58.5666 15.5103 56.3719H14.6909C12.5426 56.3719 10.7951 54.5145 10.7951 52.231V51.1928H8.47952C6.33147 51.1928 4.58398 49.3354 4.58398 47.0519V7.39091C4.58297 5.10717 6.33045 3.25 8.4785 3.25H28.0205C28.2113 3.25012 28.4 3.28964 28.5747 3.36608C28.7495 3.44253 28.9066 3.55424 29.0362 3.69423L33.4044 8.42969H34.2329C34.425 8.4298 34.615 8.46988 34.7908 8.54737C34.9666 8.62486 35.1244 8.73807 35.254 8.87981L38.4453 12.3825H38.9389C39.1311 12.3821 39.3213 12.4219 39.4971 12.4995C39.673 12.577 39.8307 12.6905 39.96 12.8326L52.3535 26.4318ZM80.2273 73.0996C80.2275 71.4263 79.7315 69.7905 78.802 68.399C77.8726 67.0076 76.5513 65.923 75.0055 65.2825C73.4596 64.6419 71.7585 64.4741 70.1173 64.8004C68.476 65.1266 66.9684 65.9322 65.785 67.1153C64.6017 68.2983 63.7957 69.8058 63.469 71.4469C63.1423 73.088 63.3096 74.7892 63.9498 76.3352C64.5899 77.8813 65.6741 79.2028 67.0653 80.1326C68.4565 81.0625 70.0922 81.5589 71.7655 81.5592C74.0087 81.5569 76.1593 80.665 77.7456 79.0791C79.332 77.4931 80.2245 75.3427 80.2273 73.0996ZM82.9898 73.0996C82.9896 75.3194 82.3312 77.4893 81.0978 79.3349C79.8645 81.1805 78.1115 82.6189 76.0607 83.4683C74.0098 84.3177 71.7532 84.5399 69.576 84.1068C67.3989 83.6736 65.3991 82.6047 63.8295 81.0351C62.2598 79.4654 61.1909 77.4656 60.7578 75.2885C60.3247 73.1114 60.5469 70.8547 61.3962 68.8039C62.2456 66.753 63.6841 65.0001 65.5297 63.7667C67.3753 62.5333 69.5452 61.8749 71.7649 61.8747C74.741 61.8778 77.5943 63.0615 79.6987 65.1659C81.8031 67.2703 82.9867 70.1235 82.9898 73.0996ZM96.3254 94.3292L88.8427 86.8467L85.5159 90.1743L92.9986 97.657C93.6045 98.2629 94.9131 98.0163 95.7991 97.1301C96.2581 96.6857 96.5565 96.1012 96.6471 95.4688C96.6768 95.1943 96.6748 94.6792 96.3256 94.3298L96.3254 94.3292ZM82.7024 85.7474L84.368 87.4152L86.0794 85.7039L84.4097 84.042C84.147 84.344 83.8787 84.6402 83.5925 84.9243C83.3063 85.2126 83.0063 85.485 82.7024 85.7474ZM71.7676 87.0594C68.538 87.0589 65.4086 85.9387 62.9124 83.8895C60.4162 81.8404 58.7077 78.9891 58.0781 75.8215C57.4485 72.654 57.9366 69.3661 59.4594 66.5181C60.9821 63.6701 63.4453 61.4382 66.4291 60.2026C69.413 58.9671 72.7329 58.8044 75.8233 59.7422C78.9137 60.68 81.5833 62.6604 83.3772 65.3458C85.1712 68.0313 85.9785 71.2557 85.6616 74.4697C85.3447 77.6836 83.9233 80.6883 81.6395 82.9717C80.3462 84.2722 78.8077 85.3032 77.1132 86.0049C75.4186 86.7066 73.6017 87.065 71.7676 87.0594ZM97.7523 99.0844C96.7424 100.123 95.3636 100.722 93.9151 100.75C93.3848 100.76 92.8579 100.664 92.3649 100.469C91.8719 100.273 91.4226 99.9818 91.0433 99.6111L83.1879 91.7575C82.9606 91.5252 82.7886 91.2447 82.6847 90.9368C82.5808 90.6289 82.5477 90.3016 82.5878 89.9791C82.6016 89.855 82.6254 89.7323 82.6589 89.612L80.4463 87.3992C76.9536 89.5167 72.8061 90.2812 68.788 89.5482C64.7699 88.8152 61.1595 86.6356 58.6394 83.4213C56.1193 80.207 54.8641 76.1808 55.111 72.1038C55.358 68.0268 57.0901 64.1816 59.9798 61.2951C62.8695 58.4085 66.7166 56.6806 70.7938 56.4381C74.871 56.1955 78.8959 57.4551 82.1074 59.9787C85.319 62.5023 87.4947 66.115 88.2233 70.134C88.9519 74.1529 88.1829 78.2995 86.0617 81.7899L88.2757 83.9906C88.3976 83.9583 88.5216 83.9346 88.6469 83.9197C88.969 83.8793 89.2962 83.9123 89.6038 84.0162C89.9114 84.1201 90.1915 84.2922 90.4232 84.5197L98.2788 92.3752C99.9822 94.0786 99.7474 97.0887 97.7519 99.0842L97.7523 99.0844ZM60.1283 25.3837H88.9828V46.1094L88.2959 45.4244C88.1686 45.2922 88.0162 45.1867 87.8476 45.114C87.6791 45.0414 87.4977 45.003 87.3142 45.0013C87.1307 44.9995 86.9486 45.0343 86.7787 45.1037C86.6088 45.1731 86.4544 45.2756 86.3246 45.4053C86.1947 45.5351 86.092 45.6894 86.0225 45.8593C85.953 46.0291 85.918 46.2111 85.9196 46.3947C85.9213 46.5782 85.9594 46.7596 86.032 46.9282C86.1045 47.0968 86.2099 47.2493 86.342 47.3767L89.3875 50.426C89.5157 50.5543 89.6681 50.6561 89.8357 50.7255C90.0034 50.7949 90.183 50.8306 90.3645 50.8306H90.3909C90.5766 50.827 90.7597 50.786 90.9293 50.71C91.0988 50.6341 91.2513 50.5248 91.3777 50.3886L94.4174 47.1159C94.5409 46.9829 94.637 46.8269 94.7002 46.6568C94.7634 46.4867 94.7925 46.3058 94.7858 46.1244C94.7791 45.9431 94.7367 45.7648 94.6611 45.5999C94.5855 45.4349 94.4782 45.2864 94.3452 45.1629C94.2122 45.0394 94.0563 44.9433 93.8861 44.8801C93.716 44.8169 93.5351 44.7878 93.3538 44.7946C93.1724 44.8013 92.9942 44.8436 92.8292 44.9192C92.6642 44.9948 92.5158 45.1021 92.3923 45.2351L91.7469 45.9298V24.0019C91.7465 23.6357 91.6008 23.2846 91.3419 23.0257C91.0829 22.7668 90.7319 22.6211 90.3657 22.6206H60.1283C59.9469 22.6206 59.7673 22.6563 59.5997 22.7258C59.4321 22.7952 59.2799 22.8969 59.1516 23.0252C59.0234 23.1534 58.9216 23.3057 58.8522 23.4733C58.7828 23.6409 58.7471 23.8205 58.7471 24.0019C58.7471 24.1832 58.7828 24.3629 58.8522 24.5304C58.9216 24.698 59.0234 24.8503 59.1516 24.9786C59.2799 25.1068 59.4321 25.2086 59.5997 25.278C59.7673 25.3474 59.9469 25.3831 60.1283 25.3831V25.3837ZM50.3627 91.8503C50.3627 92.2166 50.2171 92.5679 49.9581 92.827C49.6991 93.086 49.3478 93.2315 48.9814 93.2315H15.5099C15.1435 93.2315 14.7922 93.086 14.5332 92.827C14.2741 92.5679 14.1286 92.2166 14.1286 91.8503V73.048L13.35 73.8402C13.2233 73.9712 13.0719 74.0758 12.9045 74.148C12.7371 74.2202 12.5571 74.2585 12.3748 74.2608C12.1925 74.2631 12.0116 74.2293 11.8425 74.1614C11.6733 74.0934 11.5193 73.9927 11.3893 73.8649C11.2593 73.7371 11.1559 73.5849 11.085 73.417C11.0141 73.249 10.9771 73.0687 10.9762 72.8864C10.9753 72.7042 11.0105 72.5235 11.0798 72.3549C11.149 72.1863 11.251 72.033 11.3797 71.904L14.5268 68.7044C14.6542 68.5746 14.8061 68.4714 14.9737 68.4006C15.1413 68.3298 15.3213 68.2929 15.5032 68.292C15.8698 68.2935 16.2216 68.4372 16.4845 68.6928L19.6425 71.825C19.9026 72.0831 20.0496 72.4339 20.0511 72.8004C20.0526 73.1668 19.9085 73.5189 19.6504 73.7791C19.3923 74.0392 19.0414 74.1862 18.675 74.1877C18.3085 74.1892 17.9565 74.0451 17.6963 73.787L16.8911 72.9875V90.4692H48.9808C49.3471 90.4693 49.6984 90.6149 49.9575 90.8738C50.2166 91.1328 50.3624 91.484 50.3627 91.8503Z" fill="#231F20"/>
<path fill-rule="evenodd" clip-rule="evenodd" d="M81.6382 63.2267C79.3541 60.9427 76.3487 59.5213 73.1341 59.2047C69.9195 58.8881 66.6945 59.6959 64.0087 61.4906C61.323 63.2852 59.3425 65.9555 58.4049 69.0466C57.4672 72.1377 57.6304 75.4582 58.8665 78.4425C60.1027 81.4268 62.3353 83.8902 65.1841 85.4129C68.0328 86.9355 71.3214 87.4234 74.4895 86.7932C77.6576 86.163 80.5092 84.4539 82.5584 81.9569C84.6076 79.46 85.7277 76.3298 85.7277 73.0996C85.7262 69.3968 84.2554 65.846 81.6382 63.2267ZM71.7653 61.8747C73.9852 61.8745 76.1553 62.5325 78.0012 63.7656C79.8471 64.9987 81.2859 66.7515 82.1356 68.8023C82.9853 70.8531 83.2078 73.1099 82.775 75.2871C82.3421 77.4644 81.2733 79.4644 79.7038 81.0343C78.1343 82.6041 76.1344 83.6733 73.9573 84.1066C71.7801 84.5399 69.5233 84.3178 67.4723 83.4685C65.4213 82.6192 63.6683 81.1807 62.4348 79.3351C61.2013 77.4894 60.5429 75.3195 60.5427 73.0996C60.5458 70.1239 61.7291 67.271 63.8331 65.1667C65.937 63.0624 68.7896 61.8785 71.7653 61.8747Z" fill="#00ABEA"/>
<path fill-rule="evenodd" clip-rule="evenodd" d="M88.8424 86.8467L85.5156 90.1743L92.9983 97.657C93.6043 98.2629 94.9128 98.0163 95.7988 97.1301C96.2579 96.6856 96.5562 96.1012 96.6469 95.4687C96.6765 95.1943 96.6745 94.6792 96.3253 94.3298L88.8424 86.8467Z" fill="#00ABEA"/>
<path fill-rule="evenodd" clip-rule="evenodd" d="M10.7955 48.4292V12.5679C10.7955 10.2864 12.5424 8.42923 14.6911 8.42923H29.6451L27.4158 6.01245H8.4789C7.86505 6.01245 7.34668 6.64214 7.34668 7.39025V47.0516C7.34668 47.7997 7.86505 48.4294 8.4789 48.4294L10.7955 48.4292Z" fill="#00ABEA"/>
<path fill-rule="evenodd" clip-rule="evenodd" d="M13.5586 12.5681V52.2307C13.5586 52.9768 14.077 53.6085 14.691 53.6085H15.5013V16.5215C15.5013 14.2398 17.2492 12.3825 19.397 12.3825H34.7072L33.6227 11.1921H14.6914C14.077 11.1921 13.5586 11.8218 13.5586 12.5681Z" fill="#00ABEA"/>
<path fill-rule="evenodd" clip-rule="evenodd" d="M40.332 17.3423L40.3588 25.9816H48.2045L40.332 17.3423Z" fill="#00ABEA"/>
<path d="M24.2695 21.6335H30.2711V27.6357H24.2695V21.6335Z" fill="#00ABEA"/>
</svg>
