<svg width="104" height="104" viewBox="0 0 104 104" fill="none" xmlns="http://www.w3.org/2000/svg">
<path fill-rule="evenodd" clip-rule="evenodd" d="M57.6146 26.3623V45.7626L39.7419 56.2117C38.1694 53.1127 37.4084 49.6655 37.53 46.1925C37.6516 42.7195 38.6517 39.334 40.4369 36.3524C42.2222 33.3709 44.7342 30.8906 47.7383 29.1435C50.7424 27.3965 54.1403 26.4396 57.6146 26.3623ZM58.0765 67.476C60.875 67.4787 63.6443 66.9088 66.2142 65.8011C68.7841 64.6935 71.1002 63.0717 73.0198 61.0355L58.9027 48.21L41.1585 58.5842C43.0472 61.3258 45.5738 63.5674 48.5207 65.1163C51.4676 66.6652 54.7467 67.475 58.0759 67.476H58.0765ZM58.0765 70.2385C61.5033 70.2417 64.8884 69.4881 67.9901 68.0316C71.0918 66.575 73.8336 64.4514 76.0196 61.8125C76.2476 61.539 76.3611 61.1879 76.3365 60.8327C76.3119 60.4775 76.1511 60.1454 75.8876 59.906L60.3777 45.815V24.9965C60.3776 24.64 60.2397 24.2975 59.9929 24.0403C59.746 23.7832 59.4093 23.6315 59.0532 23.6169C58.7079 23.601 58.3879 23.5951 58.0761 23.5951C55.0076 23.5861 51.9675 24.1826 49.13 25.3506C46.2925 26.5186 43.7133 28.2351 41.5404 30.4016C39.3674 32.5682 37.6434 35.1423 36.467 37.9763C35.2906 40.8104 34.6851 43.8487 34.6851 46.9172C34.6851 49.9857 35.2906 53.0241 36.467 55.8581C37.6434 58.6922 39.3674 61.2663 41.5404 63.4328C43.7133 65.5994 46.2925 67.3158 49.13 68.4838C51.9675 69.6518 55.0076 70.2484 58.0761 70.2393L58.0765 70.2385ZM66.8162 27.2674C69.4796 28.0762 71.936 29.4527 74.0163 31.302C76.0966 33.1513 77.7513 35.4296 78.8666 37.9798C79.9818 40.5301 80.531 43.2918 80.4764 46.0747C80.4218 48.8577 79.7646 51.5957 78.5501 54.1002L66.8162 43.4396V27.2682V27.2674ZM77.9956 57.3299L64.5067 45.075C64.3641 44.9455 64.2501 44.7877 64.172 44.6116C64.0939 44.4355 64.0534 44.2451 64.0531 44.0525V25.4913C64.0531 25.286 64.0988 25.0833 64.1869 24.8979C64.2749 24.7125 64.4032 24.5491 64.5624 24.4194C64.7215 24.2897 64.9075 24.1972 65.1069 24.1484C65.3063 24.0996 65.514 24.0958 65.7151 24.1373C69.1548 24.8536 72.3732 26.3827 75.1013 28.5969C77.8295 30.811 79.9881 33.6459 81.397 36.8646C82.8058 40.0834 83.4239 43.5925 83.1997 47.0989C82.9754 50.6053 81.9153 54.0071 80.1079 57.0202C80.0025 57.1951 79.8597 57.3445 79.6898 57.4578C79.5198 57.5711 79.327 57.6454 79.125 57.6754C79.0589 57.6849 78.9922 57.6895 78.9255 57.6893C78.5817 57.6893 78.2503 57.5612 77.996 57.3299H77.9956ZM96.7881 59.5011C99.539 51.235 99.5051 42.295 96.6916 34.05C93.8781 25.8049 88.44 18.7091 81.2098 13.8488C81.0591 13.7477 80.89 13.6773 80.7121 13.6415C80.5341 13.6058 80.3509 13.6055 80.1728 13.6406C79.9948 13.6756 79.8254 13.7455 79.6743 13.846C79.5232 13.9466 79.3934 14.0759 79.2923 14.2266C79.1912 14.3773 79.1208 14.5465 79.0851 14.7244C79.0494 14.9023 79.049 15.0855 79.0841 15.2636C79.1192 15.4416 79.189 15.6111 79.2896 15.7621C79.3901 15.9132 79.5194 16.043 79.6702 16.1441C86.7112 20.8739 91.9171 27.8754 94.4192 35.9801C96.9213 44.0848 96.5682 52.8025 93.4188 60.6783C90.2693 68.5541 84.5141 75.1116 77.1136 79.2564C69.7131 83.4012 61.1149 84.8826 52.7541 83.4534L55.0435 82.2239C55.3665 82.0507 55.6075 81.7563 55.7134 81.4054C55.8194 81.0545 55.7816 80.6759 55.6084 80.3529C55.4352 80.0299 55.1407 79.7889 54.7899 79.683C54.439 79.577 54.0604 79.6148 53.7374 79.788L48.1718 82.7766C47.994 82.8717 47.8392 83.0046 47.7182 83.1658C47.5972 83.3271 47.5129 83.5128 47.4713 83.7101C47.4296 83.9074 47.4317 84.1114 47.4772 84.3078C47.5227 84.5042 47.6107 84.6882 47.7348 84.8471L51.8443 90.0916C51.9738 90.2565 52.1393 90.3899 52.3281 90.4814C52.5169 90.5729 52.724 90.6202 52.9338 90.6197C53.2425 90.6206 53.5423 90.5169 53.7845 90.3255C53.9274 90.2137 54.0469 90.0747 54.1361 89.9166C54.2253 89.7585 54.2824 89.5844 54.3043 89.4042C54.3261 89.224 54.3122 89.0412 54.2634 88.8664C54.2146 88.6916 54.1318 88.5281 54.0197 88.3853L52.2848 86.1737C61.6661 87.7798 71.3123 85.9728 79.4762 81.08C87.64 76.1872 93.7815 68.5323 96.7881 59.5019V59.5011ZM23.3775 64.7383C23.5413 65.066 23.8286 65.3152 24.1762 65.431C24.5237 65.5469 24.903 65.5199 25.2307 65.3561C25.5584 65.1923 25.8076 64.905 25.9234 64.5574C26.0393 64.2099 26.0124 63.8306 25.8485 63.5029C16.704 45.2239 24.1354 22.9124 42.4144 13.7679C49.5322 10.2009 57.611 9.02553 65.4502 10.4164L63.3186 11.5592C62.9955 11.7325 62.7546 12.027 62.6487 12.378C62.5428 12.7289 62.5807 13.1076 62.754 13.4306C62.9273 13.7537 63.2218 13.9947 63.5728 14.1005C63.9238 14.2064 64.3024 14.1685 64.6255 13.9952L70.0057 11.1076C70.1832 11.0122 70.3377 10.8792 70.4584 10.7178C70.5792 10.5565 70.6631 10.3707 70.7045 10.1735C70.7459 9.97623 70.7437 9.77234 70.698 9.57606C70.6524 9.37978 70.5644 9.19586 70.4402 9.03716L66.3208 3.77805C66.0945 3.48964 65.763 3.30294 65.399 3.25899C65.0351 3.21505 64.6686 3.31748 64.3802 3.54374C64.0918 3.77001 63.9051 4.10157 63.8612 4.4655C63.8172 4.82942 63.9197 5.19589 64.1459 5.4843L65.8686 7.68313C57.4634 6.20735 48.8064 7.47442 41.1767 11.2971C21.5358 21.1245 13.5517 45.0971 23.3775 64.7393V64.7383ZM33.264 81.2369L17.5805 96.9204C15.8219 98.6795 12.3677 98.1977 10.0387 95.8686C8.89452 94.7649 8.15834 93.3059 7.95037 91.7298C7.79864 90.3558 8.16548 89.148 8.98631 88.327L24.6676 72.6458C24.6983 72.6313 24.7324 72.6253 24.7663 72.6283C25.0195 72.6451 25.2567 72.758 25.4295 72.9439L32.9634 80.4776C33.2949 80.8112 33.3048 81.1746 33.2634 81.2375L33.264 81.2369ZM36.3568 69.5499C37.2541 70.4468 38.2037 71.2898 39.2005 72.0746L33.8338 77.4411L28.4672 72.0744L33.8482 66.7265C34.6282 67.7161 35.4659 68.6589 36.3568 69.5499ZM38.3109 26.2217C26.9044 37.6282 26.9046 56.1894 38.3109 67.5961C49.7171 79.0028 68.2787 79.0023 79.685 67.5961C91.0913 56.1898 91.0937 37.6282 79.685 26.2219C74.1944 20.7429 66.7546 17.6658 58.9979 17.6658C51.2413 17.6658 43.8014 20.7429 38.3109 26.2219V26.2217ZM35.6499 79.5333L41.4745 73.7107C47.6327 77.7238 54.9823 79.5003 62.2936 78.7429C69.6049 77.9855 76.4342 74.7402 81.639 69.5499C94.1233 57.0657 94.1231 36.7517 81.639 24.2677C69.155 11.7836 48.8409 11.7836 36.3568 24.2677C25.4559 35.1688 24.074 52.0406 32.213 64.4555L26.3736 70.2609C25.1203 69.6312 23.6517 69.7557 22.7161 70.6893L7.03265 86.3727C5.60753 87.7999 4.95814 89.8092 5.2029 92.0336C5.48205 94.2334 6.49777 96.2739 8.08464 97.8227C10.0143 99.7524 12.4742 100.752 14.7697 100.75C16.572 100.75 18.2732 100.136 19.5344 98.8747L35.2181 83.191C35.526 82.8737 35.7584 82.491 35.8978 82.0713C36.0372 81.6517 36.0801 81.206 36.0233 80.7675C35.9734 80.3373 35.8471 79.9195 35.6503 79.5337L35.6499 79.5333Z" fill="#231F20"/>
<path fill-rule="evenodd" clip-rule="evenodd" d="M57.6138 45.7626V26.3623C54.1395 26.4396 50.7415 27.3965 47.7375 29.1436C44.7334 30.8906 42.2214 33.3709 40.4361 36.3524C38.6509 39.334 37.6507 42.7195 37.5292 46.1925C37.4076 49.6655 38.1686 53.1127 39.741 56.2117L57.6138 45.7626Z" fill="#00ABEA"/>
<path fill-rule="evenodd" clip-rule="evenodd" d="M58.9024 48.21L41.1582 58.5842C42.8959 61.107 45.1757 63.2094 47.8308 64.7374C50.4859 66.2654 53.4491 67.1804 56.5034 67.4154C59.5578 67.6504 62.626 67.1995 65.4836 66.0956C68.3412 64.9917 70.9158 63.2628 73.019 61.0355L58.9024 48.21Z" fill="#00ABEA"/>
<path fill-rule="evenodd" clip-rule="evenodd" d="M24.6678 72.6452L8.98651 88.3265C8.16548 89.1475 7.79863 90.3553 7.95057 91.7292C8.15854 93.3053 8.89472 94.7644 10.0389 95.8681C12.3679 98.1971 15.8221 98.679 17.5807 96.9199L33.2642 81.2364C33.3048 81.1734 33.2957 80.8098 32.9642 80.4765L25.4303 72.9428C25.2575 72.7569 25.0203 72.644 24.7671 72.6272C24.733 72.6242 24.6987 72.6305 24.6678 72.6452Z" fill="#00ABEA"/>
</svg>
