<svg width="104" height="104" viewBox="0 0 104 104" fill="none" xmlns="http://www.w3.org/2000/svg">
<path fill-rule="evenodd" clip-rule="evenodd" d="M97.9875 86.5805V74.492H93.5594C93.1937 74.492 92.8429 74.3469 92.584 74.0887C92.325 73.8305 92.1791 73.4801 92.1781 73.1144L92.1627 68.0951H84.5477V86.5805H97.9875ZM94.9323 70.2917L96.2404 71.7287H94.9382L94.9323 70.2917ZM100.75 73.1103V86.6636C100.75 88.142 99.5991 89.3438 98.186 89.3438H84.3485C82.9353 89.3438 81.7846 88.142 81.7846 86.6636V68.0102C81.7846 66.5339 82.9351 65.3322 84.3483 65.3322H93.5391C93.7311 65.3323 93.9209 65.3724 94.0966 65.4499C94.2722 65.5274 94.4299 65.6406 94.5594 65.7824L100.388 72.179C100.62 72.4334 100.749 72.7657 100.749 73.1105L100.75 73.1103ZM71.8081 86.5805V74.492H67.38C67.0143 74.492 66.6635 74.3469 66.4046 74.0887C66.1457 73.8305 65.9997 73.4801 65.9988 73.1144L65.9831 68.0951H58.3712L58.369 86.5805H71.8081ZM68.7546 70.2917L70.0611 71.7287H68.7578L68.7538 70.2917H68.7546ZM74.2119 72.1788C74.4431 72.4339 74.5711 72.766 74.5708 73.1103V86.6636C74.5708 88.142 73.422 89.3438 72.0068 89.3438H58.1695C56.7566 89.3438 55.6057 88.142 55.6057 86.6636V68.0102C55.6057 66.5339 56.7562 65.3322 58.1693 65.3322H67.3609C67.5529 65.3322 67.7428 65.3723 67.9185 65.4498C68.0942 65.5273 68.2518 65.6405 68.3812 65.7824L74.2109 72.179L74.2119 72.1788ZM45.6288 86.5803L45.631 74.4918H41.2019C40.8364 74.4911 40.486 74.3459 40.2272 74.0878C39.9684 73.8297 39.8222 73.4797 39.8206 73.1142L39.807 68.0949H32.1925V86.5803H45.6288ZM42.575 70.2917L43.8833 71.7287H42.5791L42.575 70.2917ZM48.0324 72.1788C48.2648 72.4333 48.3935 72.7656 48.3931 73.1103V86.6636C48.3931 88.142 47.2422 89.3438 45.8291 89.3438H31.9922C30.577 89.3438 29.4279 88.142 29.4279 86.6636V68.0102C29.4279 66.5339 30.5766 65.3322 31.9916 65.3322H41.1812C41.3735 65.3323 41.5636 65.3724 41.7396 65.4499C41.9156 65.5274 42.0736 65.6406 42.2035 65.7824L48.0322 72.179L48.0324 72.1788ZM19.4515 86.5803V74.492H15.0252C14.6595 74.492 14.3087 74.3469 14.0498 74.0887C13.7908 73.8305 13.6449 73.4801 13.6439 73.1144L13.6283 68.0951H6.0125V86.5805L19.4515 86.5803ZM16.3971 70.2917L17.7052 71.7287H16.4028L16.3971 70.2917ZM21.8542 72.1788C22.0868 72.4332 22.2156 72.7656 22.2152 73.1103V86.6636C22.2152 88.142 21.0643 89.3438 19.6511 89.3438H5.81425C4.4007 89.3438 3.25 88.142 3.25 86.6636V68.0102C3.25 66.5339 4.4007 65.3322 5.81384 65.3322H15.0052C15.1973 65.3322 15.3872 65.3721 15.5629 65.4496C15.7386 65.5272 15.8962 65.6405 16.0255 65.7824L21.8552 72.179L21.8542 72.1788ZM42.4474 35.9045H55.8844L55.8862 23.8157H51.4581C51.0925 23.8151 50.7421 23.6699 50.4833 23.4118C50.2245 23.1537 50.0784 22.8036 50.0768 22.4381L50.0634 17.4191H42.4474V35.9045ZM52.831 19.6177L54.1395 21.0524H52.8348L52.831 19.6177ZM39.6843 35.9896V17.3362C39.6843 15.8579 40.8326 14.656 42.2478 14.656H51.4373C51.6298 14.6559 51.8202 14.6961 51.9963 14.7739C52.1723 14.8518 52.3302 14.9655 52.4597 15.108L58.2881 21.5025C58.5204 21.7573 58.6491 22.0896 58.6491 22.4343V35.9894C58.6491 37.4655 57.4986 38.6678 56.0853 38.6678H42.248C40.8328 38.6678 39.6841 37.4659 39.6843 35.9896ZM8.84142 63.094V56.0381C8.84142 53.2294 10.9945 50.9441 13.6394 50.9441H47.7848V40.7202C47.7848 40.3539 47.9303 40.0025 48.1893 39.7435C48.4483 39.4845 48.7997 39.3389 49.166 39.3389C49.5323 39.3389 49.8837 39.4845 50.1427 39.7435C50.4017 40.0025 50.5473 40.3539 50.5473 40.7202V50.9437H84.6926C87.337 50.9437 89.4902 53.229 89.4902 56.0376V63.0936C89.4902 63.4599 89.3446 63.8113 89.0856 64.0703C88.8266 64.3293 88.4753 64.4748 88.1089 64.4748C87.7426 64.4748 87.3913 64.3293 87.1322 64.0703C86.8732 63.8113 86.7277 63.4599 86.7277 63.0936V56.0381C86.7277 54.7531 85.8136 53.7072 84.6926 53.7072H63.2184V63.0942C63.2184 63.4605 63.0729 63.8119 62.8138 64.0709C62.5548 64.3299 62.2035 64.4755 61.8371 64.4755C61.4708 64.4755 61.1195 64.3299 60.8604 64.0709C60.6014 63.8119 60.4559 63.4605 60.4559 63.0942V53.7062H37.97V63.0932C37.97 63.2746 37.9342 63.4542 37.8648 63.6218C37.7954 63.7894 37.6937 63.9416 37.5654 64.0699C37.4371 64.1981 37.2849 64.2999 37.1173 64.3693C36.9497 64.4387 36.7701 64.4744 36.5887 64.4744C36.4073 64.4744 36.2277 64.4387 36.0601 64.3693C35.8925 64.2999 35.7403 64.1981 35.612 64.0699C35.4838 63.9416 35.382 63.7894 35.3126 63.6218C35.2432 63.4542 35.2075 63.2746 35.2075 63.0932V53.7062H13.6396C12.5184 53.7062 11.6045 54.7525 11.6045 56.0372V63.0932C11.6045 63.4595 11.459 63.8108 11.2 64.0699C10.9409 64.3289 10.5896 64.4744 10.2233 64.4744C9.85695 64.4744 9.50562 64.3289 9.24659 64.0699C8.98756 63.8108 8.84203 63.4595 8.84203 63.0932L8.84142 63.094Z" fill="#231F20"/>
<path fill-rule="evenodd" clip-rule="evenodd" d="M55.8842 35.9046L55.886 23.8158H51.4579C51.0924 23.8152 50.7419 23.67 50.4831 23.4119C50.2243 23.1538 50.0782 22.8037 50.0766 22.4382L50.0632 17.4192H42.4473V35.9046H55.8842Z" fill="#00ABEA"/>
<path fill-rule="evenodd" clip-rule="evenodd" d="M19.4525 74.492H15.0254C14.6597 74.492 14.3089 74.347 14.05 74.0888C13.791 73.8305 13.6451 73.4801 13.6441 73.1144L13.6285 68.0952H6.0127V86.5806H19.4525V74.492Z" fill="#00ABEA"/>
<path fill-rule="evenodd" clip-rule="evenodd" d="M58.3714 68.0952L58.3691 86.5806H71.8083V74.492H67.3802C67.0145 74.492 66.6637 74.347 66.4048 74.0888C66.1458 73.8305 65.9999 73.4801 65.9989 73.1144L65.9833 68.0952H58.3714Z" fill="#00ABEA"/>
<path fill-rule="evenodd" clip-rule="evenodd" d="M68.7549 70.2917L68.7589 71.7287H70.0614L68.7549 70.2917Z" fill="#00ABEA"/>
<path fill-rule="evenodd" clip-rule="evenodd" d="M17.7056 71.7287L16.3975 70.2917L16.4031 71.7287H17.7056Z" fill="#00ABEA"/>
<path fill-rule="evenodd" clip-rule="evenodd" d="M52.8311 19.6179L52.8349 21.0526H54.1396L52.8311 19.6179Z" fill="#00ABEA"/>
</svg>
