<svg width="104" height="104" viewBox="0 0 104 104" fill="none" xmlns="http://www.w3.org/2000/svg">
<path fill-rule="evenodd" clip-rule="evenodd" d="M97.9875 72.2795C97.9873 71.7391 97.7726 71.2208 97.3906 70.8385C97.0085 70.4562 96.4904 70.2411 95.95 70.2405H87.1319C86.5915 70.2413 86.0735 70.4564 85.6915 70.8387C85.3096 71.2209 85.0949 71.7391 85.0945 72.2795V81.0951C85.0947 81.6354 85.3092 82.1536 85.691 82.5359C86.0728 82.9182 86.5908 83.1334 87.1311 83.1341H95.9495C96.49 83.1337 97.0081 82.9189 97.3903 82.5367C97.7724 82.1546 97.9872 81.6364 97.9875 81.096V72.2803V72.2795ZM100.75 72.2795V81.0951C100.749 82.3679 100.243 83.5882 99.3427 84.4884C98.4429 85.3887 97.2228 85.8953 95.95 85.8972H87.1319C85.859 85.8954 84.6389 85.3888 83.739 84.4887C82.8391 83.5885 82.3329 82.3682 82.3314 81.0953V72.2797C82.3325 71.0068 82.8385 69.7863 83.7384 68.8861C84.6383 67.9859 85.8586 67.4795 87.1315 67.478H95.95C97.2228 67.4796 98.443 67.986 99.3429 68.8862C100.243 69.7863 100.749 71.0067 100.75 72.2795ZM71.4844 72.2795C71.484 71.7388 71.2691 71.2204 70.8868 70.8381C70.5045 70.4558 69.9861 70.2409 69.4454 70.2405H60.6298C60.0892 70.2412 59.571 70.4563 59.1887 70.8385C58.8064 71.2207 58.5914 71.7389 58.5906 72.2795V81.0951C58.5912 81.6357 58.8062 82.1539 59.1884 82.5361C59.5706 82.9184 60.0888 83.1334 60.6294 83.1341H69.446C69.9866 83.1338 70.5049 82.9189 70.8871 82.5367C71.2694 82.1544 71.4842 81.6361 71.4846 81.0955V72.2799L71.4844 72.2795ZM74.2469 72.2795V81.0951C74.2454 82.3683 73.7389 83.5888 72.8387 84.4891C71.9385 85.3893 70.7179 85.8957 69.4448 85.8972H60.6292C59.3561 85.8954 58.1357 85.389 57.2355 84.4889C56.3352 83.5887 55.8286 82.3684 55.8267 81.0953V72.2797C55.8283 71.0066 56.3348 69.7861 57.235 68.886C58.1353 67.9858 59.3559 67.4795 60.629 67.478H69.4456C70.7188 67.4793 71.9395 67.9856 72.8397 68.8859C73.74 69.7862 74.2463 71.0069 74.2475 72.2801L74.2469 72.2795ZM45.8063 72.2795C45.8059 71.7389 45.5911 71.2206 45.2088 70.8383C44.8266 70.456 44.3083 70.241 43.7677 70.2405H34.9521C34.4115 70.241 33.8932 70.4559 33.5109 70.8382C33.1286 71.2205 32.9137 71.7389 32.9134 72.2795V81.0951C32.9137 81.6358 33.1286 82.1542 33.5108 82.5365C33.8931 82.9188 34.4115 83.1337 34.9521 83.1341H43.769C44.3095 83.1337 44.8278 82.9188 45.21 82.5366C45.5922 82.1544 45.807 81.6361 45.8073 81.0955V72.2799L45.8063 72.2795ZM48.5688 72.2795V81.0951C48.5673 82.3683 48.0609 83.5888 47.1607 84.4891C46.2604 85.3893 45.0399 85.8957 43.7667 85.8972H34.9511C33.6781 85.8954 32.4577 85.389 31.5576 84.4888C30.6574 83.5887 30.1509 82.3684 30.149 81.0953V72.2797C30.1505 71.0066 30.6569 69.786 31.5571 68.8858C32.4573 67.9856 33.6778 67.4791 34.9509 67.4776H43.7677C45.0409 67.4789 46.2616 67.9852 47.1618 68.8855C48.0621 69.7858 48.5683 71.0065 48.5694 72.2797L48.5688 72.2795ZM18.9044 72.2795C18.9042 71.7393 18.6898 71.2213 18.3081 70.8391C17.9264 70.4568 17.4087 70.2416 16.8685 70.2405H8.05045C7.50996 70.2411 6.99179 70.4562 6.6097 70.8385C6.22761 71.2207 6.01282 71.739 6.0125 72.2795V81.0951C6.01261 81.6354 6.22713 82.1536 6.60896 82.5359C6.99079 82.9182 7.50872 83.1334 8.04903 83.1341H16.8685C17.4088 83.1334 17.9267 82.9183 18.3086 82.5361C18.6904 82.1539 18.905 81.6358 18.9052 81.0955V72.2799L18.9044 72.2795ZM21.6669 72.2795V81.0951C21.6655 82.3679 21.1594 83.5882 20.2596 84.4884C19.3598 85.3887 18.1397 85.8953 16.8669 85.8972H8.05045C6.77771 85.8954 5.55764 85.3889 4.65775 84.4889C3.75786 83.5888 3.25161 82.3687 3.25 81.096V72.2803C3.25086 71.0073 3.75678 69.7867 4.65672 68.8863C5.55665 67.986 6.77705 67.4795 8.05005 67.478H16.8685C18.1414 67.4797 19.3617 67.9862 20.2616 68.8864C21.1615 69.7867 21.6675 71.0072 21.6686 72.2801L21.6669 72.2795ZM46.1049 31.7203C46.1052 32.2609 46.32 32.7793 46.7023 33.1617C47.0845 33.544 47.6029 33.7589 48.1435 33.7593H56.9621C57.5024 33.7585 58.0203 33.5434 58.4021 33.1612C58.784 32.7789 58.9985 32.2608 58.9987 31.7205V22.9049C58.9981 22.3647 58.7833 21.8468 58.4015 21.4646C58.0197 21.0825 57.5019 20.8674 56.9617 20.8663H48.1437C47.6034 20.8674 47.0856 21.0825 46.7038 21.4647C46.3219 21.8469 46.1071 22.3649 46.1065 22.9051V31.7207L46.1049 31.7203ZM43.3424 31.7203V22.9047C43.3438 21.6319 43.8499 20.4117 44.7498 19.5115C45.6496 18.6114 46.8697 18.1049 48.1425 18.103H56.9611C58.2339 18.1049 59.4539 18.6115 60.3537 19.5117C61.2535 20.4119 61.7595 21.6321 61.7608 22.9049V31.7205C61.759 32.993 61.253 34.2129 60.3534 35.1128C59.4538 36.0128 58.2342 36.5195 56.9617 36.5218H48.1437C46.8708 36.52 45.6507 36.0134 44.7508 35.1132C43.851 34.2131 43.3448 32.9927 43.3434 31.7199L43.3424 31.7203ZM11.1688 63.3524V56.1782C11.1688 53.3344 13.3453 51.0188 16.0235 51.0188H50.7707V40.6018C50.7707 40.2354 50.9162 39.8841 51.1752 39.6251C51.4343 39.366 51.7856 39.2205 52.1519 39.2205C52.5183 39.2205 52.8696 39.366 53.1286 39.6251C53.3877 39.8841 53.5332 40.2354 53.5332 40.6018V51.0188H88.2802C90.9567 51.0188 93.1348 53.3344 93.1348 56.1782V63.3524C93.1348 63.7187 92.9893 64.07 92.7303 64.3291C92.4713 64.5881 92.1199 64.7336 91.7536 64.7336C91.3873 64.7336 91.0359 64.5881 90.7769 64.3291C90.5179 64.07 90.3723 63.7187 90.3723 63.3524V56.1782C90.3723 54.8579 89.4329 53.7813 88.2802 53.7813H66.42V63.3516C66.42 63.7179 66.2745 64.0692 66.0155 64.3283C65.7565 64.5873 65.4051 64.7328 65.0388 64.7328C64.6725 64.7328 64.3211 64.5873 64.0621 64.3283C63.8031 64.0692 63.6575 63.7179 63.6575 63.3516V53.7821H40.742V63.3524C40.742 63.7187 40.5965 64.07 40.3374 64.3291C40.0784 64.5881 39.7271 64.7336 39.3607 64.7336C38.9944 64.7336 38.6431 64.5881 38.3841 64.3291C38.125 64.07 37.9795 63.7187 37.9795 63.3524V53.7821H16.0239C14.8692 53.7821 13.9317 54.8587 13.9317 56.179V63.3532C13.9317 63.7195 13.7862 64.0708 13.5272 64.3299C13.2681 64.5889 12.9168 64.7344 12.5505 64.7344C12.1842 64.7344 11.8328 64.5889 11.5738 64.3299C11.3148 64.0708 11.1692 63.7195 11.1692 63.3532L11.1688 63.3524Z" fill="#231F20"/>
<path fill-rule="evenodd" clip-rule="evenodd" d="M18.9054 81.0961V72.2805C18.9054 71.7401 18.691 71.2217 18.3091 70.8392C17.9272 70.4568 17.4092 70.2415 16.8687 70.2407H8.05065C7.51016 70.2413 6.99198 70.4564 6.60989 70.8386C6.2278 71.2209 6.01302 71.7392 6.0127 72.2797V81.0953C6.0128 81.6356 6.22732 82.1538 6.60915 82.5361C6.99098 82.9184 7.50891 83.1335 8.04923 83.1343H16.8687C17.4089 83.1336 17.9268 82.9186 18.3086 82.5365C18.6905 82.1544 18.9051 81.6363 18.9054 81.0961Z" fill="#00ABEA"/>
<path d="M60.63 70.2407H69.4456C69.9863 70.2407 70.5049 70.4555 70.8872 70.8379C71.2696 71.2202 71.4844 71.7388 71.4844 72.2795V81.0961C71.4844 81.6368 71.2696 82.1553 70.8873 82.5376C70.505 82.9199 69.9865 83.1347 69.4458 83.1347H60.6296C60.0889 83.1347 59.5703 82.9199 59.188 82.5376C58.8056 82.1552 58.5908 81.6366 58.5908 81.0959V72.2803C58.5908 72.0125 58.6435 71.7473 58.7459 71.4998C58.8484 71.2524 58.9986 71.0275 59.1879 70.8381C59.3773 70.6487 59.6021 70.4985 59.8495 70.396C60.097 70.2935 60.3622 70.2407 60.63 70.2407Z" fill="#00ABEA"/>
<path fill-rule="evenodd" clip-rule="evenodd" d="M48.1434 33.7594H56.9621C57.5023 33.7587 58.0202 33.5435 58.4021 33.1613C58.7839 32.7791 58.9984 32.2609 58.9986 31.7206V22.905C58.998 22.3648 58.7833 21.8469 58.4014 21.4648C58.0196 21.0826 57.5018 20.8675 56.9617 20.8665H48.1436C47.6033 20.8675 47.0855 21.0827 46.7037 21.4648C46.3218 21.847 46.107 22.365 46.1064 22.9052V31.7208C46.1068 32.2611 46.3215 32.7792 46.7034 33.1613C47.0852 33.5435 47.6031 33.7586 48.1434 33.7594Z" fill="#00ABEA"/>
</svg>
