<svg width="104" height="104" viewBox="0 0 104 104" fill="none" xmlns="http://www.w3.org/2000/svg">
<path fill-rule="evenodd" clip-rule="evenodd" d="M40.6293 74.6371L32.6595 67.3952L22.6048 73.2731C23.6391 74.6322 24.9498 75.7566 26.4503 76.5723C27.9509 77.388 29.6073 77.8763 31.3104 78.0052C33.0134 78.1341 34.7244 77.9006 36.3307 77.32C37.9369 76.7394 39.4018 75.825 40.6289 74.6371H40.6293ZM20.1226 65.9425C20.1263 62.8765 21.2926 59.926 23.3861 57.6861C25.4796 55.4462 28.3447 54.0835 31.4034 53.8728V64.9279L21.1884 70.8998C20.485 69.3415 20.1218 67.6512 20.1232 65.9415L20.1226 65.9425ZM43.5196 73.5276C43.7826 73.7674 43.9432 74.0993 43.9681 74.4543C43.993 74.8094 43.8802 75.1604 43.6532 75.4345C42.0551 77.3596 39.9968 78.8501 37.6691 79.7677C35.3415 80.6853 32.8198 81.0003 30.3379 80.6836C27.856 80.3668 25.4943 79.4286 23.4717 77.9558C21.4491 76.483 19.8311 74.5234 18.7677 72.2586C17.7043 69.9938 17.23 67.4972 17.3887 65.0002C17.5474 62.5032 18.3339 60.0868 19.6755 57.9748C21.017 55.8629 22.8701 54.1238 25.0628 52.9189C27.2556 51.714 29.7171 51.0823 32.2191 51.0823C32.4285 51.0823 32.6355 51.0882 32.8429 51.0961C33.1989 51.1113 33.5353 51.2635 33.7817 51.5209C34.0282 51.7783 34.1656 52.121 34.1653 52.4773V65.0305L43.519 73.5274L43.5196 73.5276ZM45.4493 65.1926C45.4503 66.6589 45.1656 68.1113 44.6112 69.4688L38.1211 63.572V54.6142C40.2702 55.4276 42.1217 56.8744 43.4304 58.7632C44.7391 60.652 45.4433 62.8937 45.4499 65.1915L45.4493 65.1926ZM48.2118 65.1926C48.2124 67.7399 47.5205 70.2394 46.2102 72.4238C46.1045 72.5985 45.9617 72.7479 45.7918 72.8611C45.6219 72.9744 45.4292 73.0488 45.2272 73.0791C45.1605 73.0884 45.0932 73.0929 45.0257 73.0927C44.682 73.0928 44.3506 72.9648 44.0963 72.7336L35.811 65.2064C35.6684 65.0769 35.5543 64.9191 35.4761 64.7431C35.3978 64.5671 35.3571 64.3767 35.3566 64.184V52.7814C35.3564 52.5762 35.402 52.3734 35.49 52.188C35.578 52.0026 35.7062 51.8391 35.8653 51.7094C36.0244 51.5797 36.2104 51.4872 36.4098 51.4384C36.6092 51.3897 36.817 51.386 37.018 51.4276C40.1773 52.0945 43.0123 53.825 45.0495 56.3302C47.0867 58.8354 48.2028 61.9636 48.2116 65.1926H48.2118ZM79.5032 70.9934C79.5034 69.1639 78.9611 67.3753 77.9449 65.854C76.9286 64.3326 75.4841 63.1468 73.7939 62.4465C72.1037 61.7461 70.2438 61.5627 68.4493 61.9194C66.6549 62.2761 65.0065 63.1569 63.7127 64.4504C62.4188 65.744 61.5376 67.3921 61.1805 69.1865C60.8234 70.9808 61.0063 72.8408 61.7063 74.5311C62.4062 76.2215 63.5917 77.6664 65.1128 78.683C66.6339 79.6996 68.4223 80.2423 70.2518 80.2425C72.7042 80.2395 75.0552 79.2642 76.7895 77.5304C78.5237 75.7965 79.4996 73.4457 79.5032 70.9934ZM82.2657 70.9934C82.2655 73.3694 81.5608 75.6919 80.2407 77.6674C78.9206 79.6428 77.0444 81.1825 74.8493 82.0917C72.6541 83.0009 70.2387 83.2387 67.9084 82.7752C65.5781 82.3116 63.4376 81.1675 61.7575 79.4874C60.0775 77.8074 58.9333 75.6669 58.4697 73.3366C58.0061 71.0063 58.2439 68.5909 59.1531 66.3958C60.0622 64.2006 61.6018 62.3244 63.5773 61.0042C65.5527 59.6841 67.8753 58.9794 70.2512 58.9792C73.4366 58.9826 76.4905 60.2495 78.7429 62.5019C80.9952 64.7542 82.2622 67.8081 82.2657 70.9934ZM96.8578 93.845L88.698 85.6852L84.9469 89.4382L93.1069 97.5977C93.8032 98.2944 95.2892 98.0281 96.2898 97.029C97.2904 96.0298 97.5531 94.5421 96.8586 93.8454L96.8578 93.845ZM81.9023 84.6491L83.8645 86.6111L85.8699 84.6077L83.9026 82.6518C83.598 83.005 83.2819 83.3544 82.948 83.6877C82.6108 84.0251 82.2592 84.343 81.9019 84.6489L81.9023 84.6491ZM70.2518 86.1827C66.7376 86.1821 63.3323 84.963 60.6161 82.7331C57.9 80.5033 56.041 77.4006 55.3559 73.9538C54.6708 70.507 55.202 66.9293 56.859 63.8302C58.516 60.7312 61.1963 58.3025 64.4432 56.9581C67.6901 55.6136 71.3027 55.4366 74.6655 56.457C78.0283 57.4775 80.9333 59.6324 82.8854 62.5546C84.8375 65.4767 85.7161 68.9853 85.3714 72.4826C85.0267 75.9799 83.48 79.2495 80.9949 81.7343C79.5873 83.1493 77.913 84.271 76.069 85.0346C74.2249 85.7982 72.2477 86.1884 70.2518 86.1827ZM9.8313 83.3611C8.13338 83.3611 6.75355 81.786 6.75355 79.8497V9.5227C6.75355 7.58834 8.1348 6.01311 9.8313 6.01311H43.1048L43.1755 28.7511C43.1765 29.1168 43.3224 29.4672 43.5813 29.7255C43.8403 29.9837 44.191 30.1287 44.5567 30.1287H65.0768V53.804C62.1399 54.6864 59.4781 56.3069 57.3456 58.5107C55.2131 60.7145 53.681 63.428 52.8955 66.3924C52.11 69.3567 52.0973 72.4729 52.8587 75.4435C53.6201 78.4141 55.1302 81.1401 57.2447 83.3611H9.8313ZM45.8742 8.20991L45.9337 27.3646H63.3298L45.8742 8.20991ZM98.2421 98.9828C97.1722 100.084 95.7109 100.72 94.1755 100.75C93.6173 100.76 93.0626 100.66 92.5435 100.454C92.0245 100.248 91.5514 99.9415 91.1518 99.5516L82.6693 91.0683C82.3857 90.7725 82.1872 90.4057 82.0946 90.0066C82.0021 89.6074 82.0189 89.1907 82.1434 88.8004L79.6431 86.2995C76.7693 88.0598 73.4585 88.9769 70.0886 88.9461C66.7186 88.9152 63.4252 87.9377 60.5841 86.125H9.8313C6.60974 86.125 3.99023 83.3105 3.99023 79.8507V9.5227C3.99044 6.0645 6.61156 3.25 9.8313 3.25H44.4824C44.6745 3.25005 44.8646 3.29028 45.0402 3.36812C45.2159 3.44595 45.3734 3.55966 45.5025 3.70195L67.4782 27.8155C67.7102 28.0703 67.8391 28.4024 67.8395 28.7471V53.2118C71.2071 52.7547 74.6352 53.2627 77.7254 54.6769C80.8156 56.0912 83.4409 58.3534 85.2961 61.2008C87.1513 64.0481 88.1602 67.3636 88.2056 70.7617C88.2509 74.1598 87.3308 77.501 85.5522 80.3969L88.0535 82.8819C88.1982 82.8379 88.3468 82.8075 88.4971 82.7911C88.8289 82.7494 89.1659 82.7832 89.4827 82.8902C89.7996 82.9972 90.0881 83.1745 90.3267 83.4088L98.8122 91.8917C100.611 93.6896 100.354 96.8715 98.2421 98.9832V98.9828ZM56.4828 44.2451C56.4828 44.0637 56.4471 43.8841 56.3777 43.7165C56.3083 43.5489 56.2065 43.3967 56.0783 43.2684C55.95 43.1401 55.7977 43.0384 55.6301 42.969C55.4626 42.8996 55.283 42.8638 55.1016 42.8638H15.2954C14.929 42.8638 14.5777 43.0094 14.3187 43.2684C14.0596 43.5274 13.9141 43.8788 13.9141 44.2451C13.9141 44.6114 14.0596 44.9627 14.3187 45.2218C14.5777 45.4808 14.929 45.6263 15.2954 45.6263H55.1016C55.283 45.6263 55.4626 45.5906 55.6301 45.5212C55.7977 45.4518 55.95 45.35 56.0783 45.2218C56.2065 45.0935 56.3083 44.9413 56.3777 44.7737C56.4471 44.6061 56.4828 44.4265 56.4828 44.2451ZM15.2954 34.6111H55.1016C55.4679 34.6111 55.8192 34.4656 56.0783 34.2065C56.3373 33.9475 56.4828 33.5962 56.4828 33.2298C56.4828 32.8635 56.3373 32.5122 56.0783 32.2531C55.8192 31.9941 55.4679 31.8486 55.1016 31.8486H15.2954C14.929 31.8486 14.5777 31.9941 14.3187 32.2531C14.0596 32.5122 13.9141 32.8635 13.9141 33.2298C13.9141 33.5962 14.0596 33.9475 14.3187 34.2065C14.5777 34.4656 14.929 34.6111 15.2954 34.6111ZM13.9141 22.2158C13.9141 22.5821 14.0596 22.9334 14.3187 23.1925C14.5777 23.4515 14.929 23.597 15.2954 23.597H35.2538C35.4352 23.597 35.6148 23.5613 35.7824 23.4919C35.95 23.4225 36.1022 23.3207 36.2305 23.1925C36.3588 23.0642 36.4605 22.9119 36.5299 22.7444C36.5993 22.5768 36.6351 22.3972 36.6351 22.2158C36.6351 22.0344 36.5993 21.8548 36.5299 21.6872C36.4605 21.5196 36.3588 21.3674 36.2305 21.2391C36.1022 21.1108 35.95 21.0091 35.7824 20.9397C35.6148 20.8703 35.4352 20.8345 35.2538 20.8345H15.2954C14.9292 20.8348 14.5781 20.9804 14.3193 21.2394C14.0605 21.4985 13.9151 21.8496 13.9151 22.2158H13.9141Z" fill="#231F20"/>
<path fill-rule="evenodd" clip-rule="evenodd" d="M70.2509 83.0058C67.8748 83.0057 65.5522 82.301 63.5767 80.9809C61.6011 79.6607 60.0614 77.7843 59.1523 75.5891C58.2431 73.3939 58.0054 70.9783 58.4691 68.648C58.9328 66.3176 60.0771 64.1771 61.7573 62.4971C63.4375 60.8171 65.5782 59.673 67.9086 59.2097C70.2391 58.7463 72.6546 58.9844 74.8497 59.8938C77.0448 60.8033 78.9209 62.3432 80.2408 64.3189C81.5607 66.2946 82.2651 68.6174 82.2649 70.9934C82.2616 74.1787 80.9946 77.2324 78.7422 79.4845C76.4897 81.7366 73.4357 83.0031 70.2505 83.0058H70.2509ZM85.443 70.9934C85.4433 67.9888 84.5526 65.0515 82.8835 62.553C81.2144 60.0546 78.8419 58.1072 76.066 56.9571C73.2901 55.8071 70.2356 55.506 67.2886 56.092C64.3416 56.678 61.6345 58.1247 59.5098 60.2492C57.385 62.3737 55.938 65.0806 55.3516 68.0275C54.7653 70.9744 55.066 74.029 56.2157 76.805C57.3654 79.581 59.3125 81.9538 61.8108 83.6232C64.309 85.2926 67.2462 86.1837 70.2509 86.1837C72.2458 86.184 74.2213 85.7912 76.0644 85.028C77.9075 84.2647 79.5823 83.1458 80.9929 81.7353C82.4036 80.3247 83.5227 78.6501 84.2861 76.807C85.0495 74.964 85.4425 72.9886 85.4424 70.9936L85.443 70.9934Z" fill="#00ABEA"/>
<path fill-rule="evenodd" clip-rule="evenodd" d="M88.6978 85.686L84.9463 89.4382L93.1062 97.5977C93.8025 98.2944 95.2886 98.0281 96.2892 97.0289C97.2898 96.0298 97.5524 94.5421 96.8579 93.8454L88.6978 85.686Z" fill="#00ABEA"/>
<path fill-rule="evenodd" clip-rule="evenodd" d="M31.4028 64.9281V53.873C28.3441 54.0837 25.4791 55.4464 23.3855 57.6863C21.292 59.9263 20.1258 62.8768 20.1221 65.9427C20.1207 67.6524 20.4838 69.3427 21.1873 70.901L31.4028 64.9281Z" fill="#00ABEA"/>
<path fill-rule="evenodd" clip-rule="evenodd" d="M32.6592 67.3953L22.6045 73.2731C23.6388 74.6322 24.9495 75.7566 26.45 76.5723C27.9506 77.388 29.607 77.8764 31.31 78.0052C33.0131 78.1341 34.7241 77.9006 36.3303 77.32C37.9366 76.7395 39.4015 75.825 40.6286 74.6371L32.6592 67.3953Z" fill="#00ABEA"/>
<path fill-rule="evenodd" clip-rule="evenodd" d="M45.9335 27.3655H63.3296L45.874 8.20996L45.9335 27.3655Z" fill="#00ABEA"/>
</svg>
