<svg width="104" height="104" viewBox="0 0 104 104" fill="none" xmlns="http://www.w3.org/2000/svg">
<path fill-rule="evenodd" clip-rule="evenodd" d="M97.9875 80.1014C97.9099 80.0711 97.8271 80.0564 97.7438 80.0579L81.5636 80.0224C81.5015 80.0154 81.4385 80.0221 81.3792 80.0419C81.3198 80.0616 81.2655 80.0941 81.2199 80.1369L77.6437 86.1586H94.0314L97.9875 80.1605V80.1014ZM75.3705 70.6374H81.0448L84.0308 73.6233C84.2817 73.8784 84.5813 74.0805 84.9119 74.2175C85.2424 74.3545 85.5972 74.4236 85.955 74.4208H93.5951C93.6798 74.4216 93.7609 74.4554 93.8211 74.5151C93.8812 74.5748 93.9156 74.6556 93.9171 74.7403V77.2865L81.5671 77.2589H81.5592C81.0176 77.2445 80.4817 77.3724 80.0049 77.6297C79.5281 77.8871 79.1271 78.2648 78.8418 78.7254L75.3699 84.5714V70.637L75.3705 70.6374ZM100.75 79.6612V80.5257C100.75 80.7008 100.716 80.8743 100.651 81.037C100.582 81.2123 100.494 81.3797 100.389 81.5363L95.9244 88.3003C95.7989 88.4915 95.6278 88.6484 95.4266 88.7569C95.2253 88.8654 95.0003 88.9222 94.7716 88.9221H76.4481C75.9015 88.9234 75.3591 88.8258 74.8473 88.6339C74.802 88.6176 74.7579 88.5984 74.7151 88.5766L74.6974 88.5707C74.074 88.2728 73.5472 87.8051 73.1775 87.2214C72.8078 86.6377 72.6102 85.9616 72.6072 85.2707V70.5961C72.6079 69.8745 72.8949 69.1825 73.4052 68.6722C73.9155 68.1619 74.6074 67.8749 75.3291 67.8743H81.0629C81.4207 67.8714 81.7754 67.9405 82.106 68.0775C82.4365 68.2145 82.7361 68.4166 82.9869 68.6717L85.9712 71.6577H93.5957C94.4133 71.6584 95.1972 71.9834 95.7755 72.5614C96.3538 73.1394 96.6792 73.9231 96.6804 74.7407V77.2926L97.7482 77.2946C98.2507 77.2837 98.7484 77.3943 99.1988 77.6171C99.6493 77.84 100.039 78.1683 100.336 78.5743C100.463 78.7531 100.569 78.9466 100.651 79.1506C100.717 79.3131 100.75 79.4866 100.75 79.6618L100.75 79.6612ZM63.3092 80.1014C63.2306 80.0708 63.1467 80.056 63.0624 80.0579L46.8843 80.0224H46.8823C46.8201 80.0149 46.7571 80.0214 46.6977 80.0412C46.6383 80.061 46.584 80.0937 46.5388 80.1369L42.9626 86.1586H59.3501L63.3092 80.1605V80.1014ZM40.6908 70.6374H46.3671L49.3512 73.6233C49.6023 73.8783 49.9021 74.0803 50.2327 74.2173C50.5633 74.3543 50.918 74.4235 51.2759 74.4208H58.9178C59.0023 74.4217 59.083 74.4557 59.1428 74.5154C59.2025 74.5751 59.2365 74.6558 59.2375 74.7403V77.2865L46.8902 77.2589H46.8823C46.3406 77.2443 45.8045 77.3721 45.3277 77.6294C44.8508 77.8868 44.4497 78.2647 44.1645 78.7254L40.691 84.5714V70.637L40.6908 70.6374ZM65.9717 79.1483C66.0387 79.3111 66.0732 79.4854 66.0733 79.6614V80.5259C66.0729 80.701 66.0394 80.8745 65.9746 81.0372C65.9037 81.2124 65.8157 81.3802 65.712 81.5383L61.2475 88.3003C61.1219 88.4913 60.9508 88.6481 60.7496 88.7566C60.5485 88.8651 60.3235 88.922 60.0949 88.9221H41.7686C41.2226 88.9234 40.6809 88.8258 40.1698 88.6339C40.1237 88.618 40.0789 88.5989 40.0355 88.5766C40.0307 88.5736 40.0253 88.5716 40.0197 88.5707C39.3958 88.2732 38.8686 87.8057 38.4985 87.2219C38.1284 86.6382 37.9305 85.9619 37.9275 85.2707V70.5961C37.9285 69.8745 38.2155 69.1828 38.7258 68.6726C39.236 68.1623 39.9278 67.8752 40.6494 67.8743H46.383C46.7408 67.8714 47.0956 67.9405 47.4261 68.0775C47.7567 68.2145 48.0563 68.4166 48.3072 68.6717L51.2931 71.6577H58.9174C59.7347 71.6589 60.5181 71.9841 61.096 72.562C61.6739 73.14 61.9991 73.9234 62.0002 74.7407V77.2926L63.0681 77.2946C63.5708 77.2835 64.0688 77.3941 64.5196 77.6169C64.9705 77.8397 65.3608 78.1682 65.6573 78.5743C65.7847 78.7524 65.8901 78.9453 65.9711 79.1487L65.9717 79.1483ZM28.6297 80.1016C28.552 80.0714 28.4692 80.0566 28.3859 80.0581L12.2056 80.0226H12.2035C12.1417 80.0151 12.079 80.0215 12.0199 80.0413C11.9608 80.0611 11.9069 80.0939 11.8621 80.1371L8.28506 86.1586H24.6724L28.6297 80.1605V80.1014V80.1016ZM6.0125 70.6374H11.6876L14.6735 73.6233C14.9245 73.8785 15.2241 74.0806 15.5547 74.2176C15.8853 74.3545 16.2401 74.4237 16.598 74.4208H24.2379C24.3226 74.4216 24.4037 74.4554 24.4638 74.5151C24.524 74.5748 24.5584 74.6556 24.5598 74.7403V77.2865L12.2123 77.2589H12.2023C11.6607 77.2446 11.1248 77.3724 10.648 77.6297C10.1711 77.8871 9.77008 78.2648 9.48472 78.7254L6.0125 84.5718V70.6374ZM31.2932 79.1483C31.3584 79.3115 31.3919 79.4857 31.392 79.6614V80.5259C31.392 80.7011 31.3584 80.8746 31.293 81.0372C31.2226 81.2126 31.1347 81.3805 31.0306 81.5383L26.5688 88.3001C26.4427 88.4912 26.2712 88.648 26.0697 88.7565C25.8682 88.865 25.6429 88.9218 25.414 88.9219H7.09089C6.54426 88.9232 6.0019 88.8256 5.49006 88.6336C5.44488 88.6174 5.40078 88.5982 5.35803 88.5764C5.35214 88.5743 5.34605 88.5723 5.34219 88.5705C4.71833 88.2729 4.19106 87.8055 3.82096 87.2217C3.45087 86.638 3.25297 85.9617 3.25 85.2705V70.5961C3.25102 69.8746 3.53812 69.1828 4.04835 68.6726C4.55858 68.1624 5.2503 67.8753 5.97187 67.8743H11.7053C12.0631 67.8714 12.4179 67.9405 12.7485 68.0775C13.0791 68.2145 13.3788 68.4166 13.6297 68.6717L16.614 71.6577H24.2383C25.0559 71.6584 25.8398 71.9834 26.4181 72.5614C26.9963 73.1394 27.3218 73.9231 27.323 74.7407V77.2926L28.3906 77.2946C28.8931 77.2835 29.3908 77.394 29.8414 77.6168C30.2919 77.8397 30.6819 78.1682 30.978 78.5743C31.1061 78.7523 31.2121 78.9452 31.2938 79.1487L31.2932 79.1483ZM34.3891 35.8197C34.3897 35.8818 34.3943 35.9439 34.4029 36.0054L39.1241 28.0571C39.4438 27.5431 39.8927 27.122 40.426 26.8356C40.9592 26.5492 41.5582 26.4077 42.1633 26.425H42.1712L57.3885 26.4587V23.0915C57.3862 22.913 57.3144 22.7424 57.1883 22.616C57.0623 22.4896 56.8918 22.4174 56.7133 22.4147H47.4744C47.0799 22.418 46.6888 22.3419 46.3242 22.1911C45.9597 22.0402 45.6293 21.8175 45.3525 21.5364L41.729 17.9126C41.7087 17.8878 41.6825 17.8684 41.6529 17.856C41.6233 17.8436 41.5911 17.8387 41.5592 17.8417H34.6277C34.5649 17.843 34.5049 17.8686 34.4605 17.913C34.416 17.9574 34.3904 18.0173 34.3891 18.0802V35.8197ZM61.7244 29.2297C61.9363 29.2193 62.1447 29.2867 62.3104 29.4193V29.7313L57.3922 37.1837H36.9172L41.5001 29.4686C41.5785 29.3704 41.6802 29.2933 41.796 29.2444C41.9118 29.1955 42.038 29.1763 42.1631 29.1885H42.1653L61.7244 29.2291V29.2297ZM31.6266 35.8197V18.0802C31.6277 17.2844 31.9443 16.5215 32.5071 15.9587C33.0698 15.396 33.8327 15.0793 34.6285 15.0782H41.5594C41.9543 15.075 42.3458 15.1513 42.7106 15.3026C43.0754 15.4538 43.406 15.6769 43.6828 15.9586L47.3066 19.5823C47.3265 19.607 47.3523 19.6262 47.3817 19.6383C47.411 19.6503 47.4429 19.6549 47.4744 19.6514H56.7125C57.6243 19.6525 58.4985 20.0154 59.1431 20.6603C59.7877 21.3053 60.15 22.1797 60.1506 23.0915V26.4646L61.7295 26.4664C62.2911 26.4537 62.8475 26.5766 63.3516 26.8247C63.8556 27.0728 64.2924 27.4387 64.6248 27.8915C64.7668 28.089 64.8841 28.3031 64.9742 28.529C65.0395 28.6915 65.0731 28.865 65.0729 29.0402V30.0843C65.0727 30.2594 65.0392 30.4329 64.9742 30.5955C64.8975 30.7892 64.8009 30.9743 64.686 31.148L59.2889 39.3251C59.1631 39.5163 58.9916 39.6732 58.7901 39.7817C58.5885 39.8903 58.3631 39.947 58.1342 39.9468H35.9797C35.3542 39.9486 34.7336 39.8369 34.148 39.6171C34.0999 39.6 34.0531 39.5796 34.0078 39.5562L33.9901 39.5503C33.2849 39.2141 32.6888 38.6856 32.2706 38.0257C31.8523 37.3658 31.6288 36.6012 31.6257 35.8199L31.6266 35.8197ZM10.7717 64.5863V58.4188C10.7717 55.8667 12.7315 53.7926 15.1389 53.7926H44.8138V45.0288C44.8138 44.6625 44.9594 44.3111 45.2184 44.0521C45.4774 43.7931 45.8288 43.6475 46.1951 43.6475C46.5614 43.6475 46.9128 43.7931 47.1718 44.0521C47.4308 44.3111 47.5763 44.6625 47.5763 45.0288V53.792H77.2495C79.6573 53.792 81.6166 55.8663 81.6166 58.4184V64.5861C81.6166 64.9524 81.4711 65.3037 81.2121 65.5628C80.953 65.8218 80.6017 65.9673 80.2354 65.9673C79.8691 65.9673 79.5177 65.8218 79.2587 65.5628C78.9997 65.3037 78.8541 64.9524 78.8541 64.5861V58.4188C78.8541 57.4085 78.1198 56.5557 77.2495 56.5557H47.5772V64.5867C47.5772 64.953 47.4316 65.3043 47.1726 65.5634C46.9136 65.8224 46.5622 65.9679 46.1959 65.9679C45.8296 65.9679 45.4782 65.8224 45.2192 65.5634C44.9602 65.3043 44.8147 64.953 44.8147 64.5867V56.5553H15.1395C14.2712 56.5553 13.5348 57.4085 13.5348 58.4186V64.5863C13.5348 64.7677 13.4991 64.9473 13.4297 65.1149C13.3603 65.2824 13.2585 65.4347 13.1303 65.563C13.002 65.6912 12.8497 65.793 12.6822 65.8624C12.5146 65.9318 12.335 65.9675 12.1536 65.9675C11.9722 65.9675 11.7926 65.9318 11.625 65.8624C11.4574 65.793 11.3051 65.6912 11.1769 65.563C11.0486 65.4347 10.9469 65.2824 10.8775 65.1149C10.8081 64.9473 10.7723 64.7677 10.7723 64.5863H10.7717Z" fill="#231F20"/>
<path fill-rule="evenodd" clip-rule="evenodd" d="M34.3896 18.0801V35.8197C34.3902 35.8818 34.3949 35.9438 34.4035 36.0053L39.1247 28.057C39.7341 27.0317 40.8716 26.4235 42.1716 26.4249L57.3889 26.4586V23.0914C57.3866 22.9129 57.3148 22.7423 57.1887 22.6159C57.0626 22.4895 56.8922 22.4173 56.7137 22.4146H47.475C47.0805 22.4179 46.6893 22.3419 46.3248 22.191C45.9603 22.0401 45.6299 21.8175 45.3531 21.5363L41.7296 17.9126C41.7092 17.8877 41.6831 17.8683 41.6535 17.8559C41.6239 17.8436 41.5917 17.8387 41.5598 17.8417H34.6283C34.5655 17.843 34.5055 17.8685 34.4611 17.9129C34.4166 17.9574 34.391 18.0173 34.3896 18.0801Z" fill="#00ABEA"/>
<path fill-rule="evenodd" clip-rule="evenodd" d="M14.6739 73.6236L11.688 70.6377H6.0127V84.5721L9.48613 78.7257C9.77247 78.2638 10.1751 77.8851 10.6538 77.6278C11.1325 77.3704 11.6704 77.2433 12.2137 77.2592L24.5613 77.2868V74.7406C24.5598 74.6559 24.5254 74.5751 24.4652 74.5154C24.4051 74.4557 24.324 74.4219 24.2393 74.4211H16.5984C16.2405 74.424 15.8857 74.3549 15.5551 74.2179C15.2245 74.0809 14.9249 73.8788 14.6739 73.6236Z" fill="#00ABEA"/>
<path fill-rule="evenodd" clip-rule="evenodd" d="M75.3711 70.6372V84.5716L78.8429 78.7256C79.129 78.264 79.5313 77.8855 80.0096 77.6281C80.4879 77.3708 81.0253 77.2435 81.5682 77.2591L93.9182 77.2867V74.7405C93.9168 74.6558 93.8824 74.575 93.8222 74.5153C93.7621 74.4556 93.681 74.4218 93.5963 74.421H85.9557C85.5979 74.4239 85.2432 74.3547 84.9126 74.2177C84.5821 74.0807 84.2824 73.8787 84.0315 73.6235L81.0456 70.6376L75.3711 70.6372Z" fill="#00ABEA"/>
</svg>
