<svg width="104" height="104" viewBox="0 0 104 104" fill="none" xmlns="http://www.w3.org/2000/svg">
<path fill-rule="evenodd" clip-rule="evenodd" d="M71.2217 10.9216C69.6132 17.1389 66.6268 24.2086 63.0662 25.3967C62.1319 25.7085 61.1617 25.5724 60.1295 24.9823C62.3622 20.7466 63.6742 15.7099 64.0433 9.95109L70.3674 9.83653C70.5019 9.82769 70.6365 9.85333 70.7583 9.91102C70.8801 9.96871 70.9853 10.0565 71.0637 10.1662C71.1512 10.2689 71.2115 10.3919 71.2392 10.5239C71.2668 10.656 71.2608 10.7929 71.2217 10.922V10.9216ZM48.9432 29.0341C51.7138 29.642 54.2153 28.5131 56.5829 25.5883C59.7051 20.7309 61.3222 14.4645 61.3868 6.9617C61.3877 6.84742 61.3661 6.73407 61.3231 6.62815C61.2802 6.52223 61.2168 6.42582 61.1366 6.34443C61.0563 6.26304 60.9608 6.19827 60.8555 6.15383C60.7502 6.10938 60.6372 6.08614 60.5229 6.08542L40.6274 6.0123H40.6252C40.3963 6.0125 40.1767 6.103 40.0141 6.26413C39.8515 6.42527 39.7591 6.64404 39.7568 6.87294C39.7365 9.63402 39.9644 15.0201 41.7225 20.0748C43.3369 24.711 45.7647 27.7247 48.9428 29.0327L48.9432 29.0341ZM55.3416 38.6935H45.7831C47.0888 36.5628 47.8857 34.1597 48.1118 31.671C48.1455 31.6808 48.1788 31.6948 48.2133 31.7025C48.9318 31.8731 49.6676 31.9606 50.4061 31.9631C51.2882 31.9623 52.165 31.8265 53.0061 31.5605C53.2183 34.0877 54.0182 36.5303 55.342 38.6935H55.3416ZM60.9682 42.3229V46.8813H40.158V42.3229C40.1609 42.0941 40.253 41.8755 40.4148 41.7137C40.5766 41.5518 40.7951 41.4596 41.0239 41.4566H60.0998C60.3289 41.4595 60.5477 41.5517 60.7099 41.7134C60.8721 41.8752 60.9648 42.0939 60.9684 42.3229H60.9682ZM38.0557 25.3967C34.4969 24.2046 31.5106 17.1368 29.9022 10.9218C29.8642 10.7924 29.8589 10.6555 29.8869 10.5235C29.915 10.3916 29.9754 10.2686 30.0627 10.1658C30.1408 10.0557 30.2458 9.96758 30.3678 9.90984C30.4898 9.85211 30.6246 9.82672 30.7592 9.83612L37.0695 9.95069C37.3618 15.2498 38.532 20.7645 40.9317 25.0197C39.9214 25.5783 38.9738 25.7026 38.0563 25.3967H38.0557ZM73.2328 8.45467C72.889 8.01163 72.4457 7.65573 71.9389 7.41578C71.432 7.17582 70.8758 7.05854 70.3152 7.07342L64.1463 7.18595C64.1463 7.11872 64.1475 7.05372 64.1495 6.98669C64.1536 6.50826 64.0632 6.03373 63.8834 5.59035C63.7036 5.14697 63.438 4.74349 63.1018 4.40307C62.7656 4.06265 62.3654 3.792 61.9243 3.60667C61.4832 3.42134 61.0099 3.32498 60.5314 3.32313L40.6398 3.25H40.6252C39.6674 3.25193 38.749 3.6314 38.0692 4.30609C37.3893 4.98079 37.0029 5.8963 36.9937 6.85405V7.18555L30.8084 7.07281C30.2487 7.06294 29.6944 7.18256 29.1886 7.42232C28.6828 7.66208 28.2393 8.0155 27.8927 8.45499C27.5461 8.89447 27.3057 9.40812 27.1904 9.95584C27.0751 10.5036 27.0879 11.0705 27.2279 11.6125C28.341 15.915 31.5384 26.127 37.1792 28.0158C37.7877 28.2225 38.4256 28.3292 39.0682 28.3317C40.2689 28.3104 41.4412 27.9638 42.4604 27.3288C43.3004 28.4263 44.2949 29.3963 45.4131 30.2085C45.4191 33.2717 44.4441 36.0565 42.4486 38.6935H41.0237C40.0617 38.695 39.1395 39.078 38.4594 39.7584C37.7793 40.4388 37.3967 41.3611 37.3955 42.3231V48.2619C37.3955 48.6282 37.541 48.9795 37.8001 49.2386C38.0591 49.4976 38.4104 49.6431 38.7768 49.6431H62.3498C62.7161 49.6431 63.0675 49.4976 63.3265 49.2386C63.5855 48.9795 63.7311 48.6282 63.7311 48.2619V42.3229C63.7297 41.3603 63.3466 40.4376 62.6657 39.7571C61.9848 39.0767 61.0618 38.6942 60.0992 38.6935H58.6773C56.6798 36.0565 55.7046 33.2717 55.7105 30.2067C56.8371 29.3994 57.8455 28.4388 58.7066 27.3526C59.715 27.9735 60.8718 28.3116 62.0559 28.3317C62.6976 28.3299 63.3348 28.2239 63.9425 28.0178C69.5839 26.1328 72.7827 15.9171 73.8981 11.6125C74.0436 11.0709 74.0593 10.5027 73.9438 9.95396C73.8283 9.40523 73.5848 8.89154 73.2333 8.45467H73.2328ZM62.5044 97.9875H39.39V62.4467C39.3911 61.5048 39.7657 60.6018 40.4317 59.9358C41.0977 59.2698 42.0008 58.8951 42.9426 58.8941H58.9517C59.8934 58.8956 60.7961 59.2704 61.462 59.9363C62.1278 60.6023 62.5024 61.505 62.5038 62.4467V97.9869L62.5044 97.9875ZM58.9517 56.1316H42.9426C41.2683 56.1338 39.6631 56.7999 38.4792 57.9838C37.2952 59.1678 36.6291 60.773 36.6269 62.4473V99.3688C36.6269 99.7351 36.7724 100.086 37.0314 100.345C37.2905 100.604 37.6418 100.75 38.0081 100.75H63.8854C64.2518 100.75 64.6031 100.604 64.8621 100.345C65.1212 100.086 65.2667 99.7351 65.2667 99.3688V62.4471C65.2644 60.7728 64.5982 59.1677 63.4143 57.9838C62.2304 56.7998 60.6253 56.1337 58.9509 56.1314L58.9517 56.1316ZM28.8708 97.9875H7.86316V79.4026C7.8644 78.4608 8.2391 77.5579 8.90509 76.8919C9.57108 76.226 10.474 75.8513 11.4158 75.8501H25.3189C26.2606 75.8515 27.1634 76.2263 27.8293 76.8922C28.4951 77.5581 28.8698 78.4609 28.8712 79.4026V97.9869L28.8708 97.9875ZM25.3181 73.0874H11.4158C9.74127 73.0895 8.13587 73.7555 6.95165 74.9394C5.76743 76.1234 5.10105 77.7286 5.09863 79.4032V99.3689C5.09863 99.7353 5.24416 100.087 5.50319 100.346C5.76223 100.605 6.11355 100.75 6.47988 100.75H30.2518C30.4332 100.75 30.6128 100.714 30.7804 100.645C30.948 100.576 31.1002 100.474 31.2285 100.346C31.3568 100.217 31.4585 100.065 31.5279 99.8975C31.5973 99.73 31.6331 99.5503 31.6331 99.3689V79.4032C31.6307 77.7289 30.9646 76.1237 29.7807 74.9398C28.5967 73.7559 26.9916 73.0897 25.3173 73.0874H25.3181ZM96.138 97.9875H73.0236V71.0757C73.0247 70.1338 73.3993 69.2308 74.0654 68.5648C74.7314 67.8987 75.6344 67.5241 76.5763 67.523H92.5846C93.5263 67.5245 94.4289 67.8993 95.0947 68.5653C95.7605 69.2312 96.1351 70.134 96.1364 71.0757V97.9869L96.138 97.9875ZM92.5846 64.7599H76.5763C74.902 64.7623 73.297 65.4285 72.1132 66.6124C70.9294 67.7963 70.2633 69.4014 70.2611 71.0757V99.3688C70.2611 99.7351 70.4067 100.086 70.6657 100.345C70.9247 100.604 71.2761 100.75 71.6424 100.75H97.5205C97.8868 100.75 98.2382 100.604 98.4972 100.345C98.7562 100.086 98.9018 99.7351 98.9018 99.3688V71.0761C98.8996 69.4014 98.2333 67.796 97.049 66.6119C95.8647 65.4279 94.2592 64.7618 92.5846 64.7599Z" fill="#231F20"/>
<path fill-rule="evenodd" clip-rule="evenodd" d="M11.4159 75.8501C10.4741 75.8513 9.5712 76.2259 8.90521 76.8919C8.23922 77.5578 7.86452 78.4607 7.86328 79.4026V97.9875H28.8709V79.4032C28.8695 78.4614 28.4949 77.5587 27.829 76.8928C27.1631 76.2268 26.2603 75.8521 25.3186 75.8507L11.4159 75.8501Z" fill="#00ABEA"/>
<path fill-rule="evenodd" clip-rule="evenodd" d="M73.0234 71.0755V97.9873H96.1378V71.0761C96.1366 70.1344 95.762 69.2316 95.0962 68.5657C94.4304 67.8997 93.5277 67.5249 92.586 67.5234H76.5761C75.6343 67.5245 74.7314 67.8991 74.0654 68.565C73.3994 69.2308 73.0247 70.1337 73.0234 71.0755Z" fill="#00ABEA"/>
<path fill-rule="evenodd" clip-rule="evenodd" d="M56.5831 25.5882C59.7053 20.7308 61.3224 14.4644 61.387 6.96161C61.3879 6.84733 61.3663 6.73398 61.3233 6.62806C61.2804 6.52214 61.217 6.42573 61.1368 6.34434C61.0565 6.26295 60.961 6.19818 60.8557 6.15374C60.7504 6.10929 60.6374 6.08605 60.5231 6.08533L40.6276 6.01221H40.6254C40.3965 6.01241 40.1769 6.10291 40.0143 6.26404C39.8517 6.42518 39.7593 6.64395 39.757 6.87285C39.7367 9.63393 39.9646 15.02 41.7227 20.0748C43.3371 24.7109 45.7649 27.7246 48.9429 29.0326C51.714 29.6419 54.2145 28.513 56.5831 25.5882Z" fill="#00ABEA"/>
<path fill-rule="evenodd" clip-rule="evenodd" d="M60.1 41.4565H41.0241C40.7953 41.4595 40.5768 41.5518 40.415 41.7136C40.2532 41.8755 40.1611 42.0941 40.1582 42.3229V46.8812H60.9686V42.3229C60.965 42.0938 60.8723 41.8752 60.7101 41.7134C60.5479 41.5516 60.3291 41.4595 60.1 41.4565Z" fill="#00ABEA"/>
</svg>
