<svg width="104" height="104" viewBox="0 0 104 104" fill="none" xmlns="http://www.w3.org/2000/svg">
<path fill-rule="evenodd" clip-rule="evenodd" d="M46.9278 71.2512C46.1008 73.2664 44.3519 74.6718 41.7328 75.4297C36.6669 76.894 29.8533 75.5243 26.2927 73.2822V59.1409C26.8499 58.2112 27.6502 57.706 28.649 57.0784C30.8776 55.6729 33.6525 53.9263 33.6525 46.8311C33.6289 46.315 33.6923 45.7985 33.84 45.3034C34.401 45.5935 35.4404 46.7718 35.7959 48.0429C36.1367 49.3953 36.3078 50.7849 36.3051 52.1796C36.3051 52.3015 36.2932 52.5546 36.2795 52.8231C36.1497 55.4954 36.2186 56.9059 36.9681 57.694C37.1259 57.8622 37.3163 57.9964 37.5278 58.0884C37.7392 58.1804 37.9673 58.2283 38.1979 58.2291L38.4963 58.227C39.7759 58.223 42.1525 58.2191 44.1445 58.5467C45.3253 58.7422 46.213 59.4015 46.8624 60.5638C48.3984 63.3171 48.1353 68.3126 46.9276 71.2512H46.9278ZM23.5302 74.0163C23.5292 74.0292 23.5236 74.0413 23.5145 74.0504C23.5054 74.0594 23.4933 74.065 23.4804 74.0659H19.9054C19.8927 74.0648 19.8807 74.0593 19.8716 74.0503C19.8625 74.0413 19.8568 74.0295 19.8555 74.0167V58.7876C19.8566 58.775 19.8621 58.7631 19.871 58.7541C19.8799 58.7451 19.8918 58.7395 19.9044 58.7383H23.4812C23.494 58.7392 23.5061 58.7446 23.5151 58.7537C23.5242 58.7628 23.5296 58.7749 23.5304 58.7876V74.0165L23.5302 74.0163ZM44.5926 55.821C42.637 55.4993 40.4381 55.4657 39.015 55.4639C38.9809 54.6291 38.9895 53.7931 39.0408 52.9592C39.0569 52.6297 39.0682 52.3701 39.0682 52.1796C39.0728 50.5326 38.8672 48.8918 38.4564 47.2969C37.8375 45.0842 35.5924 42.1909 33.3328 42.4989C32.2181 42.6526 30.8894 43.5291 30.8894 46.8311C30.8894 52.4008 29.1683 53.4843 27.1751 54.7396C26.3758 55.2071 25.6323 55.7639 24.9588 56.3993C24.5153 56.1226 24.0032 55.9756 23.4804 55.975H19.9054C19.1598 55.9759 18.4449 56.2725 17.9176 56.7998C17.3902 57.327 17.0935 58.0418 17.0924 58.7874V74.0163C17.0929 74.762 17.3893 75.477 17.9166 76.0044C18.4438 76.5317 19.1587 76.8283 19.9044 76.829H23.4812C23.851 76.8296 24.2173 76.7568 24.5587 76.6149C24.9002 76.473 25.2102 76.2648 25.4707 76.0023C28.4115 77.6324 32.785 78.7969 37.0819 78.7969C38.9128 78.8128 40.7369 78.5729 42.5015 78.0843C45.9223 77.0935 48.3356 75.0964 49.4845 72.3016C50.9635 68.7062 51.2901 62.8278 49.2751 59.2181C48.2217 57.3272 46.6009 56.1529 44.5935 55.8212L44.5926 55.821ZM84.5339 58.8744C88.6175 56.5092 92.009 53.1141 94.3698 49.028C96.7306 44.9419 97.9781 40.308 97.9875 35.5889C97.9875 20.7724 85.9328 8.71916 71.1159 8.71916C56.2989 8.71916 44.2455 20.7724 44.2453 35.5889C44.2453 35.8 44.2481 36.0171 44.2532 36.2363C49.2495 38.3198 53.5813 41.7294 56.7802 46.0965C59.9792 50.4635 61.9236 55.6219 62.4033 61.0139C65.207 61.9754 68.151 62.4643 71.1151 62.4606C72.2865 62.4599 73.4567 62.3841 74.6184 62.2337C74.8654 62.2021 75.1165 62.2375 75.3452 62.3362L84.7356 66.4016L83.8571 60.2654C83.8188 59.9925 83.8627 59.7143 83.9833 59.4664C84.1038 59.2186 84.2955 59.0123 84.5339 58.874V58.8744ZM32.8859 90.4729C47.7021 90.4729 59.7553 78.4177 59.7553 63.6013C59.7553 48.785 47.7013 36.7297 32.8859 36.7297C18.0706 36.7297 6.01392 48.785 6.0125 63.6013C6.02206 68.3203 7.2695 72.9542 9.63025 77.0403C11.991 81.1264 15.3824 84.5216 19.4659 86.8869C19.7044 87.0251 19.8963 87.2313 20.0169 87.4791C20.1375 87.727 20.1814 88.0052 20.1429 88.2782L19.2652 94.4144L28.6553 90.3486C28.8839 90.2503 29.1348 90.2153 29.3816 90.247C30.5434 90.3975 31.7136 90.4733 32.8851 90.4739L32.8859 90.4729ZM100.75 35.5889C100.75 19.2488 87.4551 5.95605 71.1151 5.95605C54.8919 5.95605 41.6735 19.0613 41.486 35.2416C38.6979 34.3949 35.7998 33.9653 32.8859 33.9666C16.5447 33.9666 3.25 47.2613 3.25 63.6013C3.25986 68.6459 4.55244 73.6051 7.00622 78.0127C9.45999 82.4203 12.9943 86.1315 17.277 88.7973L16.1815 96.4669C16.1472 96.7101 16.1782 96.958 16.2713 97.1852C16.3644 97.4124 16.5163 97.6107 16.7114 97.7598C16.9065 97.9089 17.1378 98.0034 17.3814 98.0335C17.6251 98.0637 17.8725 98.0285 18.098 97.9315L29.408 93.0329C30.5621 93.1675 31.723 93.2353 32.8849 93.236C49.1073 93.236 62.3242 80.1306 62.5138 63.9525C65.3026 64.7974 68.201 65.2256 71.1151 65.2235C72.2773 65.2228 73.4384 65.155 74.5928 65.0203L85.9016 69.9191C86.1269 70.0167 86.3743 70.0525 86.6181 70.0227C86.8619 69.993 87.0933 69.8987 87.2886 69.7497C87.4838 69.6007 87.6358 69.4024 87.7289 69.1751C87.822 68.9478 87.8527 68.6998 87.818 68.4566L86.7232 60.785C91.0058 58.1191 94.5402 54.4079 96.9939 50.0003C99.4476 45.5927 100.74 40.6335 100.75 35.5889ZM88.4813 41.5019C87.6543 43.5151 85.9052 44.9205 83.2861 45.6784C78.2222 47.1447 71.4084 45.7751 67.8486 43.533V29.3894C68.4056 28.4599 69.2059 27.9547 70.2026 27.327C72.4334 25.9236 75.2062 24.1751 75.2062 17.0798C75.1823 16.5643 75.2456 16.0485 75.3935 15.5541C75.9549 15.8442 76.9943 17.0205 77.3514 18.2916C77.6916 19.6448 77.8625 21.035 77.8605 22.4303C77.8605 22.5508 77.8468 22.8055 77.8351 23.0738C77.7028 25.7461 77.7741 27.1554 78.5218 27.9429C78.6797 28.1115 78.8705 28.2459 79.0823 28.3379C79.2942 28.4299 79.5226 28.4775 79.7536 28.4777H80.0516C81.3288 28.4737 83.7078 28.4698 85.6984 28.7975C86.8794 28.9908 87.7687 29.6506 88.416 30.8125C89.9517 33.5658 89.6911 38.5633 88.4817 41.5019H88.4813ZM65.0855 44.2644C65.0845 44.2773 65.0789 44.2894 65.0697 44.2985C65.0604 44.3075 65.0483 44.313 65.0353 44.3138H61.4603C61.4473 44.3132 61.435 44.3079 61.4257 44.2988C61.4165 44.2896 61.4109 44.2774 61.4102 44.2644V29.0374C61.4109 29.0246 61.4162 29.0125 61.4252 29.0035C61.4342 28.9944 61.4462 28.9889 61.4589 28.988H65.0355C65.0482 28.9892 65.06 28.9948 65.069 29.0038C65.0779 29.0128 65.0834 29.0247 65.0845 29.0374V44.2644H65.0855ZM90.8296 29.4657C92.8426 33.0757 92.5169 38.9531 91.0368 42.5513C89.8899 45.344 87.475 47.3434 84.0537 48.3322C82.2895 48.8226 80.4652 49.063 78.6342 49.0466C74.3375 49.0466 69.9642 47.88 67.0247 46.252C66.7638 46.5136 66.4538 46.7212 66.1125 46.8627C65.7712 47.0043 65.4053 47.077 65.0357 47.0769H61.4597C60.7141 47.0762 59.9992 46.7796 59.472 46.2523C58.9448 45.725 58.6484 45.0101 58.6479 44.2644V29.0374C58.6487 28.2916 58.9454 27.5766 59.4729 27.0493C60.0003 26.522 60.7154 26.2255 61.4612 26.2249H65.0362C65.5581 26.2251 66.0695 26.3714 66.5125 26.6474C67.1863 26.0113 67.9306 25.4544 68.731 24.9874C70.7216 23.7342 72.4437 22.6487 72.4435 17.079C72.4435 13.777 73.7742 12.9007 74.8889 12.7488C77.1436 12.4388 79.3936 15.3341 80.0126 17.5466C80.4225 19.1417 80.6281 20.7825 80.6244 22.4295C80.6244 22.619 80.6112 22.8776 80.5947 23.2073C80.5428 24.0411 80.5349 24.8771 80.571 25.7118C81.9928 25.7138 84.1915 25.7473 86.1465 26.0691C88.1562 26.4014 89.775 27.5757 90.8302 29.4666L90.8296 29.4657Z" fill="#231F20"/>
<path fill-rule="evenodd" clip-rule="evenodd" d="M19.8555 58.7874V74.0165C19.8568 74.0292 19.8625 74.041 19.8716 74.05C19.8807 74.059 19.8927 74.0645 19.9054 74.0656H23.4804C23.4933 74.0647 23.5054 74.0592 23.5145 74.0501C23.5236 74.041 23.5292 74.0289 23.5302 74.016V58.7872C23.5294 58.7744 23.524 58.7623 23.5149 58.7532C23.5059 58.7441 23.4938 58.7387 23.481 58.7378H19.9044C19.8917 58.739 19.8799 58.7446 19.8709 58.7537C19.862 58.7627 19.8565 58.7747 19.8555 58.7874Z" fill="#00ABEA"/>
<path fill-rule="evenodd" clip-rule="evenodd" d="M61.4111 29.0381V44.2652C61.4119 44.2782 61.4174 44.2904 61.4267 44.2995C61.436 44.3087 61.4483 44.314 61.4613 44.3146H65.0363C65.0492 44.3138 65.0614 44.3083 65.0706 44.2993C65.0798 44.2902 65.0855 44.2781 65.0865 44.2652V29.0381C65.0854 29.0255 65.0799 29.0136 65.0709 29.0046C65.062 28.9956 65.0502 28.99 65.0375 28.9888H61.4599C61.4471 28.9896 61.4351 28.9951 61.4262 29.0042C61.4172 29.0133 61.4118 29.0254 61.4111 29.0381Z" fill="#00ABEA"/>
</svg>
