<svg width="104" height="104" viewBox="0 0 104 104" fill="none" xmlns="http://www.w3.org/2000/svg">
<path fill-rule="evenodd" clip-rule="evenodd" d="M96.0255 59.1685L93.0308 58.3651C92.6524 58.2665 92.307 58.0687 92.0304 57.7922C91.7538 57.5158 91.5559 57.1705 91.457 56.7921L90.6547 53.7981L89.2104 55.2402L90.3453 59.4756L94.5811 60.6131L96.0253 59.1685H96.0255ZM78.6817 73.0691L73.441 78.3098C73.3128 78.4381 73.1604 78.5398 72.9928 78.6093C72.8252 78.6787 72.6455 78.7144 72.4641 78.7144C72.2827 78.7144 72.103 78.6787 71.9354 78.6093C71.7678 78.5398 71.6155 78.4381 71.4872 78.3098C71.3589 78.1815 71.2571 78.0292 71.1877 77.8615C71.1183 77.6939 71.0825 77.5143 71.0825 77.3328C71.0825 77.1514 71.1183 76.9717 71.1877 76.8041C71.2571 76.6365 71.3589 76.4842 71.4872 76.3559L76.7278 71.1153C75.1752 70.0496 73.2806 69.6023 71.4153 69.861C69.55 70.1198 67.8487 71.066 66.6449 72.5142C65.4411 73.9623 64.8216 75.8079 64.908 77.689C64.9944 79.5702 65.7804 81.3512 67.1118 82.6829C68.4432 84.0147 70.2241 84.801 72.1053 84.8878C73.9864 84.9745 75.8321 84.3555 77.2805 83.152C78.7289 81.9485 79.6754 80.2473 79.9346 78.3821C80.1938 76.5169 79.7468 74.6221 78.6815 73.0693L78.6817 73.0691ZM83.8161 67.9335C86.2365 70.8566 87.4381 74.5996 87.1714 78.3853C86.9046 82.1711 85.1899 85.7086 82.3835 88.2633C79.577 90.8181 75.8944 92.1937 72.1004 92.1046C68.3063 92.0155 64.6923 90.4684 62.0089 87.7848C59.3255 85.1011 57.7788 81.4869 57.6901 77.6929C57.6014 73.8988 58.9774 70.2163 61.5324 67.4101C64.0875 64.6039 67.6252 62.8897 71.4109 62.6233C75.1967 62.3569 78.9396 63.5589 81.8624 65.9797L78.7046 69.1375C76.6226 67.5505 74.0153 66.8139 71.4107 67.0768C68.806 67.3397 66.3986 68.5823 64.6756 70.5533C62.9526 72.5242 62.0428 75.0761 62.1303 77.6926C62.2179 80.309 63.2963 82.7944 65.1472 84.6457C66.9982 86.497 69.4833 87.5759 72.0997 87.664C74.7161 87.7521 77.2683 86.8429 79.2396 85.1203C81.2108 83.3977 82.454 80.9905 82.7174 78.3859C82.9808 75.7813 82.2448 73.1739 80.6583 71.0915L83.8161 67.9335ZM74.5379 94.7172V95.1415C74.5371 95.896 74.237 96.6193 73.7035 97.1528C73.1701 97.6864 72.4468 97.9865 71.6923 97.9875H10.3167C9.56219 97.9865 8.83888 97.6863 8.30542 97.1528C7.77196 96.6192 7.47192 95.8958 7.47112 95.1413V18.4257C7.47203 17.6714 7.77218 16.9484 8.30569 16.4152C8.83919 15.882 9.56245 15.5824 10.3167 15.5819H23.9901C23.872 16.1306 23.8124 16.6903 23.8121 17.2516V20.0184H19.5382C17.6602 20.0205 15.8597 20.7675 14.5318 22.0955C13.2039 23.4235 12.457 25.224 12.455 27.102V86.4644C12.457 88.3424 13.2039 90.1429 14.5318 91.4709C15.8597 92.7988 17.6602 93.5459 19.5382 93.548H62.4709C63.2944 93.5429 64.1108 93.3953 64.884 93.1119C67.8843 94.5527 71.2328 95.1094 74.5379 94.7166V94.7172ZM26.5752 17.2512V22.4453H52.1487V17.2512C52.1467 15.8744 51.5988 14.5545 50.6251 13.5811C49.6514 12.6076 48.3314 12.0601 46.9546 12.0585H44.345V13.7126C44.344 14.5353 44.0166 15.324 43.4347 15.9057C42.8529 16.4873 42.064 16.8144 41.2413 16.8151H37.4834C36.6607 16.8144 35.8718 16.4873 35.29 15.9057C34.7081 15.324 34.3807 14.5353 34.3797 13.7126V12.0585H31.7683C30.3915 12.0601 29.0715 12.6077 28.0979 13.5811C27.1242 14.5546 26.5763 15.8744 26.5744 17.2512H26.5752ZM37.1432 13.7126V6.35456C37.1442 6.26449 37.1804 6.17837 37.244 6.11458C37.3076 6.05079 37.3936 6.01438 37.4836 6.01311H41.2415C41.3316 6.01432 41.4176 6.05071 41.4813 6.11451C41.5449 6.17831 41.5811 6.26445 41.5821 6.35456V13.7126C41.5806 13.8023 41.5442 13.8879 41.4806 13.9512C41.4171 14.0146 41.3314 14.0507 41.2417 14.052H37.4839C37.3941 14.0507 37.3084 14.0146 37.2449 13.9512C37.1813 13.8879 37.1449 13.8023 37.1434 13.7126H37.1432ZM66.7909 60.7691C63.3404 61.9556 60.3459 64.189 58.2246 67.1579C56.1034 70.1268 54.9611 73.6835 54.9569 77.3323C54.9569 77.4073 54.9589 77.4802 54.9597 77.5558H37.6689C37.3026 77.5558 36.9512 77.7013 36.6922 77.9603C36.4332 78.2194 36.2876 78.5707 36.2876 78.937C36.2876 79.3033 36.4332 79.6547 36.6922 79.9137C36.9512 80.1727 37.3026 80.3183 37.6689 80.3183H55.2128C55.9263 84.416 58.0747 88.1261 61.2734 90.7847H19.5382C18.3928 90.7833 17.2946 90.3277 16.4848 89.5177C15.6749 88.7078 15.2193 87.6096 15.2181 86.4642V27.102C15.2193 25.9565 15.6749 24.8584 16.4848 24.0484C17.2946 23.2385 18.3928 22.7828 19.5382 22.7815H23.8121V23.8276C23.8121 24.1939 23.9576 24.5452 24.2167 24.8043C24.4757 25.0633 24.827 25.2088 25.1934 25.2088H53.5311C53.8975 25.2088 54.2488 25.0633 54.5078 24.8043C54.7669 24.5452 54.9124 24.1939 54.9124 23.8276V22.7815H62.4705C63.6159 22.7828 64.714 23.2385 65.5239 24.0484C66.3338 24.8584 66.7893 25.9565 66.7905 27.102V60.7691H66.7909ZM54.7346 15.5817C54.8529 16.1304 54.9126 16.69 54.9128 17.2512V20.0184H62.4709C64.3489 20.0205 66.1493 20.7675 67.4772 22.0955C68.8051 23.4235 69.552 25.224 69.554 27.102V60.0691C71.201 59.7901 72.8795 59.7496 74.5379 59.9489V18.4257C74.5369 17.6714 74.2368 16.9484 73.7033 16.4153C73.1698 15.8821 72.4466 15.5824 71.6923 15.5819L54.7346 15.5817ZM98.6371 60.4632L96.3158 62.7859C96.1109 62.9925 95.8673 63.1565 95.5989 63.2686C95.3305 63.3807 95.0426 63.4387 94.7517 63.4392C94.554 63.4388 94.3572 63.413 94.1661 63.3622L89.6094 62.1406L85.7758 65.9734C87.6789 68.2002 88.9925 70.8692 89.5961 73.7356C90.1997 76.602 90.074 79.5741 89.2306 82.3793C88.3871 85.1845 86.8529 87.7331 84.7686 89.7913C82.6843 91.8495 80.1166 93.3515 77.301 94.1596V95.1405C77.2995 96.6276 76.7081 98.0534 75.6566 99.105C74.6051 100.157 73.1795 100.748 71.6923 100.75H10.3167C8.82963 100.748 7.40401 100.157 6.35256 99.105C5.3011 98.0535 4.70967 96.6278 4.70801 95.1407V18.4257C4.70994 16.939 5.30156 15.5138 6.35304 14.4627C7.40452 13.4117 8.83 12.8207 10.3167 12.8194H25.1651C25.8921 11.7353 26.8748 10.8468 28.0263 10.2322C29.1779 9.61764 30.463 9.29591 31.7683 9.29541H34.3793V6.35456C34.3801 5.53148 34.7075 4.74235 35.2895 4.16033C35.8715 3.5783 36.6606 3.25091 37.4836 3.25H41.2415C42.0644 3.25108 42.8534 3.57853 43.4352 4.16054C44.0171 4.74255 44.3443 5.53159 44.3452 6.35456V9.29541H46.9558C48.2611 9.29577 49.5462 9.61733 50.6979 10.2317C51.8496 10.8461 52.8323 11.7345 53.5596 12.8184H71.6925C73.1792 12.8197 74.6047 13.4107 75.6562 14.4617C76.7077 15.5127 77.2993 16.938 77.3012 18.4247V60.5046C79.7003 61.1978 81.9235 62.3959 83.8215 64.0187L87.6703 60.1699L86.4607 55.6562C86.3572 55.2791 86.356 54.8812 86.4572 54.5034C86.5585 54.1256 86.7585 53.7816 87.0368 53.5068L89.3583 51.1838C89.6346 50.9075 89.9788 50.7088 90.3563 50.6077C90.7337 50.5066 91.1312 50.5066 91.5086 50.6078C91.886 50.709 92.2302 50.9078 92.5064 51.1842C92.7826 51.4607 92.9812 51.8049 93.0822 52.1824L94.0464 55.7781L97.6401 56.7413C98.0175 56.8423 98.3616 57.0409 98.6378 57.317C98.9141 57.5932 99.1127 57.9372 99.2139 58.3145C99.315 58.6918 99.3149 59.0891 99.2138 59.4664C99.1127 59.8437 98.914 60.1877 98.6377 60.4638L98.6371 60.4632ZM28.5289 75.6234L25.4572 78.6941L24.4416 77.6797C24.3145 77.5469 24.1621 77.4408 23.9934 77.3677C23.8247 77.2945 23.6432 77.2558 23.4593 77.2538C23.2755 77.2517 23.0931 77.2864 22.9228 77.3557C22.7526 77.4251 22.5979 77.5277 22.4678 77.6577C22.3377 77.7876 22.2349 77.9422 22.1653 78.1124C22.0958 78.2825 22.0609 78.4649 22.0627 78.6487C22.0646 78.8326 22.1031 79.0142 22.1761 79.183C22.249 79.3517 22.3549 79.5042 22.4875 79.6315L24.48 81.625C24.6083 81.7533 24.7606 81.8551 24.9282 81.9246C25.0958 81.994 25.2755 82.0298 25.4569 82.0298C25.6384 82.0298 25.818 81.994 25.9857 81.9246C26.1533 81.8551 26.3056 81.7533 26.4339 81.625L30.4823 77.5771C30.6106 77.4488 30.7124 77.2965 30.7819 77.1289C30.8513 76.9613 30.8871 76.7816 30.8871 76.6002C30.8871 76.4188 30.8514 76.2391 30.782 76.0715C30.7126 75.9039 30.6108 75.7515 30.4825 75.6232C30.3543 75.4949 30.202 75.3931 30.0344 75.3237C29.8667 75.2542 29.6871 75.2185 29.5057 75.2185C29.3242 75.2185 29.1446 75.2542 28.9769 75.3236C28.8093 75.393 28.657 75.4948 28.5287 75.623L28.5289 75.6234ZM57.3956 59.3168H37.6689C37.3026 59.3168 36.9512 59.4623 36.6922 59.7213C36.4332 59.9804 36.2876 60.3317 36.2876 60.698C36.2876 61.0644 36.4332 61.4157 36.6922 61.6747C36.9512 61.9337 37.3026 62.0793 37.6689 62.0793H57.3956C57.7619 62.0793 58.1132 61.9337 58.3723 61.6747C58.6313 61.4157 58.7768 61.0644 58.7768 60.698C58.7768 60.3317 58.6313 59.9804 58.3723 59.7213C58.1132 59.4623 57.7619 59.3168 57.3956 59.3168ZM57.3956 39.9807H37.6689C37.3026 39.9807 36.9512 40.1262 36.6922 40.3852C36.4332 40.6443 36.2876 40.9956 36.2876 41.3619C36.2876 41.7283 36.4332 42.0796 36.6922 42.3386C36.9512 42.5977 37.3026 42.7432 37.6689 42.7432H57.3956C57.7619 42.7432 58.1132 42.5977 58.3723 42.3386C58.6313 42.0796 58.7768 41.7283 58.7768 41.3619C58.7768 40.9956 58.6313 40.6443 58.3723 40.3852C58.1132 40.1262 57.7619 39.9807 57.3956 39.9807ZM28.5289 57.3842L25.4572 60.4553L24.4416 59.4397C24.1825 59.1805 23.8311 59.0349 23.4646 59.0349C23.0982 59.0349 22.7468 59.1805 22.4876 59.4396C22.2285 59.6987 22.0829 60.0501 22.0829 60.4165C22.0829 60.783 22.2284 61.1344 22.4875 61.3935L24.48 63.387C24.6083 63.5153 24.7606 63.6171 24.9282 63.6866C25.0958 63.756 25.2755 63.7918 25.4569 63.7918C25.6384 63.7918 25.818 63.756 25.9857 63.6866C26.1533 63.6171 26.3056 63.5153 26.4339 63.387L30.4823 59.3371C30.7312 59.076 30.8681 58.7279 30.8637 58.3672C30.8593 58.0065 30.714 57.6619 30.4589 57.4069C30.2037 57.152 29.8589 57.0069 29.4982 57.0028C29.1375 56.9988 28.7896 57.1359 28.5287 57.385L28.5289 57.3842ZM30.4825 38.8416C30.2233 38.5827 29.872 38.4374 29.5057 38.4374C29.1394 38.4374 28.7881 38.5827 28.5289 38.8416L25.4572 41.9124L24.4416 40.898C24.1825 40.6389 23.8311 40.4933 23.4646 40.4933C23.0982 40.4933 22.7468 40.6388 22.4876 40.8979C22.2285 41.157 22.0829 41.5084 22.0829 41.8749C22.0829 42.2413 22.2284 42.5927 22.4875 42.8519L24.48 44.8435C24.6083 44.9719 24.7606 45.0737 24.9282 45.1432C25.0959 45.2126 25.2756 45.2484 25.457 45.2484C25.6385 45.2484 25.8182 45.2126 25.9858 45.1432C26.1535 45.0737 26.3058 44.9719 26.4341 44.8435L30.4823 40.7956C30.6107 40.6674 30.7126 40.5151 30.782 40.3474C30.8515 40.1798 30.8873 40.0001 30.8873 39.8186C30.8874 39.6372 30.8516 39.4575 30.7822 39.2898C30.7127 39.1222 30.6109 38.9698 30.4825 38.8416Z" fill="#231F20"/>
<path fill-rule="evenodd" clip-rule="evenodd" d="M72.4642 87.637C70.8273 87.6387 69.2134 87.2503 67.7564 86.5042C66.2994 85.7581 65.041 84.6756 64.0856 83.3463C63.1302 82.0171 62.5051 80.4794 62.2622 78.8606C62.0193 77.2417 62.1655 75.5883 62.6887 74.0372C63.212 72.4861 64.0971 71.082 65.271 69.941C66.4449 68.8001 67.8737 67.9552 69.439 67.4764C71.0044 66.9975 72.6613 66.8984 74.2726 67.1873C75.8839 67.4762 77.4031 68.1447 78.7046 69.1376L81.8624 65.9798C78.9392 63.5587 75.1958 62.3565 71.4095 62.6229C67.6232 62.8892 64.085 64.6037 61.5296 67.4103C58.9742 70.2168 57.5979 73.8998 57.6867 77.6945C57.7754 81.4891 59.3223 85.1037 62.006 87.7878C64.6898 90.4719 68.3043 92.0191 72.0989 92.1082C75.8935 92.1973 79.5767 90.8215 82.3835 88.2664C85.1903 85.7113 86.9052 82.1732 87.172 78.3869C87.4387 74.6007 86.2369 70.8571 83.8161 67.9337L80.6583 71.0917C81.8231 72.6184 82.5379 74.4404 82.7219 76.3519C82.9059 78.2634 82.5518 80.1882 81.6995 81.9091C80.8473 83.6299 79.5309 85.0782 77.8989 86.0904C76.267 87.1025 74.3846 87.6383 72.4642 87.637Z" fill="#00ABEA"/>
<path fill-rule="evenodd" clip-rule="evenodd" d="M26.575 22.4454H52.1485V17.2513C52.1465 15.8744 51.5986 14.5546 50.6249 13.5811C49.6512 12.6077 48.3312 12.0602 46.9544 12.0586H44.3448V13.7126C44.3438 14.5354 44.0164 15.3241 43.4345 15.9058C42.8527 16.4874 42.0638 16.8145 41.2411 16.8152H37.4832C36.6605 16.8145 35.8717 16.4874 35.2898 15.9058C34.7079 15.3241 34.3805 14.5354 34.3795 13.7126V12.0586H31.7681C30.3913 12.0602 29.0714 12.6078 28.0977 13.5812C27.124 14.5546 26.5762 15.8745 26.5742 17.2513L26.575 22.4454Z" fill="#00ABEA"/>
</svg>
