<svg width="104" height="104" viewBox="0 0 104 104" fill="none" xmlns="http://www.w3.org/2000/svg">
<path fill-rule="evenodd" clip-rule="evenodd" d="M95.721 46.0483C95.7165 49.9394 94.1687 53.6698 91.4173 56.4211C88.6659 59.1725 84.9355 60.7202 81.0444 60.7247H22.9552C19.0641 60.7202 15.3337 59.1725 12.5824 56.4211C9.83099 53.6697 8.28328 49.9394 8.27876 46.0483V44.6313C8.27624 42.1254 8.91804 39.6608 10.1425 37.4744C11.367 35.2879 13.1331 33.453 15.2711 32.1459C15.5232 31.9895 15.7182 31.7561 15.8274 31.4803C15.9365 31.2044 15.9539 30.9008 15.8771 30.6143C15.2778 28.3694 15.2024 26.0167 15.6566 23.738C16.1109 21.4593 17.0827 19.3155 18.497 17.4719C19.9113 15.6284 21.7302 14.1345 23.8135 13.1055C25.8968 12.0766 28.1887 11.5401 30.5122 11.5374C32.5372 11.5309 34.5426 11.9336 36.408 12.7215C38.2735 13.5094 39.9604 14.6662 41.3676 16.1223C41.5113 16.27 41.6861 16.3836 41.8794 16.4549C42.0726 16.5263 42.2794 16.5535 42.4845 16.5345C42.6897 16.5156 42.8879 16.451 43.0649 16.3455C43.2418 16.2401 43.3929 16.0963 43.5071 15.9249C46.1401 11.9569 49.9808 8.94218 54.4607 7.32705C58.9406 5.71193 63.8214 5.58225 68.3807 6.95721C72.94 8.33217 76.9354 11.1387 79.7754 14.9613C82.6154 18.7839 84.149 23.4194 84.1492 28.1815C84.1492 28.4835 84.1431 28.7992 84.1275 29.1526C84.1143 29.4616 84.2052 29.7662 84.3857 30.0174C84.5661 30.2686 84.8257 30.452 85.1228 30.5381C88.1702 31.4352 90.8472 33.2908 92.7564 35.8297C94.6657 38.3687 95.7055 41.4555 95.7214 44.6322V46.0483H95.721ZM90.0173 92.2839C90.0172 93.4118 89.6826 94.5145 89.0558 95.4523C88.429 96.3901 87.5382 97.121 86.496 97.5525C85.4539 97.9841 84.3071 98.0969 83.2008 97.8767C82.0946 97.6565 81.0784 97.1132 80.2809 96.3155C79.4834 95.5178 78.9404 94.5015 78.7204 93.3951C78.5005 92.2888 78.6136 91.1421 79.0454 90.1C79.4772 89.058 80.2083 88.1674 81.1463 87.5408C82.0843 86.9143 83.187 86.5799 84.3149 86.5801C85.8271 86.5816 87.2769 87.183 88.346 88.2524C89.4151 89.3218 90.0162 90.7717 90.0173 92.2839ZM62.7766 92.2839C62.7763 93.4116 62.4416 94.5139 61.8149 95.4515C61.1882 96.389 60.2975 97.1197 59.2555 97.5511C58.2135 97.9825 57.067 98.0952 55.961 97.875C54.855 97.6549 53.839 97.1117 53.0417 96.3142C52.2443 95.5166 51.7014 94.5006 51.4814 93.3945C51.2615 92.2884 51.3745 91.1419 51.8061 90.1001C52.2377 89.0582 52.9685 88.1677 53.9062 87.5411C54.8439 86.9146 55.9463 86.5801 57.0741 86.5801C58.5862 86.5818 60.0358 87.1833 61.1049 88.2526C62.1741 89.3219 62.7752 90.7718 62.7766 92.2839ZM25.3886 92.2839C25.3884 93.4117 25.0538 94.5142 24.4271 95.4519C23.8004 96.3896 22.9098 97.1205 21.8677 97.552C20.8257 97.9836 19.6791 98.0964 18.5729 97.8764C17.4668 97.6563 16.4507 97.1132 15.6531 96.3157C14.8556 95.5182 14.3125 94.5021 14.0924 93.396C13.8723 92.2898 13.9851 91.1432 14.4166 90.1011C14.8481 89.0591 15.5789 88.1684 16.5166 87.5417C17.4543 86.9149 18.5568 86.5803 19.6846 86.5801C21.197 86.5814 22.647 87.1827 23.7164 88.2521C24.7859 89.3215 25.3872 90.7715 25.3886 92.2839ZM86.9127 28.2162C86.9127 28.2044 86.9127 28.1924 86.9127 28.1807C86.9125 22.9641 85.2761 17.879 82.2338 13.6415C79.1916 9.4039 74.8968 6.22729 69.9543 4.55896C65.0117 2.89063 59.6703 2.81461 54.6823 4.34161C49.6943 5.86862 45.3108 8.92171 42.1492 13.071C38.9132 10.2859 34.7817 8.76061 30.5122 8.7749C25.7634 8.77996 21.2106 10.6686 17.8527 14.0265C14.4948 17.3844 12.6061 21.9373 12.6011 26.6861C12.6013 27.9174 12.7269 29.1454 12.976 30.3512C10.6695 31.9502 8.78563 34.0852 7.48616 36.5728C6.1867 39.0604 5.5105 41.8262 5.51565 44.6328V46.0483C5.52098 50.6719 7.36006 55.1047 10.6294 58.3741C13.8988 61.6434 18.3315 63.4825 22.9552 63.4878H30.0172C30.0272 67.6799 29.7091 70.5024 26.5905 71.505C19.2745 73.8535 18.7767 78.2906 18.396 83.9159C16.2934 84.2378 14.3888 85.3387 13.0604 87.0001C11.732 88.6614 11.077 90.7616 11.2256 92.8835C11.3741 95.0054 12.3153 96.9938 13.8623 98.4539C15.4092 99.9139 17.4487 100.739 19.5756 100.764C21.7026 100.79 23.7614 100.015 25.3433 98.5929C26.9251 97.1708 27.9142 95.2058 28.1141 93.0881C28.314 90.9704 27.7101 88.8549 26.4224 87.1619C25.1346 85.4689 23.2572 84.3222 21.163 83.9494C21.5243 78.6422 21.9129 75.9087 27.4353 74.1363C32.6245 72.4684 32.7998 67.4002 32.7801 63.4883H43.9808C43.9605 67.4 44.1366 72.4686 49.3257 74.1363C54.8478 75.9085 55.2348 78.6422 55.5977 83.9494C53.508 84.3221 51.6348 85.467 50.3501 87.1569C49.0654 88.8467 48.4632 90.9579 48.663 93.0712C48.8629 95.1845 49.8502 97.1454 51.4289 98.5645C53.0076 99.9835 55.0622 100.757 57.1848 100.731C59.3074 100.706 61.3427 99.8826 62.8865 98.4257C64.4304 96.9688 65.3699 94.9846 65.5185 92.8671C65.6671 90.7495 65.014 88.6535 63.6887 86.9953C62.3635 85.3371 60.4631 84.2378 58.3649 83.9159C57.9841 78.291 57.4866 73.8541 50.1702 71.505C47.0521 70.5024 46.734 67.6799 46.7439 63.4878H71.2205C71.2002 67.3996 71.3763 72.4682 76.5651 74.1359C82.0877 75.9081 82.4742 78.6418 82.8374 83.949C80.7471 84.3217 78.8734 85.4668 77.5883 87.1571C76.3032 88.8473 75.7008 90.959 75.9007 93.0729C76.1006 95.1867 77.0881 97.1481 78.6672 98.5676C80.2462 99.987 82.3014 100.761 84.4245 100.735C86.5476 100.709 88.5835 99.886 90.1277 98.4288C91.6719 96.9715 92.6117 94.9868 92.7603 92.8687C92.9089 90.7506 92.2555 88.6541 90.9299 86.9955C89.6042 85.3369 87.7033 84.2374 85.6046 83.9155C85.2237 78.2906 84.7263 73.8537 77.4099 71.5046C74.2913 70.502 73.9737 67.6795 73.9834 63.4874H81.0452C85.6687 63.4819 90.1011 61.6429 93.3703 58.3736C96.6396 55.1043 98.4786 50.6718 98.4839 46.0483V44.6313C98.4663 41.0401 97.3475 37.5407 95.2783 34.6055C93.2091 31.6702 90.2892 29.4404 86.9127 28.217V28.2162Z" fill="#231F20"/>
<path fill-rule="evenodd" clip-rule="evenodd" d="M19.6843 97.9872C20.8124 97.9874 21.9151 97.6531 22.8531 97.0265C23.7911 96.3999 24.5222 95.5093 24.954 94.4672C25.3857 93.4251 25.4988 92.2783 25.2788 91.172C25.0588 90.0656 24.5156 89.0494 23.718 88.2517C22.9204 87.4541 21.9042 86.9109 20.7978 86.6909C19.6915 86.4708 18.5447 86.5838 17.5026 87.0155C16.4605 87.4473 15.5698 88.1784 14.9432 89.1163C14.3166 90.0543 13.9823 91.157 13.9824 92.2851C13.9842 93.7968 14.5855 95.2461 15.6544 96.315C16.7234 97.384 18.1726 97.9853 19.6843 97.9872Z" fill="#00ABEA"/>
<path fill-rule="evenodd" clip-rule="evenodd" d="M51.3721 92.2846C51.3724 93.4123 51.707 94.5147 52.3338 95.4523C52.9606 96.3898 53.8513 97.1205 54.8933 97.5518C55.9353 97.9832 57.0818 98.0959 58.1879 97.8757C59.2939 97.6555 60.3099 97.1122 61.1072 96.3146C61.9045 95.5171 62.4474 94.501 62.6673 93.3948C62.8872 92.2887 62.7741 91.1422 62.3424 90.1003C61.9107 89.0585 61.1798 88.168 60.242 87.5415C59.3042 86.9151 58.2018 86.5807 57.074 86.5808C55.5619 86.5824 54.1122 87.1839 53.0432 88.2532C51.9742 89.3226 51.3731 90.7725 51.3721 92.2846Z" fill="#00ABEA"/>
<path fill-rule="evenodd" clip-rule="evenodd" d="M78.6104 92.2846C78.6105 93.4125 78.945 94.515 79.5717 95.4528C80.1984 96.3906 81.0892 97.1215 82.1312 97.5531C83.1733 97.9847 84.32 98.0976 85.4262 97.8775C86.5324 97.6574 87.5486 97.1143 88.3461 96.3168C89.1437 95.5192 89.6869 94.5031 89.907 93.3969C90.1271 92.2906 90.0142 91.144 89.5827 90.1019C89.1511 89.0598 88.4203 88.1691 87.4825 87.5423C86.5448 86.9156 85.4422 86.581 84.3143 86.5808C82.802 86.5822 81.352 87.1835 80.2826 88.2529C79.2132 89.3222 78.6117 90.7722 78.6104 92.2846Z" fill="#00ABEA"/>
</svg>
