<svg width="104" height="104" viewBox="0 0 104 104" fill="none" xmlns="http://www.w3.org/2000/svg">
<path fill-rule="evenodd" clip-rule="evenodd" d="M61.2964 44.5987V44.6775C61.2964 45.0441 61.1508 45.3956 60.8917 45.6547C60.6325 45.9139 60.281 46.0595 59.9145 46.0595C59.548 46.0595 59.1964 45.9139 58.9373 45.6547C58.6781 45.3956 58.5325 45.0441 58.5325 44.6775V44.5987C58.5325 44.2322 58.6781 43.8807 58.9373 43.6215C59.1964 43.3624 59.548 43.2168 59.9145 43.2168C60.281 43.2168 60.6325 43.3624 60.8917 43.6215C61.1508 43.8807 61.2964 44.2322 61.2964 44.5987ZM53.3811 44.9954V45.0743C53.3811 45.4406 53.2355 45.7919 52.9765 46.0509C52.7175 46.31 52.3661 46.4555 51.9998 46.4555C51.6335 46.4555 51.2822 46.31 51.0231 46.0509C50.7641 45.7919 50.6186 45.4406 50.6186 45.0743V44.9954C50.6186 44.6291 50.7641 44.2778 51.0231 44.0187C51.2822 43.7597 51.6335 43.6142 51.9998 43.6142C52.3661 43.6142 52.7175 43.7597 52.9765 44.0187C53.2355 44.2778 53.3811 44.6291 53.3811 44.9954ZM45.4667 44.6658V44.7448C45.4667 45.1111 45.3212 45.4624 45.0621 45.7215C44.8031 45.9805 44.4518 46.126 44.0855 46.126C43.7191 46.126 43.3678 45.9805 43.1088 45.7215C42.8497 45.4624 42.7042 45.1111 42.7042 44.7448V44.6658C42.7042 44.2994 42.8497 43.9481 43.1088 43.6891C43.3678 43.43 43.7191 43.2845 44.0855 43.2845C44.4518 43.2845 44.8031 43.43 45.0621 43.6891C45.3212 43.9481 45.4667 44.2994 45.4667 44.6658ZM58.5323 32.5888V32.5075C58.5323 32.1412 58.6778 31.7899 58.9369 31.5308C59.1959 31.2718 59.5472 31.1263 59.9136 31.1263C60.2799 31.1263 60.6312 31.2718 60.8903 31.5308C61.1493 31.7899 61.2948 32.1412 61.2948 32.5075V32.5888C61.2948 32.9553 61.1492 33.3068 60.89 33.566C60.6309 33.8251 60.2794 33.9707 59.9129 33.9707C59.5463 33.9707 59.1948 33.8251 58.9357 33.566C58.6765 33.3068 58.5309 32.9553 58.5309 32.5888H58.5323ZM50.6186 32.9855V32.9062C50.6186 32.5399 50.7641 32.1886 51.0231 31.9296C51.2822 31.6705 51.6335 31.525 51.9998 31.525C52.3661 31.525 52.7175 31.6705 52.9765 31.9296C53.2355 32.1886 53.3811 32.5399 53.3811 32.9062V32.9851C53.3811 33.3514 53.2355 33.7027 52.9765 33.9618C52.7175 34.2208 52.3661 34.3663 51.9998 34.3663C51.6335 34.3663 51.2822 34.2208 51.0231 33.9618C50.7641 33.7027 50.6186 33.3514 50.6186 32.9851V32.9855ZM42.7042 32.656V32.577C42.7042 32.2107 42.8497 31.8593 43.1088 31.6003C43.3678 31.3413 43.7191 31.1957 44.0855 31.1957C44.4518 31.1957 44.8031 31.3413 45.0621 31.6003C45.3212 31.8593 45.4667 32.2107 45.4667 32.577V32.656C45.4667 33.0223 45.3212 33.3737 45.0621 33.6327C44.8031 33.8917 44.4518 34.0372 44.0855 34.0372C43.7191 34.0372 43.3678 33.8917 43.1088 33.6327C42.8497 33.3737 42.7042 33.0223 42.7042 32.656ZM61.2968 21.0013V21.0803C61.2968 21.4468 61.1512 21.7983 60.8921 22.0575C60.6329 22.3167 60.2814 22.4623 59.9149 22.4623C59.5484 22.4623 59.1969 22.3167 58.9377 22.0575C58.6785 21.7983 58.5329 21.4468 58.5329 21.0803V21.0013C58.5329 20.6348 58.6785 20.2833 58.9377 20.0241C59.1969 19.7649 59.5484 19.6193 59.9149 19.6193C60.2814 19.6193 60.6329 19.7649 60.8921 20.0241C61.1512 20.2833 61.2968 20.6348 61.2968 21.0013ZM53.3811 21.4V21.479C53.3811 21.8454 53.2355 22.1967 52.9765 22.4557C52.7175 22.7148 52.3661 22.8603 51.9998 22.8603C51.6335 22.8603 51.2822 22.7148 51.0231 22.4557C50.7641 22.1967 50.6186 21.8454 50.6186 21.479V21.4C50.6186 21.0337 50.7641 20.6824 51.0231 20.4233C51.2822 20.1643 51.6335 20.0188 51.9998 20.0188C52.3661 20.0188 52.7175 20.1643 52.9765 20.4233C53.2355 20.6824 53.3811 21.0337 53.3811 21.4ZM45.4667 21.0704V21.1494C45.4667 21.5157 45.3212 21.867 45.0621 22.1261C44.8031 22.3851 44.4518 22.5306 44.0855 22.5306C43.7191 22.5306 43.3678 22.3851 43.1088 22.1261C42.8497 21.867 42.7042 21.5157 42.7042 21.1494V21.0704C42.7042 20.704 42.8497 20.3527 43.1088 20.0937C43.3678 19.8346 43.7191 19.6891 44.0855 19.6891C44.4518 19.6891 44.8031 19.8346 45.0621 20.0937C45.3212 20.3527 45.4667 20.704 45.4667 21.0704ZM90.8418 94.8657C90.8413 95.6933 90.5125 96.4868 89.9274 97.0722C89.3424 97.6575 88.549 97.9867 87.7214 97.9875H76.1128C75.2854 97.9868 74.492 97.6578 73.9069 97.0728C73.3217 96.4878 72.9926 95.6945 72.9918 94.8671V83.2552C72.9929 82.428 73.322 81.635 73.907 81.05C74.4919 80.4651 75.2849 80.136 76.1122 80.1348H87.722C88.5492 80.136 89.3421 80.4651 89.927 81.0501C90.5118 81.635 90.8408 82.4281 90.8418 83.2552V94.8665V94.8657ZM87.7218 77.3709H76.1128C74.5528 77.3726 73.0573 77.993 71.9542 79.096C70.8511 80.199 70.2305 81.6945 70.2287 83.2544V94.8657C70.23 96.4257 70.8503 97.9215 71.9533 99.0247C73.0564 100.128 74.5521 100.748 76.1122 100.75H87.722C89.2818 100.748 90.7773 100.128 91.8802 99.0249C92.9831 97.9219 93.6034 96.4263 93.6049 94.8665V83.2552C93.603 81.6955 92.9826 80.2001 91.8797 79.0972C90.7768 77.9942 89.2815 77.3737 87.7218 77.3717V77.3709ZM31.0077 94.8665C31.0071 95.6939 30.6781 96.4874 30.0931 97.0725C29.508 97.6577 28.7147 97.9867 27.8873 97.9875H16.2785C15.451 97.9868 14.6577 97.6578 14.0726 97.0728C13.4875 96.4878 13.1584 95.6945 13.1576 94.8671V83.2559C13.1584 82.4285 13.4874 81.6353 14.0724 81.0501C14.6573 80.465 15.4505 80.1359 16.2778 80.1348H27.8877C28.7149 80.136 29.5078 80.4651 30.0927 81.0501C30.6776 81.635 31.0066 82.4281 31.0077 83.2552V94.8665ZM27.8877 77.3717H16.2785C14.7186 77.3735 13.223 77.9939 12.12 79.0969C11.0169 80.1999 10.3964 81.6954 10.3945 83.2552V94.8665C10.3959 96.4264 11.0162 97.9221 12.1192 99.0251C13.2223 100.128 14.7179 100.749 16.2778 100.75H27.8877C29.4475 100.748 30.943 100.128 32.0459 99.0249C33.1489 97.9219 33.7692 96.4263 33.7708 94.8665V83.2552C33.7689 81.6954 33.1484 80.1999 32.0453 79.0969C30.9422 77.9939 29.4467 77.3735 27.8868 77.3717H27.8877ZM60.9253 94.8665C60.9246 95.694 60.5955 96.4874 60.0104 97.0725C59.4252 97.6577 58.6318 97.9867 57.8043 97.9875H46.1951C45.3678 97.9866 44.5747 97.6575 43.9897 97.0725C43.4047 96.4875 43.0756 95.6944 43.0747 94.8671V83.2559C43.0757 82.4287 43.4048 81.6356 43.9896 81.0507C44.5745 80.4657 45.3675 80.1366 46.1947 80.1355H57.8051C58.6323 80.1367 59.4251 80.4659 60.0099 81.0508C60.5947 81.6358 60.9237 82.4287 60.9247 83.2559V94.8671L60.9253 94.8665ZM57.8051 77.3717H46.1951C44.6352 77.3736 43.1398 77.994 42.0368 79.097C40.9338 80.2 40.3133 81.6954 40.3114 83.2552V94.8665C40.3129 96.4265 40.9333 97.9221 42.0364 99.0252C43.1395 100.128 44.6351 100.749 46.1951 100.75H57.8051C59.3649 100.748 60.8604 100.128 61.9633 99.0249C63.0662 97.9218 63.6864 96.4263 63.6878 94.8665V83.2552C63.6859 81.6955 63.0655 80.2001 61.9627 79.0972C60.8598 77.9942 59.3645 77.3737 57.8047 77.3717H57.8051ZM20.5764 73.0139V67.6059C20.5764 65.273 22.37 63.3762 24.5765 63.3762H50.4358V55.8606C50.4358 55.6792 50.4715 55.4996 50.5409 55.332C50.6103 55.1644 50.712 55.0122 50.8403 54.8839C50.9686 54.7556 51.1208 54.6539 51.2884 54.5845C51.456 54.5151 51.6356 54.4793 51.817 54.4793C51.9984 54.4793 52.178 54.5151 52.3456 54.5845C52.5132 54.6539 52.6654 54.7556 52.7937 54.8839C52.922 55.0122 53.0237 55.1644 53.0931 55.332C53.1625 55.4996 53.1982 55.6792 53.1982 55.8606V63.3762H79.0561C81.2632 63.3762 83.0564 65.273 83.0564 67.6059V73.0139C83.0564 73.3804 82.9108 73.7319 82.6516 73.9911C82.3925 74.2503 82.041 74.3959 81.6744 74.3959C81.3079 74.3959 80.9564 74.2503 80.6973 73.9911C80.4381 73.7319 80.2925 73.3804 80.2925 73.0139V67.6059C80.2925 66.8105 79.726 66.1395 79.055 66.1395H53.1982V73.0141C53.1982 73.3806 53.0527 73.7321 52.7935 73.9912C52.5344 74.2504 52.1829 74.396 51.8164 74.396C51.4499 74.396 51.0984 74.2504 50.8393 73.9912C50.5801 73.7321 50.4345 73.3806 50.4345 73.0141V66.1397H24.5779C23.9076 66.1397 23.3405 66.81 23.3405 67.6063V73.0143C23.3405 73.3806 23.195 73.732 22.9359 73.991C22.6769 74.25 22.3256 74.3955 21.9593 74.3955C21.5929 74.3955 21.2416 74.25 20.9826 73.991C20.7235 73.732 20.578 73.3806 20.578 73.0143L20.5764 73.0139ZM37.7222 7.54467C41.5206 6.55789 46.5898 6.01311 51.9996 6.01311C57.4094 6.01311 62.4809 6.55789 66.2773 7.54467C70.4064 8.62123 71.3003 9.78291 71.3003 10.0139C71.3003 10.2448 70.4066 11.4073 66.2773 12.481C62.4804 13.4698 57.4096 14.0126 51.9996 14.0126C46.5896 14.0126 41.5194 13.4698 37.7222 12.481C33.594 11.4073 32.6991 10.2428 32.6991 10.0139C32.6991 9.78494 33.5928 8.62042 37.7222 7.54467ZM65.9122 48.19C70.1752 47.2227 71.3007 46.0572 71.3003 45.5766V45.5747V36.8747C70.1019 37.5141 68.512 38.0589 66.5161 38.5109C62.6714 39.3843 57.5228 39.8629 52.013 39.8649H51.9998C46.4913 39.8649 41.3425 39.3853 37.4953 38.5129C35.4941 38.061 33.9 37.5162 32.6999 36.8747V45.5766C32.6999 46.0562 33.8258 47.2219 38.0862 48.19C41.7424 49.0187 46.6818 49.4747 52.0002 49.4747C57.3186 49.4747 62.2599 49.0187 65.9129 48.19H65.9122ZM71.3007 21.775V13.5586C69.9261 14.2598 68.4733 14.7958 66.9726 15.1554C62.9556 16.2013 57.6392 16.7757 51.9998 16.7757C46.3605 16.7757 41.0441 16.2013 37.0277 15.1554C35.5271 14.7958 34.0744 14.2598 32.6999 13.5586V21.773C32.7202 23.1447 39.0614 25.6197 51.6374 25.673C56.925 25.6888 62.0665 25.2389 65.7432 24.4237C70.1104 23.4565 71.2886 22.2684 71.3016 21.775H71.3007ZM32.6997 25.4284V33.2006C32.7035 33.6822 33.8372 34.8506 38.1057 35.8178C41.7568 36.6448 46.6913 37.1006 51.9994 37.1006H52.0132C57.3207 37.0988 62.2556 36.6427 65.9041 35.8158C70.1653 34.8487 71.2971 33.683 71.3005 33.2006V25.4461C70.0672 26.1033 68.4139 26.6618 66.3406 27.1217C62.5058 27.9703 57.4316 28.4363 52.0136 28.4363C51.8855 28.4363 51.7552 28.4363 51.6277 28.4342C47.8384 28.4204 37.6423 28.1145 32.7007 25.428L32.6997 25.4284ZM37.4764 50.8828C41.323 51.755 46.4815 52.2366 51.9998 52.2366C57.5181 52.2366 62.6754 51.7562 66.5232 50.8828C71.5983 49.7321 74.0626 47.9952 74.0626 45.5754C74.0626 45.5735 74.0626 45.5735 74.0626 45.5735V10.0374C74.0626 10.0354 74.0626 10.0315 74.0626 10.0275C74.0626 10.0234 74.0626 10.0175 74.0626 10.0137C74.0626 7.82478 71.6765 6.09578 66.9713 4.87012C62.9556 3.82627 57.6386 3.25 51.9998 3.25C46.3611 3.25 41.0441 3.82627 37.0277 4.87033C32.3223 6.09598 29.9362 7.82498 29.9362 10.0139C29.9365 10.0178 29.9365 10.0217 29.9362 10.0256C29.9365 10.0283 29.9365 10.0309 29.9362 10.0336V45.5756C29.9366 47.9954 32.4011 49.7323 37.4764 50.8828Z" fill="#231F20"/>
<path fill-rule="evenodd" clip-rule="evenodd" d="M37.7223 12.481C45.5767 14.5251 58.4236 14.5249 66.2774 12.481C70.4063 11.4073 71.3009 10.2428 71.3005 10.0139C71.3001 9.78496 70.4067 8.62044 66.2774 7.54469C58.4179 5.49983 45.5826 5.50227 37.7223 7.54469C33.5934 8.62126 32.6998 9.78293 32.6992 10.0139C32.6986 10.2448 33.5942 11.4073 37.7223 12.481Z" fill="#00ABEA"/>
<path fill-rule="evenodd" clip-rule="evenodd" d="M27.8876 80.1348H16.2778C15.4507 80.1359 14.6577 80.4651 14.0729 81.0501C13.4881 81.635 13.1592 82.428 13.1582 83.2552V94.8664C13.1588 95.6938 13.4878 96.4872 14.0728 97.0723C14.6577 97.6574 15.451 97.9866 16.2784 97.9874H27.8872C28.7146 97.9867 29.5078 97.6577 30.0928 97.0726C30.6779 96.4876 31.0069 95.6944 31.0076 94.867V83.2552C31.0066 82.428 30.6776 81.6349 30.0927 81.05C29.5078 80.465 28.7148 80.1359 27.8876 80.1348Z" fill="#00ABEA"/>
<path fill-rule="evenodd" clip-rule="evenodd" d="M72.9922 83.2552V94.8664C72.9929 95.6939 73.3219 96.4874 73.9071 97.0725C74.4922 97.6577 75.2857 97.9867 76.1132 97.9874H87.7218C88.5492 97.9867 89.3424 97.6577 89.9275 97.0727C90.5126 96.4876 90.8416 95.6944 90.8424 94.867V83.2552C90.8414 82.428 90.5125 81.635 89.9276 81.05C89.3428 80.465 88.5498 80.1359 87.7226 80.1348H76.1126C75.2854 80.1359 74.4923 80.465 73.9074 81.05C73.3224 81.6349 72.9933 82.4279 72.9922 83.2552Z" fill="#00ABEA"/>
</svg>
