<svg width="104" height="104" viewBox="0 0 104 104" fill="none" xmlns="http://www.w3.org/2000/svg">
<path fill-rule="evenodd" clip-rule="evenodd" d="M59.729 53.8947C61.3178 55.8053 61.7442 58.1441 60.8935 60.3135C59.9147 62.8141 57.4607 64.549 54.331 64.9575C54.0705 64.9911 53.808 65.0168 53.5434 65.0345V67.9418C53.5434 68.3083 53.3979 68.6597 53.1387 68.9189C52.8796 69.178 52.5281 69.3236 52.1617 69.3236C51.7952 69.3236 51.4438 69.178 51.1846 68.9189C50.9255 68.6597 50.7799 68.3083 50.7799 67.9418V64.9339C47.134 64.4089 43.6909 62.2893 42.7169 58.0555C42.6731 57.8777 42.6652 57.6929 42.6935 57.512C42.7218 57.3311 42.7858 57.1575 42.8818 57.0016C42.9777 56.8456 43.1038 56.7103 43.2525 56.6035C43.4013 56.4967 43.5698 56.4205 43.7483 56.3794C43.9268 56.3383 44.1116 56.3332 44.2921 56.3642C44.4726 56.3952 44.6452 56.4618 44.7997 56.5602C44.9542 56.6585 45.0876 56.7865 45.1921 56.9369C45.2967 57.0873 45.3703 57.2569 45.4087 57.436C46.3195 61.391 50.3629 62.6858 53.9726 62.2182C56.0892 61.9417 57.713 60.8544 58.3207 59.3049C58.7991 58.0862 58.5442 56.7925 57.6043 55.6635C56.1461 53.9128 54.5292 53.6701 52.4827 53.3642C51.2159 53.2129 49.9683 52.9297 48.7603 52.5194C48.7454 52.5153 48.7308 52.51 48.7168 52.5037C45.6205 51.2484 43.7963 48.8503 43.8377 46.0872C43.8816 43.253 45.8233 40.7109 48.786 39.6116C49.4324 39.3718 50.1007 39.1959 50.7813 39.0863V36.0585C50.7813 35.6922 50.9269 35.3409 51.1859 35.0818C51.4449 34.8228 51.7963 34.6773 52.1626 34.6773C52.5289 34.6773 52.8803 34.8228 53.1393 35.0818C53.3983 35.3409 53.5438 35.6922 53.5438 36.0585V39.0526C56.8692 39.5104 59.7369 41.7862 61.1027 45.3939C61.2326 45.7366 61.221 46.1167 61.0705 46.4508C60.92 46.7849 60.643 47.0455 60.3004 47.1753C59.9578 47.3052 59.5776 47.2936 59.2435 47.1431C58.9094 46.9926 58.6488 46.7156 58.519 46.373C57.0672 42.5421 53.4612 40.825 49.748 42.2026C47.8917 42.8914 46.6276 44.4683 46.6021 46.1282C46.5791 47.725 47.7192 49.1105 49.7342 49.9336C50.7791 50.3144 51.8061 50.4684 52.8941 50.6303C55.0992 50.9618 57.5974 51.3368 59.729 53.8947ZM69.8751 69.8737C73.4102 66.3386 75.8175 61.8346 76.7928 56.9312C77.7681 52.0279 77.2675 46.9455 75.3543 42.3267C73.4411 37.7078 70.2012 33.7601 66.0444 30.9826C61.8875 28.2051 57.0004 26.7226 52.001 26.7226C47.0016 26.7226 42.1145 28.2051 37.9576 30.9826C33.8008 33.7601 30.5609 37.7078 28.6477 42.3267C26.7345 46.9455 26.2339 52.0279 27.2092 56.9312C28.1845 61.8346 30.5919 66.3386 34.1269 69.8737C38.8715 74.6065 45.2995 77.2644 52.001 77.2644C58.7025 77.2644 65.1305 74.6065 69.8751 69.8737ZM32.1731 32.1723C21.2409 43.1065 21.2403 60.8942 32.1731 71.8276C37.4361 77.0778 44.5666 80.0263 52.0006 80.0263C59.4346 80.0263 66.5651 77.0778 71.8281 71.8276C82.7613 60.8934 82.7605 43.1057 71.8281 32.1723C60.8957 21.2389 43.1063 21.2401 32.1737 32.1723H32.1731ZM97.9697 53.2474H87.2894C87.3029 52.8309 87.3103 52.4151 87.3113 52C87.3153 43.8112 84.4689 35.8764 79.2607 29.5573L86.836 21.9822C94.0409 30.3222 97.9998 40.9788 97.9876 52C97.9876 52.4105 97.9819 52.8289 97.9705 53.2474H97.9697ZM87.9126 19.0356C96.1803 28.0213 100.763 39.7895 100.75 52C100.75 52.886 100.725 53.796 100.675 54.7058C100.655 55.0584 100.501 55.3901 100.245 55.6327C99.9884 55.8754 99.6486 56.0105 99.2955 56.0105H85.8283C85.638 56.0108 85.4496 55.9717 85.2751 55.8957C85.1005 55.8197 84.9436 55.7084 84.8142 55.5688C84.6848 55.4292 84.5856 55.2643 84.523 55.0845C84.4604 54.9048 84.4356 54.714 84.4503 54.5242C84.5137 53.6875 84.5478 52.8383 84.5472 52C84.551 44.0389 81.6322 36.3534 76.3446 30.4019C76.1108 30.1383 75.9866 29.7953 75.9973 29.4431C76.0081 29.0909 76.153 28.7562 76.4025 28.5073L85.9177 18.9922C86.0501 18.861 86.2073 18.7577 86.3802 18.6882C86.5531 18.6187 86.7381 18.5845 86.9244 18.5875C87.1107 18.5917 87.2943 18.6335 87.464 18.7105C87.6338 18.7875 87.7862 18.8981 87.912 19.0356H87.9126ZM52.0001 97.9875C74.1681 97.9875 93.3429 81.8565 97.2527 60.2111H86.35C84.502 67.9308 80.1078 74.8031 73.876 79.7197C67.6441 84.6362 59.9379 87.3105 52.0001 87.3112C32.5298 87.3112 16.6888 71.4703 16.6888 52C16.6888 32.5296 32.5302 16.6887 52.0001 16.6887C60.1372 16.6862 68.0249 19.497 74.3268 24.6447L81.9054 17.0657C73.58 9.92284 62.9697 6.0012 52.0001 6.01246C26.6422 6.01246 6.01259 26.642 6.01259 52C6.01259 77.3579 26.6426 97.9875 52.0001 97.9875ZM98.8773 57.4474H85.2413C84.9228 57.4476 84.6142 57.5577 84.3675 57.759C84.1207 57.9604 83.951 58.2406 83.8869 58.5526C80.8103 73.6157 67.3988 84.5479 52.0001 84.5479C34.0534 84.5479 19.452 69.9467 19.452 52C19.452 34.0533 34.0534 19.452 52.0001 19.452C59.9109 19.4493 67.5512 22.3313 73.4895 27.5579C73.7532 27.79 74.0954 27.9131 74.4466 27.902C74.7977 27.891 75.1315 27.7468 75.3802 27.4986L84.8976 17.9796C85.0297 17.8476 85.1336 17.6901 85.2031 17.5168C85.2727 17.3435 85.3063 17.1579 85.3021 16.9712C85.2978 16.7845 85.2557 16.6006 85.1784 16.4306C85.1011 16.2606 84.9901 16.1081 84.8521 15.9822C76.8138 8.65168 66.5542 4.22077 55.7067 3.39487C44.8591 2.56897 34.047 5.39555 24.9915 11.4246C15.936 17.4537 9.15766 26.3388 5.73541 36.6655C2.31316 46.9922 2.44376 58.1668 6.1064 68.4107C9.76905 78.6546 16.7532 87.3788 25.9471 93.1947C35.141 99.0105 46.0162 101.584 56.8415 100.504C67.6669 99.4252 77.82 94.7558 85.6849 87.2394C93.5497 79.7229 98.6741 69.7916 100.242 59.0263C100.271 58.8303 100.258 58.6304 100.202 58.4403C100.147 58.2501 100.05 58.0743 99.9203 57.9249C99.7907 57.7754 99.6305 57.6555 99.4506 57.5731C99.2706 57.4907 99.0752 57.4478 98.8773 57.4474Z" fill="#231F20"/>
<path fill-rule="evenodd" clip-rule="evenodd" d="M52.0002 97.9875C74.1682 97.9875 93.343 81.8565 97.2528 60.2111H86.3501C84.5021 67.9308 80.1079 74.8031 73.8761 79.7197C67.6442 84.6363 59.938 87.3105 52.0002 87.3112C32.5299 87.3112 16.6889 71.4703 16.6889 52C16.6889 32.5296 32.5303 16.6887 52.0002 16.6887C60.1373 16.6863 68.025 19.497 74.3269 24.6447L81.9055 17.0657C73.5801 9.92285 62.9698 6.00122 52.0002 6.01248C26.6423 6.01248 6.0127 26.6421 6.0127 52C6.0127 77.3579 26.6427 97.9875 52.0002 97.9875Z" fill="#00ABEA"/>
</svg>
