<svg xmlns="http://www.w3.org/2000/svg" width="104" height="104" viewBox="0 0 104 104" fill="none">
  <path fill-rule="evenodd" clip-rule="evenodd" d="M59.6038 44.3969V6.81293C79.9242 7.71074 96.2896 24.0773 97.1882 44.3969H59.6038ZM88.1823 15.8173C84.2072 11.8204 79.4788 8.65164 74.2708 6.49445C69.0629 4.33726 63.4787 3.23447 57.8417 3.24992C57.6103 3.24989 57.3811 3.29545 57.1673 3.38399C56.9535 3.47254 56.7593 3.60233 56.5956 3.76597C56.432 3.9296 56.3022 4.12386 56.2137 4.33766C56.1251 4.55146 56.0796 4.78061 56.0796 5.01203V46.1589C56.0796 46.6262 56.2652 47.0744 56.5956 47.4049C56.926 47.7353 57.3742 47.9211 57.8415 47.9212H98.9895C99.2209 47.9212 99.4501 47.8756 99.6638 47.787C99.8776 47.6985 100.072 47.5687 100.235 47.405C100.399 47.2414 100.529 47.0472 100.617 46.8334C100.706 46.6196 100.751 46.3904 100.751 46.1591C100.767 40.5217 99.6638 34.9373 97.5063 29.7292C95.3488 24.521 92.1796 19.7923 88.1823 15.8173ZM75.2136 84.4024L50.4138 59.6025H85.5059C85.0996 68.8225 81.4551 77.6041 75.2136 84.4024ZM6.77566 57.8404C6.77566 79.5577 24.4431 97.2263 46.1594 97.2263C55.9958 97.2345 65.4764 93.5476 72.723 86.8962L44.9152 59.0884C44.8728 59.0472 44.8329 59.0035 44.7958 58.9576C44.784 58.9441 44.7755 58.9299 44.7645 58.9169C44.7409 58.8848 44.7158 58.8525 44.692 58.8188C44.6802 58.8009 44.6705 58.7821 44.6587 58.7642C44.6412 58.7329 44.6217 58.7018 44.604 58.6697C44.5941 58.6523 44.5864 58.634 44.5784 58.6165C44.561 58.5822 44.5451 58.5477 44.5295 58.5123C44.5236 58.4977 44.5199 58.4824 44.5138 58.4676C44.4982 58.4286 44.4846 58.3888 44.4708 58.3484C44.4692 58.3377 44.4667 58.3271 44.4631 58.3169C44.4513 58.2718 44.4397 58.2267 44.4298 58.1804C44.4301 58.1762 44.4294 58.1719 44.4277 58.168C44.4074 58.0605 44.397 57.9514 44.3966 57.842V18.4944C23.4955 19.4187 6.77566 36.7131 6.77566 57.8404ZM87.3072 56.0785H47.9213V16.6931C47.9212 16.4618 47.8756 16.2327 47.7871 16.0189C47.6985 15.8051 47.5687 15.6109 47.4051 15.4473C47.2414 15.2837 47.0472 15.154 46.8334 15.0655C46.6197 14.977 46.3905 14.9314 46.1592 14.9314C37.6725 14.9315 29.3764 17.4482 22.32 22.1632C15.2636 26.8782 9.76383 33.5798 6.51618 41.4205C3.26852 49.2612 2.41884 57.8889 4.07458 66.2125C5.73032 74.5362 9.81711 82.1819 15.8182 88.1828C21.8192 94.1838 29.465 98.2705 37.7886 99.9261C46.1122 101.582 54.7399 100.732 62.5806 97.4841C70.4212 94.2364 77.1228 88.7365 81.8377 81.6801C86.5526 74.6236 89.0692 66.3275 89.0691 57.8408C89.0691 57.3735 88.8835 56.9253 88.5531 56.5948C88.2227 56.2643 87.7745 56.0786 87.3072 56.0785Z" fill="#231F20"/>
  <path fill-rule="evenodd" clip-rule="evenodd" d="M50.4141 59.6025L75.2138 84.4025C81.4554 77.6041 85.0998 68.8226 85.5061 59.6025H50.4141Z" fill="#00ABEA"/>
  <path fill-rule="evenodd" clip-rule="evenodd" d="M59.6055 44.397H97.1899C96.2913 24.0774 79.9259 7.7108 59.6055 6.81299V44.397Z" fill="#00ABEA"/>
</svg>