<svg width="64" height="64" viewBox="0 0 64 64" fill="none" xmlns="http://www.w3.org/2000/svg">
<path fill-rule="evenodd" clip-rule="evenodd" d="M6.1265 4.05261L9.60263 7.52836C9.68156 7.60733 9.77529 7.66998 9.87844 7.71273C9.98159 7.75547 10.0922 7.77747 10.2038 7.77747C10.3155 7.77747 10.426 7.75547 10.5292 7.71273C10.6323 7.66998 10.7261 7.60733 10.805 7.52836L11.9201 6.41361L12.4136 12.4136L6.41363 11.9195L7.52863 10.8049C7.68788 10.6453 7.77732 10.4291 7.77732 10.2037C7.77732 9.97825 7.68788 9.76203 7.52863 9.60249L4.05238 6.12699L6.1265 4.05261ZM5.7245 10.2041L4.582 11.347C4.40793 11.5206 4.28722 11.7405 4.23416 11.9806C4.1811 12.2207 4.19789 12.471 4.28256 12.7018C4.36723 12.9327 4.51624 13.1344 4.71196 13.2833C4.90768 13.4321 5.14193 13.5218 5.387 13.5417L12.7586 14.1484C12.7961 14.1516 12.8323 14.1534 12.87 14.1534C13.0476 14.1525 13.223 14.1149 13.3854 14.043C13.5477 13.971 13.6935 13.8663 13.8134 13.7354C13.9334 13.6045 14.025 13.4502 14.0826 13.2823C14.1401 13.1143 14.1623 12.9362 14.1478 12.7592L13.5418 5.38749C13.5215 5.14257 13.4316 4.90856 13.2827 4.71305C13.1337 4.51755 12.932 4.36871 12.7013 4.28409C12.4706 4.19947 12.2205 4.18261 11.9805 4.23548C11.7404 4.28835 11.5206 4.40875 11.3468 4.58249L10.2039 5.72499L6.72775 2.24899C6.64882 2.16999 6.55509 2.10733 6.45192 2.06458C6.34876 2.02182 6.23818 1.99982 6.1265 1.99982C6.01483 1.99982 5.90425 2.02182 5.80109 2.06458C5.69792 2.10733 5.60419 2.16999 5.52525 2.24899L2.24875 5.52586C2.08947 5.68541 2 5.90166 2 6.12711C2 6.35257 2.08947 6.56881 2.24875 6.72836L5.7245 10.2041ZM11.9201 57.5861L10.8051 56.4714C10.7262 56.3924 10.6325 56.3297 10.5293 56.287C10.4261 56.2442 10.3156 56.2222 10.2039 56.2222C10.0922 56.2222 9.98163 56.2442 9.87846 56.287C9.7753 56.3297 9.68157 56.3924 9.60263 56.4714L6.1265 59.9475L4.05238 57.8725L7.5285 54.3966C7.68763 54.237 7.77698 54.0209 7.77698 53.7955C7.77698 53.5701 7.68763 53.354 7.5285 53.1944L6.41388 52.0795L12.4139 51.5855L11.9204 57.5855L11.9201 57.5861ZM12.7585 49.8512L5.387 50.4581C5.14188 50.478 4.90757 50.5676 4.71178 50.7164C4.516 50.8652 4.36692 51.067 4.28219 51.2978C4.19746 51.5287 4.18062 51.779 4.23366 52.0191C4.28671 52.2593 4.40741 52.4792 4.5815 52.6529L5.72488 53.7957L2.24875 57.2716C2.08947 57.4312 2 57.6474 2 57.8729C2 58.0983 2.08947 58.3146 2.24875 58.4741L5.52575 61.7509C5.60469 61.8298 5.69841 61.8925 5.80157 61.9352C5.90472 61.978 6.01528 62 6.12694 62C6.2386 62 6.34916 61.978 6.45232 61.9352C6.55547 61.8925 6.64919 61.8298 6.72813 61.7509L10.2039 58.275L11.3468 59.4181C11.5206 59.5918 11.7404 59.7122 11.9804 59.7651C12.2204 59.8179 12.4705 59.801 12.7012 59.7164C12.9319 59.6318 13.1336 59.4829 13.2825 59.2874C13.4314 59.0919 13.5213 58.8579 13.5415 58.613L14.1479 51.2409C14.1633 51.0545 14.138 50.867 14.0736 50.6914C14.0092 50.5158 13.9073 50.3563 13.7751 50.2241C13.6428 50.0919 13.4834 49.99 13.3078 49.9257C13.1322 49.8613 12.9446 49.836 12.7583 49.8515L12.7585 49.8512ZM57.8726 59.9475L54.3964 56.4714C54.2368 56.312 54.0205 56.2224 53.795 56.2224C53.5695 56.2224 53.3532 56.312 53.1936 56.4714L52.079 57.5862L51.586 51.5862L57.586 52.0802L56.4705 53.195C56.3113 53.3546 56.222 53.5708 56.222 53.7962C56.222 54.0217 56.3113 54.2379 56.4705 54.3975L59.9471 57.8732L57.8721 59.9482L57.8726 59.9475ZM58.2743 53.7957L59.4176 52.6526C59.5916 52.4789 59.7122 52.259 59.7652 52.0189C59.8181 51.7788 59.8013 51.5285 59.7165 51.2978C59.6318 51.067 59.4827 50.8652 59.2869 50.7165C59.0912 50.5677 58.8569 50.4781 58.6119 50.4582L51.2411 49.8515C51.0547 49.8358 50.8671 49.861 50.6914 49.9252C50.5156 49.9895 50.3561 50.0913 50.2237 50.2236C50.0914 50.3559 49.9895 50.5154 49.9252 50.6911C49.8609 50.8668 49.8356 51.0544 49.8513 51.2409L50.4574 58.6122C50.4775 58.8572 50.5672 59.0913 50.716 59.2869C50.8649 59.4826 51.0665 59.6315 51.2973 59.7162C51.528 59.801 51.7781 59.8179 52.0182 59.7651C52.2582 59.7123 52.4782 59.5919 52.652 59.4181L53.7953 58.275L57.2714 61.7509C57.3503 61.8298 57.444 61.8924 57.5471 61.9351C57.6503 61.9779 57.7608 61.9998 57.8724 61.9998C57.9841 61.9998 58.0946 61.9779 58.1977 61.9351C58.3009 61.8924 58.3946 61.8298 58.4735 61.7509L61.7509 58.4739C61.91 58.3143 61.9994 58.0982 61.9994 57.8728C61.9994 57.6475 61.91 57.4313 61.7509 57.2717L58.2745 53.7957H58.2743ZM52.079 6.41374L53.194 7.52836C53.2729 7.6073 53.3666 7.66991 53.4698 7.71263C53.5729 7.75535 53.6834 7.77734 53.7951 7.77734C53.9067 7.77734 54.0172 7.75535 54.1204 7.71263C54.2235 7.66991 54.3172 7.6073 54.3961 7.52836L57.8726 4.05249L59.9476 6.12749L56.4706 9.60286C56.3916 9.6818 56.329 9.77553 56.2862 9.87869C56.2435 9.98186 56.2215 10.0924 56.2215 10.2041C56.2215 10.3158 56.2435 10.4264 56.2862 10.5295C56.329 10.6327 56.3916 10.7264 56.4706 10.8054L57.5861 11.92L51.5861 12.4141L52.0791 6.41411L52.079 6.41374ZM51.129 14.1532C51.1665 14.1532 51.2029 14.1517 51.2405 14.1486L58.6119 13.5416C58.8569 13.5217 59.0911 13.432 59.2868 13.2832C59.4825 13.1344 59.6314 12.9327 59.7161 12.7019C59.8008 12.4711 59.8177 12.2209 59.7647 11.9809C59.7117 11.7408 59.5911 11.5209 59.4171 11.3472L58.2745 10.2041L61.7511 6.72824C61.9103 6.56866 61.9997 6.35249 61.9997 6.12711C61.9997 5.90174 61.9103 5.68556 61.7511 5.52599L58.4738 2.24899C58.3142 2.08956 58.0979 2 57.8724 2C57.6468 2 57.4305 2.08956 57.271 2.24899L53.7953 5.72499L52.6524 4.58186C52.4785 4.40817 52.2585 4.28782 52.0185 4.23502C51.7785 4.18221 51.5283 4.19915 51.2976 4.28383C51.0669 4.36851 50.8652 4.5174 50.7163 4.71295C50.5674 4.90849 50.4775 5.14254 50.4573 5.38749L49.8513 12.7596C49.8367 12.9366 49.8589 13.1146 49.9164 13.2826C49.974 13.4506 50.0656 13.6049 50.1856 13.7358C50.3056 13.8667 50.4514 13.9713 50.6137 14.0432C50.7761 14.1151 50.9516 14.1526 51.1291 14.1535L51.129 14.1532ZM31.9995 41.376C30.1451 41.3759 28.3323 40.826 26.7905 39.7957C25.2486 38.7654 24.0469 37.301 23.3373 35.5877C22.6276 33.8745 22.442 31.9893 22.8038 30.1705C23.1656 28.3517 24.0587 26.6811 25.37 25.3698C26.6813 24.0586 28.3519 23.1656 30.1707 22.8039C31.9895 22.4421 33.8747 22.6278 35.588 23.3375C37.3012 24.0472 38.7656 25.249 39.7958 26.7909C40.826 28.3328 41.3759 30.1456 41.3759 32C41.373 34.4858 40.3842 36.869 38.6264 38.6268C36.8686 40.3845 34.4854 41.3732 31.9995 41.376ZM31.9995 20.9232C29.8088 20.9233 27.6672 21.5729 25.8457 22.79C24.0242 24.0072 22.6045 25.7371 21.7661 27.7611C20.9278 29.7851 20.7084 32.0122 21.1358 34.1608C21.5632 36.3095 22.6182 38.2831 24.1673 39.8322C25.7164 41.3813 27.69 42.4362 29.8387 42.8636C31.9873 43.291 34.2144 43.0717 36.2384 42.2334C38.2624 41.395 39.9923 39.9753 41.2095 38.1538C42.4266 36.3323 43.0762 34.1907 43.0763 32C43.0728 29.0633 41.9047 26.2479 39.8282 24.1713C37.7516 22.0947 34.9362 20.9266 31.9995 20.9232ZM47.0688 43.7347L43.7346 47.069C43.5592 47.2423 43.3224 47.3396 43.0758 47.3396C42.8291 47.3396 42.5924 47.2423 42.4169 47.069L39.859 44.5101C39.7283 44.3795 39.5586 44.295 39.3757 44.2694C39.1927 44.2437 39.0063 44.2783 38.8448 44.3679C37.9138 44.8843 36.9274 45.2936 35.9043 45.5877C35.7268 45.6386 35.5708 45.7459 35.4597 45.8933C35.3486 46.0407 35.2885 46.2203 35.2885 46.4049V50.0219C35.2881 50.2688 35.1898 50.5056 35.0151 50.6802C34.8404 50.8548 34.6036 50.9529 34.3566 50.9531H29.6423C29.3953 50.9529 29.1585 50.8548 28.9838 50.6803C28.809 50.5058 28.7107 50.2691 28.7103 50.0221V46.4049C28.7102 46.2203 28.6501 46.0407 28.539 45.8933C28.4279 45.7459 28.2718 45.6387 28.0944 45.5879C27.0713 45.2937 26.0848 44.8845 25.1539 44.368C24.9923 44.2784 24.806 44.2438 24.623 44.2695C24.4401 44.2952 24.2704 44.3797 24.1398 44.5102L21.582 47.069C21.4071 47.2434 21.1701 47.3414 20.9231 47.3414C20.676 47.3414 20.4391 47.2434 20.2641 47.069L16.9303 43.7346C16.7567 43.5594 16.6594 43.3228 16.6594 43.0762C16.6594 42.8296 16.7567 42.593 16.9303 42.4177L19.4895 39.8589C19.6202 39.7283 19.7047 39.5588 19.7304 39.3758C19.756 39.1929 19.7213 39.0067 19.6315 38.8452C19.1152 37.9142 18.7061 36.9276 18.412 35.9044C18.3611 35.7269 18.2538 35.5709 18.1063 35.4599C17.9588 35.3488 17.7792 35.2888 17.5946 35.2889H13.9779C13.7309 35.2887 13.4941 35.1905 13.3194 35.0159C13.1447 34.8413 13.0464 34.6046 13.046 34.3576V29.6422C13.0463 29.3953 13.1446 29.1586 13.3192 28.984C13.4938 28.8095 13.7306 28.7113 13.9775 28.7111H17.595C17.7795 28.7111 17.959 28.651 18.1063 28.54C18.2537 28.429 18.361 28.2731 18.4119 28.0957C18.7059 27.0725 19.115 26.0859 19.6314 25.1549C19.7212 24.9934 19.7559 24.8071 19.7303 24.6242C19.7047 24.4412 19.6201 24.2716 19.4894 24.1411L16.9304 21.5824C16.7569 21.4071 16.6595 21.1705 16.6595 20.9239C16.6595 20.6773 16.7569 20.4407 16.9304 20.2655L20.2646 16.9311C20.4395 16.7567 20.6764 16.6588 20.9234 16.6588C21.1704 16.6588 21.4074 16.7567 21.5823 16.9311L24.1403 19.4899C24.2708 19.6206 24.4404 19.7052 24.6234 19.7309C24.8064 19.7566 24.9927 19.7219 25.1543 19.6322C26.085 19.1157 27.0714 18.7065 28.0945 18.4125C28.272 18.3616 28.428 18.2543 28.5391 18.1069C28.6502 17.9595 28.7103 17.7798 28.7103 17.5952V13.9779C28.7106 13.731 28.8088 13.4943 28.9835 13.3197C29.1581 13.1452 29.3949 13.0471 29.6418 13.0469H34.3573C34.6041 13.0471 34.8408 13.1453 35.0154 13.3199C35.19 13.4945 35.2881 13.7312 35.2884 13.9781V17.5951C35.2883 17.7797 35.3484 17.9593 35.4594 18.1067C35.5704 18.2542 35.7265 18.3614 35.9039 18.4124C36.9271 18.7063 37.9136 19.1155 38.8444 19.6321C39.0059 19.7217 39.1923 19.7563 39.3752 19.7306C39.5582 19.705 39.7278 19.6205 39.8585 19.49L42.4166 16.931C42.5921 16.7577 42.8288 16.6605 43.0754 16.6605C43.3221 16.6605 43.5588 16.7577 43.7343 16.931L47.0684 20.2652C47.2419 20.4405 47.3392 20.6771 47.3392 20.9237C47.3392 21.1703 47.2419 21.407 47.0684 21.5822L44.5095 24.1409C44.3788 24.2714 44.2942 24.441 44.2685 24.624C44.2429 24.8069 44.2775 24.9932 44.3671 25.1547C44.8835 26.0857 45.2926 27.0723 45.5866 28.0955C45.6375 28.273 45.7448 28.4291 45.8923 28.5402C46.0397 28.6512 46.2194 28.7113 46.404 28.7112H50.021C50.268 28.7115 50.5048 28.8097 50.6794 28.9844C50.8541 29.159 50.9523 29.3958 50.9526 29.6427V34.358C50.9523 34.605 50.854 34.8417 50.6793 35.0163C50.5046 35.1909 50.2677 35.2891 50.0208 35.2894H46.4046C46.2199 35.2892 46.0402 35.3492 45.8927 35.4603C45.7452 35.5714 45.6378 35.7275 45.5869 35.905C45.2931 36.9283 44.884 37.9149 44.3674 38.8459C44.2777 39.0073 44.2431 39.1936 44.2687 39.3765C44.2944 39.5594 44.3789 39.729 44.5095 39.8596L47.0688 42.4181C47.2422 42.5934 47.3395 42.83 47.3395 43.0766C47.3395 43.3232 47.2422 43.5598 47.0688 43.7351V43.7347ZM46.1555 39.1C46.4977 38.4184 46.7901 37.713 47.0305 36.9892H50.0209C50.7186 36.9886 51.3876 36.7111 51.881 36.2178C52.3745 35.7244 52.652 35.0555 52.6528 34.3577V29.6422C52.6519 28.9445 52.3743 28.2756 51.8808 27.7822C51.3874 27.2889 50.7184 27.0114 50.0206 27.0107H47.0304C46.7897 26.287 46.497 25.5816 46.1545 24.9001L48.2705 22.7845C48.7629 22.2904 49.0393 21.6214 49.0393 20.9239C49.0393 20.2264 48.7629 19.5573 48.2705 19.0632L44.937 15.7285C44.4427 15.2364 43.7737 14.9602 43.0762 14.9602C42.3787 14.9602 41.7097 15.2364 41.2154 15.7285L39.0995 17.8439C38.418 17.5014 37.7125 17.2089 36.9885 16.9689V13.9782C36.9876 13.2805 36.71 12.6116 36.2165 12.1183C35.723 11.6249 35.054 11.3475 34.3563 11.3469H29.6423C28.9444 11.3476 28.2754 11.625 27.7819 12.1184C27.2884 12.6117 27.0108 13.2807 27.0099 13.9785V16.9687C26.2861 17.2096 25.5806 17.5023 24.8989 17.8445L22.7845 15.7285C22.2901 15.2363 21.6208 14.9599 20.9231 14.9599C20.2255 14.9599 19.5562 15.2363 19.0618 15.7285L15.728 19.0625C15.2357 19.5566 14.9592 20.2257 14.9592 20.9233C14.9592 21.6209 15.2357 22.29 15.728 22.7841L17.8436 24.9C17.5011 25.5816 17.2084 26.2871 16.9678 27.011H13.9779C13.28 27.0117 12.611 27.2892 12.1175 27.7826C11.624 28.276 11.3463 28.945 11.3455 29.6429V34.3581C11.3463 35.0559 11.6238 35.7249 12.1172 36.2182C12.6106 36.7116 13.2796 36.9891 13.9774 36.9899H16.968C17.2084 37.7137 17.5008 38.4191 17.843 39.1007L15.7275 41.2162C15.2352 41.7104 14.9587 42.3795 14.9587 43.077C14.9587 43.7746 15.2352 44.4437 15.7275 44.9379L19.062 48.2714C19.5563 48.7637 20.2255 49.0401 20.9232 49.0401C21.6208 49.0401 22.2901 48.7637 22.7844 48.2714L24.8995 46.1559C25.581 46.4983 26.2864 46.791 27.0101 47.0316V50.022C27.0109 50.7197 27.2885 51.3887 27.7819 51.882C28.2753 52.3754 28.9443 52.6529 29.642 52.6536H34.3575C35.0552 52.6529 35.7241 52.3755 36.2174 51.8822C36.7107 51.3889 36.9882 50.72 36.989 50.0224V47.0317C37.7128 46.7915 38.4182 46.4991 39.0996 46.1567L41.2155 48.272C41.7094 48.7642 42.3783 49.0406 43.0756 49.0406C43.7729 49.0406 44.4417 48.7642 44.9356 48.272L48.2711 44.9375C48.7635 44.4434 49.04 43.7743 49.04 43.0767C49.04 42.3792 48.7635 41.7101 48.2711 41.216L46.1555 39.1Z" fill="white"/>
<path fill-rule="evenodd" clip-rule="evenodd" d="M32.0005 20.9232C34.1912 20.9233 36.3327 21.573 38.1542 22.7901C39.9757 24.0073 41.3954 25.7373 42.2337 27.7612C43.072 29.7852 43.2913 32.0124 42.8639 34.161C42.4365 36.3096 41.3815 38.2832 39.8324 39.8323C38.2833 41.3814 36.3096 42.4363 34.161 42.8637C32.0124 43.291 29.7853 43.0717 27.7613 42.2333C25.7373 41.395 24.0074 39.9753 22.7903 38.1537C21.5732 36.3322 20.9235 34.1907 20.9235 32C20.9267 29.0632 22.0948 26.2476 24.1715 24.171C26.2481 22.0944 29.0637 20.9264 32.0005 20.9232ZM18.413 35.9045C18.7071 36.9277 19.1162 37.9143 19.6325 38.8454C19.7223 39.0068 19.757 39.193 19.7314 39.376C19.7057 39.5589 19.6212 39.7284 19.4905 39.859L16.9312 42.4179C16.7576 42.593 16.6601 42.8296 16.6601 43.0763C16.6601 43.3229 16.7576 43.5596 16.9312 43.7347L20.2651 47.0691C20.4401 47.2435 20.677 47.3415 20.9241 47.3415C21.1711 47.3415 21.4081 47.2435 21.583 47.0691L24.1407 44.5104C24.2714 44.3798 24.4411 44.2953 24.624 44.2696C24.807 44.244 24.9933 44.2785 25.1549 44.3681C26.0858 44.8844 27.0724 45.2935 28.0955 45.5875C28.2729 45.6383 28.429 45.7455 28.5401 45.8929C28.6512 46.0403 28.7113 46.2199 28.7114 46.4045V50.0217C28.7118 50.2687 28.8102 50.5054 28.9849 50.6799C29.1596 50.8545 29.3964 50.9526 29.6434 50.9527H34.358C34.605 50.9525 34.8418 50.8544 35.0165 50.6798C35.1912 50.5052 35.2895 50.2685 35.2899 50.0215V46.4045C35.2899 46.2199 35.3499 46.0403 35.461 45.8929C35.5721 45.7455 35.7282 45.6382 35.9056 45.5874C36.9287 45.2932 37.9152 44.8839 38.8461 44.3675C39.0077 44.2779 39.1941 44.2433 39.377 44.269C39.56 44.2946 39.7297 44.3791 39.8604 44.5097L42.4183 47.0686C42.5937 47.242 42.8305 47.3392 43.0771 47.3392C43.3238 47.3392 43.5605 47.242 43.736 47.0686L47.0701 43.7344C47.2437 43.5591 47.3411 43.3225 47.3411 43.0759C47.3411 42.8292 47.2437 42.5926 47.0701 42.4174L44.5105 39.8592C44.3799 39.7286 44.2954 39.5591 44.2697 39.3761C44.2441 39.1932 44.2787 39.007 44.3684 38.8455C44.885 37.9146 45.2941 36.9279 45.5879 35.9046C45.6388 35.7271 45.7462 35.571 45.8937 35.4599C46.0412 35.3488 46.2209 35.2888 46.4056 35.289H50.0223C50.2692 35.2887 50.5061 35.1906 50.6808 35.016C50.8554 34.8414 50.9538 34.6046 50.9541 34.3576V29.6424C50.9538 29.3954 50.8556 29.1586 50.6809 28.984C50.5063 28.8093 50.2695 28.7111 50.0225 28.7109H46.4055C46.2209 28.7109 46.0412 28.6509 45.8938 28.5398C45.7463 28.4287 45.639 28.2726 45.5881 28.0951C45.2941 27.0719 44.885 26.0853 44.3686 25.1544C44.279 24.9928 44.2443 24.8065 44.27 24.6236C44.2957 24.4406 44.3803 24.271 44.511 24.1405L47.0699 21.5819C47.2435 21.4067 47.3409 21.17 47.3409 20.9234C47.3409 20.6767 47.2435 20.44 47.0699 20.2649L43.7357 16.9306C43.5604 16.7571 43.3236 16.6598 43.0769 16.6598C42.8302 16.6598 42.5935 16.7571 42.4181 16.9306L39.86 19.4896C39.7293 19.6201 39.5596 19.7046 39.3767 19.7302C39.1938 19.7559 39.0074 19.7213 38.8459 19.6317C37.915 19.1151 36.9286 18.7059 35.9054 18.412C35.728 18.3611 35.5719 18.2538 35.4609 18.1063C35.3499 17.9589 35.2898 17.7793 35.2899 17.5947V13.9777C35.2896 13.7308 35.1915 13.4941 35.0169 13.3195C34.8423 13.1449 34.6056 13.0467 34.3587 13.0465H29.6429C29.396 13.0467 29.1592 13.1448 28.9846 13.3194C28.81 13.4939 28.7117 13.7306 28.7114 13.9775V17.5947C28.7114 17.7793 28.6513 17.9589 28.5403 18.1064C28.4292 18.2538 28.2731 18.3611 28.0956 18.412C27.0725 18.706 26.086 19.1151 25.1551 19.6316C24.9936 19.7213 24.8072 19.7559 24.6243 19.7302C24.4413 19.7045 24.2717 19.6199 24.1411 19.4892L21.5831 16.9305C21.4082 16.7561 21.1713 16.6581 20.9243 16.6581C20.6773 16.6581 20.4404 16.7561 20.2655 16.9305L16.9312 20.2649C16.7576 20.44 16.6601 20.6766 16.6601 20.9233C16.6601 21.1699 16.7576 21.4066 16.9312 21.5817L19.4902 24.1405C19.621 24.271 19.7056 24.4406 19.7312 24.6235C19.7568 24.8065 19.7221 24.9928 19.6322 25.1542C19.1159 26.0853 18.7067 27.0719 18.4128 28.0951C18.3618 28.2724 18.2546 28.4284 18.1072 28.5394C17.9599 28.6504 17.7804 28.7105 17.5959 28.7105H13.9784C13.7315 28.7107 13.4947 28.8088 13.3201 28.9834C13.1454 29.158 13.0472 29.3947 13.0469 29.6416V34.3571C13.0472 34.6041 13.1456 34.8408 13.3203 35.0154C13.495 35.19 13.7318 35.2882 13.9787 35.2884H17.5955C17.7802 35.2883 17.9599 35.3484 18.1074 35.4595C18.2549 35.5707 18.3622 35.7269 18.413 35.9045Z" fill="#00ABEA"/>
</svg>
