<svg width="104" height="104" viewBox="0 0 104 104" fill="none" xmlns="http://www.w3.org/2000/svg">
<path fill-rule="evenodd" clip-rule="evenodd" d="M58.4434 24.5537L54.9551 30.5955C54.8645 30.7526 54.7437 30.8903 54.5998 31.0008C54.4559 31.1112 54.2916 31.1922 54.1164 31.2392C53.9412 31.2862 53.7584 31.2982 53.5785 31.2745C53.3987 31.2508 53.2252 31.192 53.0681 31.1013C52.911 31.0106 52.7733 30.8898 52.6628 30.7459C52.5524 30.602 52.4714 30.4377 52.4244 30.2625C52.3774 30.0873 52.3654 29.9045 52.3891 29.7247C52.4128 29.5448 52.4716 29.3714 52.5623 29.2143L56.0504 23.1723C56.2336 22.855 56.5353 22.6234 56.8892 22.5285C57.2431 22.4336 57.6202 22.4832 57.9375 22.6664C58.2549 22.8496 58.4864 23.1513 58.5813 23.5052C58.6762 23.8591 58.6266 24.2364 58.4434 24.5537ZM52.9824 18.6934C53.1656 18.3761 53.2152 17.999 53.1203 17.6451C53.0255 17.2912 52.7939 16.9895 52.4766 16.8064C52.1593 16.6232 51.7822 16.5736 51.4284 16.6684C51.0745 16.7633 50.7728 16.9948 50.5896 17.3121L43.3847 29.7911C43.2941 29.9482 43.2352 30.1217 43.2115 30.3015C43.1879 30.4814 43.1998 30.6642 43.2468 30.8394C43.2938 31.0146 43.3748 31.1789 43.4852 31.3228C43.5957 31.4667 43.7334 31.5875 43.8905 31.6782C44.0476 31.7688 44.2211 31.8277 44.4009 31.8514C44.5808 31.875 44.7636 31.8631 44.9388 31.8161C45.114 31.7691 45.2783 31.6881 45.4222 31.5777C45.5661 31.4672 45.6869 31.3295 45.7776 31.1724L52.9824 18.6934ZM79.6145 90.7908C79.6123 90.9664 79.5416 91.1342 79.4174 91.2584C79.2933 91.3827 79.1255 91.4535 78.9499 91.4558H47.6465C47.4709 91.4535 47.3031 91.3827 47.1789 91.2585C47.0547 91.1343 46.984 90.9664 46.9819 90.7908V82.6048C46.9844 82.4293 47.0552 82.2617 47.1793 82.1375C47.3034 82.0134 47.471 81.9424 47.6465 81.9398H78.9499C79.1254 81.9424 79.293 82.0134 79.417 82.1375C79.5411 82.2617 79.6119 82.4293 79.6143 82.6048L79.6145 90.7908ZM78.9499 79.1781H47.6465C46.7377 79.1795 45.8666 79.5411 45.224 80.1838C44.5814 80.8265 44.22 81.6977 44.2188 82.6065V90.7924C44.22 91.7012 44.5814 92.5724 45.224 93.2151C45.8666 93.8578 46.7377 94.2194 47.6465 94.2207H78.9499C79.8591 94.2197 80.7307 93.858 81.3733 93.2149C82.016 92.5718 82.3772 91.6999 82.3776 90.7908V82.6048C82.376 81.6963 82.0143 80.8255 81.3718 80.1832C80.7293 79.5409 79.8584 79.1795 78.9499 79.1781ZM34.4229 91.4564H24.3861V81.9406H34.4229V91.4556V91.4564ZM34.4982 79.1781H24.3105C23.5978 79.179 22.9146 79.4625 22.4107 79.9665C21.9068 80.4705 21.6234 81.1538 21.6227 81.8665V91.5316C21.6235 92.2442 21.9069 92.9274 22.4108 93.4313C22.9146 93.9352 23.5977 94.2188 24.3103 94.2197H34.4982C35.2109 94.2189 35.8941 93.9354 36.3979 93.4314C36.9018 92.9275 37.1852 92.2442 37.186 91.5316V81.8657C37.185 81.1532 36.9015 80.4701 36.3977 79.9663C35.8938 79.4625 35.2107 79.179 34.4982 79.1781ZM79.6145 73.2138H69.5777V63.7H79.6145V73.2132V73.2138ZM79.6899 60.9375H69.5021C68.7895 60.9384 68.1063 61.222 67.6024 61.7259C67.0985 62.2299 66.8152 62.9132 66.8144 63.6259V73.2909C66.8152 74.0033 67.0986 74.6863 67.6025 75.1899C68.1063 75.6936 68.7894 75.9767 69.5017 75.9773H79.6897C80.4021 75.9767 81.0852 75.6936 81.5891 75.19C82.093 74.6863 82.3765 74.0034 82.3774 73.2909V63.6248C82.3764 62.9124 82.0929 62.2294 81.5891 61.7257C81.0853 61.2219 80.4023 60.9385 79.6899 60.9375ZM46.9819 63.7H57.0185V73.2132H46.9819V63.7ZM44.2194 73.2901C44.2202 74.0025 44.5037 74.6855 45.0076 75.1891C45.5114 75.6928 46.1945 75.9759 46.9069 75.9765H57.0949C57.8072 75.9759 58.4903 75.6927 58.9941 75.1891C59.4979 74.6854 59.7814 74.0025 59.7822 73.2901V63.6248C59.7812 62.9123 59.4977 62.2292 58.9938 61.7254C58.4898 61.2216 57.8066 60.9383 57.0941 60.9375H46.9063C46.1937 60.9385 45.5105 61.222 45.0067 61.726C44.5029 62.23 44.2195 62.9132 44.2188 63.6259V73.2909L44.2194 73.2901ZM34.4235 73.2132H24.3861V63.7H34.4229V73.2132H34.4235ZM34.4982 60.9375H24.3105C23.5978 60.9384 22.9146 61.222 22.4108 61.7259C21.9069 62.2299 21.6235 62.9132 21.6227 63.6259V73.2909C21.6236 74.0034 21.9071 74.6863 22.4109 75.19C22.9148 75.6936 23.5979 75.9767 24.3103 75.9773H34.4982C35.2107 75.9767 35.8938 75.6936 36.3977 75.19C36.9016 74.6863 37.1851 74.0034 37.186 73.2909V63.6248C37.185 62.9124 36.9014 62.2294 36.3976 61.7256C35.8938 61.2218 35.2107 60.9384 34.4982 60.9375ZM79.6145 54.9727H69.5777V45.4584H79.6145V54.9727ZM79.6899 42.6953H69.5021C68.7896 42.6961 68.1064 42.9795 67.6025 43.4834C67.0986 43.9872 66.8152 44.6704 66.8144 45.383V55.0469C66.8152 55.7594 67.0985 56.4426 67.6023 56.9465C68.1061 57.4504 68.7892 57.7339 69.5017 57.7348H79.6897C80.4023 57.7341 81.0856 57.4506 81.5895 56.9467C82.0934 56.4428 82.3769 55.7595 82.3776 55.0469V45.382C82.3768 44.6694 82.0934 43.9863 81.5895 43.4824C81.0856 42.9786 80.4025 42.6952 79.6899 42.6944V42.6953ZM46.9819 45.4578H57.0185V54.9721H46.9819V45.4578ZM46.9063 57.7354H57.0943C57.8069 57.7345 58.4901 57.4509 58.9939 56.9469C59.4977 56.4429 59.781 55.7595 59.7816 55.0469V45.382C59.7807 44.6694 59.4973 43.9863 58.9934 43.4825C58.4895 42.9786 57.8064 42.6952 57.0938 42.6944H46.9063C46.1938 42.6953 45.5106 42.9788 45.0068 43.4826C44.503 43.9865 44.2196 44.6696 44.2188 45.3822V55.0469C44.2196 55.7594 44.503 56.4426 45.0068 56.9465C45.5106 57.4504 46.1937 57.7339 46.9063 57.7348V57.7354ZM34.4229 54.9729H24.3861V45.4586H34.4229V54.9729ZM34.4982 42.6954H24.3105C23.5979 42.6963 22.9147 42.9797 22.4109 43.4836C21.907 43.9874 21.6235 44.6706 21.6227 45.3832V55.0469C21.6235 55.7594 21.9069 56.4426 22.4108 56.9465C22.9146 57.4504 23.5977 57.7339 24.3103 57.7348H34.4982C35.2108 57.734 35.8941 57.4506 36.3979 56.9466C36.9018 56.4427 37.1852 55.7595 37.186 55.0469V45.382C37.1852 44.6694 36.9017 43.9863 36.3979 43.4824C35.894 42.9786 35.2108 42.6952 34.4982 42.6944V42.6954ZM80.137 34.9342V14.3841C80.1366 14.1041 80.0252 13.8356 79.8272 13.6376C79.6292 13.4396 79.3607 13.3282 79.0807 13.3278H24.9201C24.6401 13.3282 24.3716 13.4396 24.1736 13.6376C23.9756 13.8356 23.8642 14.1041 23.8638 14.3841V34.9332C23.8641 35.2133 23.9755 35.4817 24.1735 35.6798C24.3716 35.8778 24.64 35.9892 24.9201 35.9895H79.0803C79.3603 35.9891 79.6287 35.8776 79.8267 35.6796C80.0247 35.4817 80.1361 35.2132 80.1366 34.9332L80.137 34.9342ZM79.0807 10.5649H24.9201C23.9075 10.5664 22.9368 10.9694 22.2209 11.6855C21.505 12.4017 21.1024 13.3725 21.1013 14.3851V34.9332C21.1027 35.9456 21.5055 36.9161 22.2213 37.632C22.9372 38.3478 23.9077 38.7506 24.9201 38.752H79.0803C80.0928 38.7509 81.0636 38.3482 81.7797 37.6323C82.4958 36.9164 82.8987 35.9458 82.9001 34.9332V14.3841C82.8989 13.3714 82.4961 12.4004 81.78 11.6843C81.0639 10.9681 80.093 10.5652 79.0803 10.5639L79.0807 10.5649ZM87.0162 89.268V14.7323C87.0137 12.4204 86.0943 10.204 84.4596 8.56926C82.8249 6.93453 80.6085 6.01503 78.2967 6.0125H25.7039C23.3922 6.01503 21.1758 6.93452 19.5412 8.56921C17.9066 10.2039 16.9872 12.4203 16.9848 14.732V89.2671C16.9872 91.579 17.9065 93.7955 19.5411 95.4303C21.1757 97.0652 23.3921 97.9848 25.7039 97.9875H78.2967C80.6084 97.9848 82.8247 97.0651 84.4593 95.4304C86.0939 93.7957 87.0133 91.5793 87.0158 89.2675L87.0162 89.268ZM78.2967 3.25H25.7039C22.6597 3.25344 19.7411 4.46428 17.5886 6.61687C15.436 8.76947 14.2251 11.688 14.2217 14.7323V89.2669C14.225 92.3113 15.4358 95.23 17.5884 97.3827C19.741 99.5355 22.6596 100.746 25.7039 100.75H78.2967C81.341 100.747 84.2596 99.5356 86.4122 97.3829C88.5648 95.2301 89.7756 92.3115 89.7789 89.2671V14.732C89.7755 11.6878 88.5646 8.7693 86.412 6.61674C84.2594 4.46418 81.3409 3.25339 78.2967 3.25Z" fill="#231F20"/>
<path d="M24.3857 45.4575H34.4226V54.9719H24.3857V45.4575Z" fill="#00ABEA"/>
<path d="M46.9814 45.4575H57.0181V54.9719H46.9814V45.4575Z" fill="#00ABEA"/>
<path d="M69.5771 45.4575H79.614V54.9719H69.5771V45.4575Z" fill="#00ABEA"/>
<path d="M69.5771 63.7002H79.614V73.2132H69.5771V63.7002Z" fill="#00ABEA"/>
<path d="M46.9814 63.7002H57.0181V73.2132H46.9814V63.7002Z" fill="#00ABEA"/>
<path d="M24.3857 63.7002H34.4226V73.2132H24.3857V63.7002Z" fill="#00ABEA"/>
<path d="M24.3857 81.9409H34.4226V91.4559H24.3857V81.9409Z" fill="#00ABEA"/>
<path d="M47.6459 81.9404H78.9489C79.1252 81.9404 79.2944 82.0105 79.4191 82.1352C79.5438 82.2599 79.6139 82.4291 79.6139 82.6055V90.7914C79.6139 90.9678 79.5438 91.1369 79.4191 91.2616C79.2944 91.3864 79.1252 91.4564 78.9489 91.4564H47.6459C47.5586 91.4564 47.4722 91.4392 47.3916 91.4059C47.311 91.3725 47.2377 91.3235 47.176 91.2618C47.1144 91.2001 47.0654 91.1269 47.032 91.0463C46.9986 90.9657 46.9814 90.8793 46.9814 90.792V82.6061C46.9814 82.4299 47.0514 82.2609 47.176 82.1363C47.3007 82.0116 47.4697 81.9417 47.6459 81.9417V81.9404Z" fill="#00ABEA"/>
</svg>
