<svg xmlns="http://www.w3.org/2000/svg" width="64" height="64" viewBox="0 0 64 64" fill="none">
  <path fill-rule="evenodd" clip-rule="evenodd" d="M32 13.5028C32.942 13.5027 33.8628 13.7819 34.6461 14.3051C35.4293 14.8284 36.0399 15.5721 36.4004 16.4423C36.761 17.3126 36.8554 18.2702 36.6717 19.194C36.488 20.1179 36.0345 20.9666 35.3684 21.6327C34.7024 22.2988 33.8538 22.7524 32.93 22.9362C32.0061 23.1201 31.0485 23.0258 30.1782 22.6653C29.308 22.3049 28.5641 21.6945 28.0408 20.9113C27.5175 20.1281 27.2381 19.2073 27.2381 18.2653C27.2394 17.0026 27.7415 15.792 28.6344 14.8991C29.5273 14.0062 30.7379 13.5041 32.0006 13.5028H32ZM32 24.4903C33.2312 24.4903 34.4347 24.1252 35.4584 23.4412C36.4821 22.7572 37.28 21.785 37.7511 20.6475C38.2223 19.51 38.3456 18.2584 38.1054 17.0509C37.8652 15.8433 37.2723 14.7341 36.4017 13.8636C35.5312 12.993 34.422 12.4001 33.2144 12.1599C32.0069 11.9197 30.7553 12.043 29.6178 12.5142C28.4803 12.9853 27.5081 13.7832 26.8241 14.8069C26.1401 15.8306 25.775 17.0341 25.775 18.2653C25.7769 19.9157 26.4333 21.498 27.6003 22.665C28.7673 23.832 30.3496 24.4884 32 24.4903ZM20.6911 16.8316V19.6988C20.6923 19.7916 20.7297 19.8802 20.7953 19.9458C20.861 20.0113 20.9496 20.0487 21.0424 20.0498H23.2416C23.4005 20.0498 23.5551 20.1015 23.682 20.1971C23.8089 20.2927 23.9012 20.427 23.945 20.5797C24.1192 21.1862 24.3617 21.771 24.6679 22.3228C24.745 22.4618 24.7748 22.6221 24.7527 22.7795C24.7306 22.9369 24.6579 23.0828 24.5455 23.1952L22.9897 24.7511C22.9246 24.8173 22.8881 24.9064 22.8881 24.9993C22.8881 25.0922 22.9246 25.1813 22.9897 25.2476L25.0174 27.2751C25.0839 27.3398 25.1731 27.376 25.2659 27.376C25.3587 27.376 25.4478 27.3398 25.5144 27.2751L27.0701 25.7194C27.1825 25.607 27.3285 25.5342 27.4859 25.5121C27.6433 25.4901 27.8036 25.5199 27.9426 25.5971C28.4944 25.9031 29.0792 26.1456 29.6856 26.3199C29.8383 26.3637 29.9726 26.456 30.0682 26.5829C30.1638 26.7098 30.2155 26.8643 30.2155 27.0232V29.2232C30.2168 29.316 30.2542 29.4046 30.3198 29.4701C30.3855 29.5357 30.4741 29.5731 30.5669 29.5743H33.4339C33.5267 29.5731 33.6153 29.5357 33.681 29.47C33.7466 29.4044 33.784 29.3157 33.7853 29.2229V27.0232C33.7853 26.8643 33.837 26.7098 33.9325 26.5829C34.0281 26.456 34.1624 26.3637 34.3151 26.3199C34.9215 26.1455 35.5063 25.9029 36.0581 25.5969C36.1971 25.5197 36.3574 25.4898 36.5149 25.5119C36.6723 25.5339 36.8183 25.6067 36.9306 25.7192L38.4864 27.2751C38.5529 27.3398 38.642 27.3761 38.7349 27.3761C38.8277 27.3761 38.9169 27.3398 38.9834 27.2751L41.0106 25.2478C41.0758 25.1816 41.1124 25.0923 41.1124 24.9994C41.1124 24.9064 41.0758 24.8172 41.0106 24.7509L39.4548 23.1951C39.3424 23.0827 39.2697 22.9367 39.2476 22.7793C39.2255 22.622 39.2553 22.4617 39.3324 22.3227C39.6385 21.7708 39.881 21.186 40.0554 20.5796C40.0992 20.4268 40.1914 20.2925 40.3183 20.1969C40.4452 20.1012 40.5997 20.0495 40.7586 20.0494H42.9579C43.0507 20.0482 43.1393 20.0108 43.205 19.9452C43.2706 19.8795 43.308 19.7909 43.3092 19.6981V16.8313C43.308 16.7385 43.2706 16.6499 43.205 16.5842C43.1394 16.5186 43.0508 16.4812 42.958 16.4799H40.7586C40.5998 16.4799 40.4452 16.4281 40.3184 16.3325C40.1915 16.2369 40.0992 16.1026 40.0554 15.9499C39.8811 15.3434 39.6385 14.7587 39.3324 14.2069C39.2553 14.0679 39.2255 13.9076 39.2476 13.7502C39.2697 13.5928 39.3424 13.4469 39.4548 13.3344L41.0106 11.7788C41.0754 11.7123 41.1117 11.6231 41.1117 11.5302C41.1117 11.4374 41.0754 11.3482 41.0106 11.2817L38.9832 9.25455C38.9169 9.18952 38.8278 9.1531 38.7349 9.1531C38.642 9.1531 38.5528 9.18952 38.4865 9.25455L36.9306 10.8104C36.8182 10.9228 36.6723 10.9956 36.5149 11.0176C36.3574 11.0397 36.1971 11.0099 36.0581 10.9328C35.5064 10.6265 34.9216 10.384 34.3151 10.2098C34.1624 10.166 34.0281 10.0736 33.9325 9.94668C33.8369 9.81976 33.7852 9.66519 33.7853 9.5063V7.3073C33.784 7.21448 33.7466 7.12581 33.681 7.06016C33.6154 6.99451 33.5267 6.95707 33.4339 6.9558H30.5669C30.4741 6.95707 30.3854 6.99449 30.3198 7.06011C30.2542 7.12574 30.2168 7.21438 30.2155 7.30718V9.50655C30.2155 9.66541 30.1638 9.81996 30.0682 9.94683C29.9726 10.0737 29.8383 10.166 29.6856 10.2098C29.0791 10.3842 28.4943 10.6267 27.9424 10.9328C27.8034 11.0098 27.6431 11.0395 27.4857 11.0174C27.3284 10.9953 27.1825 10.9225 27.0701 10.8102L25.5142 9.25455C25.4477 9.18984 25.3586 9.15363 25.2658 9.15363C25.173 9.15363 25.0839 9.18984 25.0174 9.25455L22.9901 11.2821C22.925 11.3483 22.8885 11.4376 22.8885 11.5305C22.8885 11.6234 22.925 11.7126 22.9901 11.7789L24.5459 13.3347C24.6583 13.4471 24.731 13.593 24.7531 13.7504C24.7752 13.9078 24.7454 14.0681 24.6682 14.2071C24.3621 14.7589 24.1196 15.3437 23.9454 15.9503C23.9015 16.103 23.8092 16.2372 23.6823 16.3328C23.5554 16.4284 23.4008 16.48 23.242 16.4801H21.0427C20.95 16.4812 20.8613 16.5186 20.7957 16.5842C20.7301 16.6498 20.6927 16.7384 20.6915 16.8312L20.6911 16.8316ZM21.0424 21.5134H22.707C22.8293 21.8628 22.9712 22.205 23.132 22.5384L21.9548 23.7159C21.6152 24.0566 21.4245 24.518 21.4245 24.9991C21.4245 25.4801 21.6152 25.9415 21.9548 26.2822L23.982 28.3094C24.3226 28.6492 24.7841 28.84 25.2652 28.84C25.7464 28.84 26.2079 28.6492 26.5485 28.3094L27.726 27.1318C28.0594 27.2927 28.4016 27.4346 28.751 27.5568V29.2213C28.7512 29.7029 28.9425 30.1647 29.283 30.5053C29.6235 30.8458 30.0853 31.0373 30.5669 31.0376H33.4339C33.915 31.037 34.3762 30.8456 34.7164 30.5054C35.0566 30.1653 35.248 29.704 35.2486 29.2229V27.5578C35.5982 27.4355 35.9406 27.2936 36.2743 27.1328L37.4516 28.3101C37.7922 28.6499 38.2537 28.8407 38.7349 28.8407C39.216 28.8407 39.6775 28.6499 40.0181 28.3101L42.0454 26.2826C42.3849 25.9418 42.5756 25.4804 42.5756 24.9994C42.5756 24.5183 42.3849 24.0569 42.0454 23.7162L40.8679 22.5388C41.0287 22.2054 41.1706 21.8632 41.2929 21.5138H42.9575C43.4386 21.5132 43.8998 21.3219 44.24 20.9817C44.5802 20.6415 44.7716 20.1803 44.7721 19.6992V16.8312C44.7716 16.3501 44.5802 15.8888 44.24 15.5486C43.8998 15.2085 43.4385 15.0171 42.9574 15.0167H41.2934C41.1712 14.6673 41.0293 14.3251 40.8684 13.9917L42.0459 12.8142C42.3854 12.4734 42.576 12.012 42.576 11.531C42.576 11.05 42.3854 10.5886 42.0459 10.2478L40.0185 8.2203C39.6777 7.88078 39.2163 7.69014 38.7352 7.69014C38.2542 7.69014 37.7928 7.88078 37.452 8.2203L36.2746 9.39755C35.941 9.23665 35.5986 9.09476 35.249 8.97255V7.3073C35.2484 6.82611 35.057 6.36479 34.7167 6.02457C34.3764 5.68435 33.9151 5.49302 33.4339 5.49255H30.5669C30.0857 5.49312 29.6245 5.68449 29.2843 6.0247C28.9441 6.36491 28.7527 6.82617 28.7521 7.3073V8.9718C28.4027 9.09401 28.0605 9.2359 27.7271 9.3968L26.5496 8.2193C26.209 7.87954 25.7475 7.68873 25.2664 7.68873C24.7853 7.68873 24.3238 7.87954 23.9831 8.2193L21.9554 10.2472C21.6158 10.5879 21.4251 11.0493 21.4251 11.5304C21.4251 12.0114 21.6158 12.4728 21.9554 12.8136L23.1326 13.9909C22.9718 14.3246 22.8299 14.667 22.7076 15.0167H21.0427C20.5616 15.0172 20.1004 15.2086 19.7601 15.5488C19.4199 15.889 19.2286 16.3503 19.228 16.8314V19.6984C19.2287 20.1794 19.4202 20.6405 19.7604 20.9806C20.1006 21.3207 20.5617 21.512 21.0427 21.5126L21.0424 21.5134ZM56.3169 56.5074V51.6356L60.5366 49.1991V54.0722L56.3169 56.5074ZM50.6336 49.1991L52.0153 49.9965V51.6625C52.014 51.7594 52.032 51.8556 52.0682 51.9455C52.1044 52.0354 52.1581 52.1172 52.2261 52.1861C52.2942 52.2551 52.3753 52.3099 52.4647 52.3472C52.5541 52.3846 52.65 52.4039 52.7469 52.4039C52.8438 52.4039 52.9398 52.3846 53.0292 52.3472C53.1186 52.3099 53.1997 52.2551 53.2677 52.1861C53.3358 52.1172 53.3895 52.0354 53.4257 51.9455C53.4619 51.8556 53.4799 51.7594 53.4786 51.6625V50.8418L54.8536 51.6357V56.5075L50.6339 54.0723V49.1991H50.6336ZM55.5851 45.4954L56.9634 46.2917L52.7435 48.7271L51.3654 47.932L55.5851 45.4954ZM55.5851 50.3685L59.8049 47.932L58.4268 47.1356L54.207 49.5722L55.5851 50.3685ZM61.6341 47.2977L55.951 44.0173C55.8397 43.9532 55.7136 43.9194 55.5851 43.9194C55.4567 43.9194 55.3305 43.9532 55.2192 44.0173L49.5361 47.2976C49.4249 47.3619 49.3325 47.4544 49.2683 47.5658C49.2041 47.6771 49.1702 47.8034 49.1702 47.9319V54.4944C49.1703 54.6229 49.2041 54.7492 49.2683 54.8605C49.3325 54.9718 49.4249 55.0642 49.5361 55.1286L55.2192 58.409C55.3303 58.4737 55.4566 58.5078 55.5851 58.5078C55.7137 58.5078 55.8399 58.4737 55.951 58.409L61.6341 55.1286C61.7454 55.0642 61.8378 54.9717 61.902 54.8603C61.9662 54.749 62 54.6227 62 54.4942V47.9317C62 47.8031 61.9662 47.6769 61.9019 47.5655C61.8377 47.4542 61.7454 47.3617 61.6341 47.2973V47.2977ZM7.68412 41.4227V38.5733C7.68412 37.3429 8.94038 36.3423 10.4841 36.3423H31.2686V32.3888C31.2711 32.1964 31.3493 32.0127 31.4863 31.8776C31.6232 31.7424 31.8079 31.6666 32.0003 31.6666C32.1927 31.6666 32.3774 31.7424 32.5143 31.8776C32.6513 32.0127 32.7295 32.1964 32.732 32.3888V36.3422H53.5164C55.0605 36.3422 56.3164 37.3422 56.3164 38.5733V41.4222C56.3164 41.6162 56.2393 41.8024 56.1021 41.9396C55.9648 42.0768 55.7787 42.1539 55.5846 42.1539C55.3906 42.1539 55.2044 42.0768 55.0672 41.9396C54.93 41.8024 54.8529 41.6162 54.8529 41.4222V38.5733C54.8529 38.2108 54.2811 37.8052 53.5154 37.8052H40.9635V41.4224C40.961 41.6148 40.8828 41.7985 40.7458 41.9337C40.6089 42.0688 40.4242 42.1446 40.2318 42.1446C40.0394 42.1446 39.8547 42.0688 39.7178 41.9337C39.5808 41.7985 39.5026 41.6148 39.5001 41.4224V37.805H25.0551V41.7283C25.0564 41.8252 25.0384 41.9214 25.0022 42.0113C24.966 42.1011 24.9123 42.1829 24.8442 42.2519C24.7762 42.3209 24.6951 42.3756 24.6057 42.413C24.5163 42.4504 24.4203 42.4696 24.3234 42.4696C24.2265 42.4696 24.1306 42.4504 24.0412 42.413C23.9518 42.3756 23.8707 42.3209 23.8026 42.2519C23.7346 42.1829 23.6809 42.1011 23.6447 42.0113C23.6085 41.9214 23.5905 41.8252 23.5917 41.7283V37.805H10.4844C9.71912 37.805 9.14688 38.2113 9.14688 38.5734V41.4223C9.14436 41.6147 9.06616 41.7984 8.92922 41.9335C8.79228 42.0687 8.6076 42.1445 8.41519 42.1445C8.22277 42.1445 8.0381 42.0687 7.90115 41.9335C7.76421 41.7984 7.68601 41.6147 7.6835 41.4223L7.68412 41.4227ZM40.9635 56.5074V51.6356L45.1834 49.1991V54.0722L40.9635 56.5074ZM35.2804 49.1991L36.662 49.9965V51.6625C36.6607 51.7594 36.6787 51.8556 36.7149 51.9455C36.7511 52.0354 36.8048 52.1172 36.8729 52.1861C36.941 52.2551 37.022 52.3099 37.1115 52.3472C37.2009 52.3846 37.2968 52.4039 37.3937 52.4039C37.4906 52.4039 37.5865 52.3846 37.6759 52.3472C37.7653 52.3099 37.8464 52.2551 37.9145 52.1861C37.9826 52.1172 38.0362 52.0354 38.0724 51.9455C38.1087 51.8556 38.1266 51.7594 38.1254 51.6625V50.8418L39.5004 51.6357V56.5075L35.2806 54.0723V49.1991H35.2804ZM40.2319 45.4954L41.61 46.2917L37.3903 48.7271L36.0121 47.932L40.2319 45.4954ZM40.2319 50.3685L44.4516 47.932L43.0734 47.1356L38.8536 49.5722L40.2319 50.3685ZM46.281 47.2977L40.5976 44.0173C40.4864 43.9532 40.3602 43.9194 40.2318 43.9194C40.1034 43.9194 39.9773 43.9532 39.866 44.0173L34.1828 47.2976C34.0715 47.362 33.9792 47.4545 33.915 47.5658C33.8508 47.6772 33.817 47.8034 33.817 47.9319V54.4944C33.817 54.6229 33.8508 54.7491 33.915 54.8604C33.9792 54.9717 34.0715 55.0642 34.1828 55.1286L39.866 58.409C39.9771 58.4737 40.1033 58.5078 40.2318 58.5078C40.3603 58.5078 40.4866 58.4737 40.5976 58.409L46.281 55.1286C46.3922 55.0642 46.4845 54.9717 46.5487 54.8604C46.6129 54.7491 46.6467 54.6229 46.6468 54.4944V47.9319C46.6467 47.8034 46.6129 47.6771 46.5487 47.5658C46.4844 47.4545 46.3921 47.362 46.2809 47.2976L46.281 47.2977ZM25.0551 56.5074V51.6356L29.275 49.1991V54.0722L25.0554 56.5074H25.0551ZM19.372 49.1991L20.7535 49.9965V51.6625C20.7535 51.8566 20.8306 52.0427 20.9678 52.18C21.1051 52.3172 21.2912 52.3943 21.4853 52.3943C21.6793 52.3943 21.8654 52.3172 22.0027 52.18C22.1399 52.0427 22.217 51.8566 22.217 51.6625V50.8418L23.592 51.6357V56.5075L19.3722 54.0723V49.1991H19.372ZM24.3234 45.4954L25.7016 46.2917L21.4816 48.7271L20.1036 47.932L24.3234 45.4954ZM24.3234 50.3685L28.5431 47.932L27.165 47.1356L22.9451 49.5722L24.3234 50.3685ZM30.3722 47.2977L24.6893 44.0173C24.578 43.9532 24.4518 43.9194 24.3234 43.9194C24.1949 43.9194 24.0688 43.9532 23.9575 44.0173L18.275 47.2977C18.1637 47.362 18.0714 47.4545 18.0071 47.5659C17.9429 47.6772 17.9091 47.8035 17.9091 47.932V54.4945C17.9091 54.6231 17.9429 54.7493 18.0072 54.8606C18.0714 54.9719 18.1637 55.0644 18.275 55.1287L23.9575 58.4088C24.0686 58.4735 24.1948 58.5076 24.3234 58.5076C24.4519 58.5076 24.5782 58.4735 24.6893 58.4088L30.3722 55.1283C30.4835 55.064 30.5759 54.9715 30.6401 54.8602C30.7043 54.7489 30.7381 54.6227 30.7381 54.4942V47.9317C30.7381 47.8031 30.7043 47.6769 30.6401 47.5655C30.5759 47.4542 30.4835 47.3617 30.3722 47.2973V47.2977ZM9.1465 56.5074V51.6356L13.3664 49.1991V54.0722L9.1465 56.5074ZM3.46338 49.1991L4.845 49.9965V51.6625C4.84373 51.7594 4.86172 51.8556 4.89793 51.9455C4.93413 52.0354 4.98782 52.1172 5.05589 52.1861C5.12396 52.2551 5.20505 52.3099 5.29445 52.3472C5.38385 52.3846 5.47979 52.4039 5.57669 52.4039C5.67359 52.4039 5.76952 52.3846 5.85892 52.3472C5.94833 52.3099 6.02941 52.2551 6.09748 52.1861C6.16555 52.1172 6.21925 52.0354 6.25545 51.9455C6.29165 51.8556 6.30964 51.7594 6.30837 51.6625V50.8418L7.68337 51.6357V56.5075L3.46338 54.0722V49.1991ZM8.41488 45.4954L9.793 46.2917L5.57325 48.7271L4.19513 47.932L8.41488 45.4954ZM8.41488 50.3685L12.6346 47.932L11.2565 47.1356L7.03662 49.5722L8.41488 50.3685ZM14.4639 47.2977L8.78063 44.0173C8.66938 43.9532 8.54322 43.9194 8.41481 43.9194C8.2864 43.9194 8.16025 43.9532 8.049 44.0173L2.36588 47.2977C2.25463 47.3621 2.16227 47.4546 2.09805 47.5659C2.03384 47.6772 2.00002 47.8035 2 47.932V54.4945C2.00003 54.623 2.03385 54.7493 2.09807 54.8606C2.16229 54.9719 2.25464 55.0643 2.36588 55.1287L8.049 58.4088C8.16007 58.4735 8.28629 58.5075 8.41481 58.5075C8.54333 58.5075 8.66956 58.4735 8.78063 58.4088L14.4639 55.1283C14.5751 55.064 14.6675 54.9715 14.7317 54.8602C14.7959 54.7489 14.8297 54.6227 14.8298 54.4942V47.9317C14.8297 47.8032 14.7959 47.677 14.7316 47.5657C14.6674 47.4544 14.5751 47.362 14.4639 47.2977Z" fill="white"/>
  <path fill-rule="evenodd" clip-rule="evenodd" d="M40.7585 16.4801C40.5997 16.48 40.4451 16.4283 40.3183 16.3327C40.1914 16.2371 40.0991 16.1028 40.0553 15.9501C39.881 15.3436 39.6384 14.7588 39.3323 14.2071C39.2552 14.0681 39.2254 13.9077 39.2475 13.7503C39.2696 13.5929 39.3423 13.447 39.4547 13.3346L41.0105 11.7789C41.0753 11.7124 41.1116 11.6232 41.1116 11.5304C41.1116 11.4375 41.0753 11.3483 41.0105 11.2818L38.9832 9.25456C38.9168 9.18953 38.8277 9.1531 38.7348 9.1531C38.6419 9.1531 38.5527 9.18953 38.4864 9.25456L36.9305 10.8104C36.8181 10.9228 36.6722 10.9956 36.5148 11.0176C36.3573 11.0397 36.197 11.0099 36.058 10.9328C35.5063 10.6266 34.9215 10.384 34.315 10.2098C34.1623 10.166 34.028 10.0736 33.9324 9.94668C33.8368 9.81977 33.7851 9.6652 33.7852 9.50631V7.30731C33.7839 7.21449 33.7465 7.12582 33.6809 7.06017C33.6153 6.99451 33.5266 6.95707 33.4338 6.95581H30.5668C30.474 6.95707 30.3853 6.9945 30.3197 7.06012C30.2541 7.12575 30.2167 7.21439 30.2154 7.30719V9.50656C30.2154 9.66542 30.1637 9.81997 30.0681 9.94684C29.9725 10.0737 29.8382 10.166 29.6855 10.2098C29.079 10.3842 28.4942 10.6268 27.9423 10.9328C27.8033 11.0098 27.643 11.0395 27.4856 11.0174C27.3283 10.9953 27.1824 10.9225 27.07 10.8102L25.5142 9.25456C25.4476 9.18985 25.3585 9.15364 25.2657 9.15364C25.1729 9.15364 25.0838 9.18985 25.0173 9.25456L22.99 11.2821C22.9249 11.3484 22.8884 11.4376 22.8884 11.5305C22.8884 11.6234 22.9249 11.7126 22.99 11.7789L24.5458 13.3347C24.6582 13.4471 24.7309 13.593 24.753 13.7504C24.7751 13.9078 24.7453 14.0681 24.6682 14.2071C24.362 14.7589 24.1195 15.3437 23.9453 15.9503C23.9014 16.103 23.8091 16.2372 23.6822 16.3328C23.5553 16.4284 23.4008 16.4801 23.2419 16.4801H21.0427C20.9499 16.4812 20.8612 16.5186 20.7956 16.5842C20.73 16.6498 20.6926 16.7384 20.6914 16.8312V19.6984C20.6926 19.7912 20.73 19.8798 20.7956 19.9454C20.8612 20.011 20.9499 20.0483 21.0427 20.0494H23.2419C23.4008 20.0494 23.5553 20.1011 23.6822 20.1967C23.8091 20.2923 23.9015 20.4266 23.9453 20.5793C24.1195 21.1858 24.362 21.7706 24.6682 22.3224C24.7453 22.4614 24.7751 22.6217 24.753 22.7791C24.7309 22.9365 24.6582 23.0824 24.5458 23.1948L22.99 24.7507C22.9249 24.8169 22.8884 24.9061 22.8884 24.9989C22.8884 25.0918 22.9249 25.181 22.99 25.2472L25.0173 27.2751C25.0838 27.3398 25.173 27.376 25.2658 27.376C25.3586 27.376 25.4478 27.3398 25.5143 27.2751L27.07 25.7194C27.1824 25.607 27.3284 25.5342 27.4858 25.5122C27.6432 25.4901 27.8036 25.5199 27.9425 25.5971C28.4943 25.9031 29.0791 26.1456 29.6855 26.3199C29.8382 26.3637 29.9725 26.456 30.0681 26.5829C30.1637 26.7098 30.2154 26.8643 30.2154 27.0232V29.2232C30.2167 29.316 30.2541 29.4046 30.3197 29.4702C30.3854 29.5357 30.474 29.5731 30.5668 29.5743H33.4338C33.5266 29.5731 33.6152 29.5357 33.6809 29.47C33.7465 29.4044 33.7839 29.3157 33.7852 29.2229V27.0232C33.7852 26.8643 33.8369 26.7098 33.9325 26.5829C34.028 26.4561 34.1623 26.3637 34.315 26.3199C34.9215 26.1455 35.5062 25.9029 36.058 25.5969C36.197 25.5197 36.3573 25.4898 36.5148 25.5119C36.6722 25.5339 36.8182 25.6067 36.9305 25.7192L38.4863 27.2751C38.5528 27.3398 38.6419 27.3761 38.7348 27.3761C38.8276 27.3761 38.9168 27.3398 38.9833 27.2751L41.0105 25.2478C41.0757 25.1816 41.1123 25.0923 41.1123 24.9994C41.1123 24.9064 41.0757 24.8172 41.0105 24.7509L39.4547 23.1951C39.3423 23.0827 39.2696 22.9367 39.2475 22.7794C39.2254 22.622 39.2552 22.4617 39.3323 22.3227C39.6384 21.7708 39.8809 21.1861 40.0553 20.5796C40.0991 20.4268 40.1914 20.2925 40.3182 20.1969C40.4451 20.1012 40.5997 20.0495 40.7585 20.0494H42.9578C43.0506 20.0482 43.1393 20.0108 43.2049 19.9452C43.2705 19.8795 43.3079 19.7909 43.3092 19.6981V16.8313C43.3079 16.7385 43.2705 16.6499 43.2049 16.5843C43.1393 16.5186 43.0507 16.4812 42.9579 16.4799L40.7585 16.4801ZM31.9999 12.0396C33.2311 12.0396 34.4346 12.4047 35.4583 13.0887C36.482 13.7727 37.2799 14.7449 37.7511 15.8824C38.2222 17.0198 38.3455 18.2715 38.1053 19.479C37.8651 20.6865 37.2722 21.7957 36.4016 22.6663C35.5311 23.5369 34.4219 24.1298 33.2143 24.3699C32.0068 24.6101 30.7552 24.4869 29.6177 24.0157C28.4802 23.5446 27.508 22.7467 26.824 21.723C26.14 20.6993 25.7749 19.4957 25.7749 18.2646C25.7769 16.6142 26.4333 15.032 27.6003 13.865C28.7673 12.698 30.3495 12.0415 31.9999 12.0396Z" fill="#00ABEA"/>
  <path fill-rule="evenodd" clip-rule="evenodd" d="M7.68484 51.6356L6.30984 50.8417V51.6626C6.31111 51.7595 6.29312 51.8557 6.25692 51.9455C6.22072 52.0354 6.16702 52.1172 6.09895 52.1862C6.03088 52.2552 5.94979 52.3099 5.86039 52.3473C5.77099 52.3847 5.67506 52.4039 5.57816 52.4039C5.48126 52.4039 5.38532 52.3847 5.29592 52.3473C5.20652 52.3099 5.12543 52.2552 5.05736 52.1862C4.98929 52.1172 4.9356 52.0354 4.89939 51.9455C4.86319 51.8557 4.8452 51.7595 4.84647 51.6626V49.9966L3.46484 49.1991V54.0722L7.68459 56.5075L7.68484 51.6356Z" fill="#00ABEA"/>
  <path fill-rule="evenodd" clip-rule="evenodd" d="M9.14844 51.6356V56.5075L13.3683 54.0722V49.1991L9.14844 51.6356Z" fill="#00ABEA"/>
  <path fill-rule="evenodd" clip-rule="evenodd" d="M19.375 49.1991V54.0722L23.5947 56.5075V51.6356L22.2197 50.8417V51.6626C22.2197 51.8567 22.1427 52.0428 22.0054 52.18C21.8682 52.3172 21.6821 52.3943 21.488 52.3943C21.2939 52.3943 21.1078 52.3172 20.9706 52.18C20.8333 52.0428 20.7563 51.8567 20.7563 51.6626V49.9966L19.375 49.1991Z" fill="#00ABEA"/>
  <path fill-rule="evenodd" clip-rule="evenodd" d="M25.0586 51.6356V56.5075L29.2782 54.0722V49.1991L25.0586 51.6356Z" fill="#00ABEA"/>
  <path fill-rule="evenodd" clip-rule="evenodd" d="M35.2812 49.1991V54.0722L39.5009 56.5075V51.6356L38.1259 50.8417V51.6626C38.1271 51.7595 38.1092 51.8557 38.0729 51.9455C38.0367 52.0354 37.9831 52.1172 37.915 52.1862C37.8469 52.2552 37.7658 52.3099 37.6764 52.3473C37.587 52.3847 37.4911 52.4039 37.3942 52.4039C37.2973 52.4039 37.2014 52.3847 37.1119 52.3473C37.0225 52.3099 36.9415 52.2552 36.8734 52.1862C36.8053 52.1172 36.7516 52.0354 36.7154 51.9455C36.6792 51.8557 36.6612 51.7595 36.6625 51.6626V49.9966L35.2812 49.1991Z" fill="#00ABEA"/>
  <path fill-rule="evenodd" clip-rule="evenodd" d="M40.9648 51.6356V56.5075L45.1847 54.0722V49.1991L40.9648 51.6356Z" fill="#00ABEA"/>
  <path fill-rule="evenodd" clip-rule="evenodd" d="M50.6367 49.1991V54.0722L54.8565 56.5075V51.6356L53.4815 50.8417V51.6626C53.4827 51.7595 53.4647 51.8557 53.4285 51.9455C53.3923 52.0354 53.3386 52.1172 53.2706 52.1862C53.2025 52.2552 53.1214 52.3099 53.032 52.3473C52.9426 52.3847 52.8467 52.4039 52.7498 52.4039C52.6529 52.4039 52.5569 52.3847 52.4675 52.3473C52.3781 52.3099 52.2971 52.2552 52.229 52.1862C52.1609 52.1172 52.1072 52.0354 52.071 51.9455C52.0348 51.8557 52.0168 51.7595 52.0181 51.6626V49.9966L50.6367 49.1991Z" fill="#00ABEA"/>
  <path fill-rule="evenodd" clip-rule="evenodd" d="M56.3203 51.6356V56.5075L60.5401 54.0722V49.1991L56.3203 51.6356Z" fill="#00ABEA"/>
</svg>