<svg width="104" height="104" viewBox="0 0 104 104" fill="none" xmlns="http://www.w3.org/2000/svg">
<path fill-rule="evenodd" clip-rule="evenodd" d="M100.314 47.1393C100.047 46.8886 99.6913 46.7541 99.3252 46.7655C98.9591 46.777 98.6125 46.9334 98.3617 47.2003L93.5882 52.2796C93.7099 44.9259 91.8746 37.6719 88.2702 31.2609C84.0493 23.7241 77.5313 17.7326 69.6666 14.1598C69.3334 14.0074 68.9533 13.9937 68.6099 14.1216C68.2666 14.2495 67.9881 14.5085 67.8357 14.8418C67.6834 15.175 67.6697 15.5551 67.7976 15.8984C67.9255 16.2418 68.1845 16.5203 68.5177 16.6726C82.513 23.0729 91.2013 37.3117 90.8123 52.7299L86.0541 47.7195C85.9292 47.5879 85.7795 47.4823 85.6137 47.4086C85.4479 47.3349 85.2692 47.2945 85.0878 47.2899C84.9064 47.2852 84.7259 47.3164 84.5565 47.3815C84.3872 47.4466 84.2323 47.5444 84.1008 47.6694C83.9692 47.7944 83.8636 47.944 83.7899 48.1098C83.7162 48.2756 83.6758 48.4543 83.6712 48.6357C83.6665 48.8171 83.6977 48.9976 83.7628 49.167C83.8279 49.3363 83.9257 49.4912 84.0507 49.6227L90.9976 56.9371C91.1268 57.073 91.2823 57.1813 91.4547 57.2552C91.627 57.3292 91.8126 57.3673 92.0002 57.3673H92.002C92.1903 57.3668 92.3765 57.328 92.5492 57.2531C92.722 57.1782 92.8776 57.0689 93.0067 56.9318L100.375 49.0912C100.499 48.959 100.596 48.8037 100.66 48.634C100.725 48.4643 100.755 48.2837 100.749 48.1023C100.743 47.921 100.702 47.7425 100.627 47.5772C100.553 47.4118 100.446 47.2628 100.314 47.1387L100.314 47.1393ZM52 63.0347C54.1826 63.0351 56.3163 62.3883 58.1312 61.1761C59.9462 59.9638 61.3609 58.2406 62.1964 56.2243C63.0319 54.208 63.2508 51.9892 62.8253 49.8485C62.3997 47.7078 61.3489 45.7414 59.8058 44.198C58.2626 42.6545 56.2965 41.6033 54.1559 41.1773C52.0153 40.7514 49.7964 40.9698 47.7799 41.8049C45.7635 42.64 44.04 44.0544 42.8273 45.8691C41.6147 47.6838 40.9675 49.8174 40.9675 51.9999C40.9708 54.9251 42.1341 57.7296 44.2023 59.7983C46.2706 61.8669 49.0748 63.0308 52 63.0347ZM52 65.7972C49.271 65.7971 46.6034 64.9879 44.3343 63.4717C42.0653 61.9555 40.2968 59.8005 39.2525 57.2793C38.2083 54.758 37.9351 51.9837 38.4675 49.3071C39 46.6306 40.3142 44.1721 42.2439 42.2425C44.1737 40.3128 46.6323 38.9988 49.3088 38.4665C51.9854 37.9342 54.7597 38.2075 57.2809 39.2519C59.8021 40.2964 61.957 42.065 63.473 44.3341C64.9891 46.6032 65.7982 49.2709 65.7981 51.9999C65.794 55.6581 64.3389 59.1653 61.7522 61.7521C59.1654 64.3388 55.6582 65.7939 52 65.798V65.7972ZM48.7636 77.8029C48.4815 77.8028 48.2109 77.6908 48.0114 77.4913C47.8119 77.2918 47.6998 77.0213 47.6997 76.7391V71.7741C47.6999 71.4743 47.6023 71.1826 47.4216 70.9432C47.241 70.7039 46.9873 70.53 46.6989 70.4479C45.3106 70.0477 43.972 69.4923 42.7083 68.7921C42.4459 68.6462 42.1431 68.5899 41.8458 68.6315C41.5484 68.6731 41.2728 68.8105 41.0605 69.0228L37.5465 72.5369C37.3469 72.7357 37.0766 72.8474 36.7949 72.8474C36.5132 72.8474 36.2429 72.7357 36.0433 72.5369L31.4661 67.957C31.3673 67.8584 31.2889 67.7412 31.2354 67.6123C31.1819 67.4833 31.1543 67.3451 31.1543 67.2055C31.1543 67.0658 31.1819 66.9276 31.2354 66.7986C31.2889 66.6697 31.3673 66.5525 31.4661 66.4539L34.9773 62.9398C35.1897 62.7276 35.3272 62.452 35.3692 62.1548C35.4112 61.8575 35.3553 61.5546 35.2101 61.2919C34.5077 60.0289 33.9522 58.6897 33.5542 57.3005C33.4712 57.0123 33.2968 56.759 33.0574 56.5785C32.8179 56.398 32.5263 56.3003 32.2264 56.2999H27.2594C26.9774 56.2994 26.7071 56.1871 26.5077 55.9876C26.3084 55.7881 26.1963 55.5177 26.196 55.2357V48.7625C26.1964 48.4804 26.3086 48.21 26.5081 48.0105C26.7075 47.811 26.9779 47.6988 27.26 47.6983H32.2256C32.5255 47.698 32.8172 47.6003 33.0567 47.4199C33.2963 47.2395 33.4707 46.9861 33.5538 46.698C33.9519 45.3084 34.5075 43.9689 35.2097 42.7055C35.3548 42.4429 35.4106 42.1402 35.3687 41.8431C35.3267 41.546 35.1893 41.2706 34.9771 41.0584L31.4661 37.5464C31.3672 37.4476 31.2887 37.3303 31.2351 37.2011C31.1816 37.072 31.154 36.9336 31.154 36.7938C31.154 36.654 31.1816 36.5155 31.2351 36.3864C31.2887 36.2573 31.3672 36.14 31.4661 36.0412L36.0431 31.464C36.2428 31.265 36.5133 31.1532 36.7952 31.1532C37.0771 31.1532 37.3476 31.265 37.5473 31.464L41.0601 34.978C41.2725 35.1902 41.5482 35.3275 41.8455 35.3692C42.1429 35.4109 42.4457 35.3548 42.7083 35.2092C43.9717 34.5083 45.3104 33.9528 46.6989 33.5533C46.9872 33.4705 47.2409 33.2962 47.4214 33.0566C47.602 32.817 47.6997 32.5251 47.6999 32.2251V27.2593C47.7003 26.9772 47.8126 26.7068 48.012 26.5074C48.2115 26.3079 48.4819 26.1957 48.764 26.1953H55.2372C55.5194 26.1953 55.79 26.3073 55.9895 26.5067C56.1891 26.7062 56.3013 26.9767 56.3014 27.2589V32.2249C56.3016 32.5248 56.3993 32.8166 56.5799 33.0561C56.7604 33.2956 57.0139 33.4699 57.3022 33.5527C58.6915 33.9517 60.0309 34.5072 61.2948 35.2086C61.5574 35.3541 61.8602 35.4103 62.1575 35.3685C62.4548 35.3268 62.7304 35.1895 62.9428 34.9772L66.4568 31.4646C66.6572 31.2672 66.9271 31.1565 67.2084 31.1565C67.4897 31.1565 67.7596 31.2672 67.96 31.4646L72.536 36.0416C72.7332 36.2423 72.8437 36.5124 72.8437 36.7938C72.8437 37.0752 72.7332 37.3453 72.536 37.546L69.0219 41.059C68.8097 41.2712 68.6724 41.5467 68.6307 41.8439C68.589 42.1411 68.6453 42.4438 68.7909 42.7061C69.4924 43.9699 70.0479 45.3093 70.4468 46.6986C70.5296 46.987 70.704 47.2406 70.9437 47.421C71.1835 47.6015 71.4754 47.699 71.7755 47.6987H76.7408C77.0229 47.6991 77.2933 47.8113 77.4928 48.0107C77.6922 48.2101 77.8045 48.4805 77.805 48.7625V55.2363C77.8046 55.5183 77.6925 55.7886 77.4931 55.9879C77.2937 56.1873 77.0234 56.2995 76.7414 56.2999H71.7765C71.4765 56.2999 71.1846 56.3975 70.945 56.578C70.7054 56.7584 70.5309 57.012 70.448 57.3003C70.049 58.6898 69.4935 60.0295 68.7922 61.2937C68.6465 61.5558 68.5902 61.8582 68.6319 62.1551C68.6736 62.452 68.8111 62.7272 69.0233 62.939L72.5362 66.4531C72.7331 66.6537 72.8435 66.9235 72.8435 67.2046C72.8435 67.4857 72.7331 67.7556 72.5362 67.9562L67.9593 72.5359C67.7585 72.7333 67.4881 72.8439 67.2065 72.8439C66.9248 72.8439 66.6545 72.7333 66.4536 72.5359L62.9422 69.0218C62.7299 68.8094 62.4542 68.672 62.1568 68.6304C61.8595 68.5888 61.5566 68.6452 61.2942 68.791C60.0299 69.4916 58.6906 70.0471 57.3016 70.4469C57.0134 70.5293 56.76 70.7033 56.5795 70.9425C56.399 71.1817 56.3013 71.4732 56.3012 71.7729V76.7389C56.3013 76.8787 56.2739 77.017 56.2205 77.1462C56.1671 77.2753 56.0887 77.3926 55.9899 77.4914C55.8911 77.5902 55.7738 77.6686 55.6447 77.722C55.5155 77.7754 55.3772 77.8028 55.2374 77.8027L48.7636 77.8029ZM48.7636 80.5654C47.7489 80.5646 46.7759 80.1612 46.0583 79.4437C45.3407 78.7262 44.9371 77.7533 44.9361 76.7385V72.7871C44.033 72.4801 43.1509 72.1142 42.2955 71.6919L39.5011 74.4883C38.7824 75.2041 37.8094 75.6059 36.7951 75.6059C35.7808 75.6059 34.8078 75.2041 34.0891 74.4883L29.5125 69.9092C28.7957 69.1911 28.3932 68.218 28.3932 67.2034C28.3932 66.1888 28.7957 65.2157 29.5125 64.4976L32.3075 61.7028C31.8849 60.8475 31.5189 59.9654 31.2118 59.0622H27.2604C26.2458 59.061 25.2731 58.6574 24.5556 57.94C23.8382 57.2226 23.4346 56.2499 23.4333 55.2353V48.7615C23.4344 47.747 23.8379 46.7743 24.5552 46.0568C25.2726 45.3394 26.2452 44.9358 27.2598 44.9346H31.2112C31.518 44.0313 31.884 43.1492 32.3066 42.294L29.5123 39.4988C28.7955 38.7807 28.393 37.8075 28.393 36.7929C28.393 35.7783 28.7955 34.8051 29.5123 34.0869L34.0893 29.5093C34.8075 28.7927 35.7806 28.3903 36.7951 28.3903C37.8096 28.3903 38.7827 28.7927 39.5009 29.5093L42.2959 32.3043C43.1515 31.8823 44.0335 31.5164 44.9366 31.2089V27.2575C44.9377 26.2429 45.3412 25.2702 46.0586 24.5528C46.776 23.8355 47.7487 23.4319 48.7632 23.4308H55.2368C56.2517 23.4319 57.2247 23.8357 57.9423 24.5535C58.6598 25.2712 59.0633 26.2444 59.0641 27.2593V31.2103C59.9674 31.5171 60.8495 31.8831 61.7047 32.3059L64.5018 29.5109C65.2203 28.7951 66.1932 28.3931 67.2075 28.3931C68.2217 28.3931 69.1947 28.7951 69.9132 29.5109L74.4904 34.088C75.2058 34.807 75.6073 35.78 75.6073 36.7943C75.6073 37.8086 75.2058 38.7816 74.4904 39.5006L71.696 42.2954C72.1176 43.1511 72.4834 44.0331 72.7911 44.936H76.7425C77.7571 44.9373 78.7298 45.341 79.4472 46.0585C80.1646 46.776 80.5682 47.7487 80.5693 48.7633V55.2365C80.5681 56.2512 80.1645 57.224 79.447 57.9414C78.7295 58.6589 77.7567 59.0626 76.7421 59.0638H72.7909C72.483 59.9667 72.1171 60.8487 71.6954 61.7044L74.4904 64.499C75.2057 65.2179 75.6073 66.1908 75.6073 67.2049C75.6073 68.2191 75.2057 69.192 74.4904 69.9109L69.9134 74.4875C69.1949 75.2043 68.2215 75.6068 67.2066 75.6068C66.1917 75.6068 65.2182 75.2043 64.4997 74.4875L61.7053 71.6929C60.8503 72.1159 59.9681 72.4818 59.0647 72.7881V76.7405C59.0637 77.7552 58.6602 78.7281 57.9427 79.4456C57.2252 80.163 56.2523 80.5665 55.2376 80.5674L48.7636 80.5654ZM14.4554 37.3678C14.6224 37.4388 14.8017 37.4761 14.9831 37.4778C15.1644 37.4794 15.3444 37.4453 15.5126 37.3774C15.6808 37.3095 15.834 37.2091 15.9634 37.082C16.0928 36.9549 16.196 36.8035 16.2669 36.6366C22.4189 22.1302 36.8128 12.9812 52.699 13.173L47.7157 17.9507C47.4512 18.2043 47.2982 18.5525 47.2905 18.9189C47.2828 19.2852 47.4209 19.6396 47.6745 19.9041C47.928 20.1686 48.2763 20.3216 48.6427 20.3293C49.009 20.3371 49.3634 20.1989 49.6279 19.9454L56.9422 12.9335C57.0778 12.8032 57.1853 12.6467 57.2582 12.4735C57.3312 12.3002 57.3681 12.1139 57.3666 11.926C57.3651 11.738 57.3254 11.5523 57.2497 11.3803C57.1741 11.2082 57.0641 11.0533 56.9266 10.9252L49.086 3.62062C48.8178 3.37095 48.4614 3.23804 48.0953 3.25113C47.7291 3.26421 47.3831 3.42222 47.1334 3.6904C46.8838 3.95857 46.7509 4.31495 46.764 4.68112C46.777 5.04729 46.935 5.39327 47.2032 5.64294L52.3155 10.4044C44.7467 10.3541 37.3039 12.3414 30.7676 16.1579C23.1318 20.6035 17.1493 27.4122 13.7229 35.5563C13.6521 35.7234 13.6149 35.9027 13.6133 36.0841C13.6118 36.2655 13.646 36.4454 13.714 36.6136C13.7821 36.7818 13.8825 36.9349 14.0097 37.0642C14.1369 37.1936 14.2884 37.2966 14.4554 37.3674V37.3678ZM89.4234 66.6347C89.0869 66.49 88.7068 66.4848 88.3664 66.62C88.0261 66.7553 87.7533 67.02 87.6078 67.3562C84.5743 74.4288 79.5031 80.4378 73.0409 84.6169C66.5788 88.796 59.0184 90.9559 51.3238 90.8212L56.288 86.0477C56.5449 85.7922 56.6911 85.446 56.6951 85.0837C56.6991 84.7214 56.5606 84.372 56.3094 84.1109C56.0582 83.8497 55.7144 83.6978 55.3522 83.6877C54.9901 83.6777 54.6384 83.8103 54.3731 84.0571L47.1181 91.03C46.9837 91.16 46.8769 91.3158 46.8043 91.4882C46.7317 91.6605 46.6947 91.8457 46.6956 92.0328C46.6965 92.2198 46.7353 92.4047 46.8096 92.5763C46.8839 92.7479 46.9921 92.9027 47.1279 93.0314L54.9063 100.373C55.0383 100.498 55.1934 100.595 55.3629 100.66C55.5325 100.724 55.713 100.755 55.8944 100.75C56.0757 100.744 56.2542 100.703 56.4197 100.629C56.5853 100.555 56.7346 100.449 56.8591 100.317C56.9836 100.185 57.0809 100.03 57.1455 99.8604C57.21 99.6908 57.2405 99.5102 57.2353 99.3289C57.2301 99.1476 57.1892 98.9691 57.115 98.8035C57.0407 98.638 56.9346 98.4887 56.8027 98.3642L51.7449 93.5879C51.8296 93.5879 51.9161 93.59 52.001 93.59C60.1207 93.5908 68.0622 91.2098 74.842 86.7417C81.6218 82.2737 86.9419 75.9149 90.1434 68.453C90.2885 68.1165 90.2942 67.7361 90.1592 67.3953C90.0242 67.0545 89.7596 66.7812 89.4234 66.6353V66.6347ZM37.3657 89.4862C37.5104 89.1496 37.5156 88.7693 37.3801 88.4288C37.2446 88.0883 36.9794 87.8156 36.643 87.6705C29.5665 84.6232 23.5569 79.5392 19.3791 73.0655C15.2013 66.5919 13.0444 59.0215 13.1828 51.318L17.9524 56.2859C18.2069 56.547 18.5543 56.6968 18.9189 56.7028C19.2835 56.7088 19.6356 56.5703 19.8985 56.3177C20.1615 56.065 20.3138 55.7187 20.3224 55.3542C20.3309 54.9896 20.195 54.6365 19.9443 54.3718L12.971 47.1109C12.8423 46.9766 12.6878 46.8697 12.5168 46.7967C12.3457 46.7237 12.1616 46.6861 11.9757 46.6862C11.973 46.686 11.9704 46.686 11.9677 46.6862C11.7806 46.6872 11.5957 46.7262 11.4241 46.8007C11.2524 46.8752 11.0977 46.9837 10.9692 47.1196L3.62763 54.9062C3.37621 55.1727 3.24093 55.5281 3.25156 55.8943C3.26219 56.2605 3.41785 56.6075 3.6843 56.8589C3.95075 57.1103 4.30617 57.2456 4.67236 57.2349C5.03855 57.2243 5.38552 57.0687 5.63694 56.8022L10.415 51.7359C10.3588 59.9092 12.7131 67.9177 17.1836 74.7603C21.654 81.6029 28.0423 86.976 35.5497 90.2077C35.8864 90.3525 36.2667 90.3578 36.6072 90.2223C36.9477 90.0868 37.2205 89.8217 37.3657 89.4852V89.4862Z" fill="white"/>
<path fill-rule="evenodd" clip-rule="evenodd" d="M34.978 62.9401L31.4668 66.4542C31.3679 66.5528 31.2895 66.67 31.236 66.7989C31.1825 66.9279 31.155 67.0661 31.155 67.2058C31.155 67.3454 31.1825 67.4836 31.236 67.6126C31.2895 67.7416 31.3679 67.8587 31.4668 67.9573L36.0432 72.536C36.2428 72.7348 36.513 72.8465 36.7947 72.8465C37.0765 72.8465 37.3467 72.7348 37.5463 72.536L41.0604 69.0219C41.2726 68.8096 41.5483 68.6722 41.8456 68.6306C42.1429 68.589 42.4457 68.6453 42.7081 68.7912C43.9718 69.4914 45.3105 70.0468 46.6987 70.447C46.9871 70.5291 47.2409 70.703 47.4215 70.9423C47.6021 71.1817 47.6997 71.4734 47.6995 71.7732V76.7407C47.6996 77.0228 47.8118 77.2933 48.0113 77.4928C48.2108 77.6923 48.4813 77.8044 48.7635 77.8044H55.2367C55.3764 77.8046 55.5148 77.7771 55.6439 77.7237C55.773 77.6703 55.8904 77.5919 55.9892 77.4931C56.088 77.3943 56.1663 77.277 56.2197 77.1479C56.2731 77.0188 56.3006 76.8804 56.3004 76.7407V71.7747C56.3005 71.475 56.3982 71.1835 56.5787 70.9442C56.7592 70.705 57.0127 70.531 57.3008 70.4487C58.6898 70.0488 60.0292 69.4933 61.2934 68.7928C61.5559 68.6469 61.8587 68.5905 62.1561 68.6321C62.4534 68.6738 62.7291 68.8112 62.9414 69.0235L66.4528 72.5376C66.6537 72.735 66.9241 72.8456 67.2057 72.8456C67.4873 72.8456 67.7577 72.735 67.9586 72.5376L72.5358 67.9571C72.7328 67.7565 72.8431 67.4867 72.8431 67.2056C72.8431 66.9244 72.7328 66.6546 72.5358 66.454L69.023 62.9399C68.8107 62.7282 68.6733 62.4529 68.6316 62.156C68.5899 61.8591 68.6461 61.5567 68.7918 61.2946C69.4931 60.0304 70.0487 58.6907 70.4477 57.3012C70.5306 57.0129 70.705 56.7594 70.9447 56.5789C71.1843 56.3985 71.4761 56.3008 71.7761 56.3008H76.7419C77.0239 56.3004 77.2942 56.1882 77.4935 55.9889C77.6929 55.7895 77.8051 55.5192 77.8055 55.2372V48.7634C77.805 48.4814 77.6927 48.211 77.4932 48.0116C77.2938 47.8122 77.0234 47.7 76.7413 47.6997H71.7765C71.4765 47.6999 71.1845 47.6024 70.9448 47.4219C70.7051 47.2415 70.5307 46.9879 70.4479 46.6995C70.049 45.3102 69.4935 43.9708 68.792 42.7071C68.6464 42.4447 68.5901 42.142 68.6318 41.8448C68.6734 41.5476 68.8108 41.2721 69.023 41.0599L72.537 37.5469C72.7342 37.3462 72.8448 37.0761 72.8448 36.7947C72.8448 36.5133 72.7342 36.2432 72.537 36.0425L67.9592 31.4641C67.7589 31.2667 67.4889 31.156 67.2076 31.156C66.9264 31.156 66.6564 31.2667 66.4561 31.4641L62.942 34.9767C62.7297 35.1889 62.454 35.3263 62.1567 35.368C61.8594 35.4098 61.5566 35.3536 61.2941 35.2081C60.0302 34.5067 58.6907 33.9512 57.3014 33.5522C57.0132 33.4694 56.7596 33.2951 56.5791 33.0556C56.3986 32.8161 56.3008 32.5243 56.3006 32.2244V27.2584C56.3005 26.9762 56.1884 26.7057 55.9888 26.5062C55.7892 26.3068 55.5186 26.1948 55.2365 26.1948H48.7637C48.4816 26.1952 48.2112 26.3074 48.0117 26.5069C47.8122 26.7063 47.6999 26.9767 47.6995 27.2588V32.2242C47.6994 32.5242 47.6017 32.8161 47.4211 33.0557C47.2405 33.2953 46.9869 33.4696 46.6985 33.5524C45.31 33.9519 43.9713 34.5074 42.7079 35.2083C42.4453 35.3538 42.1425 35.41 41.8452 35.3683C41.5479 35.3266 41.2722 35.1893 41.0598 34.9771L37.5469 31.4631C37.3472 31.2641 37.0768 31.1523 36.7948 31.1523C36.5129 31.1523 36.2425 31.2641 36.0428 31.4631L31.466 36.0413C31.367 36.1401 31.2885 36.2574 31.235 36.3865C31.1814 36.5157 31.1538 36.6541 31.1538 36.7939C31.1538 36.9337 31.1814 37.0721 31.235 37.2013C31.2885 37.3304 31.367 37.4477 31.466 37.5465L34.978 41.0591C35.1902 41.2713 35.3276 41.5467 35.3695 41.8438C35.4115 42.1409 35.3557 42.4436 35.2106 42.7062C34.5082 43.9696 33.9524 45.309 33.5541 46.6985C33.471 46.9866 33.2965 47.24 33.057 47.4204C32.8174 47.6008 32.5257 47.6985 32.2259 47.6989H27.2603C26.9782 47.6993 26.7078 47.8115 26.5083 48.011C26.3089 48.2105 26.1967 48.4809 26.1963 48.763V55.2362C26.1966 55.5182 26.3087 55.7886 26.508 55.9881C26.7073 56.1876 26.9776 56.2999 27.2596 56.3004H32.2259C32.5257 56.3008 32.8173 56.3986 33.0568 56.579C33.2963 56.7595 33.4707 57.0128 33.5537 57.301C33.9516 58.6902 34.5072 60.0294 35.2096 61.2924C35.3548 61.5551 35.4106 61.858 35.3686 62.1553C35.3266 62.4525 35.1891 62.7281 34.9768 62.9403L34.978 62.9401ZM51.9999 65.7981C49.2709 65.7981 46.6033 64.9888 44.3343 63.4727C42.0652 61.9565 40.2968 59.8016 39.2525 57.2804C38.2082 54.7591 37.9349 51.9849 38.4673 49.3083C38.9997 46.6318 40.3138 44.1733 42.2435 42.2437C44.1732 40.314 46.6317 38.9999 49.3082 38.4675C51.9847 37.9351 54.759 38.2083 57.2802 39.2526C59.8014 40.2969 61.9564 42.0654 63.4725 44.3344C64.9886 46.6034 65.7979 49.2711 65.7979 52C65.7938 55.6582 64.3388 59.1654 61.752 61.7522C59.1653 64.3389 55.6581 65.794 51.9999 65.7981Z" fill="#00ABEA"/>
</svg>
