<svg width="104" height="104" viewBox="0 0 104 104" fill="none" xmlns="http://www.w3.org/2000/svg">
<path fill-rule="evenodd" clip-rule="evenodd" d="M40.8348 93.7395C40.8348 94.1059 40.6893 94.4572 40.4303 94.7162C40.1712 94.9753 39.8199 95.1208 39.4536 95.1208H36.3923C36.026 95.1208 35.6746 94.9753 35.4156 94.7162C35.1566 94.4572 35.011 94.1059 35.011 93.7395C35.011 93.3732 35.1566 93.0219 35.4156 92.7629C35.6746 92.5038 36.026 92.3583 36.3923 92.3583H39.4542C39.8205 92.3583 40.1718 92.5038 40.4309 92.7629C40.6899 93.0219 40.8354 93.3732 40.8354 93.7395H40.8348ZM42.7036 96.2085V91.2438C42.7027 90.7721 42.5149 90.32 42.1812 89.9866C41.8475 89.6533 41.3953 89.4658 40.9236 89.4654H19.9264C19.4549 89.4658 19.0029 89.6533 18.6696 89.9867C18.3363 90.3202 18.149 90.7723 18.1488 91.2438V96.2095C18.1494 96.6809 18.3368 97.1327 18.67 97.466C19.0032 97.7993 19.4551 97.9869 19.9264 97.9875H40.9232C41.3949 97.9871 41.8472 97.7997 42.181 97.4663C42.5147 97.133 42.7027 96.6809 42.7036 96.2091V96.2085ZM9.98827 72.3007C9.96613 72.2792 9.94236 72.2577 9.9188 72.2359C7.77583 70.3903 6.78052 68.2469 6.87924 65.6851C6.87924 65.6752 6.87924 65.6675 6.87924 65.6575L7.41082 37.8241C7.41082 37.7721 7.40817 37.7205 7.40411 37.6691C7.21541 35.661 7.69438 34.1782 8.75225 33.4925C9.62853 32.9237 10.8503 32.9524 11.9399 33.5672C12.6803 33.985 14.393 35.2938 14.2943 38.4093C14.2928 38.4354 14.2928 38.4615 14.2943 38.4875L14.7453 56.657C14.2968 60.449 17.6063 65.3557 25.1377 72.084C25.411 72.3282 25.7701 72.4538 26.136 72.4333C26.5019 72.4127 26.8447 72.2477 27.0889 71.9744C27.3331 71.7011 27.4587 71.342 27.4382 70.9761C27.4176 70.6102 27.2525 70.2675 26.9793 70.0233C23.2137 66.6601 20.8628 64.0431 19.4397 62.0102C19.3609 60.0074 19.72 58.6511 20.4563 58.1833C21.2741 57.6641 22.8956 57.9841 24.9068 59.0606C30.8484 62.2412 37.9785 70.6765 38.0949 74.6517L37.8568 86.7009H22.3931L22.4358 85.799C22.4819 84.9052 22.3864 84.4332 21.6842 83.8272C21.6013 83.7562 21.5085 83.6773 21.388 83.5589L9.98867 72.3007H9.98827ZM40.9242 86.7009H40.6195L40.8586 74.6759C40.8586 74.6582 40.8586 74.6385 40.8586 74.6186C40.7404 69.185 32.5693 60.0297 26.2121 56.6256C23.1674 54.9951 20.7332 54.7353 18.9745 55.8517C18.336 56.2635 17.8178 56.837 17.4726 57.5138C17.4619 57.3155 17.4699 57.1166 17.4964 56.9197C17.5059 56.845 17.5105 56.7697 17.5102 56.6944L17.0586 38.457C17.1474 35.2655 15.7418 32.5404 13.2982 31.1612C11.3096 30.0395 8.99194 30.045 7.24892 31.1748C6.11935 31.9069 4.28574 33.7452 4.64507 37.8475L4.11857 65.5927C3.99222 68.9815 5.32391 71.9099 8.0795 74.2987L19.4482 85.525C19.5307 85.6078 19.6058 85.6789 19.6729 85.7383L19.6257 86.7132C18.4763 86.7902 17.399 87.3007 16.6116 88.1416C15.8242 88.9824 15.3854 90.0909 15.3841 91.2429V96.2087C15.3853 97.4129 15.8643 98.5675 16.7159 99.4189C17.5675 100.27 18.7221 100.749 19.9264 100.75H40.9236C42.1278 100.748 43.2822 100.27 44.1338 99.4183C44.9854 98.5669 45.4648 97.4127 45.4667 96.2085V91.2427C45.4649 90.0384 44.9856 88.884 44.1338 88.0326C43.282 87.1812 42.1273 86.7024 40.923 86.7013L40.9242 86.7009ZM68.99 93.7391C68.9894 94.1053 68.8437 94.4563 68.5848 94.7152C68.3259 94.9741 67.9749 95.1198 67.6087 95.1204H64.5468C64.1805 95.1204 63.8292 94.9749 63.5701 94.7158C63.3111 94.4568 63.1656 94.1055 63.1656 93.7391C63.1656 93.3728 63.3111 93.0215 63.5701 92.7625C63.8292 92.5034 64.1805 92.3579 64.5468 92.3579H67.6079C67.9742 92.3582 68.3253 92.5038 68.5843 92.7628C68.8432 93.0218 68.9889 93.3729 68.9892 93.7391H68.99ZM94.0806 72.2361C94.0566 72.2579 94.0331 72.2796 94.0111 72.3013L82.6117 83.5593C82.4909 83.6775 82.3981 83.7566 82.3154 83.8277C81.6126 84.4334 81.5179 84.9052 81.5612 85.7994L81.6073 86.7013H66.1436L65.9047 74.6519C66.0211 70.6769 73.1514 62.241 79.0922 59.061C81.1031 57.9845 82.7257 57.6643 83.5427 58.1837C84.2798 58.6509 84.6381 60.008 84.5583 62.0106C83.1364 64.0433 80.7846 66.6605 77.0189 70.0237C76.7456 70.2679 76.5806 70.6106 76.56 70.9765C76.5394 71.3424 76.665 71.7014 76.9092 71.9747C77.1534 72.248 77.4961 72.413 77.862 72.4336C78.2279 72.4542 78.587 72.3286 78.8602 72.0844C86.3925 65.3559 89.7016 60.4494 89.2537 56.6577L89.7037 38.4875C89.706 38.4616 89.706 38.4356 89.7037 38.4097C89.6051 35.2934 91.3181 33.9855 92.0585 33.5676C93.1478 32.9526 94.3694 32.9245 95.2459 33.4929C96.3044 34.1782 96.7834 35.6618 96.5939 37.6695C96.5904 37.7207 96.588 37.7727 96.588 37.8245L97.1187 65.6579V65.6855C97.2175 68.2474 96.2227 70.3909 94.0796 72.2361H94.0806ZM85.8526 91.2438C85.8521 90.7722 85.6645 90.3201 85.331 89.9867C84.9975 89.6533 84.5454 89.4658 84.0738 89.4654H63.0758C62.6041 89.4657 62.1518 89.6531 61.8182 89.9865C61.4845 90.3199 61.2967 90.7721 61.296 91.2438V96.2095C61.297 96.6812 61.4849 97.1333 61.8187 97.4666C62.1524 97.7999 62.6047 97.9873 63.0764 97.9877H84.0732C84.5448 97.9873 84.9969 97.7998 85.3304 97.4664C85.6639 97.133 85.8515 96.6809 85.852 96.2093V91.2438H85.8526ZM99.881 65.5937L99.3545 37.8483C99.7133 33.7452 97.8796 31.9079 96.7507 31.1756C95.0087 30.0454 92.6908 30.0402 90.7014 31.162C88.2588 32.541 86.8526 35.2666 86.9416 38.4579L86.4904 56.6942C86.4901 56.7695 86.4946 56.8448 86.504 56.9195C86.5308 57.1163 86.5387 57.3153 86.5278 57.5136C86.1828 56.8366 85.6646 56.2631 85.0259 55.8515C83.268 54.7343 80.8338 54.9951 77.7885 56.6254C71.4307 60.0295 63.2602 69.185 63.1418 74.6184V74.6757L63.3813 86.7007H63.0766C61.8719 86.7016 60.7168 87.1805 59.8648 88.0323C59.0128 88.884 58.5336 90.039 58.5323 91.2438V96.2095C58.5344 97.4136 59.0139 98.5678 59.8656 99.4189C60.7173 100.27 61.8717 100.749 63.0758 100.75H84.0732C85.2773 100.749 86.4318 100.27 87.2832 99.4186C88.1346 98.5671 88.6134 97.4126 88.6145 96.2085V91.2427C88.6132 90.0906 88.1745 88.982 87.387 88.1411C86.5995 87.3002 85.522 86.7898 84.3724 86.713L84.3257 85.7399C84.3923 85.6789 84.4679 85.6076 84.5502 85.5248L95.9189 74.2985C98.6747 71.9103 100.006 68.9815 99.8798 65.5925L99.881 65.5937ZM52.3319 40.3993C50.1031 40.3994 47.9242 39.7385 46.071 38.5003C44.2177 37.2621 42.7732 35.5021 41.9202 33.4429C41.0672 31.3837 40.844 29.1179 41.2788 26.9318C41.7136 24.7458 42.7869 22.7378 44.3629 21.1617C45.939 19.5857 47.9469 18.5124 50.133 18.0775C52.319 17.6427 54.5849 17.8659 56.6441 18.7188C58.7033 19.5718 60.4633 21.0162 61.7015 22.8694C62.9398 24.7227 63.6007 26.9015 63.6007 29.1304C63.5972 32.118 62.4088 34.9822 60.2963 37.0948C58.1837 39.2074 55.3195 40.3958 52.3319 40.3993ZM66.364 29.13C66.3641 31.9054 65.5413 34.6186 63.9994 36.9264C62.4576 39.2342 60.266 41.033 57.7018 42.0952C55.1376 43.1575 52.3161 43.4355 49.5939 42.8941C46.8717 42.3527 44.3712 41.0163 42.4086 39.0538C40.446 37.0913 39.1094 34.5909 38.5679 31.8687C38.0264 29.1466 38.3042 26.325 39.3663 23.7608C40.4284 21.1966 42.227 19.0049 44.5348 17.4629C46.8425 15.9209 49.5556 15.0979 52.3311 15.0979C56.0514 15.1022 59.6181 16.5819 62.2488 19.2125C64.8795 21.843 66.3595 25.4097 66.364 29.13ZM57.0702 45.6219C58.3118 45.2655 59.5089 44.7689 60.6383 44.1419C60.9008 43.9962 61.2037 43.94 61.501 43.9816C61.7984 44.0233 62.0741 44.1606 62.2865 44.3729L65.4522 47.5384C65.6072 47.6911 65.8161 47.7767 66.0337 47.7767C66.2513 47.7767 66.4602 47.6911 66.6152 47.5384L70.7397 43.4139C70.8914 43.2584 70.9764 43.0497 70.9764 42.8324C70.9764 42.6151 70.8914 42.4064 70.7397 42.2508L67.5736 39.0855C67.3615 38.8733 67.2242 38.5978 67.1826 38.3007C67.141 38.0035 67.1972 37.7009 67.3428 37.4386C67.9693 36.3084 68.4659 35.1109 68.823 33.8691C68.9058 33.5806 69.0802 33.327 69.3199 33.1465C69.5596 32.966 69.8516 32.8685 70.1517 32.8687H74.6255C74.8426 32.8657 75.0499 32.7781 75.2034 32.6245C75.3568 32.4709 75.4442 32.2635 75.4469 32.0464V26.2137C75.4444 25.9966 75.3572 25.7891 75.204 25.6354C75.0508 25.4817 74.8435 25.3938 74.6265 25.3906H70.1515C69.8515 25.3907 69.5596 25.2932 69.3199 25.1127C69.0803 24.9322 68.9059 24.6786 68.8232 24.3902C68.4662 23.1484 67.9697 21.9511 67.343 20.8211C67.1973 20.5587 67.1411 20.2559 67.1828 19.9586C67.2246 19.6613 67.362 19.3858 67.5744 19.1736L70.7397 16.0083C70.8914 15.8527 70.9764 15.644 70.9764 15.4267C70.9764 15.2094 70.8914 15.0007 70.7397 14.8452L66.6144 10.7218C66.4596 10.5691 66.2509 10.4836 66.0335 10.4836C65.8161 10.4836 65.6074 10.5691 65.4526 10.7218L62.2865 13.8875C62.074 14.0996 61.7983 14.2369 61.501 14.2786C61.2037 14.3203 60.9009 14.2641 60.6383 14.1186C59.5089 13.4911 58.3117 12.9945 57.0698 12.6382C56.7815 12.5554 56.528 12.381 56.3475 12.1414C56.167 11.9018 56.0693 11.61 56.0692 11.31V6.83577C56.0666 6.61875 55.9793 6.41133 55.8261 6.25767C55.6728 6.10402 55.4656 6.01627 55.2486 6.01311H49.414C49.1967 6.01564 48.9889 6.10305 48.8351 6.25669C48.6813 6.41032 48.5937 6.618 48.591 6.83536V11.3102C48.5914 11.61 48.4942 11.9017 48.314 12.1413C48.1338 12.3809 47.8805 12.5553 47.5924 12.638C46.35 12.9948 45.1522 13.4914 44.0219 14.1184C43.7592 14.2638 43.4564 14.3199 43.1592 14.2781C42.8619 14.2363 42.5863 14.099 42.3739 13.8868L39.21 10.7218C39.0547 10.5691 38.8457 10.4836 38.628 10.4836C38.4102 10.4836 38.2012 10.5691 38.0459 10.7218L33.9225 14.8468C33.7693 15.0015 33.6834 15.2104 33.6834 15.4282C33.6834 15.6459 33.7693 15.8548 33.9225 16.0095L37.0884 19.175C37.3 19.3875 37.437 19.663 37.4786 19.96C37.5203 20.2571 37.4644 20.5596 37.3193 20.8221C36.6923 21.9519 36.1956 23.1492 35.839 24.391C35.7558 24.6791 35.5813 24.9323 35.3418 25.1126C35.1022 25.2929 34.8106 25.3905 34.5107 25.3906H30.0361C29.819 25.3934 29.6115 25.4808 29.4579 25.6343C29.3043 25.7877 29.2167 25.9951 29.2138 26.2123V32.0462C29.2167 32.2635 29.3044 32.4711 29.4582 32.6247C29.612 32.7783 29.8198 32.8656 30.0371 32.8681H34.5107C34.8106 32.8683 35.1024 32.966 35.3419 33.1464C35.5815 33.3269 35.7559 33.5803 35.839 33.8685C36.1958 35.1104 36.6924 36.3079 37.3193 37.4378C37.4643 37.7002 37.5202 38.0027 37.4786 38.2996C37.437 38.5966 37.3001 38.872 37.0886 39.0845L33.9227 42.2504C33.7695 42.4051 33.6836 42.614 33.6836 42.8316C33.6836 43.0493 33.7695 43.2582 33.9227 43.4129L38.0471 47.5378C38.2027 47.6894 38.4113 47.7743 38.6286 47.7743C38.8458 47.7743 39.0545 47.6894 39.21 47.5378L42.3735 44.3725C42.5859 44.1603 42.8615 44.023 43.1588 43.9813C43.4561 43.9396 43.7589 43.9957 44.0215 44.1413C45.1517 44.7684 46.3496 45.2651 47.592 45.6219C47.8801 45.7047 48.1333 45.879 48.3135 46.1185C48.4937 46.3581 48.5909 46.6498 48.5906 46.9495V51.4245C48.5937 51.6418 48.6815 51.8494 48.8353 52.0029C48.9891 52.1564 49.1967 52.2439 49.414 52.2466H55.2478C55.4647 52.2435 55.672 52.1559 55.8253 52.0024C55.9786 51.8489 56.066 51.6415 56.0688 51.4245V46.9507C56.0689 46.6507 56.1666 46.3588 56.3472 46.1192C56.5278 45.8796 56.7814 45.7053 57.0698 45.6225L57.0702 45.6219ZM58.8333 47.9615C59.5896 47.7 60.3294 47.3932 61.0488 47.0427L63.4987 49.492C64.1718 50.1629 65.0833 50.5395 66.0336 50.5395C66.9839 50.5395 67.8954 50.1629 68.5685 49.492L72.6938 45.3665C73.3635 44.6929 73.7395 43.7816 73.7395 42.8316C73.7395 41.8817 73.3635 40.9704 72.6938 40.2967L70.2445 37.8471C70.5946 37.1276 70.9011 36.3877 71.1622 35.6314H74.6267C75.5769 35.63 76.4878 35.2518 77.1595 34.5797C77.8313 33.9077 78.2091 32.9966 78.21 32.0464V26.2125C78.2087 25.2623 77.8306 24.3513 77.1587 23.6794C76.4868 23.0075 75.5759 22.6295 74.6257 22.6281H71.1626C70.9007 21.872 70.5941 21.1321 70.2443 20.4124L72.6938 17.963C73.3651 17.2901 73.7421 16.3784 73.7421 15.4279C73.7421 14.4773 73.3651 13.5657 72.6938 12.8927L68.5703 8.76748C67.8969 8.09675 66.9852 7.72017 66.0347 7.72017C65.0843 7.72017 64.1725 8.09675 63.4991 8.76748L61.0492 11.2172C60.3294 10.8669 59.5891 10.5601 58.8325 10.2984V6.83556C58.8313 5.88519 58.4534 4.97406 57.7815 4.30192C57.1096 3.62979 56.1986 3.2515 55.2482 3.25H49.4144C48.4636 3.25091 47.552 3.62897 46.8796 4.30121C46.2072 4.97345 45.829 5.88497 45.8279 6.83577V10.2984C45.072 10.5599 44.3326 10.8669 43.6138 11.2176L41.1643 8.76769C40.4914 8.0962 39.5796 7.71908 38.629 7.71908C37.6784 7.71908 36.7666 8.0962 36.0937 8.76769L31.9692 12.8927C31.298 13.5657 30.921 14.4774 30.921 15.4279C30.921 16.3783 31.298 17.29 31.9692 17.963L34.4193 20.4126C34.0675 21.1318 33.7601 21.8718 33.4988 22.6285H30.0367C29.086 22.6296 28.1745 23.0076 27.5022 23.6797C26.8298 24.3518 26.4515 25.2632 26.4501 26.2139V32.047C26.4514 32.9977 26.8296 33.9091 27.502 34.5813C28.1743 35.2534 29.0858 35.6314 30.0365 35.6324H33.4986C33.7596 36.3891 34.0666 37.1292 34.4179 37.8485L31.9692 40.2978C31.298 40.9707 30.921 41.8824 30.921 42.833C30.921 43.7835 31.298 44.6952 31.9692 45.3682L36.0943 49.4928C36.7673 50.1641 37.679 50.541 38.6295 50.541C39.58 50.541 40.4917 50.1641 41.1647 49.4928L43.6144 47.0429C44.3333 47.3936 45.0726 47.7006 45.8285 47.9623V51.4252C45.8296 52.3758 46.2079 53.2871 46.8801 53.9592C47.5524 54.6313 48.4638 55.0093 49.4144 55.0103H55.249C56.1993 55.009 57.1102 54.6308 57.7821 53.9588C58.4539 53.2867 58.8319 52.3756 58.8329 51.4254L58.8333 47.9615Z" fill="#231F20"/>
<path fill-rule="evenodd" clip-rule="evenodd" d="M52.3307 15.0979C55.1061 15.098 57.8191 15.9211 60.1266 17.463C62.4342 19.005 64.2327 21.1966 65.2947 23.7607C66.3568 26.3248 66.6346 29.1463 66.0931 31.8683C65.5516 34.5903 64.2151 37.0906 62.2526 39.053C60.2901 41.0155 57.7898 42.3519 55.0678 42.8933C52.3457 43.4347 49.5243 43.1568 46.9602 42.0947C44.3961 41.0326 42.2046 39.234 40.6627 36.9264C39.1208 34.6188 38.2978 31.9058 38.2978 29.1304C38.3022 25.4101 39.782 21.8433 42.4128 19.2126C45.0435 16.582 48.6103 15.1022 52.3307 15.0979ZM29.2139 26.2134V32.0473C29.2167 32.2646 29.3044 32.4722 29.4582 32.6258C29.612 32.7793 29.8198 32.8667 30.0371 32.8692H34.5104C34.8103 32.8694 35.102 32.9671 35.3415 33.1475C35.5811 33.328 35.7555 33.5814 35.8386 33.8695C36.1954 35.1115 36.692 36.3089 37.319 37.4389C37.4639 37.7013 37.5198 38.0038 37.4782 38.3007C37.4366 38.5976 37.2997 38.8731 37.0882 39.0856L33.9223 42.2515C33.7692 42.4062 33.6832 42.6151 33.6832 42.8327C33.6832 43.0504 33.7692 43.2593 33.9223 43.414L38.0468 47.5388C38.2023 47.6905 38.411 47.7754 38.6282 47.7754C38.8455 47.7754 39.0541 47.6905 39.2097 47.5388L42.3731 44.3735C42.5855 44.1614 42.8611 44.024 43.1584 43.9823C43.4557 43.9406 43.7585 43.9968 44.0211 44.1424C45.1514 44.7691 46.3493 45.2655 47.5916 45.622C47.8797 45.7047 48.1329 45.8791 48.3131 46.1186C48.4933 46.3582 48.5905 46.6498 48.5902 46.9496V51.4246C48.5933 51.6419 48.6811 51.8494 48.8349 52.003C48.9887 52.1565 49.1963 52.2439 49.4136 52.2467H55.2474C55.4644 52.2436 55.6716 52.156 55.8249 52.0025C55.9783 51.8489 56.0656 51.6416 56.0684 51.4246V46.9508C56.0685 46.6508 56.1663 46.3589 56.3468 46.1193C56.5274 45.8797 56.781 45.7053 57.0694 45.6226C58.3111 45.2661 59.5081 44.7696 60.6375 44.1426C60.9001 43.9969 61.2029 43.9407 61.5002 43.9823C61.7976 44.024 62.0733 44.1613 62.2857 44.3735L65.4514 47.539C65.6064 47.6918 65.8153 47.7774 66.0329 47.7774C66.2505 47.7774 66.4594 47.6918 66.6145 47.539L70.7389 43.4146C70.8907 43.259 70.9756 43.0503 70.9756 42.833C70.9756 42.6157 70.8907 42.407 70.7389 42.2515L67.5728 39.0862C67.3607 38.874 67.2234 38.5985 67.1818 38.3013C67.1402 38.0042 67.1964 37.7016 67.3421 37.4393C67.9685 36.3091 68.4651 35.1116 68.8222 33.8697C68.905 33.5813 69.0794 33.3277 69.3191 33.1472C69.5588 32.9667 69.8508 32.8692 70.1509 32.8694H74.6247C74.8418 32.8664 75.0491 32.7788 75.2026 32.6252C75.356 32.4716 75.4434 32.2642 75.4461 32.0471V26.2138C75.4436 25.9968 75.3565 25.7893 75.2034 25.6356C75.0502 25.4819 74.8431 25.394 74.6261 25.3907H70.1511C69.8511 25.3908 69.5592 25.2933 69.3196 25.1128C69.0799 24.9323 68.9056 24.6787 68.8228 24.3903C68.4658 23.1485 67.9693 21.9512 67.3427 20.8212C67.197 20.5587 67.1407 20.256 67.1825 19.9587C67.2242 19.6614 67.3617 19.3858 67.574 19.1737L70.7393 16.0084C70.8911 15.8528 70.976 15.6441 70.976 15.4268C70.976 15.2095 70.8911 15.0008 70.7393 14.8453L66.6141 10.7218C66.4592 10.5692 66.2505 10.4836 66.0331 10.4836C65.8157 10.4836 65.607 10.5692 65.4522 10.7218L62.2861 13.8875C62.0736 14.0997 61.798 14.2369 61.5006 14.2786C61.2033 14.3203 60.9005 14.2642 60.6379 14.1187C59.5086 13.4912 58.3113 12.9945 57.0694 12.6383C56.7811 12.5554 56.5276 12.3811 56.3471 12.1415C56.1666 11.9019 56.0689 11.6101 56.0688 11.3101V6.83584C56.0662 6.61882 55.979 6.4114 55.8257 6.25775C55.6724 6.10409 55.4652 6.01634 55.2482 6.01318H49.4136C49.1963 6.01571 48.9885 6.10313 48.8347 6.25676C48.6809 6.4104 48.5933 6.61807 48.5906 6.83543V11.3103C48.591 11.61 48.4938 11.9018 48.3136 12.1414C48.1334 12.381 47.8801 12.5553 47.592 12.6381C46.3496 12.9949 45.1518 13.4915 44.0215 14.1185C43.7589 14.2639 43.4561 14.32 43.1588 14.2782C42.8615 14.2364 42.5859 14.0991 42.3735 13.8869L39.2097 10.7218C39.0544 10.5692 38.8453 10.4837 38.6276 10.4837C38.4099 10.4837 38.2008 10.5692 38.0455 10.7218L33.9221 14.8469C33.7689 15.0016 33.683 15.2105 33.683 15.4282C33.683 15.6459 33.7689 15.8549 33.9221 16.0096L37.088 19.1751C37.2997 19.3876 37.4366 19.6631 37.4782 19.9601C37.5199 20.2571 37.464 20.5597 37.319 20.8222C36.6919 21.9519 36.1953 23.1492 35.8386 24.3911C35.7554 24.6792 35.5809 24.9324 35.3414 25.1127C35.1018 25.293 34.8102 25.3905 34.5104 25.3907H30.0357C29.8185 25.3935 29.611 25.4812 29.4574 25.6348C29.3039 25.7885 29.2165 25.9961 29.2139 26.2134Z" fill="#00ABEA"/>
<path fill-rule="evenodd" clip-rule="evenodd" d="M40.9232 89.4644H19.926C19.4545 89.4647 19.0025 89.6522 18.6692 89.9857C18.3359 90.3191 18.1486 90.7713 18.1484 91.2427V96.2085C18.1487 96.68 18.336 97.1321 18.6693 97.4656C19.0025 97.7992 19.4545 97.9868 19.926 97.9875H40.9228C41.3945 97.9871 41.8469 97.7997 42.1806 97.4663C42.5144 97.133 42.7023 96.6808 42.7032 96.2091V91.2437C42.7023 90.7721 42.5145 90.32 42.1808 89.9866C41.8471 89.6533 41.3949 89.4658 40.9232 89.4654V89.4644ZM36.3919 95.121C36.0256 95.121 35.6742 94.9755 35.4152 94.7164C35.1562 94.4574 35.0107 94.1061 35.0107 93.7397C35.0107 93.3734 35.1562 93.0221 35.4152 92.763C35.6742 92.504 36.0256 92.3585 36.3919 92.3585H39.4538C39.8201 92.3585 40.1715 92.504 40.4305 92.763C40.6895 93.0221 40.8351 93.3734 40.8351 93.7397C40.8351 94.1061 40.6895 94.4574 40.4305 94.7164C40.1715 94.9755 39.8201 95.121 39.4538 95.121H36.3919Z" fill="#00ABEA"/>
<path fill-rule="evenodd" clip-rule="evenodd" d="M61.2959 91.2439V96.2097C61.2969 96.6814 61.4848 97.1335 61.8186 97.4668C62.1523 97.8001 62.6046 97.9875 63.0763 97.9879H84.0731C84.5447 97.9875 84.9968 97.8 85.3303 97.4666C85.6638 97.1332 85.8513 96.6811 85.8519 96.2095V91.2439C85.8513 90.7724 85.6638 90.3203 85.3303 89.9869C84.9968 89.6535 84.5447 89.466 84.0731 89.4656H63.0757C62.604 89.4659 62.1517 89.6533 61.818 89.9867C61.4844 90.3201 61.2966 90.7723 61.2959 91.2439ZM68.9893 93.7407C68.9887 94.1069 68.843 94.4579 68.584 94.7168C68.3251 94.9757 67.9742 95.1214 67.608 95.122H64.5467C64.1804 95.122 63.8291 94.9765 63.57 94.7174C63.311 94.4584 63.1655 94.1071 63.1655 93.7407C63.1655 93.3744 63.311 93.0231 63.57 92.7641C63.8291 92.505 64.1804 92.3595 64.5467 92.3595H67.6078C67.9739 92.3598 68.3249 92.5052 68.5839 92.764C68.8429 93.0227 68.9887 93.3736 68.9893 93.7397V93.7407Z" fill="#00ABEA"/>
</svg>
