<svg xmlns="http://www.w3.org/2000/svg" width="64" height="64" viewBox="0 0 64 64" fill="none">
  <path fill-rule="evenodd" clip-rule="evenodd" d="M23.6525 15.1902C23.9773 15.1903 24.2947 15.2866 24.5647 15.4671C24.8347 15.6475 25.0452 15.904 25.1694 16.2041C25.2937 16.5041 25.3262 16.8343 25.2628 17.1528C25.1994 17.4713 25.043 17.7639 24.8134 17.9935C24.5837 18.2232 24.2911 18.3795 23.9726 18.4429C23.6541 18.5063 23.3239 18.4737 23.0239 18.3495C22.7238 18.2252 22.4674 18.0147 22.2869 17.7447C22.1065 17.4747 22.0101 17.1572 22.0101 16.8325C22.0107 16.3971 22.184 15.9797 22.4918 15.6718C22.7997 15.364 23.2171 15.1908 23.6525 15.1902ZM31.6601 19.3527C31.9851 19.3526 32.3027 19.4489 32.5729 19.6294C32.8431 19.8099 33.0538 20.0665 33.1781 20.3667C33.3025 20.6669 33.3351 20.9972 33.2717 21.3159C33.2083 21.6346 33.0518 21.9273 32.8221 22.1571C32.5923 22.3869 32.2995 22.5433 31.9808 22.6067C31.6621 22.67 31.3318 22.6374 31.0316 22.513C30.7314 22.3886 30.4748 22.178 30.2944 21.9078C30.1139 21.6376 30.0177 21.3199 30.0177 20.995C30.0183 20.5596 30.1916 20.1422 30.4995 19.8343C30.8073 19.5265 31.2247 19.3533 31.6601 19.3527ZM40.05 11.221C40.3748 11.221 40.6923 11.3173 40.9624 11.4977C41.2324 11.6782 41.4429 11.9347 41.5672 12.2348C41.6914 12.5349 41.7239 12.8651 41.6605 13.1836C41.5971 13.5022 41.4407 13.7948 41.211 14.0244C40.9813 14.254 40.6886 14.4104 40.3701 14.4737C40.0515 14.537 39.7213 14.5044 39.4212 14.3801C39.1212 14.2557 38.8648 14.0451 38.6844 13.775C38.504 13.5049 38.4078 13.1874 38.4079 12.8626C38.4084 12.4273 38.5816 12.01 38.8895 11.7022C39.1973 11.3945 39.6147 11.2214 40.05 11.221ZM23.6525 20.1751C24.1118 20.1752 24.5662 20.0804 24.9872 19.8967C25.4082 19.7131 25.7867 19.4444 26.099 19.1076L28.3948 20.2826C28.2756 20.825 28.2933 21.3885 28.4465 21.9223C28.5997 22.456 28.8834 22.9433 29.272 23.3399C29.6607 23.7366 30.142 24.0302 30.6726 24.1942C31.2031 24.3582 31.7662 24.3874 32.3109 24.2793C32.8556 24.1712 33.3647 23.9291 33.7924 23.5749C34.2201 23.2206 34.5528 22.7655 34.7605 22.2504C34.9682 21.7354 35.0443 21.1768 34.982 20.625C34.9196 20.0731 34.7208 19.5456 34.4035 19.0898L37.9274 15.4436C38.5533 15.9575 39.3448 16.2264 40.1543 16.2001C40.9638 16.1737 41.7361 15.854 42.3273 15.3004C42.9186 14.7469 43.2884 13.9972 43.3679 13.1912C43.4474 12.3852 43.2311 11.5778 42.7594 10.9194C42.2877 10.261 41.5928 9.79655 40.804 9.61259C40.0153 9.42862 39.1865 9.53768 38.4722 9.91945C37.7579 10.3012 37.2068 10.9297 36.9215 11.6877C36.6362 12.4457 36.6362 13.2816 36.9215 14.0396C36.9174 14.0432 36.913 14.0468 36.909 14.0506L33.1077 17.9833C32.4551 17.6691 31.7179 17.5759 31.0075 17.7177C30.2972 17.8594 29.6523 18.2285 29.1702 18.7692L26.9039 17.6092C27.0652 16.9337 27.0122 16.2248 26.7521 15.5808C26.492 14.9369 26.0378 14.3899 25.4526 14.016C24.8674 13.642 24.1802 13.4597 23.4866 13.4942C22.793 13.5288 22.1274 13.7785 21.5822 14.2087C21.037 14.6389 20.6394 15.2283 20.4446 15.8949C20.2497 16.5615 20.2674 17.2722 20.4951 17.9283C20.7227 18.5844 21.1491 19.1533 21.715 19.556C22.2808 19.9586 22.958 20.175 23.6525 20.1751ZM41.99 34.8085H39.0531V21.1575L40.5215 20.0303L41.9899 21.1575V34.8082L41.99 34.8085ZM41.039 18.2851L43.3575 20.0632C43.4609 20.1425 43.5447 20.2446 43.6024 20.3614C43.6601 20.4783 43.6902 20.6069 43.6903 20.7372V35.6585C43.6903 35.8839 43.6007 36.1001 43.4413 36.2595C43.2819 36.4189 43.0657 36.5085 42.8402 36.5085H38.2028C37.9773 36.5085 37.7611 36.4189 37.6017 36.2595C37.4423 36.1001 37.3527 35.8839 37.3527 35.6585V20.7376C37.3528 20.6072 37.3829 20.4786 37.4406 20.3617C37.4983 20.2448 37.5822 20.1428 37.6856 20.0635L40.0041 18.2853C40.1525 18.1713 40.3345 18.1094 40.5216 18.1094C40.7088 18.1094 40.8907 18.1713 41.0391 18.2853L41.039 18.2851ZM25.3625 34.8082H22.425V24.9057L23.8934 23.7798L25.3616 24.9057V34.8082H25.3625ZM26.7302 23.8113C26.8337 23.8909 26.9174 23.9931 26.9751 24.1101C27.0328 24.2271 27.0629 24.3559 27.063 24.4863V35.6582C27.063 35.8836 26.9734 36.0998 26.814 36.2592C26.6546 36.4187 26.4384 36.5082 26.213 36.5082H21.575C21.4634 36.5082 21.3528 36.4862 21.2497 36.4435C21.1466 36.4008 21.0529 36.3382 20.974 36.2592C20.895 36.1803 20.8324 36.0866 20.7897 35.9835C20.747 35.8804 20.725 35.7698 20.725 35.6582V24.4867C20.7251 24.3562 20.7551 24.2275 20.8128 24.1105C20.8705 23.9934 20.9543 23.8912 21.0578 23.8117L23.3764 22.0336C23.5247 21.9196 23.7066 21.8578 23.8937 21.8578C24.0809 21.8578 24.2628 21.9196 24.4111 22.0336L26.7297 23.8117L26.7302 23.8113ZM33.6764 34.8082H30.7393V28.0491L32.2075 26.9231L33.676 28.0491V34.8082H33.6764ZM35.044 26.956L32.725 25.1765C32.5763 25.063 32.3945 25.0016 32.2075 25.0016C32.0205 25.0016 31.8387 25.063 31.69 25.1765L29.3715 26.9558C29.2679 27.035 29.184 27.1371 29.1263 27.254C29.0686 27.3709 29.0386 27.4996 29.0387 27.63V35.6583C29.0387 35.8838 29.1283 36.1 29.2877 36.2594C29.4471 36.4188 29.6633 36.5083 29.8888 36.5083H34.5262C34.7517 36.5083 34.9679 36.4188 35.1273 36.2594C35.2867 36.1 35.3763 35.8838 35.3763 35.6583V27.63C35.3764 27.4996 35.3464 27.3709 35.2887 27.2541C35.231 27.1372 35.1471 27.0351 35.0435 26.956H35.044ZM56.9444 46.7015H7.05562C6.16605 46.7007 5.31313 46.347 4.68403 45.718C4.05492 45.0891 3.70103 44.2363 3.7 43.3467V41.9415H60.3V43.3467C60.2989 44.2362 59.945 45.0889 59.316 45.7178C58.687 46.3468 57.8342 46.7005 56.9448 46.7015H56.9444ZM39.2914 51.9606H24.708C25.3182 50.8771 25.6117 49.644 25.5549 48.4018H38.4453C38.3881 49.6439 38.6813 50.8771 39.2914 51.9606ZM43.846 55.4403C43.8455 55.9121 43.6579 56.3644 43.3243 56.698C42.9907 57.0316 42.5384 57.2192 42.0666 57.2197H22.0819C21.6101 57.2192 21.1578 57.0316 20.8241 56.698C20.4905 56.3644 20.3029 55.9121 20.3024 55.4403V53.6609H43.846V55.4403ZM7.05562 6.78045C6.16607 6.78125 5.31317 7.1349 4.68407 7.76382C4.05497 8.39273 3.70106 9.24553 3.7 10.1351V40.241H60.3V10.1351C60.2989 9.24562 59.9451 8.39289 59.3161 7.76399C58.6871 7.13509 57.8343 6.78138 56.9449 6.78045H7.05562ZM56.9444 5.08045H7.05562C5.7154 5.08188 4.43046 5.61484 3.48268 6.56243C2.53491 7.51002 2.00169 8.79485 2 10.1351V43.3467C2.00159 44.687 2.53476 45.972 3.48254 46.9196C4.43033 47.8673 5.71532 48.4004 7.05562 48.4018H23.8544C23.9287 49.6991 23.4974 50.9746 22.6511 51.9606H19.9405C19.5855 51.9612 19.2453 52.1026 18.9944 52.3537C18.7435 52.6048 18.6025 52.9451 18.6021 53.3001V55.4402C18.6031 56.3628 18.97 57.2473 19.6223 57.8997C20.2747 58.552 21.1592 58.919 22.0818 58.92H42.0666C42.9892 58.919 43.8737 58.552 44.5261 57.8997C45.1784 57.2473 45.5454 56.3628 45.5464 55.4402V53.3001C45.5461 52.9451 45.405 52.6047 45.1541 52.3535C44.9032 52.1024 44.5629 51.9611 44.2079 51.9605H41.3483C40.5023 50.9743 40.0713 49.6988 40.1457 48.4017H56.9444C58.2847 48.4002 59.5696 47.8672 60.5174 46.9196C61.4652 45.9719 61.9984 44.687 62 43.3467V10.1351C61.9984 8.79479 61.4652 7.50986 60.5174 6.56219C59.5697 5.61452 58.2847 5.0815 56.9444 5.08008V5.08045Z" fill="#231F20"/>
  <path fill-rule="evenodd" clip-rule="evenodd" d="M25.3624 24.9057L23.8942 23.7798L22.4258 24.9057V34.8082H25.3624V24.9057Z" fill="#00ABEA"/>
  <path fill-rule="evenodd" clip-rule="evenodd" d="M39.0508 21.1574V34.8081H41.9875V21.1574L40.5192 20.0303L39.0508 21.1574Z" fill="#00ABEA"/>
  <path fill-rule="evenodd" clip-rule="evenodd" d="M60.2992 41.9414H3.69922V43.3467C3.70024 44.2361 4.05407 45.0889 4.68307 45.7178C5.31206 46.3467 6.16486 46.7005 7.05434 46.7014H56.9431C57.8327 46.7007 58.6857 46.347 59.3149 45.7181C59.9441 45.0892 60.2981 44.2363 60.2992 43.3467V41.9414Z" fill="#00ABEA"/>
  <path fill-rule="evenodd" clip-rule="evenodd" d="M43.8443 53.6609H20.3008V55.4403C20.3013 55.9121 20.4889 56.3644 20.8225 56.698C21.1562 57.0316 21.6085 57.2192 22.0803 57.2196H42.0649C42.5367 57.2191 42.989 57.0315 43.3226 56.6979C43.6562 56.3643 43.8438 55.912 43.8443 55.4403V53.6609Z" fill="#00ABEA"/>
</svg>