<svg width="104" height="104" viewBox="0 0 104 104" fill="none" xmlns="http://www.w3.org/2000/svg">
<path fill-rule="evenodd" clip-rule="evenodd" d="M38.4353 24.6838C38.9631 24.6839 39.4789 24.8405 39.9177 25.1337C40.3565 25.427 40.6984 25.8438 40.9003 26.3313C41.1022 26.8189 41.155 27.3555 41.0521 27.8731C40.9491 28.3906 40.6949 28.8661 40.3217 29.2392C39.9485 29.6124 39.4731 29.8665 38.9555 29.9695C38.4379 30.0724 37.9014 30.0196 37.4138 29.8176C36.9262 29.6157 36.5095 29.2737 36.2162 28.8349C35.923 28.3961 35.7665 27.8802 35.7665 27.3525C35.7674 26.645 36.0489 25.9667 36.5492 25.4665C37.0495 24.9662 37.7278 24.6847 38.4353 24.6838ZM51.4477 31.4479C51.9757 31.4478 52.4919 31.6043 52.931 31.8975C53.3701 32.1908 53.7124 32.6077 53.9145 33.0956C54.1166 33.5834 54.1695 34.1202 54.0665 34.6381C53.9635 35.156 53.7092 35.6317 53.3358 36.005C52.9625 36.3784 52.4867 36.6326 51.9688 36.7356C51.4509 36.8386 50.9141 36.7856 50.4263 36.5835C49.9385 36.3813 49.5216 36.039 49.2284 35.5999C48.9351 35.1608 48.7787 34.6446 48.7788 34.1166C48.7798 33.409 49.0613 32.7308 49.5616 32.2305C50.0619 31.7303 50.7402 31.4488 51.4477 31.4479ZM65.0812 18.2338C65.6091 18.2338 66.125 18.3903 66.5638 18.6836C67.0027 18.9768 67.3447 19.3936 67.5467 19.8813C67.7486 20.3689 67.8014 20.9055 67.6984 21.4231C67.5953 21.9408 67.3411 22.4163 66.9678 22.7894C66.5946 23.1626 66.119 23.4167 65.6013 23.5195C65.0837 23.6224 64.5471 23.5694 64.0595 23.3674C63.5719 23.1653 63.1552 22.8231 62.8621 22.3842C62.569 21.9452 62.4126 21.4292 62.4128 20.9014C62.4137 20.1941 62.6952 19.516 63.1954 19.0159C63.6957 18.5158 64.3739 18.2345 65.0812 18.2338ZM38.4353 32.7843C39.1817 32.7844 39.9201 32.6305 40.6042 32.332C41.2883 32.0335 41.9034 31.5969 42.4109 31.0496L46.1415 32.9589C45.9478 33.8403 45.9767 34.756 46.2256 35.6234C46.4745 36.4908 46.9355 37.2826 47.5671 37.9271C48.1986 38.5717 48.9808 39.0488 49.8429 39.3153C50.7051 39.5818 51.62 39.6293 52.5052 39.4536C53.3903 39.2779 54.2177 38.8845 54.9127 38.3089C55.6077 37.7333 56.1483 36.9936 56.4858 36.1567C56.8233 35.3198 56.947 34.412 56.8457 33.5153C56.7444 32.6186 56.4213 31.7613 55.9057 31.0207L61.632 25.0956C62.6492 25.9308 63.9353 26.3677 65.2507 26.3249C66.5662 26.2821 67.8212 25.7625 68.7819 24.863C69.7427 23.9634 70.3436 22.7453 70.4728 21.4355C70.602 20.1257 70.2506 18.8137 69.4841 17.7438C68.7176 16.6739 67.5882 15.9192 66.3065 15.6202C65.0248 15.3213 63.6781 15.4985 62.5173 16.1189C61.3566 16.7392 60.461 17.7605 59.9974 18.9922C59.5338 20.224 59.5338 21.5823 59.9974 22.8141C59.9907 22.82 59.9836 22.8259 59.9771 22.8319L53.8001 29.2227C52.7395 28.7121 51.5416 28.5606 50.3873 28.7909C49.233 29.0213 48.185 29.6211 47.4017 30.4997L43.7188 28.6147C43.981 27.5171 43.8948 26.365 43.4722 25.3186C43.0495 24.2722 42.3115 23.3834 41.3605 22.7757C40.4095 22.1681 39.2929 21.8717 38.1658 21.9279C37.0386 21.984 35.957 22.3898 35.0711 23.0889C34.1852 23.788 33.539 24.7457 33.2224 25.829C32.9058 26.9122 32.9345 28.0671 33.3045 29.1333C33.6744 30.1995 34.3673 31.1239 35.2868 31.7782C36.2063 32.4325 37.3068 32.7841 38.4353 32.7843ZM68.2337 56.5635H63.4613V34.3806L65.8474 32.549L68.2336 34.3806V56.5631L68.2337 56.5635ZM66.6884 29.713L70.4559 32.6025C70.624 32.7313 70.7602 32.8972 70.8539 33.0871C70.9477 33.277 70.9965 33.4859 70.9967 33.6977V57.9447C70.9967 58.3111 70.8511 58.6624 70.5921 58.9214C70.3331 59.1805 69.9817 59.326 69.6154 59.326H62.0795C61.7131 59.326 61.3618 59.1805 61.1028 58.9214C60.8437 58.6624 60.6982 58.3111 60.6982 57.9447V33.6983C60.6983 33.4865 60.7472 33.2775 60.841 33.0875C60.9348 32.8976 61.071 32.7318 61.2391 32.6029L65.0067 29.7134C65.2479 29.5281 65.5435 29.4276 65.8476 29.4276C66.1518 29.4276 66.4474 29.5281 66.6886 29.7134L66.6884 29.713ZM41.2141 56.5631H36.4406V40.4715L38.8267 38.642L41.2126 40.4715V56.5631H41.2141ZM43.4367 38.6932C43.6047 38.8224 43.7409 38.9885 43.8346 39.1787C43.9283 39.3689 43.9772 39.578 43.9774 39.79V57.9443C43.9774 58.3107 43.8319 58.662 43.5728 58.921C43.3138 59.1801 42.9625 59.3256 42.5961 59.3256H35.0594C34.878 59.3256 34.6984 59.2899 34.5308 59.2204C34.3632 59.151 34.2109 59.0493 34.0827 58.921C33.9544 58.7928 33.8527 58.6405 33.7833 58.4729C33.7139 58.3053 33.6781 58.1257 33.6781 57.9443V39.7906C33.6782 39.5786 33.7271 39.3694 33.8208 39.1793C33.9146 38.9891 34.0507 38.823 34.2188 38.6938L37.9866 35.8043C38.2277 35.619 38.5233 35.5186 38.8273 35.5186C39.1314 35.5186 39.427 35.619 39.6681 35.8043L43.4358 38.6938L43.4367 38.6932ZM54.7241 56.5631H49.9513V45.5795L52.3372 43.7498L54.7235 45.5795V56.5631H54.7241ZM56.9465 43.8032L53.1781 40.9115C52.9365 40.7272 52.6411 40.6273 52.3372 40.6273C52.0333 40.6273 51.7378 40.7272 51.4963 40.9115L47.7287 43.803C47.5604 43.9317 47.424 44.0975 47.3302 44.2875C47.2365 44.4775 47.1878 44.6865 47.188 44.8984V57.9445C47.188 58.3109 47.3335 58.6622 47.5925 58.9212C47.8516 59.1803 48.2029 59.3258 48.5692 59.3258H56.1052C56.4715 59.3258 56.8228 59.1803 57.0819 58.9212C57.3409 58.6622 57.4864 58.3109 57.4864 57.9445V44.8984C57.4866 44.6866 57.4379 44.4775 57.3441 44.2876C57.2503 44.0976 57.114 43.9319 56.9457 43.8032H56.9465ZM92.5346 75.8896H11.4654C10.0198 75.8883 8.63384 75.3136 7.61154 74.2916C6.58925 73.2696 6.01417 71.8837 6.0125 70.4381V68.1546H97.9875V70.4381C97.9857 71.8836 97.4107 73.2693 96.3885 74.2912C95.3664 75.3132 93.9806 75.8881 92.5352 75.8896H92.5346ZM63.8485 84.4357H40.1505C41.1421 82.6751 41.6189 80.6712 41.5267 78.6527H62.4735C62.3807 80.6711 62.8572 82.675 63.8485 84.4357ZM71.2497 90.0903C71.2489 90.8569 70.944 91.5919 70.402 92.134C69.8599 92.6761 69.1249 92.981 68.3583 92.9818H35.883C35.1164 92.981 34.3813 92.6761 33.8392 92.134C33.2971 91.592 32.9922 90.8569 32.9914 90.0903V87.1988H71.2497V90.0903ZM11.4654 11.018C10.0199 11.0193 8.6339 11.594 7.61161 12.616C6.58932 13.6379 6.01422 15.0237 6.0125 16.4693V65.3913H97.9875V16.4693C97.9858 15.0239 97.4108 13.6382 96.3887 12.6162C95.3666 11.5943 93.9808 11.0195 92.5354 11.018H11.4654ZM92.5346 8.25549H11.4654C9.28752 8.2578 7.1995 9.12387 5.65936 10.6637C4.11922 12.2035 3.25274 14.2914 3.25 16.4693V70.4381C3.25258 72.6161 4.11898 74.7042 5.65913 76.2442C7.19928 77.7842 9.2874 78.6504 11.4654 78.6527H38.7634C38.8841 80.7607 38.1833 82.8335 36.8081 84.4357H32.4033C31.8265 84.4367 31.2736 84.6664 30.8659 85.0745C30.4582 85.4825 30.229 86.0356 30.2285 86.6124V90.0901C30.23 91.5893 30.8262 93.0266 31.8863 94.0867C32.9464 95.1468 34.3837 95.7431 35.8828 95.7447H68.3583C69.8575 95.7431 71.2948 95.1468 72.3549 94.0867C73.415 93.0266 74.0112 91.5893 74.0129 90.0901V86.6124C74.0124 86.0355 73.7831 85.4824 73.3754 85.0743C72.9676 84.6662 72.4147 84.4365 71.8378 84.4355H67.1909C65.8162 82.8331 65.1158 80.7603 65.2368 78.6525H92.5346C94.7126 78.6502 96.8007 77.784 98.3408 76.244C99.8809 74.7041 100.747 72.6161 100.75 70.4381V16.4693C100.747 14.2913 99.881 12.2033 98.3409 10.6633C96.8007 9.12335 94.7126 8.25719 92.5346 8.25488V8.25549Z" fill="#231F20"/>
<path fill-rule="evenodd" clip-rule="evenodd" d="M41.2134 40.4716L38.8275 38.6421L36.4414 40.4716V56.5632H41.2134V40.4716Z" fill="#00ABEA"/>
<path fill-rule="evenodd" clip-rule="evenodd" d="M63.4609 34.3807V56.5631H68.2332V34.3807L65.847 32.5491L63.4609 34.3807Z" fill="#00ABEA"/>
<path fill-rule="evenodd" clip-rule="evenodd" d="M97.9867 68.1545H6.01172V70.4381C6.01339 71.8835 6.58835 73.2692 7.61047 74.2912C8.63259 75.3132 10.0184 75.888 11.4638 75.8895H92.533C93.9787 75.8884 95.3648 75.3137 96.3873 74.2917C97.4097 73.2696 97.9849 71.8837 97.9867 70.4381V68.1545Z" fill="#00ABEA"/>
<path fill-rule="evenodd" clip-rule="evenodd" d="M71.2504 87.1987H32.9922V90.0902C32.993 90.8569 33.2979 91.5919 33.84 92.134C34.3822 92.6761 35.1172 92.9809 35.8839 92.9817H68.3589C69.1255 92.9809 69.8605 92.676 70.4026 92.1339C70.9447 91.5918 71.2496 90.8568 71.2504 90.0902V87.1987Z" fill="#00ABEA"/>
</svg>
