<svg width="104" height="104" viewBox="0 0 104 104" fill="none" xmlns="http://www.w3.org/2000/svg">
<path fill-rule="evenodd" clip-rule="evenodd" d="M97.9875 89.2591C97.988 89.2894 97.981 89.3192 97.9672 89.3461H82.4302C82.4183 89.3186 82.4123 89.289 82.4125 89.2591V68.1467C82.4123 68.1169 82.4183 68.0874 82.4302 68.06H92.1598L97.9875 74.4525V89.2591ZM100.389 72.9862L93.7934 65.7468C93.6635 65.605 93.5055 65.4918 93.3295 65.4143C93.1535 65.3368 92.9633 65.2968 92.771 65.2967H82.369C80.8691 65.2967 79.6494 66.5764 79.6494 68.1467V89.2591C79.6494 90.8303 80.8681 92.1092 82.369 92.1092H98.03C99.5298 92.1092 100.75 90.8295 100.75 89.2591V73.9171C100.75 73.5724 100.621 73.2402 100.388 72.9856L100.389 72.9862ZM59.7876 89.2591C59.7882 89.2892 59.7817 89.319 59.7687 89.3461H44.2313C44.2183 89.319 44.2118 89.2892 44.2124 89.2591V68.1467C44.2117 68.1168 44.2181 68.087 44.2311 68.06H53.9608L59.7866 74.4525V89.2591H59.7876ZM55.5929 65.7468C55.4633 65.605 55.3055 65.4917 55.1297 65.4142C54.9539 65.3367 54.7639 65.2967 54.5718 65.2967H44.1693C42.6697 65.2967 41.4493 66.5764 41.4493 68.1467V89.2591C41.4493 90.8303 42.6697 92.1092 44.1693 92.1092H59.8303C61.3291 92.1092 62.5507 90.8295 62.5507 89.2591V73.9171C62.5506 73.5724 62.4218 73.2402 62.1896 72.9856L55.5923 65.7462L55.5929 65.7468ZM21.5881 89.2591C21.5888 89.2892 21.5823 89.319 21.5692 89.3461H6.03281C6.01953 89.3191 6.01298 89.2892 6.01372 89.2591V68.1467C6.013 68.1167 6.01948 68.087 6.03261 68.06H15.7625L21.5883 74.4525L21.5881 89.2591ZM17.3938 65.7468C17.2641 65.605 17.1063 65.4918 16.9305 65.4143C16.7547 65.3368 16.5646 65.2968 16.3725 65.2967H5.97005C4.46997 65.2967 3.25 66.5764 3.25 68.1467V89.2591C3.25 90.8303 4.46997 92.1092 5.96984 92.1092H21.6308C23.1305 92.1092 24.3504 90.8295 24.3504 89.2591V73.9171C24.3503 73.5726 24.2218 73.2405 23.9901 72.9856L17.393 65.7462L17.3938 65.7468ZM10.5828 59.2001V52.2191C10.5828 49.4322 12.7189 47.1645 15.3441 47.1645H49.112V37.0652C49.112 36.6988 49.2575 36.3475 49.5165 36.0885C49.7756 35.8294 50.1269 35.6839 50.4932 35.6839C50.8596 35.6839 51.2109 35.8294 51.4699 36.0885C51.7289 36.3475 51.8745 36.6988 51.8745 37.0652V47.1643H85.6416C88.2686 47.1643 90.404 49.4322 90.404 52.2191V59.2001C90.404 59.5664 90.2585 59.9178 89.9995 60.1768C89.7404 60.4358 89.3891 60.5813 89.0228 60.5813C88.6564 60.5813 88.3051 60.4358 88.0461 60.1768C87.7871 59.9178 87.6415 59.5664 87.6415 59.2001V52.2191C87.6415 50.9559 86.7455 49.9276 85.6424 49.9276H51.8751V59.2001C51.8751 59.5664 51.7296 59.9178 51.4705 60.1768C51.2115 60.4358 50.8602 60.5813 50.4938 60.5813C50.1275 60.5813 49.7762 60.4358 49.5171 60.1768C49.2581 59.9178 49.1126 59.5664 49.1126 59.2001V49.928H15.3449C14.2431 49.928 13.3465 50.9563 13.3465 52.2195V59.2005C13.3465 59.5668 13.201 59.9182 12.942 60.1772C12.6829 60.4362 12.3316 60.5817 11.9653 60.5817C11.599 60.5817 11.2476 60.4362 10.9886 60.1772C10.7296 59.9182 10.584 59.5668 10.584 59.2005L10.5828 59.2001ZM50.2125 18.9882C50.8008 18.9882 51.3758 19.1627 51.865 19.4895C52.3541 19.8163 52.7353 20.2809 52.9604 20.8244C53.1856 21.3679 53.2445 21.9659 53.1297 22.5429C53.0149 23.1198 52.7317 23.6498 52.3157 24.0658C51.8997 24.4818 51.3697 24.765 50.7928 24.8798C50.2158 24.9946 49.6178 24.9357 49.0743 24.7106C48.5308 24.4854 48.0662 24.1042 47.7394 23.6151C47.4126 23.1259 47.2381 22.5509 47.2381 21.9626C47.239 21.174 47.5526 20.418 48.1103 19.8604C48.6679 19.3028 49.4239 18.9891 50.2125 18.9882ZM50.2125 27.6999C51.3473 27.6998 52.4565 27.3633 53.4 26.7328C54.3435 26.1023 55.0789 25.2062 55.5131 24.1578C55.9473 23.1094 56.0609 21.9558 55.8395 20.8429C55.6181 19.7299 55.0716 18.7076 54.2692 17.9053C53.4667 17.1029 52.4444 16.5565 51.3314 16.3351C50.2185 16.1138 49.0648 16.2275 48.0165 16.6618C46.9681 17.096 46.0721 17.8315 45.4417 18.775C44.8112 19.7185 44.4748 20.8278 44.4748 21.9626C44.4766 23.4837 45.0817 24.9421 46.1573 26.0177C47.233 27.0932 48.6914 27.6982 50.2125 27.6999ZM50.7311 14.6578C44.3239 14.5359 38.1262 17.4388 33.9298 22.4678C38.0404 26.7054 44.4161 29.271 50.9271 29.271C51.0618 29.271 51.1956 29.271 51.3301 29.269C57.4992 29.1674 62.8609 26.865 66.5496 22.7599C62.6811 17.7112 56.9721 14.7744 50.7311 14.6578ZM50.9314 32.0342C51.0788 32.0342 51.2277 32.0342 51.375 32.0323C58.7716 31.9104 65.1672 28.9473 69.3838 23.6896C69.5703 23.4572 69.6766 23.1708 69.6869 22.8731C69.6972 22.5754 69.611 22.2823 69.4411 22.0376C65.0654 15.7315 58.265 12.0349 50.7825 11.8947C43.1259 11.7507 35.7321 15.4177 31.0133 21.702C30.8243 21.9535 30.7268 22.2619 30.737 22.5763C30.7471 22.8907 30.8642 23.1922 31.069 23.431C35.6383 28.7624 43.2144 32.0342 50.9318 32.0342H50.9314Z" fill="#231F20"/>
<path fill-rule="evenodd" clip-rule="evenodd" d="M55.9501 21.9625C55.9501 23.0973 55.6136 24.2066 54.9831 25.1502C54.3527 26.0937 53.4566 26.8291 52.4082 27.2634C51.3598 27.6977 50.2062 27.8114 49.0932 27.59C47.9802 27.3686 46.9578 26.8222 46.1554 26.0198C45.3529 25.2175 44.8065 24.1951 44.585 23.0822C44.3636 21.9692 44.4771 20.8155 44.9114 19.7671C45.3456 18.7187 46.0809 17.8226 47.0244 17.192C47.9679 16.5615 49.0772 16.225 50.212 16.2249C51.7332 16.2265 53.1917 16.8315 54.2674 17.9072C55.3431 18.9828 55.9482 20.4413 55.9499 21.9625H55.9501ZM33.9297 22.4677C38.0403 26.7053 44.416 29.271 50.927 29.271C51.0617 29.271 51.1955 29.271 51.33 29.269C57.4991 29.1674 62.8608 26.865 66.5495 22.7598C62.681 17.7111 56.972 14.7744 50.731 14.6578C44.3238 14.5355 38.126 17.4388 33.9297 22.4677Z" fill="#00ABEA"/>
<path fill-rule="evenodd" clip-rule="evenodd" d="M21.5879 74.4526L15.7623 68.0601H6.03262C6.01948 68.087 6.01301 68.1168 6.01373 68.1468V89.2592C6.01299 89.2893 6.01954 89.3191 6.03282 89.3461H21.5699C21.5829 89.3191 21.5894 89.2893 21.5887 89.2592L21.5879 74.4526Z" fill="#00ABEA"/>
<path fill-rule="evenodd" clip-rule="evenodd" d="M82.4121 68.1468V89.2592C82.4119 89.2891 82.418 89.3187 82.4298 89.3461H97.9668C97.9807 89.3193 97.9876 89.2894 97.9871 89.2592V74.4526L92.1609 68.0601H82.4312C82.4189 68.0873 82.4124 68.1169 82.4121 68.1468Z" fill="#00ABEA"/>
</svg>
