<svg width="104" height="104" viewBox="0 0 104 104" fill="none" xmlns="http://www.w3.org/2000/svg">
<path fill-rule="evenodd" clip-rule="evenodd" d="M68.6541 62.0116H34.4299C34.0636 62.0116 33.7123 62.1571 33.4532 62.4161C33.1942 62.6752 33.0487 63.0265 33.0487 63.3928C33.0487 63.7592 33.1942 64.1105 33.4532 64.3695C33.7123 64.6286 34.0636 64.7741 34.4299 64.7741H68.6541C69.0204 64.7741 69.3717 64.6286 69.6307 64.3695C69.8898 64.1105 70.0353 63.7592 70.0353 63.3928C70.0353 63.0265 69.8898 62.6752 69.6307 62.4161C69.3717 62.1571 69.0204 62.0116 68.6541 62.0116ZM68.6541 55.2561H34.6127C34.2464 55.2561 33.8951 55.4016 33.6361 55.6606C33.377 55.9197 33.2315 56.271 33.2315 56.6373C33.2315 57.0036 33.377 57.355 33.6361 57.614C33.8951 57.873 34.2464 58.0186 34.6127 58.0186H68.6541C69.0204 58.0186 69.3717 57.873 69.6307 57.614C69.8898 57.355 70.0353 57.0036 70.0353 56.6373C70.0353 56.271 69.8898 55.9197 69.6307 55.6606C69.3717 55.4016 69.0204 55.2561 68.6541 55.2561ZM48.6515 49.664H68.6541C69.0204 49.664 69.3717 49.5185 69.6307 49.2595C69.8898 49.0004 70.0353 48.6491 70.0353 48.2828C70.0353 47.9165 69.8898 47.5651 69.6307 47.3061C69.3717 47.0471 69.0204 46.9015 68.6541 46.9015H48.6515C48.2852 46.9015 47.9339 47.0471 47.6748 47.3061C47.4158 47.5651 47.2703 47.9165 47.2703 48.2828C47.2703 48.6491 47.4158 49.0004 47.6748 49.2595C47.9339 49.5185 48.2852 49.664 48.6515 49.664ZM48.6515 42.9063H59.1413C59.5076 42.9063 59.859 42.7607 60.118 42.5017C60.377 42.2427 60.5226 41.8913 60.5226 41.525C60.5226 41.1587 60.377 40.8074 60.118 40.5483C59.859 40.2893 59.5076 40.1438 59.1413 40.1438H48.6515C48.4701 40.1438 48.2905 40.1795 48.123 40.2489C47.9554 40.3183 47.8031 40.4201 47.6748 40.5483C47.5466 40.6766 47.4448 40.8289 47.3754 40.9964C47.306 41.164 47.2703 41.3436 47.2703 41.525C47.2703 41.7064 47.306 41.886 47.3754 42.0536C47.4448 42.2212 47.5466 42.3734 47.6748 42.5017C47.8031 42.63 47.9554 42.7317 48.123 42.8011C48.2905 42.8705 48.4701 42.9063 48.6515 42.9063ZM34.7434 47.7892H41.9372V40.5959H34.7434V47.7898V47.7892ZM31.9809 49.1704V39.2145C31.9812 38.8483 32.1269 38.4971 32.3858 38.2382C32.6448 37.9792 32.9959 37.8336 33.3621 37.8332H43.3189C43.6852 37.8332 44.0365 37.9787 44.2956 38.2378C44.5546 38.4968 44.7001 38.8481 44.7001 39.2145V49.1712C44.7001 49.5376 44.5546 49.8889 44.2956 50.1479C44.0365 50.407 43.6852 50.5525 43.3189 50.5525H33.3615C32.9952 50.5525 32.6438 50.407 32.3848 50.1479C32.1258 49.8889 31.9802 49.5376 31.9802 49.1712L31.9809 49.1704ZM90.7348 21.9196C90.5516 21.6021 90.2498 21.3704 89.8958 21.2754C89.5418 21.1804 89.1645 21.2299 88.847 21.4131C88.5295 21.5963 88.2978 21.8981 88.2028 22.2521C88.1078 22.6061 88.1574 22.9834 88.3405 23.3008L89.8172 25.8568C89.9054 26.0186 90.025 26.1612 90.1691 26.2761C90.3132 26.391 90.4789 26.4759 90.6563 26.5258C90.8337 26.5757 91.0193 26.5896 91.2022 26.5667C91.3851 26.5437 91.5615 26.4844 91.7211 26.3922C91.8807 26.3 92.0203 26.1769 92.1315 26.0299C92.2428 25.883 92.3235 25.7153 92.3689 25.5366C92.4143 25.358 92.4236 25.1721 92.396 24.9899C92.3685 24.8076 92.3048 24.6328 92.2086 24.4755L90.7348 21.9196ZM95.2238 24.3709C95.4439 24.7534 95.5033 25.2075 95.3891 25.6337C95.2749 26.0599 94.9963 26.4234 94.6144 26.6445L90.4701 29.0365C90.0877 29.2568 89.6335 29.3164 89.2072 29.2022C88.7809 29.0879 88.4174 28.8092 88.1965 28.4271L78.0776 10.9015C77.8587 10.5187 77.8 10.0648 77.9143 9.63891C78.0286 9.21299 78.3068 8.84957 78.688 8.62791L82.8302 6.23591C83.0803 6.09116 83.3642 6.01487 83.6532 6.0147C83.8019 6.01497 83.95 6.03401 84.094 6.07138C84.3052 6.12704 84.5033 6.22407 84.6768 6.35685C84.8503 6.48962 84.9957 6.6555 85.1045 6.84488L95.2232 24.3709H95.2238ZM84.3016 27.2049L76.9003 14.3863L76.2127 14.8303C75.4862 15.3 75.0184 15.458 74.1598 15.158C74.0635 15.1224 73.9507 15.085 73.7968 15.0416L58.9065 10.9502C58.8764 10.9423 58.8466 10.9324 58.8169 10.9226C56.2575 10.0289 54.0029 10.23 51.9269 11.5383C51.9196 11.5421 51.9111 11.5482 51.9032 11.5521L28.9271 25.4068C28.8832 25.4343 28.8375 25.4587 28.7904 25.48C27.0435 26.2831 26.0451 27.3806 25.982 28.5748C25.9332 29.5614 26.5347 30.5502 27.557 31.1545C28.2557 31.567 30.1521 32.3564 32.6804 30.7856C32.7044 30.7736 32.7259 30.7598 32.7495 30.748L48.1285 22.3679C51.0941 20.1613 56.796 20.5562 66.0543 23.6055C66.2266 23.6623 66.3861 23.7524 66.5236 23.8708C66.6611 23.9892 66.774 24.1335 66.8557 24.2955C66.9374 24.4575 66.9865 24.634 67 24.8149C67.0135 24.9959 66.9913 25.1777 66.9345 25.3501C66.8778 25.5224 66.7876 25.6819 66.6692 25.8194C66.5508 25.9569 66.4065 26.0698 66.2445 26.1515C66.0825 26.2332 65.906 26.2823 65.7251 26.2958C65.5441 26.3093 65.3623 26.2871 65.19 26.2303C60.525 24.6929 57.2147 24.0163 54.868 23.8166C53.2005 24.7006 52.2667 25.6305 52.2312 26.4456C52.1942 27.3597 53.2318 28.5435 55.0849 29.692C60.5916 33.1104 71.0398 34.9972 74.4021 33.1857L84.3004 27.2055L84.3016 27.2049ZM76.4437 72.8449C75.7474 72.4323 73.8502 71.643 71.3201 73.2139C71.2971 73.2259 71.2746 73.2397 71.2508 73.2515L55.8728 81.6314C52.9084 83.838 47.2043 83.4433 37.946 80.394C37.5979 80.2794 37.3096 80.0311 37.1446 79.7039C36.9795 79.3767 36.9511 78.9974 37.0658 78.6493C37.1804 78.3012 37.4287 78.0129 37.7559 77.8478C38.0831 77.6827 38.4624 77.6544 38.8105 77.769C43.4765 79.3065 46.7858 79.9831 49.1325 80.183C50.8008 79.2985 51.7337 78.369 51.7693 77.5539C51.8071 76.6398 50.7669 75.456 48.9154 74.3074C43.4107 70.889 32.9607 69.0023 29.5982 70.8136L19.7007 76.7936L27.1016 89.6124L27.789 89.1684C28.5127 88.6986 28.9823 88.5407 29.8405 88.8408C29.938 88.8763 30.0497 88.9137 30.2037 88.9571L45.094 93.0489C45.1243 93.0568 45.1531 93.0668 45.1828 93.0765C47.7407 93.9703 49.9968 93.7692 52.0746 92.4606C52.0809 92.4568 52.0884 92.4509 52.0963 92.4468L75.0752 78.5921C75.1187 78.5646 75.164 78.5402 75.2109 78.5192C76.9598 77.7178 77.956 76.6185 78.0193 75.4243C78.0691 74.4376 77.4666 73.4487 76.4445 72.8447L76.4437 72.8449ZM25.9235 93.0983C26.1422 93.481 26.2009 93.9347 26.0867 94.3605C25.9726 94.7863 25.6949 95.1498 25.3141 95.3718L21.1703 97.7638C20.7878 97.9831 20.3341 98.0421 19.9082 97.9279C19.4823 97.8138 19.1189 97.5357 18.8974 97.1545L8.77789 79.6282C8.55753 79.2458 8.49794 78.7916 8.61219 78.3654C8.72644 77.9391 9.00521 77.5756 9.38726 77.3546L13.531 74.9626C13.9134 74.7422 14.3677 74.6826 14.794 74.7968C15.2203 74.9111 15.5839 75.1899 15.8048 75.572L25.9241 93.0978L25.9235 93.0983ZM28.167 68.4496V34.3177C28.659 34.4255 29.1612 34.48 29.6648 34.4802C31.2385 34.4577 32.7751 33.9993 34.1039 33.1559L49.5414 24.7443C49.6079 24.7091 49.6712 24.6683 49.7307 24.6224C49.8317 24.5449 49.9378 24.4743 50.0484 24.4113C49.7026 24.9942 49.5042 25.6527 49.4703 26.3296C49.3854 28.3526 50.7833 30.2749 53.6267 32.0413C57.8482 34.6616 64.9675 36.6399 70.3711 36.6399C71.5098 36.653 72.6467 36.5431 73.7618 36.3122V69.5459C72.3892 69.6665 71.0648 70.1117 69.898 70.8447L54.4605 79.2563C54.3941 79.2916 54.3308 79.3324 54.2712 79.3782C54.1704 79.4561 54.0642 79.5267 53.9533 79.5894C54.2993 79.0066 54.4978 78.3481 54.5316 77.6711C54.6165 75.6482 53.2196 73.7258 50.3752 71.9592C44.4582 68.2865 32.8539 65.8746 28.247 68.4045C28.2301 68.4125 28.2138 68.4217 28.1983 68.4322L28.1682 68.4498L28.167 68.4496ZM95.9971 29.0383L91.8521 31.4305C90.835 32.0172 89.6265 32.1758 88.4924 31.8716C87.3583 31.5674 86.3914 30.8251 85.8045 29.8082L85.6826 29.5989L76.5252 35.1329V69.8672C76.9869 70.0189 77.4309 70.2201 77.8493 70.4673C79.7599 71.5962 80.8828 73.5501 80.7782 75.5671C80.7091 76.8736 80.0538 79.3091 76.4362 80.9965L53.5363 94.8053C51.9372 95.8352 50.0758 96.3839 48.1738 96.3862C46.8598 96.374 45.5571 96.1426 44.3193 95.7015L29.4719 91.6219C29.3733 91.5943 29.2823 91.5687 29.2054 91.5429L28.4719 92.0166C28.9531 93.0226 29.0374 94.173 28.7081 95.2385C28.3787 96.3039 27.6599 97.2061 26.6949 97.765L22.5526 100.155C21.8841 100.544 21.1247 100.749 20.3513 100.75C19.9603 100.749 19.5711 100.698 19.1935 100.596C18.6312 100.447 18.1038 100.189 17.6419 99.8353C17.1801 99.4817 16.7929 99.04 16.5027 98.5359L6.38467 81.0097C5.79937 79.9922 5.64128 78.7841 5.94504 77.6503C6.24879 76.5164 6.98962 75.5492 8.0052 74.9606L12.1504 72.5686C13.1675 71.983 14.3755 71.8249 15.5091 72.129C16.6427 72.4331 17.6094 73.1746 18.1968 74.1908L18.3187 74.4002L25.4039 70.1187V33.0153C23.9554 31.8575 23.134 30.1693 23.2229 28.4326C23.292 27.1259 23.9473 24.6904 27.5649 23.0031L50.4652 9.19361C53.248 7.44674 56.3481 7.1451 59.6816 8.29763L74.5301 12.3772C74.6288 12.4048 74.7188 12.4304 74.7957 12.456L75.53 11.9823C75.0484 10.9764 74.9637 9.82593 75.293 8.76038C75.6222 7.69484 76.3412 6.79265 77.3064 6.23388L81.4501 3.8437C82.4674 3.25857 83.6752 3.10054 84.8087 3.40426C85.9423 3.70798 86.9093 4.44867 87.4978 5.46403L97.6168 22.9899C98.2022 24.0073 98.3604 25.2152 98.0568 26.349C97.7533 27.4828 97.0127 28.4501 95.9973 29.0389L95.9971 29.0383ZM15.6612 80.6979L14.1837 78.1422C14.0958 77.9798 13.9762 77.8368 13.8321 77.7215C13.688 77.6061 13.5222 77.5208 13.3446 77.4706C13.1669 77.4205 12.9811 77.4064 12.7979 77.4293C12.6147 77.4521 12.438 77.5115 12.2782 77.6038C12.1183 77.6962 11.9786 77.8196 11.8673 77.9668C11.756 78.1141 11.6753 78.2821 11.63 78.4611C11.5847 78.64 11.5758 78.8262 11.6037 79.0087C11.6316 79.1911 11.6958 79.3662 11.7925 79.5234L13.2659 82.0793C13.4491 82.3968 13.7509 82.6285 14.1049 82.7235C14.4589 82.8185 14.8362 82.769 15.1537 82.5858C15.4712 82.4027 15.7029 82.1009 15.7979 81.7468C15.8929 81.3928 15.8433 81.0156 15.6602 80.6981L15.6612 80.6979Z" fill="#231F20"/>
<path fill-rule="evenodd" clip-rule="evenodd" d="M95.2235 24.371L85.1042 6.84535C84.9954 6.65596 84.8501 6.49004 84.6768 6.3572C84.5034 6.22435 84.3054 6.12723 84.0942 6.07144C83.9505 6.03392 83.8026 6.01468 83.6541 6.01416C83.3651 6.01432 83.0812 6.09062 82.831 6.23536L78.6883 8.62736C78.307 8.84903 78.0289 9.21245 77.9146 9.63837C77.8002 10.0643 77.8589 10.5181 78.0779 10.9009L88.1968 28.4266C88.4177 28.8086 88.7812 29.0874 89.2075 29.2016C89.6338 29.3159 90.088 29.2563 90.4703 29.0359L94.6161 26.6446C94.998 26.4234 95.2766 26.0599 95.3908 25.6337C95.505 25.2075 95.4456 24.7534 95.2255 24.371H95.2235ZM89.8175 25.8578L88.3408 23.3019C88.2501 23.1447 88.1912 22.9712 88.1676 22.7912C88.144 22.6113 88.156 22.4284 88.2031 22.2532C88.298 21.8991 88.5298 21.5973 88.8473 21.4142C89.1648 21.231 89.542 21.1815 89.896 21.2765C90.0713 21.3235 90.2356 21.4046 90.3796 21.5151C90.5235 21.6257 90.6443 21.7635 90.735 21.9207L92.2089 24.4766C92.305 24.6338 92.3688 24.8087 92.3963 24.991C92.4238 25.1732 92.4146 25.3591 92.3692 25.5377C92.3237 25.7163 92.243 25.8841 92.1318 26.031C92.0205 26.1779 91.881 26.3011 91.7214 26.3933C91.5618 26.4855 91.3853 26.5448 91.2025 26.5677C91.0196 26.5907 90.834 26.5768 90.6566 26.5269C90.4791 26.477 90.3135 26.3921 90.1694 26.2772C90.0253 26.1623 89.9056 26.0197 89.8175 25.8578Z" fill="#00ABEA"/>
<path fill-rule="evenodd" clip-rule="evenodd" d="M25.9232 93.0983L15.8031 75.5724C15.5822 75.1903 15.2186 74.9115 14.7923 74.7973C14.366 74.683 13.9117 74.7426 13.5293 74.9631L9.38557 77.3551C9.00352 77.576 8.72475 77.9395 8.6105 78.3658C8.49625 78.7921 8.55584 79.2463 8.7762 79.6286L18.8971 97.1547C19.1186 97.5359 19.482 97.814 19.9079 97.9282C20.3338 98.0423 20.7876 97.9833 21.1701 97.764L25.3138 95.372C25.6947 95.15 25.9724 94.7865 26.0865 94.3607C26.2006 93.9349 26.1419 93.4812 25.9232 93.0985V93.0983ZM15.6609 80.6979C15.8441 81.0154 15.8936 81.3926 15.7986 81.7467C15.7037 82.1007 15.4719 82.4025 15.1544 82.5856C14.8369 82.7688 14.4597 82.8183 14.1057 82.7233C13.7516 82.6284 13.4498 82.3966 13.2667 82.0791L11.7922 79.5234C11.6955 79.3662 11.6313 79.1912 11.6034 79.0087C11.5755 78.8262 11.5845 78.64 11.6297 78.4611C11.675 78.2821 11.7557 78.1141 11.867 77.9668C11.9784 77.8196 12.1181 77.6962 12.2779 77.6038C12.4377 77.5115 12.6145 77.4522 12.7976 77.4293C12.9808 77.4064 13.1667 77.4205 13.3443 77.4707C13.5219 77.5208 13.6877 77.6061 13.8318 77.7215C13.976 77.8368 14.0955 77.9799 14.1834 78.1422L15.6609 80.6979Z" fill="#00ABEA"/>
<path d="M34.7432 40.5959H41.937V47.7898H34.7432V40.5959Z" fill="#00ABEA"/>
</svg>
