<svg xmlns="http://www.w3.org/2000/svg" width="64" height="64" viewBox="0 0 64 64" fill="none">
  <path fill-rule="evenodd" clip-rule="evenodd" d="M19.8931 18.381C20.1289 18.3808 20.3594 18.4506 20.5555 18.5815C20.7517 18.7124 20.9045 18.8985 20.9949 19.1163C21.0852 19.3341 21.109 19.5738 21.0631 19.8051C21.0172 20.0363 20.9038 20.2488 20.7372 20.4156C20.5705 20.5824 20.3582 20.6961 20.1269 20.7422C19.8957 20.7883 19.656 20.7648 19.4381 20.6747C19.2202 20.5846 19.034 20.4319 18.9029 20.2359C18.7718 20.04 18.7017 19.8095 18.7016 19.5737C18.7019 19.2577 18.8275 18.9547 19.0509 18.7311C19.2742 18.5075 19.5771 18.3816 19.8931 18.381ZM26.4543 21.7915C26.69 21.7913 26.9206 21.8611 27.1167 21.992C27.3128 22.1229 27.4657 22.309 27.556 22.5268C27.6464 22.7446 27.6701 22.9843 27.6242 23.2156C27.5783 23.4468 27.4649 23.6593 27.2983 23.8261C27.1316 23.9929 26.9193 24.1066 26.6881 24.1527C26.4568 24.1988 26.2171 24.1753 25.9992 24.0852C25.7814 23.9951 25.5951 23.8424 25.464 23.6464C25.3329 23.4505 25.2629 23.22 25.2628 22.9842C25.263 22.6682 25.3885 22.3651 25.6119 22.1415C25.8353 21.9179 26.1382 21.792 26.4543 21.7915ZM33.3293 15.129C33.565 15.1291 33.7954 15.1991 33.9913 15.3302C34.1872 15.4613 34.3399 15.6475 34.43 15.8653C34.5202 16.0831 34.5437 16.3227 34.4977 16.5539C34.4516 16.7851 34.3381 16.9974 34.1714 17.1641C34.0047 17.3308 33.7924 17.4443 33.5612 17.4903C33.33 17.5363 33.0904 17.5127 32.8726 17.4226C32.6548 17.3324 32.4686 17.1797 32.3375 16.9838C32.2065 16.7878 32.1365 16.5574 32.1364 16.3217C32.1366 16.0054 32.2624 15.7022 32.4861 15.4786C32.7097 15.2549 33.013 15.1292 33.3293 15.129ZM19.8935 22.4665C20.657 22.4667 21.3894 22.1641 21.93 21.625L23.6063 22.4837C23.5768 22.6488 23.5621 22.8161 23.5624 22.9837C23.5622 23.4323 23.6663 23.8748 23.8666 24.2762C24.0669 24.6776 24.3578 25.0269 24.7164 25.2964C25.0749 25.566 25.4913 25.7485 25.9325 25.8294C26.3737 25.9104 26.8277 25.8876 27.2586 25.7628C27.6895 25.638 28.0854 25.4147 28.4151 25.1105C28.7448 24.8064 28.9993 24.4297 29.1583 24.0102C29.3173 23.5908 29.3766 23.1401 29.3314 22.6938C29.2862 22.2475 29.1379 21.8178 28.898 21.4387L31.6029 18.6403C32.1588 19.0544 32.8448 19.2556 33.5363 19.2073C34.2279 19.1591 34.8792 18.8646 35.3723 18.3772C35.8653 17.8899 36.1674 17.2421 36.2238 16.5511C36.2801 15.8602 36.087 15.1719 35.6794 14.6112C35.2719 14.0504 34.6768 13.6543 34.0023 13.4946C33.3277 13.3349 32.6182 13.4222 32.0025 13.7408C31.3868 14.0593 30.9056 14.5879 30.6462 15.2308C30.3868 15.8737 30.3664 16.5882 30.5886 17.2448L27.6045 20.3298C27.0659 20.0957 26.4687 20.0315 25.8927 20.1458C25.3166 20.2602 24.7893 20.5477 24.381 20.9698L22.7327 20.1258C22.7679 19.9437 22.7858 19.7587 22.7862 19.5732C22.7864 19.0011 22.6169 18.4419 22.2991 17.9661C21.9814 17.4904 21.5297 17.1196 21.0012 16.9005C20.4728 16.6815 19.8912 16.6241 19.3301 16.7356C18.769 16.847 18.2535 17.1224 17.8489 17.5268C17.4443 17.9313 17.1687 18.4466 17.057 19.0077C16.9452 19.5688 17.0024 20.1503 17.2212 20.6789C17.44 21.2075 17.8106 21.6593 18.2862 21.9773C18.7618 22.2952 19.321 22.465 19.8931 22.4651L19.8935 22.4665ZM34.7637 34.1482H32.665V23.192L33.7144 22.3866L34.7644 23.192V34.1473L34.7637 34.1482ZM36.1312 22.0982C36.2347 22.1777 36.3186 22.2799 36.3763 22.397C36.434 22.514 36.4641 22.6427 36.4641 22.7732V34.9982C36.4641 35.1098 36.4421 35.2204 36.3994 35.3235C36.3567 35.4266 36.2941 35.5203 36.2152 35.5993C36.1362 35.6782 36.0425 35.7408 35.9394 35.7835C35.8363 35.8262 35.7257 35.8482 35.6141 35.8482H31.8141C31.5888 35.8479 31.3728 35.7583 31.2134 35.5989C31.0541 35.4396 30.9644 35.2236 30.9641 34.9982V22.7732C30.9645 22.6428 30.9946 22.5141 31.0524 22.3971C31.1101 22.2801 31.1938 22.1779 31.2971 22.0982L33.1971 20.642C33.3456 20.5281 33.5275 20.4663 33.7146 20.4663C33.9017 20.4663 34.0836 20.5281 34.232 20.642L36.132 22.0982H36.1312ZM21.141 34.1482H19.0422V26.2645L20.0916 25.4591L21.1416 26.2645V34.1482H21.141ZM22.5086 25.1701C22.6121 25.2496 22.696 25.3518 22.7537 25.4688C22.8114 25.5859 22.8414 25.7146 22.8414 25.8451V34.9975C22.8414 35.2229 22.7518 35.4391 22.5924 35.5985C22.433 35.7579 22.2168 35.8475 21.9914 35.8475H18.1915C17.9661 35.8472 17.7501 35.7576 17.5907 35.5983C17.4314 35.4389 17.3417 35.2228 17.3415 34.9975V25.8443C17.3415 25.7138 17.3715 25.5851 17.4292 25.468C17.487 25.351 17.5708 25.2488 17.6744 25.1693L19.5744 23.7118C19.723 23.5983 19.905 23.5368 20.0921 23.5371C20.2792 23.5373 20.461 23.5992 20.6094 23.7131L22.5094 25.1693L22.5086 25.1701ZM27.9522 34.1482H25.8535V28.8385L26.9035 28.0343L27.9535 28.8385V34.1473L27.9522 34.1482ZM29.32 27.7462L27.42 26.2887C27.2714 26.175 27.0895 26.1133 26.9024 26.1133C26.7153 26.1133 26.5334 26.175 26.3849 26.2887L24.4849 27.7462C24.3814 27.8255 24.2976 27.9275 24.2398 28.0444C24.1821 28.1613 24.152 28.2899 24.1519 28.4202V34.9985C24.1521 35.2238 24.2418 35.4399 24.4011 35.5992C24.5605 35.7586 24.7765 35.8482 25.0019 35.8485H28.8011C28.9127 35.8485 29.0233 35.8265 29.1264 35.7838C29.2295 35.7411 29.3232 35.6784 29.4022 35.5995C29.4811 35.5206 29.5437 35.4269 29.5864 35.3238C29.6291 35.2206 29.6511 35.1101 29.6511 34.9985V28.4193C29.6513 28.289 29.6213 28.1603 29.5637 28.0434C29.506 27.9265 29.4221 27.8245 29.3185 27.7453L29.32 27.7462ZM50.553 44.0712C49.6389 44.0712 48.7453 43.8002 47.9852 43.2924C47.2251 42.7846 46.6327 42.0628 46.2828 41.2183C45.9329 40.3738 45.8412 39.4445 46.0194 38.5479C46.1977 37.6514 46.6377 36.8278 47.284 36.1813C47.9303 35.5348 48.7537 35.0945 49.6503 34.916C50.5468 34.7375 51.4761 34.8288 52.3207 35.1784C53.1653 35.528 53.8873 36.1202 54.3954 36.8802C54.9034 37.6401 55.1747 38.5336 55.175 39.4477C55.1738 40.6734 54.6864 41.8485 53.8198 42.7151C52.9531 43.5818 51.778 44.0692 50.5524 44.0703L50.553 44.0712ZM50.553 33.1267C49.3025 33.1268 48.0802 33.4977 47.0405 34.1925C46.0008 34.8874 45.1905 35.8749 44.7121 37.0302C44.2336 38.1855 44.1085 39.4568 44.3526 40.6832C44.5967 41.9096 45.1989 43.0362 46.0832 43.9203C46.9675 44.8044 48.0941 45.4065 49.3206 45.6504C50.5471 45.8942 51.8183 45.7689 52.9736 45.2902C54.1288 44.8116 55.1162 44.0011 55.8108 42.9613C56.5054 41.9215 56.8761 40.6991 56.876 39.4486C56.874 37.7723 56.2072 36.1653 55.0218 34.9801C53.8364 33.7949 52.2293 33.1284 50.553 33.1267ZM60.3 40.7097V38.1875C60.2995 38.1603 60.2884 38.1344 60.2692 38.1152C60.25 38.0959 60.2241 38.0849 60.1969 38.0843H58.2615C58.0769 38.0844 57.8972 38.0243 57.7497 37.9132C57.6023 37.8021 57.495 37.646 57.4441 37.4685C57.2949 36.9496 57.0875 36.4493 56.8259 35.977C56.7363 35.8157 56.7017 35.6296 56.7273 35.4469C56.753 35.2642 56.8375 35.0948 56.9681 34.9645L58.3368 33.5945C58.3554 33.5748 58.3659 33.5487 58.3659 33.5216C58.3659 33.4945 58.3554 33.4684 58.3368 33.4487L56.5524 31.6645C56.5326 31.6461 56.5066 31.6358 56.4796 31.6358C56.4526 31.6358 56.4266 31.6461 56.4069 31.6645L55.0375 33.0336C54.9067 33.164 54.7371 33.2484 54.5542 33.2741C54.3713 33.2997 54.185 33.2652 54.0234 33.1757C53.5519 32.9134 53.0519 32.7059 52.5331 32.5575C52.3557 32.5065 52.1997 32.3992 52.0886 32.2517C51.9775 32.1043 51.9174 31.9247 51.9174 31.7401V29.804C51.9165 29.777 51.9054 29.7513 51.8861 29.7324C51.8669 29.7134 51.8411 29.7026 51.8141 29.7021C51.2979 29.7021 50.867 29.6896 50.4866 29.679C50.0105 29.6665 49.4764 29.6522 49.266 29.6947C49.187 29.9643 49.1871 30.7502 49.1884 31.5785V31.7401C49.1883 31.9247 49.1282 32.1043 49.0171 32.2517C48.906 32.3991 48.75 32.5065 48.5726 32.5575C48.0535 32.7062 47.5531 32.9136 47.081 33.1757C46.9197 33.2651 46.7336 33.2996 46.551 33.2739C46.3683 33.2483 46.199 33.1639 46.0685 33.0336L44.6982 31.6635C44.6785 31.645 44.6525 31.6348 44.6254 31.6348C44.5984 31.6348 44.5724 31.645 44.5526 31.6635L42.7682 33.4477C42.7496 33.4674 42.7391 33.4935 42.7391 33.5206C42.7391 33.5477 42.7496 33.5738 42.7682 33.5935L44.1381 34.9635C44.2685 35.094 44.3528 35.2633 44.3784 35.446C44.4041 35.6286 44.3696 35.8146 44.2803 35.976C44.0182 36.448 43.8108 36.9484 43.6621 37.4675C43.611 37.6448 43.5036 37.8007 43.3563 37.9118C43.2089 38.0228 43.0294 38.083 42.8449 38.0833H40.9086C40.8815 38.0839 40.8556 38.095 40.8364 38.1142C40.8172 38.1334 40.8062 38.1593 40.8056 38.1865V40.7092C40.8064 40.7364 40.8176 40.7622 40.8369 40.7814C40.8561 40.8006 40.882 40.8117 40.9091 40.8125H42.8449C43.0294 40.8127 43.209 40.8729 43.3564 40.9839C43.5038 41.095 43.6112 41.2509 43.6624 41.4282C43.8109 41.9469 44.0183 42.4469 44.2805 42.9185C44.37 43.0801 44.4045 43.2664 44.3789 43.4493C44.3533 43.6323 44.2689 43.8019 44.1385 43.9327L42.7684 45.3015C42.7497 45.3211 42.7393 45.3472 42.7393 45.3743C42.7393 45.4015 42.7497 45.4276 42.7684 45.4472L44.5525 47.2315C44.5621 47.2409 44.5735 47.2484 44.586 47.2534C44.5985 47.2584 44.6119 47.2608 44.6254 47.2606C44.6389 47.261 44.6523 47.2587 44.6649 47.2537C44.6774 47.2487 44.6888 47.2411 44.6982 47.2315L46.0682 45.8626C46.1986 45.7321 46.368 45.6476 46.5507 45.622C46.7334 45.5963 46.9195 45.6309 47.0807 45.7205C47.5531 45.982 48.0535 46.1894 48.5724 46.3387C48.7499 46.3896 48.906 46.4969 49.0171 46.6443C49.1282 46.7918 49.1883 46.9715 49.1883 47.1561V49.091C49.1889 49.1182 49.2 49.1441 49.2192 49.1633C49.2385 49.1826 49.2644 49.1936 49.2916 49.1942H51.8141C51.8413 49.1934 51.8671 49.1823 51.8863 49.1631C51.9055 49.1439 51.9167 49.1181 51.9175 49.091V47.1566C51.9174 46.972 51.9775 46.7923 52.0886 46.6448C52.1998 46.4974 52.3559 46.3901 52.5334 46.3392C53.0519 46.1902 53.5519 45.9828 54.0236 45.721C54.1852 45.6312 54.3716 45.5964 54.5546 45.6221C54.7377 45.6477 54.9074 45.7323 55.038 45.8631L56.4066 47.232C56.4263 47.2506 56.4524 47.2611 56.4796 47.2611C56.5067 47.2611 56.5328 47.2506 56.5525 47.232L58.3365 45.4477C58.3552 45.4281 58.3656 45.402 58.3656 45.3748C58.3656 45.3477 58.3552 45.3216 58.3365 45.302L56.9675 43.9332C56.8368 43.8026 56.7522 43.6329 56.7265 43.4499C56.7009 43.2669 56.7356 43.0805 56.8254 42.919C57.0866 42.4469 57.294 41.947 57.4436 41.4287C57.4945 41.2512 57.6018 41.0952 57.7493 40.9841C57.8967 40.873 58.0764 40.8129 58.261 40.813H60.1963C60.2234 40.8122 60.2492 40.8011 60.2684 40.7819C60.2877 40.7627 60.2988 40.7369 60.2996 40.7097H60.3ZM32.4506 48.2H21.0125C21.4207 47.3923 21.6254 46.4971 21.6087 45.5922H31.8551C31.8387 46.4969 32.0429 47.392 32.4501 48.2H32.4506ZM36.2853 51.2048C36.2847 51.5507 36.1471 51.8822 35.9025 52.1267C35.6579 52.3712 35.3263 52.5088 34.9805 52.5092H18.6071C18.2613 52.5088 17.9297 52.3712 17.6852 52.1267C17.4406 51.8822 17.3029 51.5507 17.3024 51.2048V49.9H36.2853V51.2045V51.2048ZM3.70062 41.2963V40.298H39.1053V40.7097C39.1059 41.1879 39.2962 41.6462 39.6343 41.9843C39.9724 42.3224 40.4307 42.5127 40.9089 42.5133H42.2294C42.3105 42.7343 42.4016 42.9517 42.5 43.1667L41.775 43.8917H6.29612C5.60802 43.8909 4.94834 43.6171 4.46178 43.1306C3.97521 42.644 3.70148 41.9843 3.70062 41.2962V41.2963ZM6.29612 11.4907C5.60803 11.4916 4.94837 11.7654 4.46182 12.2519C3.97526 12.7385 3.70152 13.3981 3.70062 14.0862V38.5976H39.1053V38.1875C39.106 37.7093 39.2963 37.2509 39.6344 36.9128C39.9726 36.5747 40.431 36.3845 40.9091 36.3839H42.2291C42.3105 36.1628 42.4018 35.9442 42.5001 35.7305L41.5659 34.7965C41.2286 34.458 41.0393 33.9996 41.0393 33.5218C41.0393 33.044 41.2286 32.5856 41.5659 32.2471L43.3511 30.4616C43.6896 30.124 44.1481 29.9344 44.6261 29.9344C45.1042 29.9344 45.5627 30.124 45.9011 30.4616L46.835 31.3956C47.0487 31.2972 47.2675 31.2061 47.4885 31.1247C47.4921 29.6831 47.5407 28.9762 48.0715 28.4587C48.4881 28.0531 49.009 27.9693 49.7648 27.9668V14.0862C49.7641 13.3983 49.4907 12.7387 49.0043 12.2521C48.518 11.7655 47.8586 11.4917 47.1706 11.4907H6.29612ZM60.1961 36.3833H58.8775C58.7948 36.1623 58.7048 35.9437 58.6053 35.73L59.5394 34.796C59.8773 34.4577 60.067 33.9991 60.067 33.521C60.067 33.0428 59.8773 32.5843 59.5394 32.246L57.7552 30.4606C57.4164 30.1234 56.9579 29.9341 56.4799 29.9341C56.0019 29.9341 55.5433 30.1234 55.2045 30.4606L54.2718 31.3946C54.057 31.2962 53.8394 31.2051 53.6183 31.1237V29.804C53.6175 29.326 53.4272 28.8677 53.089 28.5299C52.7509 28.192 52.2925 28.002 51.8145 28.0016C51.6932 28.0016 51.5778 28.0003 51.4645 27.9991V14.0862C51.4634 12.9474 51.0107 11.8556 50.2056 11.0502C49.4005 10.2448 48.3088 9.79168 47.17 9.79022H6.29612C5.15718 9.79164 4.06529 10.2447 3.25992 11.0501C2.45455 11.8554 2.00146 12.9473 2 14.0862V41.2963C2.00136 42.4352 2.45437 43.5271 3.25969 44.3324C4.065 45.1378 5.15685 45.5908 6.29575 45.5922H19.9083C19.9291 46.5424 19.6066 47.4683 19 48.2H16.8519C16.5204 48.2005 16.2026 48.3326 15.9683 48.5671C15.7339 48.8016 15.6022 49.1195 15.6019 49.451V51.2048C15.6028 52.0015 15.9197 52.7652 16.483 53.3285C17.0463 53.8918 17.81 54.2087 18.6066 54.2097H34.9804C35.777 54.2087 36.5407 53.8918 37.104 53.3285C37.6673 52.7652 37.9842 52.0015 37.9851 51.2048V49.451C37.9847 49.1193 37.8528 48.8013 37.6182 48.5667C37.3836 48.3322 37.0656 48.2003 36.7339 48.2H34.4639C33.8572 47.4683 33.5346 46.5425 33.5554 45.5922H41.0529C41.1005 45.9923 41.281 46.3648 41.5654 46.6501L43.35 48.4343C43.6885 48.7718 44.147 48.9613 44.625 48.9613C45.103 48.9613 45.5615 48.7718 45.9 48.4343L46.8341 47.5016C47.0479 47.6 47.2664 47.6898 47.4875 47.7725V49.0915C47.4879 49.5697 47.6781 50.0282 48.0162 50.3663C48.3543 50.7045 48.8128 50.8946 49.291 50.8951H51.8138C52.292 50.8946 52.7504 50.7045 53.0886 50.3663C53.4267 50.0282 53.6168 49.5697 53.6172 49.0915V47.7725C53.8384 47.6898 54.0556 47.6 54.2706 47.5016L55.2036 48.4343C55.5421 48.772 56.0006 48.9616 56.4786 48.9616C56.9567 48.9616 57.4152 48.772 57.7536 48.4343L59.5394 46.65C59.8769 46.3115 60.0665 45.853 60.0665 45.375C60.0665 44.8969 59.8769 44.4384 59.5394 44.1L58.6054 43.1671C58.7054 42.9521 58.7956 42.7343 58.8761 42.5137H60.1965C60.6748 42.5132 61.1333 42.323 61.4714 41.9848C61.8095 41.6465 61.9996 41.188 62 40.7097V38.1875C61.9996 37.7092 61.8095 37.2506 61.4714 36.9123C61.1332 36.5741 60.6747 36.3838 60.1964 36.3833H60.1961Z" fill="#231F20"/>
  <path fill-rule="evenodd" clip-rule="evenodd" d="M56.9672 34.9635L58.3358 33.5935C58.3545 33.5738 58.3649 33.5477 58.3649 33.5206C58.3649 33.4935 58.3545 33.4674 58.3358 33.4477L56.5514 31.6635C56.5317 31.6451 56.5057 31.6348 56.4787 31.6348C56.4517 31.6348 56.4257 31.6451 56.4059 31.6635L55.0366 33.0336C54.9058 33.164 54.7362 33.2484 54.5532 33.274C54.3703 33.2997 54.184 33.2652 54.0224 33.1757C53.5509 32.9134 53.0509 32.7059 52.5322 32.5575C52.3548 32.5065 52.1987 32.3991 52.0877 32.2517C51.9766 32.1043 51.9165 31.9247 51.9164 31.7401V29.804C51.9156 29.777 51.9044 29.7513 51.8852 29.7324C51.866 29.7134 51.8402 29.7025 51.8132 29.7021C51.2969 29.7021 50.8661 29.6896 50.4857 29.679C50.0096 29.6665 49.4754 29.6522 49.2651 29.6947C49.1861 29.9643 49.1862 30.7502 49.1874 31.5785V31.7401C49.1874 31.9247 49.1272 32.1042 49.0162 32.2517C48.9051 32.3991 48.7491 32.5064 48.5717 32.5575C48.0526 32.7062 47.5522 32.9136 47.0801 33.1757C46.9187 33.2651 46.7327 33.2995 46.5501 33.2739C46.3674 33.2483 46.1981 33.1639 46.0676 33.0336L44.6973 31.6635C44.6775 31.645 44.6515 31.6348 44.6245 31.6348C44.5975 31.6348 44.5714 31.645 44.5517 31.6635L42.7673 33.4477C42.7486 33.4674 42.7382 33.4935 42.7382 33.5206C42.7382 33.5477 42.7486 33.5738 42.7673 33.5935L44.1372 34.9635C44.2675 35.094 44.3519 35.2633 44.3775 35.4459C44.4031 35.6286 44.3687 35.8146 44.2793 35.976C44.0173 36.448 43.8099 36.9484 43.6612 37.4675C43.61 37.6448 43.5027 37.8007 43.3553 37.9118C43.2079 38.0228 43.0285 38.083 42.8439 38.0833H40.9077C40.8805 38.0839 40.8546 38.095 40.8354 38.1142C40.8163 38.1334 40.8052 38.1593 40.8047 38.1865V40.7092C40.8055 40.7364 40.8167 40.7622 40.8359 40.7814C40.8552 40.8006 40.881 40.8117 40.9082 40.8125H42.8439C43.0285 40.8127 43.208 40.8729 43.3554 40.9839C43.5029 41.0949 43.6103 41.2509 43.6614 41.4282C43.81 41.9469 44.0173 42.4469 44.2796 42.9185C44.369 43.0801 44.4036 43.2664 44.378 43.4493C44.3524 43.6322 44.268 43.8019 44.1376 43.9327L42.7674 45.3015C42.7487 45.3211 42.7383 45.3472 42.7383 45.3743C42.7383 45.4015 42.7487 45.4275 42.7674 45.4472L44.5516 47.2315C44.5612 47.2409 44.5726 47.2484 44.5851 47.2534C44.5976 47.2584 44.611 47.2608 44.6244 47.2606C44.6379 47.261 44.6514 47.2587 44.6639 47.2537C44.6765 47.2486 44.6878 47.2411 44.6973 47.2315L46.0673 45.8626C46.1977 45.7321 46.3671 45.6476 46.5498 45.622C46.7325 45.5963 46.9185 45.6309 47.0798 45.7205C47.5522 45.982 48.0525 46.1894 48.5714 46.3387C48.7489 46.3896 48.9051 46.4968 49.0162 46.6443C49.1273 46.7918 49.1874 46.9714 49.1873 47.1561V49.091C49.188 49.1182 49.199 49.1441 49.2183 49.1633C49.2376 49.1825 49.2635 49.1936 49.2907 49.1942H51.8132C51.8403 49.1934 51.8662 49.1823 51.8854 49.1631C51.9046 49.1439 51.9157 49.1181 51.9166 49.091V47.1566C51.9165 46.9719 51.9766 46.7923 52.0877 46.6448C52.1988 46.4973 52.3549 46.3901 52.5324 46.3392C53.051 46.1901 53.5509 45.9827 54.0227 45.721C54.1842 45.6311 54.3706 45.5964 54.5537 45.6221C54.7367 45.6477 54.9064 45.7323 55.0371 45.8631L56.4057 47.232C56.4254 47.2506 56.4515 47.261 56.4786 47.261C56.5058 47.261 56.5319 47.2506 56.5516 47.232L58.3356 45.4477C58.3543 45.428 58.3647 45.402 58.3647 45.3748C58.3647 45.3477 58.3543 45.3216 58.3356 45.302L56.9666 43.9332C56.8358 43.8026 56.7512 43.6329 56.7256 43.4499C56.6999 43.2669 56.7346 43.0805 56.8244 42.919C57.0856 42.4469 57.293 41.947 57.4427 41.4287C57.4936 41.2512 57.6009 41.0951 57.7483 40.984C57.8958 40.8729 58.0754 40.8129 58.2601 40.813H60.1953C60.2225 40.8122 60.2483 40.801 60.2675 40.7819C60.2867 40.7627 60.2979 40.7369 60.2987 40.7097V38.1875C60.2981 38.1603 60.2871 38.1344 60.2679 38.1151C60.2487 38.0959 60.2227 38.0849 60.1956 38.0843H58.2606C58.0759 38.0844 57.8963 38.0243 57.7488 37.9132C57.6013 37.8021 57.494 37.646 57.4432 37.4685C57.294 36.9496 57.0866 36.4492 56.8249 35.977C56.7353 35.8157 56.7007 35.6296 56.7264 35.4469C56.7521 35.2642 56.8366 35.0948 56.9672 34.9645V34.9635ZM50.5517 33.126C51.8022 33.1258 53.0247 33.4965 54.0645 34.1912C55.1043 34.8859 55.9148 35.8733 56.3934 37.0286C56.872 38.184 56.9973 39.4553 56.7534 40.6818C56.5094 41.9083 55.9073 43.0349 55.023 43.9191C54.1387 44.8034 53.0121 45.4056 51.7856 45.6495C50.5591 45.8934 49.2878 45.7682 48.1325 45.2896C46.9772 44.8109 45.9898 44.0005 45.2951 42.9607C44.6004 41.9208 44.2297 40.6984 44.2298 39.4478C44.2317 37.7717 44.8984 36.1648 46.0836 34.9797C47.2687 33.7945 48.8756 33.1278 50.5517 33.1258V33.126Z" fill="#00ABEA"/>
  <path fill-rule="evenodd" clip-rule="evenodd" d="M21.1378 34.1474V26.2636L20.0884 25.4583L19.0391 26.2636V34.1474H21.1378Z" fill="#00ABEA"/>
  <path fill-rule="evenodd" clip-rule="evenodd" d="M32.6641 23.192V34.1473H34.7628V23.192L33.7134 22.3866L32.6641 23.192Z" fill="#00ABEA"/>
  <path fill-rule="evenodd" clip-rule="evenodd" d="M19.8907 20.7652C20.1266 20.7654 20.3571 20.6955 20.5533 20.5646C20.7494 20.4336 20.9023 20.2475 20.9926 20.0296C21.0829 19.8117 21.1066 19.572 21.0606 19.3407C21.0146 19.1094 20.9011 18.8969 20.7343 18.7301C20.5675 18.5634 20.3551 18.4498 20.1238 18.4039C19.8925 18.3579 19.6527 18.3815 19.4348 18.4718C19.217 18.5622 19.0308 18.715 18.8999 18.9112C18.7689 19.1073 18.6991 19.3379 18.6992 19.5737C18.6996 19.8896 18.8252 20.1925 19.0486 20.4158C19.272 20.6392 19.5748 20.7649 19.8907 20.7652Z" fill="#00ABEA"/>
  <path fill-rule="evenodd" clip-rule="evenodd" d="M26.4545 21.7915C26.2187 21.7914 25.9882 21.8612 25.7921 21.9921C25.5959 22.123 25.443 22.3091 25.3527 22.5268C25.2624 22.7446 25.2386 22.9843 25.2845 23.2156C25.3304 23.4469 25.4438 23.6593 25.6104 23.8261C25.7771 23.993 25.9894 24.1066 26.2207 24.1527C26.4519 24.1988 26.6916 24.1754 26.9095 24.0852C27.1274 23.9951 27.3136 23.8424 27.4447 23.6465C27.5758 23.4505 27.6458 23.22 27.646 22.9843C27.6457 22.6682 27.5201 22.3652 27.2967 22.1416C27.0734 21.918 26.7705 21.7921 26.4545 21.7915Z" fill="#00ABEA"/>
  <path fill-rule="evenodd" clip-rule="evenodd" d="M32.1328 16.3211C32.1329 16.5568 32.2029 16.7872 32.334 16.9832C32.465 17.1791 32.6512 17.3318 32.869 17.422C33.0868 17.5121 33.3264 17.5357 33.5576 17.4897C33.7888 17.4437 34.0012 17.3302 34.1679 17.1635C34.3345 16.9968 34.4481 16.7845 34.4941 16.5533C34.5401 16.3221 34.5166 16.0825 34.4265 15.8647C34.3363 15.6468 34.1837 15.4606 33.9877 15.3296C33.7918 15.1985 33.5614 15.1285 33.3257 15.1284C33.0094 15.1284 32.706 15.2541 32.4823 15.4778C32.2586 15.7014 32.1329 16.0048 32.1328 16.3211Z" fill="#00ABEA"/>
  <path fill-rule="evenodd" clip-rule="evenodd" d="M36.2835 49.9H17.3008V51.2045C17.3013 51.5503 17.439 51.8818 17.6836 52.1263C17.9282 52.3708 18.2597 52.5084 18.6055 52.5088H34.9788C35.3246 52.5084 35.6562 52.3709 35.9008 52.1263C36.1454 51.8818 36.283 51.5503 36.2835 51.2045V49.9Z" fill="#00ABEA"/>
</svg>