<svg width="104" height="104" viewBox="0 0 104 104" fill="none" xmlns="http://www.w3.org/2000/svg">
<path fill-rule="evenodd" clip-rule="evenodd" d="M21.0437 28.1135C20.9616 27.7564 21.0248 27.3814 21.2192 27.0708C21.4136 26.7603 21.7234 26.5397 22.0805 26.4576C22.4376 26.3755 22.8126 26.4386 23.1232 26.633C23.4337 26.8275 23.6543 27.1373 23.7364 27.4943C24.1611 29.3412 26.2299 29.5796 27.3857 29.4295C28.2112 29.3217 28.8588 28.9113 29.0757 28.3578C29.1491 28.1551 29.1639 27.9358 29.1183 27.7251C29.0727 27.5143 28.9686 27.3207 28.818 27.1665C28.259 26.4952 27.7065 26.3865 26.6088 26.222C25.9137 26.1382 25.2294 25.9816 24.5672 25.7548C24.5527 25.7491 24.5385 25.744 24.5243 25.7383C22.669 24.9868 21.5767 23.5198 21.6021 21.8144C21.6281 20.0801 22.7965 18.5327 24.5789 17.8717C24.7734 17.7998 24.9676 17.7385 25.1615 17.6877V16.6802C25.1615 16.3138 25.307 15.9625 25.5661 15.7035C25.8251 15.4444 26.1764 15.2989 26.5427 15.2989C26.9091 15.2989 27.2604 15.4444 27.5194 15.7035C27.7785 15.9625 27.924 16.3138 27.924 16.6802V17.6552C29.6166 18.0817 31.042 19.3411 31.7576 21.2302C31.8219 21.3998 31.8521 21.5804 31.8465 21.7618C31.841 21.9431 31.7998 22.1215 31.7253 22.2869C31.6508 22.4523 31.5444 22.6015 31.4123 22.7257C31.2802 22.85 31.1249 22.9471 30.9552 23.0114C30.7856 23.0757 30.605 23.1059 30.4236 23.1003C30.2423 23.0948 30.0639 23.0536 29.8985 22.9791C29.7331 22.9046 29.584 22.7982 29.4597 22.6661C29.3354 22.534 29.2383 22.3787 29.174 22.209C28.5592 20.5861 27.0985 19.8841 25.5381 20.4622C24.7368 20.7591 24.3707 21.3762 24.3634 21.8552C24.3529 22.5673 25.0855 22.9811 25.5393 23.1684C26.0202 23.3234 26.5152 23.4305 27.017 23.4883C28.2049 23.6665 29.6829 23.8881 30.9398 25.3977C31.4067 25.9325 31.7192 26.5844 31.8438 27.2834C31.9684 27.9824 31.9003 28.7021 31.6469 29.3653C31.0732 30.8293 29.6883 31.8554 27.9232 32.14V33.0323C27.9232 33.3987 27.7777 33.75 27.5186 34.009C27.2596 34.2681 26.9083 34.4136 26.5419 34.4136C26.1756 34.4136 25.8243 34.2681 25.5652 34.009C25.3062 33.75 25.1607 33.3987 25.1607 33.0323V32.0614C23.0813 31.5841 21.5111 30.1492 21.0429 28.1127L21.0437 28.1135ZM17.7694 16.1659C15.7535 18.1769 14.4976 20.8248 14.2155 23.6582C13.9335 26.4917 14.6428 29.3352 16.2226 31.7042C17.8025 34.0731 20.155 35.8209 22.8792 36.6495C25.6034 37.4781 28.5306 37.3362 31.162 36.2482C33.7933 35.1601 35.9658 33.1931 37.3092 30.6825C38.6526 28.1719 39.0838 25.2731 38.5291 22.4802C37.9745 19.6873 36.4684 17.1733 34.2676 15.3665C32.0668 13.5598 29.3075 12.5722 26.4601 12.5722C24.8458 12.567 23.2466 12.8819 21.7549 13.4988C20.2631 14.1156 18.9085 15.0221 17.7694 16.1659ZM26.4601 39.9033C29.9397 39.9005 33.3107 38.6915 35.9988 36.4821C38.687 34.2727 40.526 31.1997 41.2025 27.7865C41.879 24.3733 41.3512 20.8312 39.7091 17.7634C38.0669 14.6957 35.4119 12.2923 32.1965 10.9625C28.981 9.63278 25.4039 9.45898 22.0747 10.4708C18.7455 11.4825 15.87 13.6173 13.9382 16.5114C12.0064 19.4054 11.1377 22.8797 11.4801 26.3424C11.8226 29.8051 13.355 33.042 15.8163 35.5015C17.2132 36.9 18.8725 38.0088 20.6991 38.7642C22.5257 39.5195 24.4835 39.9067 26.4601 39.9033ZM100.75 95.6133C100.75 95.247 100.604 94.8957 100.345 94.6366C100.086 94.3776 99.7351 94.2321 99.3688 94.2321H6.0125V8.38638C6.0125 8.02005 5.86698 7.66872 5.60794 7.40969C5.34891 7.15065 4.99758 7.00513 4.63125 7.00513C4.26492 7.00513 3.91359 7.15065 3.65456 7.40969C3.39552 7.66872 3.25 8.02005 3.25 8.38638V95.6135C3.25 95.9799 3.39552 96.3312 3.65456 96.5902C3.91359 96.8493 4.26492 96.9948 4.63125 96.9948H99.3688C99.7351 96.9948 100.086 96.8493 100.345 96.5902C100.604 96.3312 100.75 95.9799 100.75 95.6135V95.6133ZM11.4175 54.3402C11.4781 54.5112 11.5719 54.6687 11.6935 54.8034C11.8151 54.9382 11.962 55.0477 12.126 55.1256C12.2899 55.2034 12.4676 55.2482 12.6489 55.2573C12.8302 55.2665 13.0115 55.2397 13.1824 55.1787C41.8555 44.9718 66.8202 30.9111 87.4494 13.3656L86.9357 17.5319C86.9135 17.712 86.9269 17.8946 86.9753 18.0695C87.0237 18.2444 87.1061 18.408 87.2178 18.551C87.3294 18.694 87.4681 18.8136 87.626 18.903C87.7839 18.9924 87.9579 19.0498 88.138 19.072C88.1946 19.0788 88.2516 19.0823 88.3086 19.0823C88.6455 19.082 88.9708 18.9586 89.223 18.7352C89.4753 18.5118 89.6372 18.2039 89.6783 17.8695L90.6307 10.1448C90.6539 9.9569 90.6383 9.7662 90.5847 9.58457C90.5311 9.40295 90.4408 9.23429 90.3192 9.08906C90.1977 8.94382 90.0477 8.82513 89.8783 8.74035C89.709 8.65556 89.5241 8.6065 89.335 8.59621L81.5317 8.16964C81.3506 8.15973 81.1693 8.1856 80.9981 8.24576C80.827 8.30592 80.6694 8.3992 80.5343 8.52028C80.2615 8.7648 80.097 9.10768 80.077 9.4735C80.0569 9.83932 80.1831 10.1981 80.4276 10.4709C80.6721 10.7438 81.015 10.9083 81.3808 10.9283L85.7693 11.1692C65.3754 28.539 40.6628 42.4634 12.2555 52.5756C12.0847 52.6364 11.9274 52.7303 11.7928 52.8519C11.6582 52.9735 11.5489 53.1204 11.471 53.2843C11.3932 53.4482 11.3484 53.6257 11.3392 53.8069C11.33 53.9881 11.3566 54.1693 11.4175 54.3402ZM26.7952 85.9218H16.9943V68.1854L21.8948 64.4276L26.7952 68.1854V85.9218ZM22.7356 61.5899L29.0176 66.408C29.1859 66.5371 29.3222 66.7031 29.416 66.8934C29.5098 67.0836 29.5585 67.2928 29.5583 67.5049V87.3031C29.5583 87.4845 29.5226 87.6641 29.4532 87.8317C29.3838 87.9992 29.282 88.1515 29.1538 88.2798C29.0255 88.408 28.8733 88.5098 28.7057 88.5792C28.5381 88.6486 28.3585 88.6843 28.1771 88.6843H15.6128C15.4314 88.6843 15.2518 88.6486 15.0842 88.5792C14.9166 88.5098 14.7644 88.408 14.6361 88.2798C14.5078 88.1515 14.4061 87.9992 14.3367 87.8317C14.2673 87.6641 14.2315 87.4845 14.2315 87.3031V67.5041C14.2314 67.292 14.2802 67.0827 14.374 66.8925C14.4678 66.7023 14.6041 66.5362 14.7725 66.4072L21.0545 61.5895C21.2957 61.4044 21.5913 61.3041 21.8954 61.3041C22.1994 61.3041 22.495 61.4044 22.7362 61.5895L22.7356 61.5899ZM49.3216 85.9218H39.5206V56.6322L44.421 52.8744L49.3216 56.6322V85.9218ZM45.2615 50.0363L51.5436 54.8547C51.7119 54.9837 51.8483 55.1497 51.9422 55.34C52.036 55.5302 52.0848 55.7394 52.0847 55.9515V87.3031C52.0847 87.6694 51.9392 88.0207 51.6801 88.2798C51.4211 88.5388 51.0698 88.6843 50.7035 88.6843H38.1394C37.773 88.6843 37.4217 88.5388 37.1627 88.2798C36.9036 88.0207 36.7581 87.6694 36.7581 87.3031V55.9509C36.758 55.7388 36.8068 55.5296 36.9006 55.3394C36.9944 55.1492 37.1307 54.9831 37.299 54.8541L43.5811 50.0361C43.8223 49.8511 44.1177 49.7509 44.4217 49.7509C44.7257 49.7509 45.0212 49.8511 45.2623 50.0361L45.2615 50.0363ZM71.8477 85.9218H62.0466V43.3468L66.9472 39.589L71.8477 43.3468V85.9218ZM67.7881 36.7499L74.0701 41.5685C74.2384 41.6975 74.3747 41.8636 74.4685 42.0538C74.5623 42.244 74.611 42.4533 74.6109 42.6653V87.3031C74.6109 87.4845 74.5751 87.6641 74.5057 87.8317C74.4363 87.9992 74.3346 88.1515 74.2063 88.2798C74.078 88.408 73.9258 88.5098 73.7582 88.5792C73.5906 88.6486 73.411 88.6843 73.2296 88.6843H60.6653C60.4839 88.6843 60.3043 88.6486 60.1367 88.5792C59.9691 88.5098 59.8169 88.408 59.6886 88.2798C59.5604 88.1515 59.4586 87.9992 59.3892 87.8317C59.3198 87.6641 59.2841 87.4845 59.2841 87.3031V42.6647C59.284 42.4527 59.3328 42.2434 59.4266 42.0532C59.5204 41.863 59.6567 41.6969 59.825 41.5679L66.1068 36.7501C66.3481 36.565 66.6437 36.4646 66.9478 36.4646C67.2519 36.4646 67.5475 36.565 67.7887 36.7501L67.7881 36.7499ZM94.3741 85.9218H84.5729V32.2922L89.4735 28.5343L94.3741 32.2922V85.9218ZM88.6328 25.6973C88.874 25.5123 89.1695 25.412 89.4735 25.412C89.7775 25.412 90.073 25.5123 90.3142 25.6973L96.5963 30.5156C96.7646 30.6447 96.901 30.8107 96.9948 31.0009C97.0886 31.1912 97.1373 31.4004 97.1372 31.6125V87.3031C97.1372 87.4845 97.1015 87.6641 97.0321 87.8317C96.9627 87.9992 96.8609 88.1515 96.7327 88.2798C96.6044 88.408 96.4521 88.5098 96.2845 88.5792C96.117 88.6486 95.9374 88.6843 95.756 88.6843H83.1917C82.8253 88.6843 82.474 88.5388 82.215 88.2798C81.9559 88.0207 81.8104 87.6694 81.8104 87.3031V31.6109C81.8103 31.3988 81.8591 31.1895 81.9529 30.9993C82.0467 30.8091 82.183 30.643 82.3513 30.514L88.6328 25.6973Z" fill="#231F20"/>
<path fill-rule="evenodd" clip-rule="evenodd" d="M26.7951 85.9209V68.1854L21.8947 64.427L16.9941 68.1854V85.9209H26.7951Z" fill="#00ABEA"/>
<path fill-rule="evenodd" clip-rule="evenodd" d="M62.0459 43.3463V85.9209H71.8471V43.3463L66.9465 39.5876L62.0459 43.3463Z" fill="#00ABEA"/>
<path fill-rule="evenodd" clip-rule="evenodd" d="M24.5234 25.7388C22.6681 24.9872 21.5759 23.5202 21.6013 21.8148C21.6273 20.0805 22.7956 18.5331 24.5781 17.8721C24.7725 17.8002 24.9667 17.7389 25.1606 17.6881V16.6802C25.1606 16.3139 25.3062 15.9625 25.5652 15.7035C25.8242 15.4445 26.1755 15.2989 26.5419 15.2989C26.9082 15.2989 27.2595 15.4445 27.5186 15.7035C27.7776 15.9625 27.9231 16.3139 27.9231 16.6802V17.6552C29.6158 18.0818 31.0411 19.3411 31.7567 21.2302C31.821 21.3998 31.8512 21.5805 31.8457 21.7618C31.8401 21.9431 31.7989 22.1216 31.7244 22.287C31.6499 22.4524 31.5436 22.6015 31.4114 22.7258C31.2793 22.8501 31.124 22.9471 30.9544 23.0114C30.7847 23.0757 30.6041 23.1059 30.4228 23.1004C30.2414 23.0948 30.063 23.0536 29.8976 22.9791C29.7322 22.9046 29.5831 22.7983 29.4588 22.6661C29.3345 22.534 29.2374 22.3787 29.1732 22.2091C28.5583 20.5861 27.0976 19.8841 25.5372 20.4622C24.7359 20.7591 24.3699 21.3762 24.3626 21.8552C24.352 22.5674 25.0847 22.9811 25.5384 23.1684C26.0193 23.3234 26.5143 23.4305 27.0162 23.4883C28.2041 23.6665 29.682 23.8881 30.9389 25.3977C31.4059 25.9326 31.7184 26.5844 31.8429 27.2834C31.9675 27.9824 31.8994 28.7021 31.646 29.3654C31.0724 30.8293 29.6875 31.8555 27.9223 32.14V33.0324C27.9223 33.3987 27.7768 33.75 27.5178 34.0091C27.2587 34.2681 26.9074 34.4136 26.5411 34.4136C26.1747 34.4136 25.8234 34.2681 25.5644 34.0091C25.3053 33.75 25.1598 33.3987 25.1598 33.0324V32.0614C23.0804 31.5841 21.5103 30.1492 21.0421 28.1127C20.96 27.7556 21.0231 27.3806 21.2175 27.07C21.4119 26.7595 21.7218 26.5389 22.0788 26.4568C22.4359 26.3747 22.8109 26.4378 23.1215 26.6322C23.432 26.8267 23.6526 27.1365 23.7347 27.4936C24.1594 29.3404 26.2283 29.5788 27.384 29.4287C28.2095 29.3209 28.8571 28.9106 29.074 28.357C29.1474 28.1543 29.1622 27.935 29.1166 27.7243C29.071 27.5136 28.9669 27.32 28.8163 27.1657C28.2573 26.4944 27.7048 26.3857 26.6071 26.2212C25.9121 26.1374 25.2278 25.9808 24.5655 25.754L24.5226 25.7375L24.5234 25.7388ZM26.4596 37.1418C29.3007 37.1396 32.0532 36.1525 34.2482 34.3486C36.4431 32.5446 37.9448 30.0355 38.4972 27.2486C39.0497 24.4617 38.6188 21.5695 37.278 19.0646C35.9372 16.5598 33.7695 14.5973 31.144 13.5114C28.5186 12.4256 25.5979 12.2836 22.8795 13.1097C20.1611 13.9357 17.8132 15.6787 16.2358 18.0417C14.6584 20.4047 13.949 23.2415 14.2286 26.0689C14.5081 28.8962 15.7593 31.5392 17.7689 33.5475C18.9094 34.6895 20.2643 35.5948 21.7557 36.2117C23.2471 36.8285 24.8457 37.1446 26.4596 37.1418Z" fill="#00ABEA"/>
</svg>
