<svg width="104" height="104" viewBox="0 0 104 104" fill="none" xmlns="http://www.w3.org/2000/svg">
<path fill-rule="evenodd" clip-rule="evenodd" d="M55.6485 47.244V6.04317C77.939 6.89102 96.2361 24.9716 97.3433 47.2442L55.6485 47.244ZM86.4664 16.5925C77.9077 8.08515 66.3424 3.29164 54.2749 3.25H54.267C53.9007 3.25 53.5494 3.39552 53.2903 3.65456C53.0313 3.91359 52.8858 4.26492 52.8858 4.63125V48.6255C52.8858 48.9918 53.0313 49.3431 53.2903 49.6022C53.5494 49.8612 53.9007 50.0067 54.267 50.0067H98.7717C98.9551 50.0068 99.1366 49.9703 99.3058 49.8994C99.4749 49.8285 99.6282 49.7246 99.7568 49.5939C99.8854 49.4631 99.9866 49.3081 100.055 49.1377C100.123 48.9674 100.156 48.7853 100.153 48.6019C99.9722 36.5481 95.0555 25.0495 86.4654 16.5915L86.4664 16.5925ZM81.6117 79.8818L57.8272 56.0958H91.0406C90.8871 64.9057 87.5362 73.3593 81.6121 79.8818H81.6117ZM93.8012 54.6918C93.7951 54.3296 93.6468 53.9843 93.3884 53.7303C93.1301 53.4764 92.7823 53.3341 92.42 53.3341H54.4913C54.2179 53.3339 53.9506 53.4148 53.7233 53.5666C53.4959 53.7184 53.3187 53.9342 53.2141 54.1868C53.1095 54.4393 53.0821 54.7173 53.1356 54.9854C53.189 55.2534 53.3208 55.4997 53.5142 55.6928L80.6657 82.8423C80.794 82.9706 80.9463 83.0725 81.114 83.1419C81.2816 83.2114 81.4613 83.2471 81.6428 83.2471H81.6505C81.8331 83.246 82.0138 83.2086 82.1818 83.1371C82.3499 83.0655 82.5021 82.9613 82.6296 82.8305C89.8163 75.5007 93.8323 65.6386 93.8106 55.3733C93.8106 55.1793 93.8065 54.9874 93.8027 54.7942L93.8006 54.6912L93.8012 54.6918ZM47.1981 97.9875C57.6712 98.0219 67.7454 93.9727 75.2815 86.6998L47.8121 59.0058L30.1319 94.2193C35.477 96.7072 41.3024 97.9934 47.1981 97.9875ZM6.60901 57.3978C6.60901 35.3982 24.2031 17.4302 46.0591 16.8246V56.3396L27.6678 92.9691C15.1256 86.0555 6.60901 72.7033 6.60901 57.3978ZM48.8225 56.1007V15.4302C48.8225 15.0652 48.678 14.715 48.4206 14.4562C48.1633 14.1974 47.8139 14.051 47.4489 14.0489L47.3565 14.0473C47.3039 14.0473 47.2509 14.0457 47.1979 14.0457C35.7002 14.0457 24.6734 18.6131 16.5433 26.7432C8.41315 34.8733 3.8457 45.9001 3.8457 57.3978C3.8457 68.8956 8.41315 79.9223 16.5433 88.0525C24.6734 96.1826 35.7002 100.75 47.1979 100.75C52.9831 100.768 58.7126 99.6196 64.0437 97.3725C69.3748 95.1254 74.1978 91.8261 78.2244 87.672C78.4777 87.4126 78.6189 87.064 78.6174 86.7014C78.6159 86.3388 78.4719 85.9913 78.2165 85.734L48.8225 56.1007Z" fill="#231F20"/>
<path fill-rule="evenodd" clip-rule="evenodd" d="M27.6682 92.9692L46.0595 56.3396V16.8247C24.2035 17.4302 6.60938 35.3983 6.60938 57.3979C6.60938 72.7034 15.126 86.0556 27.6682 92.9692Z" fill="#00ABEA"/>
<path fill-rule="evenodd" clip-rule="evenodd" d="M55.6484 47.2441H97.3433C96.2361 24.9716 77.939 6.89106 55.6484 6.04321V47.2441Z" fill="#00ABEA"/>
</svg>
