<svg width="104" height="104" viewBox="0 0 104 104" fill="none" xmlns="http://www.w3.org/2000/svg">
<path fill-rule="evenodd" clip-rule="evenodd" d="M67.3499 38.2299C66.1109 38.2302 64.8997 37.8631 63.8694 37.175C62.839 36.4869 62.0359 35.5087 61.5616 34.3641C61.0872 33.2195 60.963 31.96 61.2045 30.7447C61.4461 29.5295 62.0426 28.4132 62.9186 27.5371C63.7946 26.6609 64.9107 26.0642 66.1259 25.8224C67.3411 25.5806 68.6006 25.7046 69.7453 26.1787C70.89 26.6529 71.8684 27.4558 72.5567 28.486C73.245 29.5162 73.6123 30.7274 73.6123 31.9663C73.6103 33.6267 72.9499 35.2185 71.7759 36.3927C70.602 37.5669 69.0103 38.2276 67.3499 38.2299ZM40.3302 30.0669C39.0913 30.0669 37.8802 29.6995 36.8502 29.0111C35.8201 28.3228 35.0172 27.3444 34.5432 26.1998C34.0691 25.0552 33.9451 23.7957 34.1869 22.5806C34.4286 21.3655 35.0253 20.2494 35.9014 19.3734C36.7774 18.4974 37.8936 17.9009 39.1087 17.6593C40.3238 17.4176 41.5833 17.5418 42.7279 18.0159C43.8724 18.4901 44.8507 19.293 45.5389 20.3232C46.2272 21.3533 46.5945 22.5645 46.5944 23.8034C46.5928 25.4642 45.9323 27.0565 44.7578 28.2308C43.5834 29.4051 41.991 30.0655 40.3302 30.0669ZM12.2787 49.3821C11.0398 49.382 9.82874 49.0145 8.79868 48.3262C7.76862 47.6378 6.96582 46.6595 6.49178 45.5149C6.01775 44.3703 5.89377 43.1108 6.13553 41.8957C6.37729 40.6807 6.97392 39.5646 7.84999 38.6886C8.72606 37.8126 9.84221 37.2161 11.0573 36.9744C12.2724 36.7328 13.5319 36.8569 14.6764 37.331C15.821 37.8052 16.7992 38.6081 17.4875 39.6382C18.1757 40.6683 18.5431 41.8794 18.543 43.1183C18.5411 44.7791 17.8804 46.3712 16.706 47.5455C15.5316 48.7197 13.9394 49.3802 12.2787 49.3821ZM91.7229 11.2734C92.9618 11.2735 94.1729 11.6409 95.2029 12.3293C96.233 13.0176 97.0359 13.996 97.5099 15.1406C97.984 16.2852 98.108 17.5447 97.8663 18.7598C97.6245 19.9749 97.0279 21.091 96.1518 21.9671C95.2758 22.8431 94.1596 23.4397 92.9445 23.6814C91.7294 23.9231 90.4699 23.799 89.3253 23.3249C88.1807 22.8508 87.2024 22.048 86.5141 21.0179C85.8258 19.9877 85.4584 18.7767 85.4583 17.5378C85.4602 15.8769 86.1209 14.2846 87.2953 13.1102C88.4697 11.9359 90.062 11.2753 91.7229 11.2734ZM84.9867 23.5367C86.4981 25.2284 88.5924 26.2874 90.8508 26.5019C93.1092 26.7165 95.3654 26.0709 97.1684 24.694C98.9714 23.3172 100.188 21.3106 100.576 19.0754C100.964 16.8402 100.494 14.541 99.2595 12.6374C98.0255 10.7338 96.1185 9.3661 93.9197 8.8076C91.721 8.2491 89.3924 8.54098 87.3996 9.62491C85.4067 10.7088 83.8963 12.505 83.1703 14.6542C82.4443 16.8035 82.5561 19.1476 83.4835 21.218L74.7835 26.8519C73.7955 25.4137 72.4117 24.2928 70.7997 23.625C69.1877 22.9572 67.4167 22.7712 65.7011 23.0895C63.9855 23.4078 62.3991 24.2167 61.1339 25.4182C59.8686 26.6198 58.979 28.1625 58.5727 29.8593L49.2472 25.2159C49.4717 23.8067 49.3589 22.3645 48.9182 21.0073C48.4774 19.6502 47.7213 18.4169 46.7117 17.4085C45.7021 16.4001 44.4679 15.6454 43.1102 15.2063C41.7526 14.7671 40.3102 14.6561 38.9013 14.8822C37.4924 15.1083 36.1572 15.6652 35.0051 16.5071C33.8531 17.3491 32.917 18.4521 32.2737 19.7258C31.6304 20.9994 31.2982 22.4075 31.3043 23.8344C31.3104 25.2613 31.6547 26.6664 32.3088 27.9345L19.2828 37.4339C17.8503 35.6753 15.8071 34.522 13.5613 34.2043C11.3155 33.8867 9.03257 34.428 7.16851 35.7201C5.30445 37.0123 3.99655 38.9602 3.50609 41.1747C3.01563 43.3892 3.37873 45.7072 4.52284 47.6656C5.66696 49.624 7.50785 51.0787 9.67775 51.739C11.8476 52.3993 14.1868 52.2166 16.2278 51.2274C18.2689 50.2382 19.8616 48.5153 20.6878 46.403C21.5139 44.2907 21.5127 41.9444 20.6844 39.833L33.9359 30.1683C34.9429 31.1816 36.1762 31.9413 37.5343 32.3846C38.8924 32.828 40.3363 32.9423 41.7473 32.7183C43.1582 32.4943 44.4958 31.9383 45.6498 31.0961C46.8037 30.2539 47.7411 29.1496 48.3847 27.8742L58.3657 32.8434C58.5913 35.1501 59.6955 37.2816 61.4496 38.7964C63.2037 40.3112 65.4733 41.0932 67.7882 40.9804C70.1031 40.8677 72.2859 39.8688 73.8845 38.1908C75.4831 36.5127 76.375 34.284 76.3754 31.9663C76.3764 31.0834 76.2466 30.2052 75.9904 29.3602L84.9867 23.5362V23.5367ZM18.9412 92.7265H7.06546V67.2585L13.0024 62.7046L18.9412 67.2581V92.7265ZM21.1636 65.481L13.8433 59.8674C13.6021 59.6823 13.3066 59.582 13.0025 59.582C12.6984 59.582 12.4029 59.6823 12.1617 59.8674L4.84327 65.481C4.67495 65.61 4.5386 65.776 4.4448 65.9663C4.35099 66.1565 4.30225 66.3657 4.30235 66.5778V94.1078C4.30273 94.474 4.44837 94.8251 4.70733 95.084C4.96628 95.343 5.31739 95.4886 5.6836 95.489H20.3224C20.6887 95.489 21.0401 95.3435 21.2991 95.0845C21.5581 94.8254 21.7037 94.4741 21.7037 94.1078V66.5768C21.7033 66.365 21.6544 66.156 21.5606 65.9661C21.4669 65.7761 21.3308 65.6101 21.1629 65.481H21.1636ZM45.1853 92.7265H33.3096V48.5094L39.2466 43.9562L45.1853 48.5097V92.7265ZM47.4075 46.7319C47.5755 46.8612 47.7116 47.0273 47.8054 47.2175C47.8992 47.4076 47.9481 47.6168 47.9484 47.8288V94.1078C47.9484 94.4741 47.8029 94.8254 47.5439 95.0845C47.2848 95.3435 46.9335 95.489 46.5672 95.489H31.928C31.5617 95.4886 31.2106 95.343 30.9517 95.084C30.6927 94.8251 30.5471 94.474 30.5467 94.1078V47.8284C30.5466 47.6163 30.5953 47.407 30.6891 47.2168C30.7828 47.0266 30.9191 46.8605 31.0874 46.7315L38.4078 41.1185C38.6491 40.9334 38.9446 40.8331 39.2487 40.8331C39.5527 40.8331 39.8483 40.9334 40.0895 41.1185L47.4077 46.7317L47.4075 46.7319ZM73.0183 92.7265H61.1444V54.5175L67.0814 49.9638L73.0183 54.5175V92.7265ZM75.2405 52.7397C75.4088 52.8688 75.5452 53.0348 75.639 53.225C75.7328 53.4152 75.7815 53.6245 75.7814 53.8366V94.1078C75.7814 94.4741 75.6359 94.8254 75.3769 95.0845C75.1178 95.3435 74.7665 95.489 74.4002 95.489H59.7628C59.3965 95.489 59.0451 95.3435 58.7861 95.0845C58.5271 94.8254 58.3815 94.4741 58.3815 94.1078V53.8362C58.3814 53.6241 58.4301 53.4149 58.5239 53.2247C58.6177 53.0344 58.754 52.8684 58.9223 52.7393L66.2407 47.1262C66.4819 46.941 66.7775 46.8407 67.0816 46.8407C67.3857 46.8407 67.6813 46.941 67.9225 47.1262L75.2407 52.7397H75.2405ZM97.6736 92.7265H85.7979V41.0775L91.7347 36.5234L97.6736 41.0775V92.7265ZM99.8958 39.2998C100.064 39.4291 100.2 39.5952 100.294 39.7853C100.387 39.9755 100.436 40.1846 100.437 40.3966V94.1078C100.437 94.4741 100.291 94.8254 100.032 95.0845C99.7729 95.3435 99.4216 95.489 99.0553 95.489H84.4163C84.05 95.4887 83.6989 95.3431 83.4399 95.0841C83.181 94.8251 83.0354 94.474 83.035 94.1078V40.396C83.0349 40.184 83.0836 39.9747 83.1774 39.7845C83.2711 39.5943 83.4075 39.4282 83.5757 39.2992L90.8941 33.6858C91.1354 33.5007 91.431 33.4003 91.7351 33.4003C92.0392 33.4003 92.3348 33.5007 92.576 33.6858L99.8958 39.2998Z" fill="#231F20"/>
<path fill-rule="evenodd" clip-rule="evenodd" d="M18.9411 92.7265V67.2585L13.0024 62.7051L7.06543 67.2585V92.7265H18.9411Z" fill="#00ABEA"/>
<path fill-rule="evenodd" clip-rule="evenodd" d="M61.1445 54.5175V92.7266H73.0184V54.5175L67.0815 49.9639L61.1445 54.5175Z" fill="#00ABEA"/>
<path fill-rule="evenodd" clip-rule="evenodd" d="M12.2779 49.3821C13.5167 49.3818 14.7277 49.0142 15.7576 48.3258C16.7876 47.6373 17.5903 46.6589 18.0642 45.5143C18.5381 44.3697 18.662 43.1103 18.4201 41.8952C18.1783 40.6802 17.5816 39.5642 16.7055 38.6883C15.8294 37.8124 14.7132 37.2159 13.4981 36.9744C12.2831 36.7328 11.0236 36.8569 9.87913 37.3311C8.73461 37.8053 7.7564 38.6082 7.06818 39.6383C6.37997 40.6684 6.01266 41.8794 6.0127 43.1183C6.01458 44.7792 6.67531 46.3716 7.84989 47.5459C9.02447 48.7202 10.617 49.3806 12.2779 49.3821Z" fill="#00ABEA"/>
<path fill-rule="evenodd" clip-rule="evenodd" d="M34.0674 23.8034C34.0675 25.0422 34.435 26.2532 35.1234 27.2831C35.8117 28.3131 36.7901 29.1158 37.9346 29.5898C39.0792 30.0637 40.3387 30.1876 41.5537 29.9458C42.7687 29.704 43.8847 29.1073 44.7605 28.2312C45.6364 27.3551 46.2328 26.2389 46.4743 25.0239C46.7158 23.8088 46.5916 22.5494 46.1174 21.4049C45.6431 20.2605 44.8402 19.2823 43.81 18.5942C42.7798 17.9061 41.5688 17.539 40.3299 17.5392C38.6693 17.5411 37.0772 18.2017 35.9031 19.3761C34.7291 20.5505 34.0688 22.1427 34.0674 23.8034Z" fill="#00ABEA"/>
<path fill-rule="evenodd" clip-rule="evenodd" d="M67.3497 25.7023C66.1108 25.7021 64.8997 26.0693 63.8695 26.7575C62.8393 27.4457 62.0363 28.4239 61.562 29.5685C61.0878 30.7131 60.9636 31.9726 61.2052 33.1877C61.4468 34.4028 62.0433 35.5191 62.9193 36.3952C63.7953 37.2713 64.9114 37.868 66.1265 38.1098C67.3416 38.3515 68.6011 38.2276 69.7457 37.7535C70.8904 37.2795 71.8687 36.4766 72.5571 35.4465C73.2454 34.4165 73.6129 33.2054 73.6129 31.9664C73.611 30.3058 72.9506 28.7138 71.7765 27.5394C70.6023 26.3651 69.0104 25.7044 67.3497 25.7023Z" fill="#00ABEA"/>
<path fill-rule="evenodd" clip-rule="evenodd" d="M85.458 17.5374C85.4579 18.7764 85.8252 19.9877 86.5135 21.018C87.2018 22.0483 88.1801 22.8513 89.3248 23.3256C90.4695 23.7998 91.7291 23.9239 92.9444 23.6823C94.1596 23.4406 95.2759 22.844 96.1521 21.968C97.0283 21.0919 97.625 19.9756 97.8667 18.7604C98.1085 17.5452 97.9845 16.2855 97.5104 15.1408C97.0362 13.9961 96.2333 13.0176 95.2031 12.3293C94.1728 11.6409 92.9616 11.2734 91.7226 11.2734C90.0618 11.2753 88.4695 11.9358 87.2951 13.1101C86.1207 14.2844 85.46 15.8766 85.458 17.5374Z" fill="#00ABEA"/>
</svg>
