<svg width="104" height="104" viewBox="0 0 104 104" fill="none" xmlns="http://www.w3.org/2000/svg">
<path fill-rule="evenodd" clip-rule="evenodd" d="M69.4109 34.4541L69.6715 17.628H95.2979L90.9283 24.8278C90.7992 25.0399 90.7298 25.2829 90.7273 25.5313C90.7248 25.7796 90.7893 26.024 90.9141 26.2387L95.6847 34.4541H69.4109ZM71.9296 97.9867H64.1276V53.2151L68.0292 50.2229L71.9292 53.2151V97.9875L71.9296 97.9867ZM65.9374 8.44919C65.9558 7.81517 66.2205 7.21326 66.6754 6.77127C67.1303 6.32929 67.7396 6.08204 68.3739 6.08204C69.0082 6.08204 69.6175 6.32929 70.0724 6.77127C70.5274 7.21326 70.7921 7.81517 70.8104 8.44919C70.7921 9.08321 70.5274 9.68512 70.0724 10.1271C69.6175 10.5691 69.0082 10.8163 68.3739 10.8163C67.7396 10.8163 67.1303 10.5691 66.6754 10.1271C66.2205 9.68512 65.9558 9.08321 65.9374 8.44919ZM99.2786 35.142L93.7148 25.5604L98.9333 16.9632C99.0602 16.7535 99.1291 16.5139 99.1329 16.2689C99.1367 16.0239 99.0753 15.7822 98.955 15.5687C98.8347 15.3552 98.6598 15.1776 98.4482 15.0539C98.2366 14.9303 97.9959 14.8651 97.7509 14.8651H69.715L69.7385 13.3983C70.8394 13.1218 71.8156 12.4839 72.5108 11.5867C73.2061 10.6895 73.5802 9.58502 73.5733 8.45C73.5733 7.07087 73.0255 5.74823 72.0503 4.77304C71.0751 3.79786 69.7524 3.25 68.3733 3.25C66.9942 3.25 65.6716 3.79786 64.6964 4.77304C63.7212 5.74823 63.1733 7.07087 63.1733 8.45C63.166 9.57873 63.5357 10.6776 64.2238 11.5724C64.9119 12.4672 65.879 13.1066 66.9718 13.3894L66.4369 47.9613L61.9034 51.4386C61.735 51.5675 61.5985 51.7336 61.5047 51.9238C61.4109 52.114 61.3622 52.3233 61.3625 52.5354V99.3688C61.3625 99.7351 61.508 100.086 61.767 100.345C62.0261 100.604 62.3774 100.75 62.7437 100.75H73.3093C73.6756 100.75 74.0269 100.604 74.2859 100.345C74.545 100.086 74.6905 99.7351 74.6905 99.3688V52.5334C74.6905 52.3215 74.6417 52.1123 74.5479 51.9223C74.454 51.7323 74.3177 51.5664 74.1494 51.4375L69.2035 47.6442L69.366 37.2172H98.0828C98.3257 37.2174 98.5644 37.1536 98.7747 37.0322C98.9851 36.9108 99.1598 36.736 99.281 36.5256C99.4023 36.3151 99.466 36.0764 99.4655 35.8335C99.4651 35.5906 99.4006 35.3521 99.2786 35.142ZM15.0991 97.9875H7.29709V83.4001L11.1971 80.4078L15.0989 83.4001L15.0991 97.9875ZM17.3215 81.6227L12.0378 77.5702C11.7966 77.3851 11.5011 77.2849 11.1971 77.2849C10.8931 77.2849 10.5976 77.3851 10.3564 77.5702L5.0751 81.6217C4.90678 81.7507 4.77043 81.9168 4.67663 82.107C4.58282 82.2972 4.53408 82.5065 4.53418 82.7186V99.3688C4.53418 99.7351 4.6797 100.086 4.93874 100.345C5.19777 100.604 5.5491 100.75 5.91543 100.75H16.4806C16.8469 100.75 17.1982 100.604 17.4573 100.345C17.7163 100.086 17.8618 99.7351 17.8618 99.3688V82.7186C17.8619 82.5065 17.8132 82.2972 17.7194 82.107C17.6256 81.9168 17.4892 81.7507 17.3209 81.6217L17.3215 81.6227ZM34.0434 97.9875H26.2413V73.684L30.1413 70.6918L34.0434 73.684V97.9875ZM36.2649 71.9062L30.9815 67.8545C30.7402 67.6694 30.4446 67.569 30.1405 67.569C29.8364 67.569 29.5408 67.6694 29.2996 67.8545L24.0183 71.906C23.85 72.0351 23.7137 72.2011 23.6199 72.3914C23.5261 72.5816 23.4773 72.7908 23.4774 73.0029V99.3688C23.4774 99.7351 23.6229 100.086 23.882 100.345C24.141 100.604 24.4923 100.75 24.8587 100.75H35.4246C35.7909 100.75 36.1423 100.604 36.4013 100.345C36.6603 100.086 36.8059 99.7351 36.8059 99.3688V73.0031C36.806 72.7911 36.7573 72.5818 36.6635 72.3916C36.5697 72.2014 36.4332 72.0353 36.2649 71.9062ZM52.9862 97.9875H45.184V62.5109L49.084 59.5187L52.9862 62.5105V97.9875ZM55.209 60.7344L49.9277 56.6822C49.6865 56.4971 49.3909 56.3967 49.0868 56.3967C48.7827 56.3967 48.4871 56.4971 48.2459 56.6822L42.9616 60.7344C42.7932 60.8633 42.6568 61.0294 42.563 61.2196C42.4692 61.4098 42.4205 61.6191 42.4206 61.8312V99.3688C42.4206 99.7351 42.5662 100.086 42.8252 100.345C43.0842 100.604 43.4356 100.75 43.8019 100.75H54.3672C54.7336 100.75 55.0849 100.604 55.3439 100.345C55.603 100.086 55.7485 99.7351 55.7485 99.3688V61.8294C55.7485 61.6178 55.6998 61.4089 55.6063 61.2191C55.5127 61.0292 55.3768 60.8634 55.209 60.7344Z" fill="#231F20"/>
<path fill-rule="evenodd" clip-rule="evenodd" d="M7.29688 83.4001V97.9867H15.0989V83.4001L11.1971 80.4078L7.29688 83.4001Z" fill="#00ABEA"/>
<path fill-rule="evenodd" clip-rule="evenodd" d="M45.1836 62.5109V97.9867H52.9858V62.5105L49.0836 59.5187L45.1836 62.5109Z" fill="#00ABEA"/>
<path fill-rule="evenodd" clip-rule="evenodd" d="M69.4111 34.4541H95.6849L90.9144 26.2387C90.7896 26.024 90.725 25.7796 90.7275 25.5313C90.73 25.283 90.7995 25.04 90.9286 24.8278L95.2982 17.6281H69.6717L69.4111 34.4541Z" fill="#00ABEA"/>
<path fill-rule="evenodd" clip-rule="evenodd" d="M65.9375 8.44881C65.9558 9.08283 66.2205 9.68474 66.6755 10.1267C67.1304 10.5687 67.7397 10.816 68.374 10.816C69.0083 10.816 69.6176 10.5687 70.0725 10.1267C70.5274 9.68474 70.7922 9.08283 70.8105 8.44881C70.7922 7.81479 70.5274 7.21288 70.0725 6.77089C69.6176 6.32891 69.0083 6.08167 68.374 6.08167C67.7397 6.08167 67.1304 6.32891 66.6755 6.77089C66.2205 7.21288 65.9558 7.81479 65.9375 8.44881Z" fill="#00ABEA"/>
</svg>
