<svg width="104" height="104" viewBox="0 0 104 104" fill="none" xmlns="http://www.w3.org/2000/svg">
<path fill-rule="evenodd" clip-rule="evenodd" d="M81.1927 62.4341V45.9266C89.9517 46.6507 97.0771 53.6876 97.9075 62.435L81.1927 62.4341ZM94.5053 49.1886C90.6007 45.3077 85.3246 43.121 79.8194 43.1017H79.8115C79.6301 43.1016 79.4504 43.1372 79.2827 43.2065C79.1151 43.2759 78.9627 43.3776 78.8344 43.5059C78.7061 43.6342 78.6044 43.7865 78.535 43.9542C78.4657 44.1219 78.4301 44.3015 78.4302 44.483V63.8154C78.4302 64.1817 78.5758 64.533 78.8348 64.7921C79.0938 65.0511 79.4452 65.1966 79.8115 65.1966H99.3686C99.5519 65.1965 99.7334 65.1598 99.9025 65.0889C100.072 65.0179 100.225 64.914 100.353 64.7833C100.482 64.6525 100.583 64.4975 100.651 64.3273C100.719 64.157 100.753 63.975 100.75 63.7916C100.668 58.2922 98.4246 53.0459 94.5055 49.1869L94.5053 49.1886ZM91.7538 75.7929L84.7533 68.7934H94.519C94.3049 71.3475 93.3431 73.782 91.7538 75.7929ZM97.3255 67.3878C97.3193 67.0256 97.171 66.6803 96.9127 66.4264C96.6543 66.1725 96.3065 66.0302 95.9443 66.0303H81.4178C81.1447 66.0306 80.8778 66.1118 80.6507 66.2637C80.4237 66.4155 80.2468 66.6313 80.1423 66.8836C80.0377 67.1359 80.0103 67.4135 80.0633 67.6815C80.1164 67.9494 80.2477 68.1956 80.4406 68.389L90.8406 78.7873C90.9689 78.9156 91.1212 79.0174 91.2888 79.0868C91.4565 79.1563 91.6361 79.192 91.8176 79.192H91.8255C92.0084 79.1907 92.1892 79.1532 92.3576 79.0818C92.5259 79.0103 92.6785 78.9062 92.8064 78.7755C95.7142 75.8092 97.339 71.8184 97.33 67.6646C97.33 67.5834 97.328 67.5041 97.328 67.4239L97.3263 67.3884L97.3255 67.3878ZM76.0157 84.7641C80.146 84.7782 84.1387 83.2799 87.2402 80.5521L76.4949 69.7188L69.5752 83.5006C71.6193 84.3371 73.8071 84.7663 76.0157 84.7641ZM58.9532 67.7016C58.9585 63.3986 60.5873 59.2561 63.514 56.1017C66.4407 52.9474 70.4499 51.0136 74.7405 50.6866V67.0532L67.1103 82.2496C64.6197 80.725 62.5619 78.5869 61.1337 76.0398C59.7055 73.4927 58.9547 70.6218 58.9532 67.7016ZM65.7743 37.0673L62.0183 39.9486V53.6756C64.1357 51.5606 66.7032 49.9511 69.5295 48.967V39.9482L65.7735 37.0675L65.7743 37.0673ZM77.5038 66.8125V49.2597C77.5038 48.8946 77.3593 48.5444 77.1019 48.2856C76.8445 48.0268 76.4951 47.8804 76.1301 47.8784L76.0157 47.8768C74.7666 47.877 73.5202 47.9949 72.2932 48.2288V39.2669C72.2932 39.055 72.2444 38.8459 72.1506 38.6558C72.0568 38.4658 71.9204 38.2999 71.7521 38.1711L66.6147 34.2304C66.3733 34.0455 66.0778 33.9453 65.7738 33.9453C65.4698 33.9453 65.1743 34.0455 64.933 34.2304L59.796 38.1711C59.6278 38.3002 59.4915 38.4663 59.3977 38.6565C59.3039 38.8467 59.255 39.0559 59.2548 39.2679V57.1251C56.6408 61.2663 55.6524 66.2287 56.4801 71.0556C57.3079 75.8824 59.8933 80.2319 63.7378 83.2655C67.5823 86.2992 72.4138 87.8022 77.3008 87.4849C82.1878 87.1675 86.7843 85.0522 90.2042 81.5468C90.4575 81.2874 90.5987 80.9388 90.5973 80.5762C90.5958 80.2136 90.4519 79.8661 90.1965 79.6088L77.5038 66.8131V66.8125ZM48.6564 37.3344C47.8681 37.3345 47.0975 37.1009 46.4421 36.663C45.7866 36.2252 45.2757 35.6028 44.974 34.8746C44.6722 34.1463 44.5932 33.345 44.747 32.5719C44.9007 31.7988 45.2802 31.0886 45.8376 30.5312C46.3949 29.9738 47.1051 29.5942 47.8782 29.4404C48.6513 29.2866 49.4526 29.3655 50.1809 29.6671C50.9091 29.9688 51.5316 30.4796 51.9695 31.135C52.4074 31.7905 52.6411 32.561 52.6411 33.3493C52.6399 34.4058 52.2197 35.4186 51.4727 36.1657C50.7257 36.9128 49.7129 37.3331 48.6564 37.3344ZM29.6912 31.6044C28.903 31.6045 28.1324 31.3708 27.4769 30.933C26.8215 30.4951 26.3106 29.8727 26.0089 29.1445C25.7072 28.4162 25.6283 27.6149 25.782 26.8418C25.9358 26.0687 26.3153 25.3585 26.8727 24.8012C27.43 24.2438 28.1402 23.8642 28.9133 23.7104C29.6864 23.5566 30.4877 23.6355 31.216 23.9372C31.9442 24.2389 32.5666 24.7497 33.0045 25.4051C33.4424 26.0605 33.6761 26.8311 33.6761 27.6193C33.6748 28.6758 33.2545 29.6886 32.5075 30.4357C31.7605 31.1827 30.7477 31.603 29.6912 31.6044ZM9.99803 45.163C9.20985 45.1628 8.43944 44.9288 7.78422 44.4908C7.12899 44.0527 6.61837 43.4302 6.31693 42.7019C6.01548 41.9737 5.93674 41.1724 6.09067 40.3994C6.2446 39.6264 6.62428 38.9164 7.18171 38.3592C7.73913 37.802 8.44927 37.4225 9.22232 37.2689C9.99538 37.1152 10.7966 37.1942 11.5248 37.4959C12.2529 37.7977 12.8753 38.3085 13.3131 38.9639C13.7509 39.6193 13.9846 40.3897 13.9846 41.1779C13.9833 42.2347 13.5628 43.2478 12.8154 43.9949C12.068 44.742 11.0548 45.1621 9.99803 45.163ZM65.7662 19.236C66.5545 19.2358 67.3251 19.4695 67.9806 19.9073C68.6361 20.3452 69.147 20.9676 69.4488 21.6958C69.7505 22.424 69.8295 23.2254 69.6758 23.9986C69.5221 24.7717 69.1426 25.4819 68.5853 26.0394C68.0279 26.5968 67.3178 26.9765 66.5447 27.1303C65.7716 27.2842 64.9702 27.2053 64.2419 26.9037C63.5136 26.6021 62.8911 26.0913 62.4531 25.4359C62.0151 24.7805 61.7813 24.01 61.7813 23.2217C61.7824 22.1651 62.2026 21.1521 62.9496 20.4049C63.6967 19.6577 64.7096 19.2373 65.7662 19.236ZM60.9725 27.9653L55.2015 31.7028C55.4259 32.5938 55.466 33.5213 55.3193 34.4284C55.1726 35.3355 54.8421 36.2031 54.3482 36.978C53.8543 37.7529 53.2074 38.4187 52.447 38.9347C51.6867 39.4507 50.8289 39.8059 49.9264 39.9787C49.0239 40.1514 48.0956 40.138 47.1985 39.9393C46.3013 39.7406 45.4542 39.3607 44.7091 38.823C43.9639 38.2853 43.3365 37.6011 42.8651 36.8123C42.3938 36.0234 42.0886 35.1467 41.9681 34.2357L35.516 31.0235C35.0106 31.8905 34.318 32.6337 33.4887 33.1988C32.6594 33.7639 31.7143 34.1366 30.7225 34.2898C29.7308 34.443 28.7173 34.3727 27.7561 34.0841C26.795 33.7956 25.9104 33.296 25.167 32.6219L16.3898 39.0203C16.6267 39.7145 16.7475 40.443 16.7471 41.1765C16.7491 42.7531 16.1996 44.2808 15.1939 45.495C14.1881 46.7092 12.7894 47.5334 11.2399 47.8249C9.69046 48.1164 8.08785 47.8569 6.70961 47.0912C5.33137 46.3255 4.2643 45.102 3.6932 43.6324C3.1221 42.1628 3.08293 40.5398 3.58247 39.0444C4.08201 37.549 5.0888 36.2754 6.4285 35.4441C7.7682 34.6128 9.35643 34.2763 10.9181 34.4927C12.4799 34.7091 13.9167 35.4649 14.9799 36.6291L23.5375 30.3881C23.1101 29.4411 22.907 28.4081 22.9443 27.3697C22.9815 26.3313 23.258 25.3155 23.7522 24.4015C24.2464 23.4875 24.945 22.6999 25.7935 22.1001C26.642 21.5004 27.6175 21.1046 28.644 20.9437C29.6706 20.7828 30.7204 20.8611 31.7117 21.1725C32.703 21.4838 33.609 22.0199 34.3592 22.7389C35.1094 23.4578 35.6834 24.3403 36.0366 25.3175C36.3898 26.2947 36.5125 27.3403 36.3953 28.3727L42.234 31.2813C42.6096 30.1139 43.2964 29.0711 44.2205 28.2649C45.1446 27.4588 46.271 26.9199 47.4785 26.7062C48.6861 26.4925 49.929 26.6122 51.0736 27.0522C52.2182 27.4923 53.2212 28.2361 53.9746 29.2037L59.4691 25.6464C58.8653 24.0854 58.8617 22.3559 59.459 20.7924C60.0563 19.2289 61.212 17.9423 62.7028 17.1815C64.1936 16.4206 65.9136 16.2395 67.5301 16.6731C69.1467 17.1067 70.5451 18.1243 71.455 19.5291C72.3648 20.9339 72.7216 22.6262 72.4562 24.2787C72.1908 25.9313 71.3222 27.4267 70.0182 28.476C68.7142 29.5253 67.0675 30.0539 65.3964 29.9595C63.7254 29.8652 62.1486 29.1546 60.971 27.9653H60.9725ZM14.263 75.5895H6.75148V58.3268L10.5071 55.446L14.263 58.3268V75.5895ZM16.4856 56.55L11.3482 52.6094C11.107 52.4243 10.8114 52.3239 10.5073 52.3239C10.2032 52.3239 9.90757 52.4243 9.66632 52.6094L4.5295 56.55C4.36147 56.6793 4.22534 56.8454 4.13156 57.0356C4.03779 57.2257 3.98887 57.4349 3.98857 57.6469V76.9724C3.98895 77.3386 4.13459 77.6897 4.39355 77.9487C4.6525 78.2076 5.00361 78.3533 5.36982 78.3537H15.6447C16.011 78.3537 16.3624 78.2081 16.6214 77.9491C16.8804 77.6901 17.0259 77.3387 17.0259 76.9724V57.6451C17.0259 57.4332 16.9772 57.2241 16.8835 57.0341C16.7897 56.8441 16.6535 56.6782 16.4854 56.5492L16.4856 56.55ZM32.6857 75.5903V45.1661L28.9297 42.285L25.1735 45.1661V75.5895L32.6857 75.5903ZM34.9079 43.3889L29.7702 39.4483C29.529 39.2632 29.2334 39.1629 28.9294 39.1629C28.6253 39.1629 28.3298 39.2632 28.0885 39.4483L22.9515 43.3889C22.7834 43.5182 22.6472 43.6843 22.5533 43.8744C22.4595 44.0646 22.4106 44.2738 22.4104 44.4858V76.971C22.4107 77.3372 22.5563 77.6884 22.8153 77.9473C23.0743 78.2063 23.4254 78.3519 23.7916 78.3522H34.0669C34.4332 78.3522 34.7846 78.2067 35.0436 77.9477C35.3026 77.6886 35.4482 77.3373 35.4482 76.971V44.4844C35.4481 44.2725 35.3993 44.0634 35.3056 43.8734C35.2118 43.6834 35.0756 43.5175 34.9074 43.3885L34.9079 43.3889ZM52.2251 75.5903V49.3832L48.4691 46.5022L44.7129 49.3832V75.5895L52.2251 75.5903ZM54.4473 47.6062L49.3096 43.6656C49.0684 43.4806 48.7729 43.3803 48.4689 43.3803C48.1649 43.3803 47.8694 43.4806 47.6282 43.6656L42.4909 47.6062C42.3225 47.7352 42.1861 47.9012 42.0922 48.0914C41.9984 48.2817 41.9496 48.491 41.9498 48.7031V76.971C41.9498 77.3373 42.0953 77.6886 42.3544 77.9477C42.6134 78.2067 42.9647 78.3522 43.331 78.3522H53.6063C53.9727 78.3522 54.324 78.2067 54.583 77.9477C54.842 77.6886 54.9876 77.3373 54.9876 76.971V48.7015C54.9876 48.4896 54.9389 48.2805 54.8452 48.0904C54.7515 47.9004 54.6154 47.7344 54.4473 47.6054V47.6062Z" fill="#231F20"/>
<path fill-rule="evenodd" clip-rule="evenodd" d="M74.7404 50.6873C71.1411 50.9562 67.7199 52.3599 64.9689 54.6964C62.2178 57.0329 60.2788 60.1818 59.4307 63.69C58.5826 67.1983 58.8692 70.8852 60.2492 74.2203C61.6292 77.5554 64.0314 80.3669 67.1104 82.2502L74.7406 67.0538L74.7404 50.6873Z" fill="#00ABEA"/>
<path fill-rule="evenodd" clip-rule="evenodd" d="M81.1934 45.9266V62.4348H97.9081C97.0771 53.687 89.9523 46.6502 81.1934 45.9266Z" fill="#00ABEA"/>
<path fill-rule="evenodd" clip-rule="evenodd" d="M52.2251 75.5895V49.3831L48.4691 46.5022L44.7129 49.3831V75.5895H52.2251Z" fill="#00ABEA"/>
<path fill-rule="evenodd" clip-rule="evenodd" d="M14.2635 75.5895V58.3268L10.5075 55.446L6.75195 58.3268V75.5895H14.2635Z" fill="#00ABEA"/>
<path fill-rule="evenodd" clip-rule="evenodd" d="M9.99841 45.1635C10.7866 45.1634 11.5571 44.9296 12.2124 44.4916C12.8678 44.0537 13.3785 43.4312 13.6801 42.703C13.9817 41.9747 14.0605 41.1734 13.9067 40.4004C13.7528 39.6273 13.3732 38.9172 12.8158 38.3599C12.2584 37.8026 11.5483 37.4231 10.7752 37.2694C10.0022 37.1157 9.20085 37.1947 8.47266 37.4963C7.74447 37.798 7.12208 38.3089 6.68421 38.9643C6.24635 39.6197 6.01266 40.3902 6.0127 41.1784C6.01393 42.235 6.43427 43.248 7.18149 43.9951C7.9287 44.7422 8.94177 45.1624 9.99841 45.1635Z" fill="#00ABEA"/>
<path fill-rule="evenodd" clip-rule="evenodd" d="M25.7051 27.6198C25.705 28.4081 25.9387 29.1788 26.3766 29.8343C26.8145 30.4898 27.4369 31.0007 28.1652 31.3025C28.8935 31.6043 29.6949 31.6833 30.4681 31.5296C31.2413 31.376 31.9515 30.9964 32.509 30.4391C33.0666 29.8818 33.4463 29.1716 33.6002 28.3985C33.7541 27.6253 33.6753 26.8239 33.3738 26.0955C33.0722 25.3671 32.5615 24.7445 31.9061 24.3065C31.2507 23.8684 30.4801 23.6344 29.6918 23.6343C28.635 23.6352 27.6216 24.0553 26.8742 24.8025C26.1268 25.5497 25.7063 26.5629 25.7051 27.6198Z" fill="#00ABEA"/>
<path fill-rule="evenodd" clip-rule="evenodd" d="M48.6568 29.3644C47.8686 29.3643 47.098 29.5979 46.4425 30.0357C45.7871 30.4736 45.2762 31.0959 44.9744 31.8242C44.6727 32.5524 44.5937 33.3537 44.7474 34.1268C44.9011 34.8999 45.2806 35.6101 45.838 36.1675C46.3953 36.7249 47.1054 37.1046 47.8785 37.2584C48.6516 37.4122 49.4529 37.3333 50.1812 37.0317C50.9094 36.7301 51.5319 36.2193 51.9698 35.5639C52.4078 34.9085 52.6415 34.1379 52.6415 33.3497C52.6403 32.2932 52.2202 31.2803 51.4732 30.5332C50.7262 29.7861 49.7133 29.3657 48.6568 29.3644Z" fill="#00ABEA"/>
<path fill-rule="evenodd" clip-rule="evenodd" d="M61.7812 23.2213C61.7813 24.0094 62.0151 24.7798 62.453 25.4351C62.8909 26.0903 63.5133 26.601 64.2415 26.9026C64.9696 27.2041 65.7709 27.283 66.5438 27.1292C67.3168 26.9754 68.0268 26.5958 68.5841 26.0385C69.1413 25.4812 69.5208 24.7711 69.6745 23.9981C69.8282 23.2252 69.7493 22.4239 69.4477 21.6958C69.1461 20.9677 68.6353 20.3454 67.98 19.9075C67.3247 19.4697 66.5543 19.236 65.7662 19.236C64.7096 19.2373 63.6968 19.6576 62.9497 20.4047C62.2027 21.1519 61.7825 22.1648 61.7812 23.2213Z" fill="#00ABEA"/>
</svg>
