<svg width="104" height="104" viewBox="0 0 104 104" fill="none" xmlns="http://www.w3.org/2000/svg">
<path fill-rule="evenodd" clip-rule="evenodd" d="M19.5094 53.6859H13.2584C12.8921 53.6859 12.5408 53.8314 12.2818 54.0905C12.0227 54.3495 11.8772 54.7008 11.8772 55.0671V56.6005L6.45173 52L11.877 47.3998V48.9328C11.877 49.2991 12.0225 49.6504 12.2816 49.9095C12.5406 50.1685 12.8919 50.314 13.2582 50.314H19.5094V53.6859ZM20.8907 47.5515H14.6403V45.6681C14.6404 45.2939 14.5334 44.9275 14.3319 44.6121C14.1304 44.2967 13.8429 44.0456 13.5034 43.8883C13.1638 43.7311 12.7863 43.6743 12.4155 43.7246C12.0446 43.775 11.696 43.9304 11.4106 44.1725L3.94293 50.5039C3.72577 50.688 3.55131 50.9172 3.43164 51.1756C3.31198 51.4339 3.25 51.7152 3.25 51.9999C3.25 52.2846 3.31198 52.5658 3.43164 52.8242C3.55131 53.0825 3.72577 53.3117 3.94293 53.4958L11.4114 59.8274C11.763 60.1292 12.2109 60.2955 12.6743 60.296C12.9607 60.2952 13.2436 60.232 13.5032 60.1109C13.8441 59.9555 14.1328 59.7049 14.3346 59.3893C14.5364 59.0736 14.6427 58.7064 14.6407 58.3318V56.4484H20.8913C21.2576 56.4484 21.6089 56.3029 21.868 56.0438C22.127 55.7848 22.2725 55.4335 22.2725 55.0671V48.9328C22.2725 48.5664 22.127 48.2151 21.868 47.9561C21.6089 47.697 21.2576 47.5515 20.8913 47.5515H20.8907ZM51.9999 97.5483L47.3993 92.123H48.9327C49.299 92.123 49.6503 91.9775 49.9094 91.7185C50.1684 91.4594 50.3139 91.1081 50.3139 90.7418V84.491H53.6858V90.741C53.6858 91.1073 53.8313 91.4586 54.0904 91.7177C54.3494 91.9767 54.7007 92.1222 55.0671 92.1222H56.6011L51.9999 97.5483ZM58.3315 89.3595H56.4483V83.1096C56.4483 82.9282 56.4126 82.7486 56.3432 82.581C56.2738 82.4134 56.172 82.2611 56.0437 82.1329C55.9155 82.0046 55.7632 81.9029 55.5956 81.8335C55.4281 81.764 55.2484 81.7283 55.0671 81.7283H48.9327C48.7513 81.7283 48.5717 81.764 48.4041 81.8335C48.2365 81.9029 48.0842 82.0046 47.956 82.1329C47.8277 82.2611 47.726 82.4134 47.6566 82.581C47.5872 82.7486 47.5514 82.9282 47.5514 83.1096V89.3595H45.6687C45.2944 89.3593 44.9278 89.4662 44.6123 89.6676C44.2968 89.869 44.0456 90.1565 43.8882 90.4961C43.7309 90.8357 43.674 91.2133 43.7243 91.5842C43.7747 91.9551 43.9301 92.3038 44.1722 92.5892L50.5043 100.057C50.6884 100.274 50.9176 100.449 51.1759 100.568C51.4343 100.688 51.7156 100.75 52.0003 100.75C52.285 100.75 52.5663 100.688 52.8246 100.568C53.083 100.449 53.3122 100.274 53.4963 100.057L59.8281 92.5892C60.0702 92.3038 60.2255 91.9551 60.2758 91.5842C60.3261 91.2134 60.2692 90.8359 60.1119 90.4963C59.9546 90.1567 59.7034 89.8693 59.388 89.6678C59.0726 89.4664 58.7061 89.3594 58.3319 89.3595H58.3315ZM92.1232 56.6003V55.0671C92.1232 54.7008 91.9776 54.3495 91.7186 54.0905C91.4596 53.8314 91.1082 53.6859 90.7419 53.6859H84.4909V50.314H90.7417C91.108 50.314 91.4594 50.1685 91.7184 49.9095C91.9774 49.6504 92.1229 49.2991 92.1229 48.9328V47.3992L97.5484 52L92.1232 56.6007V56.6003ZM100.057 50.5039L92.5887 44.1721C92.3033 43.9302 91.9546 43.7749 91.5838 43.7246C91.213 43.6744 90.8356 43.7313 90.496 43.8885C90.1565 44.0458 89.869 44.2969 89.6676 44.6123C89.4661 44.9276 89.359 45.294 89.359 45.6681V47.5515H83.1093C82.743 47.5518 82.3919 47.6975 82.1329 47.9564C81.874 48.2154 81.7283 48.5665 81.728 48.9328V55.0671C81.7283 55.4334 81.8739 55.7846 82.1329 56.0435C82.3919 56.3025 82.743 56.4481 83.1093 56.4484H89.3598V58.3318C89.3579 58.7065 89.4642 59.0738 89.666 59.3895C89.8678 59.7052 90.1564 59.956 90.4973 60.1115C90.7571 60.2322 91.0399 60.2952 91.3263 60.2962C91.7898 60.2955 92.2377 60.1293 92.5895 59.8276L100.058 53.4956C100.275 53.3115 100.449 53.0823 100.569 52.824C100.689 52.5657 100.751 52.2844 100.751 51.9998C100.751 51.7151 100.689 51.4338 100.569 51.1755C100.449 50.9172 100.275 50.688 100.058 50.5039H100.057ZM51.9999 6.4508L56.6009 11.8767H55.0671C54.8857 11.8767 54.7061 11.9124 54.5385 11.9818C54.3709 12.0512 54.2186 12.153 54.0904 12.2812C53.9621 12.4095 53.8604 12.5618 53.7909 12.7293C53.7215 12.8969 53.6858 13.0765 53.6858 13.2579V19.5085H50.3139V13.2581C50.3139 12.8918 50.1684 12.5405 49.9094 12.2814C49.6503 12.0224 49.299 11.8769 48.9327 11.8769H47.3991L51.9999 6.4508ZM45.6687 14.6402H47.5514V20.8901C47.5514 21.2565 47.697 21.6078 47.956 21.8668C48.215 22.1259 48.5663 22.2714 48.9327 22.2714H55.0671C55.4334 22.2714 55.7847 22.1259 56.0437 21.8668C56.3028 21.6078 56.4483 21.2565 56.4483 20.8901V14.6402H58.3313C58.7056 14.6404 59.0721 14.5335 59.3876 14.3321C59.7031 14.1307 59.9543 13.8432 60.1117 13.5035C60.269 13.1639 60.3258 12.7864 60.2754 12.4155C60.225 12.0446 60.0695 11.6959 59.8273 11.4105L53.4959 3.94282C53.3118 3.72566 53.0826 3.55119 52.8242 3.43152C52.5659 3.31186 52.2846 3.24988 51.9999 3.24988C51.7152 3.24988 51.4339 3.31186 51.1755 3.43152C50.9172 3.55119 50.688 3.72566 50.5038 3.94282L44.1724 11.4101C43.9303 11.6955 43.7749 12.0442 43.7245 12.4151C43.6742 12.786 43.7311 13.1635 43.8884 13.5031C44.0457 13.8427 44.2969 14.1302 44.6124 14.3316C44.9279 14.533 45.2944 14.64 45.6687 14.6398V14.6402ZM56.2807 52.4529C56.7298 52.9677 57.0303 53.5949 57.1499 54.2675C57.2696 54.94 57.2038 55.6324 56.9598 56.2705C56.417 57.6572 55.1182 58.6348 53.4585 58.9225V59.6943C53.4585 60.0608 53.3129 60.4123 53.0538 60.6714C52.7947 60.9305 52.4432 61.0761 52.0768 61.0761C51.7103 61.0761 51.3588 60.9305 51.0997 60.6714C50.8406 60.4123 50.695 60.0608 50.695 59.6943V58.8412C48.7389 58.3714 47.2644 57.0078 46.8204 55.0787C46.7772 54.9011 46.7698 54.7166 46.7984 54.5361C46.8271 54.3555 46.8913 54.1825 46.9874 54.0269C47.0834 53.8714 47.2094 53.7365 47.358 53.63C47.5066 53.5235 47.6749 53.4476 47.853 53.4066C48.0312 53.3656 48.2157 53.3604 48.3959 53.3913C48.5761 53.4222 48.7483 53.4885 48.9027 53.5864C49.057 53.6844 49.1904 53.812 49.2951 53.9619C49.3997 54.1118 49.4736 54.281 49.5124 54.4596C49.8998 56.1429 51.798 56.3586 52.8599 56.2201C53.7537 56.1035 54.2355 55.6485 54.3874 55.2613C54.449 55.0834 54.4601 54.8919 54.4193 54.7081C54.3785 54.5243 54.2875 54.3554 54.1564 54.2203C53.6486 53.6109 53.1408 53.5108 52.1274 53.3589C51.4676 53.2797 50.818 53.1311 50.1894 52.9156C50.1736 52.91 50.1598 52.9047 50.1459 52.8992C48.3658 52.1781 47.3197 50.7684 47.3428 49.128C47.3686 47.4611 48.4895 45.9749 50.1986 45.3409C50.3645 45.28 50.5303 45.2272 50.694 45.1817V44.294C50.694 43.9277 50.8395 43.5763 51.0985 43.3173C51.3576 43.0583 51.7089 42.9128 52.0752 42.9128C52.4416 42.9128 52.7929 43.0583 53.0519 43.3173C53.311 43.5763 53.4565 43.9277 53.4565 44.294V45.1492C55.0494 45.5704 56.3872 46.7671 57.0621 48.5503C57.192 48.8929 57.1803 49.273 57.0299 49.6071C56.8794 49.9411 56.6024 50.2017 56.2598 50.3315C55.9172 50.4613 55.5371 50.4497 55.203 50.2992C54.869 50.1488 54.6084 49.8717 54.4786 49.5291C53.9084 48.0222 52.6036 47.3963 51.1587 47.9316C50.4384 48.1977 50.1108 48.7441 50.1049 49.169C50.0952 49.7914 50.7523 50.1607 51.1612 50.3295C51.6083 50.473 52.0684 50.5723 52.5349 50.626C53.6677 50.7956 55.077 51.0071 56.2789 52.4519L56.2807 52.4529ZM51.9999 64.1487C54.4037 64.1487 56.7536 63.4358 58.7523 62.1003C60.751 60.7648 62.3088 58.8667 63.2287 56.6458C64.1486 54.425 64.3893 51.9812 63.9203 49.6236C63.4514 47.2659 62.2938 45.1003 60.594 43.4005C58.8943 41.7007 56.7286 40.5432 54.371 40.0742C52.0133 39.6053 49.5696 39.846 47.3487 40.7659C45.1279 41.6858 43.2297 43.2436 41.8942 45.2423C40.5587 47.241 39.8459 49.5908 39.8459 51.9947C39.8494 55.217 41.131 58.3064 43.4096 60.585C45.6881 62.8635 48.7775 64.1452 51.9999 64.1487ZM51.9999 37.0772C49.0494 37.0771 46.1653 37.9519 43.712 39.591C41.2588 41.2301 39.3467 43.5599 38.2176 46.2857C37.0885 49.0115 36.793 52.0109 37.3685 54.9047C37.9441 57.7984 39.3648 60.4565 41.451 62.5428C43.5373 64.6291 46.1953 66.0499 49.0891 66.6255C51.9828 67.2011 54.9822 66.9058 57.708 65.7767C60.4339 64.6476 62.7637 62.7356 64.4029 60.2824C66.0421 57.8293 66.917 54.9451 66.917 51.9947C66.9123 48.0398 65.3392 44.2483 62.5427 41.4517C59.7462 38.6552 55.9547 37.082 51.9999 37.0772ZM76.8309 55.1147V48.8741C76.8306 48.6152 76.7276 48.367 76.5445 48.1839C76.3614 48.0009 76.1132 47.8979 75.8543 47.8976H71.0656C70.7659 47.8974 70.4744 47.7996 70.2352 47.6192C69.9959 47.4387 69.8218 47.1853 69.7392 46.8973C69.3547 45.5617 68.8204 44.2738 68.1467 43.0582C68.0007 42.7959 67.9443 42.4931 67.9859 42.1958C68.0276 41.8986 68.165 41.623 68.3774 41.4109L71.7639 38.025C71.9469 37.8417 72.0497 37.5933 72.0497 37.3343C72.0497 37.0754 71.9469 36.827 71.7639 36.6437L67.3506 32.2308C67.1664 32.0496 66.9184 31.948 66.66 31.948C66.4016 31.948 66.1536 32.0496 65.9694 32.2308L62.5827 35.6173C62.3707 35.8292 62.0955 35.9663 61.7987 36.008C61.5019 36.0498 61.1996 35.9938 60.9374 35.8487C59.7221 35.1742 58.4342 34.64 57.0983 34.2564C56.8099 34.1737 56.5563 33.9994 56.3757 33.7597C56.1952 33.5201 56.0976 33.2282 56.0977 32.9281V28.1407C56.0974 27.8818 55.9944 27.6335 55.8113 27.4505C55.6281 27.2674 55.3798 27.1646 55.1209 27.1645H48.8795C48.6206 27.1645 48.3723 27.2674 48.1892 27.4504C48.006 27.6334 47.903 27.8816 47.9028 28.1405V32.9283C47.9028 33.2283 47.8052 33.5202 47.6246 33.7597C47.4441 33.9993 47.1904 34.1735 46.902 34.2562C45.5663 34.6402 44.2784 35.1745 43.063 35.8487C42.8008 35.994 42.4984 36.05 42.2016 36.0083C41.9047 35.9665 41.6295 35.8292 41.4177 35.6171L38.0308 32.2304C37.8466 32.0491 37.5986 31.9475 37.3401 31.9475C37.0817 31.9475 36.8336 32.0491 36.6495 32.2304L32.2358 36.6437C32.0528 36.8268 31.9501 37.075 31.9501 37.3338C31.9501 37.5927 32.0528 37.8409 32.2358 38.0239L35.6223 41.4113C35.8347 41.6233 35.9722 41.8989 36.0139 42.1961C36.0555 42.4934 35.9991 42.7961 35.8533 43.0584C35.1793 44.2737 34.6456 45.5617 34.2624 46.8975C34.1793 47.1856 34.0049 47.439 33.7653 47.6195C33.5258 47.7999 33.2341 47.8976 32.9341 47.8978H28.1459C27.8872 47.898 27.6391 48.0007 27.456 48.1834C27.2729 48.3662 27.1698 48.6141 27.1693 48.8728V55.1147C27.17 55.3734 27.2732 55.6213 27.4563 55.8041C27.6395 55.9868 27.8876 56.0895 28.1463 56.0897H32.9341C33.2341 56.0899 33.5259 56.1876 33.7655 56.368C34.0051 56.5485 34.1796 56.802 34.2626 57.0903C34.6458 58.4261 35.1795 59.714 35.8535 60.9293C35.9994 61.1916 36.0558 61.4943 36.0141 61.7915C35.9725 62.0888 35.835 62.3643 35.6225 62.5763L32.2358 65.9652C32.1451 66.0559 32.0732 66.1636 32.0241 66.2821C31.975 66.4006 31.9497 66.5276 31.9497 66.6558C31.9497 66.7841 31.975 66.9111 32.0241 67.0296C32.0732 67.1481 32.1451 67.2558 32.2358 67.3465L36.6487 71.76C36.8329 71.9412 37.0809 72.0427 37.3393 72.0427C37.5977 72.0427 37.8458 71.9412 38.0299 71.76L41.4171 68.3718C41.629 68.1598 41.9042 68.0226 42.201 67.9809C42.4979 67.9392 42.8002 67.9953 43.0624 68.1407C44.2778 68.8147 45.5657 69.3489 46.9014 69.733C47.1898 69.8156 47.4435 69.9898 47.6241 70.2293C47.8047 70.4688 47.9024 70.7606 47.9024 71.0606V75.8485C47.9028 76.1074 48.0058 76.3557 48.1891 76.5387C48.3723 76.7218 48.6207 76.8246 48.8797 76.8247H55.1201C55.379 76.8245 55.6274 76.7216 55.8105 76.5385C55.9937 76.3555 56.0968 76.1072 56.0971 75.8483V71.0612C56.097 70.7611 56.1947 70.4691 56.3753 70.2294C56.556 69.9897 56.8098 69.8154 57.0983 69.7328C58.4341 69.349 59.722 68.8148 60.9374 68.1405C61.1995 67.9953 61.5018 67.9393 61.7986 67.9809C62.0954 68.0226 62.3706 68.1596 62.5827 68.3714L65.9692 71.7587C66.1534 71.94 66.4014 72.0416 66.6598 72.0416C66.9182 72.0416 67.1663 71.94 67.3504 71.7587L71.7639 67.3458C71.947 67.1626 72.0498 66.9142 72.0498 66.6552C72.0498 66.3962 71.947 66.1478 71.7639 65.9646L68.3768 62.5777C68.1645 62.3656 68.0271 62.0901 67.9855 61.7929C67.9439 61.4957 68.0002 61.193 68.1461 60.9308C68.8197 59.7151 69.3539 58.4272 69.7386 57.0917C69.8212 56.8035 69.9953 56.55 70.2347 56.3695C70.474 56.189 70.7656 56.0913 71.0654 56.0911H75.8532C76.1122 56.0909 76.3604 55.988 76.5436 55.805C76.7267 55.622 76.8298 55.3738 76.8303 55.1149L76.8309 55.1147ZM75.8541 45.1343H72.0802C71.7895 44.2843 71.4447 43.4537 71.0479 42.6477L73.7184 39.9776C74.419 39.276 74.8125 38.3251 74.8125 37.3336C74.8125 36.3422 74.419 35.3912 73.7184 34.6896L69.3061 30.2766C68.6037 29.577 67.6527 29.1842 66.6613 29.1842C65.67 29.1842 64.719 29.577 64.0165 30.2766L61.3473 32.9468C60.541 32.5509 59.7103 32.2064 58.8604 31.9156V28.1405C58.8592 27.149 58.4647 26.1985 57.7635 25.4975C57.0624 24.7966 56.1117 24.4023 55.1203 24.4014H48.8799C47.8882 24.4023 46.9375 24.7966 46.2363 25.4977C45.535 26.1988 45.1405 27.1495 45.1393 28.1411V31.9152C44.2893 32.2061 43.4585 32.5506 42.6521 32.9466L39.984 30.277C39.2816 29.5774 38.3305 29.1846 37.3391 29.1846C36.3477 29.1846 35.3967 29.5774 34.6942 30.277L30.2817 34.6898C29.5821 35.392 29.1893 36.3428 29.1893 37.3339C29.1893 38.3251 29.5821 39.2759 30.2817 39.978L32.9522 42.6473C32.5556 43.4536 32.2107 44.2845 31.9197 45.1347H28.1461C27.1545 45.1358 26.2039 45.53 25.5027 46.2311C24.8015 46.9322 24.407 47.8827 24.4057 48.8743V55.1155C24.4069 56.107 24.8012 57.0575 25.5023 57.7586C26.2034 58.4596 27.154 58.8539 28.1455 58.855H31.9195C32.2101 59.7053 32.5547 60.5361 32.9514 61.3423L30.2817 64.0109C29.5821 64.7131 29.1893 65.664 29.1893 66.6552C29.1893 67.6465 29.5821 68.5973 30.2817 69.2995L34.6952 73.7128C35.3976 74.4124 36.3485 74.8052 37.3398 74.8052C38.3312 74.8052 39.2821 74.4124 39.9844 73.7128L42.6531 71.0429C43.4591 71.4392 44.2896 71.7837 45.1395 72.0744V75.8485C45.1405 76.84 45.5349 77.7906 46.236 78.4917C46.9371 79.1928 47.8877 79.5872 48.8793 79.5882H55.1203C56.1118 79.5872 57.0624 79.193 57.7635 78.4919C58.4647 77.7909 58.8591 76.8404 58.8602 75.8489V72.0748C59.7101 71.7839 60.5407 71.4395 61.3471 71.0435L64.0155 73.713C64.7179 74.4126 65.6689 74.8054 66.6602 74.8054C67.6516 74.8054 68.6025 74.4126 69.3049 73.713L73.7182 69.2993C74.4188 68.5977 74.8123 67.6468 74.8123 66.6553C74.8123 65.6639 74.4188 64.7129 73.7182 64.0113L71.0481 61.3415C71.4446 60.5354 71.7893 59.7049 72.0802 58.855H75.8541C76.8455 58.8542 77.7961 58.46 78.4973 57.759C79.1984 57.0581 79.5929 56.1076 79.594 55.1161V48.8737C79.5928 47.8822 79.1983 46.9317 78.4972 46.2307C77.7961 45.5297 76.8455 45.1354 75.8541 45.1343Z" fill="#231F20"/>
<path fill-rule="evenodd" clip-rule="evenodd" d="M76.8306 55.1152V48.874C76.8302 48.6151 76.7272 48.3669 76.5442 48.1839C76.3611 48.0008 76.1128 47.8979 75.8539 47.8976H71.0653C70.7656 47.8973 70.4741 47.7996 70.2349 47.6191C69.9956 47.4387 69.8215 47.1853 69.7389 46.8972C69.3543 45.5616 68.8201 44.2738 68.1464 43.0581C68.0004 42.7958 67.944 42.4931 67.9856 42.1958C68.0272 41.8985 68.1647 41.6229 68.3771 41.4108L71.7636 38.0249C71.9466 37.8417 72.0494 37.5933 72.0494 37.3343C72.0494 37.0753 71.9466 36.8269 71.7636 36.6437L67.3503 32.2308C67.1663 32.0493 66.9182 31.9476 66.6597 31.9476C66.4012 31.9476 66.1531 32.0493 65.9691 32.2308L62.5824 35.6173C62.3704 35.8291 62.0952 35.9663 61.7984 36.008C61.5016 36.0497 61.1993 35.9938 60.9371 35.8486C59.7218 35.1741 58.4339 34.6399 57.098 34.2563C56.8096 34.1737 56.5559 33.9993 56.3754 33.7597C56.1949 33.52 56.0973 33.2281 56.0974 32.9281V28.1406C56.0971 27.8817 55.9941 27.6335 55.811 27.4504C55.6278 27.2674 55.3795 27.1645 55.1206 27.1644H48.8791C48.6203 27.1645 48.372 27.2673 48.1888 27.4503C48.0057 27.6333 47.9027 27.8815 47.9025 28.1404V32.9283C47.9025 33.2283 47.8049 33.5201 47.6243 33.7597C47.4437 33.9992 47.1901 34.1735 46.9017 34.2561C45.566 34.6402 44.2781 35.1744 43.0627 35.8486C42.8005 35.994 42.4981 36.05 42.2013 36.0082C41.9044 35.9664 41.6292 35.8291 41.4174 35.6171L38.0304 32.2304C37.8464 32.0488 37.5983 31.947 37.3398 31.947C37.0813 31.947 36.8332 32.0488 36.6492 32.2304L32.2355 36.6437C32.0525 36.8267 31.9497 37.075 31.9497 37.3338C31.9497 37.5926 32.0525 37.8408 32.2355 38.0239L35.622 41.4112C35.8344 41.6233 35.9719 41.8988 36.0135 42.1961C36.0552 42.4933 35.9988 42.796 35.8529 43.0583C35.179 44.2737 34.6453 45.5616 34.2621 46.8974C34.179 47.1856 34.0046 47.439 33.765 47.6194C33.5255 47.7999 33.2337 47.8976 32.9338 47.8978H28.1456C27.8869 47.8979 27.6388 48.0006 27.4557 48.1834C27.2726 48.3662 27.1695 48.6141 27.1689 48.8728V55.1146C27.1696 55.3734 27.2729 55.6213 27.456 55.804C27.6391 55.9868 27.8873 56.0895 28.146 56.0896H32.9338C33.2338 56.0898 33.5256 56.1875 33.7652 56.368C34.0048 56.5485 34.1793 56.802 34.2623 57.0902C34.6455 58.426 35.1792 59.714 35.8531 60.9293C35.9991 61.1915 36.0555 61.4943 36.0138 61.7915C35.9721 62.0887 35.8346 62.3642 35.6222 62.5762L32.2355 65.9652C32.1448 66.0559 32.0728 66.1635 32.0238 66.282C31.9747 66.4005 31.9494 66.5275 31.9494 66.6558C31.9494 66.7841 31.9747 66.9111 32.0238 67.0296C32.0728 67.1481 32.1448 67.2557 32.2355 67.3464L36.6484 71.7599C36.8325 71.9412 37.0806 72.0428 37.339 72.0428C37.5974 72.0428 37.8455 71.9412 38.0296 71.7599L41.4167 68.3718C41.6288 68.16 41.904 68.0229 42.2008 67.9812C42.4976 67.9395 42.7999 67.9954 43.0621 68.1406C44.2775 68.8147 45.5654 69.3488 46.9011 69.7329C47.1895 69.8155 47.4432 69.9897 47.6238 70.2293C47.8043 70.4688 47.9021 70.7606 47.9021 71.0606V75.8484C47.9024 76.1074 48.0055 76.3557 48.1888 76.5387C48.372 76.7217 48.6204 76.8246 48.8794 76.8246H55.1198C55.3787 76.8245 55.6271 76.7216 55.8102 76.5385C55.9934 76.3554 56.0965 76.1072 56.0968 75.8482V71.0612C56.0967 70.761 56.1943 70.469 56.375 70.2293C56.5556 69.9896 56.8094 69.8153 57.098 69.7327C58.4338 69.3489 59.7217 68.8147 60.9371 68.1404C61.1992 67.9952 61.5015 67.9392 61.7983 67.9809C62.0951 68.0225 62.3703 68.1596 62.5824 68.3714L65.9689 71.7587C66.153 71.9401 66.4011 72.0417 66.6595 72.0417C66.9179 72.0417 67.166 71.9401 67.3501 71.7587L71.7636 67.3458C71.9466 67.1626 72.0495 66.9142 72.0495 66.6552C72.0495 66.3962 71.9466 66.1478 71.7636 65.9646L68.3765 62.5776C68.1642 62.3656 68.0268 62.09 67.9852 61.7928C67.9436 61.4957 67.9999 61.193 68.1458 60.9307C68.8194 59.715 69.3536 58.4272 69.7383 57.0916C69.8209 56.8035 69.995 56.55 70.2344 56.3695C70.4737 56.189 70.7653 56.0913 71.0651 56.0911H75.8529C76.1118 56.0908 76.3601 55.9879 76.5433 55.8049C76.7264 55.6219 76.8295 55.3738 76.83 55.1148L76.8306 55.1152ZM66.9166 51.9946C66.9166 54.9449 66.0416 57.829 64.4025 60.282C62.7633 62.7351 60.4335 64.647 57.7078 65.7759C54.982 66.9049 51.9827 67.2003 49.0891 66.6246C46.1955 66.049 43.5376 64.6283 41.4514 62.5421C39.3653 60.4559 37.9446 57.7979 37.3691 54.9043C36.7935 52.0106 37.0889 49.0113 38.218 46.2856C39.347 43.5599 41.259 41.2302 43.7121 39.5911C46.1652 37.952 49.0492 37.0771 51.9996 37.0771C55.9545 37.0815 59.7463 38.6546 62.5429 41.4512C65.3394 44.2478 66.9124 48.0396 66.9166 51.9946Z" fill="#00ABEA"/>
</svg>
