<svg width="104" height="104" viewBox="0 0 104 104" fill="none" xmlns="http://www.w3.org/2000/svg">
<path fill-rule="evenodd" clip-rule="evenodd" d="M88.6078 81.575C89.6701 82.8488 89.9618 84.4796 89.3894 85.9375C88.7362 87.6031 87.1276 88.7589 85.0807 89.0333V90.2425C85.0807 90.6088 84.9352 90.9602 84.6762 91.2192C84.4171 91.4782 84.0658 91.6238 83.6995 91.6238C83.3332 91.6238 82.9818 91.4782 82.7228 91.2192C82.4638 90.9602 82.3182 90.6088 82.3182 90.2425V88.9484C79.9185 88.4538 78.0985 86.8387 77.5651 84.5215C77.483 84.1642 77.5462 83.789 77.7408 83.4784C77.9354 83.1677 78.2454 82.9471 78.6027 82.865C78.9599 82.7829 79.3351 82.8461 79.6458 83.0407C79.9565 83.2353 80.1771 83.5453 80.2592 83.9026C80.7174 85.8954 82.8171 86.541 84.7001 86.2958C85.7267 86.1617 86.5394 85.6379 86.8179 84.9279C87.0253 84.3998 86.9087 83.8514 86.4862 83.3419C85.7937 82.5101 85.0907 82.3714 83.808 82.1788C83.0206 82.0843 82.2453 81.9077 81.4948 81.6517L81.4513 81.6351C79.3967 80.8023 78.1869 79.1856 78.2145 77.3099C78.2444 75.3981 79.5368 73.6907 81.5084 72.9592C81.773 72.8617 82.0432 72.7803 82.3176 72.7155V71.387C82.3176 71.0207 82.4632 70.6694 82.7222 70.4103C82.9812 70.1513 83.3325 70.0058 83.6989 70.0058C84.0652 70.0058 84.4165 70.1513 84.6756 70.4103C84.9346 70.6694 85.0801 71.0207 85.0801 71.387V72.6807C87.038 73.1164 88.6939 74.5416 89.515 76.7081C89.6447 77.0507 89.6331 77.4308 89.4826 77.7648C89.3322 78.0988 89.0552 78.3593 88.7126 78.4891C88.37 78.6189 87.9899 78.6072 87.6559 78.4568C87.3219 78.3063 87.0614 78.0293 86.9316 77.6867C86.1776 75.6982 84.3852 74.8395 82.469 75.5499C81.587 75.8763 80.9886 76.6004 80.9768 77.351C80.967 78.0576 81.496 78.6658 82.4669 79.0654C83.0357 79.25 83.6215 79.3775 84.2156 79.446C85.6192 79.6562 87.2097 79.8951 88.607 81.5733L88.6078 81.575ZM93.7751 90.9849C96.1335 88.6317 97.6028 85.5334 97.9325 82.2181C98.2622 78.9029 97.432 75.5758 95.5834 72.8042C93.7347 70.0325 90.9821 67.9877 87.7946 67.0183C84.6071 66.049 81.1821 66.215 78.1034 67.4882C75.0246 68.7614 72.4827 71.0629 70.9109 74.0005C69.339 76.938 68.8346 80.3297 69.4835 83.5975C70.1325 86.8653 71.8946 89.8069 74.4696 91.921C77.0446 94.035 80.273 95.1906 83.6046 95.1908C85.4937 95.1969 87.3653 94.8283 89.111 94.1064C90.8568 93.3844 92.442 92.3235 93.7751 90.9849ZM76.7483 27.4887L80.7054 30.5246V63.9169C77.7992 64.407 75.0707 65.6457 72.7888 67.511V30.5246L76.7483 27.4887ZM95.7292 68.6914C94.1405 67.0943 92.251 65.8282 90.1698 64.9662C88.0887 64.1042 85.8572 63.6635 83.6046 63.6695C83.5595 63.6695 83.5138 63.6727 83.4683 63.6729V29.8433C83.4686 29.6312 83.4199 29.4219 83.3261 29.2316C83.2323 29.0414 83.0958 28.8754 82.9274 28.7464L77.5887 24.6508C77.3475 24.4657 77.0519 24.3654 76.7478 24.3654C76.4438 24.3654 76.1482 24.4657 75.907 24.6508L70.5664 28.7458C70.3981 28.8748 70.2618 29.0409 70.168 29.2311C70.0742 29.4213 70.0254 29.6306 70.0255 29.8427V70.3543C67.2873 73.9138 66.0555 78.4059 66.5951 82.8642H6.0125V10.1022C6.0125 9.73585 5.86698 9.38453 5.60794 9.12549C5.34891 8.86646 4.99758 8.72093 4.63125 8.72093C4.26492 8.72093 3.91359 8.86646 3.65456 9.12549C3.39552 9.38453 3.25 9.73585 3.25 10.1022V84.2456C3.25 84.612 3.39552 84.9633 3.65456 85.2223C3.91359 85.4814 4.26492 85.6269 4.63125 85.6269H67.1531C67.8865 88.1352 69.1837 90.4427 70.9455 92.3729C72.7073 94.3032 74.887 95.8051 77.3181 96.7639C79.7492 97.7227 82.3674 98.113 84.9724 97.905C87.5775 97.697 90.1005 96.8962 92.3487 95.5637C94.5969 94.2313 96.5107 92.4025 97.9438 90.2172C99.377 88.0319 100.292 85.5478 100.618 82.9549C100.944 80.3619 100.673 77.7288 99.8253 75.2566C98.9779 72.7845 97.5766 70.5388 95.7283 68.6911L95.7292 68.6914ZM10.2054 49.232C10.266 49.403 10.3597 49.5605 10.4812 49.6952C10.6028 49.83 10.7497 49.9395 10.9136 50.0174C11.0774 50.0954 11.2551 50.1402 11.4363 50.1494C11.6176 50.1585 11.7988 50.1319 11.9698 50.0709C36.179 41.4535 57.2813 29.6056 74.7565 14.8348L74.3856 17.8498C74.3633 18.0298 74.3768 18.2125 74.4251 18.3874C74.4735 18.5622 74.5558 18.7259 74.6675 18.8689C74.7791 19.0119 74.9178 19.1316 75.0756 19.221C75.2335 19.3104 75.4074 19.3679 75.5875 19.3901C75.6438 19.3968 75.7005 19.4003 75.7573 19.4006C76.0943 19.4004 76.4196 19.2769 76.6719 19.0535C76.9242 18.83 77.0861 18.5221 77.1272 18.1876L77.9362 11.6218C77.9593 11.4339 77.9436 11.2434 77.89 11.0619C77.8364 10.8804 77.7462 10.7118 77.6248 10.5666C77.5035 10.4214 77.3536 10.3027 77.1845 10.2178C77.0154 10.1329 76.8306 10.0836 76.6417 10.0729L70.008 9.70934C69.8269 9.69948 69.6456 9.7254 69.4745 9.7856C69.3034 9.84581 69.1459 9.93913 69.0108 10.0602C68.8758 10.1813 68.7659 10.3278 68.6875 10.4914C68.6091 10.655 68.5636 10.8324 68.5538 11.0135C68.5439 11.1946 68.5698 11.3759 68.63 11.547C68.6902 11.7181 68.7836 11.8757 68.9047 12.0107C69.0258 12.1458 69.1723 12.2556 69.3358 12.3341C69.4994 12.4125 69.6768 12.4579 69.8579 12.4678L73.0673 12.6441C55.8291 27.2374 34.9814 38.9459 11.0423 47.4678C10.6974 47.591 10.4156 47.846 10.2587 48.1768C10.1018 48.5077 10.0827 48.8873 10.2056 49.2322L10.2054 49.232ZM23.2635 75.8001H15.3469V61.0341L19.3062 57.9982L23.2635 61.0341V75.8001ZM20.147 55.161L25.4855 59.2566C25.6538 59.3854 25.7901 59.5513 25.884 59.7414C25.9778 59.9314 26.0266 60.1405 26.0266 60.3525V77.1818C26.0266 77.5481 25.8811 77.8994 25.6221 78.1585C25.363 78.4175 25.0117 78.563 24.6454 78.563H13.965C13.5988 78.5627 13.2477 78.4171 12.9887 78.1581C12.7297 77.8991 12.5841 77.548 12.5838 77.1818V60.3529C12.5837 60.1408 12.6325 59.9315 12.7263 59.7413C12.8202 59.5511 12.9566 59.385 13.1249 59.256L18.4653 55.1608C18.7065 54.9757 19.0021 54.8753 19.3062 54.8753C19.6103 54.8753 19.9059 54.9757 20.1472 55.1608L20.147 55.161ZM42.4125 75.8001H34.4937V51.2137L38.4528 48.178L42.4125 51.2137V75.8001ZM39.2939 45.3407L44.6322 49.4363C44.8009 49.5651 44.9377 49.7311 45.0318 49.9213C45.126 50.1116 45.1751 50.3209 45.1752 50.5332V77.1832C45.1752 77.3646 45.1395 77.5442 45.0701 77.7118C45.0006 77.8794 44.8989 78.0316 44.7706 78.1599C44.6424 78.2881 44.4901 78.3899 44.3225 78.4593C44.155 78.5287 43.9753 78.5644 43.794 78.5644H33.1118C32.7456 78.5641 32.3945 78.4184 32.1355 78.1595C31.8766 77.9005 31.7309 77.5494 31.7306 77.1832V50.5326C31.7308 50.3206 31.7797 50.1115 31.8735 49.9213C31.9672 49.7312 32.1033 49.565 32.2713 49.4357L37.612 45.3403C37.8533 45.1551 38.1489 45.0547 38.4531 45.0547C38.7572 45.0547 39.0529 45.1551 39.2941 45.3403L39.2939 45.3407ZM61.5587 75.8001H53.6425V39.9203L57.5995 36.8846L61.5587 39.9203V75.8001ZM58.4403 34.0474L63.7812 38.143C63.9497 38.2719 64.0862 38.4379 64.1801 38.6282C64.274 38.8184 64.3227 39.0277 64.3226 39.2399V77.1836C64.3226 77.5499 64.1771 77.9013 63.918 78.1603C63.659 78.4193 63.3077 78.5648 62.9413 78.5648H52.2606C51.8943 78.5648 51.543 78.4193 51.2839 78.1603C51.0249 77.9013 50.8794 77.5499 50.8794 77.1836V39.239C50.8793 39.027 50.928 38.8177 51.0218 38.6275C51.1156 38.4373 51.252 38.2712 51.4203 38.1422L56.759 34.0472C57.0002 33.8621 57.2958 33.7617 57.5999 33.7617C57.9039 33.7617 58.1995 33.8621 58.4407 34.0472L58.4403 34.0474ZM14.5693 17.6014L18.7454 13.0323C18.9083 12.8548 19.0343 12.6466 19.116 12.4199C19.1977 12.1932 19.2334 11.9526 19.2211 11.7119L19.1523 10.3132C19.42 10.4121 19.7072 10.4469 19.9907 10.4148C23.2062 10.0547 25.6376 10.3417 27.2322 11.2738C29.512 12.5738 30.8421 14.7647 31.302 17.9652V28.3125H20.4902C22.4988 25.8625 23.7009 22.8516 23.9322 19.6919C23.9626 19.3099 23.8719 18.928 23.673 18.6005C23.4741 18.2729 23.1771 18.0163 22.8241 17.8671C22.4711 17.7179 22.0801 17.6836 21.7066 17.7692C21.3331 17.8548 20.996 18.0558 20.7431 18.3438C20.4614 18.6645 19.6044 19.6424 17.0997 19.18C16.6975 19.1055 16.282 19.1686 15.9201 19.359C15.5582 19.5493 15.2708 19.856 15.1044 20.2296C14.9622 20.5471 14.8123 20.6856 14.532 20.7256C13.9675 20.4547 13.8767 20.1857 13.8452 20.0915C13.7664 19.8542 13.6795 19.1423 14.5697 17.6009L14.5693 17.6014ZM32.913 33.3001C32.9122 33.3744 32.8824 33.4454 32.83 33.498C32.7775 33.5507 32.7065 33.5807 32.6322 33.5816H17.1805C17.1063 33.5806 17.0353 33.5506 16.9829 33.498C16.9305 33.4454 16.9007 33.3743 16.9 33.3001V31.3576C16.9008 31.2834 16.9305 31.2125 16.9828 31.16C17.0352 31.1074 17.106 31.0774 17.1801 31.0763H32.6324C32.7066 31.0774 32.7774 31.1075 32.8297 31.1602C32.882 31.2128 32.9117 31.2838 32.9123 31.358V33.3003L32.913 33.3001ZM13.6754 23.3673C12.414 22.8548 11.5909 22.0502 11.2277 20.9773C10.7717 19.6316 11.1036 18.0409 12.2362 16.1159C12.301 16.0051 12.3777 15.9017 12.4652 15.8078L16.4424 11.4562L16.2723 7.96246C16.2535 7.57563 16.3582 7.19283 16.5714 6.86948C16.7845 6.54614 17.0951 6.29904 17.4581 6.16397C17.8211 6.0289 18.2176 6.01286 18.5903 6.11819C18.963 6.22351 19.2925 6.44473 19.5311 6.74981L20.2079 7.61512C23.8217 7.27407 26.5755 7.68946 28.6138 8.88181C31.6455 10.6112 33.4772 13.5624 34.0474 17.6477C34.0591 17.7311 34.065 17.8151 34.0653 17.8993V28.6733C34.5515 28.9331 34.9581 29.32 35.2418 29.7928C35.5254 30.2655 35.6755 30.8063 35.6761 31.3576V33.3001C35.6754 34.1071 35.3547 34.8808 34.7842 35.4516C34.2137 36.0224 33.44 36.3435 32.633 36.3445H17.1803C16.3734 36.3432 15.6 36.0219 15.0296 35.4512C14.4592 34.8805 14.1384 34.1069 14.1375 33.3001V31.3578C14.1385 30.6452 14.3892 29.9555 14.8461 29.4086C15.303 28.8617 15.9371 28.4923 16.6382 28.3645C16.6461 28.3584 16.6504 28.3519 16.6585 28.3461C18.8394 26.3851 20.2209 24.1643 20.8429 21.6023C19.8226 22.0306 18.6318 22.1631 17.2705 21.9996C16.9533 22.4701 16.5236 22.8539 16.0203 23.116C15.5171 23.3782 14.9563 23.5104 14.389 23.5007C14.1444 23.5058 13.9015 23.4602 13.6754 23.3669V23.3673Z" fill="#231F20"/>
<path fill-rule="evenodd" clip-rule="evenodd" d="M53.6426 39.9202V75.8H61.5588V39.9202L57.5997 36.8845L53.6426 39.9202Z" fill="#00ABEA"/>
<path fill-rule="evenodd" clip-rule="evenodd" d="M23.2633 75.8V61.0341L19.306 57.9982L15.3467 61.0341V75.8H23.2633Z" fill="#00ABEA"/>
<path fill-rule="evenodd" clip-rule="evenodd" d="M20.4899 28.3129H31.3012V17.9655C30.8417 14.7651 29.5117 12.5744 27.2318 11.2734C25.6371 10.3412 23.2059 10.0546 19.9904 10.4143C19.7068 10.4464 19.4196 10.4117 19.1519 10.3128L19.2208 11.7115C19.233 11.9521 19.1973 12.1928 19.1156 12.4195C19.0339 12.6462 18.908 12.8543 18.745 13.0318L14.569 17.6013C13.6787 19.1426 13.7656 19.8546 13.8444 20.0918C13.8759 20.1861 13.9663 20.455 14.5312 20.726C14.8115 20.6854 14.9614 20.5474 15.1036 20.2299C15.2701 19.8564 15.5574 19.5497 15.9193 19.3593C16.2813 19.1689 16.6968 19.1059 17.0989 19.1804C19.6036 19.6427 20.4606 18.6649 20.7424 18.3441C20.9952 18.0562 21.3323 17.8551 21.7058 17.7696C22.0794 17.684 22.4704 17.7182 22.8234 17.8675C23.1763 18.0167 23.4733 18.2733 23.6722 18.6008C23.8711 18.9284 23.9618 19.3103 23.9314 19.6923C23.7003 22.8519 22.4983 25.8628 20.4899 28.3129Z" fill="#00ABEA"/>
<path fill-rule="evenodd" clip-rule="evenodd" d="M73.4358 70.6449C71.0831 72.9976 69.619 76.0933 69.2929 79.4045C68.9668 82.7157 69.7989 86.0375 71.6474 88.804C73.496 91.5704 76.2466 93.6103 79.4305 94.5761C82.6145 95.5418 86.0348 95.3737 89.1087 94.1004C92.1826 92.8271 94.7199 90.5273 96.2882 87.5929C97.8566 84.6585 98.3589 81.2711 97.7097 78.0078C97.0605 74.7446 95.2999 71.8074 92.7278 69.6968C90.1558 67.5861 86.9314 66.4326 83.6042 66.4327C79.7906 66.4345 76.1335 67.9494 73.4358 70.6449ZM82.3174 88.9483C79.9177 88.4537 78.0977 86.8387 77.5643 84.5214C77.4822 84.1642 77.5454 83.789 77.74 83.4783C77.9346 83.1677 78.2446 82.947 78.6019 82.8649C78.9591 82.7829 79.3344 82.8461 79.645 83.0407C79.9557 83.2352 80.1763 83.5453 80.2584 83.9025C80.7166 85.8954 82.8163 86.5409 84.6993 86.2957C85.7259 86.1617 86.5386 85.6378 86.8171 84.9279C87.0245 84.3998 86.9079 83.8513 86.4854 83.3419C85.7929 82.5101 85.0899 82.3714 83.8072 82.1788C83.0198 82.0843 82.2445 81.9076 81.494 81.6517L81.4505 81.635C79.3959 80.8022 78.1861 79.1855 78.2137 77.3099C78.2436 75.3981 79.536 73.6906 81.5076 72.9591C81.7722 72.8617 82.0424 72.7803 82.3168 72.7154V71.387C82.3168 71.0206 82.4623 70.6693 82.7214 70.4103C82.9804 70.1512 83.3317 70.0057 83.6981 70.0057C84.0644 70.0057 84.4157 70.1512 84.6748 70.4103C84.9338 70.6693 85.0793 71.0206 85.0793 71.387V72.6807C87.0373 73.1164 88.6931 74.5415 89.5142 76.708C89.5784 76.8777 89.6086 77.0583 89.6031 77.2396C89.5975 77.4209 89.5563 77.5993 89.4818 77.7647C89.4073 77.9301 89.301 78.0792 89.1689 78.2034C89.0367 78.3277 88.8814 78.4248 88.7118 78.489C88.5422 78.5533 88.3616 78.5835 88.1803 78.578C87.999 78.5724 87.8205 78.5312 87.6551 78.4567C87.4898 78.3822 87.3407 78.2759 87.2164 78.1437C87.0921 78.0116 86.9951 77.8563 86.9308 77.6867C86.1768 75.6981 84.3844 74.8395 82.4682 75.5498C81.5862 75.8762 80.9878 76.6004 80.976 77.3509C80.9663 78.0576 81.4952 78.6657 82.4661 79.0653C83.0349 79.2499 83.6207 79.3774 84.2148 79.4459C85.6184 79.6562 87.2089 79.8951 88.6062 81.5733C89.6685 82.8471 89.9602 84.478 89.3878 85.9358C88.7346 87.6014 87.126 88.7572 85.0791 89.0316V90.2408C85.0791 90.6072 84.9336 90.9585 84.6746 91.2175C84.4155 91.4765 84.0642 91.6221 83.6979 91.6221C83.3315 91.6221 82.9802 91.4765 82.7212 91.2175C82.4621 90.9585 82.3166 90.6072 82.3166 90.2408L82.3174 88.9483Z" fill="#00ABEA"/>
</svg>
