<svg width="104" height="104" viewBox="0 0 104 104" fill="none" xmlns="http://www.w3.org/2000/svg">
<path fill-rule="evenodd" clip-rule="evenodd" d="M9.56311 55.5256C9.8047 55.8013 9.92688 56.1617 9.90276 56.5275C9.87865 56.8932 9.71022 57.2344 9.43453 57.476C9.29802 57.5957 9.13929 57.6872 8.9674 57.7455C8.7955 57.8038 8.61381 57.8276 8.4327 57.8157C8.06693 57.7916 7.72572 57.6231 7.48413 57.3475L3.5955 52.9088C3.41989 52.7095 3.30555 52.4638 3.2662 52.2011C3.22685 51.9384 3.26418 51.67 3.37369 51.428C3.43383 51.2996 3.51231 51.1806 3.60667 51.0748C3.615 51.0662 3.62049 51.0573 3.62841 51.0488L7.48555 46.6491C7.72711 46.3736 8.06822 46.2053 8.43384 46.1813C8.79946 46.1573 9.15964 46.2795 9.43514 46.5211C9.71064 46.7627 9.8789 47.1038 9.9029 47.4694C9.9269 47.835 9.80467 48.1952 9.56311 48.4707L7.68095 50.6165H20.7679C21.1342 50.6165 21.4855 50.762 21.7446 51.0211C22.0036 51.2801 22.1491 51.6314 22.1491 51.9978C22.1491 52.3641 22.0036 52.7154 21.7446 52.9744C21.4855 53.2335 21.1342 53.379 20.7679 53.379H7.68014L9.56311 55.5248V55.5256ZM57.4777 94.5646C57.5973 94.7011 57.6889 94.8598 57.7472 95.0317C57.8054 95.2036 57.8293 95.3853 57.8173 95.5664C57.8053 95.7475 57.7578 95.9244 57.6773 96.0871C57.5969 96.2498 57.4853 96.3951 57.3487 96.5146L52.91 100.405C52.7105 100.58 52.4647 100.694 52.2021 100.732C51.9395 100.771 51.6713 100.734 51.4296 100.624C51.3033 100.566 51.1863 100.489 51.0823 100.397C51.0786 100.394 51.0746 100.391 51.0705 100.389L46.6521 96.5136C46.5137 96.3946 46.4002 96.2494 46.3183 96.0863C46.2363 95.9232 46.1875 95.7455 46.1746 95.5634C46.1618 95.3814 46.1851 95.1985 46.2434 95.0256C46.3016 94.8526 46.3935 94.6928 46.5138 94.5556C46.6342 94.4183 46.7805 94.3063 46.9444 94.2259C47.1083 94.1456 47.2864 94.0985 47.4686 94.0874C47.6508 94.0763 47.8334 94.1015 48.0058 94.1614C48.1782 94.2213 48.3371 94.3148 48.4731 94.4365L50.6185 96.3174V83.2307C50.6185 82.8643 50.7641 82.513 51.0231 82.254C51.2821 81.9949 51.6335 81.8494 51.9998 81.8494C52.3661 81.8494 52.7174 81.9949 52.9765 82.254C53.2355 82.513 53.381 82.8643 53.381 83.2307V96.3178L55.5268 94.4369C55.6633 94.3172 55.8219 94.2255 55.9938 94.1672C56.1656 94.1088 56.3473 94.0849 56.5284 94.0968C56.7095 94.1087 56.8865 94.1562 57.0492 94.2366C57.212 94.3169 57.3573 94.4285 57.4768 94.565L57.4777 94.5646ZM100.492 52.7983C100.477 52.8186 100.461 52.8389 100.446 52.8592C100.43 52.8795 100.418 52.8966 100.402 52.9141C100.398 52.9177 100.396 52.9226 100.392 52.9268L96.5163 57.3483C96.3967 57.4847 96.2514 57.5963 96.0887 57.6766C95.926 57.757 95.749 57.8044 95.568 57.8164C95.3869 57.8283 95.2053 57.8045 95.0334 57.7462C94.8616 57.688 94.7029 57.5964 94.5665 57.4768C94.43 57.3573 94.3184 57.212 94.2381 57.0493C94.1578 56.8866 94.1103 56.7096 94.0984 56.5286C94.0864 56.3475 94.1103 56.1659 94.1685 55.994C94.2268 55.8222 94.3183 55.6635 94.4379 55.5271L96.3208 53.3808H83.2341C82.8678 53.3808 82.5165 53.2353 82.2574 52.9763C81.9984 52.7172 81.8529 52.3659 81.8529 51.9996C81.8529 51.6333 81.9984 51.2819 82.2574 51.0229C82.5165 50.7639 82.8678 50.6183 83.2341 50.6183H96.3217L94.4389 48.4721C94.3193 48.3357 94.2278 48.177 94.1695 48.0052C94.1112 47.8334 94.0874 47.6518 94.0993 47.4707C94.1112 47.2897 94.1587 47.1128 94.239 46.9501C94.3193 46.7874 94.4308 46.6421 94.5673 46.5225C94.7037 46.4029 94.8624 46.3114 95.0342 46.2531C95.206 46.1949 95.3876 46.171 95.5687 46.1829C95.7497 46.1949 95.9266 46.2423 96.0893 46.3226C96.252 46.4029 96.3973 46.5145 96.5169 46.6509L100.407 51.0894C100.616 51.3214 100.738 51.6181 100.753 51.9296C100.769 52.2411 100.677 52.5485 100.492 52.8001L100.492 52.7983ZM16.7411 24.3029L17.1271 18.4135C17.1447 18.1486 17.2381 17.8943 17.3963 17.6811C17.5545 17.4679 17.7708 17.3048 18.0192 17.2112C18.0489 17.1994 18.0801 17.1933 18.11 17.1842C18.1303 17.1781 18.1474 17.1724 18.1671 17.1673C18.1971 17.1598 18.2264 17.1535 18.256 17.147C18.294 17.1395 18.3328 17.1346 18.3724 17.1303C18.3865 17.1289 18.4021 17.1261 18.4159 17.125H18.4257L24.3059 16.7391C24.6716 16.7154 25.0316 16.8379 25.307 17.0796C25.5823 17.3214 25.7503 17.6626 25.774 18.0282C25.7977 18.3939 25.6753 18.754 25.4335 19.0293C25.1917 19.3046 24.8505 19.4726 24.4849 19.4963L21.6391 19.6828L30.8918 28.9366C31.0202 29.0649 31.1219 29.2172 31.1914 29.3848C31.2608 29.5525 31.2965 29.7321 31.2965 29.9136C31.2965 30.095 31.2608 30.2747 31.1914 30.4424C31.1219 30.61 31.0202 30.7623 30.8918 30.8906C30.7635 31.0189 30.6112 31.1207 30.4436 31.1902C30.2759 31.2596 30.0963 31.2953 29.9148 31.2953C29.7334 31.2953 29.5537 31.2596 29.3861 31.1902C29.2184 31.1207 29.0661 31.0189 28.9378 30.8906L19.6852 21.6363L19.498 24.4841C19.4861 24.6651 19.4386 24.842 19.3584 25.0047C19.2781 25.1673 19.1666 25.3126 19.0302 25.4322C18.8938 25.5518 18.7351 25.6433 18.5633 25.7016C18.3916 25.7599 18.21 25.7838 18.029 25.7719C17.8479 25.76 17.671 25.7125 17.5084 25.6323C17.3457 25.552 17.2004 25.4405 17.0808 25.3041C16.9612 25.1677 16.8697 25.0091 16.8114 24.8373C16.7531 24.6655 16.7292 24.4839 16.7411 24.3029ZM30.8918 73.1061C31.0204 73.2342 31.1225 73.3865 31.1921 73.5541C31.2617 73.7218 31.2976 73.9015 31.2976 74.083C31.2976 74.2645 31.2617 74.4443 31.1921 74.6119C31.1225 74.7796 31.0204 74.9318 30.8918 75.06L21.6377 84.3135L24.4859 84.501C24.8459 84.5213 25.1838 84.6816 25.4272 84.9476C25.6707 85.2136 25.8004 85.5643 25.7888 85.9248C25.7771 86.2852 25.6249 86.6268 25.3648 86.8765C25.1046 87.1262 24.7571 87.2643 24.3965 87.2613C24.3679 87.2613 24.3356 87.2613 24.3057 87.2584L18.4151 86.8707C18.0745 86.8498 17.7539 86.7027 17.516 86.4581C17.278 86.2135 17.1398 85.889 17.1283 85.5479C17.1265 85.53 17.1242 85.513 17.1224 85.4947L16.742 79.6934C16.7301 79.5124 16.754 79.3309 16.8122 79.1591C16.8705 78.9873 16.9621 78.8287 17.0817 78.6923C17.2012 78.5559 17.3465 78.4444 17.5092 78.3642C17.6719 78.2839 17.8488 78.2365 18.0298 78.2246C18.2108 78.2128 18.3923 78.2366 18.5641 78.2949C18.7359 78.3532 18.8945 78.4448 19.0309 78.5644C19.1673 78.6839 19.2788 78.8292 19.359 78.9919C19.4393 79.1546 19.4867 79.3315 19.4986 79.5125L19.686 82.3601L28.9388 73.1061C29.0671 72.9778 29.2194 72.876 29.387 72.8065C29.5546 72.7371 29.7343 72.7013 29.9157 72.7013C30.0972 72.7013 30.2768 72.7371 30.4445 72.8065C30.6121 72.876 30.7644 72.9778 30.8927 73.1061H30.8918ZM87.26 79.6934L86.8727 85.5828C86.8514 85.9172 86.709 86.2323 86.4721 86.4692C86.2353 86.7061 85.9202 86.8486 85.5859 86.87C85.5788 86.87 85.5721 86.8719 85.5642 86.8725L79.6949 87.2584C79.6654 87.2607 79.6339 87.2615 79.6037 87.2615C79.2444 87.2624 78.899 87.1233 78.6406 86.8737C78.3822 86.6241 78.2312 86.2837 78.2197 85.9246C78.2081 85.5656 78.3369 85.2161 78.5787 84.9505C78.8205 84.6848 79.1563 84.5238 79.5149 84.5016L82.3637 84.3143L73.1091 75.0598C72.9784 74.932 72.8744 74.7797 72.8029 74.6115C72.7315 74.4432 72.6942 74.2625 72.6932 74.0798C72.6921 73.8971 72.7273 73.7159 72.7967 73.5469C72.8662 73.3779 72.9685 73.2243 73.0977 73.0951C73.2269 72.9658 73.3805 72.8635 73.5495 72.7941C73.7186 72.7247 73.8997 72.6895 74.0824 72.6905C74.2652 72.6916 74.4459 72.7289 74.6141 72.8003C74.7823 72.8717 74.9347 72.9758 75.0624 73.1065L84.3149 82.3603L84.5032 79.5125C84.5151 79.3314 84.5626 79.1545 84.6428 78.9919C84.7231 78.8292 84.8346 78.6839 84.971 78.5643C85.1074 78.4447 85.2661 78.3532 85.4378 78.2949C85.6096 78.2366 85.7912 78.2127 85.9722 78.2246C86.1533 78.2365 86.3301 78.284 86.4928 78.3642C86.6555 78.4445 86.8008 78.556 86.9204 78.6924C87.04 78.8288 87.1315 78.9875 87.1898 79.1593C87.2481 79.331 87.2719 79.5126 87.26 79.6936V79.6934ZM73.1091 30.8902C72.9805 30.7621 72.8785 30.6099 72.8089 30.4423C72.7393 30.2746 72.7034 30.0949 72.7034 29.9134C72.7034 29.7319 72.7393 29.5522 72.8089 29.3845C72.8785 29.2169 72.9805 29.0647 73.1091 28.9366L82.3637 19.6828L79.5153 19.4955C79.3343 19.4838 79.1573 19.4364 78.9946 19.3563C78.8318 19.2762 78.6865 19.1647 78.5668 19.0284C78.4471 18.8921 78.3554 18.7335 78.297 18.5618C78.2386 18.39 78.2146 18.2085 78.2264 18.0274C78.2381 17.8464 78.2854 17.6695 78.3656 17.5067C78.4457 17.344 78.5571 17.1986 78.6935 17.0789C78.8298 16.9592 78.9884 16.8676 79.1601 16.8092C79.3319 16.7507 79.5134 16.7267 79.6945 16.7385L85.5851 17.1255C85.5993 17.1267 85.6127 17.1305 85.6285 17.132C85.6667 17.1356 85.7035 17.1407 85.7411 17.1476C85.7614 17.1513 85.7817 17.1547 85.804 17.1596C85.855 17.1709 85.9052 17.1856 85.9542 17.2037C85.9759 17.2108 85.9948 17.2193 86.0133 17.2272C86.0494 17.2408 86.0805 17.2561 86.1148 17.2723L86.1758 17.304C86.22 17.3287 86.2629 17.3558 86.3041 17.3853C86.3202 17.3972 86.3356 17.4115 86.3533 17.4245C86.3815 17.447 86.4086 17.4704 86.4345 17.4949C86.4526 17.5106 86.4681 17.526 86.4839 17.5425C86.5209 17.5797 86.5558 17.619 86.5883 17.6603C86.5964 17.6723 86.6044 17.6853 86.6141 17.6977C86.6401 17.7334 86.6635 17.7706 86.6872 17.809C86.6952 17.824 86.7049 17.8396 86.7128 17.8555C86.7404 17.9064 86.7647 17.959 86.7858 18.0129C86.7858 18.0141 86.7858 18.0155 86.7878 18.0172C86.7894 18.0229 86.7907 18.0288 86.7916 18.0346C86.81 18.0832 86.8252 18.133 86.8371 18.1835C86.8417 18.2006 86.8449 18.218 86.8469 18.2355C86.8576 18.2839 86.8649 18.333 86.8688 18.3824C86.8712 18.3919 86.8725 18.4016 86.8727 18.4114V18.4139L87.26 24.3023C87.272 24.4833 87.2482 24.6649 87.19 24.8367C87.1318 25.0085 87.0403 25.1672 86.9207 25.3036C86.8012 25.4401 86.6559 25.5517 86.4932 25.632C86.3306 25.7123 86.1537 25.7597 85.9726 25.7717C85.942 25.7733 85.9117 25.7745 85.8798 25.7745C85.5294 25.774 85.1922 25.6404 84.9365 25.4008C84.6808 25.1611 84.5256 24.8333 84.5024 24.4837L84.3149 21.6356L75.063 30.8902C74.9347 31.0186 74.7824 31.1205 74.6147 31.19C74.447 31.2595 74.2673 31.2953 74.0858 31.2953C73.9043 31.2953 73.7245 31.2595 73.5568 31.19C73.3892 31.1205 73.2368 31.0186 73.1085 30.8902H73.1091ZM46.5233 9.43169C46.4036 9.29527 46.312 9.1366 46.2537 8.96474C46.1953 8.79289 46.1714 8.61122 46.1833 8.43013C46.1952 8.24903 46.2427 8.07206 46.323 7.90932C46.4034 7.74658 46.515 7.60127 46.6515 7.48169L51.091 3.59124C51.3187 3.3925 51.6057 3.27448 51.9074 3.25547H51.9151C52.0334 3.24806 52.1523 3.25612 52.2685 3.27944C52.2888 3.2833 52.3091 3.28756 52.3317 3.29264C52.362 3.29955 52.389 3.30767 52.4186 3.31702C52.4578 3.3288 52.4954 3.34322 52.533 3.35764C52.545 3.36252 52.5586 3.36617 52.5706 3.37166C52.5826 3.37714 52.5941 3.38547 52.6079 3.39197C52.6459 3.41026 52.6827 3.43061 52.7184 3.45291C52.7369 3.46327 52.754 3.47464 52.7719 3.48622C52.8122 3.51355 52.851 3.54297 52.8883 3.57438C52.8955 3.57895 52.9023 3.58426 52.9086 3.59022L52.9145 3.59469L57.3497 7.48169C57.6253 7.72331 57.7936 8.0645 57.8176 8.43022C57.8416 8.79593 57.7194 9.15621 57.4778 9.43179C57.2361 9.70737 56.895 9.87569 56.5292 9.89971C56.1635 9.92372 55.8032 9.80148 55.5277 9.55986L53.3814 7.67811V20.7653C53.3814 21.1316 53.2359 21.4829 52.9769 21.7419C52.7178 22.001 52.3665 22.1465 52.0002 22.1465C51.6339 22.1465 51.2825 22.001 51.0235 21.7419C50.7645 21.4829 50.6189 21.1316 50.6189 20.7653V7.67811L48.4741 9.55905C48.3377 9.67877 48.1791 9.77043 48.0073 9.82881C47.8354 9.88718 47.6538 9.91112 47.4727 9.89926C47.2916 9.88739 47.1146 9.83995 46.9518 9.75966C46.7891 9.67936 46.6437 9.56778 46.5241 9.43128L46.5233 9.43169ZM68.3914 72.6036H35.608C34.9214 72.603 34.263 72.3299 33.7775 71.8443C33.292 71.3588 33.019 70.7004 33.0186 70.0137V43.017H44.8404V49.4002C44.8404 49.6565 44.9117 49.9078 45.0464 50.1259C45.181 50.344 45.3737 50.5203 45.6028 50.6351C45.8319 50.75 46.0885 50.7988 46.3438 50.7761C46.5991 50.7535 46.8431 50.6602 47.0484 50.5068L52.0002 46.8093L56.9497 50.5076C57.1551 50.6612 57.3991 50.7545 57.6544 50.7772C57.9098 50.7999 58.1665 50.7511 58.3957 50.6363C58.6249 50.5214 58.8176 50.3451 58.9522 50.1269C59.0869 49.9087 59.1582 49.6574 59.1581 49.401V43.0178H70.98V70.0145C70.9793 70.7012 70.7063 71.3596 70.2207 71.8451C69.7352 72.3307 69.0768 72.6037 68.3901 72.6044L68.3914 72.6036ZM35.608 31.3919H44.8421V40.2549H33.0202V33.9828C33.0206 33.2962 33.2935 32.6379 33.7789 32.1523C34.2642 31.6668 34.9225 31.3937 35.609 31.393L35.608 31.3919ZM47.6042 31.3919V46.6442L51.1723 43.9782C51.4111 43.7998 51.7013 43.7034 51.9994 43.7034C52.2975 43.7034 52.5876 43.7998 52.8265 43.9782L56.3952 46.6444V31.3919H47.6042ZM70.9812 33.9828V40.2559H59.1593V31.3919H68.3924C69.079 31.3927 69.7373 31.6658 70.2228 32.1513C70.7084 32.6368 70.9815 33.2951 70.9822 33.9818L70.9812 33.9828ZM73.7437 33.9828C73.7425 32.5637 73.1783 31.2031 72.1751 30.1994C71.1719 29.1958 69.8115 28.6311 68.3924 28.6292H35.608C34.1889 28.631 32.8284 29.1957 31.8251 30.1993C30.8218 31.203 30.2576 32.5637 30.2563 33.9828V70.0151C30.2577 71.4341 30.822 72.7946 31.8253 73.798C32.8286 74.8014 34.189 75.3659 35.608 75.3675H68.3924C69.8116 75.3661 71.1722 74.8018 72.1757 73.7982C73.1792 72.7946 73.7435 71.4339 73.7447 70.0147L73.7437 33.9828Z" fill="#231F20"/>
<path fill-rule="evenodd" clip-rule="evenodd" d="M59.1592 31.392V40.2549H70.9811V33.9828C70.9803 33.2962 70.7072 32.6379 70.2217 32.1524C69.7361 31.6668 69.0778 31.3937 68.3912 31.393L59.1592 31.392Z" fill="#00ABEA"/>
<path fill-rule="evenodd" clip-rule="evenodd" d="M44.8424 40.2549V31.392H35.6084C34.9218 31.3927 34.2636 31.6658 33.7782 32.1513C33.2928 32.6369 33.02 33.2953 33.0195 33.9818V40.2549H44.8424Z" fill="#00ABEA"/>
</svg>
