<svg width="104" height="104" viewBox="0 0 104 104" fill="none" xmlns="http://www.w3.org/2000/svg">
<path fill-rule="evenodd" clip-rule="evenodd" d="M67.6403 68.8517H36.359C35.7206 68.851 35.1085 68.5971 34.6571 68.1457C34.2056 67.6943 33.9517 67.0822 33.951 66.4438V40.7463H45.1056V46.7736C45.1054 47.03 45.1766 47.2814 45.3112 47.4997C45.4458 47.718 45.6385 47.8944 45.8678 48.0094C46.097 48.1243 46.3537 48.1731 46.6091 48.1504C46.8645 48.1277 47.1086 48.0344 47.314 47.8808L51.9997 44.3798L56.6856 47.8804C56.8909 48.0339 57.1348 48.1272 57.3902 48.1499C57.6455 48.1726 57.9021 48.1238 58.1312 48.009C58.3604 47.8941 58.5531 47.7178 58.6878 47.4997C58.8224 47.2816 58.8937 47.0303 58.8937 46.774V40.7463H70.049V66.4438C70.0482 67.0823 69.7942 67.6945 69.3426 68.1459C68.8911 68.5974 68.2788 68.8512 67.6403 68.8517ZM36.359 29.6528H45.1056V37.9827H33.9504V32.0608C33.951 31.4223 34.205 30.81 34.6566 30.3585C35.1082 29.9071 35.7205 29.6532 36.359 29.6528ZM47.8697 29.6528V44.0172L51.1734 41.549C51.4122 41.3707 51.7023 41.2744 52.0004 41.2744C52.2985 41.2744 52.5885 41.3707 52.8274 41.549L56.131 44.0172V29.6528H47.8697ZM70.051 32.0608V37.9827H58.8943V29.6528H67.6403C68.2788 29.6535 68.8909 29.9074 69.3425 30.3588C69.794 30.8103 70.0481 31.4223 70.049 32.0608H70.051ZM93.7012 86.02V96.9849C93.7006 97.2507 93.5947 97.5054 93.4067 97.6932C93.2186 97.881 92.9638 97.9866 92.698 97.9869H81.7351C81.4694 97.9867 81.2146 97.8811 81.0266 97.6933C80.8386 97.5055 80.7328 97.2508 80.7323 96.9851L80.7333 86.0202C80.7335 85.7546 80.8392 85.4999 81.027 85.3121C81.2148 85.1243 81.4695 85.0187 81.7351 85.0186H92.6994C92.9651 85.019 93.2197 85.1247 93.4076 85.3124C93.5955 85.5002 93.7014 85.7547 93.702 86.0204L93.7012 86.02ZM23.266 86.02V96.9849C23.2655 97.2506 23.1597 97.5054 22.9716 97.6932C22.7836 97.8811 22.5288 97.9867 22.263 97.9869H11.3005C11.0348 97.9867 10.7799 97.8812 10.5919 97.6934C10.4038 97.5056 10.298 97.2508 10.2975 96.9851V86.02C10.2979 85.7543 10.4037 85.4997 10.5916 85.3119C10.7795 85.1242 11.0343 85.0186 11.2999 85.0184H22.2638C22.5295 85.0186 22.7843 85.1242 22.9723 85.312C23.1603 85.4998 23.2661 85.7545 23.2666 86.0202L23.266 86.02ZM10.2981 17.9796V7.01492C10.2983 6.7492 10.4039 6.49442 10.5918 6.30648C10.7797 6.11855 11.0344 6.01282 11.3001 6.0125H22.264C22.5298 6.01266 22.7846 6.11826 22.9726 6.30612C23.1605 6.49399 23.2663 6.74876 23.2666 7.01452V17.9796C23.2661 18.2454 23.1603 18.5002 22.9723 18.688C22.7842 18.8759 22.5294 18.9816 22.2636 18.9818H11.3005C11.0348 18.9815 10.78 18.8758 10.5921 18.6879C10.4042 18.5001 10.2985 18.2453 10.2981 17.9796ZM80.7337 17.9796V7.01492C80.7337 6.74924 80.8392 6.49442 81.027 6.30646C81.2147 6.1185 81.4695 6.01277 81.7351 6.0125H92.6994C92.9651 6.01282 93.2197 6.1185 93.4076 6.30634C93.5954 6.49418 93.7011 6.74886 93.7014 7.01452V17.979C93.7008 18.2448 93.5949 18.4995 93.4069 18.6874C93.2188 18.8752 92.964 18.9809 92.6982 18.9812H81.7351C81.4694 18.981 81.2146 18.8754 81.0266 18.6876C80.8386 18.4998 80.7328 18.2451 80.7323 17.9794L80.7337 17.9796ZM87.2189 49.0971C87.5852 49.0971 87.9366 48.9516 88.1956 48.6926C88.4546 48.4335 88.6002 48.0822 88.6002 47.7159V21.7445H92.7C93.698 21.7432 94.6547 21.3461 95.3602 20.6403C96.0658 19.9346 96.4627 18.9778 96.4637 17.9798V7.01492C96.4623 6.01683 96.0652 5.06002 95.3595 4.35426C94.6537 3.64851 93.6969 3.2514 92.6988 3.25H81.7351C80.7368 3.25113 79.7797 3.64815 79.0737 4.35398C78.3678 5.05981 77.9705 6.01682 77.9692 7.01512V17.9796C77.9704 18.978 78.3676 19.9351 79.0736 20.6409C79.7796 21.3468 80.7368 21.7439 81.7351 21.7449H85.8364V46.3328H72.8127V32.0608C72.8111 30.6897 72.2656 29.3751 71.2959 28.4056C70.3262 27.4362 69.0115 26.891 67.6403 26.8897H36.359C34.988 26.8912 33.6736 27.4366 32.7041 28.4061C31.7347 29.3756 31.1894 30.69 31.1879 32.061V46.3336H18.1633V21.7445H22.264C23.2623 21.7436 24.2194 21.3466 24.9253 20.6409C25.6313 19.9351 26.0285 18.9781 26.0297 17.9798V7.01492C26.0284 6.01662 25.6312 5.0596 24.9252 4.35379C24.2192 3.64798 23.2621 3.25102 22.2638 3.25H11.3005C10.3022 3.25102 9.34495 3.64799 8.63887 4.35383C7.9328 5.05968 7.53552 6.01675 7.53418 7.01512V17.9796C7.53531 18.9779 7.93237 19.935 8.63827 20.6409C9.34416 21.3467 10.3012 21.7438 11.2995 21.7449H15.3988V47.7151C15.3991 48.0813 15.5447 48.4324 15.8037 48.6914C16.0627 48.9504 16.4138 49.096 16.78 49.0963H31.1863V56.5027H16.7814C16.4153 56.5032 16.0642 56.6488 15.8053 56.9078C15.5464 57.1667 15.4007 57.5177 15.4002 57.8839V82.2551H11.3005C10.3022 82.2561 9.34495 82.6531 8.63887 83.3589C7.9328 84.0647 7.53552 85.0218 7.53418 86.0202V96.9849C7.53536 97.9832 7.93254 98.9403 8.63855 99.6462C9.34457 100.352 10.3018 100.749 11.3001 100.75H22.264C23.2623 100.749 24.2194 100.352 24.9254 99.6463C25.6314 98.9404 26.0285 97.9834 26.0297 96.9851V86.02C26.0284 85.0217 25.6312 84.0647 24.9252 83.3589C24.2192 82.6531 23.2621 82.2562 22.2638 82.2553H18.1633V59.2666H31.1873V66.4438C31.1886 67.815 31.7339 69.1296 32.7036 70.0992C33.6732 71.0687 34.9879 71.6139 36.359 71.6152H67.6403C69.0114 71.6139 70.3259 71.0686 71.2954 70.0992C72.2649 69.1297 72.8102 67.8151 72.8114 66.444V59.2668H85.8352V82.2551H81.7351C80.7369 82.2562 79.7798 82.6533 79.0738 83.3591C78.3678 84.0649 77.9706 85.0219 77.9692 86.0202V96.9849C77.9705 97.9832 78.3677 98.9402 79.0737 99.6461C79.7797 100.352 80.7368 100.749 81.7351 100.75H92.6994C93.6975 100.749 94.6544 100.352 95.3601 99.6458C96.0658 98.9399 96.4627 97.983 96.4637 96.9849V86.02C96.4623 85.0217 96.0649 84.0647 95.3589 83.359C94.6528 82.6532 93.6957 82.2563 92.6974 82.2553H88.5995V57.8849C88.5992 57.5187 88.4536 57.1676 88.1946 56.9086C87.9357 56.6496 87.5845 56.504 87.2183 56.5037H72.8131V49.0971H87.2189Z" fill="#231F20"/>
<path fill-rule="evenodd" clip-rule="evenodd" d="M58.8945 29.6528V37.9828H70.0497V32.0609C70.0489 31.4223 69.7947 30.8101 69.3431 30.3587C68.8914 29.9072 68.2791 29.6534 67.6405 29.6528H58.8945Z" fill="#00ABEA"/>
<path fill-rule="evenodd" clip-rule="evenodd" d="M45.1054 37.9828V29.6528H36.3588C35.7204 29.6535 35.1084 29.9075 34.657 30.3589C34.2056 30.8104 33.9518 31.4225 33.9512 32.0609V37.9828H45.1054Z" fill="#00ABEA"/>
<path fill-rule="evenodd" clip-rule="evenodd" d="M23.2666 17.9796V7.01508C23.2662 6.74932 23.1605 6.49455 22.9725 6.30669C22.7845 6.11882 22.5297 6.01322 22.2639 6.01306H11.2999C11.0343 6.01338 10.7796 6.11903 10.5918 6.30683C10.4039 6.49463 10.2982 6.74926 10.2979 7.01487V17.9796C10.2983 18.2453 10.4041 18.5001 10.5921 18.6879C10.7801 18.8758 11.0349 18.9814 11.3007 18.9816H22.2639C22.5296 18.9812 22.7843 18.8755 22.9723 18.6877C23.1602 18.4999 23.266 18.2453 23.2666 17.9796Z" fill="#00ABEA"/>
<path fill-rule="evenodd" clip-rule="evenodd" d="M80.7334 7.01491V17.9796H80.7324C80.7329 18.2453 80.8387 18.5 81.0267 18.6878C81.2147 18.8756 81.4695 18.9812 81.7353 18.9814H92.6989C92.9647 18.9811 93.2196 18.8754 93.4076 18.6876C93.5956 18.4997 93.7016 18.245 93.7022 17.9792V7.01471C93.7018 6.74906 93.5962 6.49438 93.4083 6.30654C93.2205 6.11869 92.9658 6.01302 92.7001 6.0127H81.7353C81.4695 6.01286 81.2147 6.11851 81.0269 6.30644C80.839 6.49437 80.7335 6.7492 80.7334 7.01491Z" fill="#00ABEA"/>
<path fill-rule="evenodd" clip-rule="evenodd" d="M92.6995 85.0182H81.7353C81.4696 85.0183 81.2149 85.1239 81.0271 85.3117C80.8393 85.4995 80.7337 85.7542 80.7334 86.0198L80.7324 96.9847C80.7329 97.2504 80.8387 97.5051 81.0267 97.6929C81.2147 97.8807 81.4695 97.9863 81.7353 97.9865H92.6989C92.9647 97.9862 93.2195 97.8806 93.4076 97.6928C93.5956 97.505 93.7016 97.2503 93.7022 96.9845V86.02C93.7015 85.7544 93.5956 85.4998 93.4077 85.312C93.2198 85.1243 92.9652 85.0186 92.6995 85.0182Z" fill="#00ABEA"/>
<path fill-rule="evenodd" clip-rule="evenodd" d="M23.267 96.9849V86.02C23.2665 85.7543 23.1607 85.4996 22.9727 85.3118C22.7847 85.124 22.5299 85.0184 22.2641 85.0182H11.3003C11.0346 85.0184 10.7799 85.124 10.592 85.3117C10.4041 85.4995 10.2983 85.7541 10.2979 86.0198V96.9847C10.2983 97.2505 10.4042 97.5052 10.5922 97.693C10.7803 97.8808 11.0351 97.9863 11.3009 97.9865H22.2641C22.5298 97.9862 22.7846 97.8807 22.9725 97.6929C23.1605 97.5052 23.2664 97.2506 23.267 96.9849Z" fill="#00ABEA"/>
</svg>
