<svg width="104" height="104" viewBox="0 0 104 104" fill="none" xmlns="http://www.w3.org/2000/svg">
<path fill-rule="evenodd" clip-rule="evenodd" d="M88.2707 29.3331C88.1423 29.4614 88.0405 29.6137 87.9711 29.7813C87.9016 29.9489 87.8659 30.1286 87.8659 30.31C87.8659 30.4915 87.9016 30.6711 87.9711 30.8388C88.0405 31.0064 88.1423 31.1587 88.2707 31.287L90.8118 33.8281C91.2158 34.2323 91.4293 34.7064 91.3691 35.0657C91.3648 35.1081 91.3516 35.1492 91.3304 35.1862C91.2682 35.2154 91.1998 35.2286 91.1313 35.2245L79.6937 35.4522C79.2581 35.3966 78.8533 35.198 78.5428 34.8875C78.2323 34.577 78.0336 34.1722 77.9779 33.7367L78.2056 22.2985C78.2018 22.2305 78.2148 22.1626 78.2434 22.1008C78.2804 22.0782 78.3221 22.0644 78.3653 22.0602C78.4064 22.0533 78.4481 22.0499 78.4898 22.0501C78.919 22.092 79.3165 22.2947 79.6025 22.6174L82.1438 25.1593C82.2721 25.2876 82.4244 25.3894 82.592 25.4588C82.7596 25.5282 82.9392 25.564 83.1207 25.564C83.3021 25.564 83.4817 25.5282 83.6493 25.4588C83.8169 25.3894 83.9692 25.2876 84.0975 25.1593L93.2416 16.0148L97.4147 20.1892L88.2707 29.3331ZM100.345 19.2122L94.2182 13.0847C94.0899 12.9564 93.9376 12.8546 93.77 12.7851C93.6024 12.7157 93.4227 12.6799 93.2412 12.6799C93.0598 12.6799 92.8801 12.7157 92.7125 12.7851C92.5449 12.8546 92.3926 12.9564 92.2643 13.0847L83.1202 22.2286L81.5562 20.6645C80.4999 19.6083 79.1707 19.1244 77.9078 19.3363C76.4413 19.5823 75.474 20.7239 75.4437 22.244L75.216 33.6818C75.1935 34.8106 75.6812 35.9332 76.5894 36.8416C76.9875 37.2629 77.4651 37.6012 77.9945 37.8371C78.524 38.073 79.095 38.2017 79.6744 38.216H79.7494L91.1869 37.9879C92.7073 37.9576 93.8479 36.9903 94.0949 35.5237C94.3067 34.2611 93.8223 32.9315 92.7662 31.8754L91.2022 30.3114L100.345 21.1657C100.474 21.0374 100.575 20.8851 100.645 20.7175C100.714 20.5499 100.75 20.3703 100.75 20.1889C100.75 20.0075 100.714 19.8279 100.645 19.6603C100.575 19.4927 100.474 19.3405 100.345 19.2122ZM12.6704 35.1866C12.6487 35.1497 12.6353 35.1085 12.631 35.0659C12.5701 34.7062 12.7844 34.2331 13.1882 33.8283L15.7297 31.2868C15.8579 31.1585 15.9597 31.0062 16.0291 30.8386C16.0985 30.6711 16.1343 30.4914 16.1343 30.31C16.1343 30.1286 16.0985 29.949 16.0291 29.7814C15.9597 29.6138 15.8579 29.4616 15.7297 29.3333L6.58559 20.1892L10.759 16.0152L19.9031 25.1593C20.0313 25.2876 20.1836 25.3894 20.3513 25.4589C20.5189 25.5283 20.6986 25.5641 20.88 25.5641C21.0614 25.5641 21.2411 25.5283 21.4087 25.4589C21.5764 25.3894 21.7287 25.2876 21.8569 25.1593L24.3982 22.6178C24.8022 22.2138 25.2757 21.9999 25.6355 22.0608C25.678 22.065 25.7191 22.0781 25.7561 22.0994C25.7852 22.1616 25.7984 22.23 25.7945 22.2985L26.0222 33.7362C26.009 33.9559 25.9522 34.1708 25.8553 34.3684C25.7583 34.566 25.623 34.7423 25.4573 34.8872C25.0858 35.2587 24.6779 35.4606 24.3066 35.452L12.8689 35.2239C12.8006 35.2279 12.7324 35.2149 12.6704 35.1862V35.1866ZM24.3263 38.2156C24.9058 38.2014 25.4767 38.0727 26.0062 37.8368C26.5357 37.601 27.0132 37.2627 27.4114 36.8414C28.3196 35.9326 28.8073 34.8102 28.7849 33.6818L28.557 22.2438C28.5267 20.7234 27.5595 19.5829 26.0929 19.3361C24.8301 19.1238 23.5008 19.6083 22.4446 20.6643L20.8805 22.2284L11.7358 13.0847C11.6076 12.9564 11.4553 12.8547 11.2877 12.7852C11.1201 12.7158 10.9404 12.68 10.759 12.68C10.5776 12.68 10.3979 12.7158 10.2303 12.7852C10.0627 12.8547 9.91043 12.9564 9.78216 13.0847L3.6547 19.2122C3.52639 19.3405 3.42462 19.4927 3.35518 19.6604C3.28574 19.828 3.25 20.0076 3.25 20.189C3.25 20.3704 3.28574 20.5501 3.35518 20.7177C3.42462 20.8853 3.52639 21.0376 3.6547 21.1659L12.7988 30.3097L11.2347 31.8738C10.1785 32.93 9.69441 34.2599 9.90627 35.5227C10.1523 36.9891 11.2936 37.9566 12.814 37.9866L24.2518 38.2143C24.2768 38.2143 24.3015 38.2154 24.3265 38.2143L24.3263 38.2156ZM78.0287 78.2718L52.2972 88.2782C52.283 88.2842 52.2688 88.2863 52.255 88.2922V53.6122L56.5913 59.8502C57.1935 60.7321 58.0017 61.4538 58.9458 61.9528C59.8899 62.4519 60.9414 62.7133 62.0093 62.7143C62.6237 62.7136 63.2352 62.6299 63.8272 62.4654L80.5062 57.8437V74.6509C80.5162 75.4363 80.2836 76.2056 79.8401 76.8538C79.3965 77.502 78.7637 77.9975 78.0281 78.2726L78.0287 78.2718ZM24.1904 78.2838C23.4599 78.0057 22.8324 77.51 22.3929 76.8637C21.9533 76.2173 21.7228 75.4516 21.7326 74.67V57.9792L37.9203 62.4644C38.5122 62.6289 39.1237 62.7126 39.738 62.7132C40.8057 62.7127 41.8571 62.4518 42.8011 61.9531C43.7451 61.4545 44.5532 60.733 45.1554 59.8514L49.4919 53.6137V88.2802C49.4815 88.2761 49.4716 88.2743 49.4606 88.2704L24.1904 78.2844V78.2838ZM20.2831 48.8473C19.834 49.3376 19.5182 49.935 19.366 50.5822C19.2138 51.2294 19.2301 51.9049 19.4136 52.5439C19.597 53.183 19.9413 53.7644 20.4137 54.2323C20.886 54.7003 21.4705 55.0392 22.1112 55.2167L38.6578 59.8015C39.4334 60.0301 40.2618 60.0053 41.0224 59.7306C41.7829 59.4559 42.436 58.9457 42.8865 58.2742L48.5943 50.0636L24.6302 44.1005L20.2831 48.8473ZM45.4414 39.0697L48.2445 41.9876C49.0269 42.8021 50.1652 43.2506 51.4498 43.2506C52.7344 43.2506 53.8729 42.8023 54.6553 41.9878L57.3341 39.2011L72.8313 43.0753L50.8961 47.7897L30.0908 42.612L45.4414 39.0697ZM42.1975 31.6575C42.2209 31.7216 42.2599 31.7788 42.311 31.824L50.2376 40.0733C50.585 40.3418 51.0116 40.4875 51.4507 40.4875C51.8898 40.4875 52.3165 40.3418 52.6639 40.0733L60.5904 31.8242C60.6417 31.7787 60.6808 31.7211 60.7042 31.6567C60.693 31.6154 60.6733 31.577 60.6463 31.5439C60.435 31.2474 59.9488 31.0629 59.3776 31.0629H55.7833C55.4169 31.0629 55.0656 30.9174 54.8066 30.6584C54.5476 30.3993 54.402 30.048 54.402 29.6817V16.7497H48.4998V29.6815C48.4998 30.0478 48.3543 30.3991 48.0953 30.6582C47.8362 30.9172 47.4849 31.0627 47.1186 31.0627H43.5241C42.9527 31.0627 42.4664 31.247 42.2549 31.5437C42.2277 31.5769 42.2081 31.6157 42.1975 31.6573V31.6575ZM82.6734 52.5184C82.8767 51.8971 82.9151 51.2336 82.7848 50.5929C82.6544 49.9523 82.3599 49.3565 81.9299 48.864L78.4159 44.7011L53.1934 50.1219L58.8606 58.2731C59.3106 58.9454 59.9637 59.4563 60.7246 59.7312C61.4855 60.0061 62.3143 60.0307 63.0901 59.8012L79.9986 55.1168C80.6315 54.9527 81.2109 54.627 81.6799 54.1715C82.1489 53.716 82.4915 53.1464 82.674 52.5186L82.6734 52.5184ZM79.9978 42.2927C79.9619 42.2508 79.9235 42.211 79.8828 42.1737C79.8757 42.1665 79.8678 42.1607 79.8601 42.1533C79.8186 42.1159 79.7748 42.0811 79.7289 42.0493C79.7065 42.0337 79.684 42.0189 79.6606 42.0044C79.6235 41.9816 79.5853 41.9606 79.5461 41.9417C79.4579 41.8964 79.3651 41.8609 79.2692 41.8359L59.5409 36.9038L62.5829 33.7391C63.6367 32.6422 63.761 31.1519 62.8967 29.9407C62.1539 28.898 60.8712 28.3002 59.3778 28.3002H57.1647V15.3683C57.1647 15.0019 57.0192 14.6506 56.7602 14.3916C56.5011 14.1325 56.1498 13.987 55.7835 13.987H47.1184C46.752 13.987 46.4007 14.1325 46.1417 14.3916C45.8826 14.6506 45.7371 15.0019 45.7371 15.3683V28.2998H43.5241C42.0305 28.2998 40.748 28.8978 40.0047 29.9402C39.1419 31.1513 39.2651 32.6418 40.3186 33.7387L43.2109 36.748L23.8555 41.2151C23.852 41.216 23.8485 41.2171 23.8451 41.2184C23.7814 41.234 23.719 41.2544 23.6582 41.2793C23.6434 41.285 23.6284 41.2907 23.6138 41.2972C23.555 41.3225 23.4982 41.3521 23.4437 41.3857C23.4305 41.3937 23.4177 41.4028 23.4047 41.4113C23.3495 41.4471 23.297 41.4869 23.2475 41.5304C23.2431 41.534 23.2396 41.5383 23.2353 41.5421C23.2049 41.5696 23.1744 41.5988 23.1466 41.6299L18.2454 46.9814C17.6332 47.6532 17.1646 48.4428 16.8682 49.3019C16.5719 50.1611 16.454 51.0717 16.5217 51.9779C16.5895 52.8842 16.8415 53.7672 17.2624 54.5727C17.6832 55.3782 18.2641 56.0893 18.9693 56.6626V74.6688C18.9524 76.0062 19.3468 77.3166 20.099 78.4225C20.8512 79.5285 21.9249 80.3768 23.175 80.8525L48.4454 90.8402C50 91.4748 51.7405 91.4797 53.2986 90.854L79.0305 80.8472C80.289 80.3762 81.3715 79.5282 82.1302 78.4191C82.8888 77.31 83.2867 75.9937 83.2695 74.6501V56.4546C84.6075 55.3094 85.4391 53.6823 85.5837 51.9272C85.7282 50.172 85.174 48.4308 84.0414 47.0822L79.9978 42.2927Z" fill="#231F20"/>
<path fill-rule="evenodd" clip-rule="evenodd" d="M42.8872 58.2742L48.595 50.0637L24.6309 44.1006L20.284 48.8474C19.8349 49.3377 19.5192 49.935 19.3669 50.5823C19.2147 51.2295 19.231 51.905 19.4145 52.544C19.5979 53.1831 19.9422 53.7645 20.4146 54.2324C20.8869 54.7004 21.4714 55.0393 22.1122 55.2168L38.6587 59.8015C39.4343 60.0302 40.2627 60.0054 41.0232 59.7307C41.7837 59.456 42.4367 58.9457 42.8872 58.2742Z" fill="#00ABEA"/>
<path fill-rule="evenodd" clip-rule="evenodd" d="M53.1934 50.122L58.8605 58.2732C59.3105 58.9455 59.9637 59.4564 60.7245 59.7313C61.4854 60.0062 62.3142 60.0307 63.09 59.8013L79.9985 55.1169C80.6265 54.9428 81.2007 54.6136 81.6682 54.1596C82.1356 53.7056 82.4815 53.1413 82.6739 52.5187C82.8662 51.8961 82.899 51.2351 82.7691 50.5965C82.6392 49.9579 82.3508 49.3622 81.9305 48.8643L78.4164 44.7014L53.1934 50.122Z" fill="#00ABEA"/>
<path fill-rule="evenodd" clip-rule="evenodd" d="M19.9034 25.1593L10.7593 16.0153L6.58594 20.1893L15.73 29.3334C15.8583 29.4616 15.96 29.6139 16.0295 29.7815C16.0989 29.9491 16.1346 30.1287 16.1346 30.3101C16.1346 30.4915 16.0989 30.6711 16.0295 30.8387C15.96 31.0063 15.8583 31.1585 15.73 31.2868L13.1885 33.8283C12.7847 34.2323 12.571 34.7062 12.6313 35.0659C12.6356 35.1085 12.649 35.1497 12.6707 35.1866C12.7328 35.2154 12.8009 35.2283 12.8692 35.2244L24.307 35.4525C24.6783 35.461 25.0862 35.2591 25.4577 34.8876C25.6234 34.7428 25.7586 34.5664 25.8556 34.3688C25.9526 34.1713 26.0093 33.9564 26.0226 33.7367L25.7949 22.2989C25.7987 22.2304 25.7855 22.162 25.7565 22.0999C25.7194 22.0786 25.6783 22.0654 25.6358 22.0613C25.2761 22.0003 24.803 22.2142 24.3986 22.6182L21.8567 25.1597C21.5976 25.4187 21.2463 25.5641 20.88 25.564C20.5137 25.564 20.1624 25.4184 19.9034 25.1593Z" fill="#00ABEA"/>
<path fill-rule="evenodd" clip-rule="evenodd" d="M78.2062 22.2985L77.9785 33.7367C78.0342 34.1723 78.2329 34.5771 78.5434 34.8876C78.8539 35.198 79.2587 35.3967 79.6943 35.4523L91.1319 35.2246C91.2004 35.2286 91.2688 35.2154 91.3309 35.1862C91.3522 35.1492 91.3654 35.1082 91.3697 35.0657C91.4307 34.7064 91.2164 34.2329 90.8124 33.8281L88.2713 31.287C88.1429 31.1587 88.0411 31.0064 87.9717 30.8388C87.9022 30.6712 87.8665 30.4915 87.8665 30.3101C87.8665 30.1286 87.9022 29.949 87.9717 29.7813C88.0411 29.6137 88.1429 29.4614 88.2713 29.3331L97.4153 20.1893L93.2417 16.0153L84.0977 25.1597C83.9694 25.288 83.8171 25.3898 83.6495 25.4593C83.4819 25.5287 83.3023 25.5644 83.1208 25.5644C82.9394 25.5644 82.7598 25.5287 82.5922 25.4593C82.4246 25.3898 82.2723 25.288 82.144 25.1597L79.6025 22.6189C79.3164 22.2961 78.919 22.0935 78.4898 22.0515C78.4481 22.0514 78.4064 22.0548 78.3653 22.0617C78.3221 22.0658 78.2804 22.0797 78.2434 22.1023C78.2152 22.1637 78.2025 22.2311 78.2062 22.2985Z" fill="#00ABEA"/>
</svg>
