<svg width="104" height="104" viewBox="0 0 104 104" fill="none" xmlns="http://www.w3.org/2000/svg">
<path fill-rule="evenodd" clip-rule="evenodd" d="M42.7306 12.9871C42.7318 12.9783 42.7348 12.9698 42.7393 12.9622C42.7439 12.9546 42.7499 12.948 42.7571 12.9428C42.7643 12.9376 42.7724 12.9339 42.781 12.9319C42.7897 12.9299 42.7986 12.9297 42.8074 12.9312L47.9578 12.9409H47.9633C48.5651 12.9422 49.1517 12.7519 49.6383 12.3977C50.1249 12.0435 50.4862 11.5437 50.6699 10.9706L52.2519 6.06922C52.2571 6.05289 52.2675 6.03866 52.2814 6.02856C52.2952 6.01847 52.312 6.01303 52.3291 6.01303C52.3463 6.01303 52.363 6.01847 52.3769 6.02856C52.3908 6.03866 52.4011 6.05289 52.4064 6.06922L53.9884 10.9704C54.1721 11.5435 54.5333 12.0433 55.0199 12.3975C55.5064 12.7517 56.093 12.942 56.6948 12.9407H56.7007L61.8515 12.9308C61.8691 12.9287 61.8867 12.9333 61.901 12.9437C61.9153 12.9541 61.9251 12.9695 61.9285 12.9868C61.9327 12.9947 61.9353 13.0034 61.9361 13.0122C61.9368 13.0211 61.9358 13.0301 61.933 13.0386C61.9303 13.047 61.9258 13.0549 61.9199 13.0616C61.9141 13.0683 61.9069 13.0738 61.8989 13.0776L57.7265 16.0971C57.2372 16.4495 56.8731 16.9487 56.6868 17.5221C56.5005 18.0956 56.5018 18.7135 56.6905 19.2862L58.2916 24.1815C58.297 24.1978 58.297 24.2154 58.2917 24.2318C58.2864 24.2482 58.2761 24.2625 58.2622 24.2726C58.2483 24.2827 58.2315 24.2882 58.2143 24.2881C58.1971 24.2881 58.1803 24.2826 58.1664 24.2725L54.0058 21.2368C53.5196 20.8808 52.9327 20.6889 52.3301 20.6889C51.7275 20.6889 51.1405 20.8808 50.6543 21.2368L46.4929 24.271C46.479 24.2812 46.4623 24.2867 46.4451 24.2868C46.4279 24.2868 46.4111 24.2814 46.3972 24.2714C46.3833 24.2613 46.3729 24.2471 46.3676 24.2307C46.3622 24.2144 46.3622 24.1968 46.3675 24.1805L47.9686 19.2851C48.1574 18.7125 48.1588 18.0946 47.9725 17.5211C47.7862 16.9476 47.4219 16.4484 46.9326 16.0961L42.7602 13.0778C42.7522 13.074 42.745 13.0685 42.7392 13.0618C42.7333 13.0551 42.7288 13.0472 42.7261 13.0388C42.7233 13.0303 42.7223 13.0213 42.723 13.0124C42.7238 13.0036 42.7264 12.9949 42.7306 12.9871ZM41.1403 15.3157L45.3127 18.3355C45.3207 18.3395 45.3279 18.345 45.3338 18.3518C45.3396 18.3586 45.3441 18.3665 45.3468 18.375C45.3496 18.3835 45.3506 18.3925 45.3498 18.4014C45.3491 18.4103 45.3465 18.419 45.3424 18.4269L43.7413 23.3223C43.5538 23.8941 43.5526 24.5107 43.7378 25.0833C43.923 25.656 44.2851 26.155 44.772 26.5088C45.2589 26.8625 45.8455 27.0527 46.4473 27.0519C47.0491 27.0511 47.6352 26.8594 48.1211 26.5044L52.2817 23.4689C52.288 23.4626 52.2954 23.4575 52.3036 23.4541C52.3118 23.4506 52.3206 23.4488 52.3295 23.4488C52.3385 23.4488 52.3473 23.4506 52.3555 23.4541C52.3637 23.4575 52.3711 23.4626 52.3774 23.4689L56.5386 26.5044C57.0246 26.8594 57.6106 27.0511 58.2124 27.0519C58.8142 27.0527 59.4008 26.8625 59.8877 26.5088C60.3746 26.155 60.7367 25.656 60.9219 25.0833C61.1071 24.5107 61.1059 23.8941 60.9184 23.3223L59.3169 18.4269C59.3127 18.4191 59.3101 18.4105 59.3092 18.4016C59.3084 18.3927 59.3094 18.3837 59.3122 18.3752C59.3149 18.3667 59.3194 18.3589 59.3253 18.3522C59.3312 18.3454 59.3383 18.34 59.3464 18.3361L63.5198 15.3157C64.0068 14.9633 64.3696 14.4656 64.5561 13.8941C64.7426 13.3226 64.7432 12.7068 64.5579 12.1349C64.3725 11.5631 64.0107 11.0647 63.5244 10.7113C63.0381 10.3579 62.4523 10.1677 61.8511 10.1681C61.8492 10.1679 61.8472 10.1679 61.8452 10.1681L56.6948 10.1778C56.6861 10.1793 56.6771 10.179 56.6685 10.177C56.6598 10.1749 56.6517 10.1711 56.6445 10.1659C56.6374 10.1607 56.6313 10.154 56.6268 10.1464C56.6222 10.1388 56.6193 10.1304 56.618 10.1216L55.0363 5.22036C54.8518 4.64761 54.4903 4.14815 54.0039 3.79384C53.5175 3.43954 52.9313 3.24866 52.3295 3.24866C51.7278 3.24866 51.1416 3.43954 50.6552 3.79384C50.1688 4.14815 49.8073 4.64761 49.6228 5.22036L48.0407 10.1216C48.0395 10.1304 48.0366 10.1389 48.0321 10.1466C48.0275 10.1542 48.0215 10.1609 48.0143 10.1662C48.0071 10.1715 47.999 10.1752 47.9903 10.1773C47.9816 10.1793 47.9727 10.1796 47.9639 10.178L42.8136 10.1677C42.212 10.1662 41.6254 10.3556 41.1382 10.7087C40.651 11.0617 40.2883 11.5602 40.1024 12.1323C39.9164 12.7045 39.9167 13.3209 40.1032 13.893C40.2897 14.465 40.6528 14.9631 41.1403 15.3157ZM94.6505 26.9751C94.6502 26.9839 94.648 26.9927 94.6443 27.0007C94.6405 27.0088 94.6351 27.016 94.6285 27.0219C94.6219 27.0279 94.6142 27.0325 94.6058 27.0354C94.5974 27.0384 94.5885 27.0396 94.5797 27.039L89.4579 27.5672C88.8579 27.6277 88.2927 27.8778 87.8445 28.2812C87.3963 28.6846 87.0882 29.2203 86.9651 29.8107L85.9054 34.85C85.902 34.867 85.8933 34.8824 85.8805 34.8941C85.8677 34.9057 85.8516 34.913 85.8344 34.9148C85.8171 34.9167 85.7998 34.913 85.7849 34.9043C85.7699 34.8956 85.7581 34.8823 85.7512 34.8665L83.6651 30.1574C83.4437 29.6537 83.0804 29.2253 82.6194 28.9247C82.1585 28.6241 81.6201 28.4643 81.0698 28.4648C80.9669 28.4646 80.8641 28.4702 80.7619 28.4814L75.6403 29.0299C75.6234 29.0312 75.6065 29.0272 75.592 29.0184C75.5775 29.0097 75.5661 28.9966 75.5593 28.9811C75.5526 28.9655 75.5509 28.9482 75.5545 28.9317C75.5581 28.9151 75.5668 28.9001 75.5793 28.8887L79.4123 25.4498C79.862 25.0483 80.172 24.5139 80.2972 23.9243C80.4225 23.3346 80.3566 22.7204 80.109 22.1707L78.0046 17.4688C77.995 17.4538 77.9918 17.4355 77.9956 17.4181C77.9994 17.4006 78.01 17.3854 78.025 17.3758C78.0306 17.3687 78.0376 17.3628 78.0455 17.3585C78.0535 17.3541 78.0622 17.3514 78.0712 17.3505C78.0802 17.3495 78.0893 17.3504 78.0979 17.353C78.1066 17.3556 78.1147 17.3599 78.1217 17.3656L82.5764 19.9494C83.0971 20.2529 83.701 20.3826 84.3005 20.3196C84.8999 20.2566 85.4637 20.0042 85.9099 19.599L89.7309 16.1458C89.7436 16.1342 89.7597 16.1269 89.7768 16.125C89.794 16.1231 89.8113 16.1267 89.8262 16.1353C89.8412 16.1439 89.853 16.1571 89.86 16.1728C89.867 16.1886 89.8688 16.2062 89.8651 16.223L88.7835 21.2585C88.6557 21.8477 88.7191 22.4622 88.9643 23.013C89.2095 23.5637 89.6239 24.022 90.1473 24.3212L94.6119 26.8877C94.6205 26.8905 94.6283 26.8951 94.6349 26.9011C94.6416 26.9072 94.6469 26.9145 94.6506 26.9227C94.6543 26.9309 94.6563 26.9397 94.6564 26.9487C94.6564 26.9577 94.6547 26.9666 94.6511 26.9748L94.6505 26.9751ZM95.9887 24.4921L91.5242 21.9258C91.5159 21.9227 91.5082 21.918 91.5017 21.9119C91.4952 21.9059 91.4899 21.8986 91.4863 21.8905C91.4826 21.8824 91.4806 21.8736 91.4803 21.8647C91.4801 21.8558 91.4816 21.8469 91.4848 21.8386L92.5665 16.803C92.6924 16.2147 92.6285 15.6017 92.3842 15.052C92.1398 14.5022 91.7275 14.0441 91.2064 13.7435C90.6853 13.4428 90.0824 13.315 89.4842 13.3786C88.8859 13.4421 88.3232 13.6936 87.8769 14.0969L84.0559 17.5501C84.0505 17.5572 84.0437 17.5631 84.036 17.5675C84.0282 17.5719 84.0196 17.5746 84.0107 17.5756C84.0019 17.5766 83.9929 17.5757 83.9844 17.5731C83.9758 17.5705 83.9679 17.5662 83.9611 17.5604L79.5066 14.9765C78.9862 14.6747 78.3835 14.5457 77.7852 14.6081C77.1869 14.6704 76.6237 14.9209 76.1768 15.3235C75.7298 15.7261 75.422 16.26 75.2976 16.8486C75.1733 17.4372 75.2388 18.05 75.4847 18.599L77.5889 23.2999C77.5937 23.3074 77.597 23.3158 77.5986 23.3247C77.6001 23.3335 77.5999 23.3425 77.5978 23.3512C77.5958 23.36 77.592 23.3682 77.5868 23.3754C77.5815 23.3827 77.5748 23.3888 77.5671 23.3933L73.7339 26.8316C73.2858 27.2331 72.9765 27.7664 72.8506 28.3547C72.7247 28.9431 72.7887 29.5562 73.0333 30.1059C73.2779 30.6556 73.6905 31.1135 74.2118 31.4139C74.7332 31.7142 75.3364 31.8415 75.9346 31.7773L81.0564 31.2289C81.065 31.2265 81.074 31.2259 81.0829 31.227C81.0917 31.2282 81.1002 31.231 81.108 31.2355C81.1157 31.24 81.1224 31.246 81.1278 31.2531C81.1332 31.2603 81.1371 31.2684 81.1393 31.277L83.2254 35.9859C83.4471 36.4894 83.8106 36.9175 84.2715 37.2181C84.7323 37.5186 85.2707 37.6786 85.8209 37.6785C85.9217 37.6784 86.0225 37.6731 86.1227 37.6627C86.7215 37.6008 87.285 37.3502 87.732 36.9471C88.179 36.5441 88.4864 36.0093 88.6096 35.4202L89.6695 30.3802C89.6699 30.3714 89.6721 30.3626 89.6759 30.3546C89.6797 30.3465 89.685 30.3393 89.6916 30.3334C89.6983 30.3275 89.706 30.3229 89.7144 30.32C89.7228 30.3171 89.7317 30.3159 89.7406 30.3165L94.8642 29.7883C95.4628 29.7268 96.0265 29.477 96.4741 29.0749C96.9217 28.6728 97.2302 28.139 97.3553 27.5504C97.4803 26.9618 97.4154 26.3487 97.1699 25.7993C96.9244 25.2499 96.511 24.7926 95.9891 24.4931L95.9887 24.4921ZM80.2703 86.8492L52.4273 97.677C52.3603 97.7044 52.2939 97.7225 52.2271 97.746V59.7007L57.126 66.7469C57.7674 67.686 58.6281 68.4545 59.6335 68.9859C60.639 69.5173 61.7588 69.7955 62.896 69.7964C63.5505 69.7957 64.2018 69.706 64.8322 69.5299L83.0237 64.489V82.8245C83.0353 83.6972 82.7771 84.5522 82.2842 85.2726C81.7914 85.993 81.088 86.5434 80.2703 86.8488V86.8492ZM21.9314 86.8632C21.1196 86.554 20.4223 86.0031 19.9338 85.2847C19.4453 84.5664 19.1891 83.7154 19.2 82.8468V64.6375L36.8596 69.5301C37.4902 69.7064 38.1417 69.7961 38.7964 69.7968C39.9335 69.7958 41.0532 69.5175 42.0584 68.986C43.0636 68.4546 43.9241 67.686 44.5652 66.7469L49.4642 59.7009V97.7343C49.4012 97.7125 49.3384 97.6948 49.2753 97.6691L21.9316 86.8628L21.9314 86.8632ZM17.6615 54.8292C17.1625 55.3741 16.8116 56.0379 16.6424 56.7571C16.4732 57.4764 16.4914 58.227 16.6952 58.9372C16.899 59.6474 17.2816 60.2935 17.8064 60.8136C18.3312 61.3337 18.9807 61.7105 19.6927 61.9079L37.598 66.8688C38.4599 67.1233 39.3806 67.0958 40.2258 66.7905C41.071 66.4851 41.7966 65.9178 42.2969 65.1713L48.567 56.1525L22.4108 49.6426L17.6615 54.8292ZM50.2192 42.8158L74.9527 48.7009L50.8684 53.8769L27.7966 48.136L50.2192 42.8158ZM85.3645 58.9116C85.5901 58.2211 85.6326 57.4838 85.4876 56.772C85.3426 56.0602 85.0153 55.3982 84.5376 54.8509L80.6908 50.2938L53.1659 56.2088L59.3947 65.1701C59.8953 65.9165 60.621 66.4837 61.4663 66.7889C62.3116 67.0942 63.2323 67.1216 64.0942 66.8672L82.3901 61.799C83.0936 61.6166 83.7376 61.2546 84.2591 60.7483C84.7805 60.242 85.1614 59.609 85.3645 58.9112V58.9116ZM82.2737 47.886C82.2362 47.8413 82.1955 47.7994 82.1518 47.7606C82.1432 47.7521 82.134 47.7442 82.1242 47.7371C82.0825 47.6998 82.0383 47.6653 81.992 47.6339C81.9646 47.615 81.9367 47.5983 81.9071 47.5817C81.8774 47.565 81.848 47.5482 81.8183 47.5333C81.7265 47.4872 81.6299 47.4511 81.5303 47.4257L50.5627 40.0577C50.3423 40.0068 50.1133 40.0054 49.8924 40.0539L21.6279 46.7594C21.6232 46.7608 21.6188 46.7631 21.6141 46.7643C21.5519 46.7801 21.4908 46.8001 21.4313 46.8242C21.4171 46.8297 21.4026 46.8352 21.3888 46.8413C21.3304 46.8671 21.2738 46.897 21.2196 46.9309C21.206 46.939 21.1928 46.9479 21.179 46.9571C21.1245 46.9928 21.0727 47.0324 21.024 47.0757C21.0177 47.081 21.012 47.0877 21.0059 47.0934C20.9787 47.1183 20.9519 47.1441 20.9263 47.172L15.6237 52.9627C14.9687 53.6814 14.468 54.5268 14.1526 55.4467C13.8371 56.3666 13.7137 57.3414 13.7898 58.3109C13.866 59.2804 14.1401 60.2239 14.5953 61.0833C15.0505 61.9426 15.677 62.6995 16.4362 63.3072V82.8466C16.4183 84.271 16.8383 85.6666 17.6394 86.8446C18.4405 88.0226 19.584 88.9261 20.9154 89.4329L48.259 100.239C49.9147 100.916 51.7691 100.921 53.4284 100.253L81.2705 89.4252C82.6111 88.924 83.7643 88.021 84.5725 86.8398C85.3807 85.6586 85.8046 84.2566 85.7862 82.8255V63.0817C87.227 61.8672 88.1271 60.1306 88.2888 58.2531C88.4506 56.3757 87.8608 54.5107 86.6488 53.0677L82.2731 47.8849L82.2737 47.886ZM9.34759 26.9751C9.34428 26.9668 9.34266 26.958 9.34284 26.9491C9.34302 26.9402 9.34499 26.9314 9.34863 26.9233C9.35227 26.9152 9.35751 26.9079 9.36403 26.9018C9.37055 26.8958 9.37822 26.8911 9.38659 26.8881L13.8515 24.3216C14.3749 24.0224 14.7892 23.5641 15.0345 23.0134C15.2797 22.4627 15.343 21.8481 15.2153 21.2589L14.1348 16.2236C14.1315 16.2154 14.1298 16.2065 14.13 16.1976C14.1301 16.1887 14.132 16.1799 14.1356 16.1718C14.1392 16.1636 14.1444 16.1563 14.1509 16.1502C14.1574 16.1441 14.1651 16.1394 14.1734 16.1363C14.1867 16.1273 14.2021 16.122 14.2181 16.1209C14.2376 16.1224 14.2558 16.1315 14.2687 16.1463L18.0895 19.5994C18.5357 20.0047 19.0996 20.2572 19.6991 20.3203C20.2987 20.3834 20.9027 20.2537 21.4236 19.9502L25.8787 17.3672C25.8936 17.3587 25.9108 17.3551 25.9278 17.357C25.9448 17.3588 25.9608 17.366 25.9736 17.3775C25.9863 17.389 25.995 17.4042 25.9986 17.421C26.0021 17.4377 26.0002 17.4552 25.9933 17.4708L23.8897 22.1718C23.6421 22.7214 23.5762 23.3357 23.7015 23.9254C23.8268 24.5151 24.1367 25.0495 24.5864 25.451L28.4204 28.8893C28.4336 28.9007 28.4428 28.916 28.4466 28.933C28.4504 28.9499 28.4487 28.9677 28.4417 28.9836C28.4346 28.9996 28.4227 29.0128 28.4076 29.0214C28.3924 29.03 28.3749 29.0336 28.3576 29.0315L23.2369 28.483C22.6375 28.4173 22.0329 28.5444 21.5107 28.8459C20.9886 29.1474 20.5763 29.6075 20.3336 30.1594L18.2477 34.8669C18.2407 34.8825 18.2289 34.8955 18.2141 34.904C18.1992 34.9126 18.1821 34.9162 18.165 34.9144C18.148 34.9126 18.132 34.9054 18.1193 34.894C18.1065 34.8825 18.0977 34.8674 18.0941 34.8506L17.033 29.8111C16.9102 29.2208 16.6025 28.6851 16.1545 28.2817C15.7065 27.8783 15.1415 27.6282 14.5417 27.5678L9.41848 27.0396C9.4096 27.0403 9.40068 27.0391 9.39226 27.0362C9.38384 27.0333 9.37609 27.0288 9.36948 27.0228C9.36286 27.0169 9.35751 27.0096 9.35375 27.0016C9.34999 26.9935 9.34789 26.9848 9.34759 26.9759V26.9751ZM14.3292 30.38L15.3904 35.4196C15.5132 36.0088 15.8202 36.5437 16.2671 36.9469C16.7139 37.3501 17.2775 37.6007 17.8762 37.6625C17.9763 37.6729 18.0769 37.6782 18.1776 37.6783C18.728 37.6785 19.2665 37.5186 19.7276 37.2181C20.1886 36.9175 20.5523 36.4893 20.7742 35.9857L22.8599 31.2762C22.8621 31.2676 22.866 31.2596 22.8714 31.2525C22.8768 31.2455 22.8836 31.2396 22.8913 31.2352C22.899 31.2308 22.9075 31.228 22.9163 31.227C22.9251 31.2259 22.934 31.2266 22.9425 31.2291L28.0635 31.7775C28.6616 31.8416 29.2646 31.7144 29.7859 31.4142C30.3071 31.114 30.7198 30.6562 30.9644 30.1067C31.2091 29.5572 31.2733 28.9442 31.1476 28.356C31.022 27.7677 30.713 27.2345 30.2652 26.8329L26.4314 23.3938C26.4238 23.3891 26.4173 23.3829 26.4121 23.3757C26.407 23.3684 26.4033 23.3602 26.4014 23.3515C26.3995 23.3428 26.3994 23.3338 26.4011 23.325C26.4027 23.3162 26.4061 23.3079 26.4111 23.3005L28.5151 18.5996C28.7615 18.0505 28.8273 17.4373 28.7031 16.8484C28.5789 16.2595 28.271 15.7252 27.8238 15.3224C27.3766 14.9196 26.8131 14.669 26.2144 14.6068C25.6158 14.5446 25.0128 14.674 24.4924 14.9763L20.0372 17.5598C20.0304 17.5656 20.0225 17.5699 20.0139 17.5725C20.0054 17.5751 19.9964 17.576 19.9875 17.5751C19.9787 17.5742 19.97 17.5715 19.9622 17.5672C19.9544 17.5629 19.9475 17.5571 19.942 17.5501L16.1214 14.0969C15.6752 13.6932 15.1125 13.4413 14.5141 13.3777C13.9158 13.314 13.3127 13.4418 12.7915 13.7426C12.2704 14.0434 11.8581 14.5018 11.614 15.0518C11.3699 15.6018 11.3066 16.2151 11.4331 16.8034L12.5137 21.8386C12.517 21.8469 12.5187 21.8558 12.5185 21.8647C12.5184 21.8736 12.5164 21.8824 12.5128 21.8906C12.5091 21.8987 12.5039 21.9061 12.4973 21.9122C12.4908 21.9182 12.4831 21.9229 12.4747 21.926L8.00981 24.4923C7.48774 24.7917 7.07414 25.2491 6.82856 25.7986C6.58298 26.3481 6.51806 26.9613 6.64317 27.5501C6.76827 28.1388 7.07693 28.6726 7.52473 29.0748C7.97253 29.4769 8.53638 29.7266 9.13512 29.7879L14.2581 30.3161C14.267 30.3155 14.276 30.3167 14.2844 30.3197C14.2928 30.3226 14.3005 30.3272 14.3072 30.3332C14.3138 30.3392 14.3192 30.3464 14.3229 30.3545C14.3267 30.3626 14.3289 30.3711 14.3292 30.38Z" fill="#231F20"/>
<path fill-rule="evenodd" clip-rule="evenodd" d="M17.6611 54.8292C17.1621 55.3741 16.8113 56.0379 16.6421 56.7571C16.4729 57.4764 16.4911 58.227 16.6949 58.9372C16.8987 59.6474 17.2813 60.2935 17.8061 60.8136C18.3309 61.3337 18.9804 61.7105 19.6924 61.9079L37.5977 66.8688C38.4596 67.1233 39.3802 67.0958 40.2254 66.7905C41.0707 66.4851 41.7963 65.9178 42.2966 65.1713L48.5666 56.1525L22.4104 49.6426L17.6611 54.8292Z" fill="#00ABEA"/>
<path fill-rule="evenodd" clip-rule="evenodd" d="M53.166 56.2092L59.3948 65.1705C59.8954 65.9169 60.6211 66.4841 61.4664 66.7893C62.3117 67.0946 63.2324 67.122 64.0943 66.8676L82.3902 61.7994C83.0883 61.6062 83.7265 61.2405 84.2462 60.736C84.7659 60.2316 85.1504 59.6045 85.3642 58.9125C85.5781 58.2205 85.6145 57.4858 85.47 56.7761C85.3256 56.0663 85.005 55.4043 84.5377 54.8509L80.6909 50.2938L53.166 56.2092Z" fill="#00ABEA"/>
<path fill-rule="evenodd" clip-rule="evenodd" d="M15.2154 21.2591C15.3431 21.8483 15.2798 22.4628 15.0346 23.0136C14.7893 23.5643 14.375 24.0226 13.8516 24.3218L9.38669 26.8883C9.37202 26.8969 9.36044 26.91 9.35358 26.9255C9.34671 26.9411 9.34492 26.9585 9.34844 26.9751C9.35196 26.9918 9.36063 27.0069 9.37322 27.0184C9.3858 27.0298 9.40167 27.0371 9.41858 27.039L14.5418 27.5671C15.1416 27.6276 15.7066 27.8777 16.1546 28.2811C16.6026 28.6845 16.9103 29.2202 17.0331 29.8104L18.0943 34.85C18.0969 34.8674 18.1053 34.8835 18.118 34.8957C18.1308 34.9079 18.1472 34.9155 18.1648 34.9173C18.1823 34.9192 18.2 34.9152 18.215 34.9059C18.23 34.8967 18.2416 34.8827 18.2478 34.8662L20.3337 30.1572C20.5764 29.6052 20.9887 29.1451 21.5109 28.8436C22.033 28.5421 22.6377 28.415 23.237 28.4808L28.3578 29.0292C28.375 29.0313 28.3925 29.0278 28.4077 29.0192C28.4228 29.0105 28.4347 28.9973 28.4418 28.9814C28.4488 28.9654 28.4505 28.9477 28.4467 28.9307C28.4429 28.9137 28.4337 28.8984 28.4205 28.887L24.5865 25.4487C24.1369 25.0472 23.8269 24.5128 23.7016 23.9231C23.5763 23.3334 23.6422 22.7192 23.8898 22.1695L25.9934 17.4686C26.0013 17.4529 26.0039 17.4351 26.0007 17.4178C25.9975 17.4005 25.9887 17.3848 25.9757 17.373C25.9627 17.3612 25.9461 17.354 25.9286 17.3526C25.9111 17.3511 25.8936 17.3555 25.8788 17.365L21.4237 19.9501C20.9028 20.2537 20.2988 20.3834 19.6992 20.3203C19.0997 20.2572 18.5358 20.0047 18.0896 19.5994L14.2688 16.1462C14.2563 16.1338 14.2401 16.1258 14.2226 16.1235C14.2052 16.1212 14.1874 16.1247 14.1722 16.1335C14.1569 16.1424 14.145 16.156 14.1383 16.1723C14.1315 16.1885 14.1304 16.2066 14.1349 16.2236L15.2154 21.2591Z" fill="#00ABEA"/>
<path fill-rule="evenodd" clip-rule="evenodd" d="M46.9325 16.0973C47.4218 16.4496 47.7861 16.9488 47.9724 17.5223C48.1587 18.0957 48.1573 18.7137 47.9684 19.2863L46.3674 24.1816C46.3611 24.1981 46.3604 24.2162 46.3655 24.2331C46.3705 24.25 46.381 24.2647 46.3953 24.2751C46.4096 24.2854 46.4269 24.2907 46.4445 24.2902C46.4621 24.2897 46.4791 24.2834 46.4927 24.2722L50.6531 21.2373C51.1393 20.8813 51.7263 20.6894 52.3289 20.6894C52.9315 20.6894 53.5185 20.8813 54.0047 21.2373L58.1663 24.2714C58.1802 24.2816 58.197 24.2871 58.2142 24.2871C58.2314 24.2871 58.2481 24.2817 58.2621 24.2715C58.276 24.2614 58.2863 24.2471 58.2916 24.2308C58.2969 24.2144 58.2968 24.1968 58.2914 24.1804L56.6904 19.2851C56.5017 18.7125 56.5004 18.0946 56.6866 17.5211C56.8729 16.9476 57.2371 16.4485 57.7263 16.096L61.8991 13.077C61.9138 13.0674 61.9249 13.0532 61.9307 13.0367C61.9365 13.0202 61.9368 13.0022 61.9314 12.9856C61.926 12.9689 61.9153 12.9544 61.901 12.9444C61.8866 12.9344 61.8693 12.9294 61.8518 12.9301L56.701 12.9401C56.0981 12.9426 55.5102 12.753 55.0225 12.3987C54.5347 12.0444 54.1726 11.5439 53.9886 10.9698L52.4067 6.06939C52.4021 6.05239 52.3921 6.03737 52.3781 6.02665C52.3641 6.01594 52.347 6.01013 52.3294 6.01013C52.3118 6.01013 52.2947 6.01594 52.2807 6.02665C52.2668 6.03737 52.2567 6.05239 52.2521 6.06939L50.6702 10.9708C50.4864 11.5439 50.1252 12.0437 49.6386 12.3979C49.152 12.7521 48.5654 12.9423 47.9636 12.9411L42.8076 12.9312L42.7304 12.987C42.7262 12.9949 42.7237 13.0035 42.7229 13.0124C42.7221 13.0213 42.7232 13.0303 42.7259 13.0387C42.7287 13.0472 42.7332 13.055 42.739 13.0618C42.7449 13.0685 42.7521 13.0739 42.7601 13.0778L46.9325 16.0973Z" fill="#00ABEA"/>
<path fill-rule="evenodd" clip-rule="evenodd" d="M80.1091 22.1707C80.3567 22.7203 80.4226 23.3346 80.2973 23.9242C80.1721 24.5139 79.8621 25.0482 79.4124 25.4497L75.5794 28.8886C75.5659 28.8996 75.5563 28.9147 75.5521 28.9316C75.548 28.9485 75.5494 28.9664 75.5563 28.9824C75.5632 28.9983 75.5752 29.0116 75.5904 29.0202C75.6055 29.0288 75.6231 29.0322 75.6404 29.0298L80.762 28.4814C81.3612 28.4155 81.9659 28.5425 82.4881 28.8439C83.0102 29.1453 83.4226 29.6054 83.6652 30.1574L85.7513 34.8664C85.7582 34.8823 85.77 34.8955 85.785 34.9042C85.7999 34.9129 85.8173 34.9166 85.8345 34.9148C85.8517 34.913 85.8678 34.9057 85.8806 34.894C85.8934 34.8824 85.9021 34.8669 85.9055 34.85L86.9652 29.8106C87.0883 29.2203 87.3964 28.6846 87.8446 28.2811C88.2929 27.8777 88.858 27.6276 89.4579 27.5671L94.5797 27.039C94.5886 27.0395 94.5975 27.0383 94.6059 27.0354C94.6143 27.0324 94.622 27.0279 94.6286 27.0219C94.6352 27.0159 94.6406 27.0087 94.6444 27.0007C94.6481 26.9926 94.6503 26.9839 94.6506 26.975C94.6542 26.9667 94.6559 26.9578 94.6558 26.9489C94.6558 26.9399 94.6538 26.931 94.6501 26.9228C94.6464 26.9147 94.6411 26.9073 94.6344 26.9013C94.6278 26.8953 94.6199 26.8907 94.6114 26.8879L90.1469 24.3216C89.6236 24.0223 89.2092 23.5641 88.964 23.0133C88.7188 22.4626 88.6554 21.848 88.7832 21.2589L89.8648 16.2234C89.8685 16.2065 89.8667 16.189 89.8597 16.1732C89.8527 16.1574 89.8409 16.1443 89.8259 16.1357C89.811 16.1271 89.7937 16.1235 89.7765 16.1254C89.7594 16.1273 89.7433 16.1346 89.7305 16.1462L85.9096 19.5993C85.4633 20.0045 84.8996 20.257 84.3001 20.32C83.7007 20.383 83.0968 20.2533 82.5761 19.9497L78.122 17.3672C78.1071 17.358 78.0897 17.3539 78.0723 17.3554C78.0549 17.3569 78.0385 17.364 78.0255 17.3756C78.0124 17.3872 78.0034 17.4026 77.9998 17.4197C77.9963 17.4368 77.9983 17.4545 78.0056 17.4704L80.1091 22.1707Z" fill="#00ABEA"/>
</svg>
