<svg width="104" height="104" viewBox="0 0 104 104" fill="none" xmlns="http://www.w3.org/2000/svg">
<path fill-rule="evenodd" clip-rule="evenodd" d="M21.1791 72.0467C21.0505 72.1748 20.9485 72.3271 20.8789 72.4947C20.8093 72.6624 20.7734 72.8421 20.7734 73.0237C20.7734 73.2052 20.8093 73.385 20.8789 73.5526C20.9485 73.7203 21.0505 73.8726 21.1791 74.0007L22.7976 75.619C22.8112 75.6328 22.825 75.6487 22.8382 75.6625L16.0587 75.7968H16.0547C15.9118 75.7714 15.7824 75.6966 15.689 75.5855C15.5758 75.4922 15.5001 75.3611 15.4758 75.2164L15.6121 68.4367C15.6259 68.4485 15.6397 68.4625 15.6553 68.4784L17.274 70.0965C17.5332 70.3553 17.8846 70.5006 18.2509 70.5006C18.6171 70.5006 18.9685 70.3553 19.2277 70.0965L24.7001 64.6257L26.6478 66.5757L21.1791 72.0467ZM25.6771 61.6948C25.4178 61.436 25.0664 61.2906 24.7001 61.2906C24.3337 61.2906 23.9823 61.436 23.723 61.6948L18.2521 67.1658L17.611 66.5235C16.8215 65.7339 15.815 65.3748 14.8485 65.5367C14.2921 65.623 13.7853 65.9064 13.4204 66.3352C13.0556 66.764 12.857 67.3096 12.8609 67.8726L12.7149 75.1591C12.7381 76.0434 13.0958 76.886 13.716 77.5168C14.3362 78.1477 15.1725 78.5198 16.0563 78.558H16.1156L23.4005 78.4138C23.9638 78.418 24.5099 78.2193 24.9388 77.8541C25.3677 77.4888 25.6508 76.9814 25.7364 76.4246C25.9003 75.4594 25.539 74.4529 24.7517 73.6633L24.1082 73.0219L29.5793 67.5509C29.7077 67.4226 29.8095 67.2703 29.879 67.1027C29.9485 66.935 29.9842 66.7553 29.9842 66.5739C29.9842 66.3924 29.9485 66.2127 29.879 66.0451C29.8095 65.8774 29.7077 65.7251 29.5793 65.5968L25.6771 61.6948ZM88.3101 75.5829C88.2148 75.6938 88.0845 75.769 87.9408 75.7961L81.1613 75.6619C81.1751 75.6481 81.1889 75.6322 81.2019 75.6184L82.8204 73.9999C82.949 73.8718 83.051 73.7195 83.1206 73.5519C83.1902 73.3842 83.2261 73.2045 83.2261 73.023C83.2261 72.8415 83.1902 72.6617 83.1206 72.4941C83.051 72.3264 82.949 72.1742 82.8204 72.046L77.3521 66.5757L79.3001 64.6257L84.7712 70.0965C85.0305 70.3553 85.3818 70.5007 85.7482 70.5007C86.1145 70.5007 86.4659 70.3553 86.7251 70.0965L88.3436 68.4781C88.3594 68.4623 88.3731 68.4485 88.3869 68.4375L88.5232 75.2168C88.4991 75.361 88.4233 75.4916 88.3101 75.5841V75.5829ZM89.1526 65.5367C88.1858 65.3742 87.1791 65.7343 86.3916 66.5237L85.7483 67.1652L80.2771 61.6948C80.0181 61.4362 79.6671 61.2909 79.3011 61.2909C78.9351 61.2909 78.5841 61.4362 78.3251 61.6948L74.4212 65.5987C74.2929 65.7269 74.191 65.8792 74.1215 66.0469C74.0521 66.2145 74.0163 66.3942 74.0163 66.5757C74.0163 66.7571 74.0521 66.9368 74.1215 67.1045C74.191 67.2721 74.2929 67.4244 74.4212 67.5527L79.8924 73.0235L79.2489 73.6649C78.4614 74.4543 78.1 75.461 78.2639 76.4262C78.3498 76.9829 78.6331 77.4902 79.0619 77.8554C79.4907 78.2206 80.0366 78.4194 80.5999 78.4156L87.8849 78.5597H87.9441C88.8274 78.5202 89.663 78.1477 90.2829 77.5172C90.9028 76.8867 91.261 76.0448 91.2855 75.161L91.1394 67.8743C91.1436 67.3111 90.9451 66.7651 90.5803 66.3361C90.2154 65.907 89.7084 65.6235 89.1518 65.5371L89.1526 65.5367ZM15.6903 17.7735C15.7831 17.6615 15.9127 17.5861 16.0559 17.5606H16.0599L22.8394 17.6953C22.8256 17.7095 22.8118 17.7245 22.7988 17.7394L21.1791 19.3579C21.0507 19.4861 20.9489 19.6384 20.8794 19.8061C20.81 19.9737 20.7742 20.1534 20.7742 20.3349C20.7742 20.5164 20.81 20.696 20.8794 20.8637C20.9489 21.0313 21.0507 21.1836 21.1791 21.3119L26.648 26.7825L24.7003 28.7325L19.2291 23.2617C18.9699 23.0028 18.6185 22.8573 18.2521 22.8573C17.8857 22.8573 17.5343 23.0028 17.275 23.2617L15.6567 24.8804C15.6411 24.895 15.6271 24.9095 15.6133 24.9223L15.4772 18.142C15.5012 17.9974 15.5769 17.8664 15.6903 17.7735ZM14.8485 27.8207C15.8156 27.9832 16.8221 27.6236 17.611 26.8347L18.2525 26.1922L23.7236 31.6628C23.8519 31.7911 24.0042 31.8929 24.1718 31.9624C24.3395 32.0318 24.5191 32.0676 24.7006 32.0676C24.882 32.0676 25.0617 32.0318 25.2293 31.9624C25.3969 31.8929 25.5492 31.7911 25.6775 31.6628L29.5795 27.7593C29.7081 27.6312 29.8102 27.4789 29.8798 27.3113C29.9494 27.1436 29.9853 26.9639 29.9853 26.7824C29.9853 26.6009 29.9494 26.4211 29.8798 26.2535C29.8102 26.0858 29.7081 25.9336 29.5795 25.8055L24.1086 20.3349L24.7521 19.6928C25.5396 18.9041 25.9007 17.8978 25.7368 16.9303C25.651 16.3737 25.3677 15.8666 24.9388 15.5016C24.5099 15.1366 23.964 14.9381 23.4009 14.9423L16.116 14.7973C15.2213 14.8205 14.3696 15.1861 13.7366 15.8188C13.1036 16.4514 12.7375 17.3029 12.7139 18.1976L12.8599 25.4835C12.8558 26.0469 13.0544 26.5929 13.4195 27.022C13.7845 27.4511 14.2918 27.7345 14.8485 27.8207ZM82.8223 21.3123C82.9508 21.1842 83.0528 21.0319 83.1225 20.8643C83.1921 20.6967 83.2279 20.5169 83.2279 20.3354C83.2279 20.1539 83.1921 19.9741 83.1225 19.8065C83.0528 19.6389 82.9508 19.4866 82.8223 19.3585L81.204 17.7398C81.1901 17.7245 81.1763 17.7103 81.1633 17.6961L87.9428 17.5608C88.0824 17.5982 88.2097 17.6717 88.3119 17.7739C88.4141 17.876 88.4877 18.0032 88.5252 18.1428L88.3889 24.9217C88.3751 24.9089 88.3613 24.8955 88.3454 24.881L86.7271 23.2619C86.5989 23.1336 86.4465 23.0317 86.2789 22.9623C86.1113 22.8928 85.9316 22.857 85.7501 22.857C85.5686 22.857 85.3889 22.8928 85.2213 22.9623C85.0536 23.0317 84.9013 23.1336 84.7731 23.2619L79.3001 28.7323L77.3521 26.7823L82.8212 21.3117L82.8223 21.3123ZM78.3251 31.6628C78.4532 31.7911 78.6053 31.8929 78.7728 31.9624C78.9402 32.0318 79.1198 32.0676 79.3011 32.0676C79.4824 32.0676 79.6619 32.0318 79.8294 31.9624C79.9969 31.8929 80.149 31.7911 80.2771 31.6628L85.7483 26.1918L86.3916 26.8341C87.1791 27.623 88.1856 27.9827 89.1526 27.8205C89.709 27.7341 90.2158 27.4507 90.5806 27.0219C90.9455 26.5931 91.1441 26.0475 91.1402 25.4845L91.2863 18.1978C91.2623 17.3036 90.8963 16.4527 90.2636 15.8203C89.6309 15.188 88.7798 14.8224 87.8856 14.7989L80.6009 14.9437C80.0378 14.9399 79.4921 15.1386 79.0633 15.5036C78.6345 15.8686 78.3512 16.3755 78.2649 16.9319C78.101 17.8982 78.4622 18.9049 79.2497 19.6944L79.8934 20.3363L74.4222 25.8069C74.2936 25.935 74.1916 26.0873 74.122 26.2549C74.0524 26.4225 74.0166 26.6023 74.0166 26.7838C74.0166 26.9653 74.0524 27.1451 74.122 27.3127C74.1916 27.4803 74.2936 27.6326 74.4222 27.7607L78.3263 31.6638L78.3251 31.6628ZM52.0001 6.01255C53.6665 6.01251 55.2956 6.50664 56.6813 7.43245C58.0669 8.35827 59.1469 9.67419 59.7847 11.2138C60.4224 12.7534 60.5893 14.4476 60.2642 16.082C59.9391 17.7165 59.1367 19.2179 57.9583 20.3963C56.7799 21.5747 55.2786 22.3772 53.6441 22.7023C52.0097 23.0274 50.3155 22.8606 48.7759 22.2228C47.2363 21.5851 45.9203 20.5052 44.9945 19.1195C44.0686 17.7339 43.5744 16.1049 43.5744 14.4384C43.577 12.2045 44.4655 10.0629 46.045 8.48328C47.6246 6.90368 49.7662 6.01513 52.0001 6.01255ZM52.0001 25.6267C54.213 25.6267 56.3761 24.9704 58.216 23.741C60.056 22.5115 61.49 20.7641 62.3368 18.7196C63.1836 16.6752 63.4051 14.4256 62.9734 12.2552C62.5416 10.0848 61.476 8.09126 59.9112 6.52654C58.3464 4.96182 56.3528 3.89626 54.1824 3.46458C52.0121 3.03291 49.7624 3.25452 47.718 4.10139C45.6736 4.94826 43.9262 6.38236 42.6968 8.22232C41.4675 10.0623 40.8113 12.2255 40.8113 14.4384C40.8146 17.4048 41.9945 20.2488 44.0921 22.3463C46.1897 24.4439 49.0337 25.6235 52.0001 25.6267ZM70.8369 61.5739C70.8353 62.8479 70.3283 64.0692 69.4273 64.9698C68.5264 65.8705 67.3049 66.3769 66.0309 66.378H64.9907V45.9573C64.9907 45.591 64.8452 45.2396 64.5862 44.9806C64.3271 44.7216 63.9758 44.576 63.6095 44.576C63.2431 44.576 62.8918 44.7216 62.6328 44.9806C62.3737 45.2396 62.2282 45.591 62.2282 45.9573V93.7097C62.2302 94.7877 61.825 95.8266 61.0937 96.6185C60.3624 97.4104 59.359 97.8969 58.2843 97.9806C57.2096 98.0643 56.143 97.7391 55.2979 97.0699C54.4528 96.4008 53.8916 95.4371 53.7266 94.3719C53.7469 94.1546 53.7581 93.9336 53.7581 93.7107V77.3409C53.7581 76.9746 53.6126 76.6232 53.3536 76.3642C53.0945 76.1052 52.7432 75.9596 52.3769 75.9596C52.0105 75.9596 51.6592 76.1052 51.4002 76.3642C51.1411 76.6232 50.9956 76.9746 50.9956 77.3409V93.7097C51.0011 94.2747 50.8946 94.8352 50.6822 95.3588C50.4698 95.8824 50.1557 96.3587 49.7581 96.7602C49.3605 97.1617 48.8873 97.4804 48.3658 97.6979C47.8443 97.9154 47.2849 98.0274 46.7198 98.0274C46.1548 98.0274 45.5954 97.9154 45.0739 97.6979C44.5524 97.4804 44.0791 97.1617 43.6816 96.7602C43.284 96.3587 42.9699 95.8824 42.7575 95.3588C42.5451 94.8352 42.4385 94.2747 42.4441 93.7097V45.9573C42.4441 45.591 42.2985 45.2396 42.0395 44.9806C41.7805 44.7216 41.4291 44.576 41.0628 44.576C40.6965 44.576 40.3451 44.7216 40.0861 44.9806C39.8271 45.2396 39.6816 45.591 39.6816 45.9573V66.3782H37.9704C36.6965 66.3772 35.475 65.8708 34.574 64.9702C33.673 64.0695 33.1661 62.8483 33.1645 61.5743V39.5452C33.1674 37.1113 34.1358 34.7779 35.857 33.0569C37.5782 31.336 39.9118 30.3681 42.3457 30.3656H42.634C42.4382 30.9395 42.3685 31.5489 42.4294 32.1522C42.4904 32.7555 42.6806 33.3386 42.9872 33.8618L48.3006 43.065C48.6755 43.7146 49.2149 44.2541 49.8645 44.6292C50.5141 45.0043 51.251 45.2018 52.0011 45.2018C52.7512 45.2018 53.4881 45.0043 54.1377 44.6292C54.7872 44.2541 55.3266 43.7146 55.7016 43.065L61.0139 33.861C61.3205 33.338 61.5108 32.755 61.5717 32.1518C61.6327 31.5486 61.5629 30.9394 61.3672 30.3656H61.6552C64.0892 30.3683 66.4227 31.3363 68.1439 33.0573C69.8651 34.7782 70.8335 37.1117 70.8365 39.5456V61.5745L70.8369 61.5739ZM58.6219 30.9697C58.4757 30.7075 58.2525 30.4965 57.9825 30.3652H46.0184C45.7483 30.4961 45.525 30.707 45.379 30.9693C45.2395 31.1964 45.1656 31.4577 45.1656 31.7242C45.1656 31.9907 45.2395 32.252 45.379 32.4791L50.6922 41.6829C50.8248 41.9126 51.0155 42.1033 51.2452 42.2359C51.4749 42.3685 51.7355 42.4383 52.0007 42.4383C52.2659 42.4383 52.5264 42.3685 52.7561 42.2359C52.9858 42.1033 53.1766 41.9126 53.3092 41.6829L58.6219 32.4797C58.7614 32.2526 58.8352 31.9912 58.8352 31.7247C58.8352 31.4582 58.7614 31.1969 58.6219 30.9697ZM61.6554 27.6021H42.3447C39.1782 27.6057 36.1424 28.8653 33.9033 31.1044C31.6642 33.3435 30.4046 36.3793 30.401 39.5458V61.5747C30.4034 63.5813 31.2017 65.5049 32.6207 66.9236C34.0397 68.3423 35.9635 69.1402 37.97 69.1422H39.6811V93.7097C39.6802 95.1858 40.1435 96.6247 41.0055 97.8229C41.8674 99.0211 43.0844 99.9179 44.4841 100.386C45.8839 100.855 47.3955 100.871 48.805 100.433C50.2145 99.995 51.4506 99.1248 52.3383 97.9455C53.2256 99.1248 54.4614 99.9951 55.8707 100.433C57.28 100.871 58.7914 100.855 60.1909 100.386C61.5904 99.9179 62.807 99.0211 63.6686 97.8229C64.5302 96.6246 64.993 95.1858 64.9915 93.7099V69.1414H66.0319C68.0384 69.1393 69.9621 68.3415 71.381 66.9229C72.8 65.5043 73.5983 63.5808 73.6008 61.5743V39.5452C73.597 36.3785 72.3371 33.3425 70.0976 31.1035C67.8582 28.8645 64.822 27.6053 61.6552 27.6021H61.6554Z" fill="#231F20"/>
<path fill-rule="evenodd" clip-rule="evenodd" d="M43.5742 14.4386C43.5743 16.105 44.0685 17.734 44.9944 19.1195C45.9203 20.5051 47.2362 21.5849 48.7758 22.2226C50.3154 22.8602 52.0095 23.027 53.6438 22.7019C55.2782 22.3767 56.7795 21.5742 57.9578 20.3959C59.1361 19.2175 59.9385 17.7162 60.2636 16.0818C60.5887 14.4474 60.4218 12.7533 59.7841 11.2138C59.1463 9.6742 58.0664 8.35832 56.6808 7.43252C55.2952 6.50672 53.6663 6.01257 51.9998 6.01257C49.766 6.01515 47.6243 6.90374 46.0447 8.48338C44.4652 10.063 43.5767 12.2047 43.5742 14.4386Z" fill="#00ABEA"/>
<path fill-rule="evenodd" clip-rule="evenodd" d="M82.8215 19.3579C82.9501 19.4861 83.0521 19.6383 83.1217 19.806C83.1913 19.9736 83.2271 20.1533 83.2271 20.3348C83.2271 20.5164 83.1913 20.6961 83.1217 20.8637C83.0521 21.0314 82.9501 21.1836 82.8215 21.3118L77.3525 26.783L79.3005 28.733L84.7715 23.2624C84.8998 23.134 85.0521 23.0322 85.2197 22.9627C85.3873 22.8932 85.567 22.8575 85.7485 22.8575C85.93 22.8575 86.1097 22.8932 86.2773 22.9627C86.445 23.0322 86.5973 23.134 86.7255 23.2624L88.3438 24.8815L88.3873 24.9221L88.5236 18.1432C88.4861 18.0037 88.4125 17.8765 88.3103 17.7743C88.2081 17.6722 88.0808 17.5987 87.9412 17.5613L81.1617 17.6966L81.2024 17.7402L82.8215 19.3579Z" fill="#00ABEA"/>
<path fill-rule="evenodd" clip-rule="evenodd" d="M86.7255 70.0967C86.4663 70.3555 86.1149 70.5009 85.7486 70.5009C85.3823 70.5009 85.0309 70.3555 84.7717 70.0967L79.3005 64.6257L77.3525 66.5757L82.8215 72.0467C82.9501 72.1748 83.0521 72.3271 83.1217 72.4947C83.1913 72.6624 83.2271 72.8421 83.2271 73.0236C83.2271 73.2051 83.1913 73.3849 83.1217 73.5525C83.0521 73.7202 82.9501 73.8724 82.8215 74.0006L81.203 75.6191L81.1624 75.6625L87.9418 75.7968C88.0856 75.7697 88.2158 75.6945 88.3111 75.5835C88.4244 75.491 88.5001 75.3605 88.5242 75.2163L88.3879 68.437L88.3446 68.4776L86.7255 70.0967Z" fill="#00ABEA"/>
<path fill-rule="evenodd" clip-rule="evenodd" d="M21.1787 74.0008C21.0501 73.8726 20.9481 73.7203 20.8785 73.5527C20.8089 73.385 20.773 73.2053 20.773 73.0237C20.773 72.8422 20.8089 72.6624 20.8785 72.4948C20.9481 72.3271 21.0501 72.1749 21.1787 72.0467L26.6476 66.5757L24.6999 64.6257L19.2285 70.0967C18.9693 70.3555 18.618 70.5009 18.2517 70.5009C17.8854 70.5009 17.534 70.3555 17.2748 70.0967L15.6561 68.4786L15.6129 68.437L15.4766 75.2173C15.5009 75.362 15.5766 75.493 15.6898 75.5864C15.7832 75.6974 15.9126 75.7722 16.0555 75.7976H16.0595L22.839 75.6633L22.7984 75.6199L21.1787 74.0008Z" fill="#00ABEA"/>
<path fill-rule="evenodd" clip-rule="evenodd" d="M18.2521 22.8573C18.4336 22.8571 18.6133 22.8927 18.781 22.9621C18.9486 23.0315 19.1009 23.1333 19.2291 23.2617L24.7001 28.7323L26.6479 26.7823L21.1789 21.3117C21.0506 21.1835 20.9487 21.0312 20.8793 20.8635C20.8098 20.6959 20.774 20.5162 20.774 20.3347C20.774 20.1532 20.8098 19.9735 20.8793 19.8059C20.9487 19.6383 21.0506 19.4859 21.1789 19.3577L22.7972 17.7392L22.8379 17.6951L16.0584 17.5604H16.0543C15.9111 17.5859 15.7816 17.6614 15.6887 17.7733C15.5754 17.8661 15.4997 17.9969 15.4756 18.1414L15.6117 24.9217L15.6551 24.8798L17.2734 23.2611C17.4019 23.1327 17.5545 23.0309 17.7225 22.9616C17.8904 22.8923 18.0704 22.8568 18.2521 22.8573Z" fill="#00ABEA"/>
</svg>
