<svg width="104" height="104" viewBox="0 0 104 104" fill="none" xmlns="http://www.w3.org/2000/svg">
<path fill-rule="evenodd" clip-rule="evenodd" d="M91.835 29.1738C90.6182 29.1738 89.4287 28.813 88.4169 28.1369C87.4052 27.4609 86.6166 26.5 86.1509 25.3758C85.6853 24.2516 85.5634 23.0145 85.8008 21.8211C86.0382 20.6276 86.6242 19.5313 87.4846 18.6709C88.345 17.8105 89.4413 17.2245 90.6348 16.9871C91.8282 16.7497 93.0653 16.8716 94.1895 17.3372C95.3137 17.8029 96.2746 18.5915 96.9506 19.6032C97.6267 20.615 97.9875 21.8045 97.9875 23.0213C97.9857 24.6524 97.337 26.2162 96.1837 27.3696C95.0304 28.523 93.4667 29.1719 91.8357 29.1738H91.835ZM91.835 14.1058C90.0716 14.1056 88.3478 14.6284 86.8815 15.608C85.4152 16.5876 84.2723 17.98 83.5974 19.6091C82.9224 21.2383 82.7458 23.031 83.0897 24.7605C83.4336 26.4901 84.2827 28.0788 85.5296 29.3257C86.7765 30.5727 88.3652 31.4219 90.0947 31.766C91.8242 32.11 93.6169 31.9335 95.2461 31.2587C96.8753 30.5838 98.2678 29.4411 99.2475 27.9748C100.227 26.5086 100.75 24.7848 100.75 23.0213C100.747 20.6577 99.8073 18.3916 98.136 16.7202C96.4647 15.0488 94.1987 14.1086 91.835 14.1058ZM30.7671 23.0209C30.7671 21.804 31.128 20.6145 31.804 19.6026C32.48 18.5908 33.4409 17.8022 34.5652 17.3364C35.6894 16.8706 36.9265 16.7487 38.12 16.986C39.3135 17.2233 40.4099 17.8091 41.2705 18.6695C42.1311 19.5299 42.7172 20.6261 42.9548 21.8195C43.1924 23.013 43.0708 24.2501 42.6054 25.3745C42.1399 26.4988 41.3515 27.4599 40.3398 28.1362C39.3282 28.8125 38.1387 29.1737 36.9218 29.174C35.2902 29.1726 33.7259 28.5239 32.572 27.3703C31.4181 26.2167 30.769 24.6525 30.7671 23.0209ZM45.8364 23.0209C45.8364 21.2572 45.3133 19.5331 44.3334 18.0666C43.3535 16.6002 41.9607 15.4572 40.3312 14.7824C38.7017 14.1075 36.9087 13.931 35.1789 14.2752C33.449 14.6194 31.8602 15.4689 30.6131 16.7162C29.3661 17.9635 28.517 19.5525 28.1731 21.2824C27.8293 23.0123 28.0061 24.8053 28.6813 26.4347C29.3565 28.064 30.4997 29.4566 31.9664 30.4362C33.4331 31.4158 35.1573 31.9385 36.921 31.9381C39.2849 31.9352 41.5511 30.9947 43.2225 29.323C44.8939 27.6513 45.8339 25.3848 45.8364 23.0209ZM94.9672 21.8428C95.2264 21.5837 95.3719 21.2323 95.372 20.8659C95.372 20.4994 95.2264 20.148 94.9673 19.8889C94.7082 19.6297 94.3568 19.4841 93.9904 19.4841C93.6239 19.4841 93.2725 19.6297 93.0134 19.8888L91.8353 21.0683L90.6547 19.8902C90.5264 19.7619 90.3741 19.6601 90.2065 19.5907C90.0389 19.5213 89.8593 19.4856 89.6779 19.4856C89.4964 19.4856 89.3168 19.5213 89.1492 19.5907C88.9816 19.6601 88.8293 19.7619 88.701 19.8902C88.5728 20.0185 88.471 20.1707 88.4016 20.3383C88.3321 20.5059 88.2964 20.6856 88.2964 20.867C88.2964 21.0484 88.3321 21.2281 88.4016 21.3957C88.471 21.5633 88.5728 21.7156 88.701 21.8438L89.8814 23.022L88.7008 24.2017C88.4418 24.4608 88.2963 24.8122 88.2964 25.1786C88.2965 25.545 88.4421 25.8963 88.7012 26.1554C88.9604 26.4144 89.3118 26.5598 89.6781 26.5598C90.0445 26.5597 90.3959 26.4141 90.6549 26.155L91.8353 24.9768L93.0134 26.1562C93.2725 26.4153 93.6239 26.5609 93.9903 26.5609C94.3568 26.5609 94.7082 26.4154 94.9673 26.1563C95.2265 25.8972 95.372 25.5458 95.3721 25.1793C95.3721 24.8129 95.2265 24.4614 94.9674 24.2023L93.7893 23.0228L94.9674 21.8446L94.9672 21.8428ZM41.4292 21.6324C41.6883 21.3733 41.8339 21.0218 41.8339 20.6553C41.8339 20.2889 41.6883 19.9374 41.4292 19.6783C41.17 19.4192 40.8186 19.2736 40.4521 19.2736C40.0857 19.2736 39.7342 19.4192 39.4751 19.6783L35.7191 23.4361L34.3651 22.0833C34.106 21.8242 33.7546 21.6786 33.3882 21.6786C33.0218 21.6786 32.6704 21.8241 32.4113 22.0832C32.1522 22.3423 32.0067 22.6937 32.0066 23.0601C32.0066 23.4265 32.1522 23.7779 32.4112 24.037L34.7421 26.3668C34.8704 26.4951 35.0227 26.597 35.1903 26.6664C35.3579 26.7359 35.5376 26.7716 35.719 26.7716C35.9005 26.7716 36.0801 26.7359 36.2478 26.6664C36.4154 26.597 36.5677 26.4951 36.696 26.3668L41.4288 21.634L41.4292 21.6324ZM71.8315 14.1683C72.7193 14.1685 73.5871 14.432 74.3252 14.9254C75.0633 15.4188 75.6385 16.1199 75.9781 16.9402C76.3177 17.7605 76.4065 18.6631 76.2332 19.5338C76.0598 20.4045 75.6322 21.2043 75.0044 21.832C74.3765 22.4597 73.5766 22.8872 72.7059 23.0603C71.8351 23.2334 70.9326 23.1445 70.1124 22.8047C69.2922 22.4649 68.5911 21.8895 68.0979 21.1513C67.6047 20.4131 67.3414 19.5452 67.3414 18.6574C67.3431 17.4672 67.8168 16.3262 68.6585 15.4847C69.5002 14.6432 70.6413 14.1698 71.8315 14.1683ZM71.8315 25.9106C73.266 25.9105 74.6683 25.485 75.8609 24.688C77.0536 23.891 77.9832 22.7581 78.532 21.4328C79.0809 20.1074 79.2244 18.6491 78.9444 17.2422C78.6644 15.8353 77.9735 14.543 76.959 13.5287C75.9445 12.5145 74.6521 11.8239 73.2451 11.5442C71.8382 11.2645 70.3799 11.4084 69.0546 11.9575C67.7294 12.5067 66.5968 13.4364 65.8 14.6293C65.0032 15.8222 64.5781 17.2245 64.5783 18.659C64.5806 20.5819 65.3456 22.4254 66.7053 23.785C68.0651 25.1447 69.9086 25.9095 71.8315 25.9116V25.9106ZM82.5547 46.877C82.5538 47.4927 82.3087 48.083 81.8732 48.5183C81.4377 48.9536 80.8473 49.1983 80.2315 49.1989H80.1647V37.5281C80.1647 37.1618 80.0192 36.8105 79.7601 36.5514C79.5011 36.2924 79.1498 36.1469 78.7835 36.1469C78.4171 36.1469 78.0658 36.2924 77.8068 36.5514C77.5477 36.8105 77.4022 37.1618 77.4022 37.5281V66.1178C77.4013 66.6494 77.1897 67.159 76.8137 67.5348C76.4378 67.9107 75.9282 68.1222 75.3966 68.123C74.9302 68.1154 74.4804 67.9489 74.1216 67.651C73.7627 67.3532 73.5162 66.9418 73.4228 66.4848C73.4329 66.3644 73.4384 66.2421 73.4384 66.1178V56.3162C73.4384 55.9498 73.2929 55.5985 73.0339 55.3395C72.7748 55.0804 72.4235 54.9349 72.0572 54.9349C71.6908 54.9349 71.3395 55.0804 71.0805 55.3395C70.8214 55.5985 70.6759 55.9498 70.6759 56.3162V66.1176C70.6759 66.6494 70.4646 67.1595 70.0885 67.5356C69.7124 67.9117 69.2023 68.123 68.6705 68.123C68.1386 68.123 67.6285 67.9117 67.2524 67.5356C66.8763 67.1595 66.665 66.6494 66.665 66.1176V37.5279C66.665 37.1615 66.5194 36.81 66.2603 36.5509C66.0012 36.2917 65.6497 36.1462 65.2833 36.1462C64.9168 36.1462 64.5653 36.2917 64.3062 36.5509C64.0471 36.81 63.9015 37.1615 63.9015 37.5279V49.1983H63.4319C62.8161 49.1979 62.2256 48.9533 61.79 48.5181C61.3544 48.0828 61.1093 47.4925 61.1085 46.8768V33.6889C61.1102 32.4665 61.5641 31.2881 62.3829 30.3805C63.2016 29.4729 64.3273 28.9004 65.543 28.7732C65.4957 29.3976 65.6389 30.0217 65.9537 30.563L69.1352 36.0727C69.4085 36.546 69.8014 36.9389 70.2747 37.2122C70.7479 37.4854 71.2847 37.6292 71.8312 37.6292C72.3776 37.6292 72.9145 37.4854 73.3877 37.2122C73.8609 36.9389 74.2539 36.546 74.5272 36.0727L77.7089 30.5624C78.0233 30.021 78.167 29.3974 78.1213 28.773C79.3368 28.9002 80.4623 29.4728 81.2808 30.3804C82.0993 31.288 82.5529 32.4665 82.5543 33.6887V46.8765L82.5547 46.877ZM75.3153 28.8321C75.298 28.8015 75.2768 28.7732 75.2523 28.7478H68.4111C68.3871 28.7736 68.366 28.8018 68.3481 28.8321C68.3134 28.8838 68.2948 28.9447 68.2948 29.0069C68.2948 29.0692 68.3134 29.1301 68.3481 29.1817L71.5294 34.6919C71.5567 34.7477 71.6 34.7942 71.6537 34.8253C71.7075 34.8565 71.7693 34.8709 71.8313 34.8668C71.8937 34.871 71.9559 34.8566 72.0101 34.8255C72.0644 34.7944 72.1082 34.7479 72.136 34.6919L75.3153 29.1819C75.3501 29.1302 75.3686 29.0693 75.3686 29.007C75.3686 28.9447 75.3501 28.8838 75.3153 28.8321ZM77.6126 25.9843C79.6554 25.9866 81.6139 26.799 83.0584 28.2435C84.5029 29.6879 85.3154 31.6463 85.3178 33.6891V46.877C85.3161 48.2253 84.7797 49.5178 83.8262 50.4711C82.8727 51.4244 81.58 51.9606 80.2317 51.962H80.1647V66.1172C80.1663 67.0595 79.8881 67.9811 79.3655 68.7652C78.8429 69.5493 78.0993 70.1607 77.2289 70.5219C76.3586 70.883 75.4006 70.9778 74.4764 70.7941C73.5521 70.6104 72.7032 70.1566 72.0371 69.4901C71.3704 70.1566 70.521 70.6104 69.5963 70.7941C68.6716 70.9778 67.7132 70.8831 66.8424 70.5221C65.9715 70.161 65.2273 69.5498 64.7039 68.7657C64.1805 67.9816 63.9014 67.0599 63.9019 66.1172V51.9614H63.4319C62.0835 51.96 60.7908 51.4239 59.8373 50.4706C58.8837 49.5173 58.3473 48.2247 58.3456 46.8763V33.6891C58.3483 31.6463 59.161 29.688 60.6055 28.2437C62.0501 26.7993 64.0084 25.9868 66.0512 25.9843H77.6126ZM48.7734 40.3668C48.7734 41.2546 48.5101 42.1224 48.0169 42.8606C47.5237 43.5988 46.8227 44.1742 46.0025 44.514C45.1823 44.8538 44.2798 44.9428 43.409 44.7697C42.5383 44.5966 41.7384 44.1692 41.1106 43.5415C40.4827 42.9139 40.055 42.1141 39.8817 41.2434C39.7083 40.3727 39.797 39.4702 40.1365 38.6499C40.4761 37.8296 41.0512 37.1284 41.7893 36.635C42.5273 36.1415 43.3951 35.878 44.2829 35.8777C45.4732 35.8789 46.6145 36.3522 47.4563 37.1938C48.2981 38.0353 48.7718 39.1765 48.7734 40.3668ZM37.0315 40.3668C37.0317 41.801 37.4572 43.2029 38.2541 44.3953C39.0511 45.5877 40.1837 46.5169 41.5087 47.0656C42.8338 47.6143 44.2918 47.7578 45.6984 47.4779C47.105 47.198 48.397 46.5072 49.4111 45.4931C50.4251 44.4789 51.1157 43.1868 51.3954 41.7801C51.6751 40.3735 51.5314 38.9155 50.9826 37.5905C50.4337 36.2655 49.5042 35.133 48.3117 34.3363C47.1192 33.5395 45.7173 33.1142 44.2831 33.1142C42.3604 33.1165 40.5171 33.8814 39.1576 35.2411C37.7982 36.6007 37.0336 38.4441 37.0315 40.3668ZM55.0062 68.5868C55.0053 69.202 54.7604 69.7919 54.3253 70.227C53.8903 70.662 53.3004 70.9069 52.6851 70.9079H52.6163V59.2367C52.6163 58.8704 52.4708 58.519 52.2117 58.26C51.9527 58.001 51.6014 57.8555 51.235 57.8555C50.8687 57.8555 50.5174 58.001 50.2583 58.26C49.9993 58.519 49.8538 58.8704 49.8538 59.2367V87.8261C49.853 88.3578 49.6415 88.8674 49.2656 89.2434C48.8896 89.6193 48.38 89.8308 47.8483 89.8316C47.3825 89.8242 46.9331 89.6581 46.5745 89.3605C46.216 89.063 45.9697 88.6519 45.8766 88.1954C45.8865 88.0735 45.8924 87.9517 45.8924 87.8263V78.0248C45.8924 77.6584 45.7469 77.3071 45.4879 77.0481C45.2288 76.789 44.8775 76.6435 44.5112 76.6435C44.1449 76.6435 43.7935 76.789 43.5345 77.0481C43.2755 77.3071 43.1299 77.6584 43.1299 78.0248V87.8259C43.1299 88.358 42.9186 88.8683 42.5423 89.2446C42.1661 89.6208 41.6558 89.8322 41.1237 89.8322C40.5916 89.8322 40.0813 89.6208 39.705 89.2446C39.3288 88.8683 39.1174 88.358 39.1174 87.8259V59.2367C39.1174 58.8704 38.9719 58.519 38.7128 58.26C38.4538 58.001 38.1025 57.8555 37.7362 57.8555C37.3698 57.8555 37.0185 58.001 36.7595 58.26C36.5004 58.519 36.3549 58.8704 36.3549 59.2367V70.9077H35.8851C35.2697 70.9071 34.6796 70.6623 34.2445 70.2272C33.8093 69.792 33.5646 69.202 33.564 68.5866V55.3974C33.5652 54.1753 34.0188 52.9968 34.8373 52.0892C35.6558 51.1815 36.7812 50.609 37.9968 50.4818C37.9491 51.1064 38.093 51.7307 38.4091 52.2715L41.5911 57.7813C41.8641 58.2545 42.2569 58.6475 42.7299 58.9208C43.203 59.194 43.7397 59.3379 44.286 59.3379C44.8323 59.3379 45.369 59.194 45.8421 58.9208C46.3152 58.6475 46.708 58.2545 46.981 57.7813L50.1625 52.2709C50.478 51.73 50.6219 51.1061 50.5751 50.4816C51.7906 50.6088 52.916 51.1814 53.7345 52.0891C54.5529 52.9967 55.0065 54.1751 55.0079 55.3972V68.5861L55.0062 68.5868ZM47.7691 50.5405C47.751 50.5098 47.7291 50.4815 47.7039 50.4562H40.8649C40.8395 50.4813 40.8176 50.5096 40.7997 50.5405C40.7649 50.5922 40.7464 50.653 40.7464 50.7153C40.7464 50.7776 40.7649 50.8384 40.7997 50.8901L43.9812 56.4003C44.0119 56.4535 44.0561 56.4976 44.1093 56.5283C44.1624 56.5591 44.2228 56.5752 44.2842 56.5752C44.3456 56.5752 44.4059 56.5591 44.4591 56.5283C44.5123 56.4976 44.5565 56.4535 44.5872 56.4003L47.7687 50.8903C47.8034 50.8385 47.822 50.7776 47.822 50.7152C47.822 50.6529 47.8034 50.5919 47.7687 50.5401L47.7691 50.5405ZM50.0644 47.6931H38.5021C36.4596 47.6957 34.5015 48.5083 33.0574 49.9527C31.6132 51.3971 30.8009 53.3553 30.7986 55.3978V68.5868C30.8001 69.9347 31.3362 71.2271 32.2894 72.1802C33.2425 73.1334 34.5349 73.6695 35.8828 73.671H36.3529V87.8261C36.3523 88.7689 36.6314 89.6906 37.1548 90.4748C37.6782 91.2589 38.4224 91.8701 39.2933 92.2312C40.1641 92.5923 41.1225 92.687 42.0472 92.5033C42.9719 92.3196 43.8213 91.8658 44.488 91.1992C45.1541 91.8658 46.0031 92.3197 46.9274 92.5035C47.8517 92.6872 48.8097 92.5925 49.6801 92.2313C50.5505 91.8701 51.2941 91.2587 51.8167 90.4745C52.3393 89.6903 52.6175 88.7687 52.6159 87.8263V73.671H52.6851C54.033 73.6691 55.3251 73.1329 56.2781 72.1798C57.2312 71.2267 57.7674 69.9346 57.7692 68.5868V55.3974C57.7665 53.3549 56.9539 51.3968 55.5094 49.9526C54.065 48.5084 52.1068 47.696 50.0642 47.6937L50.0644 47.6931ZM16.7363 14.1683C17.6241 14.1686 18.4919 14.4321 19.2299 14.9255C19.968 15.4189 20.5432 16.1201 20.8828 16.9404C21.2223 17.7607 21.3111 18.6632 21.1377 19.5339C20.9644 20.4046 20.5367 21.2044 19.9089 21.8321C19.281 22.4598 18.4811 22.8872 17.6104 23.0603C16.7396 23.2334 15.8371 23.1444 15.0169 22.8046C14.1967 22.4648 13.4957 21.8895 13.0025 21.1513C12.5092 20.4131 12.246 19.5452 12.246 18.6574C12.2472 17.467 12.7208 16.3257 13.5626 15.4841C14.4045 14.6425 15.5459 14.1693 16.7363 14.1683ZM16.7363 25.9106C18.1708 25.9105 19.573 25.485 20.7657 24.6879C21.9583 23.8908 22.8878 22.758 23.4367 21.4326C23.9855 20.1073 24.1289 18.6489 23.8489 17.242C23.5689 15.8351 22.878 14.5429 21.8635 13.5287C20.8491 12.5145 19.5566 11.8239 18.1496 11.5442C16.7427 11.2645 15.2844 11.4084 13.9592 11.9575C12.634 12.5067 11.5013 13.4365 10.7046 14.6293C9.9078 15.8222 9.48265 17.2245 9.48289 18.659C9.4851 20.5819 10.2501 22.4254 11.6099 23.7849C12.9698 25.1444 14.8134 25.9089 16.7363 25.9106ZM27.4572 46.877C27.4568 47.4925 27.2121 48.0827 26.777 48.518C26.3418 48.9534 25.7516 49.1982 25.1361 49.1989H25.0672V37.5281C25.0672 37.1618 24.9217 36.8105 24.6627 36.5514C24.4037 36.2924 24.0523 36.1469 23.686 36.1469C23.3197 36.1469 22.9683 36.2924 22.7093 36.5514C22.4503 36.8105 22.3048 37.1618 22.3048 37.5281V66.1172C22.3039 66.6488 22.0923 67.1583 21.7164 67.5342C21.3405 67.9101 20.8309 68.1216 20.2993 68.1224C19.8335 68.1148 19.3843 67.9485 19.0258 67.651C18.6673 67.3535 18.421 66.9426 18.3276 66.4862C18.3375 66.3644 18.3434 66.2425 18.3434 66.1172V56.3162C18.3434 55.9498 18.1979 55.5985 17.9388 55.3395C17.6798 55.0804 17.3285 54.9349 16.9622 54.9349C16.5958 54.9349 16.2445 55.0804 15.9855 55.3395C15.7264 55.5985 15.5809 55.9498 15.5809 56.3162V66.1172C15.5756 66.6455 15.362 67.1504 14.9865 67.5222C14.611 67.8939 14.1039 68.1024 13.5756 68.1024C13.0472 68.1024 12.5401 67.8939 12.1646 67.5222C11.7891 67.1504 11.5755 66.6455 11.5702 66.1172V37.5281C11.5702 37.1618 11.4247 36.8105 11.1656 36.5514C10.9066 36.2924 10.5553 36.1469 10.189 36.1469C9.82262 36.1469 9.4713 36.2924 9.21226 36.5514C8.95323 36.8105 8.8077 37.1618 8.8077 37.5281V49.1985H8.33422C7.71871 49.1978 7.12861 48.953 6.69336 48.5178C6.25811 48.0825 6.01325 47.4925 6.0125 46.877V33.6891C6.01379 32.4669 6.46734 31.2885 7.28578 30.3809C8.10421 29.4733 9.2296 28.9007 10.4451 28.7734C10.3985 29.398 10.5423 30.022 10.8576 30.5632L14.0394 36.0729C14.3126 36.5462 14.7056 36.9391 15.1789 37.2124C15.6521 37.4856 16.1889 37.6294 16.7354 37.6294C17.2818 37.6294 17.8186 37.4856 18.2919 37.2124C18.7651 36.9391 19.1581 36.5462 19.4313 36.0729L22.6111 30.5626C22.9274 30.022 23.0713 29.3978 23.0236 28.7732C24.2391 28.9005 25.3645 29.4731 26.183 30.3807C27.0015 31.2883 27.4551 32.4667 27.4564 33.6889V46.8768L27.4572 46.877ZM20.2199 28.8317C20.2018 28.8011 20.1799 28.7729 20.1547 28.7478H13.3159C13.2904 28.7729 13.2685 28.8012 13.2507 28.8321C13.2168 28.8842 13.1988 28.9449 13.1988 29.0069C13.1988 29.069 13.2168 29.1297 13.2507 29.1817L16.4328 34.6919C16.4635 34.7451 16.5077 34.7892 16.5609 34.82C16.6141 34.8507 16.6745 34.8668 16.7359 34.8668C16.7973 34.8668 16.8576 34.8507 16.9108 34.82C16.964 34.7892 17.0082 34.7451 17.0389 34.6919L20.2203 29.1819C20.255 29.1301 20.2736 29.0692 20.2736 29.0068C20.2736 28.9445 20.255 28.8835 20.2203 28.8317H20.2199ZM22.5172 25.9843C24.5597 25.987 26.5178 26.7996 27.9619 28.244C29.406 29.6884 30.2183 31.6466 30.2205 33.6891V46.877C30.2193 48.2251 29.6834 49.5176 28.7302 50.471C27.7771 51.4243 26.4846 51.9605 25.1365 51.962H25.0675V66.1172C25.0692 67.0592 24.7912 67.9806 24.2688 68.7646C23.7465 69.5486 23.0032 70.1599 22.1331 70.5211C21.263 70.8823 20.3053 70.9771 19.3812 70.7936C18.4572 70.61 17.6084 70.1564 16.9425 69.4901C16.2758 70.157 15.4263 70.6111 14.5014 70.7951C13.5765 70.979 12.6179 70.8844 11.7468 70.5233C10.8756 70.1622 10.1312 69.5508 9.60774 68.7665C9.08424 67.9821 8.80518 67.0601 8.80588 66.1172V51.9614H8.33422C6.98631 51.9596 5.69412 51.4233 4.74102 50.4702C3.78792 49.5171 3.25172 48.2249 3.25 46.877V33.6891C3.25237 31.6463 4.06493 29.6879 5.50942 28.2435C6.95391 26.799 8.91237 25.9866 10.9551 25.9843H22.5172Z" fill="#231F20"/>
<path fill-rule="evenodd" clip-rule="evenodd" d="M12.2461 18.658C12.2461 19.5458 12.5093 20.4137 13.0026 21.1519C13.4958 21.8901 14.1968 22.4654 15.017 22.8052C15.8372 23.145 16.7397 23.234 17.6105 23.0609C18.4812 22.8878 19.2811 22.4604 19.909 21.8327C20.5368 21.205 20.9645 20.4052 21.1378 19.5345C21.3112 18.6638 21.2224 17.7613 20.8829 16.941C20.5433 16.1207 19.9681 15.4195 19.23 14.9261C18.492 14.4327 17.6242 14.1692 16.7364 14.1689C15.546 14.1701 14.4048 14.6434 13.5629 15.4849C12.7211 16.3265 12.2475 17.4677 12.2461 18.658Z" fill="#00ABEA"/>
<path fill-rule="evenodd" clip-rule="evenodd" d="M44.2826 35.8773C43.3948 35.8776 42.527 36.1411 41.789 36.6346C41.0509 37.128 40.4758 37.8292 40.1362 38.6495C39.7967 39.4698 39.708 40.3723 39.8814 41.243C40.0547 42.1137 40.4824 42.9135 41.1102 43.5411C41.7381 44.1688 42.538 44.5962 43.4087 44.7693C44.2795 44.9424 45.182 44.8534 46.0022 44.5136C46.8224 44.1738 47.5234 43.5984 48.0166 42.8602C48.5098 42.122 48.773 41.2542 48.773 40.3664C48.7718 39.1759 48.2983 38.0346 47.4564 37.193C46.6145 36.3514 45.473 35.8782 44.2826 35.8773Z" fill="#00ABEA"/>
<path fill-rule="evenodd" clip-rule="evenodd" d="M67.3418 18.658C67.3416 19.5462 67.6047 20.4144 68.098 21.153C68.5912 21.8916 69.2924 22.4673 70.1129 22.8074C70.9334 23.1474 71.8363 23.2365 72.7074 23.0634C73.5785 22.8902 74.3787 22.4626 75.0068 21.8347C75.6349 21.2067 76.0627 20.4066 76.236 19.5356C76.4094 18.6645 76.3205 17.7616 75.9806 16.941C75.6408 16.1205 75.0652 15.4191 74.3267 14.9257C73.5882 14.4323 72.72 14.1689 71.8319 14.1689C70.6417 14.1705 69.5007 14.6439 68.659 15.4854C67.8173 16.3269 67.3436 17.4678 67.3418 18.658Z" fill="#00ABEA"/>
<path fill-rule="evenodd" clip-rule="evenodd" d="M36.9213 29.1741C38.138 29.1736 39.3273 28.8124 40.3387 28.1361C41.3502 27.4599 42.1384 26.4988 42.6038 25.3746C43.0691 24.2504 43.1907 23.0135 42.9531 21.8202C42.7155 20.6269 42.1294 19.5308 41.2689 18.6706C40.4085 17.8103 39.3123 17.2246 38.1189 16.9873C36.9255 16.75 35.6886 16.8719 34.5645 17.3375C33.4404 17.8031 32.4796 18.5916 31.8036 19.6033C31.1276 20.6149 30.7667 21.8043 30.7666 23.021C30.7685 24.6526 31.4177 26.2167 32.5715 27.3703C33.7254 28.5238 35.2897 29.1725 36.9213 29.1741ZM41.4294 21.6316L36.6966 26.3644C36.5684 26.4928 36.4161 26.5946 36.2484 26.664C36.0808 26.7335 35.9011 26.7692 35.7197 26.7692C35.5383 26.7692 35.3586 26.7335 35.191 26.664C35.0233 26.5946 34.871 26.4928 34.7428 26.3644L32.4119 24.0346C32.1528 23.7755 32.0073 23.4241 32.0073 23.0577C32.0073 22.6913 32.1529 22.3399 32.412 22.0808C32.6711 21.8218 33.0225 21.6762 33.3889 21.6762C33.7553 21.6763 34.1067 21.8218 34.3658 22.0809L35.7198 23.4337L39.4758 19.6759C39.7349 19.4168 40.0864 19.2712 40.4528 19.2712C40.8193 19.2712 41.1707 19.4168 41.4299 19.6759C41.689 19.935 41.8346 20.2865 41.8346 20.653C41.8346 21.0194 41.689 21.3709 41.4299 21.63L41.4294 21.6316Z" fill="#00ABEA"/>
<path fill-rule="evenodd" clip-rule="evenodd" d="M85.6826 23.0214C85.6827 24.2381 86.0435 25.4276 86.7195 26.4392C87.3955 27.4509 88.3564 28.2394 89.4805 28.705C90.6047 29.1706 91.8416 29.2924 93.035 29.055C94.2284 28.8176 95.3245 28.2317 96.1849 27.3713C97.0452 26.5109 97.6312 25.4147 97.8685 24.2213C98.1059 23.0279 97.984 21.791 97.5184 20.6669C97.0528 19.5427 96.2642 18.5819 95.2525 17.9059C94.2408 17.2299 93.0514 16.8691 91.8347 16.8691C90.2036 16.871 88.6398 17.5198 87.4865 18.6732C86.3332 19.8266 85.6844 21.3903 85.6826 23.0214ZM89.881 23.0214L88.7006 21.8433C88.5724 21.715 88.4706 21.5627 88.4012 21.3951C88.3318 21.2275 88.296 21.0479 88.296 20.8664C88.296 20.5001 88.4416 20.1487 88.7006 19.8896C88.9597 19.6305 89.3111 19.485 89.6775 19.485C90.0439 19.485 90.3952 19.6305 90.6543 19.8896L91.8349 21.0677L93.013 19.8882C93.2721 19.6291 93.6236 19.4835 93.99 19.4836C94.3564 19.4836 94.7079 19.6292 94.967 19.8883C95.226 20.1474 95.3716 20.4989 95.3716 20.8653C95.3716 21.2317 95.226 21.5832 94.9669 21.8423L93.7887 23.0204L94.9669 24.1999C95.0951 24.3282 95.1969 24.4805 95.2663 24.6482C95.3358 24.8158 95.3715 24.9955 95.3715 25.1769C95.3715 25.3584 95.3357 25.538 95.2663 25.7057C95.1968 25.8733 95.0951 26.0256 94.9668 26.1539C94.8384 26.2822 94.6861 26.3839 94.5185 26.4534C94.3509 26.5228 94.1712 26.5585 93.9897 26.5585C93.8083 26.5585 93.6286 26.5228 93.461 26.4533C93.2934 26.3839 93.1411 26.2821 93.0128 26.1538L91.8347 24.9744L90.6543 26.1526C90.5261 26.2809 90.3738 26.3827 90.2062 26.4521C90.0386 26.5216 89.859 26.5573 89.6776 26.5574C89.4961 26.5574 89.3165 26.5217 89.1489 26.4523C88.9813 26.3829 88.829 26.2812 88.7006 26.153C88.5723 26.0247 88.4706 25.8724 88.4011 25.7049C88.3316 25.5373 88.2959 25.3576 88.2958 25.1762C88.2958 24.9948 88.3315 24.8152 88.4009 24.6475C88.4703 24.4799 88.572 24.3276 88.7002 24.1993L89.881 23.0214Z" fill="#00ABEA"/>
</svg>
