<svg width="104" height="104" viewBox="0 0 104 104" fill="none" xmlns="http://www.w3.org/2000/svg">
<path fill-rule="evenodd" clip-rule="evenodd" d="M59.4596 6.2268L68.0566 11.1922L48.0972 22.7161L39.4979 17.7509L59.4596 6.2268ZM60.8408 54.7162L80.7999 43.1921V20.1435L60.841 31.6672V54.7162H60.8408ZM79.4186 17.7509L70.8197 12.7863L50.8601 24.3108L59.4596 29.275L79.4186 17.7509ZM38.1162 20.1435V43.1921L58.0777 54.7162V31.6672L49.4924 26.7109V32.6676C49.4924 33.0339 49.3469 33.3852 49.0879 33.6443C48.8288 33.9033 48.4775 34.0488 48.1112 34.0488C47.7449 34.0488 47.3935 33.9033 47.1345 33.6443C46.8755 33.3852 46.7299 33.0339 46.7299 32.6676V25.1162L38.1174 20.1435H38.1162ZM36.0443 45.1864L58.7687 58.3058C58.9787 58.4271 59.2169 58.4909 59.4594 58.4909C59.7018 58.4909 59.94 58.4271 60.15 58.3058L82.8728 45.1864C83.0829 45.0653 83.2574 44.8909 83.3786 44.6809C83.4999 44.4708 83.5636 44.2325 83.5634 43.99V17.7509C83.5634 17.5084 83.4996 17.2702 83.3784 17.0602C83.2572 16.8501 83.0828 16.6757 82.8728 16.5545L60.15 3.43505C59.94 3.31382 59.7018 3.25 59.4594 3.25C59.2169 3.25 58.9787 3.31382 58.7687 3.43505L36.0441 16.5547C35.8343 16.6762 35.6601 16.8507 35.5389 17.0607C35.4177 17.2707 35.3538 17.5088 35.3535 17.7513V43.9898C35.3537 44.2323 35.4176 44.4704 35.5388 44.6804C35.66 44.8905 35.8345 45.0649 36.0443 45.1864ZM21.1985 78.7181C21.2892 78.8753 21.3479 79.0488 21.3715 79.2288C21.395 79.4087 21.3828 79.5916 21.3357 79.7668C21.2885 79.942 21.2073 80.1063 21.0966 80.2501C20.986 80.394 20.848 80.5146 20.6907 80.6051C20.4816 80.7269 20.2439 80.7909 20.0019 80.7905C19.7592 80.7906 19.5207 80.7268 19.3103 80.6056C19.1 80.4844 18.9252 80.31 18.8035 80.0999L17.1675 77.2637C17.0734 77.1065 17.0115 76.9321 16.9855 76.7508C16.9594 76.5694 16.9697 76.3847 17.0157 76.2073C17.0617 76.03 17.1425 75.8636 17.2535 75.7178C17.3644 75.572 17.5033 75.4497 17.662 75.3581C17.8206 75.2665 17.9959 75.2073 18.1777 75.1841C18.3594 75.1609 18.5439 75.1741 18.7205 75.2229C18.8971 75.2717 19.0623 75.3551 19.2063 75.4683C19.3503 75.5816 19.4704 75.7223 19.5595 75.8824L21.1979 78.7185L21.1985 78.7181ZM90.7061 72.7953C90.635 74.1809 89.4961 75.4459 87.5008 76.3616C87.4538 76.3829 87.4082 76.4073 87.3645 76.4347L61.8575 91.8154C61.8495 91.8192 61.8432 91.8251 61.8355 91.8292C59.4872 93.3073 56.9402 93.5364 54.0558 92.5279C54.0261 92.5167 53.9958 92.5074 53.9648 92.5001L37.4358 87.9588C37.258 87.9095 37.1311 87.866 37.021 87.8266C36.1234 87.5126 35.6533 87.6706 34.8758 88.1739L33.98 88.752L25.6074 74.2538L36.7275 67.5377C40.4948 65.5046 52.1806 67.6006 58.3286 71.4173C60.4328 72.7238 61.6125 74.0876 61.5672 75.1575C61.5266 76.1302 60.4344 77.2198 58.4943 78.2383C55.8334 78.0112 52.1333 77.2336 46.982 75.5367C46.8096 75.4799 46.6277 75.4577 46.4467 75.4712C46.2657 75.4847 46.0891 75.5338 45.927 75.6155C45.5997 75.7807 45.3514 76.0691 45.2368 76.4173C45.1221 76.7655 45.1505 77.145 45.3156 77.4722C45.4807 77.7995 45.7691 78.0478 46.1173 78.1625C56.2108 81.486 62.6822 81.9421 65.8873 79.5499L82.9713 70.2441C82.993 70.2323 83.0166 70.2185 83.0383 70.2047C85.918 68.4186 88.085 69.3225 88.8843 69.7942C90.0683 70.4927 90.765 71.6426 90.7061 72.7962V72.7953ZM32.1226 95.0639C32.5813 94.7982 32.9158 94.3614 33.0529 93.8493C33.19 93.3372 33.1184 92.7917 32.8539 92.3323L21.6204 72.8762C21.3542 72.4185 20.9177 72.0847 20.4063 71.9475C19.8949 71.8103 19.35 71.8809 18.8904 72.1439L14.2905 74.7986C13.8314 75.0639 13.4965 75.5006 13.3592 76.0128C13.2219 76.5249 13.2935 77.0706 13.5582 77.53L24.791 96.9881C25.0587 97.4453 25.4958 97.7785 26.0076 97.9154C26.5194 98.0523 27.0645 97.9819 27.5247 97.7194L32.1234 95.0629L32.1226 95.0639ZM90.2889 67.415C87.7334 65.9051 84.4941 66.0632 81.6154 67.8354L64.4745 77.1727C64.4085 77.2096 64.3451 77.2512 64.285 77.2972C64.0174 77.5008 63.7236 77.6674 63.4116 77.7926C63.9596 77.0623 64.2783 76.1856 64.3273 75.2739C64.4203 73.087 62.8906 70.9989 59.784 69.0706C53.2492 65.0128 40.4465 62.3425 35.374 65.1274C35.3569 65.1353 35.3404 65.1446 35.3247 65.155L24.2257 71.8616L24.0149 71.4947C23.3815 70.4023 22.3411 69.6054 21.1214 69.2784C19.9018 68.9514 18.6022 69.121 17.5074 69.7501L12.909 72.4063C11.8159 73.0385 11.0182 74.0785 10.6911 75.2981C10.3639 76.5177 10.5341 77.8173 11.1642 78.9116L22.3984 98.3698C22.7103 98.9118 23.1266 99.3866 23.6232 99.7666C24.1198 100.147 24.6868 100.424 25.2915 100.584C25.6976 100.693 26.1163 100.749 26.5369 100.75C27.3687 100.749 28.1856 100.53 28.9051 100.112L33.5041 97.4555C34.5627 96.8432 35.3455 95.8473 35.6903 94.6739C36.0352 93.5006 35.9159 92.2396 35.357 91.1517L36.344 90.5141C36.4455 90.5476 36.5629 90.5834 36.7031 90.6228L53.1893 95.1503C54.5482 95.6369 55.9791 95.8925 57.4224 95.9063C59.5059 95.9036 61.5447 95.3021 63.296 94.1734L88.7272 78.8401C92.6786 76.9988 93.3928 74.3561 93.466 72.9389C93.5779 70.7543 92.3618 68.6388 90.2889 67.415Z" fill="#231F20"/>
<path fill-rule="evenodd" clip-rule="evenodd" d="M32.8545 92.3323L21.6205 72.8762C21.3542 72.4185 20.9178 72.0847 20.4064 71.9475C19.895 71.8103 19.3501 71.8809 18.8905 72.1439L14.2905 74.7986C13.8315 75.0639 13.4966 75.5006 13.3593 76.0128C13.222 76.5249 13.2936 77.0706 13.5583 77.53L24.7911 96.9881C25.0588 97.4453 25.4959 97.7785 26.0077 97.9154C26.5195 98.0523 27.0646 97.9819 27.5248 97.7194L32.1235 95.0629C32.5822 94.7972 32.9167 94.3603 33.0538 93.8483C33.1909 93.3362 33.1193 92.7907 32.8548 92.3313L32.8545 92.3323ZM18.8042 80.0997L17.1682 77.2635C17.0741 77.1063 17.0122 76.9319 16.9862 76.7506C16.9601 76.5692 16.9704 76.3845 17.0164 76.2071C17.0624 76.0298 17.1432 75.8634 17.2542 75.7176C17.3651 75.5718 17.504 75.4495 17.6626 75.3579C17.8213 75.2663 17.9966 75.2071 18.1784 75.1839C18.3601 75.1607 18.5446 75.1739 18.7212 75.2227C18.8978 75.2715 19.063 75.3549 19.207 75.4681C19.351 75.5814 19.4711 75.7221 19.5602 75.8822L21.1986 78.7183C21.2893 78.8755 21.348 79.049 21.3716 79.229C21.3951 79.4089 21.3829 79.5918 21.3358 79.767C21.2886 79.9423 21.2074 80.1065 21.0967 80.2503C20.986 80.3942 20.8481 80.5148 20.6908 80.6053C20.4817 80.7271 20.244 80.7911 20.002 80.7907C19.7593 80.7906 19.5209 80.7267 19.3107 80.6055C19.1004 80.4842 18.9258 80.3098 18.8042 80.0997Z" fill="#00ABEA"/>
<path fill-rule="evenodd" clip-rule="evenodd" d="M60.8408 31.6681V54.7162L80.7999 43.1921V20.1436L60.8408 31.6681Z" fill="#00ABEA"/>
<path fill-rule="evenodd" clip-rule="evenodd" d="M59.4599 29.275L79.4189 17.751L70.82 12.7864L50.8604 24.3109L59.4599 29.275Z" fill="#00ABEA"/>
<path fill-rule="evenodd" clip-rule="evenodd" d="M48.0973 22.7151L68.0568 11.1912L59.4598 6.22681L39.498 17.7509L48.0973 22.7151Z" fill="#00ABEA"/>
</svg>
