<svg width="104" height="104" viewBox="0 0 104 104" fill="none" xmlns="http://www.w3.org/2000/svg">
<path fill-rule="evenodd" clip-rule="evenodd" d="M21.3425 78.8092C21.4366 78.9664 21.4985 79.1408 21.5246 79.3221C21.5506 79.5035 21.5404 79.6882 21.4944 79.8656C21.4483 80.0429 21.3675 80.2093 21.2565 80.3551C21.1456 80.5009 21.0067 80.6232 20.8481 80.7148C20.6894 80.8064 20.5141 80.8656 20.3324 80.8888C20.1506 80.912 19.9661 80.8988 19.7895 80.85C19.6129 80.8012 19.4478 80.7178 19.3037 80.6045C19.1597 80.4913 19.0396 80.3505 18.9505 80.1905L17.3206 77.367C17.2251 77.2098 17.1619 77.0351 17.1348 76.8531C17.1076 76.6711 17.1172 76.4855 17.1628 76.3073C17.2084 76.129 17.2891 75.9617 17.4003 75.8151C17.5115 75.6684 17.6508 75.5455 17.8101 75.4535C17.9695 75.3615 18.1456 75.3022 18.3281 75.2792C18.5107 75.2562 18.696 75.2699 18.8732 75.3194C19.0504 75.369 19.2158 75.4535 19.3599 75.5679C19.504 75.6824 19.6238 75.8244 19.7122 75.9858L21.3425 78.8092ZM90.524 72.9159C90.4529 74.2915 89.3197 75.5509 87.3362 76.4607C87.2892 76.4818 87.2437 76.5062 87.2001 76.5336L61.8095 91.845C61.8012 91.8489 61.7934 91.8535 61.7859 91.8588C59.4512 93.3292 56.9188 93.5561 54.0468 92.5514C54.0174 92.5417 53.9875 92.5338 53.956 92.5238L37.5029 88.0041C37.327 87.9549 37.2025 87.9114 37.092 87.8741C36.196 87.5602 35.7262 87.7181 34.9507 88.2194L34.0628 88.7918L25.7361 74.3699L36.7999 67.6871C40.5478 65.664 52.1765 67.7503 58.2944 71.5495C60.3884 72.8481 61.5629 74.204 61.5174 75.2677C61.4767 76.2307 60.3925 77.3144 58.4622 78.3288C55.8161 78.1019 52.1328 77.3262 47.0059 75.6388C46.6608 75.534 46.2883 75.5683 45.9681 75.7344C45.6479 75.9006 45.4054 76.1854 45.2925 76.528C45.1796 76.8707 45.2051 77.2439 45.3638 77.5678C45.5224 77.8918 45.8015 78.1409 46.1414 78.2618C56.1931 81.5727 62.6352 82.0255 65.8283 79.643L82.8333 70.3805C82.8567 70.3667 82.8782 70.3549 82.8999 70.3411C85.764 68.565 87.919 69.463 88.7122 69.9326C89.8887 70.6273 90.5833 71.7701 90.5244 72.9147L90.524 72.9159ZM33.1311 93.8717C33.1995 93.6203 33.2175 93.3578 33.184 93.0993C33.1504 92.8409 33.066 92.5916 32.9357 92.366L21.753 72.999C21.6231 72.7732 21.4496 72.5753 21.2425 72.4171C21.0355 72.2589 20.7991 72.1433 20.5471 72.0772C20.3765 72.0319 20.2007 72.0087 20.0242 72.0082C19.6797 72.0079 19.3413 72.099 19.0435 72.2722L14.4645 74.9153C14.01 75.18 13.6787 75.6136 13.5426 76.1215C13.4066 76.6295 13.4769 77.1707 13.7383 77.627L24.9207 96.9942C25.1837 97.4499 25.6168 97.7826 26.1249 97.9191C26.633 98.0556 27.1745 97.9848 27.6304 97.7222L32.2093 95.0777C32.4351 94.9477 32.6328 94.7742 32.7911 94.5671C32.9493 94.3601 33.0649 94.1238 33.1311 93.8717ZM90.119 67.5536C87.5732 66.0517 84.3462 66.2077 81.4766 67.9721L64.4141 77.2699C64.3484 77.3056 64.2856 77.3463 64.2262 77.3918C63.9665 77.5894 63.6818 77.752 63.3796 77.8752C63.9178 77.1516 64.2308 76.2853 64.2795 75.3847C64.3707 73.2036 62.8486 71.1236 59.754 69.2032C53.2473 65.1631 40.4994 62.5048 35.4471 65.2778C35.4314 65.2856 35.4154 65.2955 35.3977 65.3055L24.3544 71.9785L24.147 71.6174C23.5158 70.5286 22.4788 69.7344 21.2631 69.4089C20.0474 69.0834 18.7523 69.253 17.6615 69.8807L13.0832 72.5233C11.9945 73.1545 11.2002 74.1913 10.8743 75.4068C10.5483 76.6223 10.7172 77.9174 11.3441 79.0087L22.5263 98.3754C23.1558 99.466 24.1926 100.262 25.4089 100.588C26.6251 100.914 27.9211 100.744 29.0117 100.114L33.5907 97.4717C34.6438 96.8602 35.4226 95.8684 35.7669 94.7003C36.1111 93.5322 35.9947 92.2766 35.4416 91.1917L36.415 90.562C36.5153 90.5937 36.6335 90.6313 36.7698 90.6687L53.1805 95.1764C54.5345 95.6607 55.9601 95.9147 57.398 95.928C59.4723 95.9249 61.5021 95.3262 63.246 94.203L88.5622 78.9394C92.4976 77.104 93.21 74.4707 93.2831 73.0602C93.3956 70.8831 92.1838 68.7754 90.1192 67.5536H90.119ZM38.9926 38.3703C39.0387 38.782 39.0617 39.196 39.0617 39.6104V42.0042C39.0631 43.1124 39.504 44.1747 40.2875 44.9584C41.0711 45.742 42.1334 46.1829 43.2416 46.1845H45.6356C46.5547 46.1815 47.4702 46.298 48.3591 46.531L36.547 58.5073L35.5763 51.7948C35.5337 51.4999 35.3969 51.2267 35.1863 51.016C34.9757 50.8052 34.7026 50.6682 34.4077 50.6254L27.6857 49.6522L38.9924 38.3707L38.9926 38.3703ZM36.3087 28.6834L38 30.3765C39.2319 31.5746 40.2064 33.0115 40.8641 34.5991C41.5217 36.1868 41.8486 37.8919 41.8248 39.6101V42.004C41.8256 42.3796 41.9751 42.7396 42.2408 43.0051C42.5064 43.2707 42.8664 43.4201 43.242 43.4208H45.6358C47.3544 43.3971 49.0598 43.7241 50.6476 44.382C52.2355 45.0399 53.6725 46.0147 54.8707 47.2468L56.5617 48.9399C56.828 49.2052 57.1885 49.3541 57.5644 49.3541C57.9402 49.3541 58.3007 49.2052 58.567 48.9399L60.2602 47.2474C61.4581 46.0154 62.8948 45.0407 64.4824 44.383C66.07 43.7254 67.775 43.3987 69.4933 43.4228H71.8869C72.2627 43.4223 72.6229 43.2728 72.8886 43.0071C73.1542 42.7414 73.3037 42.3812 73.3041 42.0054V39.6108C73.2803 37.8924 73.6072 36.1873 74.2649 34.5995C74.9225 33.0118 75.8971 31.5749 77.129 30.3767L78.8202 28.6843C79.0856 28.4182 79.2346 28.0578 79.2346 27.682C79.2346 27.3063 79.0856 26.9458 78.8202 26.6798L77.1287 24.9878C75.8968 23.7897 74.9223 22.3528 74.2647 20.7652C73.6071 19.1775 73.2802 17.4724 73.3041 15.7541V13.3605C73.3038 12.9848 73.1544 12.6246 72.8888 12.3588C72.6232 12.0931 72.263 11.9436 71.8873 11.9431H69.4931C67.775 11.9671 66.0701 11.6403 64.4827 10.9827C62.8953 10.3251 61.4587 9.35054 60.2608 8.11867L58.5672 6.42562C58.301 6.16035 57.9405 6.0114 57.5648 6.0114C57.189 6.0114 56.8285 6.16035 56.5623 6.42562L54.8705 8.11867C53.6723 9.35073 52.2353 10.3254 50.6475 10.9831C49.0596 11.6408 47.3543 11.9677 45.6358 11.9437H43.2418C42.8662 11.9444 42.5062 12.0939 42.2406 12.3595C41.975 12.6251 41.8255 12.9851 41.8248 13.3607V15.7541C41.8487 17.4724 41.5218 19.1775 40.8642 20.7651C40.2066 22.3527 39.232 23.7895 38.0002 24.9876L36.3083 26.6804C36.0439 26.9468 35.8956 27.3069 35.8956 27.6821C35.8956 28.0574 36.0439 28.4175 36.3083 28.6839L36.3087 28.6834ZM80.0513 52.0609C79.7564 52.1038 79.4833 52.2409 79.2728 52.4517C79.0622 52.6625 78.9255 52.9358 78.8829 53.2307L77.91 59.9503L65.1251 47.1278C66.4926 46.4928 67.9846 46.1709 69.4923 46.1855H71.8865C72.9947 46.1843 74.0573 45.7435 74.8409 44.9599C75.6245 44.1762 76.0653 43.1137 76.0664 42.0054V40.2532L86.7819 51.0859L80.0513 52.0609ZM26.2193 52.2327C25.8112 52.174 25.4275 52.0028 25.1112 51.7382C24.7949 51.4737 24.5586 51.1263 24.4286 50.7349C24.2987 50.3436 24.2803 49.9238 24.3756 49.5226C24.4708 49.1215 24.6759 48.7547 24.9679 48.4636L38.1495 35.31C37.6304 34.2008 36.9188 33.1924 36.0477 32.3316L34.3541 30.6391C33.5718 29.8545 33.1326 28.7917 33.1326 27.6837C33.1326 26.5757 33.5718 25.5129 34.3541 24.7282L36.0471 23.0356C37.0179 22.0907 37.7858 20.9578 38.304 19.7061C38.8222 18.4545 39.0798 17.1103 39.0611 15.7558V13.3605C39.0626 12.2523 39.5036 11.1899 40.2872 10.4063C41.0708 9.62268 42.1332 9.18176 43.2414 9.1802H45.6358C46.9907 9.199 48.3352 8.94127 49.587 8.42277C50.8389 7.90426 51.9719 7.13589 52.9167 6.1646L54.6097 4.47237C55.3941 3.68968 56.457 3.25012 57.5652 3.25012C58.6733 3.25012 59.7362 3.68968 60.5206 4.47237L62.2119 6.16562C63.1567 7.13699 64.2898 7.90542 65.5417 8.42392C66.7937 8.94243 68.1383 9.20011 69.4933 9.18121H71.8869C72.9952 9.18229 74.0577 9.62298 74.8414 10.4066C75.6251 11.1902 76.066 12.2527 76.0672 13.3609V15.7541C76.0483 17.1089 76.306 18.4533 76.8244 19.7051C77.3429 20.9569 78.1113 22.0897 79.0826 23.0343L80.774 24.7272C81.5567 25.5116 81.9963 26.5745 81.9963 27.6827C81.9963 28.7908 81.5567 29.8537 80.774 30.6381L79.0824 32.3312C77.8422 33.5424 76.9378 35.0548 76.4576 36.7205L89.4966 49.9041C89.7868 50.1959 89.9902 50.5626 90.084 50.9633C90.1779 51.364 90.1585 51.7828 90.0281 52.1731C89.8977 52.5634 89.6614 52.9098 89.3456 53.1736C89.0297 53.4374 88.6468 53.6082 88.2395 53.667L81.4701 54.6469L80.489 61.4177C80.4316 61.8262 80.2607 62.2105 79.9959 62.5269C79.7312 62.8433 79.383 63.0792 78.991 63.2078C78.7632 63.2836 78.5246 63.3223 78.2845 63.3223C77.9936 63.3221 77.7056 63.2643 77.4372 63.1521C77.1687 63.04 76.9251 62.8759 76.7205 62.6691L62.7729 48.6801C62.5834 48.846 62.3959 49.0171 62.2143 49.1997L60.5208 50.8925C59.7364 51.6752 58.6735 52.1148 57.5654 52.1148C56.4572 52.1148 55.3944 51.6752 54.6099 50.8925L52.9164 49.1999C52.358 48.6386 51.7391 48.1409 51.0713 47.7157L37.7463 61.2283C37.5417 61.437 37.2975 61.6028 37.0281 61.716C36.7587 61.8292 36.4694 61.8875 36.1771 61.8875C35.9364 61.8873 35.6972 61.8486 35.4686 61.7729C35.0768 61.644 34.7288 61.4079 34.4641 61.0915C34.1995 60.775 34.0286 60.3909 33.971 59.9824L32.9899 53.2114L26.2207 52.2317L26.2193 52.2327ZM52.0682 26.9547C52.1995 26.8257 52.3763 26.7534 52.5604 26.7534C52.7445 26.7534 52.9212 26.8257 53.0525 26.9547L55.0243 28.925C55.1525 29.0533 55.3048 29.1551 55.4725 29.2246C55.6401 29.294 55.8198 29.3298 56.0012 29.3298C56.1827 29.3298 56.3623 29.294 56.5299 29.2246C56.6976 29.1551 56.8499 29.0533 56.9781 28.925L62.08 23.8219C62.2103 23.6918 62.3869 23.6188 62.571 23.619C62.7551 23.6192 62.9316 23.6925 63.0616 23.8228C63.1917 23.9531 63.2646 24.1297 63.2645 24.3138C63.2643 24.4978 63.191 24.6743 63.0607 24.8044C61.9441 25.9232 60.8303 27.0452 59.7195 28.1706C58.6087 29.2959 57.4935 30.4191 56.374 31.5402C56.2422 31.6684 56.0656 31.7401 55.8817 31.7401C55.6978 31.7401 55.5211 31.6684 55.3893 31.5402C54.9038 31.0559 54.4025 30.4894 53.8697 29.8894C53.2914 29.2394 52.6952 28.566 52.0678 27.9394C51.9386 27.8081 51.8663 27.6313 51.8663 27.4471C51.8663 27.263 51.9386 27.0862 52.0678 26.9549L52.0682 26.9547ZM51.8041 31.7238C51.2533 31.1037 50.6833 30.4618 50.1145 29.8931C49.4826 29.241 49.1323 28.3666 49.1394 27.4585C49.1465 26.5504 49.5103 25.6816 50.1524 25.0394C50.7944 24.3973 51.6632 24.0333 52.5713 24.0261C53.4794 24.0189 54.3538 24.3691 55.006 25.001L56.0013 25.9951L60.126 21.8694C60.4463 21.5453 60.8276 21.2878 61.2479 21.1116C61.6682 20.9354 62.1191 20.844 62.5748 20.8427C63.0305 20.8414 63.482 20.9302 63.9033 21.1041C64.3245 21.2779 64.7073 21.5333 65.0295 21.8555C65.3517 22.1778 65.607 22.5606 65.7807 22.9819C65.9545 23.4032 66.0432 23.8547 66.0418 24.3104C66.0404 24.7661 65.9489 25.217 65.7727 25.6373C65.5964 26.0575 65.3387 26.4387 65.0146 26.759C63.8997 27.8747 62.7893 28.9933 61.6833 30.1149C60.5683 31.243 59.4493 32.3697 58.3263 33.4949C57.6773 34.1426 56.7979 34.5064 55.881 34.5064C54.9641 34.5064 54.0846 34.1426 53.4356 33.4949C52.8929 32.9523 52.3642 32.3555 51.8037 31.724L51.8041 31.7238ZM57.5654 15.7456C55.2045 15.7455 52.8965 16.4455 50.9334 17.757C48.9704 19.0686 47.4403 20.9328 46.5367 23.114C45.6332 25.2952 45.3967 27.6953 45.8572 30.0108C46.3177 32.3264 47.4545 34.4534 49.1239 36.1229C50.7933 37.7923 52.9202 38.9292 55.2358 39.3899C57.5513 39.8505 59.9514 39.6142 62.1326 38.7107C64.3139 37.8073 66.1782 36.2773 67.4898 34.3143C68.8015 32.3512 69.5016 30.0434 69.5016 27.6824C69.4982 24.5178 68.2395 21.4837 66.0018 19.2458C63.7641 17.008 60.7301 15.7492 57.5654 15.7456ZM57.5654 42.382C60.4727 42.382 63.3148 41.5199 65.7322 39.9047C68.1496 38.2895 70.0337 35.9937 71.1463 33.3077C72.259 30.6217 72.5501 27.666 71.9829 24.8145C71.4157 21.963 70.0157 19.3438 67.9599 17.288C65.9041 15.2321 63.2848 13.8321 60.4333 13.2649C57.5818 12.6978 54.6262 12.9889 51.9401 14.1015C49.2541 15.2141 46.9583 17.0982 45.3431 19.5156C43.7279 21.933 42.8658 24.7751 42.8658 27.6824C42.8701 31.5797 44.4201 35.3161 47.1759 38.0719C49.9317 40.8277 53.6681 42.3777 57.5654 42.382Z" fill="#231F20"/>
<path fill-rule="evenodd" clip-rule="evenodd" d="M32.9354 92.366L21.7528 72.999C21.6229 72.7732 21.4493 72.5753 21.2423 72.4171C21.0353 72.2589 20.7989 72.1433 20.5468 72.0772C20.3762 72.0319 20.2005 72.0087 20.024 72.0082C19.6795 72.0079 19.3411 72.099 19.0433 72.2722L14.4643 74.9153C14.0098 75.18 13.6785 75.6136 13.5424 76.1215C13.4064 76.6295 13.4767 77.1707 13.7381 77.627L24.9205 96.9942C25.1835 97.4499 25.6166 97.7826 26.1247 97.9191C26.6328 98.0556 27.1743 97.9848 27.6302 97.7222L32.2091 95.0777C32.6635 94.813 32.9949 94.3795 33.1309 93.8715C33.267 93.3635 33.1967 92.8223 32.9354 92.366ZM20.1483 80.8815C19.9055 80.8819 19.6668 80.8182 19.4564 80.697C19.246 80.5757 19.0713 80.4012 18.9499 80.1909L17.32 77.3674C17.2244 77.2102 17.1612 77.0355 17.1341 76.8535C17.107 76.6715 17.1165 76.4859 17.1621 76.3077C17.2077 76.1294 17.2885 75.9621 17.3997 75.8155C17.5108 75.6688 17.6502 75.5459 17.8095 75.4539C17.9688 75.3619 18.1449 75.3026 18.3275 75.2796C18.51 75.2566 18.6953 75.2703 18.8725 75.3198C19.0497 75.3694 19.2152 75.4539 19.3593 75.5683C19.5034 75.6828 19.6232 75.8248 19.7116 75.9862L21.3419 78.8096C21.463 79.0194 21.5268 79.2574 21.5269 79.4997C21.527 79.742 21.4634 79.98 21.3424 80.1899C21.2215 80.3998 21.0474 80.5742 20.8377 80.6956C20.6281 80.817 20.3902 80.8811 20.1479 80.8815H20.1483Z" fill="#00ABEA"/>
<path fill-rule="evenodd" clip-rule="evenodd" d="M72.2636 27.6824C72.2636 30.5897 71.4014 33.4318 69.7861 35.8491C68.1708 38.2664 65.875 40.1505 63.1889 41.263C60.5029 42.3755 57.5472 42.6665 54.6958 42.0992C51.8443 41.5319 49.2251 40.1317 47.1694 38.0758C45.1137 36.0199 43.7139 33.4006 43.1468 30.5491C42.5798 27.6976 42.8711 24.742 43.9838 22.056C45.0966 19.3701 46.9809 17.0744 49.3984 15.4594C51.8158 13.8443 54.658 12.9824 57.5653 12.9827C61.4626 12.987 65.199 14.5371 67.9547 17.2929C70.7104 20.0487 72.2605 23.7851 72.2646 27.6824H72.2636ZM41.8247 42.0043C41.8255 42.3799 41.9751 42.7399 42.2407 43.0055C42.5063 43.271 42.8663 43.4205 43.2419 43.4211H45.6358C47.3543 43.3974 49.0596 43.7244 50.6475 44.3822C52.2354 45.04 53.6724 46.0147 54.8706 47.2468L56.5617 48.9398C56.8279 49.2051 57.1884 49.3541 57.5643 49.3541C57.9401 49.3541 58.3007 49.2051 58.5669 48.9398L60.2602 47.2474C61.458 46.0153 62.8947 45.0406 64.4823 44.383C66.0699 43.7253 67.775 43.3986 69.4932 43.4228H71.8868C72.2626 43.4223 72.6228 43.2728 72.8885 43.0071C73.1542 42.7413 73.3036 42.3811 73.304 42.0054V39.6107C73.2802 37.8924 73.6072 36.1872 74.2648 34.5995C74.9225 33.0118 75.897 31.5749 77.1289 30.3767L78.8201 28.6842C79.0855 28.4182 79.2345 28.0578 79.2345 27.682C79.2345 27.3062 79.0855 26.9458 78.8201 26.6798L77.1287 24.9877C75.8968 23.7896 74.9222 22.3528 74.2646 20.7651C73.607 19.1775 73.2801 17.4724 73.304 15.7541V13.3605C73.3037 12.9848 73.1544 12.6245 72.8887 12.3588C72.6231 12.0931 72.263 11.9435 71.8872 11.9431H69.493C67.7749 11.967 66.07 11.6402 64.4826 10.9826C62.8952 10.325 61.4586 9.3505 60.2608 8.11862L58.5671 6.42557C58.3009 6.1603 57.9405 6.01135 57.5647 6.01135C57.1889 6.01135 56.8284 6.1603 56.5623 6.42557L54.8704 8.11862C53.6722 9.35069 52.2352 10.3254 50.6474 10.9831C49.0596 11.6407 47.3543 11.9676 45.6358 11.9437H43.2417C42.8661 11.9444 42.5061 12.0939 42.2405 12.3595C41.975 12.6251 41.8254 12.9851 41.8247 13.3607V15.7541C41.8486 17.4723 41.5218 19.1774 40.8641 20.765C40.2065 22.3526 39.232 23.7894 38.0001 24.9875L36.3083 26.6804C36.0439 26.9467 35.8955 27.3068 35.8955 27.6821C35.8955 28.0574 36.0439 28.4175 36.3083 28.6838L37.9995 30.3769C39.2314 31.575 40.206 33.0118 40.8636 34.5995C41.5212 36.1871 41.8482 37.8922 41.8243 39.6105L41.8247 42.0043Z" fill="#00ABEA"/>
<path fill-rule="evenodd" clip-rule="evenodd" d="M56.3738 31.5412C57.493 30.4209 58.6082 29.2977 59.7193 28.1715C60.8304 27.0476 61.9441 25.9255 63.0605 24.8054C63.1908 24.6753 63.264 24.4988 63.2642 24.3147C63.2644 24.1307 63.1914 23.954 63.0614 23.8237C62.9313 23.6935 62.7549 23.6202 62.5708 23.62C62.3867 23.6198 62.2101 23.6928 62.0798 23.8228L56.9779 28.9259C56.8496 29.0543 56.6973 29.1561 56.5297 29.2255C56.3621 29.295 56.1824 29.3307 56.001 29.3307C55.8195 29.3307 55.6398 29.295 55.4722 29.2255C55.3046 29.1561 55.1523 29.0543 55.024 28.9259L53.0523 26.9556C52.9212 26.8279 52.745 26.7569 52.5619 26.7581C52.3788 26.7593 52.2036 26.8326 52.0741 26.962C51.9446 27.0914 51.8714 27.2667 51.8701 27.4497C51.8689 27.6328 51.9398 27.809 52.0675 27.9402C52.695 28.5678 53.2912 29.2402 53.8695 29.8902C54.4023 30.4902 54.9036 31.0567 55.389 31.541C55.5209 31.6692 55.6975 31.741 55.8814 31.741C56.0653 31.741 56.2419 31.6694 56.3738 31.5412Z" fill="#00ABEA"/>
</svg>
