<svg width="104" height="104" viewBox="0 0 104 104" fill="none" xmlns="http://www.w3.org/2000/svg">
<path fill-rule="evenodd" clip-rule="evenodd" d="M55.5738 32.1403C58.2698 32.1432 60.8725 33.1275 62.896 34.9091C64.9194 36.6907 66.2251 39.1479 66.5694 41.8218C66.5916 41.9985 66.576 42.1779 66.5235 42.3481C66.4711 42.5184 66.3831 42.6755 66.2653 42.8091C66.1475 42.9426 66.0026 43.0497 65.8403 43.123C65.678 43.1963 65.5019 43.2342 65.3238 43.2343H45.8256C45.6475 43.2344 45.4714 43.1966 45.3091 43.1233C45.1467 43.0501 45.0018 42.9431 44.884 42.8095C44.7662 42.676 44.6781 42.5188 44.6257 42.3486C44.5733 42.1784 44.5578 41.9989 44.5801 41.8222C44.9243 39.1486 46.2298 36.6916 48.2528 34.9101C50.2759 33.1285 52.8782 32.1441 55.5738 32.1407V32.1403ZM41.8387 41.4747C41.7669 42.0405 41.8163 42.6152 41.9839 43.1604C42.1514 43.7056 42.4331 44.2089 42.8103 44.6368C43.1874 45.0647 43.6514 45.4074 44.1713 45.642C44.6912 45.8767 45.2551 45.9979 45.8255 45.9976H65.324C65.8942 45.9974 66.4579 45.8758 66.9775 45.641C67.4971 45.4062 67.9608 45.0635 68.3379 44.6358C68.7149 44.208 68.9967 43.705 69.1644 43.16C69.3322 42.615 69.382 42.0406 69.3108 41.4749C68.885 38.1325 67.2551 35.06 64.7265 32.8331C62.1979 30.6062 58.9441 29.3777 55.5747 29.3777C52.2053 29.3777 48.9515 30.6062 46.423 32.8331C43.8944 35.06 42.2645 38.1325 41.8387 41.4749V41.4747ZM50.6598 20.8721C50.6598 19.8998 50.9482 18.9494 51.4883 18.141C52.0285 17.3326 52.7963 16.7026 53.6946 16.3305C54.5929 15.9585 55.5813 15.8612 56.5349 16.051C57.4885 16.2408 58.3643 16.7091 59.0518 17.3967C59.7392 18.0842 60.2072 18.9602 60.3968 19.9139C60.5863 20.8675 60.4888 21.8559 60.1165 22.7541C59.7443 23.6523 59.1141 24.4199 58.3055 24.9599C57.497 25.4999 56.5465 25.788 55.5742 25.7877C54.2711 25.7862 53.0218 25.2677 52.1005 24.3462C51.1792 23.4246 50.6611 22.1752 50.6598 20.8721ZM63.2536 20.8721C63.2536 19.3536 62.8033 17.8692 61.9597 16.6065C61.1161 15.3439 59.917 14.3598 58.5142 13.7786C57.1113 13.1974 55.5676 13.0453 54.0782 13.3414C52.5888 13.6375 51.2207 14.3686 50.1468 15.4422C49.073 16.5158 48.3415 17.8838 48.0451 19.373C47.7486 20.8623 47.9004 22.4061 48.4813 23.8091C49.0621 25.2121 50.046 26.4114 51.3084 27.2553C52.5708 28.0992 54.0551 28.5499 55.5736 28.5502C57.6095 28.5482 59.5615 27.7387 61.0013 26.2993C62.4411 24.8598 63.2511 22.908 63.2536 20.8721ZM75.7173 23.4609C75.6653 23.6347 75.648 23.8171 75.6665 23.9975C75.6849 24.178 75.7388 24.3531 75.8249 24.5128C75.911 24.6724 76.0277 24.8136 76.1684 24.9282C76.309 25.0427 76.4709 25.1285 76.6447 25.1805C76.8185 25.2325 77.0008 25.2498 77.1813 25.2313C77.3618 25.2129 77.5369 25.159 77.6965 25.0729C77.8562 24.9868 77.9974 24.8701 78.1119 24.7294C78.2265 24.5888 78.3122 24.4269 78.3642 24.2531L78.8063 22.7768C80.5509 28.0113 80.4796 33.6812 78.6039 38.8702C76.7282 44.0592 73.1576 48.4642 68.4692 51.3733C63.7808 54.2824 58.2484 55.5257 52.7661 54.9023C47.2838 54.2788 42.1719 51.825 38.2564 47.9375C37.9968 47.6789 37.645 47.534 37.2786 47.5348C36.9122 47.5355 36.561 47.6818 36.3024 47.9414C36.0439 48.2011 35.899 48.5528 35.8997 48.9192C35.9005 49.2857 36.0468 49.6368 36.3064 49.8954C41.4211 54.9707 48.3326 57.8215 55.5381 57.8279C67.5834 57.8279 78.6387 49.777 81.9011 37.6009C83.3154 32.333 83.116 26.7619 81.3289 21.6086L82.8929 22.3894C83.0553 22.4705 83.232 22.5187 83.413 22.5314C83.594 22.5441 83.7757 22.5211 83.9478 22.4635C84.1199 22.406 84.279 22.3152 84.4159 22.1962C84.5529 22.0772 84.6651 21.9324 84.7461 21.77C84.8271 21.6077 84.8754 21.4309 84.8881 21.2499C84.9008 21.0689 84.8777 20.8872 84.8202 20.7151C84.7627 20.543 84.6719 20.384 84.5529 20.247C84.4339 20.11 84.2891 19.9978 84.1267 19.9168L79.1989 17.4604C79.0186 17.3706 78.8209 17.3212 78.6196 17.3158C78.4183 17.3104 78.2182 17.3491 78.0334 17.4292C77.8486 17.5093 77.6836 17.6288 77.5499 17.7794C77.4161 17.93 77.3169 18.108 77.2592 18.3009L75.7173 23.4603V23.4609ZM26.2848 39.1964C26.2037 39.3587 26.1553 39.5354 26.1425 39.7164C26.1297 39.8974 26.1527 40.0791 26.2103 40.2512C26.2678 40.4233 26.3587 40.5823 26.4778 40.7192C26.5968 40.8562 26.7417 40.9683 26.9042 41.0491L31.8305 43.5069C32.0226 43.6021 32.2341 43.6518 32.4484 43.6522C32.7457 43.652 33.0349 43.5559 33.2732 43.3783C33.5115 43.2006 33.6862 42.9508 33.7712 42.666L35.3149 37.5066C35.42 37.1554 35.3812 36.7768 35.2072 36.4542C35.0331 36.1316 34.738 35.8913 34.3868 35.7862C34.0355 35.6812 33.657 35.72 33.3344 35.894C33.0117 36.0681 32.7715 36.3632 32.6664 36.7144L32.2358 38.1566C30.5306 32.9341 30.6284 27.2902 32.5134 22.1298C34.3983 16.9695 37.9613 12.5914 42.6312 9.69749C47.3011 6.80358 52.8074 5.56141 58.2675 6.17011C63.7275 6.77881 68.8251 9.20312 72.743 13.0544C73.0039 13.3117 73.3564 13.4548 73.7229 13.4522C74.0893 13.4496 74.4397 13.3016 74.697 13.0406C74.9543 12.7797 75.0974 12.4272 75.0948 12.0607C75.0922 11.6943 74.9442 11.3438 74.6832 11.0866C71.3215 7.78065 67.1605 5.40216 62.606 4.18294C48.0736 0.288629 33.0818 8.94399 29.1873 23.4772C27.783 28.7102 27.9706 34.2431 29.7262 39.3691L28.1371 38.5769C27.9748 38.4959 27.7981 38.4476 27.6171 38.4349C27.4361 38.4222 27.2543 38.4453 27.0823 38.5029C26.9102 38.5604 26.7512 38.6513 26.6142 38.7704C26.4773 38.8894 26.3652 39.0342 26.2842 39.1966L26.2848 39.1964ZM20.7539 78.4412C20.8449 78.5982 20.904 78.7716 20.9278 78.9515C20.9516 79.1314 20.9396 79.3143 20.8926 79.4896C20.8457 79.6648 20.7645 79.8291 20.6539 79.973C20.5434 80.1169 20.4055 80.2375 20.2481 80.328C20.0391 80.4498 19.8013 80.5138 19.5594 80.5135C19.3165 80.5138 19.0779 80.4502 18.8675 80.329C18.6571 80.2077 18.4823 80.0331 18.3609 79.8228L16.7012 76.9472C16.518 76.6299 16.4683 76.2527 16.5631 75.8988C16.658 75.5449 16.8895 75.2431 17.2069 75.0599C17.5242 74.8766 17.9013 74.827 18.2553 74.9218C18.6092 75.0166 18.911 75.2482 19.0942 75.5655L20.7545 78.4412H20.7539ZM91.2627 72.4287C91.1894 73.84 90.0307 75.1288 88.0017 76.0603C87.9547 76.0816 87.9092 76.106 87.8656 76.1335L62.0042 91.7262C61.9973 91.7314 61.99 91.736 61.9824 91.74C59.5963 93.2431 57.0105 93.4749 54.0776 92.4509C54.0484 92.4412 54.0185 92.4306 53.9868 92.4233L37.229 87.8186C37.0496 87.7693 36.9209 87.7238 36.8085 87.6844C35.9048 87.3685 35.4328 87.5284 34.6493 88.0338L33.7239 88.6338L25.217 73.8997L36.5069 67.0788C40.3295 65.0162 52.1898 67.1419 58.4265 71.0145C60.566 72.3425 61.7661 73.7303 61.7206 74.8237C61.6777 75.8164 60.566 76.9277 58.5904 77.9659C55.8907 77.7347 52.1343 76.9474 46.9079 75.2237C46.5598 75.109 46.1805 75.1374 45.8533 75.3024C45.5261 75.4675 45.2779 75.7558 45.1633 76.1038C45.0486 76.4519 45.0769 76.8312 45.242 77.1584C45.4071 77.4856 45.6953 77.7338 46.0434 77.8485C56.2714 81.2175 62.8258 81.6796 66.0715 79.2577L83.3928 69.8214C83.416 69.8097 83.4384 69.7965 83.4598 69.782C86.3891 67.966 88.5936 68.886 89.4067 69.3676C90.6127 70.0799 91.3251 71.2524 91.2643 72.4287H91.2627ZM31.8578 95.0202C32.3273 94.748 32.6697 94.3007 32.8099 93.7764C32.9501 93.2521 32.8767 92.6936 32.6057 92.2234L21.2173 72.4984C21.0831 72.2658 20.9041 72.0621 20.6907 71.8992C20.4772 71.7362 20.2336 71.6172 19.9739 71.5489C19.7981 71.5021 19.617 71.4782 19.435 71.4778C19.0787 71.4769 18.7286 71.5709 18.4206 71.75L13.7587 74.4423C13.29 74.7146 12.948 75.1614 12.8075 75.685C12.6669 76.2086 12.7392 76.7666 13.0086 77.237L24.397 96.9643C24.6693 97.4338 25.1166 97.7762 25.6409 97.9164C26.1652 98.0566 26.7237 97.9832 27.194 97.7123L31.8578 95.0202ZM90.8105 66.9876C88.2268 65.4619 84.9485 65.6218 82.0355 67.4141L64.657 76.8828C64.5908 76.9196 64.5274 76.9612 64.4672 77.0071C64.1775 77.2274 63.8578 77.4052 63.5178 77.5352C64.0938 76.7874 64.429 75.8823 64.4792 74.9397C64.5741 72.7291 63.0265 70.6192 59.8843 68.6672C53.2625 64.556 40.2913 61.8501 35.1537 64.6685C35.1362 64.6782 35.1201 64.6888 35.1043 64.6981L23.8345 71.5053L23.6099 71.1165C22.9696 70.0142 21.919 69.2102 20.6877 68.8803C19.4564 68.5504 18.1446 68.7214 17.039 69.356L12.3773 72.0484C11.2743 72.6879 10.4696 73.7383 10.1393 74.9697C9.80891 76.2011 9.9798 77.5132 10.6145 78.6189L22.005 98.346C22.6432 99.4503 23.6937 100.256 24.9257 100.586C26.1577 100.916 27.4704 100.744 28.5753 100.107L33.2394 97.4143C34.3106 96.7936 35.1017 95.7843 35.4486 94.5959C35.7955 93.4075 35.6716 92.1311 35.1025 91.0317L36.125 90.3703C36.2266 90.4058 36.3517 90.4434 36.4957 90.4828L53.2113 95.0757C54.5873 95.5677 56.036 95.8259 57.4972 95.8396C59.6057 95.8362 61.669 95.2279 63.4421 94.0869L89.227 78.5379C93.2239 76.6766 93.9458 74.0043 94.0207 72.5715C94.1367 70.3645 92.9064 68.2252 90.8105 66.9876Z" fill="#231F20"/>
<path fill-rule="evenodd" clip-rule="evenodd" d="M55.5736 25.7873C56.5459 25.7875 57.4964 25.4995 58.3049 24.9595C59.1134 24.4195 59.7437 23.6518 60.1159 22.7537C60.4881 21.8555 60.5857 20.8671 60.3961 19.9134C60.2066 18.9598 59.7385 18.0838 59.0511 17.3962C58.3637 16.7087 57.4878 16.2404 56.5342 16.0506C55.5807 15.8608 54.5922 15.9581 53.694 16.3301C52.7957 16.7021 52.0279 17.3322 51.4877 18.1406C50.9475 18.949 50.6592 19.8994 50.6592 20.8717C50.6606 22.1747 51.1788 23.4241 52.1 24.3456C53.0213 25.2671 54.2705 25.7856 55.5736 25.7873Z" fill="#00ABEA"/>
<path fill-rule="evenodd" clip-rule="evenodd" d="M13.0086 77.237L24.397 96.9643C24.6693 97.4338 25.1166 97.7761 25.641 97.9163C26.1653 98.0565 26.7238 97.9831 27.194 97.7122L31.8578 95.0202C32.3273 94.748 32.6697 94.3007 32.81 93.7764C32.9502 93.2521 32.8767 92.6936 32.6057 92.2234L21.2173 72.4983C21.0831 72.2657 20.9041 72.0621 20.6907 71.8991C20.4773 71.7361 20.2337 71.6171 19.974 71.5489C19.7982 71.502 19.617 71.4781 19.4351 71.4778C19.0788 71.4769 18.7286 71.5708 18.4207 71.75L13.7587 74.4422C13.29 74.7146 12.948 75.1613 12.8075 75.6849C12.6669 76.2086 12.7392 76.7665 13.0086 77.237ZM19.5594 80.5134C19.3165 80.5138 19.0779 80.4502 18.8675 80.3289C18.6571 80.2077 18.4824 80.0331 18.3609 79.8228L16.7012 76.9471C16.6105 76.79 16.5516 76.6166 16.5279 76.4367C16.5042 76.2568 16.5162 76.074 16.5632 75.8987C16.6101 75.7235 16.6911 75.5592 16.8016 75.4152C16.912 75.2713 17.0498 75.1505 17.2069 75.0598C17.364 74.9691 17.5375 74.9102 17.7174 74.8865C17.8972 74.8628 18.08 74.8748 18.2553 74.9218C18.4305 74.9687 18.5948 75.0497 18.7388 75.1602C18.8827 75.2706 19.0035 75.4084 19.0942 75.5655L20.7546 78.4411C20.8455 78.5982 20.9046 78.7716 20.9284 78.9515C20.9522 79.1314 20.9403 79.3142 20.8933 79.4895C20.8463 79.6648 20.7652 79.8291 20.6546 79.9729C20.544 80.1168 20.4061 80.2375 20.2488 80.3279C20.0395 80.4499 19.8016 80.5139 19.5594 80.5134Z" fill="#00ABEA"/>
</svg>
