<svg width="104" height="104" viewBox="0 0 104 104" fill="none" xmlns="http://www.w3.org/2000/svg">
<path fill-rule="evenodd" clip-rule="evenodd" d="M39.393 11.2919H39.3991C39.9271 11.2928 40.4418 11.1257 40.8687 10.8148C41.2955 10.5039 41.6124 10.0652 41.7734 9.56227L42.7244 6.61472L43.6765 9.56288C43.8378 10.0658 44.155 10.5044 44.582 10.8152C45.009 11.126 45.5239 11.2929 46.052 11.2919H46.0561L49.1545 11.2854L46.6447 13.1015C46.2155 13.4107 45.8958 13.8486 45.7321 14.3517C45.5685 14.8548 45.5692 15.3969 45.7343 15.8996L46.698 18.8433L44.1971 17.0182C43.7702 16.7054 43.2548 16.5368 42.7255 16.5368C42.1963 16.5368 41.6809 16.7054 41.254 17.0182L38.7519 18.8433L39.7155 15.8992C39.8806 15.3966 39.8813 14.8545 39.7176 14.3515C39.5539 13.8485 39.2342 13.4107 38.8049 13.1015L36.298 11.2856L39.394 11.2919H39.393ZM34.0075 13.0388L37.0292 15.2258L35.8683 18.7703C35.7036 19.2724 35.7024 19.8137 35.8649 20.3165C36.0275 20.8192 36.3454 21.2574 36.7729 21.5679C37.2004 21.8785 37.7154 22.0453 38.2438 22.0444C38.7722 22.0436 39.2866 21.875 39.7131 21.5631L42.7248 19.3651L45.7392 21.5627C46.1656 21.8737 46.6797 22.0416 47.2075 22.042C47.7352 22.0425 48.2496 21.8756 48.6766 21.5653C49.1035 21.2551 49.4211 20.8174 49.5836 20.3152C49.7462 19.8131 49.7453 19.2724 49.5811 18.7707L48.4233 15.2258L51.4448 13.0392C51.872 12.7298 52.1902 12.293 52.3538 11.7914C52.5174 11.2899 52.5179 10.7495 52.3552 10.2477C52.1925 9.74592 51.8751 9.30855 51.4484 8.99838C51.0217 8.68821 50.5078 8.52118 49.9803 8.52126H49.9762L46.2466 8.52837L45.1018 4.97896C44.9396 4.47657 44.6223 4.03854 44.1954 3.72784C43.7686 3.41714 43.2543 3.24976 42.7264 3.24976C42.1984 3.24976 41.6841 3.41714 41.2573 3.72784C40.8304 4.03854 40.5131 4.47657 40.3509 4.97896L39.2045 8.52776L35.4761 8.52024H35.47C34.9424 8.51993 34.4282 8.68689 34.0014 8.99714C33.5746 9.30739 33.2571 9.74496 33.0946 10.247C32.9321 10.749 32.9329 11.2896 33.097 11.7911C33.261 12.2926 33.5798 12.7292 34.0075 13.0381V13.0388ZM31.5144 59.4122C31.9246 56.1941 33.4941 53.2359 35.9288 51.0919C38.3636 48.9478 41.4965 47.765 44.7406 47.765C47.9848 47.765 51.1177 48.9478 53.5524 51.0919C55.9872 53.2359 57.5567 56.1941 57.9669 59.4122C57.9977 59.656 57.9762 59.9035 57.904 60.1384C57.8318 60.3733 57.7105 60.5901 57.5481 60.7745C57.3857 60.9589 57.186 61.1067 56.9621 61.208C56.7383 61.3093 56.4954 61.3619 56.2497 61.3622H33.232C32.9863 61.362 32.7435 61.3096 32.5196 61.2084C32.2957 61.1072 32.0959 60.9595 31.9335 60.7752C31.771 60.5909 31.6497 60.3741 31.5774 60.1393C31.5051 59.9045 31.4837 59.657 31.5144 59.4132V59.4122ZM67.2176 47.7646C65.4656 47.7643 63.7307 48.1101 62.1126 48.782C60.4945 49.4539 59.0251 50.4388 57.7886 51.68C59.3674 53.8572 60.3714 56.3976 60.7077 59.0659C60.8136 59.844 60.7102 60.6363 60.4083 61.3612H78.7269C78.9726 61.3608 79.2154 61.3083 79.4393 61.2069C79.6631 61.1056 79.8628 60.9578 80.0252 60.7734C80.1876 60.589 80.3089 60.3722 80.3811 60.1373C80.4532 59.9025 80.4747 59.6549 80.4439 59.4112C80.0299 56.1944 78.4593 53.2384 76.0252 51.095C73.5911 48.9516 70.4601 47.7675 67.2168 47.7638L67.2176 47.7646ZM33.232 64.1251H56.2499C56.2739 64.1251 56.2972 64.1231 56.321 64.1231C56.3334 64.1231 56.3446 64.1251 56.3563 64.1251H78.7279C79.3657 64.1247 79.9961 63.9886 80.5772 63.7259C81.1583 63.4632 81.6769 63.0799 82.0986 62.6014C82.5202 62.1229 82.8353 61.5602 83.0228 60.9507C83.2103 60.3411 83.2659 59.6986 83.1861 59.0659C82.8083 56.0958 81.6095 53.2901 79.7246 50.964C77.8396 48.6378 75.3433 46.8836 72.5161 45.8983C69.6889 44.9131 66.6429 44.736 63.7205 45.3869C60.7982 46.0377 58.1153 47.4908 55.9735 49.5828C53.8326 47.4909 51.1505 46.0378 48.229 45.387C45.3074 44.7361 42.2621 44.9133 39.4358 45.8987C36.6094 46.884 34.114 48.6384 32.2302 50.9645C30.3465 53.2906 29.1491 56.0962 28.7728 59.0657C28.6929 59.6985 28.7486 60.3411 28.9362 60.9507C29.1238 61.5603 29.4389 62.1231 29.8606 62.6016C30.2824 63.0801 30.8011 63.4634 31.3824 63.726C31.9637 63.9887 32.5941 64.1246 33.232 64.1249V64.1251ZM44.7423 40.7643C43.5452 40.7646 42.375 40.4099 41.3796 39.745C40.3842 39.0802 39.6083 38.1351 39.15 37.0293C38.6917 35.9235 38.5717 34.7066 38.8051 33.5325C39.0384 32.3585 39.6147 31.28 40.4611 30.4335C41.3074 29.587 42.3858 29.0105 43.5598 28.7769C44.7338 28.5432 45.9507 28.663 47.0566 29.1211C48.1625 29.5791 49.1078 30.3548 49.7728 31.3501C50.4379 32.3454 50.7928 33.5156 50.7928 34.7126C50.7906 36.3167 50.1525 37.8546 49.0183 38.989C47.8841 40.1234 46.3464 40.7618 44.7423 40.7643ZM44.7423 25.8974C42.9986 25.897 41.294 26.4137 39.844 27.3821C38.394 28.3505 37.2638 29.7272 36.5962 31.338C35.9287 32.9488 35.7538 34.7214 36.0938 36.4316C36.4337 38.1418 37.2731 39.7128 38.5059 40.9459C39.7387 42.179 41.3095 43.0188 43.0196 43.3591C44.7298 43.6994 46.5024 43.5249 48.1134 42.8578C49.7243 42.1906 51.1013 41.0607 52.07 39.6109C53.0388 38.1611 53.5559 36.4567 53.5559 34.713C53.553 32.3762 52.6236 30.1359 50.9714 28.4833C49.3192 26.8307 47.0791 25.9008 44.7423 25.8974ZM65.6172 11.2927H65.6207C66.1491 11.2941 66.6643 11.1272 67.0916 10.8163C67.5189 10.5053 67.8361 10.0664 67.9972 9.56308L68.9487 6.61554L69.8999 9.56329C70.061 10.0662 70.3779 10.5048 70.8047 10.8156C71.2315 11.1265 71.7462 11.2936 72.2742 11.2927H72.2801L75.3772 11.2862L72.868 13.1015C72.4388 13.4108 72.1193 13.8487 71.9557 14.3518C71.7921 14.8549 71.793 15.397 71.9582 15.8996L72.9214 18.8433L70.4195 17.0182C69.9929 16.7054 69.4777 16.5368 68.9488 16.5368C68.4198 16.5368 67.9046 16.7054 67.478 17.0182L64.9762 18.8433L65.939 15.8996C66.1041 15.397 66.1049 14.8548 65.9412 14.3517C65.7775 13.8486 65.4579 13.4107 65.0286 13.1015L62.5202 11.2856L65.6172 11.2919V11.2927ZM60.2287 13.0396L63.2512 15.2262L62.0922 18.7707C61.9284 19.2723 61.9277 19.8128 62.0904 20.3148C62.253 20.8167 62.5705 21.2542 62.9973 21.5644C63.424 21.8746 63.9382 22.0416 64.4658 22.0414C64.9934 22.0411 65.5074 21.8737 65.9339 21.5631L68.9479 19.3651L71.9622 21.5627C72.3886 21.8744 72.9029 22.0428 73.431 22.0436C73.9592 22.0444 74.474 21.8776 74.9013 21.5672C75.3286 21.2568 75.6464 20.8188 75.809 20.3163C75.9715 19.8137 75.9704 19.2726 75.8058 18.7707L74.6479 15.2258L77.6676 13.0392C78.0951 12.7301 78.4136 12.2935 78.5775 11.792C78.7413 11.2906 78.7421 10.7501 78.5796 10.2483C78.4172 9.74638 78.0998 9.30889 77.6732 8.99861C77.2466 8.68832 76.7326 8.52121 76.2051 8.52126C76.2038 8.52105 76.2024 8.52105 76.201 8.52126L72.4717 8.52837L71.3242 4.97896C71.162 4.47662 70.8447 4.03863 70.4179 3.72796C69.9911 3.41729 69.4769 3.24993 68.949 3.24993C68.4211 3.24993 67.9068 3.41729 67.48 3.72796C67.0532 4.03863 66.7359 4.47662 66.5737 4.97896L65.4281 8.52837L61.6979 8.52085H61.693C61.1656 8.52081 60.6516 8.68788 60.225 8.99806C59.7983 9.30825 59.4809 9.74562 59.3183 10.2474C59.1556 10.7492 59.1561 11.2896 59.3197 11.7911C59.4833 12.2926 59.8015 12.7294 60.2287 13.0388V13.0396ZM67.2176 28.6599C68.4149 28.6596 69.5854 29.0143 70.581 29.6792C71.5767 30.3442 72.3528 31.2894 72.8112 32.3954C73.2696 33.5015 73.3897 34.7186 73.1563 35.8929C72.9229 37.0672 72.3465 38.1459 71.5 38.9926C70.6536 39.8393 69.575 40.416 68.4008 40.6497C67.2265 40.8834 66.0094 40.7636 64.9032 40.3055C63.7971 39.8474 62.8516 39.0716 62.1864 38.0761C61.5212 37.0806 61.1661 35.9103 61.1661 34.713C61.1679 33.1084 61.8059 31.57 62.9404 30.4353C64.0748 29.3005 65.6131 28.662 67.2176 28.6599ZM67.2176 43.527C68.9612 43.527 70.6656 43.01 72.1153 42.0413C73.5651 41.0726 74.695 39.6958 75.3622 38.085C76.0294 36.4741 76.204 34.7016 75.8639 32.9915C75.5237 31.2815 74.6841 29.7107 73.4512 28.4778C72.2183 27.2449 70.6475 26.4053 68.9375 26.0651C67.2274 25.725 65.4549 25.8996 63.8441 26.5668C62.2332 27.234 60.8564 28.364 59.8877 29.8137C58.919 31.2634 58.402 32.9678 58.402 34.7114C58.4045 37.0487 59.3341 39.2895 60.9868 40.9422C62.6395 42.5949 64.8804 43.5245 67.2176 43.527ZM23.8746 80.3877C24.0578 80.7052 24.1073 81.0825 24.0123 81.4365C23.9173 81.7906 23.6856 82.0924 23.368 82.2755C23.0505 82.4587 22.6732 82.5082 22.3192 82.4132C21.9652 82.3182 21.6634 82.0865 21.4802 81.7689L19.9809 79.1689C19.8902 79.0118 19.8314 78.8383 19.8077 78.6584C19.7841 78.4785 19.7961 78.2957 19.8431 78.1205C19.938 77.7665 20.1696 77.4648 20.487 77.2816C20.8044 77.0984 21.1815 77.0489 21.5355 77.1438C21.7107 77.1908 21.875 77.2718 22.019 77.3823C22.1629 77.4928 22.2837 77.6305 22.3743 77.7877L23.8746 80.3877ZM87.3526 75.0116C87.2896 76.2354 86.271 77.3603 84.4829 78.1803C84.4358 78.2015 84.3903 78.2259 84.3468 78.2535L60.9732 92.3471C60.9655 92.3512 60.9581 92.3558 60.951 92.3609C58.8318 93.695 56.5322 93.9004 53.9211 92.9886C53.892 92.9786 53.8618 92.9682 53.8303 92.9609L38.6853 88.8003C38.5254 88.757 38.4121 88.7176 38.3113 88.6821C37.4489 88.3801 36.9772 88.5399 36.2451 89.0116L35.5253 89.4773L27.9715 76.3953L38.0635 70.2987C41.489 68.4533 52.1309 70.3738 57.738 73.8534C59.6293 75.0276 60.6904 76.2395 60.651 77.1789C60.6161 78.0176 59.6583 78.9711 57.9531 79.875C55.5615 79.6735 52.1882 78.9849 47.4375 77.4196C47.0894 77.305 46.7101 77.3333 46.3829 77.4984C46.0557 77.6635 45.8074 77.9518 45.6928 78.2999C45.5782 78.648 45.6065 79.0274 45.7716 79.3546C45.9366 79.6818 46.2249 79.93 46.573 80.0446C55.9863 83.1451 61.78 83.5459 64.7879 81.304L80.4348 72.7817C80.4587 72.7679 80.4803 72.7563 80.502 72.7423C83.0878 71.1376 85.0256 71.945 85.74 72.3673C86.7887 72.985 87.4056 73.9996 87.3526 75.012V75.0116ZM33.7276 95.3241C34.1222 95.0962 34.4101 94.7211 34.5282 94.2811C34.6462 93.841 34.5848 93.3721 34.3573 92.9774L24.0617 75.1499C23.8327 74.7573 23.4581 74.4709 23.0191 74.3529C22.5801 74.235 22.1123 74.2951 21.7174 74.5202L17.5014 76.9537C17.1075 77.1821 16.8203 77.5573 16.7028 77.9972C16.5852 78.437 16.6469 78.9055 16.8743 79.3L27.1663 97.1282C27.3956 97.5213 27.7708 97.808 28.2103 97.9259C28.6498 98.0438 29.1181 97.9835 29.5134 97.7579L33.7268 95.3245L33.7276 95.3241ZM87.1456 69.9887C84.7672 68.5835 81.7553 68.7275 79.0816 70.3716L63.3761 78.9272C63.3098 78.9641 63.2462 79.0057 63.1858 79.0517C63.0601 79.1501 62.9261 79.2373 62.7853 79.3123C63.1618 78.7039 63.3777 78.0098 63.4129 77.2951C63.5005 75.2446 62.0806 73.2984 59.1952 71.5061C53.1827 67.7718 41.3891 65.3207 36.7093 67.8904C36.6924 67.8988 36.6759 67.908 36.6599 67.9181L26.591 74.0008L26.4568 73.7679C25.8608 72.7406 24.8821 71.9913 23.7349 71.6839C22.5878 71.3765 21.3655 71.5362 20.3358 72.1278L16.1207 74.5613C15.0926 75.1562 14.3424 76.1347 14.0348 77.2821C13.7272 78.4294 13.8874 79.652 14.4801 80.6814L24.7747 98.5095C25.0677 99.0198 25.4593 99.4669 25.9265 99.8247C26.3938 100.182 26.9274 100.444 27.4965 100.594C27.8787 100.697 28.2729 100.749 28.6688 100.75C29.4507 100.749 30.2187 100.542 30.895 100.15L35.1093 97.7161C36.089 97.1487 36.8179 96.2318 37.1498 95.1494C37.4817 94.067 37.392 92.8992 36.8988 91.8801L37.6707 91.3806C37.7519 91.4082 37.8462 91.4359 37.9528 91.4655L53.0558 95.6145C54.3128 96.0633 55.6361 96.2988 56.9708 96.3113C58.9009 96.3088 60.7896 95.7518 62.4121 94.7066L85.7091 80.6583C89.3806 78.9469 90.045 76.4781 90.1121 75.1558C90.2187 73.1109 89.0814 71.1315 87.1456 69.9887Z" fill="#231F20"/>
<path fill-rule="evenodd" clip-rule="evenodd" d="M50.7928 34.7126C50.793 33.5153 50.4381 32.3448 49.773 31.3492C49.1079 30.3536 48.1625 29.5776 47.0563 29.1193C45.9502 28.6611 44.7329 28.5412 43.5586 28.7748C42.3843 29.0084 41.3057 29.585 40.4591 30.4317C39.6125 31.2784 39.0361 32.3572 38.8027 33.5315C38.5692 34.7059 38.6894 35.9231 39.1478 37.0292C39.6062 38.1353 40.3824 39.0806 41.3781 39.7455C42.3738 40.4104 43.5444 40.7651 44.7417 40.7647C46.3462 40.763 47.8845 40.1248 49.0189 38.9901C50.1534 37.8555 50.7913 36.3171 50.7928 34.7126Z" fill="#00ABEA"/>
<path fill-rule="evenodd" clip-rule="evenodd" d="M61.166 34.7125C61.166 35.9098 61.5211 37.0802 62.1863 38.0757C62.8515 39.0711 63.7969 39.847 64.9031 40.3051C66.0092 40.7632 67.2264 40.8829 68.4006 40.6492C69.5749 40.4156 70.6534 39.8389 71.4999 38.9922C72.3464 38.1455 72.9228 37.0668 73.1562 35.8925C73.3895 34.7182 73.2694 33.501 72.811 32.395C72.3526 31.289 71.5765 30.3437 70.5809 29.6788C69.5853 29.0138 68.4148 28.6591 67.2175 28.6594C65.6128 28.6613 64.0744 29.2996 62.9399 30.4345C61.8054 31.5693 61.1674 33.1079 61.166 34.7125Z" fill="#00ABEA"/>
<path fill-rule="evenodd" clip-rule="evenodd" d="M16.8744 79.3L27.1663 97.1283C27.3956 97.5214 27.7708 97.8081 28.2103 97.926C28.6499 98.0439 29.1182 97.9835 29.5134 97.758L33.7269 95.3246C34.1214 95.0967 34.4093 94.7216 34.5274 94.2816C34.6455 93.8415 34.584 93.3726 34.3565 92.9779L24.0618 75.15C23.8331 74.7571 23.4584 74.4704 23.0193 74.3525C22.5802 74.2345 22.1123 74.2948 21.7175 74.5203L17.5014 76.9537C17.1076 77.1821 16.8204 77.5574 16.7028 77.9973C16.5853 78.4371 16.647 78.9056 16.8744 79.3ZM22.6783 82.4601C22.4355 82.46 22.197 82.3962 21.9867 82.275C21.7764 82.1538 21.6016 81.9794 21.4798 81.7694L19.9806 79.1694C19.8899 79.0123 19.831 78.8388 19.8074 78.6589C19.7837 78.479 19.7957 78.2962 19.8427 78.121C19.9376 77.767 20.1693 77.4653 20.4867 77.2821C20.804 77.0989 21.1812 77.0494 21.5351 77.1443C21.8891 77.2392 22.1908 77.4708 22.374 77.7882L23.8743 80.3882C23.9947 80.5983 24.0579 80.8363 24.0575 81.0785C24.0572 81.3206 23.9933 81.5585 23.8722 81.7682C23.7511 81.9779 23.5772 82.1522 23.3677 82.2737C23.1582 82.3951 22.9204 82.4594 22.6783 82.4603V82.4601Z" fill="#00ABEA"/>
</svg>
