<svg width="104" height="104" viewBox="0 0 104 104" fill="none" xmlns="http://www.w3.org/2000/svg">
<path fill-rule="evenodd" clip-rule="evenodd" d="M50.6025 30.1134C53.0166 30.1134 55.3764 30.8293 57.3836 32.1705C59.3908 33.5117 60.9552 35.418 61.879 37.6483C62.8028 39.8787 63.0445 42.3328 62.5735 44.7005C62.1025 47.0682 60.94 49.243 59.233 50.95C57.526 52.657 55.3512 53.8195 52.9835 54.2904C50.6158 54.7614 48.1616 54.5196 45.9313 53.5958C43.701 52.672 41.7947 51.1075 40.4536 49.1003C39.1124 47.0931 38.3965 44.7332 38.3965 42.3191C38.4001 39.083 39.6872 35.9805 41.9755 33.6922C44.2638 31.4039 47.3664 30.1169 50.6025 30.1134ZM50.6025 57.2878C53.5631 57.2878 56.4571 56.4098 58.9187 54.7649C61.3803 53.12 63.2988 50.7822 64.4317 48.047C65.5646 45.3117 65.8609 42.302 65.2833 39.3983C64.7057 36.4947 63.28 33.8275 61.1865 31.7341C59.093 29.6407 56.4258 28.2151 53.5221 27.6376C50.6184 27.0601 47.6087 27.3566 44.8735 28.4896C42.1383 29.6226 39.8006 31.5412 38.1558 34.0029C36.511 36.4645 35.6332 39.3586 35.6332 42.3191C35.6375 46.2879 37.216 50.0928 40.0224 52.8991C42.8288 55.7053 46.6338 57.2837 50.6025 57.2878ZM22.944 28.8641V46.3199H14.3027V28.8641C14.3027 28.4978 14.1571 28.1465 13.8981 27.8875C13.6391 27.6284 13.2877 27.4829 12.9214 27.4829H8.19184C7.28875 27.4829 6.53008 27.1782 6.16668 26.6669C5.96783 26.3891 5.91217 26.1256 6.27942 25.7421L16.7133 14.8857C17.1334 14.4478 17.812 14.2066 18.6227 14.2066C19.4334 14.2066 20.1128 14.4478 20.5353 14.8859L30.9674 25.7415C31.3361 26.1252 31.2784 26.3891 31.0812 26.6669C30.7156 27.1778 29.9599 27.4831 29.056 27.4831H24.3252C23.959 27.4834 23.6079 27.629 23.3489 27.888C23.0899 28.147 22.9443 28.4979 22.944 28.8641ZM25.7065 47.7015V30.2454H29.0558C30.8783 30.2454 32.4368 29.5255 33.331 28.27C34.3397 26.8552 34.1935 25.1112 32.9579 23.8266L22.5266 12.971C21.5798 11.9857 20.1935 11.4433 18.6225 11.4433C17.0515 11.4433 15.6658 11.9859 14.7182 12.9712L4.28818 23.8266C3.05461 25.111 2.90795 26.855 3.91464 28.2696C4.81143 29.5253 6.36798 30.2456 8.19184 30.2456H11.5395V47.7013C11.5399 48.0676 11.6855 48.4187 11.9445 48.6777C12.2034 48.9366 12.5546 49.0823 12.9208 49.0826H24.3257C24.692 49.0826 25.0433 48.9371 25.3023 48.678C25.5614 48.419 25.7069 48.0677 25.7069 47.7013L25.7065 47.7015ZM70.2378 23.3635L80.6715 12.5071C81.0916 12.0692 81.77 11.8283 82.5809 11.8283C83.3918 11.8283 84.071 12.0692 84.4935 12.5075L94.9256 23.3635C95.2943 23.7466 95.2368 24.0107 95.0394 24.2886C94.6737 24.7992 93.9183 25.1045 93.0142 25.1045H88.2842C87.9179 25.1047 87.5665 25.2503 87.3073 25.5092C87.0482 25.7682 86.9023 26.1194 86.9018 26.4858V43.9413H78.261V26.4858C78.261 26.1194 78.1155 25.7681 77.8565 25.5091C77.5974 25.25 77.2461 25.1045 76.8798 25.1045H72.15C71.2457 25.1045 70.4878 24.7998 70.1247 24.2888C69.9258 24.0107 69.8699 23.7472 70.2376 23.3637L70.2378 23.3635ZM72.1502 27.8674H75.4977V45.3232C75.498 45.6894 75.6437 46.0405 75.9026 46.2995C76.1616 46.5585 76.5127 46.7041 76.879 46.7044H88.2842C88.6506 46.7044 89.0019 46.5589 89.2609 46.2999C89.52 46.0408 89.6655 45.6895 89.6655 45.3232V27.8674H93.0148C94.8366 27.8674 96.3958 27.1477 97.2902 25.892C98.2989 24.4768 98.1525 22.733 96.9168 21.4487L86.4856 10.5928C85.5404 9.60749 84.1525 9.06494 82.5813 9.06494C81.0101 9.06494 79.625 9.60789 78.6772 10.5928L68.2464 21.4489C67.0128 22.7332 66.8651 24.4773 67.8746 25.8922C68.7696 27.1475 70.3282 27.8678 72.1502 27.8674ZM80.1109 79.891C78.4171 79.8913 76.7613 79.3893 75.3529 78.4485C73.9445 77.5077 72.8466 76.1704 72.1983 74.6056C71.55 73.0409 71.3802 71.319 71.7105 69.6578C72.0409 67.9966 72.8564 66.4706 74.0541 65.2729C75.2517 64.0752 76.7776 63.2596 78.4388 62.9292C80.1 62.5988 81.8219 62.7684 83.3867 63.4167C84.9515 64.065 86.2889 65.1627 87.2297 66.5711C88.1706 67.9795 88.6726 69.6353 88.6724 71.3291C88.6692 73.5988 87.7662 75.7746 86.1613 77.3796C84.5564 78.9846 82.3806 79.8877 80.1109 79.891ZM80.1109 60.0018C77.8707 60.0015 75.6807 60.6655 73.8179 61.9098C71.9551 63.1541 70.5031 64.9229 69.6455 66.9925C68.788 69.062 68.5634 71.3394 69.0002 73.5366C69.437 75.7338 70.5155 77.7522 72.0994 79.3364C73.6833 80.9206 75.7014 81.9996 77.8985 82.4368C80.0956 82.8741 82.373 82.65 84.4428 81.7929C86.5125 80.9358 88.2816 79.4842 89.5264 77.6216C90.7711 75.7591 91.4356 73.5692 91.4357 71.3291C91.4323 68.3264 90.2381 65.4476 88.1151 63.3241C85.9921 61.2007 83.1136 60.0059 80.1109 60.0018ZM97.9875 73.6205V69.0356C97.9864 68.9428 97.949 68.8542 97.8835 68.7886C97.818 68.7229 97.7294 68.6855 97.6367 68.6842H94.118C93.818 68.684 93.5262 68.5863 93.2866 68.4059C93.047 68.2254 92.8726 67.9719 92.7897 67.6836C92.5158 66.7289 92.1342 65.8084 91.6522 64.94C91.5066 64.6779 91.4503 64.3755 91.492 64.0786C91.5337 63.7816 91.6711 63.5064 91.8834 63.2946L94.3719 60.8049C94.4364 60.7386 94.4726 60.6498 94.4726 60.5572C94.4726 60.4647 94.4364 60.3758 94.3719 60.3095L91.1288 57.0662C91.0625 57.0016 90.9736 56.9655 90.8811 56.9655C90.7885 56.9655 90.6996 57.0016 90.6334 57.0662L88.1447 59.5549C87.9323 59.7672 87.6565 59.9045 87.3592 59.9462C87.0618 59.9879 86.7589 59.9317 86.4963 59.7861C85.6279 59.3041 84.7076 58.9225 83.7529 58.6486C83.4646 58.5658 83.2111 58.3915 83.0306 58.1519C82.8502 57.9123 82.7526 57.6205 82.7527 57.3205V53.8032C82.7519 53.7108 82.715 53.6224 82.6499 53.5568C82.5847 53.4912 82.4966 53.4537 82.4042 53.4522H77.8172C77.7247 53.4535 77.6364 53.4909 77.5711 53.5565C77.5059 53.622 77.4689 53.7105 77.468 53.803V57.3207C77.468 57.6207 77.3704 57.9126 77.1898 58.1521C77.0093 58.3917 76.7556 58.5659 76.4672 58.6486C75.5125 58.9222 74.5921 59.3039 73.7238 59.7861C73.4614 59.9318 73.1586 59.988 72.8613 59.9463C72.564 59.9045 72.2885 59.7671 72.0763 59.5547L69.5868 57.0664C69.5206 57.0019 69.4318 56.9658 69.3394 56.9658C69.2469 56.9658 69.1582 57.0019 69.092 57.0664L65.8485 60.3099C65.784 60.3763 65.7479 60.4651 65.7479 60.5576C65.7479 60.6501 65.784 60.739 65.8485 60.8053L68.3367 63.2942C68.5491 63.506 68.6866 63.7812 68.7283 64.0781C68.77 64.3751 68.7137 64.6775 68.5679 64.9396C68.0864 65.8084 67.7044 66.7288 67.429 67.6832C67.3469 67.9716 67.173 68.2253 66.9336 68.4059C66.6942 68.5865 66.4024 68.684 66.1026 68.6838H62.5828C62.4904 68.6854 62.4023 68.723 62.3372 68.7886C62.272 68.8541 62.2351 68.9425 62.2341 69.035V73.6201C62.235 73.7127 62.272 73.8012 62.3373 73.8669C62.4027 73.9325 62.4911 73.97 62.5836 73.9713H66.1026C66.4024 73.9713 66.6941 74.069 66.9335 74.2496C67.1728 74.4301 67.3469 74.6838 67.4292 74.9721C67.7048 75.9264 68.0868 76.8466 68.5681 77.7155C68.7141 77.9779 68.7705 78.2808 68.7289 78.5782C68.6873 78.8756 68.5499 79.1513 68.3376 79.3637L65.8481 81.8505C65.7836 81.9169 65.7475 82.0057 65.7475 82.0982C65.7475 82.1907 65.7836 82.2796 65.8481 82.3459L69.0903 85.5888C69.1568 85.6534 69.2458 85.6896 69.3385 85.6896C69.4311 85.6896 69.5201 85.6534 69.5866 85.5888L72.0749 83.102C72.2874 82.8902 72.5629 82.753 72.86 82.711C73.1571 82.669 73.4599 82.7244 73.7228 82.869C74.5907 83.3524 75.5112 83.7345 76.4662 84.0079C76.7546 84.0907 77.0083 84.2651 77.1889 84.5048C77.3695 84.7444 77.4673 85.0363 77.4674 85.3363V88.8535C77.4686 88.946 77.5057 89.0344 77.571 89.1C77.6362 89.1656 77.7245 89.2032 77.817 89.2049H82.4038C82.4963 89.2032 82.5846 89.1656 82.6499 89.1C82.7152 89.0344 82.7523 88.946 82.7535 88.8535V85.3363C82.7537 85.0363 82.8514 84.7445 83.0319 84.5049C83.2124 84.2652 83.466 84.0908 83.7543 84.0079C84.7095 83.7347 85.63 83.3526 86.4977 82.869C86.7606 82.7239 87.0636 82.6682 87.3609 82.7101C87.6582 82.7521 87.9339 82.8896 88.1463 83.1018L90.6344 85.5894C90.6666 85.6221 90.7051 85.648 90.7475 85.6654C90.79 85.6829 90.8355 85.6916 90.8814 85.691C90.9275 85.6914 90.9733 85.6827 91.016 85.6652C91.0587 85.6478 91.0975 85.622 91.1302 85.5894L94.3719 82.347C94.4043 82.3146 94.43 82.2762 94.4474 82.2339C94.4649 82.1915 94.4737 82.1461 94.4734 82.1004C94.4736 82.0073 94.4371 81.9179 94.3719 81.8515L91.883 79.3626C91.6707 79.1509 91.5333 78.8757 91.4916 78.5787C91.4499 78.2818 91.5063 77.9794 91.652 77.7173C92.1339 76.8489 92.5155 75.9285 92.7895 74.9739C92.8727 74.6856 93.0473 74.4321 93.287 74.2516C93.5267 74.0711 93.8185 73.9733 94.1186 73.9729H97.6351C97.728 73.972 97.8169 73.9347 97.8827 73.869C97.9484 73.8033 97.9857 73.7145 97.9867 73.6215L97.9875 73.6205ZM71.6422 92.1719C72.255 92.1825 72.8626 92.057 73.4211 91.8044C73.9796 91.5519 74.4751 91.1786 74.8719 90.7114C74.9609 90.6127 75.0423 90.5083 75.1205 90.4035C74.8475 89.9328 74.704 89.3982 74.7047 88.8541V86.3416C74.2331 86.1718 73.7714 85.9802 73.3198 85.767L71.5408 87.5435C70.9564 88.1263 70.1647 88.4536 69.3394 88.4536C68.514 88.4536 67.7223 88.1263 67.1379 87.5435L63.8944 84.3008C63.3113 83.7164 62.9839 82.9246 62.9839 82.099C62.9839 81.2735 63.3113 80.4817 63.8944 79.8973L65.6721 78.1209C65.4591 77.6669 65.2677 77.205 65.0979 76.7354H62.5828C61.7575 76.7339 60.9664 76.4052 60.3831 75.8213C59.7997 75.2374 59.4717 74.4461 59.471 73.6207V69.0358C59.4711 68.2574 59.7642 67.5077 60.292 66.9357C56.6685 65.4535 52.7528 64.8243 48.8474 65.0965C44.942 65.3688 41.1515 66.5352 37.7687 68.5058C34.3859 70.4763 31.5015 73.1982 29.3382 76.4611C27.1749 79.7239 25.7907 83.4405 25.2925 87.3235C25.2154 87.9302 25.2684 88.5463 25.4479 89.1309C25.6274 89.7154 25.9294 90.2551 26.3337 90.7139C26.738 91.1727 27.2354 91.5401 27.7928 91.7916C28.3502 92.0432 28.9548 92.1732 29.5663 92.1729L71.6422 92.1719ZM97.6359 65.9208H95.1234C94.9539 65.4511 94.7622 64.9893 94.5484 64.5353L96.3251 62.759C96.9086 62.1748 97.2365 61.3829 97.2368 60.5573C97.2371 59.7316 96.9098 58.9395 96.3268 58.3548L93.0839 55.112C92.4994 54.5289 91.7076 54.2015 90.8821 54.2015C90.0566 54.2015 89.2648 54.5289 88.6803 55.112L86.9022 56.8895C86.45 56.6762 85.9861 56.4845 85.5162 56.3149V53.802C85.5156 52.9765 85.1875 52.185 84.6039 51.6011C84.0203 51.0173 83.2289 50.6889 82.4034 50.6879H77.8172C76.9917 50.689 76.2004 51.0174 75.6168 51.6013C75.0332 52.1851 74.7051 52.9765 74.7043 53.802V56.3151C74.2327 56.4842 73.7706 56.6757 73.3182 56.8895L71.5406 55.112C70.9558 54.5293 70.164 54.2022 69.3385 54.2022C68.513 54.2022 67.7211 54.5293 67.1363 55.112L63.894 58.3546C63.311 58.9392 62.9835 59.731 62.9835 60.5566C62.9835 61.3822 63.311 62.1741 63.894 62.7586L65.6728 64.5349C65.4598 64.9887 65.2682 65.4505 65.0981 65.9204H64.5125C60.2684 63.5246 55.4768 62.2673 50.6031 62.2709C36.3939 62.2709 24.3342 72.8919 22.5516 86.9768C22.4255 87.9723 22.5129 88.9833 22.8078 89.9425C23.1027 90.9017 23.5984 91.7871 24.262 92.5398C24.9256 93.2926 25.7418 93.8955 26.6564 94.3085C27.571 94.7214 28.563 94.9349 29.5665 94.9348H71.6422C72.6475 94.9465 73.6431 94.738 74.5592 94.3239C75.4753 93.9098 76.2897 93.3002 76.9452 92.5379C77.1143 92.3465 77.2731 92.1462 77.4209 91.9379C77.5524 91.9567 77.685 91.9666 77.8178 91.9676H82.4054C83.2304 91.966 84.021 91.6374 84.6041 91.0537C85.1871 90.4701 85.5149 89.679 85.5156 88.8541V86.3414C85.9855 86.1718 86.4488 85.9805 86.9007 85.7672L88.6793 87.5433C89.2638 88.1261 90.0556 88.4534 90.881 88.4534C91.7064 88.4534 92.4981 88.1261 93.0826 87.5433L96.3239 84.3004C96.9074 83.7164 97.2353 82.9246 97.2356 82.0991C97.2359 81.2735 96.9086 80.4815 96.3255 79.8971L94.5476 78.1205C94.7606 77.6665 94.952 77.2047 95.1218 76.735H97.6349C98.4607 76.7342 99.2525 76.4058 99.8365 75.8219C100.421 75.238 100.749 74.4463 100.75 73.6205V69.0354C100.749 68.2097 100.421 67.4182 99.8368 66.8343C99.253 66.2505 98.4615 65.922 97.6359 65.9208Z" fill="#231F20"/>
<path fill-rule="evenodd" clip-rule="evenodd" d="M38.3965 42.3191C38.3965 44.7331 39.1123 47.093 40.4535 49.1002C41.7947 51.1074 43.701 52.6719 45.9313 53.5957C48.1616 54.5195 50.6157 54.7613 52.9834 54.2903C55.3511 53.8194 57.526 52.6569 59.233 50.9499C60.94 49.2429 62.1025 47.0681 62.5735 44.7004C63.0445 42.3327 62.8028 39.8786 61.879 37.6483C60.9552 35.4179 59.3908 33.5116 57.3836 32.1704C55.3764 30.8292 53.0165 30.1133 50.6025 30.1133C47.3664 30.1169 44.2639 31.404 41.9756 33.6922C39.6873 35.9805 38.4001 39.083 38.3965 42.3191Z" fill="#00ABEA"/>
<path fill-rule="evenodd" clip-rule="evenodd" d="M80.1112 60.0017C82.3513 60.0021 84.5409 60.6666 86.4033 61.9114C88.2656 63.1561 89.7171 64.9252 90.5741 66.9948C91.4311 69.0644 91.6552 71.3417 91.218 73.5387C90.7809 75.7356 89.7021 77.7537 88.118 79.3375C86.534 80.9214 84.5159 82 82.3189 82.437C80.1219 82.874 77.8446 82.6497 75.7751 81.7925C73.7055 80.9353 71.9366 79.4837 70.692 77.6212C69.4475 75.7587 68.7831 73.569 68.7829 71.329C68.7858 68.3255 69.9802 65.4459 72.1041 63.3222C74.228 61.1985 77.1077 60.0043 80.1112 60.0017ZM69.0915 57.0659L65.848 60.3094C65.7835 60.3758 65.7474 60.4647 65.7474 60.5572C65.7474 60.6497 65.7835 60.7385 65.848 60.8049L68.3363 63.2938C68.5486 63.5055 68.6861 63.7807 68.7278 64.0776C68.7695 64.3746 68.7132 64.677 68.5674 64.9391C68.0859 65.8079 67.7039 66.7283 67.4285 67.6827C67.3464 67.9711 67.1725 68.2248 66.9331 68.4054C66.6937 68.586 66.4019 68.6835 66.1021 68.6833H62.5831C62.4907 68.6849 62.4026 68.7225 62.3375 68.7881C62.2724 68.8537 62.2354 68.9421 62.2344 69.0345V73.6196C62.2353 73.7122 62.2723 73.8008 62.3377 73.8664C62.403 73.932 62.4914 73.9695 62.584 73.9708H66.1029C66.4027 73.9708 66.6944 74.0685 66.9338 74.2491C67.1731 74.4297 67.3472 74.6833 67.4295 74.9716C67.7051 75.9259 68.0871 76.8462 68.5684 77.715C68.7144 77.9775 68.7708 78.2803 68.7292 78.5777C68.6876 78.8751 68.5502 79.1509 68.3379 79.3632L65.8484 81.85C65.7839 81.9164 65.7479 82.0052 65.7479 82.0978C65.7479 82.1903 65.7839 82.2791 65.8484 82.3455L69.0907 85.5884C69.1571 85.653 69.2461 85.6891 69.3388 85.6891C69.4314 85.6891 69.5205 85.653 69.5869 85.5884L72.0752 83.1015C72.2877 82.8897 72.5632 82.7525 72.8603 82.7105C73.1575 82.6685 73.4602 82.724 73.7231 82.8685C74.591 83.3519 75.5115 83.7341 76.4665 84.0074C76.755 84.0903 77.0086 84.2646 77.1892 84.5043C77.3698 84.7439 77.4676 85.0358 77.4677 85.3359V88.853C77.4689 88.9455 77.506 89.034 77.5713 89.0996C77.6365 89.1652 77.7248 89.2028 77.8173 89.2044H82.4041C82.4966 89.2028 82.5849 89.1652 82.6502 89.0996C82.7155 89.034 82.7527 88.9455 82.7539 88.853V85.3359C82.754 85.0358 82.8517 84.744 83.0322 84.5044C83.2128 84.2647 83.4663 84.0903 83.7547 84.0074C84.7098 83.7342 85.6303 83.3521 86.4981 82.8685C86.761 82.7234 87.0639 82.6677 87.3612 82.7097C87.6585 82.7517 87.9342 82.8891 88.1466 83.1013L90.6347 85.5894C90.6669 85.6221 90.7054 85.6479 90.7478 85.6654C90.7903 85.6828 90.8358 85.6915 90.8817 85.6909C90.9278 85.6913 90.9736 85.6826 91.0163 85.6651C91.059 85.6477 91.0979 85.622 91.1305 85.5894L94.3722 82.3469C94.4046 82.3146 94.4303 82.2761 94.4478 82.2338C94.4652 82.1915 94.474 82.1461 94.4738 82.1003C94.4739 82.0072 94.4374 81.9178 94.3722 81.8515L91.8833 79.3626C91.671 79.1508 91.5336 78.8756 91.4919 78.5786C91.4503 78.2817 91.5066 77.9793 91.6524 77.7173C92.1342 76.8488 92.5158 75.9285 92.7899 74.9739C92.873 74.6855 93.0476 74.4321 93.2873 74.2515C93.527 74.071 93.8188 73.9732 94.1189 73.9729H97.6354C97.7283 73.972 97.8172 73.9347 97.883 73.869C97.9487 73.8033 97.9861 73.7144 97.987 73.6215V69.0355C97.9859 68.9428 97.9486 68.8541 97.883 68.7885C97.8175 68.7229 97.729 68.6854 97.6362 68.6841H94.1183C93.8183 68.684 93.5265 68.5863 93.2869 68.4058C93.0473 68.2253 92.873 67.9718 92.7901 67.6835C92.5161 66.7288 92.1345 65.8084 91.6526 64.9399C91.5069 64.6778 91.4506 64.3754 91.4923 64.0785C91.5341 63.7816 91.6715 63.5063 91.8837 63.2946L94.3722 60.8049C94.4368 60.7386 94.4729 60.6497 94.4729 60.5572C94.4729 60.4646 94.4368 60.3757 94.3722 60.3094L91.1291 57.0662C91.0628 57.0015 90.9739 56.9654 90.8814 56.9654C90.7888 56.9654 90.7 57.0015 90.6337 57.0662L88.145 59.5548C87.9326 59.7671 87.6569 59.9044 87.3595 59.9461C87.0621 59.9878 86.7592 59.9316 86.4966 59.786C85.6282 59.3041 84.7079 58.9224 83.7532 58.6485C83.4649 58.5657 83.2114 58.3914 83.031 58.1518C82.8505 57.9122 82.753 57.6204 82.753 57.3205V53.8032C82.7522 53.7107 82.7153 53.6223 82.6502 53.5567C82.5851 53.4912 82.4969 53.4536 82.4045 53.4521H77.8175C77.725 53.4534 77.6367 53.4908 77.5714 53.5564C77.5062 53.622 77.4692 53.7105 77.4683 53.8029V57.3207C77.4683 57.6207 77.3707 57.9125 77.1901 58.152C77.0096 58.3916 76.7559 58.5659 76.4676 58.6485C75.5128 58.9222 74.5924 59.3038 73.7241 59.786C73.4617 59.9317 73.1589 59.9879 72.8616 59.9462C72.5644 59.9045 72.2888 59.767 72.0766 59.5546L69.5871 57.0664C69.5209 57.0018 69.4321 56.9657 69.3397 56.9657C69.2473 56.9657 69.1585 57.0018 69.0923 57.0664L69.0915 57.0659Z" fill="#00ABEA"/>
</svg>
