<svg width="104" height="104" viewBox="0 0 104 104" fill="none" xmlns="http://www.w3.org/2000/svg">
<path fill-rule="evenodd" clip-rule="evenodd" d="M29.1366 49.9508L19.4037 60.0782C19.0285 60.469 18.4189 60.6843 17.6873 60.6843C16.9556 60.6843 16.3466 60.4692 15.9709 60.0784L6.23772 49.9508C5.90399 49.6035 5.996 49.4081 6.14002 49.2047C6.4575 48.7605 7.1528 48.4824 7.95433 48.4824H12.3674C12.5488 48.4824 12.7284 48.4467 12.896 48.3773C13.0636 48.3079 13.2159 48.2061 13.3441 48.0779C13.4724 47.9496 13.5741 47.7973 13.6435 47.6298C13.7129 47.4622 13.7487 47.2826 13.7487 47.1012V30.9081H21.6251V47.1012C21.6251 47.2826 21.6608 47.4622 21.7302 47.6298C21.7996 47.7973 21.9014 47.9496 22.0296 48.0779C22.1579 48.2061 22.3101 48.3079 22.4777 48.3773C22.6453 48.4467 22.8249 48.4824 23.0063 48.4824H27.4192C28.2207 48.4824 28.916 48.7609 29.2337 49.2049C29.3777 49.4081 29.4697 49.6037 29.1358 49.951L29.1366 49.9508ZM31.4843 47.6021C30.6312 46.4059 29.1504 45.7191 27.4196 45.7191H24.3888V29.526C24.3885 29.1597 24.2429 28.8086 23.9839 28.5496C23.7249 28.2906 23.3738 28.145 23.0075 28.1447H12.3674C12.0012 28.1451 11.6501 28.2907 11.3911 28.5497C11.1321 28.8086 10.9865 29.1598 10.9862 29.526V45.7187H7.95433C6.2235 45.7187 4.74191 46.4059 3.8898 47.6019C2.92191 48.9598 3.06146 50.6337 4.24547 51.8653L13.9782 61.9937C14.8793 62.9313 16.1965 63.4485 17.6873 63.4485C19.178 63.4485 20.4953 62.9315 21.3963 61.9939L31.1291 51.8661C32.3129 50.6345 32.4524 48.9614 31.4847 47.6029L31.4843 47.6021ZM97.762 49.9508L88.0293 60.0782C87.6541 60.469 87.0445 60.6843 86.3128 60.6843C85.5812 60.6843 84.9722 60.4692 84.5964 60.0784L74.8633 49.9508C74.5294 49.6035 74.6214 49.4081 74.7658 49.2047C75.0831 48.7605 75.7784 48.4824 76.5799 48.4824H80.993C81.1744 48.4824 81.354 48.4467 81.5216 48.3773C81.6892 48.3079 81.8414 48.2061 81.9697 48.0779C82.098 47.9496 82.1997 47.7973 82.2691 47.6298C82.3385 47.4622 82.3743 47.2826 82.3743 47.1012V30.9081H90.2506V47.1012C90.2506 47.2826 90.2864 47.4622 90.3558 47.6298C90.4252 47.7973 90.5269 47.9496 90.6552 48.0779C90.7834 48.2061 90.9357 48.3079 91.1033 48.3773C91.2709 48.4467 91.4505 48.4824 91.6319 48.4824H96.0456C96.8471 48.4824 97.5426 48.7609 97.8601 49.2049C98.0041 49.4081 98.0961 49.6035 97.762 49.9508ZM100.111 47.6021C99.2574 46.4059 97.7762 45.7191 96.0456 45.7191H93.0143V29.526C93.014 29.1598 92.8684 28.8086 92.6094 28.5497C92.3505 28.2907 91.9993 28.1451 91.6331 28.1447H80.993C80.6268 28.1451 80.2757 28.2908 80.0167 28.5497C79.7578 28.8087 79.6121 29.1598 79.6118 29.526V45.7187H76.5799C74.8491 45.7187 73.3673 46.4059 72.5152 47.6019C71.5475 48.9598 71.687 50.6337 72.8708 51.8653L82.6038 61.9937C83.5046 62.9313 84.8221 63.4485 86.3128 63.4485C87.8036 63.4485 89.1206 62.9315 90.0217 61.9939L99.7544 51.8661C100.938 50.6345 101.078 48.9614 100.111 47.6029V47.6021ZM46.2824 29.5951C46.2002 29.238 46.2633 28.8629 46.4576 28.5522C46.652 28.2416 46.9618 28.021 47.3189 27.9388C47.676 27.8566 48.0511 27.9196 48.3618 28.114C48.6724 28.3084 48.893 28.6182 48.9752 28.9753C49.4765 31.1563 51.8905 31.4406 53.2372 31.267C54.2195 31.1386 54.994 30.6393 55.2583 29.9643C55.4535 29.4667 55.3444 28.9487 54.9432 28.4681C54.2817 27.6725 53.6063 27.5404 52.3709 27.355C51.6048 27.2628 50.8505 27.0907 50.1202 26.8417L50.0772 26.824C48.0662 26.0115 46.8836 24.4271 46.9109 22.5901C46.9389 20.7189 48.204 19.0472 50.1338 18.3308C50.3819 18.24 50.635 18.1635 50.8919 18.1018V16.8443C50.8919 16.478 51.0374 16.1266 51.2965 15.8676C51.5555 15.6086 51.9068 15.463 52.2732 15.463C52.6395 15.463 52.9908 15.6086 53.2499 15.8676C53.5089 16.1266 53.6544 16.478 53.6544 16.8443V18.0659C55.5512 18.5002 57.1557 19.8879 57.9527 21.9919C58.0826 22.3345 58.071 22.7147 57.9205 23.0488C57.77 23.3829 57.4929 23.6436 57.1503 23.7734C56.8076 23.9032 56.4274 23.8916 56.0933 23.7411C55.7592 23.5906 55.4986 23.3136 55.3688 22.9709C54.6467 21.064 52.9286 20.2414 51.0936 20.9218C50.2545 21.2334 49.6837 21.9186 49.6732 22.6311C49.663 23.2982 50.167 23.8744 51.0928 24.2535C51.6414 24.4326 52.2067 24.5556 52.7802 24.6207C54.0802 24.8159 55.7003 25.0589 57.0661 26.6991C57.5693 27.2749 57.9063 27.9769 58.0409 28.7297C58.1756 29.4824 58.1028 30.2577 57.8305 30.9722C57.1953 32.5926 55.6367 33.7197 53.6544 33.9962V35.1337C53.6544 35.5 53.5089 35.8513 53.2499 36.1104C52.9908 36.3694 52.6395 36.5149 52.2732 36.5149C51.9068 36.5149 51.5555 36.3694 51.2965 36.1104C51.0374 35.8513 50.8919 35.5 50.8919 35.1337V33.9149C48.5641 33.4236 46.8004 31.8483 46.2824 29.5942V29.5951ZM75.0081 70.8138C75.6622 70.1329 76.2472 69.0492 75.3169 67.7448C74.4546 66.5348 72.7557 65.8122 70.7722 65.8122H62.2612C61.895 65.8119 61.5439 65.6662 61.2849 65.4073C61.026 65.1483 60.8804 64.7972 60.88 64.431V40.2102C58.1986 41.847 55.1098 42.6942 51.9686 42.6544C48.8273 42.6146 45.761 41.6894 43.122 39.9851V64.4312C43.1217 64.7974 42.976 65.1486 42.7171 65.4075C42.4581 65.6665 42.107 65.8121 41.7407 65.8124H33.2298C31.2465 65.8124 29.5475 66.535 28.6857 67.7421C27.7554 69.0486 28.3404 70.1321 28.9938 70.8132L47.7662 90.3479C48.7341 91.3564 50.2383 91.911 52.002 91.912C53.7657 91.913 55.2705 91.3572 56.238 90.3506L75.0102 70.814L75.0081 70.8138ZM42.3456 16.1529C40.4003 18.0981 39.0756 20.5766 38.5389 23.2748C38.0022 25.973 38.2777 28.7697 39.3305 31.3114C40.3833 33.853 42.1661 36.0254 44.4535 37.5538C46.7409 39.0822 49.4302 39.898 52.1812 39.898C54.9323 39.898 57.6216 39.0822 59.909 37.5538C62.1964 36.0254 63.9792 33.853 65.032 31.3114C66.0848 28.7697 66.3603 25.973 65.8236 23.2748C65.2869 20.5766 63.9621 18.0981 62.0169 16.1529C59.4064 13.5479 55.8691 12.0849 52.1812 12.0849C48.4934 12.0849 44.9561 13.5479 42.3456 16.1529ZM70.7722 63.0499H63.6425V38.0904C63.7518 37.9888 63.8629 37.8872 63.9699 37.7786C66.3003 35.4483 67.8878 32.4796 68.5319 29.2476C69.1761 26.0155 68.8479 22.6651 67.5889 19.6194C66.3299 16.5738 64.1966 13.9696 61.4584 12.1357C58.7201 10.3019 55.4998 9.32061 52.2043 9.31593C48.9087 9.31126 45.6856 10.2834 42.9422 12.1094C40.1987 13.9355 38.058 16.5337 36.7904 19.5757C35.5228 22.6178 35.1851 25.9673 35.8201 29.2011C36.455 32.435 38.0341 35.4081 40.3578 37.745V63.0499H33.2282C30.3103 63.0499 27.8338 64.1771 26.4336 66.1409C24.9191 68.2646 25.1361 70.7912 26.9997 72.7295L45.7721 92.264C47.2657 93.8193 49.4778 94.6761 52.0004 94.6761C54.523 94.6761 56.7354 93.8195 58.229 92.266L77.001 72.7295C78.8647 70.791 79.0818 68.2668 77.5675 66.1409C76.1668 64.1759 73.6903 63.0499 70.7722 63.0499Z" fill="#231F20"/>
<path fill-rule="evenodd" clip-rule="evenodd" d="M21.6255 47.1008V30.9077H13.7491V47.1008C13.7491 47.4672 13.6036 47.8185 13.3446 48.0775C13.0855 48.3366 12.7342 48.4821 12.3679 48.4821H7.95439C7.15286 48.4821 6.45756 48.7602 6.14008 49.2044C5.99606 49.4075 5.90405 49.6031 6.23778 49.9505L15.9709 60.0781C16.3461 60.4689 16.9555 60.684 17.6873 60.684C18.4192 60.684 19.028 60.4687 19.4037 60.0779L29.1367 49.9505C29.4706 49.6031 29.3786 49.4077 29.2346 49.2044C28.9169 48.7604 28.2216 48.4819 27.4201 48.4819H23.0072C22.8258 48.4819 22.6461 48.4463 22.4785 48.3769C22.3109 48.3075 22.1586 48.2058 22.0303 48.0775C21.902 47.9493 21.8002 47.797 21.7308 47.6295C21.6613 47.4619 21.6255 47.2822 21.6255 47.1008Z" fill="#00ABEA"/>
<path fill-rule="evenodd" clip-rule="evenodd" d="M82.3743 30.9077V47.1008C82.3743 47.4671 82.2287 47.8185 81.9697 48.0775C81.7107 48.3365 81.3593 48.482 80.993 48.482H76.5795C75.778 48.482 75.0827 48.7601 74.7654 49.2044C74.621 49.4075 74.529 49.6031 74.8629 49.9504L84.596 60.0781C84.971 60.4689 85.5808 60.684 86.3124 60.684C87.0441 60.684 87.6531 60.4687 88.0289 60.0778L97.7616 49.9504C98.0957 49.6031 98.0037 49.4077 97.8597 49.2044C97.5422 48.7603 96.8467 48.4818 96.0452 48.4818H91.6321C91.4507 48.4818 91.2711 48.4461 91.1035 48.3767C90.9359 48.3073 90.7837 48.2055 90.6554 48.0773C90.5271 47.949 90.4254 47.7968 90.356 47.6292C90.2866 47.4616 90.2508 47.282 90.2508 47.1006V30.9075L82.3743 30.9077Z" fill="#00ABEA"/>
<path fill-rule="evenodd" clip-rule="evenodd" d="M62.016 35.8246C64.2967 33.5486 65.7176 30.5521 66.0364 27.3458C66.3552 24.1395 65.5522 20.9218 63.7642 18.2413C61.9762 15.5608 59.3139 13.5833 56.2312 12.646C53.1484 11.7086 49.836 11.8693 46.8585 13.1008C43.881 14.3323 41.4227 16.5583 39.9027 19.3993C38.3826 22.2404 37.895 25.5206 38.5227 28.681C39.1505 31.8414 40.8548 34.6862 43.3453 36.7307C45.8357 38.7751 48.9581 39.8925 52.1802 39.8925C55.8681 39.8925 59.4054 38.4295 62.016 35.8246ZM57.066 26.6998C57.5692 27.2756 57.9062 27.9776 58.0408 28.7303C58.1755 29.4831 58.1027 30.2583 57.8304 30.9729C57.1952 32.5933 55.6366 33.7204 53.6543 33.9968V35.1343C53.6543 35.5007 53.5088 35.852 53.2498 36.111C52.9907 36.3701 52.6394 36.5156 52.2731 36.5156C51.9067 36.5156 51.5554 36.3701 51.2964 36.111C51.0373 35.852 50.8918 35.5007 50.8918 35.1343V33.9156C48.564 33.4242 46.8003 31.849 46.2823 29.5949C46.2001 29.2378 46.2632 28.8627 46.4576 28.5521C46.6519 28.2415 46.9618 28.0208 47.3189 27.9386C47.6759 27.8565 48.0511 27.9195 48.3617 28.1139C48.6723 28.3083 48.8929 28.6181 48.9751 28.9752C49.4764 31.1561 51.8904 31.4405 53.2371 31.2668C54.2194 31.1385 54.9939 30.6392 55.2582 29.9642C55.4534 29.4665 55.3443 28.9486 54.9431 28.468C54.2816 27.6723 53.6062 27.5403 52.3708 27.3549C51.6047 27.2626 50.8504 27.0906 50.1201 26.8416L50.0771 26.8239C48.0661 26.0114 46.8836 24.427 46.9108 22.59C46.9388 20.7188 48.2039 19.047 50.1338 18.3306C50.3818 18.2399 50.635 18.1634 50.8918 18.1017V16.8444C50.8918 16.478 51.0373 16.1267 51.2964 15.8677C51.5554 15.6086 51.9067 15.4631 52.2731 15.4631C52.6394 15.4631 52.9907 15.6086 53.2498 15.8677C53.5088 16.1267 53.6543 16.478 53.6543 16.8444V18.066C55.5511 18.5002 57.1556 19.888 57.9526 21.992C58.0825 22.3346 58.0709 22.7148 57.9204 23.0489C57.7699 23.383 57.4929 23.6436 57.1502 23.7735C56.8075 23.9033 56.4274 23.8917 56.0933 23.7412C55.7592 23.5907 55.4985 23.3137 55.3687 22.971C54.6466 21.0641 52.9286 20.2414 51.0935 20.9219C50.2544 21.2335 49.6836 21.9186 49.6731 22.6312C49.6629 23.2983 50.1669 23.8745 51.0927 24.2535C51.6413 24.4326 52.2067 24.5557 52.7801 24.6208C54.0809 24.8166 55.7002 25.0595 57.066 26.6998Z" fill="#00ABEA"/>
</svg>
