<svg width="104" height="104" viewBox="0 0 104 104" fill="none" xmlns="http://www.w3.org/2000/svg">
<path fill-rule="evenodd" clip-rule="evenodd" d="M25.1897 46.907C25.7312 42.6612 27.8021 38.7585 31.0144 35.9298C34.2267 33.1012 38.3601 31.5408 42.6403 31.5408C46.9205 31.5408 51.0539 33.1012 54.2662 35.9298C57.4786 38.7585 59.5495 42.6612 60.091 46.907C60.1378 47.2776 60.1052 47.6538 59.9953 48.0108C59.8855 48.3678 59.701 48.6973 59.4541 48.9775C59.2071 49.2576 58.9034 49.4821 58.563 49.6359C58.2227 49.7896 57.8535 49.8693 57.48 49.8694H27.8004C27.427 49.8693 27.0578 49.7896 26.7174 49.6359C26.3771 49.4821 26.0734 49.2576 25.8264 48.9775C25.5795 48.6973 25.395 48.3677 25.2852 48.0108C25.1754 47.6538 25.1429 47.2775 25.1897 46.907ZM71.6208 31.54C69.2506 31.5393 66.9048 32.0183 64.7246 32.948C62.5444 33.8778 60.5749 35.2391 58.9346 36.95C61.0474 39.7598 62.3908 43.072 62.8322 46.5597C62.9905 47.7026 62.7678 48.8658 62.1986 49.8694H86.4607C86.8341 49.8691 87.2032 49.7894 87.5435 49.6355C87.8838 49.4817 88.1874 49.2573 88.4343 48.9771C88.6813 48.697 88.8658 48.3675 88.9757 48.0106C89.0855 47.6537 89.1183 47.2775 89.0717 46.907C88.5255 42.6631 86.4533 38.763 83.2419 35.9351C80.0306 33.1073 75.8997 31.545 71.6208 31.54ZM27.8004 52.6323H57.48C57.5107 52.6323 57.541 52.6305 57.5714 52.6305C57.5865 52.6305 57.6011 52.6325 57.6163 52.6325H86.4601C87.2259 52.6327 87.983 52.4699 88.681 52.1547C89.379 51.8396 90.0019 51.3795 90.5083 50.8049C91.0146 50.2303 91.3928 49.5545 91.6177 48.8225C91.8425 48.0904 91.9089 47.3188 91.8124 46.5591C91.3303 42.7704 89.7918 39.1939 87.3728 36.2384C84.9538 33.283 81.7519 31.0679 78.1333 29.8465C74.5147 28.625 70.6254 28.4465 66.9101 29.3314C63.1948 30.2162 59.8035 32.1287 57.124 34.8501C54.4455 32.1285 51.0551 30.2157 47.3405 29.3308C43.6259 28.4458 39.7372 28.6245 36.1193 29.8462C32.5015 31.0679 29.3006 33.2833 26.883 36.2391C24.4653 39.1948 22.9286 42.7714 22.4485 46.5597C22.3521 47.3194 22.4185 48.0909 22.6434 48.8229C22.8683 49.5549 23.2465 50.2306 23.7527 50.8052C24.259 51.3797 24.8818 51.8398 25.5797 52.155C26.2776 52.4702 27.0346 52.6332 27.8004 52.6331V52.6323ZM42.6403 6.90622C44.2629 6.90614 45.8491 7.38723 47.1982 8.28865C48.5474 9.19007 49.5989 10.4713 50.2199 11.9704C50.8408 13.4695 51.0033 15.119 50.6867 16.7104C50.3701 18.3018 49.5887 19.7636 48.4413 20.9109C47.294 22.0582 45.8321 22.8394 44.2407 23.1559C42.6493 23.4724 40.9998 23.3098 39.5007 22.6887C38.0017 22.0677 36.7205 21.016 35.8192 19.6668C34.9179 18.3176 34.4369 16.7314 34.4371 15.1088C34.4395 12.934 35.3046 10.8489 36.8425 9.31116C38.3804 7.77338 40.4655 6.90848 42.6403 6.90622ZM42.6403 26.0763C44.8093 26.0764 46.9295 25.4333 48.7329 24.2283C50.5364 23.0234 51.942 21.3107 52.7721 19.3069C53.6022 17.3031 53.8195 15.0981 53.3964 12.9709C52.9734 10.8436 51.929 8.88952 50.3955 7.35576C48.8619 5.82201 46.9079 4.77745 44.7807 4.35417C42.6535 3.9309 40.4485 4.14791 38.4446 4.97778C36.4407 5.80765 34.7279 7.2131 33.5227 9.0164C32.3176 10.8197 31.6742 12.9399 31.674 15.1088C31.6772 18.0164 32.8335 20.804 34.8894 22.8601C36.9453 24.9162 39.7327 26.0729 42.6403 26.0763ZM71.6208 6.90622C73.2434 6.90598 74.8296 7.38693 76.1789 8.28826C77.5282 9.18958 78.5798 10.4708 79.2009 11.9698C79.822 13.4689 79.9845 15.1185 79.6681 16.7099C79.3516 18.3014 78.5703 19.7632 77.4229 20.9106C76.2756 22.058 74.8137 22.8393 73.2223 23.1558C71.6308 23.4724 69.9813 23.3098 68.4822 22.6888C66.9831 22.0678 65.7019 21.0161 64.8005 19.6669C63.8992 18.3177 63.4182 16.7314 63.4184 15.1088C63.421 12.9342 64.286 10.8494 65.8237 9.31169C67.3614 7.77398 69.4462 6.90891 71.6208 6.90622ZM71.6208 26.0763C73.7898 26.0765 75.9101 25.4335 77.7137 24.2287C79.5173 23.0238 80.923 21.3111 81.7532 19.3073C82.5834 17.3034 82.8008 15.0984 82.3777 12.9711C81.9547 10.8437 80.9104 8.88957 79.3767 7.35576C77.8431 5.82196 75.8891 4.77738 73.7618 4.35413C71.6345 3.93088 69.4294 4.14797 67.4255 4.97794C65.4215 5.80791 63.7087 7.21348 62.5036 9.01691C61.2986 10.8203 60.6553 12.9406 60.6553 15.1096C60.6587 18.017 61.815 20.8044 63.8706 22.8604C65.9263 24.9164 68.7134 26.0732 71.6208 26.0772V26.0763ZM15.3889 74.2003C15.572 74.5176 15.6217 74.8947 15.5268 75.2486C15.4319 75.6025 15.2004 75.9042 14.8831 76.0873C14.5658 76.2705 14.1887 76.3201 13.8348 76.2253C13.4809 76.1304 13.1792 75.8989 12.9961 75.5816L11.0613 72.23C10.8781 71.9127 10.8285 71.5356 10.9234 71.1817C11.0182 70.8279 11.2498 70.5261 11.5671 70.343C11.8844 70.1598 12.2615 70.1102 12.6153 70.205C12.9692 70.2999 13.2709 70.5314 13.4541 70.8488L15.3889 74.2003ZM97.9828 67.0909C97.892 68.8236 96.4965 70.3966 94.0492 71.5191C94.0022 71.5402 93.9567 71.5646 93.9131 71.5922L63.7757 89.7646C63.7688 89.7699 63.7615 89.7746 63.7538 89.7786C60.91 91.5703 57.8318 91.8468 54.3446 90.6291C54.3149 90.6191 54.2849 90.6087 54.2546 90.6014L34.7247 85.2351C34.5066 85.1758 34.354 85.1228 34.2194 85.0754C33.2076 84.72 32.7366 84.9194 31.9037 85.4581L30.6228 86.285L20.478 68.7147L33.8308 60.6484C35.9784 59.4859 40.396 59.3557 45.6596 60.2972C50.9329 61.2426 56.1479 63.09 59.609 65.2393C62.2114 66.8555 63.6126 68.5037 63.5553 69.8813C63.5003 71.1502 62.1797 72.4904 59.7351 73.761C56.5542 73.5004 52.1336 72.5788 45.9929 70.5558C45.6448 70.4412 45.2655 70.4695 44.9383 70.6346C44.6111 70.7996 44.3629 71.0879 44.2483 71.436C44.1336 71.784 44.1619 72.1634 44.327 72.4906C44.4921 72.8178 44.7803 73.066 45.1284 73.1806C56.9881 77.0865 64.562 77.6333 68.2743 74.8463L88.4726 63.843C88.4957 63.8312 88.5181 63.8181 88.5397 63.8038C90.9812 62.2899 93.6613 62.1065 95.708 63.3163C97.1863 64.1897 98.0585 65.6372 97.983 67.092L97.9828 67.0909ZM29.8526 92.0184C29.9431 91.6873 29.967 91.3415 29.9229 91.001C29.8789 90.6605 29.7678 90.3322 29.596 90.0349L16.3241 67.0481C15.9771 66.4481 15.4062 66.0103 14.7367 65.8308C14.0673 65.6514 13.3539 65.7448 12.7533 66.0908L7.31892 69.2288C6.72042 69.5773 6.28397 70.1483 6.10471 70.8173C5.92546 71.4862 6.01794 72.1989 6.362 72.8L19.634 95.7862C19.9826 96.3845 20.5535 96.8208 21.2224 97C21.8912 97.1793 22.6038 97.087 23.2049 96.7433L28.6393 93.6055C28.9366 93.4345 29.197 93.2062 29.4053 92.9337C29.6136 92.6613 29.7656 92.3502 29.8526 92.0184ZM97.1124 60.9375C94.1738 59.2008 90.4395 59.3882 87.1186 61.4349L66.8593 72.4717C66.7923 72.5071 66.7288 72.5487 66.6696 72.596C66.0974 73.0192 65.4456 73.3226 64.7533 73.488C65.7363 72.4006 66.2632 71.2333 66.3143 69.9966C66.4212 67.5098 64.6546 65.1178 61.0666 62.8897C53.4003 58.1311 38.4027 54.9881 32.478 58.2381C32.4611 58.2477 32.4447 58.2585 32.4282 58.2678L19.0955 66.3217L18.7169 65.6664C18.0026 64.4328 16.8283 63.5326 15.4515 63.1633C14.0746 62.794 12.6075 62.9856 11.3717 63.6961L5.93727 66.8348C4.70452 67.5503 3.80537 68.7249 3.43653 70.1017C3.0677 71.4785 3.25922 72.9453 3.96919 74.1812L17.2412 97.1677C17.5929 97.7801 18.0627 98.3165 18.6235 98.7459C19.1842 99.1752 19.8247 99.4888 20.5076 99.6685C20.9665 99.7928 21.4397 99.8557 21.9151 99.8558C22.8533 99.8555 23.7748 99.6078 24.5866 99.1376L30.0208 95.9993C31.2486 95.287 32.1456 94.1191 32.5171 92.7491C32.8886 91.3792 32.7045 89.918 32.0047 88.6831L33.4026 87.779C33.4189 87.7691 33.4408 87.7536 33.4662 87.7384C33.6033 87.7855 33.778 87.84 33.9927 87.9009L53.4783 93.2534C55.0591 93.8211 56.7242 94.1187 58.4038 94.1338C60.8194 94.1303 63.1831 93.4336 65.2144 92.1265L95.2749 73.9986C99.834 71.8788 100.658 68.8553 100.742 67.237C100.87 64.7485 99.4788 62.335 97.1124 60.9375Z" fill="#231F20"/>
<path fill-rule="evenodd" clip-rule="evenodd" d="M42.6407 23.314C44.2632 23.314 45.8493 22.833 47.1984 21.9317C48.5475 21.0303 49.5991 19.7492 50.2201 18.2502C50.8411 16.7512 51.0036 15.1018 50.6872 13.5105C50.3708 11.9191 49.5896 10.4573 48.4424 9.30995C47.2952 8.16259 45.8335 7.38116 44.2422 7.0645C42.6509 6.74784 41.0014 6.91016 39.5024 7.53093C38.0033 8.15171 36.722 9.20306 35.8205 10.552C34.9189 11.901 34.4377 13.487 34.4375 15.1095C34.4399 17.2845 35.3048 19.3698 36.8427 20.9079C38.3806 22.446 40.4657 23.3113 42.6407 23.314Z" fill="#00ABEA"/>
<path fill-rule="evenodd" clip-rule="evenodd" d="M63.4189 15.1097C63.4189 16.7322 63.9001 18.3183 64.8015 19.6673C65.703 21.0164 66.9842 22.0678 68.4833 22.6887C69.9823 23.3096 71.6318 23.472 73.2231 23.1554C74.8145 22.8387 76.2762 22.0573 77.4234 20.91C78.5706 19.7626 79.3518 18.3008 79.6682 16.7094C79.9847 15.1181 79.8221 13.4686 79.201 11.9696C78.58 10.4707 77.5284 9.18956 76.1792 8.28828C74.83 7.387 73.2439 6.90605 71.6213 6.90625C69.4467 6.90926 67.362 7.77454 65.8243 9.31236C64.2867 10.8502 63.4217 12.935 63.4189 15.1097Z" fill="#00ABEA"/>
<path fill-rule="evenodd" clip-rule="evenodd" d="M29.5958 90.035L16.3244 67.0482C15.9774 66.4482 15.4065 66.0104 14.737 65.831C14.0676 65.6515 13.3543 65.7449 12.7537 66.0909L7.31926 69.2289C6.72076 69.5774 6.2843 70.1484 6.10505 70.8174C5.92579 71.4863 6.01828 72.199 6.36234 72.8001L19.6343 95.7863C19.983 96.3846 20.5539 96.8209 21.2227 97.0001C21.8916 97.1794 22.6041 97.0871 23.2053 96.7434L28.6397 93.6056C29.2378 93.2569 29.674 92.6861 29.8532 92.0173C30.0324 91.3485 29.9401 90.636 29.5964 90.035H29.5958ZM14.8836 76.0895C14.5658 76.2716 14.1889 76.3203 13.8352 76.2252C13.4815 76.13 13.1799 75.8986 12.9964 75.5817L11.0616 72.2301C10.8785 71.9128 10.8289 71.5357 10.9237 71.1818C11.0186 70.828 11.2501 70.5262 11.5674 70.3431C11.8847 70.1599 12.2618 70.1103 12.6157 70.2052C12.9696 70.3 13.2713 70.5316 13.4544 70.8489L15.3892 74.2004C15.5724 74.518 15.6221 74.8954 15.5273 75.2496C15.4325 75.6038 15.201 75.9059 14.8836 76.0895Z" fill="#00ABEA"/>
</svg>
