<svg width="104" height="104" viewBox="0 0 104 104" fill="none" xmlns="http://www.w3.org/2000/svg">
<path fill-rule="evenodd" clip-rule="evenodd" d="M50.6637 45.5574V46.8146C50.6637 47.1809 50.8092 47.5322 51.0682 47.7913C51.3272 48.0503 51.6786 48.1958 52.0449 48.1958C52.4112 48.1958 52.7626 48.0503 53.0216 47.7913C53.2806 47.5322 53.4262 47.1809 53.4262 46.8146V45.6401C55.4393 45.3641 57.0241 44.2233 57.6676 42.581C57.9433 41.859 58.0171 41.0755 57.8812 40.3147C57.7452 39.5538 57.4045 38.8444 56.8957 38.2626C55.5145 36.6027 53.874 36.3581 52.5556 36.1607C51.9722 36.0929 51.397 35.9673 50.8385 35.7857C49.8893 35.3969 49.372 34.8048 49.3819 34.116C49.3939 33.3848 49.9799 32.6811 50.8385 32.3614C52.7154 31.6667 54.47 32.5075 55.2082 34.4554C55.338 34.798 55.5986 35.075 55.9326 35.2255C56.2666 35.376 56.6468 35.3876 56.9894 35.2578C57.332 35.128 57.609 34.8674 57.7594 34.5334C57.9099 34.1993 57.9215 33.8192 57.7917 33.4766C56.9825 31.3409 55.3522 29.9337 53.4259 29.4996V28.2423C53.4259 27.8759 53.2804 27.5246 53.0214 27.2656C52.7624 27.0065 52.411 26.861 52.0447 26.861C51.6784 26.861 51.327 27.0065 51.068 27.2656C50.809 27.5246 50.6635 27.8759 50.6635 28.2423V29.5329C50.3978 29.5965 50.1362 29.6757 49.8798 29.77C47.928 30.4943 46.6489 32.1837 46.6213 34.0762C46.5936 35.9313 47.7896 37.532 49.8225 38.355C49.8365 38.3609 49.8501 38.3668 49.866 38.3729C50.6064 38.6247 51.3712 38.7986 52.1477 38.8919C53.4071 39.0812 54.0957 39.2169 54.7725 40.0308C55.185 40.526 55.2975 41.059 55.0962 41.5721C54.8241 42.2648 54.0325 42.7762 53.0258 42.9065C51.1826 43.1472 49.124 42.5156 48.6738 40.5656C48.6363 40.3859 48.5632 40.2154 48.459 40.0642C48.3547 39.913 48.2214 39.7841 48.0667 39.6851C47.912 39.586 47.7392 39.5188 47.5582 39.4874C47.3773 39.4559 47.1919 39.4609 47.0129 39.502C46.8339 39.5431 46.6649 39.6194 46.5157 39.7266C46.3666 39.8338 46.2403 39.9696 46.1443 40.1262C46.0483 40.2827 45.9845 40.4569 45.9566 40.6384C45.9287 40.8199 45.9373 41.0052 45.9818 41.1833C46.5069 43.4687 48.2989 45.0657 50.6635 45.557L50.6637 45.5574ZM37.8058 37.5285C37.8063 34.2562 38.9414 31.0853 41.0177 28.5561C43.0939 26.0268 45.9829 24.2958 49.1924 23.6578C52.4019 23.0198 55.7334 23.5144 58.6191 25.0573C61.5048 26.6002 63.7663 29.0959 65.0182 32.1193C66.2701 35.1426 66.435 38.5065 65.4848 41.6378C64.5345 44.7691 62.528 47.4741 59.807 49.2918C57.086 51.1095 53.8189 51.9276 50.5624 51.6065C47.3059 51.2855 44.2614 49.8453 41.9478 47.5312C40.63 46.2207 39.5853 44.6619 38.874 42.9449C38.1627 41.228 37.799 39.387 37.804 37.5285H37.8058ZM39.9947 49.4851C37.2205 46.7179 35.4919 43.0743 35.1035 39.1753C34.7152 35.2763 35.6911 31.3633 37.8649 28.1033C40.0387 24.8433 43.2759 22.4382 47.0246 21.2978C50.7733 20.1575 54.8015 20.3526 58.4224 21.8499C62.0433 23.3472 65.0329 26.0539 66.8815 29.5087C68.7301 32.9635 69.3233 36.9526 68.5599 40.7958C67.7965 44.639 65.7239 48.0985 62.6953 50.5846C59.6667 53.0706 55.8696 54.4294 51.9513 54.4291C49.7304 54.4363 47.5302 54.003 45.4779 53.1543C43.4256 52.3057 41.562 51.0586 39.9947 49.4851ZM22.9005 55.1496C22.9009 55.5091 23.0438 55.8539 23.2981 56.1081C23.5523 56.3623 23.8971 56.5052 24.2566 56.5055H29.8145C30.1145 56.5056 30.4062 56.6033 30.6458 56.7839C30.8854 56.9644 31.0597 57.218 31.1425 57.5063C31.5927 59.0736 32.2196 60.5847 33.0113 62.0104C33.1563 62.2727 33.212 62.5751 33.17 62.8719C33.128 63.1687 32.9906 63.4438 32.7785 63.6557L28.8464 67.5898C28.5937 67.8447 28.452 68.189 28.452 68.5479C28.452 68.9068 28.5937 69.2512 28.8464 69.5061L33.9702 74.6317C34.226 74.8835 34.5705 75.0245 34.9294 75.0245C35.2883 75.0245 35.6328 74.8835 35.8885 74.6317L39.8202 70.6982C40.0325 70.4858 40.3082 70.3484 40.6055 70.3067C40.9029 70.2651 41.2057 70.3214 41.4682 70.4673C42.8938 71.2586 44.4048 71.8851 45.9721 72.3346C46.2605 72.4173 46.5141 72.5916 46.6947 72.8313C46.8752 73.0709 46.9728 73.3628 46.9727 73.6628V79.2226C46.9733 79.582 47.1163 79.9265 47.3704 80.1807C47.6246 80.4349 47.9691 80.578 48.3285 80.5786H55.5748C55.9342 80.578 56.2787 80.435 56.5329 80.1809C56.787 79.9267 56.9301 79.5822 56.9307 79.2228V73.6626C56.9306 73.3626 57.0282 73.0708 57.2087 72.8312C57.3893 72.5916 57.6429 72.4173 57.9313 72.3346C59.4986 71.8852 61.0096 71.2587 62.4352 70.4673C62.6976 70.3214 63.0005 70.265 63.2979 70.3067C63.5953 70.3483 63.871 70.4858 64.0833 70.6982L68.0148 74.6317C68.2706 74.8835 68.6151 75.0246 68.974 75.0246C69.333 75.0246 69.6775 74.8835 69.9333 74.6317L75.0571 69.5061C75.3088 69.2507 75.4498 68.9065 75.4498 68.5479C75.4498 68.1894 75.3088 67.8452 75.0571 67.5898L71.1236 63.6561C70.9123 63.4438 70.7755 63.1686 70.7339 62.8719C70.6922 62.5752 70.7479 62.2731 70.8927 62.0108C71.6838 60.5848 72.3107 59.0738 72.7614 57.5067C72.8441 57.2183 73.0184 56.9646 73.2581 56.7841C73.4977 56.6036 73.7896 56.506 74.0897 56.5061H79.6471C80.0066 56.5059 80.3514 56.363 80.6056 56.1088C80.8598 55.8546 81.0027 55.5099 81.003 55.1504V52.9073H68.9932C68.6475 57.1898 66.7021 61.1851 63.5443 64.0983C60.3864 67.0115 56.2475 68.629 51.9511 68.629C47.6547 68.629 43.5158 67.0115 40.3579 64.0983C37.2 61.1851 35.2546 57.1898 34.9089 52.9073H22.8997V55.1496H22.9005ZM21.5193 50.1442C21.153 50.1442 20.8016 50.2897 20.5426 50.5488C20.2836 50.8078 20.138 51.1591 20.138 51.5255V55.1492C20.1392 56.2413 20.5736 57.2883 21.3458 58.0605C22.1181 58.8327 23.1651 59.267 24.2572 59.2682H28.7985C29.1602 60.3489 29.5975 61.4028 30.1072 62.4221L26.8936 65.6357C26.122 66.4085 25.6887 67.4559 25.6887 68.5479C25.6887 69.64 26.122 70.6873 26.8936 71.4601L32.0172 76.5838C32.7906 77.3549 33.8383 77.7878 34.9304 77.7878C36.0226 77.7878 37.0702 77.3549 37.8436 76.5838L41.0546 73.3728C42.0752 73.8812 43.1297 74.3184 44.2106 74.6813V79.2228C44.212 80.3148 44.6464 81.3618 45.4187 82.134C46.1909 82.9062 47.2379 83.3406 48.33 83.3419H55.5748C56.6669 83.3405 57.7138 82.9061 58.486 82.1339C59.2583 81.3617 59.6927 80.3148 59.6942 79.2228V74.6811C60.7749 74.3194 61.8289 73.8821 62.8483 73.3726L66.0613 76.5838C66.8348 77.3548 67.8823 77.7878 68.9745 77.7878C70.0666 77.7878 71.1142 77.3548 71.8876 76.5838L77.0104 71.4593C77.7802 70.6856 78.2123 69.6385 78.2123 68.547C78.2123 67.4556 77.7802 66.4085 77.0104 65.6347L73.7971 62.4227C74.3064 61.4032 74.7437 60.3492 75.1057 59.2686H79.6471C80.7392 59.2675 81.7863 58.8331 82.5585 58.0609C83.3308 57.2887 83.7651 56.2417 83.7663 55.1496V51.5259C83.7663 51.1595 83.6208 50.8082 83.3618 50.5492C83.1027 50.2901 82.7514 50.1446 82.3851 50.1446H67.6668C67.3005 50.1446 66.9492 50.2901 66.6902 50.5492C66.4311 50.8082 66.2856 51.1595 66.2856 51.5259C66.2927 53.4127 65.9272 55.2825 65.21 57.0278C64.4929 58.7731 63.4382 60.3596 62.1064 61.6963C60.7747 63.0331 59.1922 64.0937 57.4496 64.8175C55.707 65.5412 53.8387 65.9137 51.9518 65.9137C50.0649 65.9137 48.1965 65.5412 46.454 64.8175C44.7114 64.0937 43.1288 63.0331 41.7971 61.6963C40.4654 60.3596 39.4107 58.7731 38.6935 57.0278C37.9764 55.2825 37.6109 53.4127 37.618 51.5259C37.618 51.1595 37.4724 50.8082 37.2134 50.5492C36.9544 50.2901 36.603 50.1446 36.2367 50.1446L21.5193 50.1442ZM100.605 67.0745C100.686 67.2369 100.734 67.4136 100.747 67.5947C100.76 67.7757 100.737 67.9575 100.679 68.1296C100.622 68.3017 100.531 68.4608 100.411 68.5978C100.292 68.7347 100.147 68.8469 99.985 68.9278L91.6498 73.0843C91.4696 73.1747 91.2716 73.2244 91.07 73.2299C90.8684 73.2353 90.6681 73.1964 90.4833 73.1158C90.2982 73.0357 90.1331 72.916 89.9994 72.7651C89.8658 72.6142 89.7669 72.4357 89.7098 72.2424L87.0978 63.5141C86.9927 63.1628 87.0315 62.7842 87.2056 62.4615C87.3797 62.1389 87.6749 61.8986 88.0262 61.7935C88.3774 61.6885 88.7561 61.7273 89.0787 61.9014C89.4014 62.0755 89.6417 62.3706 89.7467 62.7219L91.2998 67.9207C94.7651 59.3701 95.3464 49.9225 92.9557 41.0115C86.8967 18.4031 63.5735 4.93711 40.9648 10.9963C33.8808 12.8928 27.4088 16.5918 22.1794 21.7331C22.0502 21.8605 21.8972 21.9612 21.7291 22.0295C21.561 22.0977 21.3811 22.1322 21.1996 22.1309C20.8332 22.1284 20.4828 21.9803 20.2255 21.7194C19.9682 21.4585 19.8251 21.106 19.8277 20.7396C19.8302 20.3731 19.9783 20.0227 20.2392 19.7654C27.6456 12.479 37.3356 7.96559 47.679 6.98455C58.0223 6.00351 68.388 8.61467 77.0323 14.3788C85.6765 20.1429 92.0719 28.7082 95.1425 38.6339C98.2131 48.5596 97.7716 59.24 93.8923 68.8784L98.7517 66.4549C98.9139 66.3738 99.0905 66.3254 99.2714 66.3127C99.4523 66.2999 99.634 66.3229 99.806 66.3805C99.978 66.438 100.137 66.529 100.274 66.6481C100.41 66.7671 100.522 66.912 100.603 67.0745H100.605ZM83.8325 82.1199C84.0905 82.3801 84.2347 82.7319 84.2336 83.0982C84.2324 83.4646 84.086 83.8155 83.8264 84.074C76.4313 91.423 66.7238 95.9906 56.3475 97.0035C45.9711 98.0164 35.5635 95.4124 26.8867 89.6324C18.21 83.8524 11.7973 75.2514 8.73425 65.2859C5.67124 55.3203 6.14619 44.6024 10.0787 34.9468L5.24714 37.3546C4.91919 37.518 4.5398 37.5443 4.19243 37.4279C3.84506 37.3115 3.55816 37.0618 3.39484 36.7339C3.23153 36.4059 3.20518 36.0266 3.32159 35.6792C3.43801 35.3318 3.68765 35.0449 4.01559 34.8816L12.3498 30.725C12.5301 30.6352 12.7278 30.5858 12.9292 30.5804C13.1306 30.575 13.3307 30.6138 13.5155 30.6939C13.7003 30.774 13.8654 30.8936 13.9991 31.0442C14.1329 31.1949 14.232 31.373 14.2897 31.566L16.9018 40.2955C17.0069 40.6468 16.9681 41.0254 16.794 41.348C16.6199 41.6707 16.3247 41.911 15.9735 42.0161C15.6222 42.1211 15.2436 42.0823 14.9209 41.9082C14.5982 41.7341 14.3579 41.4389 14.2529 41.0877L12.69 35.8592C9.14715 44.4657 8.53464 53.9988 10.947 62.9878C17.0065 85.5956 40.3274 99.0628 62.9379 93.0034C70.0928 91.0887 76.6222 87.3352 81.8775 82.1159C82.006 81.9878 82.1585 81.8863 82.3263 81.8171C82.4941 81.748 82.6739 81.7126 82.8553 81.713C83.0368 81.7134 83.2164 81.7495 83.3839 81.8193C83.5514 81.8892 83.7035 81.9913 83.8315 82.1199H83.8325Z" fill="#231F20"/>
<path fill-rule="evenodd" clip-rule="evenodd" d="M75.056 67.5897L71.1225 63.656C70.9112 63.4437 70.7744 63.1685 70.7328 62.8718C70.6911 62.5752 70.7468 62.273 70.8916 62.0107C71.6826 60.5847 72.3096 59.0737 72.7603 57.5066C72.843 57.2182 73.0173 56.9645 73.257 56.784C73.4966 56.6035 73.7885 56.5059 74.0885 56.506H79.6468C80.0063 56.5058 80.3511 56.3629 80.6053 56.1087C80.8595 55.8545 81.0024 55.5098 81.0027 55.1503V52.9072H68.9929C68.6472 57.1897 66.7018 61.185 63.544 64.0982C60.3861 67.0114 56.2472 68.6289 51.9508 68.6289C47.6544 68.6289 43.5154 67.0114 40.3576 64.0982C37.1997 61.185 35.2543 57.1897 34.9086 52.9072H22.8994V55.1495C22.8997 55.5091 23.0427 55.8538 23.297 56.108C23.5512 56.3622 23.8959 56.5051 24.2555 56.5054H29.8134C30.1134 56.5055 30.4051 56.6033 30.6447 56.7838C30.8843 56.9643 31.0586 57.2179 31.1414 57.5062C31.5916 59.0735 32.2185 60.5846 33.0102 62.0103C33.1552 62.2726 33.2109 62.575 33.1689 62.8718C33.1269 63.1686 32.9895 63.4437 32.7774 63.6556L28.8461 67.5897C28.5934 67.8446 28.4517 68.189 28.4517 68.5479C28.4517 68.9067 28.5934 69.2511 28.8461 69.506L33.9699 74.6316C34.2257 74.8834 34.5702 75.0245 34.9291 75.0245C35.288 75.0245 35.6325 74.8834 35.8882 74.6316L39.8199 70.6981C40.0322 70.4857 40.3079 70.3483 40.6052 70.3066C40.9026 70.265 41.2054 70.3213 41.4679 70.4672C42.8935 71.2585 44.4045 71.885 45.9718 72.3345C46.2602 72.4172 46.5138 72.5915 46.6944 72.8312C46.8749 73.0708 46.9725 73.3627 46.9724 73.6627V79.2225C46.973 79.5819 47.116 79.9265 47.3701 80.1806C47.6243 80.4348 47.9688 80.5779 48.3282 80.5785H55.5745C55.9339 80.5779 56.2784 80.4349 56.5326 80.1808C56.7867 79.9266 56.9298 79.5821 56.9304 79.2227V73.6625C56.9303 73.3625 57.0279 73.0707 57.2084 72.8311C57.389 72.5915 57.6426 72.4172 57.931 72.3345C59.4983 71.8851 61.0093 71.2586 62.4348 70.4672C62.6973 70.3213 63.0002 70.2649 63.2976 70.3066C63.595 70.3482 63.8707 70.4857 64.083 70.6981L68.0145 74.6316C68.2703 74.8834 68.6148 75.0245 68.9737 75.0245C69.3327 75.0245 69.6772 74.8834 69.933 74.6316L75.0568 69.506C75.3085 69.2506 75.4495 68.9064 75.4495 68.5479C75.4495 68.1893 75.3085 67.8451 75.0568 67.5897H75.056Z" fill="#00ABEA"/>
</svg>
