<svg width="104" height="104" viewBox="0 0 104 104" fill="none" xmlns="http://www.w3.org/2000/svg">
<path fill-rule="evenodd" clip-rule="evenodd" d="M52 7.4912L60.2895 12.2754L40.9476 23.4444L32.658 18.6582L52 7.4912ZM53.3812 54.5534L72.7238 43.3875V21.0502L53.3812 32.2174V54.5534ZM71.3416 18.6582L63.052 13.8722L43.7105 25.0392L52 29.8254L71.3418 18.6582H71.3416ZM31.2764 21.0502V43.3875L50.6187 54.5534V32.2174L42.3432 27.4391V33.1688C42.3432 33.5352 42.1977 33.8865 41.9387 34.1455C41.6796 34.4046 41.3283 34.5501 40.962 34.5501C40.5957 34.5501 40.2443 34.4046 39.9853 34.1455C39.7263 33.8865 39.5807 33.5352 39.5807 33.1688V25.8444L31.2774 21.0506L31.2764 21.0502ZM29.2045 45.3799L51.3094 58.1437C51.5197 58.2639 51.7577 58.3271 52 58.3271C52.2423 58.3271 52.4803 58.2639 52.6906 58.1437L74.7961 45.3797C75.0062 45.2586 75.1806 45.0843 75.3018 44.8743C75.4231 44.6644 75.4869 44.4262 75.4867 44.1837V18.6582C75.4869 18.4157 75.4231 18.1775 75.3018 17.9676C75.1806 17.7576 75.0062 17.5833 74.7961 17.4622L52.6906 4.69824C52.4806 4.57701 52.2425 4.51318 52 4.51318C51.7575 4.51318 51.5194 4.57701 51.3094 4.69824L29.2039 17.4622C28.9938 17.5833 28.8194 17.7576 28.6982 17.9676C28.5769 18.1775 28.5131 18.4157 28.5133 18.6582V44.1837C28.5131 44.4262 28.5768 44.6645 28.6981 44.8745C28.8193 45.0845 28.9938 45.2588 29.2039 45.3799H29.2045ZM97.9875 56.3753C97.9866 57.1387 97.683 57.8707 97.1431 58.4106C96.6032 58.9504 95.8713 59.2541 95.1078 59.255H86.4547C86.1549 59.2553 85.8634 59.3531 85.6241 59.5336C85.3849 59.7141 85.2108 59.9676 85.1283 60.2558C84.4112 62.7507 83.4134 65.1562 82.1539 67.4261C82.008 67.6885 81.9517 67.9914 81.9934 68.2887C82.035 68.5861 82.1725 68.8618 82.3849 69.074L88.5054 75.1944C89.0448 75.7347 89.3477 76.4669 89.3477 77.2303C89.3477 77.9937 89.0448 78.726 88.5054 79.2662L80.5297 87.2421C79.9884 87.7795 79.2566 88.0811 78.4938 88.0811C77.731 88.0811 76.9992 87.7795 76.4579 87.2421L70.3377 81.1218C70.1254 80.9094 69.8497 80.772 69.5523 80.7303C69.2549 80.6887 68.952 80.7451 68.6896 80.891C66.42 82.1506 64.0144 83.1478 61.5193 83.8634C61.2311 83.9465 60.9778 84.121 60.7973 84.3605C60.6169 84.6001 60.5191 84.8917 60.5187 85.1916V93.8437C60.5177 94.6071 60.214 95.339 59.6741 95.8788C59.1343 96.4186 58.4024 96.7223 57.639 96.7232H46.3613C45.5978 96.7224 44.8658 96.4188 44.326 95.8789C43.7861 95.3391 43.4824 94.6072 43.4815 93.8437V85.1906C43.4814 84.8906 43.3838 84.5988 43.2033 84.3592C43.0228 84.1196 42.7693 83.9452 42.481 83.8623C39.9862 83.1457 37.5807 82.1486 35.3106 80.89C35.0482 80.7441 34.7454 80.6877 34.448 80.7294C34.1507 80.771 33.875 80.9084 33.6627 81.1208L27.5423 87.2421C27.0009 87.7795 26.2691 88.081 25.5063 88.081C24.7435 88.081 24.0117 87.7795 23.4703 87.2421L15.4948 79.266C14.9574 78.7248 14.6559 77.993 14.6559 77.2303C14.6559 76.4676 14.9574 75.7359 15.4948 75.1946L21.6151 69.074C21.8275 68.8618 21.965 68.5861 22.0066 68.2887C22.0483 67.9914 21.992 67.6885 21.8461 67.4261C20.5864 65.1563 19.5885 62.7508 18.8717 60.2558C18.7892 59.9676 18.6151 59.7141 18.3758 59.5336C18.1366 59.3531 17.8451 59.2553 17.5453 59.255H8.8922C8.12876 59.2541 7.39682 58.9505 6.85697 58.4106C6.31711 57.8708 6.01341 57.1389 6.0125 56.3755V52.1182H26.1932C26.5469 58.7235 29.4199 64.9417 34.2207 69.4923C39.0215 74.0429 45.3844 76.5794 51.9992 76.5794C58.614 76.5794 64.9769 74.0429 69.7777 69.4923C74.5785 64.9417 77.4515 58.7235 77.8052 52.1182H97.9875V56.3753ZM99.3688 49.3549C99.5501 49.3549 99.7298 49.3906 99.8973 49.46C100.065 49.5294 100.217 49.6312 100.345 49.7594C100.474 49.8877 100.575 50.0399 100.645 50.2075C100.714 50.3751 100.75 50.5547 100.75 50.7361V56.3751C100.748 57.871 100.153 59.3053 99.0956 60.3631C98.0378 61.421 96.6036 62.016 95.1076 62.0177H87.4809C86.843 64.0252 86.0342 65.9743 85.0635 67.8437L90.4593 73.2399C91.5163 74.2987 92.1101 75.7336 92.1101 77.2297C92.1101 78.7258 91.5163 80.1608 90.4593 81.2195L82.4836 89.1952C81.4234 90.2496 79.989 90.8414 78.4938 90.8414C76.9986 90.8414 75.5642 90.2496 74.504 89.1952L69.1098 83.7994C67.2394 84.7694 65.2897 85.5781 63.2818 86.2166V93.8437C63.2801 95.3397 62.6851 96.774 61.6272 97.8318C60.5694 98.8896 59.1352 99.4846 57.6392 99.4863H46.361C44.865 99.4846 43.4308 98.8896 42.373 97.8318C41.3151 96.774 40.7201 95.3397 40.7184 93.8437V86.2176C38.7108 85.5781 36.7611 84.7694 34.8902 83.8004L29.496 89.1966C28.4359 90.251 27.0015 90.8428 25.5063 90.8428C24.0111 90.8428 22.5767 90.251 21.5166 89.1966L13.5407 81.2201C12.4853 80.1605 11.8927 78.7258 11.8927 77.2302C11.8927 75.7346 12.4853 74.3 13.5407 73.2403L18.9367 67.8437C17.9661 65.9741 17.1574 64.0249 16.5195 62.0173H8.89281C7.3969 62.0156 5.96272 61.4207 4.90487 60.363C3.84702 59.3053 3.25188 57.8712 3.25 56.3753V50.7365C3.25 50.3702 3.39552 50.0189 3.65456 49.7598C3.91359 49.5008 4.26492 49.3553 4.63125 49.3553H27.5397C27.906 49.3553 28.2573 49.5008 28.5164 49.7598C28.7754 50.0189 28.9209 50.3702 28.9209 50.7365C28.9209 53.7672 29.5179 56.7682 30.6777 59.5682C31.8375 62.3682 33.5374 64.9123 35.6804 67.0553C37.8234 69.1983 40.3675 70.8983 43.1675 72.058C45.9675 73.2178 48.9685 73.8148 51.9992 73.8148C55.0299 73.8148 58.0309 73.2178 60.8309 72.058C63.6308 70.8983 66.175 69.1983 68.318 67.0553C70.461 64.9123 72.1609 62.3682 73.3207 59.5682C74.4805 56.7682 75.0774 53.7672 75.0774 50.7365C75.0774 50.3702 75.223 50.0189 75.482 49.7598C75.741 49.5008 76.0924 49.3553 76.4587 49.3553L99.3688 49.3549Z" fill="#231F20"/>
<path fill-rule="evenodd" clip-rule="evenodd" d="M43.4817 85.1906V93.8437C43.4827 94.6071 43.7864 95.339 44.3262 95.8788C44.8661 96.4186 45.598 96.7222 46.3614 96.723H57.6391C58.4025 96.7221 59.1344 96.4184 59.6743 95.8787C60.2141 95.3389 60.5178 94.6071 60.5188 93.8437V85.1906C60.5193 84.8907 60.6171 84.599 60.7975 84.3595C60.978 84.12 61.2313 83.9455 61.5194 83.8623C64.0146 83.1468 66.4202 82.1496 68.6898 80.89C68.9522 80.7441 69.2551 80.6877 69.5525 80.7293C69.8499 80.7709 70.1256 80.9084 70.3379 81.1208L76.4581 87.2411C76.9994 87.7785 77.7312 88.08 78.494 88.08C79.2568 88.08 79.9886 87.7785 80.5299 87.2411L88.5054 79.2656C89.0448 78.7253 89.3477 77.9931 89.3477 77.2297C89.3477 76.4663 89.0448 75.7341 88.5054 75.1938L82.3848 69.0734C82.1725 68.8612 82.035 68.5855 81.9934 68.2881C81.9517 67.9908 82.008 67.6879 82.1539 67.4255C83.4134 65.1556 84.4112 62.7501 85.1283 60.2551C85.2108 59.967 85.3849 59.7135 85.6241 59.533C85.8634 59.3525 86.1549 59.2547 86.4547 59.2543H95.1078C95.8712 59.2535 96.6031 58.95 97.143 58.4102C97.6829 57.8705 97.9867 57.1387 97.9877 56.3753V52.1182H77.8062C77.4525 58.7235 74.5795 64.9417 69.7787 69.4923C64.9779 74.0429 58.615 76.5793 52.0002 76.5793C45.3854 76.5793 39.0225 74.0429 34.2217 69.4923C29.4209 64.9417 26.5479 58.7235 26.1942 52.1182H6.0127V56.3755C6.01361 57.1389 6.31733 57.8709 6.85723 58.4107C7.39714 58.9505 8.12912 59.2542 8.8926 59.255H17.5457C17.8455 59.2553 18.137 59.3531 18.3762 59.5336C18.6155 59.7141 18.7896 59.9676 18.8721 60.2558C19.5889 62.7508 20.5868 65.1563 21.8465 67.4261C21.9923 67.6885 22.0487 67.9914 22.007 68.2887C21.9654 68.5861 21.8279 68.8618 21.6155 69.074L15.495 75.1946C14.9576 75.7358 14.6561 76.4676 14.6561 77.2303C14.6561 77.993 14.9576 78.7248 15.495 79.266L23.4705 87.2421C24.0119 87.7795 24.7437 88.081 25.5065 88.081C26.2693 88.081 27.0011 87.7795 27.5425 87.2421L33.6627 81.1218C33.875 80.9094 34.1506 80.772 34.448 80.7304C34.7454 80.6887 35.0482 80.7451 35.3106 80.891C37.5807 82.1496 39.9862 83.1467 42.4809 83.8633C42.7691 83.9461 43.0226 84.1203 43.2031 84.3597C43.3836 84.5991 43.4814 84.8907 43.4817 85.1906Z" fill="#00ABEA"/>
<path fill-rule="evenodd" clip-rule="evenodd" d="M43.7109 25.0391L52.0009 29.8253L71.3426 18.6581L63.0531 13.8721L43.7109 25.0391Z" fill="#00ABEA"/>
<path fill-rule="evenodd" clip-rule="evenodd" d="M72.7238 21.0503L53.3818 32.2175V54.5535L72.7238 43.3865V21.0503Z" fill="#00ABEA"/>
<path fill-rule="evenodd" clip-rule="evenodd" d="M40.9477 23.4444L60.2897 12.2754L52.0006 7.49121L32.6582 18.6582L40.9477 23.4444Z" fill="#00ABEA"/>
</svg>
