<svg width="104" height="104" viewBox="0 0 104 104" fill="none" xmlns="http://www.w3.org/2000/svg">
<path fill-rule="evenodd" clip-rule="evenodd" d="M36.0464 25.3809C36.0464 25.0145 36.1919 24.6632 36.451 24.4042C36.71 24.1451 37.0613 23.9996 37.4277 23.9996H54.0342C54.4005 23.9996 54.7518 24.1451 55.0108 24.4042C55.2699 24.6632 55.4154 25.0145 55.4154 25.3809C55.4154 25.7472 55.2699 26.0985 55.0108 26.3576C54.7518 26.6166 54.4005 26.7621 54.0342 26.7621H37.4281C37.0619 26.7617 36.7108 26.616 36.4519 26.3571C36.1929 26.0981 36.0473 25.7471 36.0468 25.3809H36.0464ZM36.0464 20.2079C36.0469 19.8417 36.1925 19.4906 36.4515 19.2317C36.7104 18.9727 37.0615 18.8271 37.4277 18.8266H45.7308C46.0971 18.8266 46.4485 18.9722 46.7075 19.2312C46.9665 19.4902 47.1121 19.8416 47.1121 20.2079C47.1121 20.5742 46.9665 20.9255 46.7075 21.1846C46.4485 21.4436 46.0971 21.5891 45.7308 21.5891H37.4281C37.2467 21.5891 37.0671 21.5534 36.8995 21.484C36.7319 21.4146 36.5796 21.3128 36.4514 21.1846C36.3231 21.0563 36.2214 20.9041 36.152 20.7365C36.0826 20.5689 36.0468 20.3893 36.0468 20.2079H36.0464ZM36.0464 44.9814C36.0464 44.6151 36.1919 44.2638 36.451 44.0047C36.71 43.7457 37.0613 43.6002 37.4277 43.6002H54.0342C54.4005 43.6002 54.7518 43.7457 55.0108 44.0047C55.2699 44.2638 55.4154 44.6151 55.4154 44.9814C55.4154 45.3478 55.2699 45.6991 55.0108 45.9581C54.7518 46.2171 54.4005 46.3627 54.0342 46.3627H37.4281C37.0619 46.3622 36.7108 46.2166 36.4519 45.9576C36.1929 45.6987 36.0473 45.3476 36.0468 44.9814H36.0464ZM36.0464 39.8086C36.0469 39.4424 36.1925 39.0914 36.4515 38.8324C36.7104 38.5735 37.0615 38.4278 37.4277 38.4274H45.7308C45.9122 38.4274 46.0918 38.4631 46.2594 38.5325C46.427 38.6019 46.5792 38.7037 46.7075 38.8319C46.8358 38.9602 46.9375 39.1125 47.0069 39.2801C47.0763 39.4476 47.1121 39.6273 47.1121 39.8086C47.1121 39.99 47.0763 40.1696 47.0069 40.3372C46.9375 40.5048 46.8358 40.6571 46.7075 40.7853C46.5792 40.9136 46.427 41.0153 46.2594 41.0848C46.0918 41.1542 45.9122 41.1899 45.7308 41.1899H37.4281C37.2467 41.1899 37.0671 41.1542 36.8995 41.0848C36.7319 41.0153 36.5796 40.9136 36.4514 40.7853C36.3231 40.6571 36.2214 40.5048 36.152 40.3372C36.0826 40.1696 36.0468 39.99 36.0468 39.8086H36.0464ZM29.2417 46.7301H20.5709V38.0597H29.2411V46.7301H29.2417ZM32.0042 48.1114V36.6783C32.0042 36.312 31.8587 35.9606 31.5997 35.7016C31.3406 35.4426 30.9893 35.297 30.623 35.297H19.1893C18.823 35.297 18.4716 35.4426 18.2126 35.7016C17.9536 35.9606 17.808 36.312 17.808 36.6783V48.1118C17.808 48.4781 17.9536 48.8294 18.2126 49.0885C18.4716 49.3475 18.823 49.493 19.1893 49.493H30.623C30.9893 49.493 31.3406 49.3475 31.5997 49.0885C31.8587 48.8294 32.0042 48.4781 32.0042 48.1118V48.1114ZM20.5709 18.459H29.2411V27.1294H20.5709V18.459ZM19.1897 29.8927H30.623C30.8044 29.8927 30.984 29.857 31.1516 29.7875C31.3191 29.7181 31.4714 29.6164 31.5997 29.4881C31.7279 29.3599 31.8297 29.2076 31.8991 29.04C31.9685 28.8724 32.0042 28.6928 32.0042 28.5114V17.0775C32.0042 16.7112 31.8587 16.3599 31.5997 16.1008C31.3406 15.8418 30.9893 15.6963 30.623 15.6963H19.1893C18.823 15.6963 18.4716 15.8418 18.2126 16.1008C17.9536 16.3599 17.808 16.7112 17.808 17.0775V28.5112C17.808 28.8776 17.9536 29.2289 18.2126 29.4879C18.4716 29.747 18.823 29.8925 19.1893 29.8925L19.1897 29.8927ZM22.8606 75.607C22.7118 75.6608 22.5548 75.6883 22.3966 75.6882C22.0701 75.6896 21.7536 75.5752 21.5034 75.3655C21.2532 75.1557 21.0854 74.864 21.0298 74.5422C20.9741 74.2205 21.0343 73.8894 21.1996 73.6078C21.3649 73.3262 21.6246 73.1122 21.9327 73.0039C37.6692 67.4026 51.4216 59.7602 62.865 50.2651L61.8248 50.2078C61.4589 50.1877 61.1161 50.023 60.8716 49.7501C60.6271 49.4771 60.5011 49.1182 60.5213 48.7523C60.5414 48.3865 60.7061 48.0436 60.979 47.7991C61.252 47.5547 61.6109 47.4286 61.9768 47.4488L66.4611 47.6952C66.6501 47.7059 66.8349 47.7553 67.004 47.8403C67.1731 47.9253 67.323 48.0441 67.4444 48.1894C67.5657 48.3346 67.656 48.5033 67.7096 48.6848C67.7631 48.8663 67.7789 49.0569 67.7559 49.2448L67.2092 53.6833C67.168 54.0176 67.006 54.3253 66.7537 54.5486C66.5014 54.7718 66.1762 54.8951 65.8394 54.8953C65.7826 54.8958 65.7259 54.8925 65.6696 54.8854C65.4895 54.8634 65.3156 54.8061 65.1577 54.7168C64.9998 54.6275 64.861 54.5079 64.7494 54.365C64.6377 54.222 64.5554 54.0584 64.507 53.8836C64.4586 53.7088 64.4452 53.5261 64.4675 53.3461L64.5782 52.4341C52.8934 62.1156 38.8778 69.9053 22.8602 75.607H22.8606ZM29.8986 92.1349H25.4419V82.8189L27.67 81.1096L29.8982 82.8189V92.1349H29.8986ZM32.1212 81.0406L28.5115 78.2716C28.2701 78.0868 27.9745 77.9866 27.6705 77.9866C27.3664 77.9866 27.0709 78.0868 26.8294 78.2716L23.2168 81.0406C23.0491 81.1701 22.9133 81.3362 22.8198 81.5264C22.7263 81.7165 22.6777 81.9256 22.6775 82.1375V93.5157C22.6775 93.882 22.8231 94.2334 23.0821 94.4924C23.3411 94.7514 23.6925 94.8969 24.0588 94.8969H31.2809C31.6472 94.8969 31.9986 94.7514 32.2576 94.4924C32.5166 94.2334 32.6622 93.882 32.6622 93.5157V82.1379C32.6621 81.9258 32.6133 81.7167 32.5196 81.5265C32.4259 81.3363 32.2897 81.1702 32.1216 81.041L32.1212 81.0406ZM42.844 92.1349V76.1796L40.6161 74.4701L38.3876 76.1796V92.1349H42.844ZM45.0666 74.402L41.4562 71.632C41.215 71.4469 40.9194 71.3465 40.6153 71.3465C40.3112 71.3465 40.0156 71.4469 39.7744 71.632L36.1646 74.401C35.9964 74.5301 35.8601 74.6962 35.7663 74.8864C35.6725 75.0766 35.6237 75.2858 35.6237 75.4979V93.5151C35.6237 93.8814 35.7692 94.2327 36.0283 94.4918C36.2873 94.7508 36.6386 94.8963 37.005 94.8963H44.2246C44.591 94.8963 44.9423 94.7508 45.2013 94.4918C45.4604 94.2327 45.6059 93.8814 45.6059 93.5151V75.4979C45.6058 75.2858 45.557 75.0766 45.4632 74.8864C45.3694 74.6963 45.2332 74.5302 45.065 74.401L45.0666 74.402ZM55.7916 92.1349V68.5433L53.5637 66.834L51.3336 68.5433V92.1349H55.7916ZM58.0138 66.7645L54.4038 63.9955C54.1625 63.8107 53.867 63.7106 53.563 63.7106C53.259 63.7106 52.9635 63.8107 52.7222 63.9955L49.1104 66.7645C48.9426 66.894 48.8066 67.0602 48.7129 67.2503C48.6192 67.4404 48.5702 67.6495 48.5697 67.8614V93.5161C48.5701 93.8823 48.7158 94.2334 48.9747 94.4923C49.2337 94.7513 49.5847 94.8969 49.9509 94.8974H57.1728C57.5391 94.897 57.8902 94.7513 58.1491 94.4924C58.4081 94.2334 58.5537 93.8823 58.5541 93.5161V67.8614C58.554 67.6494 58.5052 67.4402 58.4114 67.25C58.3176 67.0598 58.1814 66.8937 58.0132 66.7645H58.0138ZM68.7369 92.1349V62.1902L66.5085 60.4809L64.28 62.1902V92.1349H68.7369ZM70.9591 60.4138L67.3492 57.6446C67.1081 57.4594 66.8125 57.3589 66.5084 57.3589C66.2043 57.3589 65.9087 57.4594 65.6675 57.6446L62.058 60.4136C61.8895 60.5422 61.7531 60.708 61.6592 60.898C61.5653 61.088 61.5166 61.2972 61.5169 61.5091V93.5163C61.5169 93.8826 61.6624 94.234 61.9214 94.493C62.1805 94.752 62.5318 94.8976 62.8981 94.8976H70.1184C70.4847 94.8976 70.8361 94.752 71.0951 94.493C71.3541 94.234 71.4997 93.8826 71.4997 93.5163V61.5091C71.4999 61.2972 71.4513 61.0882 71.3575 60.8982C71.2637 60.7082 71.1275 60.5425 70.9591 60.4138ZM85.8504 97.9875C87.0178 97.9862 88.1371 97.5219 88.9625 96.6963C89.7879 95.8708 90.2522 94.7516 90.2534 93.5842V34.5312H63.1173C62.751 34.5312 62.3996 34.3857 62.1406 34.1267C61.8816 33.8677 61.736 33.5163 61.736 33.15V6.0125H18.1489C16.9814 6.01374 15.862 6.47812 15.0365 7.30373C14.211 8.12934 13.7468 9.24874 13.7457 10.4162V93.5835C13.747 94.751 14.2113 95.8703 15.0368 96.6959C15.8622 97.5215 16.9814 97.986 18.1489 97.9875H85.8504ZM64.4992 7.96697L88.2995 31.7675H64.4992V7.96697ZM92.6117 32.1722L64.0945 3.65463C63.8349 3.39613 63.4837 3.25069 63.1173 3.25H18.1489C16.2489 3.25231 14.4274 4.00809 13.084 5.35156C11.7405 6.69503 10.9847 8.5165 10.9824 10.4165V93.5833C10.9845 95.4834 11.7402 97.305 13.0837 98.6485C14.4272 99.9921 16.2488 100.748 18.1489 100.75H85.8504C87.7504 100.748 89.5718 99.9919 90.9152 98.6484C92.2586 97.3049 93.0143 95.4835 93.0165 93.5835V33.1492C93.0164 32.7828 92.8709 32.4314 92.6119 32.1722H92.6117Z" fill="#231F20"/>
<path fill-rule="evenodd" clip-rule="evenodd" d="M25.4424 82.8189V92.1348H29.8987V82.8189L27.6705 81.1096L25.4424 82.8189Z" fill="#00ABEA"/>
<path fill-rule="evenodd" clip-rule="evenodd" d="M51.333 68.5433V92.1348H55.7916V68.5433L53.5631 66.834L51.333 68.5433Z" fill="#00ABEA"/>
<path d="M20.5713 38.0598H29.2415V46.7302H20.5713V38.0598Z" fill="#00ABEA"/>
<path d="M20.5713 18.459H29.2415V27.1294H20.5713V18.459Z" fill="#00ABEA"/>
<path fill-rule="evenodd" clip-rule="evenodd" d="M64.5 7.96704V31.7676H88.3004L64.5 7.96704Z" fill="#00ABEA"/>
</svg>
