<svg width="104" height="104" viewBox="0 0 104 104" fill="none" xmlns="http://www.w3.org/2000/svg">
<path fill-rule="evenodd" clip-rule="evenodd" d="M66.2073 81.4733C67.6266 80.1139 69.2569 78.9935 71.0346 78.1557C71.4081 79.984 71.9573 81.7719 72.6747 83.4946C73.1523 84.6444 73.7567 85.7373 74.4768 86.753C71.2899 85.7813 68.4299 83.9554 66.2073 81.4733ZM64.494 59.3898C62.5665 62.3481 61.542 65.8035 61.5457 69.3344C61.5493 72.8652 62.5808 76.3185 64.5143 79.2729C66.2827 77.622 68.325 76.2916 70.5498 75.3412C70.0231 71.3561 70.0211 67.3191 70.5439 63.3335C68.3137 62.3803 66.2668 61.0457 64.4948 59.3898H64.494ZM69.3355 35.313L73.3911 38.4234V49.3241C70.3568 50.2959 67.5836 51.9455 65.2813 54.1479V38.4228L69.3353 35.3124L69.3355 35.313ZM86.8578 83.4942C87.4526 82.0741 87.9292 80.6073 88.2826 79.1088C89.7911 80.0343 91.1574 81.1738 92.3386 82.4918C90.2781 84.4628 87.7834 85.9223 85.0555 86.7528C85.7758 85.7371 86.3803 84.6441 86.8578 83.4942ZM78.7796 76.4403C77.0426 76.4385 75.3141 76.6831 73.6458 77.1667C74.8645 83.3364 77.4119 87.2185 79.7661 87.2187C82.0359 87.2187 84.4856 83.6088 85.7502 77.822C83.5398 76.9086 81.1712 76.4392 78.7796 76.4407V76.4403ZM79.7663 51.4139C82.0414 51.4139 84.4992 55.0437 85.7602 60.8592C81.9096 62.4452 77.6342 62.6749 73.6358 61.5106C74.8517 55.3171 77.4056 51.4153 79.7663 51.4153V51.4139ZM74.477 51.8798C73.7568 52.8956 73.1523 53.9885 72.6747 55.1384C71.952 56.8751 71.3994 58.6778 71.0247 60.5212C69.2409 59.6788 67.6058 58.5522 66.1832 57.1855C68.41 54.6912 71.2789 52.8561 74.477 51.8802V51.8798ZM86.8578 55.1384C87.4585 56.5719 87.9383 58.0531 88.2923 59.5665C89.8077 58.6367 91.1786 57.4897 92.3613 56.1623C90.2963 54.1803 87.793 52.713 85.0547 51.8794C85.7756 52.8947 86.3801 53.9878 86.857 55.138L86.8578 55.1384ZM72.9156 69.3153C72.9135 67.6262 73.0111 65.9384 73.2076 64.2607C77.5113 65.4336 82.0756 65.216 86.2483 63.6392C86.743 67.4245 86.7404 71.2583 86.2404 75.043C82.0725 73.4681 77.5138 73.2492 73.2141 74.4174C73.0135 72.7241 72.9139 71.0204 72.9162 69.3153H72.9156ZM94.198 80.4262C96.6515 77.2479 97.984 73.3468 97.9877 69.3316C97.9914 65.3165 96.666 61.413 94.2183 58.2301C92.6725 59.9137 90.8625 61.3339 88.8596 62.4348C89.5573 67.0128 89.5547 71.6702 88.8517 76.2473C90.849 77.3415 92.655 78.7534 94.1988 80.4276L94.198 80.4262ZM79.7663 48.3308C78.5556 48.3309 77.347 48.4359 76.1544 48.6447V37.7419C76.1543 37.5298 76.1055 37.3206 76.0116 37.1304C75.9177 36.9402 75.7814 36.7741 75.6131 36.6451L70.176 32.4761C69.9349 32.2908 69.6393 32.1904 69.3353 32.1904C69.0312 32.1904 68.7356 32.2908 68.4945 32.4761L63.0593 36.6445C62.8911 36.7735 62.7547 36.9396 62.6609 37.1298C62.5671 37.32 62.5182 37.5292 62.5182 37.7413V57.3792C59.8509 61.2381 58.5541 65.8796 58.8348 70.5621C59.1156 75.2446 60.9578 79.6978 64.067 83.2103C67.1763 86.7227 71.3731 89.0916 75.987 89.9384C80.6008 90.7852 85.3654 90.0611 89.5193 87.8817C93.6732 85.7024 96.9768 82.1935 98.9021 77.9159C100.827 73.6383 101.263 68.8388 100.14 64.2843C99.0171 59.7298 96.3998 55.6832 92.7065 52.7911C89.0132 49.899 84.4571 48.3283 79.7661 48.33L79.7663 48.3308ZM51.221 35.7777C50.3708 35.7778 49.5396 35.5257 48.8327 35.0533C48.1257 34.581 47.5747 33.9096 47.2493 33.1241C46.9239 32.3386 46.8388 31.4743 47.0046 30.6404C47.1705 29.8065 47.5799 29.0405 48.1811 28.4393C48.7823 27.8381 49.5483 27.4287 50.3822 27.2628C51.2161 27.097 52.0804 27.1821 52.8659 27.5075C53.6514 27.8329 54.3228 28.3839 54.7951 29.0909C55.2675 29.7978 55.5196 30.629 55.5195 31.4792C55.5182 32.6188 55.0649 33.7114 54.259 34.5172C53.4532 35.3231 52.3606 35.7764 51.221 35.7777ZM31.1504 29.713C30.3004 29.7129 29.4695 29.4606 28.7628 28.9883C28.0562 28.5159 27.5055 27.8445 27.1803 27.0592C26.8552 26.2738 26.7703 25.4096 26.9363 24.576C27.1023 23.7423 27.5117 22.9766 28.1129 22.3757C28.7141 21.7748 29.48 21.3656 30.3137 21.2C31.1474 21.0343 32.0115 21.1196 32.7968 21.4451C33.582 21.7706 34.2531 22.3216 34.7252 23.0284C35.1973 23.7353 35.4491 24.5663 35.4489 25.4163C35.4472 26.5557 34.9937 27.6478 34.1879 28.4533C33.3821 29.2588 32.2898 29.7118 31.1504 29.713ZM10.3124 44.0616C9.46241 44.0618 8.6314 43.81 7.9245 43.3379C7.2176 42.8659 6.66656 42.1948 6.34107 41.4095C6.01557 40.6243 5.93024 39.7602 6.09587 38.9264C6.26149 38.0927 6.67063 37.3268 7.27155 36.7256C7.87247 36.1244 8.63817 35.7149 9.47182 35.5489C10.3055 35.3829 11.1696 35.4678 11.955 35.7929C12.7404 36.118 13.4118 36.6688 13.8842 37.3754C14.3565 38.0821 14.6088 38.913 14.6089 39.763C14.6077 40.9023 14.1547 41.9947 13.3493 42.8005C12.5438 43.6063 11.4517 44.0598 10.3124 44.0616ZM69.3269 16.4638C70.1769 16.464 71.0078 16.7162 71.7145 17.1886C72.4211 17.661 72.9718 18.3324 73.2969 19.1178C73.622 19.9032 73.7069 20.7673 73.5409 21.6009C73.3748 22.4346 72.9653 23.2003 72.3642 23.8012C71.763 24.4021 70.9971 24.8112 70.1634 24.9768C69.3297 25.1425 68.4656 25.0572 67.6803 24.7317C66.8951 24.4062 66.224 23.8552 65.7519 23.1483C65.2799 22.4415 65.028 21.6105 65.0282 20.7605C65.0297 19.621 65.4832 18.5287 66.2891 17.7232C67.095 16.9177 68.1875 16.4647 69.3269 16.4638ZM64.2649 25.6769C65.4864 26.9324 67.1312 27.6887 68.8794 27.7989C70.6276 27.909 72.3543 27.3652 73.7238 26.273C75.0933 25.1808 76.0077 23.6184 76.2893 21.8895C76.5709 20.1606 76.1994 18.3888 75.2472 16.9185C74.295 15.4483 72.8301 14.3846 71.1373 13.9344C69.4445 13.4842 67.6447 13.6795 66.0879 14.4825C64.5312 15.2855 63.3286 16.6387 62.7141 18.279C62.0996 19.9194 62.117 21.7296 62.763 23.3578L56.8317 27.1985C56.0453 26.1662 54.9895 25.3707 53.7804 24.8994C52.5713 24.4281 51.2556 24.2993 49.9781 24.5272C48.7005 24.755 47.5105 25.3307 46.5388 26.191C45.5672 27.0512 44.8515 28.1627 44.4705 29.4032L38.1592 26.2609C38.2745 25.3049 38.193 24.3354 37.9198 23.4121C37.6466 22.4887 37.1874 21.631 36.5704 20.8917C35.9534 20.1524 35.1918 19.547 34.3322 19.1129C33.4727 18.6788 32.5335 18.4252 31.5723 18.3675C30.6111 18.3098 29.6482 18.4493 28.7429 18.7774C27.8376 19.1056 27.009 19.6155 26.3081 20.2757C25.6071 20.9359 25.0486 21.7325 24.6669 22.6166C24.2851 23.5006 24.0883 24.4534 24.0884 25.4163C24.0876 26.4378 24.3105 27.447 24.7416 28.373L15.5722 35.0593C14.4041 33.7551 12.7929 32.9317 11.0516 32.7491C9.3104 32.5665 7.56345 33.0377 6.1502 34.0711C4.73695 35.1045 3.75832 36.6264 3.40445 38.3411C3.05058 40.0557 3.34675 41.8407 4.2354 43.3492C5.12405 44.8577 6.54174 45.982 8.21301 46.5036C9.88428 47.0253 11.6898 46.907 13.2788 46.1719C14.8677 45.4367 16.1267 44.1371 16.811 42.5256C17.4953 40.9141 17.5561 39.1057 16.9816 37.4519L26.3707 30.6051C27.1506 31.3255 28.0831 31.8604 29.0986 32.17C30.1141 32.4796 31.1865 32.5558 32.2356 32.393C33.2847 32.2302 34.2835 31.8325 35.1574 31.2297C36.0314 30.6269 36.7579 29.8345 37.2828 28.9117L44.2168 32.3648C44.3372 33.3233 44.6531 34.247 45.1448 35.0785C45.6365 35.9101 46.2936 36.6319 47.0755 37.1993C47.8573 37.7667 48.7473 38.1676 49.6904 38.3773C50.6334 38.5869 51.6095 38.6007 52.5581 38.418C53.5067 38.2352 54.4077 37.8598 55.2054 37.3148C56.0031 36.7698 56.6804 36.067 57.1955 35.2497C57.7107 34.4324 58.0526 33.5182 58.2002 32.5634C58.3477 31.6087 58.2978 30.6339 58.0535 29.6992L64.2647 25.6773L64.2649 25.6769ZM14.9055 76.2601H6.79532V57.8716L10.8511 54.761L14.9051 57.8716V76.2601H14.9055ZM17.1279 56.0933L11.6923 51.9229C11.4507 51.7385 11.1552 51.6386 10.8513 51.6386C10.5474 51.6386 10.2519 51.7385 10.0104 51.9229L4.57273 56.0933C4.40458 56.2224 4.26837 56.3885 4.17462 56.5787C4.08086 56.7689 4.03207 56.9781 4.03201 57.1901V77.6414C4.03201 78.0077 4.17753 78.359 4.43657 78.6181C4.6956 78.8771 5.04693 79.0226 5.41326 79.0226H16.2867C16.6531 79.0226 17.0044 78.8771 17.2634 78.6181C17.5225 78.359 17.668 78.0077 17.668 77.6414V57.1905C17.668 56.9785 17.6193 56.7694 17.5256 56.5792C17.4319 56.389 17.2958 56.2229 17.1277 56.0937L17.1279 56.0933ZM34.401 76.2601H26.2913V43.9429L30.3454 40.8323L34.401 43.9429V76.2601ZM36.6238 42.167C36.7922 42.2956 36.9286 42.4614 37.0224 42.6514C37.1162 42.8413 37.1649 43.0504 37.1647 43.2623V77.642C37.1647 78.0083 37.0192 78.3596 36.7602 78.6187C36.5011 78.8777 36.1498 79.0232 35.7835 79.0232H24.9096C24.5433 79.0232 24.1919 78.8777 23.9329 78.6187C23.6739 78.3596 23.5284 78.0083 23.5284 77.642V43.2625C23.5281 43.0505 23.5768 42.8414 23.6707 42.6514C23.7645 42.4614 23.901 42.2956 24.0695 42.167L29.5047 37.9967C29.7458 37.8114 30.0414 37.7109 30.3455 37.7109C30.6496 37.7109 30.9452 37.8114 31.1864 37.9967L36.6238 42.167ZM55.0775 76.2601H46.9676V48.4076L51.0217 45.2968L55.0773 48.4046L55.0775 76.2601ZM57.2999 46.6295C57.4681 46.7583 57.6044 46.9241 57.6982 47.1141C57.792 47.304 57.8408 47.5131 57.8408 47.7249V77.642C57.8408 78.0083 57.6953 78.3596 57.4363 78.6187C57.1772 78.8777 56.8259 79.0232 56.4596 79.0232H45.5859C45.2196 79.0232 44.8682 78.8777 44.6092 78.6187C44.3502 78.3596 44.2047 78.0083 44.2047 77.642V47.7249C44.2047 47.513 44.2535 47.304 44.3473 47.114C44.4412 46.9241 44.5775 46.7582 44.7458 46.6295L50.181 42.4591C50.4222 42.274 50.7178 42.1737 51.0218 42.1737C51.3259 42.1737 51.6214 42.274 51.8627 42.4591L57.2999 46.6295Z" fill="#231F20"/>
<path fill-rule="evenodd" clip-rule="evenodd" d="M14.9057 76.2601V57.8716L10.8517 54.761L6.7959 57.8716V76.2601H14.9057Z" fill="#00ABEA"/>
<path fill-rule="evenodd" clip-rule="evenodd" d="M46.9678 48.4078V76.2603H55.0775V48.406L51.0219 45.2974L46.9678 48.4078Z" fill="#00ABEA"/>
<path fill-rule="evenodd" clip-rule="evenodd" d="M46.9229 31.4796C46.9229 32.3299 47.175 33.161 47.6473 33.8679C48.1197 34.5748 48.791 35.1258 49.5765 35.4512C50.362 35.7765 51.2264 35.8616 52.0602 35.6958C52.8941 35.5299 53.6601 35.1205 54.2613 34.5193C54.8624 33.9181 55.2719 33.1522 55.4377 32.3183C55.6036 31.4844 55.5185 30.6201 55.1931 29.8346C54.8677 29.0491 54.3168 28.3777 53.6098 27.9054C52.9029 27.433 52.0718 27.1809 51.2216 27.1809C50.0819 27.1822 48.9892 27.6355 48.1833 28.4414C47.3775 29.2473 46.9241 30.3399 46.9229 31.4796Z" fill="#00ABEA"/>
<path fill-rule="evenodd" clip-rule="evenodd" d="M31.1503 29.7131C32.0003 29.7129 32.8312 29.4607 33.5378 28.9883C34.2445 28.5158 34.7951 27.8445 35.1202 27.0591C35.4453 26.2737 35.5302 25.4096 35.3642 24.576C35.1982 23.7423 34.7887 22.9766 34.1875 22.3757C33.5863 21.7748 32.8204 21.3657 31.9867 21.2001C31.153 21.0344 30.2889 21.1197 29.5037 21.4452C28.7184 21.7707 28.0474 22.3217 27.5753 23.0286C27.1032 23.7354 26.8514 24.5664 26.8516 25.4164C26.8532 26.5558 27.3067 27.6481 28.1125 28.4536C28.9184 29.2591 30.0109 29.712 31.1503 29.7131Z" fill="#00ABEA"/>
<path fill-rule="evenodd" clip-rule="evenodd" d="M14.6091 39.7632C14.609 38.9132 14.3567 38.0823 13.8843 37.3756C13.4119 36.669 12.7406 36.1182 11.9552 35.7931C11.1698 35.468 10.3057 35.3831 9.472 35.5491C8.63835 35.7151 7.87265 36.1246 7.27173 36.7258C6.67081 37.327 6.26167 38.0929 6.09605 38.9266C5.93042 39.7604 6.01575 40.6245 6.34125 41.4097C6.66674 42.195 7.21778 42.866 7.92468 43.3381C8.63158 43.8102 9.46259 44.062 10.3126 44.0617C11.452 44.0601 12.5442 43.6067 13.3496 42.8008C14.1551 41.995 14.608 40.9026 14.6091 39.7632Z" fill="#00ABEA"/>
<path fill-rule="evenodd" clip-rule="evenodd" d="M65.0283 20.7606C65.0281 21.6106 65.28 22.4416 65.7521 23.1485C66.2242 23.8553 66.8953 24.4064 67.6805 24.7318C68.4658 25.0573 69.3299 25.1426 70.1636 24.9769C70.9974 24.8112 71.7632 24.4021 72.3644 23.8011C72.9656 23.2002 73.3751 22.4344 73.541 21.6008C73.707 20.7671 73.622 19.903 73.2969 19.1176C72.9717 18.3322 72.421 17.6609 71.7143 17.1885C71.0076 16.7162 70.1767 16.464 69.3266 16.4639C68.1874 16.4653 67.0951 16.9183 66.2894 17.7238C65.4836 18.5292 65.0301 19.6213 65.0283 20.7606Z" fill="#00ABEA"/>
<path fill-rule="evenodd" clip-rule="evenodd" d="M70.5433 63.3328C68.3132 62.3796 66.2662 61.0451 64.4942 59.3892C62.5668 62.3474 61.5423 65.8029 61.5459 69.3337C61.5495 72.8645 62.581 76.3179 64.5146 79.2723C66.283 77.6214 68.3253 76.291 70.55 75.3406C70.0233 71.3554 70.0213 67.3185 70.5441 63.3328H70.5433Z" fill="#00ABEA"/>
<path fill-rule="evenodd" clip-rule="evenodd" d="M79.7663 51.4136C77.4055 51.4136 74.8516 55.3158 73.6357 61.5089C77.6341 62.6731 81.9095 62.4434 85.7601 60.8575C84.4989 55.0434 82.0425 51.4136 79.7663 51.4136Z" fill="#00ABEA"/>
<path fill-rule="evenodd" clip-rule="evenodd" d="M88.8595 62.435C89.5572 67.0129 89.5545 71.6703 88.8516 76.2475C90.8488 77.3417 92.6548 78.7535 94.1986 80.4278C96.6521 77.2494 97.9847 73.3484 97.9883 69.3332C97.992 65.318 96.6666 61.4145 94.2189 58.2317C92.6728 59.9148 90.8626 61.3345 88.8595 62.435Z" fill="#00ABEA"/>
<path fill-rule="evenodd" clip-rule="evenodd" d="M85.7499 77.8216C81.9055 76.2399 77.6382 76.0089 73.6455 77.1663C74.8643 83.3361 77.4116 87.2182 79.7659 87.2184C82.0356 87.2184 84.4853 83.6084 85.7499 77.8216Z" fill="#00ABEA"/>
</svg>
