<svg width="104" height="104" viewBox="0 0 104 104" fill="none" xmlns="http://www.w3.org/2000/svg">
<path fill-rule="evenodd" clip-rule="evenodd" d="M53.5058 64.2781V62.3263C53.6163 62.3163 53.7266 62.3086 53.835 62.2948C56.3637 61.9649 58.347 60.554 59.1445 58.5191C59.8431 56.7369 59.4977 54.8204 58.1951 53.2582C56.4779 51.1936 54.4885 50.8956 52.7339 50.633C51.9303 50.5398 51.1382 50.3659 50.3695 50.114C48.9273 49.5239 48.1431 48.5905 48.1589 47.4831C48.1768 46.3342 49.0669 45.237 50.3754 44.7515C53.103 43.7407 55.655 44.9566 56.7227 47.7791C56.7854 47.9509 56.8816 48.1086 57.0057 48.243C57.1298 48.3774 57.2794 48.4858 57.4457 48.562C57.6121 48.6382 57.7919 48.6806 57.9747 48.6867C58.1576 48.6929 58.3398 48.6627 58.5109 48.5979C58.682 48.5331 58.8385 48.4351 58.9714 48.3093C59.1043 48.1836 59.2109 48.0327 59.2851 47.8655C59.3593 47.6983 59.3995 47.518 59.4035 47.3351C59.4074 47.1522 59.3751 46.9703 59.3082 46.8C58.2485 44.0032 56.0615 42.2035 53.5056 41.7554V39.7215C53.5056 39.3552 53.36 39.0038 53.101 38.7448C52.842 38.4858 52.4906 38.3402 52.1243 38.3402C51.758 38.3402 51.4067 38.4858 51.1476 38.7448C50.8886 39.0038 50.7431 39.3552 50.7431 39.7215V41.7879C50.2914 41.8757 49.8477 42.0005 49.4165 42.161C47.0088 43.053 45.4318 45.1254 45.396 47.4407C45.3625 49.7063 46.8429 51.6642 49.3533 52.6827C49.3672 52.687 49.3808 52.6923 49.3939 52.6985C50.345 53.0217 51.3273 53.2446 52.3248 53.3636C53.8943 53.5984 55.0264 53.7682 56.0729 55.0253C56.7188 55.8009 56.8959 56.6832 56.5723 57.5104C56.148 58.5938 54.9914 59.3576 53.4775 59.555C50.843 59.8965 47.8881 58.967 47.2329 56.1149C47.1922 55.9381 47.1171 55.7711 47.0118 55.6234C46.9066 55.4756 46.7733 55.35 46.6195 55.2538C46.4657 55.1576 46.2945 55.0926 46.1156 55.0626C45.9367 55.0325 45.7537 55.038 45.5769 55.0787C45.4001 55.1194 45.2331 55.1945 45.0853 55.2997C44.9376 55.405 44.812 55.5383 44.7158 55.692C44.6196 55.8458 44.5546 56.017 44.5245 56.1959C44.4945 56.3748 44.4999 56.5579 44.5406 56.7346C45.3009 60.0405 47.9217 61.7457 50.7421 62.2314V64.2779C50.7421 64.6442 50.8876 64.9955 51.1466 65.2546C51.4056 65.5136 51.757 65.6591 52.1233 65.6591C52.4896 65.6591 52.841 65.5136 53.1 65.2546C53.359 64.9955 53.5046 64.6442 53.5046 64.2779L53.5058 64.2781ZM38.4587 65.5413C35.3261 62.4085 33.3767 58.2865 32.9426 53.8775C32.5086 49.4685 33.6166 45.0455 36.0781 41.3619C38.5395 37.6783 42.202 34.9622 46.4416 33.6762C50.6811 32.3903 55.2354 32.6141 59.3284 34.3096C63.4214 36.0051 66.7999 39.0673 68.8883 42.9745C70.9767 46.8816 71.6457 51.3921 70.7813 55.7372C69.917 60.0824 67.5728 63.9934 64.1481 66.8039C60.7235 69.6145 56.4303 71.1506 52 71.1506C49.4842 71.1575 46.9919 70.6653 44.6676 69.7025C42.3433 68.7396 40.2331 67.3253 38.4591 65.5413H38.4587ZM52 73.9137C46.9301 73.9139 42.0171 72.1561 38.098 68.9399C34.1788 65.7237 31.4961 61.2481 30.5069 56.2757C29.5177 51.3033 30.2832 46.1417 32.673 41.6704C35.0628 37.1991 38.9291 33.6948 43.613 31.7546C48.2969 29.8143 53.5086 29.5581 58.3602 31.0297C63.2118 32.5013 67.403 35.6096 70.2198 39.825C73.0366 44.0403 74.3046 49.1019 73.8077 54.1474C73.3109 59.1929 71.08 63.91 67.4952 67.495C65.4651 69.5363 63.0503 71.1547 60.3905 72.2565C57.7308 73.3582 54.8789 73.9215 52 73.9137ZM50.3577 85.4598C33.1017 84.6229 19.2359 70.6708 18.5283 53.3812H24.7569C25.1232 53.3812 25.4745 53.2357 25.7336 52.9767C25.9926 52.7177 26.1381 52.3663 26.1381 52C26.1381 51.6337 25.9926 51.2823 25.7336 51.0233C25.4745 50.7643 25.1232 50.6187 24.7569 50.6187H18.528C19.2345 33.3294 33.1017 19.3781 50.3577 18.5404V24.7577C50.3577 25.124 50.5033 25.4753 50.7623 25.7344C51.0213 25.9934 51.3727 26.1389 51.739 26.1389C52.1053 26.1389 52.4566 25.9934 52.7157 25.7344C52.9747 25.4753 53.1202 25.124 53.1202 24.7577V18.5185C70.617 19.0968 84.7588 33.1551 85.4693 50.6183H79.2423C78.876 50.6183 78.5247 50.7639 78.2656 51.0229C78.0066 51.2819 77.8611 51.6333 77.8611 51.9996C77.8611 52.3659 78.0066 52.7173 78.2656 52.9763C78.5247 53.2353 78.876 53.3808 79.2423 53.3808H85.4689C84.758 70.8439 70.6152 84.9024 53.1202 85.4787V79.2427C53.1202 78.8764 52.9747 78.5251 52.7157 78.266C52.4566 78.007 52.1053 77.8615 51.739 77.8615C51.3727 77.8615 51.0213 78.007 50.7623 78.266C50.5033 78.5251 50.3577 78.8764 50.3577 79.2427V85.4598ZM53.1202 88.2446V94.5228C53.1202 94.8891 52.9747 95.2405 52.7157 95.4995C52.4566 95.7585 52.1053 95.904 51.739 95.904C51.3727 95.904 51.0213 95.7585 50.7623 95.4995C50.5033 95.2405 50.3577 94.8891 50.3577 94.5228V88.2249C31.578 87.3844 16.4734 72.1947 15.7647 53.3812H9.47659C9.11026 53.3812 8.75894 53.2357 8.4999 52.9767C8.24087 52.7177 8.09534 52.3663 8.09534 52C8.09534 51.6337 8.24087 51.2823 8.4999 51.0233C8.75894 50.7643 9.11026 50.6187 9.47659 50.6187H15.7647C16.4734 31.8051 31.5778 16.6156 50.3575 15.7749V9.477C50.3575 9.11067 50.5031 8.75934 50.7621 8.50031C51.0211 8.24127 51.3725 8.09575 51.7388 8.09575C52.1051 8.09575 52.4564 8.24127 52.7155 8.50031C52.9745 8.75934 53.12 9.11067 53.12 9.477V15.7552C72.1405 16.3335 87.5194 31.6316 88.2338 50.6183H94.5228C94.8891 50.6183 95.2405 50.7639 95.4995 51.0229C95.7585 51.2819 95.904 51.6333 95.904 51.9996C95.904 52.3659 95.7585 52.7173 95.4995 52.9763C95.2405 53.2353 94.8891 53.3808 94.5228 53.3808H88.2345C87.5205 72.3675 72.139 87.6639 53.1206 88.244L53.1202 88.2446ZM25.2606 97.9875H11.2531C9.86369 97.986 8.53159 97.4334 7.54911 96.4509C6.56662 95.4684 6.01401 94.1363 6.0125 92.7469V78.7394C6.0125 78.373 5.86698 78.0217 5.60794 77.7627C5.34891 77.5036 4.99758 77.3581 4.63125 77.3581C4.26492 77.3581 3.91359 77.5036 3.65456 77.7627C3.39552 78.0217 3.25 78.373 3.25 78.7394V92.7469C3.25242 94.8687 4.09638 96.9029 5.59673 98.4033C7.09709 99.9036 9.13131 100.748 11.2531 100.75H25.2606C25.627 100.75 25.9783 100.604 26.2373 100.345C26.4963 100.086 26.6419 99.7351 26.6419 99.3688C26.6419 99.0024 26.4963 98.6511 26.2373 98.3921C25.9783 98.133 25.627 97.9875 25.2606 97.9875ZM99.3688 77.3579C99.0024 77.3579 98.6511 77.5034 98.3921 77.7625C98.133 78.0215 97.9875 78.3728 97.9875 78.7392V92.7469C97.986 94.1363 97.4334 95.4685 96.451 96.451C95.4685 97.4334 94.1363 97.986 92.7469 97.9875H78.7392C78.3728 97.9875 78.0215 98.133 77.7625 98.3921C77.5034 98.6511 77.3579 99.0024 77.3579 99.3688C77.3579 99.7351 77.5034 100.086 77.7625 100.345C78.0215 100.604 78.3728 100.75 78.7392 100.75H92.7469C94.8687 100.748 96.903 99.9038 98.4034 98.4034C99.9038 96.903 100.748 94.8687 100.75 92.7469V78.7396C100.75 78.3733 100.604 78.0222 100.345 77.7632C100.086 77.5043 99.735 77.3587 99.3688 77.3583V77.3579ZM92.7469 3.25H78.7392C78.5578 3.25 78.3782 3.28573 78.2106 3.35514C78.043 3.42456 77.8907 3.5263 77.7625 3.65456C77.6342 3.78282 77.5325 3.93509 77.4631 4.10267C77.3937 4.27025 77.3579 4.44986 77.3579 4.63125C77.3579 4.81264 77.3937 4.99225 77.4631 5.15983C77.5325 5.32741 77.6342 5.47968 77.7625 5.60794C77.8907 5.7362 78.043 5.83794 78.2106 5.90736C78.3782 5.97677 78.5578 6.0125 78.7392 6.0125H92.7469C94.1364 6.01384 95.4686 6.56641 96.4511 7.54893C97.4336 8.53145 97.9862 9.86364 97.9875 11.2531V25.2602C97.9875 25.6265 98.133 25.9779 98.3921 26.2369C98.6511 26.4959 99.0024 26.6415 99.3688 26.6415C99.7351 26.6415 100.086 26.4959 100.345 26.2369C100.604 25.9779 100.75 25.6265 100.75 25.2602V11.2531C100.748 9.13132 99.9035 7.09713 98.4032 5.59679C96.9029 4.09645 94.8687 3.25247 92.7469 3.25ZM3.25 25.2604C3.25 25.6268 3.39552 25.9781 3.65456 26.2371C3.91359 26.4961 4.26492 26.6417 4.63125 26.6417C4.99758 26.6417 5.34891 26.4961 5.60794 26.2371C5.86698 25.9781 6.0125 25.6268 6.0125 25.2604V11.2531C6.01406 9.8637 6.5667 8.53164 7.54917 7.54917C8.53164 6.5667 9.8637 6.01406 11.2531 6.0125H25.2604C25.6268 6.0125 25.9781 5.86698 26.2371 5.60794C26.4961 5.34891 26.6417 4.99758 26.6417 4.63125C26.6417 4.26492 26.4961 3.91359 26.2371 3.65456C25.9781 3.39552 25.6268 3.25 25.2604 3.25H11.2531C9.13127 3.25231 7.09699 4.09624 5.59661 5.59661C4.09624 7.09699 3.25231 9.13127 3.25 11.2531V25.2604Z" fill="#231F20"/>
<path fill-rule="evenodd" clip-rule="evenodd" d="M53.1207 85.4794C70.6157 84.9032 84.7589 70.8447 85.4694 53.3816H79.2428C79.0614 53.3816 78.8818 53.3459 78.7142 53.2765C78.5466 53.2071 78.3944 53.1053 78.2661 52.9771C78.1378 52.8488 78.0361 52.6965 77.9667 52.529C77.8973 52.3614 77.8615 52.1818 77.8615 52.0004C77.8615 51.819 77.8973 51.6394 77.9667 51.4718C78.0361 51.3042 78.1378 51.152 78.2661 51.0237C78.3944 50.8954 78.5466 50.7937 78.7142 50.7243C78.8818 50.6549 79.0614 50.6191 79.2428 50.6191H85.4702C84.7593 33.1559 70.6179 19.0976 53.1211 18.5193V24.7579C53.1211 25.1242 52.9756 25.4755 52.7166 25.7346C52.4575 25.9936 52.1062 26.1391 51.7399 26.1391C51.3735 26.1391 51.0222 25.9936 50.7632 25.7346C50.5041 25.4755 50.3586 25.1242 50.3586 24.7579V18.54C33.1027 19.3769 19.2356 33.3289 18.5289 50.6183H24.7569C25.1233 50.6183 25.4746 50.7638 25.7336 51.0229C25.9927 51.2819 26.1382 51.6332 26.1382 51.9996C26.1382 52.3659 25.9927 52.7172 25.7336 52.9763C25.4746 53.2353 25.1233 53.3808 24.7569 53.3808H18.5283C19.235 70.6702 33.1017 84.6214 50.358 85.4591V79.2427C50.358 78.8764 50.5035 78.525 50.7626 78.266C51.0216 78.007 51.3729 77.8614 51.7393 77.8614C52.1056 77.8614 52.4569 78.007 52.7159 78.266C52.975 78.525 53.1205 78.8764 53.1205 79.2427V85.4786L53.1207 85.4794ZM67.495 36.5046C71.0801 40.0895 73.3111 44.8066 73.8081 49.8522C74.305 54.8977 73.0371 59.9594 70.2204 64.1749C67.4037 68.3904 63.2125 71.4988 58.3609 72.9705C53.5093 74.4422 48.2974 74.1862 43.6134 72.246C38.9294 70.3058 35.0631 66.8015 32.6732 62.3302C30.2833 57.8589 29.5177 52.6972 30.5068 47.7247C31.496 42.7522 34.1787 38.2765 38.0979 35.0603C42.017 31.844 46.9301 30.0861 52.0001 30.0862C57.8113 30.0891 63.384 32.3974 67.495 36.5046Z" fill="#00ABEA"/>
</svg>
