<svg width="104" height="104" viewBox="0 0 104 104" fill="none" xmlns="http://www.w3.org/2000/svg">
<path fill-rule="evenodd" clip-rule="evenodd" d="M51.9996 74.8391C47.4815 74.8389 43.065 73.499 39.3084 70.9888C35.5518 68.4785 32.624 64.9107 30.8951 60.7365C29.1662 56.5623 28.7139 51.9691 29.5954 47.5379C30.4769 43.1066 32.6526 39.0363 35.8474 35.8415C39.0422 32.6467 43.1125 30.4711 47.5438 29.5896C51.9751 28.7082 56.5682 29.1605 60.7424 30.8894C64.9166 32.6184 68.4844 35.5462 70.9946 39.3028C73.5048 43.0594 74.8447 47.476 74.8449 51.9941C74.8378 58.0508 72.4286 63.8575 68.1458 68.1402C63.863 72.423 58.0564 74.8321 51.9996 74.8391ZM51.9996 26.3873C46.9349 26.3875 41.9839 27.8895 37.7728 30.7035C33.5617 33.5174 30.2796 37.5169 28.3416 42.1962C26.4036 46.8755 25.8966 52.0244 26.8849 56.9918C27.8731 61.9592 30.3122 66.522 33.8936 70.1032C37.4751 73.6843 42.0381 76.1231 47.0055 77.111C51.973 78.0989 57.1218 77.5916 61.801 75.6532C66.4801 73.7148 70.4794 70.4325 73.2931 66.2212C76.1067 62.0099 77.6084 57.0588 77.6082 51.9941C77.6001 45.2049 74.8994 38.6962 70.0985 33.8957C65.2977 29.0952 58.7888 26.395 51.9996 26.3873ZM19.5094 53.6859H13.2586C12.8923 53.6859 12.5409 53.8314 12.2819 54.0905C12.0229 54.3495 11.8773 54.7008 11.8773 55.0672V56.6007L6.45188 52L11.8767 47.3992V48.9328C11.8767 49.2991 12.0223 49.6504 12.2813 49.9095C12.5403 50.1685 12.8917 50.314 13.258 50.314H19.5094V53.6859ZM22.2725 55.0672V48.9328C22.2725 48.5664 22.1269 48.2151 21.8679 47.9561C21.6089 47.6971 21.2575 47.5515 20.8912 47.5515H14.6396V45.6686C14.64 45.2942 14.5332 44.9275 14.3319 44.6119C14.1305 44.2964 13.8429 44.045 13.5032 43.8877C13.1635 43.7303 12.7859 43.6735 12.4149 43.724C12.044 43.7745 11.6952 43.9301 11.41 44.1725L3.94186 50.504C3.72473 50.6881 3.55028 50.9173 3.43064 51.1757C3.311 51.4341 3.24902 51.7154 3.24902 52.0001C3.24902 52.2848 3.311 52.5661 3.43064 52.8244C3.55028 53.0828 3.72473 53.312 3.94186 53.4962L11.411 59.8278C11.7629 60.1287 12.2106 60.2943 12.6736 60.295C12.9598 60.294 13.2425 60.2317 13.5025 60.1122C13.8436 59.9567 14.1324 59.7059 14.3342 59.39C14.536 59.0742 14.6422 58.7068 14.64 58.332V56.4484H20.891C21.2573 56.4484 21.6087 56.3029 21.8677 56.0438C22.1267 55.7848 22.2725 55.4335 22.2725 55.0672ZM51.9996 97.5485L47.399 92.1226H48.9324C49.1139 92.1228 49.2936 92.0872 49.4612 92.0179C49.6289 91.9485 49.7812 91.8468 49.9095 91.7185C50.0378 91.5902 50.1396 91.4379 50.2089 91.2702C50.2783 91.1025 50.3139 90.9228 50.3137 90.7414V84.4906H53.6855V90.7412C53.6855 91.1075 53.8311 91.4588 54.0901 91.7179C54.3491 91.9769 54.7005 92.1224 55.0668 92.1224H56.6006L51.9996 97.5485ZM58.3312 89.3597H56.448V83.1092C56.4478 82.7429 56.3022 82.3918 56.0432 82.1328C55.7842 81.8738 55.433 81.7282 55.0668 81.7279H48.9324C48.566 81.728 48.2146 81.8735 47.9554 82.1325C47.6962 82.3915 47.5505 82.7428 47.5502 83.1092V89.3597H45.6674C45.293 89.3593 44.9264 89.4661 44.6108 89.6675C44.2952 89.8689 44.0438 90.1564 43.8864 90.4961C43.7291 90.8358 43.6722 91.2134 43.7226 91.5844C43.7731 91.9553 43.9286 92.3041 44.171 92.5894L50.5008 100.056C50.6847 100.273 50.9139 100.448 51.1724 100.568C51.4308 100.688 51.7123 100.75 51.9972 100.751C52.2822 100.751 52.5637 100.689 52.8223 100.569C53.0809 100.45 53.3103 100.275 53.4946 100.058L59.8264 92.5892C60.0687 92.3039 60.2243 91.9552 60.2747 91.5843C60.3252 91.2134 60.2684 90.8358 60.1111 90.4961C59.9538 90.1565 59.7025 89.869 59.387 89.6676C59.0715 89.4661 58.7049 89.3593 58.3306 89.3595L58.3312 89.3597ZM92.1225 56.6005V55.0672C92.1225 54.7008 91.977 54.3495 91.7179 54.0905C91.4589 53.8314 91.1076 53.6859 90.7412 53.6859H84.4907V50.314H90.7414C90.9229 50.3142 91.1026 50.2786 91.2702 50.2092C91.4379 50.1399 91.5902 50.0381 91.7185 49.9098C91.8468 49.7815 91.9485 49.6292 92.0179 49.4616C92.0872 49.2939 92.1228 49.1142 92.1227 48.9328V47.3992L97.5484 52L92.1225 56.6007V56.6005ZM100.057 50.5037L92.5907 44.1723C92.3052 43.93 91.9564 43.7745 91.5854 43.7241C91.2144 43.6736 90.8367 43.7304 90.4969 43.8877C90.1572 44.045 89.8695 44.2963 89.668 44.6118C89.4664 44.9273 89.3593 45.2939 89.3594 45.6684V47.5513H83.1096C82.7433 47.5517 82.392 47.6972 82.1329 47.9562C81.8737 48.2151 81.7278 48.5662 81.7272 48.9326V55.067C81.7272 55.4333 81.8727 55.7846 82.1317 56.0436C82.3908 56.3027 82.7421 56.4482 83.1084 56.4482H89.3592V58.3312C89.357 58.706 89.4632 59.0734 89.665 59.3893C89.8668 59.7051 90.1556 59.9559 90.4967 60.1114C90.7564 60.2318 91.0393 60.2942 91.3256 60.2942C91.789 60.2944 92.2372 60.1287 92.5889 59.827L100.058 53.4952C100.275 53.3109 100.449 53.0817 100.569 52.8234C100.688 52.565 100.75 52.2837 100.75 51.9991C100.75 51.7144 100.688 51.4331 100.569 51.1747C100.449 50.9164 100.275 50.6872 100.058 50.5029L100.057 50.5037ZM26.8812 20.3756L19.7921 19.7913L20.3765 26.8803L21.4608 25.7968C21.5889 25.6686 21.7411 25.5668 21.9086 25.4974C22.0761 25.4279 22.2556 25.3922 22.4369 25.3922C22.6182 25.3922 22.7977 25.4279 22.9652 25.4974C23.1327 25.5668 23.2849 25.6686 23.413 25.7968L27.8342 30.216L30.2163 27.8338L25.7965 23.4132C25.5376 23.1539 25.3923 22.8025 25.3923 22.4361C25.3923 22.0698 25.5376 21.7184 25.7965 21.4591L26.88 20.3756H26.8812ZM17.7643 28.8328C17.7947 29.2058 17.9312 29.5623 18.1577 29.8603C18.3843 30.1583 18.6913 30.3852 19.0426 30.5143C19.3939 30.6434 19.7748 30.6692 20.1404 30.5888C20.5059 30.5084 20.8408 30.325 21.1055 30.0604L22.436 28.7281L26.8572 33.1473C26.9855 33.2756 27.1377 33.3773 27.3053 33.4468C27.4729 33.5162 27.6525 33.5519 27.8339 33.5519C28.0153 33.5519 28.1949 33.5162 28.3625 33.4468C28.5301 33.3773 28.6824 33.2756 28.8107 33.1473L33.1472 28.8112C33.2758 28.6831 33.3778 28.5308 33.4474 28.3631C33.517 28.1955 33.5528 28.0157 33.5528 27.8342C33.5528 27.6527 33.517 27.4729 33.4474 27.3052C33.3778 27.1376 33.2758 26.9853 33.1472 26.8572L28.7288 22.4359L30.0609 21.1057C30.3252 20.841 30.5083 20.5062 30.5886 20.1409C30.669 19.7755 30.6432 19.3948 30.5143 19.0436C30.3854 18.6925 30.1588 18.3855 29.8612 18.1588C29.5636 17.9322 29.2074 17.7954 28.8346 17.7645L19.0769 16.9609C18.793 16.9373 18.5074 16.9758 18.2399 17.0738C17.9725 17.1718 17.7296 17.3269 17.5281 17.5283C17.3267 17.7297 17.1716 17.9726 17.0735 18.2401C16.9755 18.5076 16.937 18.7932 16.9605 19.0771L17.7643 28.8328ZM25.7977 80.5847L30.2163 76.1657L27.8342 73.7833L23.4128 78.2031C23.1536 78.4619 22.8022 78.6073 22.4359 78.6073C22.0696 78.6073 21.7182 78.4619 21.459 78.2031L20.3755 77.1196L19.7911 84.2087L26.8812 83.6245L25.7965 82.5388C25.6681 82.4105 25.5663 82.2582 25.4968 82.0906C25.4273 81.9229 25.3916 81.7432 25.3916 81.5618C25.3916 81.3803 25.4273 81.2006 25.4968 81.033C25.5663 80.8653 25.6681 80.713 25.7965 80.5847H25.7977ZM28.8111 70.8526C28.5518 70.5938 28.2003 70.4484 27.8339 70.4484C27.4675 70.4484 27.1161 70.5938 26.8568 70.8526L22.436 75.2716L21.1063 73.9393C20.8416 73.6749 20.5068 73.4916 20.1414 73.4112C19.776 73.3307 19.3953 73.3564 19.044 73.4853C18.6927 73.6141 18.3856 73.8406 18.1588 74.1382C17.9321 74.4359 17.7951 74.7921 17.7641 75.165L16.9605 84.9229C16.9382 85.1924 16.9718 85.4637 17.0593 85.7197C17.1468 85.9756 17.2862 86.2107 17.469 86.4102C17.6517 86.6096 17.8737 86.7692 18.121 86.8787C18.3683 86.9883 18.6356 87.0455 18.9061 87.0468C18.9615 87.0468 19.0186 87.0447 19.0759 87.0388L28.8316 86.2355C29.2046 86.205 29.5611 86.0684 29.8591 85.8418C30.157 85.6153 30.3839 85.3082 30.513 84.9569C30.642 84.6056 30.6679 84.2246 30.5875 83.8591C30.5071 83.4935 30.3238 83.1586 30.0593 82.8939L28.7278 81.5636L33.1464 77.1426C33.2747 77.0143 33.3765 76.862 33.4459 76.6944C33.5154 76.5268 33.5512 76.3471 33.5512 76.1656C33.5512 75.9842 33.5154 75.8045 33.4459 75.6369C33.3765 75.4693 33.2747 75.317 33.1464 75.1887L28.8105 70.8526H28.8111ZM77.1189 83.6241L84.2079 84.2083L83.6245 77.1192L82.5382 78.2031C82.41 78.3314 82.2577 78.4332 82.0901 78.5026C81.9225 78.5721 81.7428 78.6078 81.5614 78.6078C81.38 78.6078 81.2003 78.5721 81.0327 78.5026C80.8651 78.4332 80.7129 78.3314 80.5846 78.2031L76.1658 73.7839L73.784 76.1657L78.2027 80.5868C78.4616 80.846 78.6069 81.1974 78.6069 81.5637C78.6069 81.93 78.4616 82.2814 78.2027 82.5406L77.1191 83.6241H77.1189ZM86.2359 75.167C86.2052 74.794 86.0685 74.4375 85.8419 74.1396C85.6152 73.8417 85.3081 73.6149 84.9567 73.4858C84.6054 73.3568 84.2245 73.3309 83.8589 73.4113C83.4933 73.4916 83.1584 73.6748 82.8935 73.9393L81.5643 75.2716L77.1428 70.8526C76.8836 70.5935 76.5321 70.448 76.1656 70.448C75.7991 70.448 75.4476 70.5935 75.1884 70.8526L70.8531 75.1887C70.7245 75.3169 70.6225 75.4691 70.5528 75.6368C70.4832 75.8045 70.4474 75.9842 70.4474 76.1657C70.4474 76.3473 70.4832 76.527 70.5528 76.6947C70.6225 76.8624 70.7245 77.0146 70.8531 77.1428L75.2723 81.5636L73.9402 82.8939C73.6756 83.1584 73.4922 83.4932 73.4117 83.8586C73.3311 84.224 73.3568 84.6048 73.4856 84.9561C73.6144 85.3074 73.8411 85.6145 74.1387 85.8412C74.4364 86.0678 74.7927 86.2047 75.1656 86.2355L84.9239 87.0388C84.9802 87.0443 85.0366 87.047 85.0931 87.0468C85.3636 87.0454 85.6309 86.9882 85.8783 86.8786C86.1256 86.7691 86.3476 86.6096 86.5303 86.4101C86.7131 86.2107 86.8526 85.9756 86.9401 85.7197C87.0277 85.4637 87.0614 85.1925 87.0391 84.9229L86.2367 75.167H86.2359ZM78.2027 23.4132L73.784 27.8342L76.1658 30.2164L80.5864 25.7968C80.8457 25.5378 81.1972 25.3922 81.5637 25.3922C81.9303 25.3922 82.2818 25.5378 82.5411 25.7968L83.6247 26.8803L84.2081 19.7913L77.1191 20.3756L78.2027 21.4591C78.4617 21.7183 78.6071 22.0697 78.6071 22.4361C78.6071 22.8025 78.4617 23.154 78.2027 23.4132ZM75.1892 33.1473C75.3174 33.2756 75.4697 33.3773 75.6373 33.4468C75.8049 33.5162 75.9845 33.5519 76.1659 33.5519C76.3473 33.5519 76.5269 33.5162 76.6945 33.4468C76.8621 33.3773 77.0144 33.2756 77.1426 33.1473L81.5645 28.7281L82.8939 30.0604C83.1585 30.3249 83.4933 30.5081 83.8586 30.5886C84.224 30.669 84.6047 30.6433 84.9559 30.5145C85.3072 30.3856 85.6142 30.159 85.8409 29.8614C86.0676 29.5638 86.2044 29.2076 86.2353 28.8348L87.0387 19.0771C87.0622 18.7932 87.0236 18.5077 86.9256 18.2402C86.8275 17.9728 86.6724 17.73 86.471 17.5286C86.2696 17.3272 86.0268 17.1721 85.7593 17.074C85.4919 16.976 85.2064 16.9374 84.9225 16.9609L75.165 17.7643C74.7921 17.795 74.4358 17.9318 74.1381 18.1585C73.8404 18.3851 73.6138 18.6922 73.4849 19.0435C73.356 19.3947 73.3303 19.7755 73.4108 20.1409C73.4913 20.5063 73.6746 20.8411 73.9391 21.1057L75.2714 22.4357L70.8531 26.8572C70.7245 26.9853 70.6225 27.1376 70.5528 27.3052C70.4832 27.4729 70.4474 27.6527 70.4474 27.8342C70.4474 28.0157 70.4832 28.1955 70.5528 28.3631C70.6225 28.5308 70.7245 28.6831 70.8531 28.8112L75.1898 33.1473H75.1892ZM51.9996 6.45102L56.6002 11.8769H55.0668C54.7005 11.8769 54.3491 12.0224 54.0901 12.2814C53.8311 12.5405 53.6855 12.8918 53.6855 13.2581V19.5087H50.3137V13.2583C50.3137 12.892 50.1681 12.5407 49.9091 12.2817C49.6501 12.0226 49.2988 11.8771 48.9324 11.8771H47.3994L51.9996 6.45102ZM45.6684 14.6398H47.5512V20.8908C47.5512 21.2571 47.6967 21.6084 47.9557 21.8675C48.2148 22.1265 48.5661 22.272 48.9324 22.272H55.0668C55.4331 22.272 55.7845 22.1265 56.0435 21.8675C56.3025 21.6084 56.448 21.2571 56.448 20.8908V14.6398H58.3308C58.705 14.64 59.0713 14.533 59.3867 14.3317C59.702 14.1303 59.9532 13.8429 60.1104 13.5034C60.2677 13.1639 60.3245 12.7865 60.2742 12.4158C60.2239 12.045 60.0685 11.6964 59.8264 11.4111L53.4956 3.94283C53.3115 3.7257 53.0823 3.55126 52.8239 3.43161C52.5656 3.31197 52.2843 3.25 51.9996 3.25C51.7149 3.25 51.4336 3.31197 51.1753 3.43161C50.9169 3.55126 50.6877 3.7257 50.5036 3.94283L44.1728 11.4109C43.9302 11.6961 43.7743 12.0448 43.7237 12.4158C43.673 12.7868 43.7297 13.1646 43.8871 13.5044C44.0444 13.8442 44.2958 14.1317 44.6115 14.3331C44.9272 14.5345 45.294 14.6412 45.6684 14.6406V14.6398ZM57.4027 52.9215C55.8996 51.1137 54.1743 50.8552 52.652 50.6262C51.9875 50.5498 51.3322 50.4069 50.6962 50.1997C49.5652 49.7359 48.9519 49.0175 48.9633 48.1768C48.9771 47.2925 49.6742 46.4437 50.7 46.0628C52.8869 45.2518 54.9364 46.2306 55.7962 48.4985C55.93 48.8353 56.1908 49.106 56.5223 49.2522C56.8538 49.3985 57.2295 49.4087 57.5685 49.2805C57.9074 49.1523 58.1824 48.8961 58.3342 48.567C58.4859 48.238 58.5023 47.8625 58.3798 47.5215C57.4777 45.1413 55.6443 43.5898 53.4845 43.1496V41.6083C53.4845 41.242 53.3389 40.8906 53.0799 40.6316C52.8209 40.3726 52.4695 40.227 52.1032 40.227C51.7369 40.227 51.3855 40.3726 51.1265 40.6316C50.8675 40.8906 50.722 41.242 50.722 41.6083V43.1815C50.3883 43.2565 50.06 43.3534 49.739 43.4716C47.6194 44.2573 46.2327 46.0886 46.2004 48.1355C46.1707 50.1428 47.4715 51.873 49.6799 52.7696C49.6937 52.7737 49.708 52.7794 49.7234 52.7855C50.5407 53.0641 51.3849 53.2566 52.2421 53.3599C53.5704 53.5592 54.4495 53.6894 55.2815 54.69C55.7751 55.2841 55.914 55.9552 55.6674 56.579C55.3441 57.4082 54.4068 58.0198 53.2222 58.174C51.0868 58.452 48.6986 57.71 48.1756 55.4283C48.0934 55.0711 47.8727 54.7611 47.5619 54.5666C47.2512 54.3721 46.8759 54.309 46.5187 54.3912C46.1614 54.4733 45.8515 54.6941 45.657 55.0048C45.4625 55.3155 45.3993 55.6908 45.4815 56.048C46.1315 58.8745 48.33 60.3665 50.7222 60.8282V62.3817C50.7222 62.748 50.8677 63.0993 51.1267 63.3584C51.3857 63.6174 51.7371 63.7629 52.1034 63.7629C52.4697 63.7629 52.8211 63.6174 53.0801 63.3584C53.3391 63.0993 53.4847 62.748 53.4847 62.3817V60.9232C53.5163 60.9192 53.548 60.9172 53.5793 60.9133C55.7934 60.6251 57.5368 59.3817 58.2414 57.5857C58.8508 56.0283 58.5394 54.2853 57.4025 52.9217L57.4027 52.9215ZM51.9996 68.8709C55.3376 68.8708 58.6005 67.881 61.3759 66.0264C64.1513 64.1719 66.3144 61.536 67.5917 58.4521C68.869 55.3682 69.2032 51.9748 68.5519 48.701C67.9006 45.4272 66.2932 42.42 63.9329 40.0598C61.5725 37.6995 58.5653 36.0922 55.2915 35.4411C52.0177 34.7899 48.6243 35.1242 45.5404 36.4016C42.4566 37.679 39.8208 39.8422 37.9663 42.6177C36.1119 45.3931 35.1221 48.6561 35.1222 51.9941C35.1272 56.4687 36.9069 60.7585 40.071 63.9225C43.2351 67.0865 47.525 68.8661 51.9996 68.8709ZM51.9996 32.3537C48.1151 32.3536 44.3177 33.5053 41.0878 35.6633C37.8578 37.8213 35.3404 40.8887 33.8537 44.4775C32.367 48.0663 31.978 52.0153 32.7357 55.8252C33.4935 59.6351 35.364 63.1348 38.1107 65.8816C40.8574 68.6285 44.357 70.4991 48.1669 71.257C51.9767 72.0149 55.9258 71.626 59.5147 70.1395C63.1035 68.653 66.171 66.1356 68.3291 62.9058C70.4873 59.6759 71.6392 55.8786 71.6392 51.9941C71.6333 46.7871 69.5623 41.795 65.8804 38.113C62.1986 34.431 57.2066 32.3598 51.9996 32.3537Z" fill="#231F20"/>
<path fill-rule="evenodd" clip-rule="evenodd" d="M51.9995 68.8708C55.3375 68.8707 58.6005 67.8808 61.3758 66.0263C64.1512 64.1718 66.3143 61.5359 67.5916 58.452C68.8689 55.3681 69.2031 51.9747 68.5518 48.7009C67.9005 45.4271 66.2931 42.4199 63.9328 40.0597C61.5724 37.6994 58.5652 36.0921 55.2914 35.4409C52.0176 34.7898 48.6242 35.1241 45.5403 36.4015C42.4565 37.6789 39.8207 39.8421 37.9662 42.6176C36.1118 45.393 35.122 48.656 35.1221 51.994C35.1271 56.4685 36.9069 60.7584 40.0709 63.9224C43.235 67.0863 47.5249 68.866 51.9995 68.8708ZM50.7221 62.3814V60.8279C48.3301 60.3662 46.1314 58.8742 45.4814 56.0477C45.3993 55.6905 45.4624 55.3152 45.6569 55.0045C45.8514 54.6937 46.1613 54.473 46.5186 54.3908C46.8759 54.3086 47.2511 54.3718 47.5618 54.5663C47.8726 54.7608 48.0933 55.0707 48.1755 55.428C48.6985 57.7097 51.0867 58.4517 53.2221 58.1736C54.4068 58.0195 55.344 57.4078 55.6674 56.5787C55.9131 55.9551 55.7742 55.284 55.2814 54.6896C54.4486 53.689 53.5703 53.5588 52.2421 53.3596C51.3848 53.2562 50.5406 53.0637 49.7233 52.7851L49.6798 52.7693C47.4715 51.8731 46.1706 50.1425 46.2003 48.1352C46.2326 46.0883 47.6193 44.2569 49.7389 43.4712C50.0599 43.3531 50.3882 43.2562 50.7219 43.1812V41.608C50.7219 41.2416 50.8674 40.8903 51.1264 40.6313C51.3855 40.3722 51.7368 40.2267 52.1031 40.2267C52.4694 40.2267 52.8208 40.3722 53.0798 40.6313C53.3388 40.8903 53.4844 41.2416 53.4844 41.608V43.1493C55.6436 43.5895 57.477 45.1409 58.3797 47.5211C58.5022 47.8622 58.4858 48.2377 58.3341 48.5667C58.1823 48.8958 57.9073 49.152 57.5684 49.2802C57.2294 49.4083 56.8537 49.3982 56.5222 49.2519C56.1907 49.1056 55.9299 48.8349 55.7961 48.4982C54.9363 46.2303 52.8868 45.2514 50.6999 46.0625C49.6739 46.4434 48.977 47.2922 48.9632 48.1764C48.9518 49.0172 49.5651 49.7356 50.6961 50.1993C51.3321 50.4066 51.9874 50.5495 52.652 50.6259C54.1742 50.8548 55.8985 51.1134 57.4026 52.9212C58.5401 54.2848 58.8513 56.0278 58.2416 57.5852C57.5369 59.3812 55.7939 60.6245 53.5794 60.9128L53.4848 60.9227V62.3812C53.4848 62.7475 53.3392 63.0988 53.0802 63.3578C52.8212 63.6169 52.4699 63.7624 52.1035 63.7624C51.7372 63.7624 51.3859 63.6169 51.1268 63.3578C50.8678 63.0988 50.7223 62.7475 50.7223 62.3812L50.7221 62.3814Z" fill="#00ABEA"/>
<path fill-rule="evenodd" clip-rule="evenodd" d="M19.5096 53.6859V50.314H13.2585C12.8921 50.314 12.5408 50.1685 12.2818 49.9095C12.0227 49.6504 11.8772 49.2991 11.8772 48.9328V47.3992L6.45215 51.9999L11.877 56.6007V55.0671C11.877 54.8858 11.9127 54.7061 11.9821 54.5386C12.0516 54.371 12.1533 54.2187 12.2816 54.0904C12.4098 53.9622 12.5621 53.8604 12.7297 53.791C12.8973 53.7216 13.0769 53.6859 13.2583 53.6859H19.5096Z" fill="#00ABEA"/>
<path fill-rule="evenodd" clip-rule="evenodd" d="M84.4912 50.314V53.6859H90.7416C91.1079 53.6859 91.4592 53.8314 91.7183 54.0904C91.9773 54.3495 92.1228 54.7008 92.1228 55.0671V56.6007L97.5489 51.9999L92.123 47.3992V48.9328C92.1232 49.1142 92.0876 49.2939 92.0182 49.4615C91.9489 49.6292 91.8471 49.7815 91.7188 49.9098C91.5905 50.0381 91.4382 50.1398 91.2705 50.2092C91.1029 50.2786 90.9232 50.3142 90.7418 50.314H84.4912Z" fill="#00ABEA"/>
<path fill-rule="evenodd" clip-rule="evenodd" d="M53.6854 90.741V84.4905H50.3135V90.7412C50.3137 90.9227 50.2781 91.1024 50.2087 91.27C50.1394 91.4377 50.0376 91.5901 49.9093 91.7184C49.781 91.8466 49.6287 91.9484 49.461 92.0177C49.2934 92.0871 49.1137 92.1227 48.9322 92.1225H47.3984L51.9994 97.5484L56.6 92.1225H55.0662C54.6999 92.1224 54.3487 91.9768 54.0897 91.7177C53.8308 91.4587 53.6853 91.1073 53.6854 90.741Z" fill="#00ABEA"/>
<path fill-rule="evenodd" clip-rule="evenodd" d="M50.3136 19.509H53.6855V13.2585C53.6855 12.8921 53.8311 12.5408 54.0901 12.2818C54.3491 12.0227 54.7004 11.8772 55.0668 11.8772H56.6006L51.9996 6.45093L47.3994 11.8768H48.9324C49.2987 11.8768 49.6501 12.0223 49.9091 12.2814C50.1681 12.5404 50.3136 12.8917 50.3136 13.2581V19.509Z" fill="#00ABEA"/>
</svg>
