<svg width="104" height="104" viewBox="0 0 104 104" fill="none" xmlns="http://www.w3.org/2000/svg">
<path fill-rule="evenodd" clip-rule="evenodd" d="M38.86 77.5035C35.1002 77.5031 31.4249 76.3879 28.2989 74.2987C25.1729 72.2096 22.7366 69.2404 21.2981 65.7666C19.8596 62.2929 19.4834 58.4705 20.2172 54.783C20.9509 51.0955 22.7617 47.7083 25.4204 45.0499C28.0792 42.3914 31.4666 40.581 35.1542 39.8477C38.8418 39.1144 42.6641 39.491 46.1377 40.9299C49.6113 42.3689 52.5802 44.8055 54.6689 47.9318C56.7577 51.058 57.8726 54.7334 57.8726 58.4933C57.8666 63.5337 55.8615 68.3659 52.2972 71.9298C48.7329 75.4937 43.9004 77.4982 38.86 77.5035ZM100.565 18.1175C100.381 17.7999 100.08 17.5678 99.7256 17.4722L95.9384 16.4576C95.5843 16.3628 95.207 16.4126 94.8896 16.596C94.5722 16.7794 94.3406 17.0814 94.2458 17.4355C94.1511 17.7896 94.2009 18.1669 94.3843 18.4843C94.5677 18.8017 94.8697 19.0333 95.2238 19.1281L95.7883 19.2778L54.3495 43.2047C50.5995 39.3945 45.5762 37.1009 40.2409 36.7628V15.1291L40.7578 15.6483C41.0169 15.9077 41.3685 16.0535 41.7351 16.0537C42.1017 16.0539 42.4534 15.9084 42.7127 15.6493C42.9721 15.3902 43.1179 15.0387 43.1181 14.6721C43.1183 14.3055 42.9728 13.9538 42.7137 13.6945L39.8371 10.8168C39.5777 10.558 39.2262 10.4126 38.8597 10.4126C38.4933 10.4126 38.1418 10.558 37.8824 10.8168L35.112 13.589C34.9837 13.7173 34.8819 13.8696 34.8125 14.0371C34.743 14.2047 34.7073 14.3844 34.7072 14.5658C34.7072 14.7472 34.7429 14.9268 34.8123 15.0944C34.8817 15.262 34.9834 15.4143 35.1117 15.5426C35.2399 15.6709 35.3922 15.7727 35.5598 15.8421C35.7274 15.9116 35.907 15.9473 36.0884 15.9473C36.2698 15.9474 36.4494 15.9117 36.617 15.8423C36.7846 15.7729 36.9369 15.6712 37.0652 15.5429L37.478 15.1283V36.7611C34.5245 36.9496 31.6406 37.7387 29.0026 39.0803C26.3646 40.4218 24.0282 42.2875 22.1362 44.5632L7.96717 30.3956H8.69984C9.06617 30.3956 9.4175 30.2501 9.67653 29.991C9.93557 29.732 10.0811 29.3807 10.0811 29.0144C10.0811 28.648 9.93557 28.2967 9.67653 28.0377C9.4175 27.7786 9.06617 27.6331 8.69984 27.6331H4.63125C4.26502 27.6334 3.91388 27.7791 3.65492 28.038C3.39595 28.297 3.25032 28.6481 3.25 29.0144V32.9359C3.25 33.1173 3.28573 33.2969 3.35514 33.4645C3.42456 33.632 3.5263 33.7843 3.65456 33.9126C3.78282 34.0408 3.93509 34.1426 4.10267 34.212C4.27025 34.2814 4.44986 34.3171 4.63125 34.3171C4.81264 34.3171 4.99225 34.2814 5.15983 34.212C5.32741 34.1426 5.47968 34.0408 5.60794 33.9126C5.7362 33.7843 5.83794 33.632 5.90736 33.4645C5.97677 33.2969 6.0125 33.1173 6.0125 32.9359V32.3497L20.4858 46.8227C18.4569 50.0089 17.2936 53.6689 17.1104 57.4418C16.9273 61.2147 17.7306 64.9702 19.4413 68.3379L13.6975 74.0833L13.6906 73.3037C13.6865 72.9399 13.5392 72.5924 13.2807 72.3363C13.0222 72.0803 12.6732 71.9365 12.3094 71.9359H12.2954C12.1139 71.9377 11.9346 71.9752 11.7677 72.0463C11.6007 72.1174 11.4494 72.2207 11.3224 72.3503C11.1954 72.4799 11.0952 72.6332 11.0275 72.8015C10.9597 72.9699 10.9258 73.1499 10.9277 73.3314L10.9694 77.3989C10.9728 77.763 11.1199 78.1109 11.3786 78.3671C11.6372 78.6233 11.9866 78.767 12.3506 78.767H12.3644L16.2847 78.7274C16.6511 78.7254 17.0016 78.5781 17.2593 78.3176C17.5169 78.0572 17.6606 77.7051 17.6587 77.3388C17.6567 76.9725 17.5093 76.6219 17.2489 76.3643C16.9885 76.1066 16.6364 75.9629 16.2701 75.9649C16.2669 75.9649 16.2602 75.9649 16.2563 75.9649L15.7198 75.9708L20.8995 70.7876C22.7657 73.5154 25.2284 75.7825 28.1009 77.4172C30.9734 79.0518 34.1803 80.011 37.4786 80.2222V88.8708L36.9616 88.3516C36.8333 88.2233 36.681 88.1215 36.5134 88.052C36.3457 87.9826 36.166 87.9468 35.9846 87.9468C35.8031 87.9468 35.6234 87.9825 35.4557 88.0519C35.2881 88.1214 35.1357 88.2231 35.0074 88.3514C34.879 88.4797 34.7772 88.6321 34.7078 88.7997C34.6383 88.9674 34.6026 89.1471 34.6025 89.3285C34.6025 89.51 34.6382 89.6897 34.7077 89.8574C34.7771 90.025 34.8789 90.1774 35.0072 90.3057L37.8828 93.1826C38.011 93.3111 38.1633 93.413 38.3309 93.4824C38.4986 93.5519 38.6783 93.5876 38.8598 93.5874C39.0413 93.5872 39.221 93.5512 39.3885 93.4814C39.556 93.4117 39.7081 93.3095 39.8361 93.1807L42.6095 90.4095C42.8686 90.1503 43.0142 89.7988 43.0141 89.4324C43.014 89.0659 42.8684 88.7144 42.6092 88.4553C42.35 88.1962 41.9986 88.0507 41.6321 88.0508C41.2656 88.0508 40.9142 88.1965 40.6551 88.4556L40.2409 88.8702V80.2214C43.1975 80.0336 46.0845 79.2436 48.7249 77.9C51.3652 76.5564 53.7032 74.6874 55.5953 72.4077L79.106 85.9806L78.7252 86.0578C78.3708 86.1338 78.0606 86.3459 77.8612 86.6486C77.6619 86.9512 77.5895 87.3201 77.6597 87.6756C77.7298 88.0312 77.9369 88.3449 78.2362 88.5492C78.5355 88.7534 78.9031 88.8319 79.2598 88.7676L83.2512 87.9801C83.6108 87.9088 83.9273 87.6975 84.1312 87.3927C84.335 87.088 84.4094 86.7147 84.3381 86.3551L83.5796 82.5094C83.5444 82.3314 83.4744 82.1621 83.3738 82.0112C83.2731 81.8602 83.1437 81.7306 82.9929 81.6297C82.8421 81.5288 82.6729 81.4585 82.495 81.423C82.3171 81.3874 82.1339 81.3873 81.956 81.4225C81.778 81.4578 81.6087 81.5278 81.4578 81.6284C81.3068 81.7291 81.1772 81.8585 81.0763 82.0093C80.9754 82.1601 80.9051 82.3292 80.8696 82.5072C80.834 82.6851 80.8339 82.8682 80.8691 83.0462L81.0396 83.9067L57.2343 70.1636C59.6219 66.4148 60.8021 62.0239 60.6157 57.5833C60.4294 53.1427 58.8855 48.8662 56.1923 45.3306L97.1703 21.6718L96.9812 22.3787C96.8865 22.7324 96.9361 23.1093 97.1191 23.4265C97.3022 23.7437 97.6037 23.9752 97.9574 24.0701C98.0746 24.1011 98.1953 24.117 98.3166 24.1174C98.6207 24.1174 98.9163 24.0169 99.1575 23.8317C99.3988 23.6465 99.5721 23.3869 99.6507 23.0931L100.703 19.1654C100.798 18.8116 100.748 18.4346 100.565 18.1175ZM43.5788 59.1327C42.2559 57.5483 40.6967 57.3127 39.4414 57.1254C38.8984 57.0623 38.363 56.946 37.8428 56.7781C36.9824 56.4249 36.5152 55.8937 36.5243 55.2821C36.5322 54.6286 37.0632 53.993 37.8408 53.705C39.5639 53.0676 41.1745 53.8393 41.8513 55.6274C41.9133 55.7999 42.009 55.9584 42.1328 56.0935C42.2567 56.2287 42.4062 56.3378 42.5727 56.4146C42.7391 56.4914 42.9192 56.5342 43.1024 56.5407C43.2856 56.5472 43.4683 56.5171 43.6397 56.4523C43.8112 56.3874 43.968 56.2891 44.1011 56.163C44.2342 56.0369 44.3408 55.8856 44.4148 55.7179C44.4888 55.5502 44.5287 55.3694 44.5322 55.1861C44.5356 55.0029 44.5025 54.8207 44.4348 54.6504C43.6711 52.6354 42.1417 51.2988 40.3299 50.8688V49.7498C40.3299 49.3834 40.1843 49.0321 39.9253 48.7731C39.6663 48.514 39.3149 48.3685 38.9486 48.3685C38.5823 48.3685 38.231 48.514 37.9719 48.7731C37.7129 49.0321 37.5674 49.3834 37.5674 49.7498V50.9031C37.3353 50.9609 37.1067 51.0314 36.8824 51.1144C35.0137 51.8072 33.7884 53.4275 33.762 55.2415C33.7344 57.0257 34.8818 58.5591 36.8272 59.3486C36.8404 59.3546 36.854 59.3599 36.8678 59.3645C37.5702 59.6043 38.2959 59.7697 39.0329 59.8579C40.2313 60.0374 40.8352 60.1577 41.4546 60.9019C41.8218 61.3439 41.9217 61.8176 41.7448 62.2716C41.5001 62.8972 40.7802 63.3591 39.8619 63.4776C38.5927 63.6433 36.3234 63.376 35.8534 61.3362C35.8158 61.1565 35.7428 60.986 35.6386 60.8349C35.5344 60.6837 35.401 60.5548 35.2464 60.4558C35.0918 60.3567 34.919 60.2895 34.7381 60.258C34.5572 60.2265 34.3718 60.2315 34.1929 60.2725C34.0139 60.3135 33.8449 60.3898 33.6957 60.4969C33.5466 60.604 33.4203 60.7397 33.3242 60.8962C33.2281 61.0527 33.1643 61.2268 33.1363 61.4082C33.1083 61.5897 33.1167 61.7749 33.1612 61.9531C33.6584 64.1182 35.3429 65.6358 37.5667 66.1212V67.2366C37.5667 67.6029 37.7123 67.9543 37.9713 68.2133C38.2303 68.4723 38.5817 68.6178 38.948 68.6178C39.3143 68.6178 39.6657 68.4723 39.9247 68.2133C40.1837 67.9543 40.3293 67.6029 40.3293 67.2366V66.2007C42.222 65.9185 43.709 64.8348 44.318 63.2795C44.5824 62.5863 44.6532 61.8341 44.5229 61.1037C44.3926 60.3733 44.0661 59.6921 43.5784 59.1329L43.5788 59.1327ZM38.86 72.4805C41.6265 72.4805 44.3309 71.6601 46.6312 70.1231C48.9314 68.5861 50.7242 66.4016 51.7829 63.8456C52.8416 61.2897 53.1186 58.4773 52.5789 55.764C52.0391 53.0506 50.7069 50.5583 48.7507 48.6021C46.7945 46.6459 44.3021 45.3137 41.5888 44.774C38.8754 44.2343 36.063 44.5114 33.5071 45.5701C30.9512 46.6288 28.7666 48.4217 27.2297 50.7219C25.6927 53.0222 24.8724 55.7266 24.8725 58.4931C24.8765 62.2015 26.3515 65.7569 28.9738 68.3792C31.5962 71.0015 35.1516 72.4764 38.86 72.4805ZM38.86 41.7426C35.547 41.7424 32.3084 42.7247 29.5536 44.5652C26.7989 46.4057 24.6518 49.0217 23.3838 52.0825C22.1159 55.1433 21.7841 58.5113 22.4303 61.7607C23.0765 65.0101 24.6718 67.9948 27.0144 70.3375C29.357 72.6802 32.3417 74.2757 35.591 74.9221C38.8404 75.5685 42.2084 75.2368 45.2693 73.969C48.3301 72.7012 50.9463 70.5542 52.7869 67.7996C54.6275 65.0449 55.6099 61.8063 55.6099 58.4933C55.6047 54.0524 53.8384 49.7949 50.6983 46.6546C47.5583 43.5144 43.3009 41.7477 38.86 41.7422V41.7426Z" fill="#231F20"/>
<path fill-rule="evenodd" clip-rule="evenodd" d="M38.8605 72.4804C41.6269 72.4802 44.3311 71.6597 46.6312 70.1226C48.9313 68.5855 50.7239 66.4009 51.7824 63.845C52.841 61.2891 53.1178 58.4767 52.5779 55.7635C52.0381 53.0503 50.7058 50.5581 48.7496 48.602C46.7934 46.6459 44.301 45.3139 41.5878 44.7743C38.8745 44.2347 36.0621 44.5118 33.5063 45.5705C30.9505 46.6292 28.7661 48.4221 27.2292 50.7223C25.6923 53.0225 24.872 55.7268 24.8721 58.4932C24.8762 62.2018 26.3513 65.7573 28.9738 68.3796C31.5963 71.0018 35.1519 72.4766 38.8605 72.4804ZM43.5793 59.1327C44.067 59.6918 44.3935 60.373 44.5237 61.1035C44.654 61.8339 44.5832 62.586 44.3189 63.2792C43.7095 64.8346 42.2228 65.9182 40.3301 66.2004V67.2363C40.3301 67.6027 40.1846 67.954 39.9255 68.213C39.6665 68.472 39.3152 68.6176 38.9488 68.6176C38.5825 68.6176 38.2312 68.472 37.9721 68.213C37.7131 67.954 37.5676 67.6027 37.5676 67.2363V66.1212C35.3442 65.6357 33.6582 64.1182 33.1616 61.953C33.1179 61.7752 33.11 61.5904 33.1384 61.4094C33.1668 61.2284 33.2309 61.0549 33.327 60.899C33.4231 60.743 33.5492 60.6077 33.6981 60.501C33.8469 60.3942 34.0155 60.3182 34.1941 60.2772C34.3726 60.2362 34.5575 60.2312 34.738 60.2624C34.9185 60.2935 35.091 60.3603 35.2455 60.4588C35.3999 60.5572 35.5333 60.6855 35.6377 60.8359C35.7421 60.9864 35.8156 61.1562 35.8538 61.3353C36.3239 63.3759 38.5932 63.6424 39.8623 63.4767C40.7806 63.3583 41.5005 62.8964 41.7453 62.2707C41.9228 61.8167 41.8222 61.3431 41.455 60.9011C40.8357 60.1568 40.2314 60.0366 39.0333 59.857C38.2964 59.7688 37.5707 59.6034 36.8682 59.3636L36.8276 59.3478C34.8823 58.5582 33.7348 57.0248 33.7624 55.2406C33.7889 53.4267 35.0139 51.8063 36.8829 51.1135C37.1071 51.0306 37.3358 50.96 37.5678 50.9022V49.7497C37.5678 49.3834 37.7133 49.032 37.9723 48.773C38.2314 48.514 38.5827 48.3684 38.949 48.3684C39.3154 48.3684 39.6667 48.514 39.9257 48.773C40.1848 49.032 40.3303 49.3834 40.3303 49.7497V50.8687C42.1422 51.2991 43.6715 52.6359 44.4352 54.6503C44.5029 54.8207 44.536 55.0028 44.5326 55.1861C44.5292 55.3694 44.4893 55.5501 44.4153 55.7178C44.3413 55.8856 44.2346 56.0369 44.1015 56.163C43.9685 56.289 43.8116 56.3874 43.6402 56.4522C43.4687 56.517 43.286 56.5471 43.1028 56.5406C42.9196 56.5342 42.7395 56.4913 42.5731 56.4145C42.4066 56.3377 42.2571 56.2286 42.1332 56.0934C42.0094 55.9583 41.9137 55.7998 41.8517 55.6273C41.1749 53.8398 39.5643 53.068 37.8412 53.705C37.0636 53.993 36.5327 54.6286 36.5247 55.282C36.5156 55.8936 36.9828 56.4248 37.8432 56.778C38.3634 56.9459 38.8989 57.0622 39.4418 57.1254C40.6971 57.3127 42.2563 57.5477 43.5793 59.1327Z" fill="#00ABEA"/>
</svg>
