<svg width="104" height="104" viewBox="0 0 104 104" fill="none" xmlns="http://www.w3.org/2000/svg">
<path fill-rule="evenodd" clip-rule="evenodd" d="M54.0018 72.6132C53.5727 72.5639 53.1495 72.4727 52.7382 72.341C52.3792 72.1928 51.8026 71.8712 51.8105 71.3441C51.817 70.9811 52.1044 70.5093 52.7341 70.2744C54.0329 69.7928 55.2033 70.3573 55.7164 71.7134C55.8462 72.056 56.1068 72.333 56.4409 72.4834C56.7749 72.6339 57.1551 72.6455 57.4977 72.5156C57.8403 72.3858 58.1173 72.1252 58.2677 71.7911C58.4182 71.4571 58.4298 71.0769 58.2999 70.7343C57.6664 69.0644 56.4249 67.9357 54.9406 67.5193V66.7927C54.9406 66.4263 54.7951 66.075 54.5361 65.816C54.277 65.5569 53.9257 65.4114 53.5594 65.4114C53.1931 65.4114 52.8417 65.5569 52.5827 65.816C52.3237 66.075 52.1781 66.4263 52.1781 66.7927V67.5526C52.0441 67.592 51.9098 67.6338 51.7755 67.6828C50.1434 68.2885 49.074 69.7098 49.048 71.3045C49.0277 72.8734 50.0248 74.2236 51.7223 74.9104C51.7363 74.9167 51.7508 74.922 51.7656 74.9262C52.3584 75.1303 52.9712 75.2705 53.5937 75.3447C54.5393 75.4868 54.9772 75.5736 55.4312 76.1183C55.5443 76.2307 55.6232 76.373 55.6585 76.5285C55.6937 76.6841 55.684 76.8464 55.6305 76.9967C55.4986 77.3341 55.0739 77.731 54.2785 77.8356C53.3199 77.9597 51.6023 77.7683 51.2549 76.2605C51.2153 76.0827 51.1409 75.9144 51.036 75.7654C50.9311 75.6165 50.7977 75.4897 50.6436 75.3925C50.4894 75.2953 50.3176 75.2296 50.138 75.1991C49.9583 75.1686 49.7744 75.1739 49.5968 75.2148C49.4193 75.2557 49.2515 75.3313 49.1033 75.4372C48.9551 75.5432 48.8293 75.6775 48.7332 75.8323C48.6371 75.9871 48.5726 76.1594 48.5434 76.3393C48.5141 76.5191 48.5208 76.703 48.5629 76.8803C48.9795 78.6938 50.3529 79.9828 52.1785 80.4447V81.1689C52.1785 81.5352 52.3241 81.8865 52.5831 82.1455C52.8421 82.4046 53.1935 82.5501 53.5598 82.5501C53.9261 82.5501 54.2775 82.4046 54.5365 82.1455C54.7955 81.8865 54.941 81.5352 54.941 81.1689V80.5251C56.4848 80.2353 57.6924 79.3096 58.2036 78.005C58.4377 77.394 58.5008 76.7308 58.3863 76.0866C58.2718 75.4424 57.9839 74.8416 57.5536 74.3487C56.4078 72.973 55.0727 72.7717 54.0016 72.6118L54.0018 72.6132ZM62.6525 73.9811C62.6526 75.794 62.115 77.5662 61.1079 79.0736C60.1008 80.5811 58.6692 81.756 56.9944 82.4498C55.3195 83.1437 53.4764 83.3252 51.6983 82.9716C49.9203 82.618 48.287 81.7451 47.005 80.4632C45.723 79.1813 44.85 77.5481 44.4962 75.77C44.1425 73.9919 44.324 72.1489 45.0177 70.4739C45.7114 68.799 46.8862 67.3674 48.3936 66.3602C49.901 65.3529 51.6731 64.8153 53.4861 64.8153C55.9162 64.8182 58.2459 65.7848 59.9643 67.503C61.6827 69.2213 62.6494 71.551 62.6525 73.9811ZM65.415 73.9811C65.4151 76.3405 64.7155 78.6469 63.4047 80.6087C62.094 82.5706 60.2309 84.0996 58.0511 85.0026C55.8714 85.9056 53.4728 86.1419 51.1587 85.6816C48.8446 85.2214 46.719 84.0853 45.0506 82.417C43.3822 80.7487 42.246 78.6231 41.7856 76.309C41.3252 73.995 41.5614 71.5964 42.4643 69.4166C43.3672 67.2367 44.8961 65.3736 46.8579 64.0627C48.8196 62.7519 51.126 62.0522 53.4855 62.0521C56.6481 62.0559 59.6801 63.3139 61.9165 65.5502C64.1529 67.7864 65.4111 70.8184 65.415 73.9811ZM72.5282 71.5495V76.4127C72.527 76.5327 72.4789 76.6475 72.3943 76.7327C72.3096 76.8178 72.1951 76.8665 72.075 76.8685H68.3418C68.0421 76.8687 67.7506 76.9664 67.5113 77.147C67.2721 77.3275 67.0981 77.5811 67.0158 77.8693C66.7224 78.8877 66.3145 79.8696 65.7999 80.7961C65.6549 81.0585 65.5993 81.3609 65.6413 81.6577C65.6833 81.9545 65.8208 82.2296 66.0329 82.4414L68.6717 85.082C68.7551 85.1684 68.8017 85.2838 68.8017 85.4038C68.8017 85.5238 68.7551 85.6392 68.6717 85.7255L65.2307 89.1638C65.1451 89.2483 65.0296 89.2956 64.9093 89.2956C64.789 89.2956 64.6736 89.2483 64.5879 89.1638L61.9487 86.5251C61.7361 86.313 61.4605 86.1758 61.1632 86.1342C60.8659 86.0925 60.5631 86.1487 60.3005 86.2941C59.3746 86.8095 58.3924 87.2168 57.3735 87.508C57.0851 87.5907 56.8316 87.7651 56.6511 88.0047C56.4707 88.2444 56.3732 88.5362 56.3733 88.8362V92.5666C56.3717 92.6868 56.3232 92.8017 56.2383 92.8868C56.1533 92.9719 56.0385 93.0206 55.9183 93.0224H51.0545C50.9341 93.0207 50.8193 92.972 50.7343 92.8869C50.6493 92.8017 50.6009 92.6867 50.5995 92.5664V88.8364C50.5992 88.5364 50.5015 88.2446 50.321 88.005C50.1405 87.7654 49.8869 87.591 49.5987 87.508C48.58 87.216 47.5981 86.8088 46.6718 86.2941C46.4094 86.1485 46.1067 86.0923 45.8094 86.134C45.5122 86.1757 45.2366 86.3129 45.0243 86.5251L42.3841 89.1647C42.2983 89.249 42.1828 89.2963 42.0625 89.2963C41.9422 89.2963 41.8267 89.249 41.741 89.1647L38.3006 85.7266C38.217 85.6403 38.1702 85.5249 38.1702 85.4048C38.1702 85.2847 38.217 85.1693 38.3006 85.0831L40.9413 82.4424C41.1527 82.2301 41.2895 81.955 41.3311 81.6583C41.3727 81.3616 41.3169 81.0594 41.172 80.7971C40.6573 79.8707 40.2495 78.8888 39.9563 77.8703C39.8743 77.5819 39.7004 77.3282 39.4611 77.1476C39.2218 76.967 38.9301 76.8693 38.6303 76.8695H34.8981C34.778 76.8677 34.6633 76.8189 34.5786 76.7337C34.4939 76.6485 34.4459 76.5336 34.4447 76.4135V71.5505C34.4456 71.4301 34.4936 71.3149 34.5784 71.2296C34.6633 71.1442 34.7782 71.0955 34.8985 71.0938H38.6301C38.9299 71.0935 39.2214 70.9957 39.4606 70.8152C39.6999 70.6347 39.874 70.3812 39.9565 70.0931C40.2494 69.0745 40.6572 68.0925 41.1722 67.1662C41.3173 66.9035 41.3732 66.6008 41.3316 66.3036C41.2901 66.0064 41.1532 65.7307 40.9417 65.5179L38.301 62.8793C38.2591 62.8369 38.226 62.7867 38.2037 62.7315C38.1813 62.6762 38.1702 62.6171 38.1708 62.5575C38.1703 62.4976 38.1815 62.4382 38.2039 62.3826C38.2263 62.3271 38.2595 62.2765 38.3015 62.2337L41.7412 58.7956C41.8276 58.7122 41.9431 58.6655 42.0632 58.6655C42.1834 58.6655 42.2989 58.7122 42.3853 58.7956L45.0235 61.4346C45.2357 61.647 45.5114 61.7845 45.8088 61.8261C46.1061 61.8678 46.409 61.8115 46.6714 61.6656C47.5985 61.1526 48.5802 60.7454 49.5982 60.4517C49.8869 60.3692 50.1408 60.1949 50.3215 59.9552C50.5022 59.7155 50.5999 59.4235 50.5999 59.1233V55.3931C50.6016 55.2726 50.6503 55.1576 50.7355 55.0725C50.8208 54.9873 50.9358 54.9388 51.0563 54.9371H55.9189C56.0393 54.9387 56.1543 54.9872 56.2395 55.0723C56.3248 55.1574 56.3735 55.2723 56.3753 55.3927V59.1231C56.3752 59.4232 56.4728 59.7151 56.6533 59.9548C56.8339 60.1945 57.0876 60.3689 57.3761 60.4515C58.3945 60.7443 59.3764 61.1516 60.3031 61.6654C60.5658 61.8112 60.8687 61.8675 61.1662 61.8258C61.4637 61.7841 61.7395 61.6467 61.9519 61.4342L64.5899 58.7954C64.6762 58.7119 64.7916 58.6653 64.9117 58.6653C65.0319 58.6653 65.1473 58.7119 65.2336 58.7954L68.6735 62.2337C68.7569 62.3204 68.8035 62.4361 68.8035 62.5564C68.8035 62.6767 68.7569 62.7924 68.6735 62.8791L66.0329 65.5179C65.8208 65.7303 65.6835 66.0059 65.6415 66.3031C65.5994 66.6003 65.655 66.9031 65.7999 67.166C66.3152 68.0922 66.7231 69.0742 67.0158 70.0928C67.0983 70.381 67.2723 70.6345 67.5116 70.8151C67.7508 70.9956 68.0423 71.0935 68.342 71.0938H72.0742C72.1946 71.0953 72.3095 71.1438 72.3945 71.229C72.4795 71.3142 72.5277 71.4293 72.5288 71.5497L72.5282 71.5495ZM75.2907 71.5495V76.4125C75.2899 77.2657 74.9507 78.0838 74.3476 78.6873C73.7444 79.2909 72.9265 79.6305 72.0732 79.6318H69.3491C69.1592 80.1658 68.9416 80.6896 68.6973 81.2009L70.627 83.1292C71.2297 83.7332 71.5683 84.5516 71.5683 85.4049C71.5683 86.2582 71.2297 87.0767 70.627 87.6806L67.1856 91.1183C66.5817 91.7212 65.7632 92.0598 64.9098 92.0598C64.0564 92.0598 63.238 91.7212 62.634 91.1183L60.7082 89.1919C60.1956 89.4351 59.6711 89.6525 59.1368 89.8433V92.5668C59.1358 93.4204 58.7963 94.2387 58.1927 94.8422C57.5892 95.4458 56.7708 95.7852 55.9173 95.7861H51.0551C50.2016 95.7852 49.3834 95.4458 48.7799 94.8423C48.1764 94.2389 47.8369 93.4207 47.8359 92.5672V89.8435C47.3023 89.6529 46.7787 89.4356 46.267 89.1923L44.3393 91.1183C43.7354 91.7212 42.9168 92.0598 42.0634 92.0598C41.21 92.0598 40.3915 91.7212 39.7875 91.1183L36.3472 87.6804C35.745 87.0761 35.407 86.2576 35.4073 85.4044C35.4076 84.5512 35.7462 83.7329 36.3488 83.129L38.2755 81.2005C38.0311 80.6893 37.8135 80.1657 37.6236 79.6318H34.8985C34.0453 79.6306 33.2273 79.2911 32.6241 78.6876C32.0209 78.0842 31.6817 77.2661 31.6808 76.4129V71.5497C31.6812 70.6964 32.0203 69.8782 32.6235 69.2748C33.2268 68.6714 34.0449 68.332 34.8981 68.3313H37.6242C37.8133 67.7967 38.0302 67.2723 38.2742 66.7604L36.3464 64.8339C35.7442 64.2296 35.4062 63.4111 35.4065 62.558C35.4068 61.7049 35.7454 60.8866 36.348 60.2827L39.7861 56.8426C40.3902 56.2401 41.2085 55.9018 42.0617 55.9018C42.9149 55.9018 43.7332 56.2401 44.3373 56.8426L46.267 58.7688C46.7784 58.5256 47.3018 58.3087 47.8353 58.1188V55.3923C47.8366 54.539 48.1762 53.721 48.7796 53.1176C49.3831 52.5142 50.2011 52.1748 51.0545 52.1736H55.9185C56.7717 52.1749 57.5896 52.5145 58.1928 53.1178C58.7961 53.7212 59.1356 54.5391 59.1368 55.3923V58.118C59.6709 58.3082 60.1951 58.5252 60.7074 58.768L62.6344 56.8418C63.2381 56.2391 64.0563 55.9005 64.9094 55.9005C65.7625 55.9005 66.5807 56.2391 67.1844 56.8418L70.6253 60.2819C71.2281 60.8859 71.5666 61.7043 71.5666 62.5576C71.5666 63.4109 71.2281 64.2294 70.6253 64.8333L68.6969 66.7592C68.941 67.2712 69.1584 67.7957 69.3481 68.3303H72.0746C72.9278 68.3315 73.7457 68.6711 74.3488 69.2746C74.9519 69.8781 75.2908 70.6963 75.2913 71.5495H75.2907ZM25.5712 28.6515C25.1423 28.6016 24.719 28.511 24.3072 28.3811C23.9486 28.231 23.3738 27.9095 23.3817 27.3844C23.3862 27.0188 23.6738 26.5475 24.3053 26.3127C25.6023 25.8309 26.7723 26.3976 27.2854 27.7516C27.3497 27.9213 27.4467 28.0766 27.571 28.2087C27.6954 28.3409 27.8445 28.4472 28.0099 28.5217C28.1753 28.5962 28.3538 28.6374 28.5351 28.6429C28.7164 28.6484 28.897 28.6182 29.0667 28.5539C29.2363 28.4896 29.3916 28.3925 29.5238 28.2682C29.6559 28.1439 29.7622 27.9948 29.8367 27.8294C29.9112 27.664 29.9524 27.4855 29.9579 27.3042C29.9635 27.1229 29.9332 26.9422 29.8689 26.7726C29.2374 25.1027 27.9941 23.9739 26.5098 23.5575V22.8314C26.5098 22.465 26.3643 22.1137 26.1053 21.8547C25.8463 21.5956 25.4949 21.4501 25.1286 21.4501C24.7623 21.4501 24.4109 21.5956 24.1519 21.8547C23.8929 22.1137 23.7473 22.465 23.7473 22.8314V23.5912C23.6131 23.6306 23.4788 23.6741 23.3445 23.7235C21.7124 24.3274 20.643 25.7484 20.6188 27.3432C20.5953 28.9141 21.5938 30.2623 23.2913 30.949C23.3076 30.9549 23.3208 30.961 23.3346 30.9669C23.9276 31.17 24.5404 31.3103 25.1627 31.3854C26.1105 31.5275 26.5484 31.6122 27.0004 32.1572C27.1142 32.2696 27.1936 32.4122 27.2292 32.5681C27.2649 32.724 27.2553 32.8869 27.2017 33.0376C27.0697 33.3729 26.6451 33.7717 25.8497 33.8744C24.8893 33.9988 23.1715 33.8092 22.8262 32.3012C22.7855 32.1243 22.7103 31.9572 22.605 31.8093C22.4998 31.6614 22.3664 31.5358 22.2125 31.4394C22.0586 31.3431 21.8873 31.2781 21.7083 31.2479C21.5293 31.2178 21.3461 31.2233 21.1692 31.264C20.9923 31.3047 20.8251 31.3798 20.6772 31.4851C20.5294 31.5904 20.4037 31.7238 20.3074 31.8777C20.2111 32.0315 20.146 32.2029 20.1159 32.3819C20.0858 32.5609 20.0912 32.7441 20.1319 32.921C20.5504 34.7347 21.9241 36.0217 23.7475 36.4836V37.2077C23.7475 37.5741 23.8931 37.9254 24.1521 38.1844C24.4111 38.4435 24.7625 38.589 25.1288 38.589C25.4951 38.589 25.8465 38.4435 26.1055 38.1844C26.3645 37.9254 26.51 37.5741 26.51 37.2077V36.5661C28.0554 36.274 29.2614 35.3485 29.7726 34.0439C30.0064 33.433 30.0694 32.77 29.9549 32.126C29.8404 31.4821 29.5527 30.8814 29.1226 30.3886C27.9786 29.0126 26.6445 28.8136 25.571 28.6517L25.5712 28.6515ZM34.2217 30.0193C34.2216 31.832 33.684 33.6039 32.6769 35.111C31.6698 36.6181 30.2384 37.7927 28.5637 38.4863C26.8891 39.18 25.0463 39.3615 23.2685 39.0078C21.4907 38.6542 19.8577 37.7814 18.5759 36.4997C17.2942 35.218 16.4212 33.5851 16.0675 31.8073C15.7138 30.0295 15.8951 28.1868 16.5886 26.5121C17.2822 24.8374 18.4567 23.4059 19.9637 22.3987C21.4708 21.3915 23.2426 20.8538 25.0553 20.8535C27.4855 20.8561 29.8154 21.8225 31.5339 23.5409C33.2524 25.2592 34.219 27.5891 34.2217 30.0193ZM25.0561 41.9481C22.6967 41.9482 20.3903 41.2487 18.4285 39.938C16.4667 38.6274 14.9376 36.7644 14.0346 34.5847C13.1316 32.4049 12.8953 30.0064 13.3555 27.6923C13.8157 25.3783 14.9518 23.2527 16.62 21.5843C18.2883 19.916 20.4139 18.7798 22.7279 18.3195C25.0419 17.8591 27.4405 18.0953 29.6202 18.9982C31.8 19.9011 33.6631 21.4301 34.9738 23.3918C36.2846 25.3536 36.9842 27.66 36.9842 30.0193C36.9809 33.1819 35.7231 36.214 33.4869 38.4503C31.2507 40.6866 28.2186 41.9446 25.0561 41.9481ZM31.8707 42.334C30.9439 42.8478 29.9619 43.2551 28.9435 43.5481C28.6552 43.6308 28.4016 43.8052 28.2211 44.0448C28.0407 44.2845 27.9432 44.5763 27.9433 44.8763V48.6067C27.9419 48.7271 27.8934 48.8423 27.8082 48.9274C27.723 49.0126 27.6079 49.0611 27.4875 49.0625H22.6237C22.5035 49.0607 22.3889 49.0119 22.3042 48.9267C22.2195 48.8415 22.1714 48.7266 22.1703 48.6065V44.8763C22.1706 44.5762 22.0731 44.2842 21.8926 44.0445C21.712 43.8048 21.4582 43.6305 21.1697 43.5481C20.1509 43.2549 19.1684 42.848 18.2406 42.335C18.0364 42.2201 17.8058 42.1603 17.5715 42.1613C17.3901 42.1612 17.2105 42.1968 17.0429 42.2662C16.8753 42.3356 16.7231 42.4374 16.5949 42.5658L13.9547 45.2048C13.8681 45.2883 13.7525 45.335 13.6321 45.335C13.5118 45.335 13.3962 45.2883 13.3096 45.2048L9.87187 41.7667C9.7874 41.6805 9.74009 41.5647 9.74009 41.444C9.74009 41.3233 9.7874 41.2075 9.87187 41.1213L12.5105 38.4825C12.7229 38.2703 12.8604 37.9946 12.902 37.6971C12.9437 37.3997 12.8873 37.0969 12.7414 36.8344C12.2278 35.9077 11.8207 34.9258 11.5278 33.9076C11.445 33.6192 11.2707 33.3656 11.0312 33.185C10.7917 33.0044 10.4999 32.9066 10.1999 32.9064H6.46912C6.34881 32.9046 6.23395 32.8559 6.14894 32.7708C6.06393 32.6856 6.0155 32.5707 6.01392 32.4503V27.5873C6.01576 27.4669 6.06445 27.3519 6.14966 27.2668C6.23487 27.1816 6.3499 27.133 6.47034 27.1313H10.1993C10.4994 27.1315 10.7913 27.0339 11.031 26.8534C11.2707 26.6728 11.4451 26.4192 11.5278 26.1307C11.8213 25.1127 12.2284 24.1309 12.7414 23.2039C12.8874 22.9418 12.9439 22.6392 12.9023 22.3421C12.8607 22.0449 12.7232 21.7695 12.5109 21.5576L9.87167 18.9169C9.78722 18.8311 9.73988 18.7156 9.73988 18.5952C9.73988 18.4748 9.78722 18.3592 9.87167 18.2734L13.31 14.8357C13.3962 14.7513 13.5121 14.7041 13.6328 14.7041C13.7535 14.7041 13.8694 14.7513 13.9557 14.8357L16.5941 17.4745C16.8062 17.6863 17.0813 17.8234 17.3781 17.8651C17.6749 17.9067 17.9772 17.8507 18.2394 17.7055C19.1663 17.1906 20.1489 16.7833 21.1683 16.4916C21.4566 16.4088 21.7102 16.2344 21.8908 15.9948C22.0714 15.7552 22.1692 15.4634 22.1695 15.1634V11.4332C22.1708 11.3129 22.2191 11.1979 22.304 11.1128C22.389 11.0276 22.5038 10.9789 22.6241 10.9772H27.4869C27.6074 10.9785 27.7226 11.027 27.8079 11.1122C27.8932 11.1973 27.9418 11.3125 27.9433 11.433V15.1634C27.9435 15.4634 28.0413 15.7551 28.2218 15.9947C28.4023 16.2343 28.6558 16.4087 28.9441 16.4916C29.9628 16.7828 30.9446 17.1901 31.8703 17.7055C32.1328 17.8513 32.4356 17.9077 32.733 17.866C33.0303 17.8244 33.306 17.6869 33.5183 17.4745L36.1573 14.8357C36.2434 14.7511 36.3593 14.7036 36.48 14.7036C36.6008 14.7036 36.7167 14.7511 36.8028 14.8357L40.2407 18.2742C40.3251 18.36 40.3725 18.4755 40.3725 18.5959C40.3725 18.7162 40.3251 18.8318 40.2407 18.9175L37.6015 21.5582C37.3893 21.77 37.2519 22.0452 37.2103 22.3421C37.1686 22.6391 37.225 22.9415 37.3707 23.2035C37.884 24.1304 38.2912 25.1122 38.5846 26.1303C38.6673 26.4187 38.8416 26.6724 39.0813 26.8529C39.3209 27.0334 39.6128 27.131 39.9128 27.1309H43.6434C43.7639 27.1326 43.8789 27.1812 43.9641 27.2664C44.0493 27.3515 44.098 27.4665 44.0999 27.5869V32.4501C44.0982 32.5704 44.0497 32.6852 43.9648 32.7703C43.8798 32.8554 43.7651 32.9041 43.6449 32.9059H39.9141C39.6141 32.9061 39.3223 33.0038 39.0827 33.1844C38.8431 33.3649 38.6687 33.6184 38.5858 33.9067C38.2931 34.9251 37.8859 35.907 37.372 36.8336C37.2261 37.0961 37.1698 37.3989 37.2115 37.6963C37.2532 37.9936 37.3907 38.2693 37.6031 38.4815L40.2417 41.1205C40.3262 41.2066 40.3735 41.3225 40.3735 41.4431C40.3735 41.5637 40.3262 41.6795 40.2417 41.7657L36.8034 45.2039C36.7169 45.2875 36.6013 45.3342 36.481 45.3342C36.3608 45.3342 36.2452 45.2875 36.1587 45.2039L33.5181 42.5651C33.3059 42.3528 33.0303 42.2154 32.733 42.1737C32.4357 42.132 32.1332 42.1883 31.8707 42.334ZM32.277 45.2316C31.7643 45.4745 31.2397 45.6915 30.7052 45.8816V48.6071C30.7042 49.4606 30.3646 50.2789 29.7611 50.8824C29.1575 51.4859 28.3392 51.8253 27.4857 51.8262H22.6243C21.7711 51.825 20.9533 51.4856 20.3501 50.8823C19.7469 50.279 19.4076 49.461 19.4066 48.6079V45.8822C18.8715 45.6931 18.3468 45.4757 17.8348 45.231L15.909 47.159C15.3045 47.7619 14.4856 48.1005 13.6319 48.1005C12.7782 48.1005 11.9593 47.7619 11.3549 47.159L7.91822 43.7185C7.31536 43.1146 6.97677 42.2962 6.97677 41.4429C6.97677 40.5896 7.31536 39.7712 7.91822 39.1673L9.84506 37.2408C9.60253 36.7277 9.38525 36.2041 9.19323 35.6699H6.46953C5.616 35.6691 4.79762 35.3298 4.19403 34.7263C3.59043 34.1228 3.25091 33.3045 3.25 32.4509V27.5877C3.25118 26.7343 3.59072 25.9162 4.19417 25.3128C4.79761 24.7093 5.61572 24.3698 6.46912 24.3686H9.19364C9.38458 23.8358 9.60152 23.3107 9.84364 22.7997L7.91781 20.8714C7.31499 20.2675 6.97643 19.449 6.97643 18.5957C6.97643 17.7424 7.31499 16.9239 7.91781 16.32L11.3563 12.8817C11.9605 12.2788 12.7792 11.9402 13.6327 11.9402C14.4863 11.9402 15.305 12.2788 15.9092 12.8817L17.8362 14.8079C18.3481 14.5639 18.8722 14.3466 19.4066 14.1567V11.4328C19.4068 10.5796 19.7456 9.76138 20.3487 9.15784C20.9517 8.5543 21.7697 8.21478 22.6228 8.21387H27.4869C28.3405 8.21446 29.1589 8.55384 29.7625 9.15747C30.366 9.76109 30.7053 10.5796 30.7058 11.4332V14.1569C31.2401 14.3472 31.7643 14.5644 32.2766 14.8079L34.2036 12.8815C34.8078 12.2786 35.6264 11.9401 36.4798 11.9401C37.3333 11.9401 38.1519 12.2786 38.756 12.8815L42.1943 16.3196C42.7974 16.9234 43.1361 17.7419 43.1361 18.5953C43.1361 19.4487 42.7974 20.2671 42.1943 20.871L40.2681 22.7991C40.5119 23.3103 40.7282 23.835 40.9195 24.3682H43.644C44.4973 24.3696 45.3152 24.7092 45.9185 25.3126C46.5218 25.9161 46.8612 26.7341 46.8624 27.5873V32.4503C46.8613 33.3039 46.5218 34.1221 45.9182 34.7256C45.3147 35.3291 44.4963 35.6685 43.6428 35.6695H40.9201C40.7284 36.2044 40.5111 36.7281 40.2683 37.2406L42.1947 39.1669C42.7978 39.7707 43.1365 40.5892 43.1365 41.4426C43.1365 42.296 42.7978 43.1144 42.1947 43.7183L38.7563 47.1586C38.1519 47.7615 37.3331 48.1 36.4794 48.1C35.6258 48.1 34.807 47.7615 34.2026 47.1586L32.277 45.2322V45.2316ZM79.4594 28.6507C79.03 28.6009 78.6063 28.5103 78.194 28.3803C77.8351 28.2302 77.2596 27.9087 77.2683 27.3836C77.2746 27.018 77.5604 26.5467 78.192 26.3119C79.4887 25.8301 80.6591 26.3968 81.1724 27.7508C81.2367 27.9205 81.3338 28.0758 81.4581 28.2079C81.5824 28.34 81.7315 28.4463 81.8969 28.5208C82.0623 28.5953 82.2407 28.6365 82.4221 28.642C82.6034 28.6475 82.784 28.6173 82.9536 28.553C83.1232 28.4887 83.2785 28.3916 83.4106 28.2673C83.5428 28.143 83.6491 27.9939 83.7236 27.8285C83.7981 27.6631 83.8392 27.4847 83.8448 27.3033C83.8503 27.122 83.82 26.9414 83.7558 26.7718C83.1248 25.1019 81.8809 23.9731 80.3967 23.5587V22.8301C80.3967 22.4636 80.2511 22.1121 79.9919 21.8529C79.7327 21.5938 79.3812 21.4482 79.0147 21.4482C78.6482 21.4482 78.2967 21.5938 78.0375 21.8529C77.7784 22.1121 77.6327 22.4636 77.6327 22.8301V23.59C77.4987 23.6294 77.3636 23.6729 77.2293 23.7223C75.5972 24.3261 74.5278 25.7472 74.5036 27.3419C74.4809 28.9129 75.4786 30.2611 77.1761 30.9478C77.1922 30.9537 77.2058 30.9598 77.2196 30.9657C77.8126 31.1688 78.4254 31.3091 79.0477 31.3841C79.9959 31.5263 80.4332 31.611 80.8872 32.156C81.0005 32.2687 81.0794 32.4114 81.1147 32.5672C81.15 32.7231 81.1402 32.8858 81.0865 33.0364C80.9551 33.3717 80.5299 33.7704 79.7347 33.8732C78.7739 33.9975 77.0563 33.808 76.711 32.3C76.6287 31.943 76.4079 31.6333 76.0973 31.4391C75.7867 31.2448 75.4116 31.1819 75.0546 31.2642C74.6976 31.3465 74.3879 31.5672 74.1936 31.8779C73.9994 32.1885 73.9365 32.5636 74.0187 32.9206C74.4378 34.7343 75.8109 36.0213 77.6344 36.4832V37.2073C77.6344 37.5737 77.7799 37.925 78.0389 38.184C78.298 38.443 78.6493 38.5886 79.0156 38.5886C79.382 38.5886 79.7333 38.443 79.9923 38.184C80.2514 37.925 80.3969 37.5737 80.3969 37.2073V36.5656C81.9422 36.2736 83.1476 35.3481 83.6587 34.0434C83.8923 33.4326 83.9553 32.7696 83.8408 32.1256C83.7263 31.4817 83.4386 30.8811 83.0087 30.3882C81.8644 29.0122 80.5305 28.8132 79.4584 28.6513L79.4594 28.6507ZM88.1081 30.0185C88.1079 31.8312 87.5703 33.6031 86.5631 35.1102C85.5559 36.6173 84.1244 37.7919 82.4496 38.4854C80.7748 39.1789 78.932 39.3602 77.1542 39.0064C75.3764 38.6526 73.7435 37.7796 72.4618 36.4977C71.1802 35.2158 70.3075 33.5827 69.954 31.8048C69.6006 30.0269 69.7823 28.1841 70.4761 26.5095C71.17 24.8349 72.3448 23.4036 73.8521 22.3967C75.3594 21.3898 77.1315 20.8525 78.9441 20.8527C81.374 20.8557 83.7034 21.8224 85.4214 23.5408C87.1393 25.2591 88.1056 27.5887 88.1081 30.0185ZM90.8706 30.0185C90.8706 32.3778 90.171 34.684 88.8602 36.6457C87.5494 38.6073 85.6864 40.1361 83.5067 41.0389C81.327 41.9416 78.9285 42.1777 76.6146 41.7173C74.3007 41.2568 72.1753 40.1206 70.5073 38.4522C68.8392 36.7838 67.7033 34.6582 67.2433 32.3442C66.7833 30.0302 67.0198 27.6318 67.923 25.4523C68.8262 23.2727 70.3554 21.41 72.3172 20.0996C74.2791 18.7892 76.5855 18.09 78.9447 18.0904C82.1071 18.0942 85.1389 19.3523 87.3749 21.5886C89.6109 23.825 90.8685 26.8569 90.8718 30.0193L90.8706 30.0185ZM97.9875 27.5877V32.4509C97.9858 32.5713 97.9372 32.6863 97.852 32.7714C97.7667 32.8565 97.6517 32.9049 97.5313 32.9064H93.8005C93.5005 32.9065 93.2087 33.0042 92.969 33.1847C92.7294 33.3652 92.5551 33.6188 92.4722 33.9072C92.1792 34.9254 91.7721 35.9072 91.2586 36.834C91.1128 37.0965 91.0565 37.3994 91.0983 37.6967C91.1401 37.9941 91.2777 38.2698 91.4901 38.4819L94.1281 41.1213C94.2123 41.2076 94.2595 41.3234 94.2595 41.4439C94.2595 41.5644 94.2123 41.6802 94.1281 41.7665L90.6894 45.2048C90.6029 45.2883 90.4873 45.335 90.367 45.335C90.2467 45.335 90.1311 45.2883 90.0445 45.2048L87.4053 42.566C87.1935 42.3538 86.9182 42.2165 86.6213 42.1748C86.3244 42.1331 86.022 42.1894 85.76 42.335C84.8323 42.8484 83.8498 43.2556 82.8309 43.5489C82.5427 43.6316 82.2893 43.806 82.1091 44.0457C81.9289 44.2854 81.8317 44.5773 81.8324 44.8771V48.6079C81.8308 48.7282 81.7823 48.8432 81.6973 48.9283C81.6122 49.0135 81.4973 49.062 81.377 49.0637H76.5131C76.3926 49.0624 76.2775 49.0139 76.1923 48.9286C76.1072 48.8434 76.0588 48.7282 76.0575 48.6077V44.8775C76.0578 44.5774 75.9603 44.2854 75.7797 44.0457C75.5991 43.806 75.3453 43.6318 75.0567 43.5493C74.038 43.2559 73.0555 42.8487 72.1279 42.3354C71.9236 42.2206 71.6931 42.1607 71.4588 42.1617C71.2773 42.1616 71.0977 42.1972 70.9301 42.2666C70.7624 42.336 70.6102 42.4378 70.4819 42.5662L67.8429 45.2052C67.7563 45.2887 67.6406 45.3354 67.5203 45.3354C67.3999 45.3354 67.2842 45.2887 67.1976 45.2052L63.7591 41.7646C63.6744 41.679 63.6268 41.5634 63.6268 41.443C63.6268 41.3225 63.6744 41.2069 63.7591 41.1213L66.3979 38.4825C66.6103 38.2703 66.7478 37.9946 66.7895 37.6971C66.8312 37.3997 66.7748 37.0969 66.6289 36.8344C66.1154 35.9075 65.7082 34.9257 65.415 33.9076C65.3324 33.6191 65.1582 33.3653 64.9185 33.1847C64.6789 33.004 64.387 32.9063 64.087 32.9064H60.3566C60.2362 32.9046 60.1213 32.856 60.0362 32.7708C59.9512 32.6857 59.9027 32.5707 59.9012 32.4503V27.5873C59.9029 27.4669 59.9515 27.3519 60.0366 27.2668C60.1218 27.1816 60.2368 27.133 60.3572 27.1313H64.0859C64.386 27.1316 64.678 27.0341 64.9177 26.8536C65.1574 26.673 65.3317 26.4192 65.4142 26.1307C65.7081 25.1128 66.1153 24.131 66.6281 23.2039C66.7741 22.9418 66.8307 22.6392 66.7891 22.3421C66.7476 22.045 66.6102 21.7695 66.3979 21.5576L63.7573 18.9169C63.6726 18.8313 63.6251 18.7156 63.6251 18.5952C63.6251 18.4747 63.6726 18.3591 63.7573 18.2734L67.1954 14.8353C67.2816 14.7509 67.3975 14.7036 67.5181 14.7036C67.6388 14.7036 67.7547 14.7509 67.8409 14.8353L70.4797 17.4743C70.6918 17.6861 70.967 17.8232 71.2638 17.8648C71.5605 17.9065 71.8628 17.8505 72.125 17.7053C73.0519 17.1904 74.0345 16.7831 75.0539 16.4914C75.3423 16.4086 75.5959 16.2343 75.7765 15.9947C75.9571 15.7551 76.0549 15.4632 76.0551 15.1632V11.433C76.0565 11.3125 76.105 11.1973 76.1902 11.1121C76.2754 11.0269 76.3906 10.9784 76.5111 10.977H81.3741C81.4945 10.9787 81.6095 11.0272 81.6946 11.1123C81.7798 11.1974 81.8284 11.3124 81.8301 11.4328V15.1634C81.8299 15.4632 81.9272 15.7549 82.1074 15.9945C82.2876 16.2341 82.5408 16.4086 82.8289 16.4916C83.8484 16.7832 84.8311 17.1905 85.7579 17.7055C86.0202 17.8513 86.3228 17.9077 86.6199 17.866C86.9171 17.8243 87.1925 17.6869 87.4045 17.4745L90.0453 14.8357C90.1315 14.7511 90.2475 14.7036 90.3684 14.7036C90.4892 14.7036 90.6052 14.7511 90.6915 14.8357L94.1281 18.274C94.2123 18.3599 94.2595 18.4754 94.2595 18.5957C94.2595 18.716 94.2123 18.8314 94.1281 18.9173L91.4887 21.558C91.2766 21.7698 91.1393 22.0451 91.0977 22.342C91.056 22.6389 91.1123 22.9412 91.258 23.2033C91.7708 24.1304 92.1779 25.1121 92.4716 26.1301C92.5544 26.4186 92.7288 26.6723 92.9686 26.8529C93.2083 27.0334 93.5004 27.1309 93.8005 27.1307H97.5301C97.6505 27.1324 97.7655 27.181 97.8507 27.2662C97.9359 27.3513 97.9845 27.4663 97.9863 27.5867L97.9875 27.5877ZM100.75 27.5877V32.4507C100.749 33.3043 100.41 34.1226 99.8061 34.7261C99.2025 35.3296 98.3842 35.669 97.5307 35.6699H94.8074C94.6162 36.2048 94.399 36.7285 94.1558 37.241L96.0828 39.1673C96.6855 39.7713 97.024 40.5897 97.024 41.443C97.024 42.2963 96.6855 43.1147 96.0828 43.7187L92.6453 47.1586C92.0413 47.7615 91.2227 48.1001 90.3693 48.1001C89.5159 48.1001 88.6973 47.7615 88.0933 47.1586L86.1654 45.2322C85.6535 45.4752 85.1295 45.6921 84.5957 45.8822V48.6079C84.5945 49.4613 84.255 50.2794 83.6515 50.8829C83.0481 51.4863 82.2299 51.8259 81.3765 51.827H76.5131C75.6596 51.8262 74.8413 51.4868 74.2377 50.8833C73.6342 50.2798 73.2948 49.4614 73.294 48.6079V45.8822C72.7592 45.6926 72.2346 45.4752 71.7224 45.231L69.7964 47.159C69.192 47.7619 68.3733 48.1004 67.5197 48.1004C66.6661 48.1004 65.8473 47.7619 65.2429 47.159L61.8048 43.7187C61.202 43.1148 60.8634 42.2964 60.8634 41.4431C60.8634 40.5898 61.202 39.7714 61.8048 39.1675L63.7313 37.241C63.4888 36.7279 63.2716 36.2043 63.0799 35.6701H60.3568C59.5033 35.6692 58.685 35.3298 58.0815 34.7263C57.4779 34.1229 57.1384 33.3046 57.1374 32.4511V27.5879C57.1385 26.7346 57.4779 25.9165 58.0812 25.313C58.6846 24.7095 59.5026 24.37 60.356 24.3688H63.0801C63.271 23.836 63.4881 23.3109 63.7301 22.7999L61.8038 20.8716C61.201 20.2677 60.8624 19.4492 60.8624 18.5959C60.8624 17.7426 61.201 16.9241 61.8038 16.3202L65.2438 12.8817C65.8479 12.2788 66.6665 11.9402 67.52 11.9402C68.3735 11.9402 69.1921 12.2788 69.7962 12.8817L71.7234 14.8079C72.2357 14.5644 72.7599 14.347 73.2942 14.1567V11.4328C73.2947 10.5792 73.634 9.7608 74.2375 9.15727C74.8411 8.55375 75.6596 8.2145 76.5131 8.21407H81.3765C82.23 8.21493 83.0483 8.55441 83.6517 9.15799C84.2551 9.76157 84.5944 10.5799 84.5951 11.4334V14.1569C85.1288 14.3472 85.6525 14.5646 86.1642 14.8081L88.0927 12.8817C88.6966 12.2789 89.515 11.9403 90.3683 11.9403C91.2216 11.9403 92.04 12.2789 92.6439 12.8817L96.0826 16.3198C96.6853 16.9238 97.0238 17.7422 97.0238 18.5955C97.0238 19.4488 96.6853 20.2672 96.0826 20.8712L94.1568 22.7993C94.3993 23.3105 94.616 23.8352 94.8068 24.3684H97.5309C98.3843 24.3695 99.2025 24.7091 99.806 25.3126C100.409 25.9161 100.749 26.7343 100.75 27.5877ZM23.4059 73.6061C23.2763 73.4789 23.1228 73.3784 22.9543 73.3106C22.7858 73.2427 22.6056 73.2087 22.424 73.2106C22.2424 73.2125 22.0629 73.2502 21.8958 73.3215C21.7288 73.3928 21.5774 73.4964 21.4505 73.6263C21.3235 73.7562 21.2234 73.9099 21.1559 74.0785C21.0884 74.2472 21.0549 74.4275 21.0571 74.6091C21.0594 74.7907 21.0975 74.9701 21.1692 75.137C21.2409 75.3039 21.3448 75.455 21.475 75.5817L22.634 76.7145H18.6587V55.6889C18.6587 55.3225 18.5131 54.9712 18.2541 54.7122C17.9951 54.4531 17.6437 54.3076 17.2774 54.3076C16.9111 54.3076 16.5597 54.4531 16.3007 54.7122C16.0417 54.9712 15.8962 55.3225 15.8962 55.6889V78.096C15.8967 78.4621 16.0424 78.8132 16.3013 79.0721C16.5602 79.331 16.9112 79.4767 17.2774 79.4772H22.6344L21.4754 80.6082C21.3455 80.7349 21.2419 80.886 21.1704 81.0527C21.099 81.2195 21.061 81.3987 21.0588 81.5801C21.0543 81.9465 21.1955 82.2996 21.4514 82.5619C21.7073 82.8241 22.0569 82.974 22.4233 82.9785C22.7897 82.983 23.1428 82.8417 23.4051 82.5858L26.9923 79.0844C27.124 78.9556 27.2287 78.8018 27.3001 78.632C27.3716 78.4622 27.4084 78.2799 27.4084 78.0957C27.4084 77.9115 27.3716 77.7291 27.3001 77.5593C27.2287 77.3895 27.124 77.2357 26.9923 77.107L23.4069 73.6057L23.4059 73.6061ZM91.0772 55.6889V78.096C91.0769 78.4622 90.9313 78.8134 90.6723 79.0724C90.4134 79.3313 90.0622 79.477 89.6959 79.4772H84.3395L85.4973 80.6082C85.6272 80.7349 85.7308 80.886 85.8023 81.0527C85.8738 81.2195 85.9117 81.3987 85.9139 81.5801C85.9162 81.7615 85.8826 81.9416 85.8153 82.11C85.7479 82.2785 85.648 82.432 85.5213 82.5619C85.3946 82.6917 85.2436 82.7954 85.0768 82.8668C84.9101 82.9383 84.7309 82.9762 84.5494 82.9785C84.368 82.9807 84.188 82.9472 84.0195 82.8798C83.851 82.8124 83.6975 82.7126 83.5677 82.5858L79.9813 79.0848C79.8494 78.9561 79.7446 78.8023 79.673 78.6325C79.6014 78.4627 79.5646 78.2803 79.5646 78.0961C79.5646 77.9118 79.6014 77.7294 79.673 77.5596C79.7446 77.3898 79.8494 77.236 79.9813 77.1074L83.5681 73.6061C83.6966 73.4741 83.8503 73.3691 84.0201 73.2974C84.1899 73.2257 84.3723 73.1887 84.5565 73.1886C84.7408 73.1885 84.9233 73.2252 85.0932 73.2967C85.263 73.3681 85.4169 73.4729 85.5456 73.6047C85.6744 73.7365 85.7755 73.8928 85.8429 74.0643C85.9104 74.2358 85.9428 74.4191 85.9384 74.6033C85.9339 74.7875 85.8926 74.969 85.817 75.137C85.7413 75.3051 85.6328 75.4562 85.4977 75.5817L84.3399 76.7145H88.3145V55.6889C88.3145 55.3225 88.46 54.9712 88.719 54.7122C88.9781 54.4531 89.3294 54.3076 89.6957 54.3076C90.0621 54.3076 90.4134 54.4531 90.6724 54.7122C90.9315 54.9712 91.077 55.3225 91.077 55.6889H91.0772Z" fill="#231F20"/>
<path fill-rule="evenodd" clip-rule="evenodd" d="M39.9137 32.9062H43.6449C43.7651 32.9043 43.8798 32.8557 43.9648 32.7706C44.0497 32.6855 44.0982 32.5706 44.0998 32.4504V27.5872C44.098 27.4668 44.0493 27.3518 43.9641 27.2666C43.8789 27.1815 43.7639 27.1329 43.6434 27.1312H39.9137C39.6136 27.1313 39.3217 27.0337 39.0821 26.8532C38.8424 26.6726 38.6681 26.419 38.5854 26.1306C38.292 25.1125 37.8848 24.1307 37.3715 23.2038C37.2258 22.9417 37.1694 22.6393 37.2111 22.3424C37.2527 22.0455 37.3901 21.7702 37.6023 21.5584L40.2415 18.9178C40.3259 18.8321 40.3733 18.7165 40.3733 18.5962C40.3733 18.4758 40.3259 18.3603 40.2415 18.2745L36.8024 14.8354C36.7163 14.7507 36.6004 14.7033 36.4796 14.7033C36.3589 14.7033 36.2429 14.7507 36.1569 14.8354L33.5179 17.4744C33.3056 17.6868 33.0299 17.8242 32.7326 17.8659C32.4352 17.9076 32.1324 17.8512 31.8699 17.7054C30.944 17.19 29.962 16.7827 28.9431 16.4915C28.6548 16.4085 28.4013 16.2341 28.2208 15.9946C28.0403 15.755 27.9425 15.4632 27.9423 15.1633V11.4329C27.9407 11.3123 27.8921 11.1972 27.8069 11.112C27.7216 11.0269 27.6064 10.9784 27.4859 10.9771H22.6239C22.5036 10.9788 22.3888 11.0274 22.3038 11.1126C22.2189 11.1978 22.1706 11.3128 22.1693 11.4331V15.1633C22.169 15.4633 22.0712 15.7551 21.8906 15.9947C21.71 16.2343 21.4564 16.4086 21.1681 16.4915C20.1491 16.7833 19.1667 17.1906 18.2402 17.7054C17.978 17.8506 17.6757 17.9066 17.3789 17.8649C17.0822 17.8233 16.807 17.6862 16.5949 17.4744L13.9553 14.8354C13.869 14.751 13.7531 14.7037 13.6324 14.7037C13.5117 14.7037 13.3958 14.751 13.3096 14.8354L9.87146 18.2737C9.78701 18.3595 9.73967 18.4751 9.73967 18.5955C9.73967 18.7158 9.78701 18.8314 9.87146 18.9172L12.5107 21.5578C12.723 21.7698 12.8604 22.0452 12.9021 22.3423C12.9437 22.6395 12.8872 22.942 12.7412 23.2042C12.2282 24.1312 11.8211 25.113 11.5275 26.131C11.4448 26.4194 11.2705 26.6731 11.0308 26.8536C10.7911 27.0342 10.4992 27.1317 10.1991 27.1316H6.46912C6.34868 27.1333 6.23365 27.1819 6.14843 27.267C6.06322 27.3522 6.01453 27.4672 6.0127 27.5876V32.4506C6.01438 32.571 6.06298 32.686 6.14814 32.7711C6.23331 32.8562 6.34833 32.9046 6.46871 32.9062H10.1995C10.4994 32.9064 10.7912 33.0042 11.0307 33.1847C11.2702 33.3652 11.4445 33.6187 11.5273 33.907C11.8202 34.9253 12.2274 35.9071 12.741 36.8338C12.8869 37.0963 12.9433 37.3992 12.9016 37.6966C12.86 37.994 12.7225 38.2697 12.5101 38.482L9.87146 41.1212C9.78699 41.2074 9.73967 41.3232 9.73967 41.4439C9.73967 41.5645 9.78699 41.6804 9.87146 41.7665L13.31 45.2046C13.3966 45.2882 13.5122 45.3349 13.6325 45.3349C13.7529 45.3349 13.8685 45.2882 13.9551 45.2046L16.5949 42.5656C16.7231 42.4373 16.8753 42.3355 17.0429 42.2661C17.2105 42.1967 17.3901 42.161 17.5715 42.1612C17.8058 42.1602 18.0364 42.22 18.2406 42.3349C19.1683 42.8481 20.1507 43.2553 21.1695 43.5488C21.458 43.6312 21.7118 43.8055 21.8923 44.0452C22.0729 44.2849 22.1704 44.5769 22.1701 44.877V48.6072C22.1712 48.7273 22.2193 48.8422 22.304 48.9274C22.3887 49.0126 22.5033 49.0613 22.6234 49.0632H27.4865C27.6069 49.0618 27.722 49.0133 27.8072 48.9281C27.8924 48.8429 27.9408 48.7278 27.9423 48.6074V44.877C27.9421 44.577 28.0397 44.2852 28.2201 44.0455C28.4006 43.8059 28.6541 43.6315 28.9425 43.5488C29.9609 43.2558 30.9429 42.8485 31.8697 42.3347C32.1321 42.1889 32.4349 42.1327 32.7322 42.1744C33.0294 42.2161 33.305 42.3535 33.5172 42.5658L36.1579 45.2046C36.2444 45.2882 36.3599 45.3349 36.4802 45.3349C36.6005 45.3349 36.7161 45.2882 36.8026 45.2046L40.2409 41.7663C40.3253 41.6802 40.3727 41.5644 40.3727 41.4438C40.3727 41.3231 40.3253 41.2073 40.2409 41.1212L37.6023 38.4822C37.3899 38.27 37.2524 37.9943 37.2107 37.697C37.169 37.3996 37.2253 37.0967 37.3711 36.8343C37.8851 35.9077 38.2923 34.9258 38.585 33.9074C38.6678 33.619 38.8423 33.3653 39.0819 33.1847C39.3216 33.0041 39.6135 32.9063 39.9137 32.9062ZM25.0549 18.0903C27.4143 18.0899 29.7208 18.7892 31.6828 20.0997C33.6447 21.4102 35.174 23.2731 36.0772 25.4528C36.9804 27.6325 37.2169 30.0311 36.7568 32.3452C36.2968 34.6593 35.1608 36.785 33.4926 38.4535C31.8244 40.122 29.6989 41.2583 27.3848 41.7188C25.0708 42.1792 22.6722 41.9431 20.4923 41.0403C18.3125 40.1375 16.4493 38.6085 15.1385 36.6468C13.8276 34.685 13.128 32.3786 13.128 30.0192C13.1319 26.857 14.3897 23.8254 16.6255 21.5892C18.8613 19.353 21.8927 18.0947 25.0549 18.0903Z" fill="#00ABEA"/>
<path fill-rule="evenodd" clip-rule="evenodd" d="M59.9012 27.5876V32.4506C59.9029 32.5708 59.9513 32.6856 60.0363 32.7707C60.1212 32.8558 60.236 32.9044 60.3562 32.9062H64.0866C64.3866 32.9062 64.6785 33.0038 64.9181 33.1844C65.1577 33.3649 65.332 33.6186 65.4146 33.907C65.7079 34.9252 66.1151 35.907 66.6285 36.8338C66.7744 37.0963 66.8308 37.3992 66.7891 37.6966C66.7474 37.994 66.61 38.2697 66.3975 38.482L63.7587 41.1208C63.674 41.2064 63.6265 41.322 63.6265 41.4424C63.6265 41.5629 63.674 41.6785 63.7587 41.7641L67.1968 45.2042C67.2835 45.2878 67.3991 45.3345 67.5195 45.3345C67.6399 45.3345 67.7555 45.2878 67.8422 45.2042L70.4812 42.5652C70.6094 42.4369 70.7617 42.3351 70.9293 42.2657C71.0969 42.1963 71.2766 42.1606 71.458 42.1608C71.6923 42.1598 71.9229 42.2196 72.1271 42.3345C73.0547 42.8477 74.0372 43.2549 75.056 43.5483C75.3445 43.6308 75.5983 43.8051 75.7789 44.0448C75.9595 44.2845 76.057 44.5765 76.0568 44.8766V48.6068C76.058 48.7272 76.1064 48.8424 76.1916 48.9277C76.2767 49.0129 76.3919 49.0614 76.5124 49.0628H81.3758C81.4961 49.0611 81.611 49.0125 81.6961 48.9274C81.7811 48.8423 81.8296 48.7273 81.8312 48.607V44.877C81.8306 44.5771 81.9277 44.2852 82.1079 44.0455C82.2881 43.8059 82.5415 43.6314 82.8298 43.5488C83.8486 43.2554 84.8312 42.8483 85.7588 42.3349C86.0209 42.1892 86.3233 42.133 86.6202 42.1747C86.9171 42.2163 87.1923 42.3537 87.4041 42.5658L90.045 45.2046C90.1315 45.2882 90.2471 45.3349 90.3674 45.3349C90.4877 45.3349 90.6033 45.2882 90.6899 45.2046L94.1278 41.7663C94.212 41.6801 94.2591 41.5643 94.2591 41.4438C94.2591 41.3232 94.212 41.2075 94.1278 41.1212L91.4898 38.4822C91.2773 38.27 91.1397 37.9944 91.098 37.697C91.0562 37.3997 91.1124 37.0968 91.2582 36.8343C91.7717 35.9075 92.1789 34.9256 92.4719 33.9074C92.5546 33.619 92.729 33.3653 92.9686 33.1847C93.2082 33.0041 93.5001 32.9064 93.8001 32.9062H97.5309C97.6512 32.9045 97.7662 32.856 97.8512 32.7708C97.9363 32.6857 97.9848 32.5707 97.9863 32.4504V27.5876C97.9845 27.4672 97.9359 27.3522 97.8507 27.267C97.7655 27.1819 97.6505 27.1333 97.5301 27.1316H93.8007C93.5006 27.1318 93.2086 27.0343 92.9688 26.8538C92.729 26.6732 92.5546 26.4195 92.4719 26.131C92.1782 25.113 91.7711 24.1313 91.2582 23.2042C91.1125 22.9421 91.0563 22.6397 91.0979 22.3428C91.1395 22.0459 91.2768 21.7707 91.489 21.5588L94.1284 18.9182C94.2126 18.8323 94.2597 18.7169 94.2597 18.5966C94.2597 18.4763 94.2126 18.3608 94.1284 18.2749L90.6903 14.8354C90.6041 14.7507 90.4881 14.7033 90.3672 14.7033C90.2464 14.7033 90.1304 14.7507 90.0441 14.8354L87.406 17.4744C87.194 17.6868 86.9185 17.8242 86.6214 17.8659C86.3243 17.9076 86.0216 17.8512 85.7594 17.7054C84.8326 17.1903 83.8498 16.7831 82.8304 16.4915C82.5423 16.4085 82.2891 16.234 82.1089 15.9944C81.9287 15.7548 81.8314 15.463 81.8316 15.1633V11.4329C81.8299 11.3125 81.7813 11.1975 81.6961 11.1124C81.611 11.0273 81.496 10.9787 81.3756 10.9771H76.5128C76.3923 10.9785 76.2771 11.027 76.1919 11.1122C76.1067 11.1974 76.0582 11.3126 76.0568 11.4331V15.1633C76.0566 15.4633 75.9588 15.7552 75.7782 15.9948C75.5976 16.2344 75.344 16.4087 75.0555 16.4915C74.0362 16.7832 73.0535 17.1905 72.1267 17.7054C71.8645 17.8506 71.5622 17.9066 71.2654 17.8649C70.9686 17.8233 70.6934 17.6862 70.4814 17.4744L67.8434 14.8354C67.7572 14.751 67.6413 14.7037 67.5206 14.7037C67.4 14.7037 67.2841 14.751 67.1979 14.8354L63.7587 18.2737C63.6741 18.3594 63.6266 18.475 63.6266 18.5955C63.6266 18.7159 63.6741 18.8315 63.7587 18.9172L66.3994 21.5578C66.6117 21.7698 66.7491 22.0453 66.7906 22.3424C66.8321 22.6395 66.7756 22.9421 66.6295 23.2042C66.1168 24.1313 65.7096 25.1131 65.4156 26.131C65.3332 26.4195 65.1589 26.6733 64.9192 26.8539C64.6795 27.0344 64.3875 27.1319 64.0874 27.1316H60.3564C60.236 27.1333 60.121 27.1819 60.0359 27.2671C59.9507 27.3522 59.9021 27.4672 59.9004 27.5876H59.9012ZM67.0163 30.0192C67.0164 27.6601 67.7161 25.3541 69.0269 23.3926C70.3376 21.4312 72.2005 19.9024 74.3801 18.9997C76.5596 18.097 78.9579 17.8609 81.2716 18.3211C83.5854 18.7814 85.7107 19.9174 87.3788 21.5856C89.047 23.2537 90.183 25.379 90.6432 27.6928C91.1035 30.0065 90.8674 32.4048 89.9647 34.5843C89.062 36.7639 87.5332 38.6268 85.5718 39.9375C83.6103 41.2483 81.3043 41.948 78.9452 41.9481C75.7825 41.9444 72.7504 40.6865 70.514 38.4502C68.2775 36.2139 67.0194 33.1819 67.0155 30.0192H67.0163Z" fill="#00ABEA"/>
<path fill-rule="evenodd" clip-rule="evenodd" d="M64.5883 58.7954L61.9503 61.4342C61.7379 61.6466 61.4621 61.7841 61.1646 61.8258C60.8671 61.8675 60.5642 61.8112 60.3015 61.6653C59.3748 61.1515 58.3929 60.7443 57.3745 60.4514C57.086 60.3688 56.8323 60.1944 56.6517 59.9547C56.4712 59.7151 56.3736 59.4231 56.3737 59.123V55.3926C56.3719 55.2722 56.3232 55.1573 56.2379 55.0722C56.1527 54.9871 56.0377 54.9386 55.9173 54.937H51.0553C50.9349 54.9386 50.8199 54.9871 50.7347 55.072C50.6495 55.157 50.6007 55.2719 50.5987 55.3922V59.1224C50.5987 59.4226 50.501 59.7146 50.3203 59.9543C50.1396 60.194 49.8857 60.3683 49.5971 60.4508C48.579 60.7445 47.5973 61.1517 46.6702 61.6647C46.4078 61.8106 46.1049 61.8669 45.8076 61.8253C45.5102 61.7836 45.2345 61.6461 45.0223 61.4338L42.3841 58.7948C42.2977 58.7113 42.1822 58.6646 42.062 58.6646C41.9419 58.6646 41.8264 58.7113 41.74 58.7948L38.3013 62.2335C38.2593 62.2762 38.2261 62.3268 38.2037 62.3823C38.1813 62.4379 38.1701 62.4973 38.1707 62.5572C38.17 62.6168 38.1811 62.6759 38.2035 62.7312C38.2258 62.7864 38.2589 62.8367 38.3009 62.879L40.9415 65.5176C41.1531 65.7304 41.2899 66.0061 41.3315 66.3033C41.373 66.6006 41.3171 66.9032 41.172 67.1659C40.6571 68.0923 40.2492 69.0742 39.9563 70.0928C39.8738 70.3809 39.6997 70.6344 39.4605 70.8149C39.2212 70.9955 38.9297 71.0933 38.6299 71.0936H34.8987C34.7784 71.0951 34.6634 71.1436 34.5785 71.2289C34.4936 71.3141 34.4454 71.4292 34.4443 71.5496V76.4126C34.4455 76.5327 34.4935 76.6477 34.5782 76.7329C34.6629 76.8181 34.7776 76.8668 34.8977 76.8686H38.6301C38.9299 76.8684 39.2216 76.9661 39.4609 77.1467C39.7002 77.3273 39.8741 77.581 39.9561 77.8694C40.2493 78.8879 40.6572 79.8698 41.1718 80.7962C41.3167 81.0585 41.3725 81.3607 41.3309 81.6574C41.2893 81.9541 41.1525 82.2293 40.9411 82.4416L38.3005 85.0822C38.2168 85.1684 38.17 85.2838 38.17 85.4039C38.17 85.5241 38.2168 85.6395 38.3005 85.7257L41.7408 89.1638C41.8265 89.2482 41.942 89.2954 42.0623 89.2954C42.1826 89.2954 42.2981 89.2482 42.3839 89.1638L45.0233 86.5248C45.2356 86.3127 45.5112 86.1754 45.8084 86.1337C46.1057 86.0921 46.4084 86.1483 46.6708 86.2938C47.5971 86.8085 48.579 87.2158 49.5977 87.5077C49.886 87.5907 50.1395 87.7651 50.32 88.0047C50.5005 88.2443 50.5982 88.5361 50.5985 88.8361V92.5661C50.5999 92.6864 50.6483 92.8014 50.7333 92.8866C50.8183 92.9718 50.9332 93.0204 51.0535 93.0221H55.9175C56.0377 93.0203 56.1525 92.9717 56.2375 92.8866C56.3224 92.8014 56.3709 92.6866 56.3725 92.5663V88.8359C56.3724 88.536 56.4699 88.2441 56.6503 88.0045C56.8308 87.7648 57.0843 87.5905 57.3727 87.5077C58.3916 87.2166 59.3738 86.8093 60.2997 86.2938C60.5623 86.1484 60.8651 86.0923 61.1624 86.1339C61.4597 86.1756 61.7354 86.3128 61.9479 86.5248L64.5871 89.1636C64.6728 89.248 64.7882 89.2953 64.9085 89.2953C65.0288 89.2953 65.1443 89.248 65.23 89.1636L68.6709 85.7253C68.7543 85.6389 68.8009 85.5236 68.8009 85.4035C68.8009 85.2835 68.7543 85.1681 68.6709 85.0818L66.0321 82.4412C65.82 82.2293 65.6825 81.9543 65.6405 81.6574C65.5985 81.3606 65.6542 81.0582 65.7991 80.7958C66.3137 79.8693 66.7216 78.8874 67.015 77.869C67.0974 77.5808 67.2713 77.3273 67.5105 77.1467C67.7498 76.9661 68.0413 76.8684 68.341 76.8682H72.0743C72.1943 76.8663 72.3088 76.8175 72.3935 76.7324C72.4781 76.6473 72.5262 76.5324 72.5274 76.4124V71.5492C72.5262 71.4292 72.4782 71.3144 72.3936 71.2294C72.309 71.1443 72.1944 71.0956 72.0745 71.0938H68.3422C68.0426 71.0934 67.7511 70.9956 67.5119 70.8151C67.2727 70.6347 67.0986 70.3813 67.016 70.0932C66.7234 69.0745 66.3154 68.0925 65.8001 67.1664C65.6553 66.9035 65.5997 66.6006 65.6417 66.3034C65.6837 66.0062 65.8211 65.7306 66.0331 65.5182L68.6737 62.8794C68.7572 62.7927 68.8038 62.6771 68.8038 62.5567C68.8038 62.4364 68.7572 62.3208 68.6737 62.2341L65.2338 58.7958C65.1475 58.7123 65.0321 58.6656 64.912 58.6656C64.7919 58.6656 64.6764 58.7123 64.5901 58.7958L64.5883 58.7954ZM53.4863 62.0521C55.8456 62.0521 58.1519 62.7517 60.1136 64.0625C62.0753 65.3732 63.6043 67.2363 64.5072 69.416C65.41 71.5957 65.6463 73.9942 65.186 76.3082C64.7257 78.6222 63.5896 80.7477 61.9213 82.416C60.253 84.0843 58.1275 85.2204 55.8135 85.6807C53.4995 86.141 51.101 85.9048 48.9213 85.0019C46.7416 84.099 44.8785 82.57 43.5678 80.6083C42.257 78.6466 41.5574 76.3403 41.5574 73.981C41.5609 70.8183 42.8188 67.7862 45.0551 65.5498C47.2915 63.3135 50.3236 62.0556 53.4863 62.0521Z" fill="#00ABEA"/>
</svg>
