<svg width="104" height="104" viewBox="0 0 104 104" fill="none" xmlns="http://www.w3.org/2000/svg">
<path fill-rule="evenodd" clip-rule="evenodd" d="M64.8928 62.8224C64.1901 62.8225 63.5032 62.6142 62.9189 62.2239C62.3345 61.8336 61.8791 61.2788 61.6101 60.6297C61.3411 59.9805 61.2707 59.2662 61.4077 58.577C61.5447 57.8878 61.883 57.2547 62.3798 56.7578C62.8767 56.2609 63.5097 55.9225 64.1988 55.7854C64.888 55.6482 65.6024 55.7185 66.2516 55.9874C66.9008 56.2563 67.4556 56.7117 67.846 57.2959C68.2364 57.8801 68.4448 58.567 68.4448 59.2697C68.4436 60.2115 68.069 61.1143 67.4032 61.7803C66.7373 62.4463 65.8345 62.821 64.8928 62.8224ZM47.4583 57.5547C46.7557 57.5549 46.0687 57.3467 45.4844 56.9564C44.9 56.5661 44.4446 56.0113 44.1755 55.3622C43.9065 54.713 43.8361 53.9987 43.973 53.3095C44.11 52.6203 44.4483 51.9872 44.9451 51.4902C45.442 50.9933 46.075 50.6549 46.7641 50.5177C47.4533 50.3806 48.1677 50.4509 48.8169 50.7198C49.4661 50.9886 50.021 51.444 50.4114 52.0282C50.8018 52.6125 51.0102 53.2994 51.0102 54.0021C51.0091 54.9438 50.6345 55.8467 49.9687 56.5126C49.3028 57.1786 48.4001 57.5534 47.4583 57.5547ZM29.3565 70.0183C28.6538 70.0184 27.9668 69.8102 27.3825 69.4199C26.7981 69.0297 26.3427 68.4749 26.0737 67.8257C25.8046 67.1766 25.7342 66.4622 25.8712 65.773C26.0081 65.0838 26.3464 64.4507 26.8432 63.9538C27.3401 63.4569 27.9731 63.1184 28.6623 62.9813C29.3514 62.8441 30.0658 62.9144 30.715 63.1833C31.3642 63.4522 31.9191 63.9075 32.3095 64.4918C32.6999 65.076 32.9083 65.7629 32.9083 66.4656C32.9071 67.4073 32.5326 68.3102 31.8667 68.9761C31.2009 69.6421 30.2982 70.0169 29.3565 70.0183ZM80.6199 46.4074C81.3224 46.4075 82.0091 46.6159 82.5931 47.0063C83.1771 47.3966 83.6323 47.9514 83.901 48.6004C84.1697 49.2495 84.24 49.9636 84.1028 50.6526C83.9656 51.3415 83.6272 51.9743 83.1304 52.471C82.6336 52.9676 82.0006 53.3057 81.3116 53.4426C80.6226 53.5795 79.9085 53.509 79.2596 53.24C78.6106 52.971 78.056 52.5157 77.6659 51.9315C77.2758 51.3473 77.0677 50.6605 77.0679 49.9581C77.069 49.0165 77.4436 48.1137 78.1095 47.4481C78.7755 46.7824 79.6783 46.4081 80.6199 46.4074ZM76.1991 54.4619C77.3062 55.5449 78.7738 56.1815 80.321 56.2501C81.8682 56.3187 83.3863 55.8143 84.5849 54.8336C85.7835 53.8529 86.5784 52.4646 86.8174 50.9345C87.0565 49.4043 86.7229 47.8398 85.8806 46.5402C85.0383 45.2406 83.7463 44.2972 82.2519 43.8906C80.7575 43.484 79.1657 43.6427 77.781 44.3363C76.3964 45.0299 75.3161 46.2098 74.7469 47.6501C74.1777 49.0904 74.1596 50.69 74.696 52.1429L69.807 55.3086C69.0998 54.4296 68.1699 53.7563 67.1142 53.3588C66.0584 52.9613 64.9154 52.8541 63.8042 53.0484C62.6929 53.2427 61.6541 53.7313 60.7958 54.4635C59.9376 55.1956 59.2913 56.1445 58.9243 57.2112L53.7424 54.6315C53.7627 54.4242 53.7739 54.2131 53.7739 54.0019C53.7743 53.0636 53.5656 52.1369 53.1629 51.2894C52.7603 50.4419 52.1739 49.6947 51.4463 49.1022C50.7187 48.5098 49.8682 48.0869 48.9566 47.8643C48.0451 47.6418 47.0954 47.6252 46.1766 47.8157C45.2579 48.0062 44.3931 48.399 43.6452 48.9656C42.8973 49.5322 42.285 50.2584 41.853 51.0913C41.4209 51.9242 41.1799 52.843 41.1474 53.7807C41.1149 54.7185 41.2918 55.6517 41.6652 56.5125L33.9497 62.1374C32.8848 61.0108 31.4418 60.3163 29.897 60.1868C28.3521 60.0572 26.8137 60.5018 25.5759 61.4353C24.3382 62.3689 23.4881 63.7259 23.1882 65.247C22.8882 66.768 23.1595 68.3462 23.9502 69.6797C24.7408 71.0133 25.9953 72.0085 27.4737 72.4752C28.9521 72.9418 30.5507 72.8471 31.9636 72.2091C33.3766 71.5711 34.5047 70.4347 35.1323 69.0171C35.76 67.5995 35.843 66.0003 35.3655 64.5254L43.2941 58.7438C43.9862 59.3539 44.8037 59.8047 45.6891 60.0643C46.5744 60.3238 47.506 60.3859 48.4179 60.246C49.3299 60.1062 50.2 59.7678 50.9669 59.2549C51.7338 58.742 52.3787 58.0669 52.8562 57.2775L58.6412 60.157C58.7603 61.0031 59.0499 61.8163 59.4925 62.5472C59.9351 63.2781 60.5215 63.9116 61.216 64.4093C61.9106 64.907 62.699 65.2586 63.5334 65.4427C64.3679 65.6268 65.231 65.6396 66.0705 65.4804C66.91 65.3212 67.7085 64.9932 68.4175 64.5164C69.1266 64.0395 69.7315 63.4237 70.1956 62.7063C70.6597 61.9888 70.9734 61.1846 71.1176 60.3424C71.2618 59.5001 71.2336 58.6374 71.0347 57.8064L76.1991 54.463V54.4619ZM33.1659 97.9876H26.4831V82.286L29.8243 79.724L33.1655 82.286V97.9876H33.1659ZM35.3881 80.507L30.6654 76.8853C30.4243 76.7 30.1287 76.5996 29.8246 76.5996C29.5205 76.5996 29.2249 76.7 28.9837 76.8853L24.2611 80.5068C24.093 80.636 23.9568 80.8021 23.863 80.9923C23.7693 81.1825 23.7205 81.3917 23.7203 81.6037V99.3688C23.7203 99.7352 23.8659 100.086 24.1249 100.346C24.3839 100.605 24.7353 100.75 25.1016 100.75H34.5469C34.7283 100.75 34.9079 100.714 35.0755 100.645C35.2431 100.576 35.3953 100.474 35.5236 100.346C35.6519 100.217 35.7536 100.065 35.823 99.8974C35.8924 99.7298 35.9282 99.5502 35.9282 99.3688V81.6037C35.9281 81.3917 35.8792 81.1825 35.7855 80.9923C35.6917 80.8021 35.5556 80.636 35.3874 80.5068L35.3881 80.507ZM50.1004 97.9876H43.4176V70.1861L46.759 67.6242L50.1002 70.1861L50.1004 97.9876ZM52.3228 68.4085C52.4909 68.5377 52.6271 68.7038 52.7208 68.894C52.8146 69.0842 52.8634 69.2934 52.8635 69.5054V99.3688C52.8635 99.5502 52.8278 99.7298 52.7584 99.8974C52.6889 100.065 52.5872 100.217 52.4589 100.346C52.3307 100.474 52.1784 100.576 52.0108 100.645C51.8433 100.714 51.6636 100.75 51.4823 100.75H42.0369C41.6706 100.75 41.3193 100.605 41.0602 100.346C40.8012 100.086 40.6557 99.7352 40.6557 99.3688V69.5052C40.6559 69.2931 40.7047 69.084 40.7985 68.8938C40.8923 68.7036 41.0285 68.5375 41.1966 68.4083L45.9195 64.7868C46.1608 64.6019 46.4562 64.5018 46.7602 64.5018C47.0642 64.5018 47.3597 64.6019 47.6009 64.7868L52.3236 68.4083L52.3228 68.4085ZM68.0611 97.9876H61.3783V74.0643L64.7199 71.5001L68.0611 74.0639V97.9876ZM70.2835 72.2868C70.4516 72.4157 70.5878 72.5815 70.6816 72.7715C70.7753 72.9614 70.8241 73.1704 70.8242 73.3822V99.3688C70.8242 99.7352 70.6787 100.086 70.4197 100.346C70.1606 100.605 69.8093 100.75 69.443 100.75H59.9977C59.6313 100.75 59.28 100.605 59.021 100.346C58.7619 100.086 58.6164 99.7352 58.6164 99.3688V73.3814C58.6165 73.1696 58.6653 72.9606 58.7591 72.7707C58.8528 72.5807 58.989 72.4149 59.1571 72.286L63.88 68.6624C64.1215 68.478 64.417 68.3782 64.7208 68.3782C65.0247 68.3782 65.3201 68.478 65.5617 68.6624L70.2843 72.286L70.2835 72.2868ZM83.9699 97.9876H77.2887V65.3901L80.6297 62.8283L83.9709 65.3901V97.9876H83.9699ZM86.1925 63.6127C86.3606 63.7419 86.4967 63.908 86.5905 64.0982C86.6842 64.2884 86.7329 64.4976 86.733 64.7096V99.3688C86.733 99.7352 86.5874 100.086 86.3284 100.346C86.0694 100.605 85.7181 100.75 85.3517 100.75H75.9064C75.5401 100.75 75.1888 100.605 74.9297 100.346C74.6707 100.086 74.5252 99.7352 74.5252 99.3688V64.7092C74.5252 64.4972 74.574 64.288 74.6678 64.0978C74.7615 63.9076 74.8977 63.7415 75.0659 63.6123L79.7885 59.9906C80.03 59.8062 80.3254 59.7063 80.6293 59.7063C80.9331 59.7063 81.2285 59.8062 81.47 59.9906L86.1931 63.6123L86.1925 63.6127ZM65.1087 9.85549C65.0285 9.69278 64.9811 9.51585 64.9693 9.33483C64.9574 9.1538 64.9814 8.97222 65.0397 8.80044C65.098 8.62867 65.1897 8.47007 65.3093 8.33369C65.4289 8.19732 65.5742 8.08584 65.737 8.00563C65.8997 7.92542 66.0766 7.87804 66.2576 7.86621C66.4386 7.85437 66.6202 7.87831 66.792 7.93665C66.9638 7.99499 67.1224 8.08659 67.2588 8.20622C67.3951 8.32586 67.5066 8.47118 67.5868 8.6339L68.8074 11.112C68.8929 11.2753 68.9449 11.4541 68.9603 11.6378C68.9757 11.8215 68.9541 12.0064 68.8969 12.1817C68.8397 12.3569 68.748 12.5189 68.6271 12.6582C68.5063 12.7974 68.3589 12.9111 68.1934 12.9924C68.028 13.0738 67.848 13.1212 67.6639 13.1319C67.4799 13.1426 67.2956 13.1163 67.1218 13.0547C66.9481 12.993 66.7885 12.8972 66.6524 12.7729C66.5162 12.6485 66.4064 12.4982 66.3293 12.3308L65.1085 9.85387L65.1087 9.85549ZM29.4487 10.554L30.6693 8.07713C30.7464 7.90969 30.8562 7.75937 30.9923 7.63505C31.1285 7.51073 31.2881 7.41491 31.4618 7.35325C31.6356 7.29158 31.8199 7.26532 32.0039 7.27601C32.188 7.2867 32.368 7.33411 32.5334 7.41547C32.6988 7.49683 32.8463 7.61048 32.9671 7.74972C33.0879 7.88896 33.1797 8.05098 33.2369 8.22622C33.2941 8.40147 33.3157 8.5864 33.3003 8.7701C33.2849 8.95381 33.2329 9.13258 33.1474 9.29588L31.9268 11.774C31.7648 12.1026 31.4789 12.3534 31.1319 12.4712C30.785 12.589 30.4055 12.5642 30.0768 12.4022C29.7482 12.2402 29.4974 11.9542 29.3796 11.6073C29.2618 11.2604 29.2867 10.8808 29.4487 10.5522V10.554ZM19.8638 27.0045C19.8911 27.0859 19.9341 27.161 19.9905 27.2257C20.0469 27.2903 20.1154 27.3432 20.1923 27.3813L24.3712 29.4398C24.5274 29.5144 24.7066 29.525 24.8705 29.4692C25.0344 29.4135 25.17 29.2959 25.2485 29.1416L35.1606 9.01679C35.1982 8.93963 35.2203 8.85577 35.2255 8.77005C35.2306 8.68433 35.2188 8.59843 35.1906 8.5173C35.1353 8.35272 35.0174 8.21655 34.8624 8.13827L30.6843 6.08184C30.5967 6.03721 30.4996 6.01423 30.4013 6.0148C30.3277 6.01546 30.2546 6.02745 30.1846 6.05035C30.02 6.10592 29.8841 6.22447 29.8068 6.38002L19.8943 26.5032C19.8182 26.6597 19.8071 26.84 19.8638 27.0045ZM45.1277 11.8528L41.5793 13.2048C38.8674 14.2369 38.1946 16.1908 38.4691 17.677C38.8119 19.5303 40.5527 20.9849 42.4594 21.0343C44.4405 21.2906 47.1602 20.953 50.7549 19.9983C52.409 21.0148 58.0871 24.5035 67.7891 30.4646C67.4467 30.9113 66.9695 31.2358 66.4282 31.3902L50.5331 23.5884C50.3696 23.5014 50.1903 23.4482 50.0059 23.4319C49.8215 23.4156 49.6357 23.4366 49.4595 23.4935C49.2834 23.5504 49.1205 23.6422 48.9805 23.7634C48.8405 23.8845 48.7263 24.0326 48.6446 24.1987C48.563 24.3649 48.5156 24.5458 48.5053 24.7306C48.4949 24.9155 48.5218 25.1005 48.5844 25.2747C48.647 25.449 48.744 25.6088 48.8696 25.7449C48.9952 25.8809 49.1468 25.9902 49.3155 26.0665L65.633 34.0755C65.6876 34.103 65.7444 34.1261 65.8028 34.1446C65.8053 34.1467 65.8084 34.1481 65.8117 34.1486C68.0378 34.8787 68.6786 36.4795 68.4225 37.3834C68.1688 38.2771 67.0733 38.6208 65.5458 38.2975L48.3117 28.5968C48.1536 28.5078 47.9795 28.4508 47.7994 28.4291C47.6192 28.4074 47.4366 28.4214 47.2619 28.4702C47.0871 28.5191 46.9238 28.6019 46.781 28.7139C46.6383 28.8259 46.519 28.9649 46.43 29.123C46.341 29.2811 46.284 29.4552 46.2623 29.6353C46.2406 29.8154 46.2546 29.9981 46.3034 30.1728C46.3523 30.3475 46.4351 30.5109 46.5471 30.6537C46.6591 30.7964 46.7981 30.9157 46.9562 31.0047L63.5418 40.3407C63.359 41.0571 63.01 41.5308 62.4951 41.7479C61.3795 42.2196 59.3925 41.6513 57.9723 40.4553C57.9705 40.4553 57.9682 40.4532 57.9662 40.4512C57.9201 40.4137 57.872 40.3788 57.822 40.3466L57.8017 40.3348C57.7852 40.3234 57.7681 40.3129 57.7505 40.3033L45.5224 33.4724C45.2026 33.2937 44.8248 33.2494 44.4723 33.3491C44.1198 33.4489 43.8214 33.6846 43.6426 34.0044C43.4639 34.3242 43.4196 34.7019 43.5193 35.0544C43.6191 35.407 43.8548 35.7054 44.1746 35.8841L55.6075 42.2704C55.459 42.908 55.142 43.4152 54.7105 43.6679C54.0749 44.0408 53.3331 43.7883 52.8229 43.5101L31.6146 31.9957C29.6729 30.2667 29.1342 28.3307 29.9169 25.9168L34.6982 16.2103C34.6982 16.2084 34.6999 16.2064 34.7007 16.2064C37.2257 12.279 40.7642 11.5725 45.1277 11.8528ZM63.3793 16.325C60.5461 11.4009 57.7241 10.4929 51.3183 12.4529L42.5622 15.7863C42.1036 15.962 41.0514 16.4455 41.1861 17.1739C41.2684 17.4785 41.4456 17.749 41.692 17.9462C41.9383 18.1434 42.2411 18.2571 42.5563 18.2708H42.5612C42.6258 18.2714 42.6903 18.276 42.7544 18.2846C44.4415 18.5234 47.0809 18.1503 50.6011 17.1773C50.7839 17.127 50.975 17.1146 51.1628 17.1411C51.3505 17.1676 51.5308 17.2323 51.6925 17.3313C51.6925 17.3313 57.3416 20.8009 68.587 27.711C68.5633 27.1197 68.4154 26.54 68.1527 26.0096C68.1501 26.0058 68.1481 25.9997 68.1458 25.9958L63.3903 16.3409C63.3868 16.335 63.3827 16.3309 63.3793 16.325ZM62.8325 8.5173C62.8044 8.59844 62.7927 8.6843 62.7979 8.76998C62.8032 8.85566 62.8253 8.93946 62.8629 9.01658L72.7754 29.142C72.8544 29.2959 72.9901 29.4131 73.1538 29.4687C73.3176 29.5243 73.4966 29.514 73.6529 29.44L77.8316 27.3813C77.9864 27.3037 78.1045 27.1682 78.1603 27.0043C78.2161 26.8404 78.2052 26.661 78.13 26.505L68.2175 6.37982C68.1793 6.30274 68.1263 6.23395 68.0614 6.17738C67.9966 6.12081 67.9213 6.07758 67.8397 6.05015C67.7698 6.02711 67.6968 6.01512 67.6232 6.0146C67.5249 6.01401 67.428 6.037 67.3404 6.08163L63.1611 8.13848C63.0059 8.21646 62.8878 8.35262 62.8325 8.5173ZM44.9223 43.595C43.7182 43.7745 42.8025 43.6602 42.4105 43.2793C42.0459 42.924 42.0203 42.2155 42.0753 41.6255C42.1789 41.3669 42.2683 41.1497 42.3463 40.9661L46.3052 43.1154C45.8795 43.3629 45.4099 43.5258 44.9223 43.595ZM36.5942 41.8207C37.3764 41.7102 38.282 41.1556 39.1581 40.6188C39.3078 40.528 39.4601 40.4331 39.6131 40.3425C39.7201 40.0801 39.8176 39.8471 39.9076 39.6417L35.9154 37.4748C35.5936 38.0314 35.113 38.868 34.398 40.1175C34.5069 40.6862 34.7135 41.2917 35.1071 41.5938C35.4258 41.8375 35.9263 41.9153 36.5942 41.8207ZM29.627 37.5101C29.8364 37.9582 30.2431 38.8148 32.0871 38.5958C32.7306 37.4707 33.1766 36.6932 33.487 36.1563L30.5169 34.5419C30.2488 34.9169 29.9557 35.3274 29.8754 35.444C29.2661 36.4939 29.4414 37.1252 29.627 37.5101ZM24.6557 32.2695C25.1926 32.2695 25.722 32.1432 26.2011 31.901C26.6803 31.6588 27.0958 31.3074 27.4142 30.8751C27.6884 31.5118 28.0422 32.1114 28.467 32.6593C27.5779 33.9006 27.559 33.9323 27.5123 34.0113C26.3104 36.0481 26.6453 37.6919 27.1302 38.6948C27.6567 39.8215 28.9419 41.5211 31.8671 41.3848C32.1177 42.3299 32.663 43.1705 33.4238 43.7847C34.3531 44.4991 35.5495 44.7597 36.9803 44.5566C37.8711 44.4031 38.726 44.0873 39.5026 43.6248C39.6839 44.2455 40.0219 44.809 40.4843 45.261C41.2933 46.0465 42.4343 46.4432 43.8852 46.4432C44.3699 46.4403 44.8537 46.4014 45.3326 46.3268C46.697 46.1371 47.9643 45.5144 48.9483 44.5505L51.5044 45.9398C52.2689 46.3694 53.1285 46.6014 54.0053 46.615C54.7425 46.6186 55.4673 46.4251 56.1046 46.0544C56.9803 45.5253 57.6559 44.7209 58.0257 43.767C59.7438 44.6254 61.8242 45.03 63.5696 44.2939C64.3671 43.9563 65.6293 43.1294 66.1794 41.1696C68.9126 41.3295 70.5898 39.8696 71.0808 38.138C71.549 36.4862 70.9924 34.4178 69.2478 32.9315C69.791 32.4499 70.2397 31.8713 70.5709 31.2253C70.6128 31.1462 70.6501 31.0628 70.6883 30.9825C71.0101 31.3846 71.4181 31.7091 71.8822 31.9322C72.3463 32.1552 72.8546 32.2711 73.3696 32.2711C73.8916 32.2714 74.4066 32.1512 74.8745 31.9199L79.0532 29.8615C79.8653 29.4596 80.485 28.7523 80.7767 27.8945C81.0683 27.0367 81.0082 26.0982 80.6094 25.2847L70.6969 5.15904C70.2948 4.34716 69.5874 3.72767 68.7296 3.43624C67.8718 3.1448 66.9335 3.20517 66.12 3.60412L61.9401 5.66137C61.2678 5.99312 60.7233 6.53671 60.3903 7.20841C60.0574 7.88011 59.9545 8.64264 60.0976 9.37855C57.3985 8.2829 54.3345 8.66599 50.7622 9.73565C46.2181 9.08443 41.5923 8.46855 37.7012 10.095C38.0537 9.28981 38.0822 8.37975 37.7809 7.5541C37.4795 6.72844 36.8714 6.05075 36.0831 5.66198L31.9049 3.60351C31.0913 3.20457 30.1529 3.14425 29.295 3.43576C28.4371 3.72727 27.7297 4.34685 27.3276 5.15884L17.4151 25.2841C17.0163 26.0976 16.956 27.0361 17.2477 27.894C17.5393 28.7518 18.159 29.4592 18.9711 29.8611L23.15 31.9195C23.618 32.1507 24.1331 32.2706 24.6551 32.2701L24.6557 32.2695Z" fill="#231F20"/>
<path fill-rule="evenodd" clip-rule="evenodd" d="M26.4834 97.9868H33.1658V82.2847L29.8246 79.7227L26.4834 82.2847V97.9868Z" fill="#00ABEA"/>
<path fill-rule="evenodd" clip-rule="evenodd" d="M61.3779 74.0643V97.9868H68.0603V74.0643L64.7191 71.5005L61.3779 74.0643Z" fill="#00ABEA"/>
<path fill-rule="evenodd" clip-rule="evenodd" d="M29.356 70.0184C30.0586 70.0185 30.7455 69.8102 31.3298 69.4199C31.9141 69.0295 32.3695 68.4747 32.6385 67.8256C32.9074 67.1764 32.9778 66.4621 32.8408 65.7729C32.7038 65.0837 32.3655 64.4507 31.8686 63.9538C31.3718 63.4569 30.7388 63.1185 30.0496 62.9814C29.3604 62.8443 28.6461 62.9146 27.9969 63.1835C27.3477 63.4524 26.7929 63.9077 26.4025 64.4919C26.0121 65.0762 25.8037 65.7631 25.8037 66.4657C25.8049 67.4075 26.1795 68.3104 26.8454 68.9764C27.5113 69.6424 28.4142 70.0171 29.356 70.0184Z" fill="#00ABEA"/>
<path fill-rule="evenodd" clip-rule="evenodd" d="M43.9062 54.0022C43.9063 54.7047 44.1147 55.3914 44.5051 55.9755C44.8954 56.5595 45.4502 57.0148 46.0993 57.2835C46.7483 57.5523 47.4625 57.6226 48.1515 57.4855C48.8405 57.3484 49.4734 57.0101 49.9701 56.5133C50.4668 56.0165 50.8051 55.3836 50.9421 54.6946C51.0791 54.0056 51.0088 53.2914 50.7399 52.6424C50.4711 51.9933 50.0158 51.4386 49.4317 51.0483C48.8475 50.658 48.1608 50.4497 47.4583 50.4497C46.5166 50.451 45.6138 50.8257 44.9479 51.4916C44.282 52.1576 43.9074 53.0604 43.9062 54.0022Z" fill="#00ABEA"/>
<path fill-rule="evenodd" clip-rule="evenodd" d="M64.8921 55.7173C64.1895 55.7172 63.5025 55.9254 62.9182 56.3157C62.3339 56.706 61.8784 57.2609 61.6095 57.91C61.3405 58.5592 61.27 59.2735 61.4071 59.9627C61.5441 60.6519 61.8824 61.285 62.3793 61.7819C62.8761 62.2788 63.5092 62.6172 64.1983 62.7543C64.8875 62.8914 65.6019 62.8211 66.2511 62.5522C66.9003 62.2833 67.4551 61.8279 67.8455 61.2436C68.2359 60.6593 68.4442 59.9724 68.4442 59.2697C68.4433 58.3279 68.0688 57.4249 67.4029 56.7589C66.7369 56.0929 65.834 55.7183 64.8921 55.7173Z" fill="#00ABEA"/>
<path fill-rule="evenodd" clip-rule="evenodd" d="M77.0684 49.9581C77.0681 50.6607 77.2762 51.3476 77.6663 51.9319C78.0564 52.5162 78.6111 52.9717 79.2601 53.2408C79.9091 53.5098 80.6234 53.5804 81.3125 53.4435C82.0016 53.3066 82.6347 52.9684 83.1316 52.4717C83.6285 51.975 83.9669 51.3421 84.1041 50.653C84.2413 49.9639 84.171 49.2497 83.9022 48.6005C83.6334 47.9514 83.1781 47.3966 82.594 47.0062C82.0098 46.6158 81.323 46.4075 80.6204 46.4075C79.6789 46.4085 78.7762 46.7829 78.1104 47.4485C77.4445 48.1141 77.0698 49.0166 77.0684 49.9581Z" fill="#00ABEA"/>
<path fill-rule="evenodd" clip-rule="evenodd" d="M25.2476 29.1419L35.1601 9.01689C35.1978 8.93973 35.2199 8.85587 35.2251 8.77015C35.2302 8.68443 35.2184 8.59853 35.1902 8.5174C35.1349 8.35282 35.017 8.21665 34.862 8.13837L30.6839 6.08193C30.5963 6.03731 30.4992 6.01433 30.4009 6.0149C30.3273 6.01556 30.2542 6.02755 30.1842 6.05045C30.0196 6.10602 29.8837 6.22457 29.8064 6.38012L19.8939 26.5033C19.8185 26.6595 19.8075 26.8391 19.8632 27.0033C19.9189 27.1676 20.037 27.3034 20.1919 27.3814L24.3708 29.4399C24.527 29.5145 24.7062 29.525 24.8701 29.4693C25.034 29.4136 25.1696 29.296 25.2481 29.1417L25.2476 29.1419ZM30.0767 12.4056C29.7478 12.2435 29.4967 11.9574 29.3786 11.6102C29.2605 11.263 29.2852 10.8832 29.4471 10.5541L30.6676 8.07723C30.7447 7.90979 30.8546 7.75947 30.9907 7.63515C31.1268 7.51083 31.2865 7.41501 31.4602 7.35335C31.6339 7.29168 31.8182 7.26542 32.0023 7.27611C32.1863 7.2868 32.3664 7.33421 32.5318 7.41557C32.6972 7.49693 32.8447 7.61058 32.9655 7.74982C33.0863 7.88906 33.178 8.05108 33.2353 8.22632C33.2925 8.40157 33.314 8.58649 33.2987 8.7702C33.2833 8.95391 33.2313 9.13268 33.1458 9.29598L31.9252 11.7741C31.8451 11.937 31.7337 12.0824 31.5974 12.2022C31.4611 12.322 31.3025 12.4138 31.1307 12.4723C30.9589 12.5307 30.7773 12.5548 30.5962 12.543C30.4151 12.5313 30.2381 12.484 30.0753 12.4038L30.0767 12.4056Z" fill="#00ABEA"/>
<path fill-rule="evenodd" clip-rule="evenodd" d="M62.8623 9.01664L72.7748 29.1421C72.8537 29.296 72.9894 29.4131 73.1532 29.4688C73.3169 29.5244 73.4959 29.5141 73.6523 29.4401L77.8309 27.3814C77.9857 27.3037 78.1038 27.1683 78.1596 27.0044C78.2154 26.8404 78.2046 26.6611 78.1293 26.5051L68.2168 6.37988C68.1786 6.3028 68.1256 6.234 68.0607 6.17744C67.9959 6.12087 67.9206 6.07764 67.839 6.05021C67.7691 6.02717 67.6961 6.01518 67.6225 6.01466C67.5242 6.01407 67.4273 6.03705 67.3397 6.08169L63.1604 8.13854C63.0057 8.21675 62.8878 8.35253 62.8321 8.5167C62.7763 8.68088 62.7871 8.86037 62.8623 9.01664ZM67.5691 13.1041C67.3108 13.1045 67.0576 13.0323 66.8383 12.8959C66.6191 12.7594 66.4425 12.5641 66.3288 12.3323L65.108 9.85535C65.0278 9.69263 64.9804 9.51571 64.9686 9.33468C64.9567 9.15366 64.9807 8.97207 65.039 8.8003C65.0974 8.62852 65.189 8.46992 65.3086 8.33355C65.4282 8.19717 65.5736 8.0857 65.7363 8.00549C65.899 7.92528 66.0759 7.8779 66.2569 7.86606C66.438 7.85423 66.6195 7.87816 66.7913 7.9365C67.1382 8.05432 67.4241 8.30513 67.5861 8.63375L68.8067 11.1119C68.9102 11.3224 68.9584 11.5559 68.9467 11.7902C68.935 12.0245 68.8638 12.252 68.7398 12.4512C68.6158 12.6503 68.4431 12.8147 68.2381 12.9286C68.033 13.0426 67.8023 13.1024 67.5676 13.1025L67.5691 13.1041Z" fill="#00ABEA"/>
</svg>
