<svg width="104" height="104" viewBox="0 0 104 104" fill="none" xmlns="http://www.w3.org/2000/svg">
<path fill-rule="evenodd" clip-rule="evenodd" d="M97.9874 21.5737C97.9874 15.9047 91.614 11.2922 83.7799 11.2922C82.3056 11.3221 80.8436 11.5661 79.4395 12.0165C81.8191 12.9296 83.8663 14.5422 85.3113 16.6418C86.7563 18.7415 87.5312 21.2296 87.534 23.7785V31.4881C93.552 30.2939 97.9872 26.3029 97.9872 21.5737H97.9874ZM73.985 28.9892C74.1327 28.3347 74.1376 27.656 73.9993 26.9994C73.861 26.3428 73.5827 25.7238 73.1835 25.1845C72.7843 24.6451 72.2735 24.1982 71.6859 23.8742C71.0983 23.5502 70.4478 23.3567 69.7786 23.3068C70.3058 25.5253 71.8276 27.4971 73.985 28.9892ZM64.7497 27.9669C64.7503 27.1475 64.9661 26.3427 65.3756 25.6329C65.785 24.9231 66.3736 24.3333 67.0826 23.9225C67.7496 26.7628 69.6151 29.3445 72.4317 31.2888C72.4849 31.3264 72.5422 31.3599 72.5954 31.3975C71.9284 32.0149 71.0959 32.4244 70.1997 32.5758C69.3035 32.7272 68.3826 32.6139 67.5499 32.2497C66.7171 31.8856 66.0086 31.2865 65.5113 30.5258C65.0139 29.7651 64.7492 28.8758 64.7497 27.9669ZM84.7701 34.5949V35.3271C84.7946 36.609 84.5565 37.8823 84.0705 39.0687C83.5844 40.2551 82.8607 41.3295 81.9438 42.2257L35.1074 89.7888C33.2842 91.6302 30.8095 92.68 28.2183 92.711C25.6272 92.742 23.128 91.7518 21.2612 89.9546L8.99248 78.0762C7.13409 76.267 6.06328 73.7984 6.01199 71.2053C5.9607 68.6121 6.93306 66.1032 8.71846 64.2219L53.7874 16.9904C54.6929 16.0115 55.7944 15.2344 57.0203 14.7096C58.2461 14.1849 59.5688 13.9243 60.9021 13.9448H74.938C77.5448 13.9479 80.0439 14.985 81.887 16.8285C83.7301 18.672 84.7666 21.1713 84.7693 23.7781V31.8277C84.4416 31.8433 84.1122 31.8553 83.7784 31.8553C81.2635 31.8678 78.7731 31.3604 76.4635 30.365C77.0656 28.6086 76.9909 26.6907 76.2539 24.9865C75.5169 23.2822 74.1706 21.9142 72.4784 21.15C70.7862 20.3858 68.8698 20.2803 67.104 20.8542C65.3381 21.4281 63.8499 22.6401 62.9303 24.2532C62.0107 25.8662 61.7259 27.7643 62.1317 29.5762C62.5374 31.3881 63.6045 32.9835 65.1242 34.0503C66.6439 35.1171 68.5069 35.5787 70.3488 35.3447C72.1908 35.1107 73.8792 34.1979 75.0839 32.785C77.818 34.0089 80.7821 34.634 83.7776 34.6186C84.1112 34.6186 84.441 34.6087 84.7687 34.5949H84.7701ZM87.5326 34.293V35.3271C87.5546 36.9681 87.2453 38.5967 86.6233 40.1154C86.0012 41.6341 85.0793 43.0118 83.9125 44.1659L37.0763 91.727C34.7407 94.0858 31.5705 95.4304 28.2513 95.4703C24.9321 95.5102 21.7305 94.242 19.3389 91.9401L7.07071 80.0597C4.69007 77.7427 3.31825 74.581 3.25248 71.2596C3.1867 67.9382 4.43227 64.7246 6.71931 62.3151L51.7889 15.0817C52.9491 13.8282 54.3602 12.8331 55.9304 12.1612C57.5006 11.4892 59.1947 11.1555 60.9025 11.1817H74.1351C74.1771 11.155 74.2206 11.1307 74.2653 11.1087C76.6825 9.93224 80.2981 8.52905 83.779 8.52905C93.137 8.52865 100.75 14.3813 100.75 21.5737C100.75 27.7754 95.0911 32.9764 87.5334 34.293H87.5326ZM45.0226 44.5529C44.8943 44.4246 44.742 44.3228 44.5743 44.2534C44.4067 44.184 44.227 44.1482 44.0456 44.1482C43.6791 44.1483 43.3277 44.2938 43.0686 44.553C42.8095 44.8121 42.664 45.1635 42.664 45.53C42.664 45.8964 42.8096 46.2478 43.0687 46.5069L53.0499 56.4865C53.3104 56.7377 53.659 56.8767 54.0209 56.8735C54.3828 56.8704 54.729 56.7253 54.985 56.4695C55.241 56.2138 55.3865 55.8677 55.39 55.5059C55.3936 55.144 55.2549 54.7952 55.0039 54.5344L45.0226 44.5529ZM36.5563 52.5704C36.428 52.4421 36.2757 52.3404 36.1081 52.2709C35.9404 52.2015 35.7608 52.1658 35.5793 52.1658C35.2129 52.1658 34.8615 52.3114 34.6024 52.5705C34.3433 52.8296 34.1977 53.1811 34.1978 53.5475C34.1978 53.914 34.3434 54.2654 34.6025 54.5245L44.5834 64.506C44.7117 64.6343 44.8641 64.7361 45.0317 64.8056C45.1993 64.875 45.379 64.9107 45.5605 64.9107C45.7419 64.9107 45.9216 64.875 46.0892 64.8056C46.2569 64.7361 46.4092 64.6343 46.5375 64.506C46.6658 64.3777 46.7676 64.2254 46.837 64.0578C46.9065 63.8901 46.9422 63.7105 46.9422 63.529C46.9422 63.3476 46.9065 63.1679 46.837 63.0002C46.7676 62.8326 46.6658 62.6803 46.5375 62.552L36.5563 52.5704ZM28.0891 60.59C27.8299 60.3309 27.4785 60.1853 27.1121 60.1854C26.7456 60.1854 26.3942 60.331 26.1351 60.5901C25.876 60.8492 25.7305 61.2007 25.7305 61.5671C25.7305 61.9335 25.8761 62.285 26.1352 62.5441L36.1156 72.5238C36.3762 72.7739 36.7245 72.9119 37.0858 72.9083C37.4471 72.9046 37.7925 72.7596 38.0481 72.5043C38.3036 72.2489 38.449 71.9036 38.453 71.5424C38.457 71.1811 38.3193 70.8327 38.0694 70.5718L28.0883 60.59H28.0891ZM29.603 78.5893L19.6218 68.6077C19.3627 68.3486 19.0112 68.203 18.6448 68.203C18.2783 68.203 17.9269 68.3486 17.6677 68.6077C17.4086 68.8669 17.263 69.2183 17.263 69.5848C17.263 69.9512 17.4086 70.3027 17.6677 70.5618L27.6489 80.5434C27.908 80.8025 28.2595 80.948 28.6259 80.948C28.9923 80.948 29.3438 80.8024 29.6029 80.5433C29.862 80.2841 30.0075 79.9327 30.0075 79.5663C30.0075 79.1998 29.8619 78.8484 29.6028 78.5893H29.603Z" fill="#231F20"/>
<path fill-rule="evenodd" clip-rule="evenodd" d="M53.7879 16.9904L8.71915 64.2219C6.93375 66.1032 5.96138 68.6122 6.01267 71.2053C6.06396 73.7984 7.13477 76.267 8.99316 78.0762L21.2619 89.9546C23.1287 91.7518 25.6279 92.742 28.219 92.711C30.8101 92.68 33.2849 91.6302 35.1081 89.7888L81.9441 42.2257C82.861 41.3295 83.5847 40.2551 84.0708 39.0687C84.5568 37.8823 84.7949 36.609 84.7704 35.3271V34.5949C84.4427 34.6087 84.1129 34.6186 83.7793 34.6186C80.7838 34.6341 77.8197 34.0089 75.0856 32.785C73.886 34.1893 72.2058 35.0958 70.3735 35.3272C68.5411 35.5587 66.6883 35.0985 65.1772 34.0366C63.6661 32.9747 62.6053 31.3875 62.2021 29.5851C61.799 27.7828 62.0825 25.8948 62.9972 24.2903C63.9118 22.6859 65.392 21.4801 67.1483 20.9089C68.9047 20.3376 70.8109 20.4418 72.4945 21.2012C74.178 21.9606 75.5179 23.3205 76.2522 25.0151C76.9865 26.7098 77.0625 28.6173 76.4652 30.365C78.7748 31.3604 81.2652 31.8678 83.7801 31.8553C84.1139 31.8553 84.4433 31.8434 84.771 31.8277V23.7783C84.7683 21.1715 83.7318 18.6722 81.8887 16.8287C80.0456 14.9853 77.5465 13.9482 74.9397 13.945H60.9038C59.5703 13.9243 58.2474 14.1848 57.0214 14.7095C55.7953 15.2343 54.6935 16.0114 53.7879 16.9904ZM45.0239 44.5529L55.0052 54.5344C55.1373 54.6619 55.2427 54.8143 55.3152 54.983C55.3877 55.1516 55.4259 55.333 55.4275 55.5165C55.4291 55.7 55.3941 55.882 55.3246 56.0519C55.255 56.2218 55.1523 56.3761 55.0225 56.5058C54.8926 56.6355 54.7382 56.738 54.5683 56.8074C54.3984 56.8767 54.2163 56.9115 54.0328 56.9098C53.8493 56.908 53.6679 56.8696 53.4994 56.7969C53.3308 56.7242 53.1785 56.6187 53.0512 56.4865L43.07 46.5069C42.8109 46.2478 42.6653 45.8964 42.6653 45.53C42.6653 45.1635 42.8108 44.8121 43.0699 44.553C43.329 44.2939 43.6804 44.1483 44.0469 44.1483C44.4133 44.1482 44.7648 44.2938 45.0239 44.5529ZM36.5568 52.5704L46.538 62.552C46.7971 62.8111 46.9427 63.1626 46.9427 63.529C46.9427 63.8955 46.7971 64.2469 46.538 64.5061C46.2788 64.7652 45.9274 64.9108 45.5609 64.9108C45.1945 64.9108 44.843 64.7652 44.5839 64.5061L34.603 54.5245C34.3438 54.2654 34.1982 53.914 34.1982 53.5475C34.1982 53.1811 34.3438 52.8297 34.6029 52.5705C34.862 52.3114 35.2134 52.1658 35.5798 52.1658C35.9463 52.1658 36.2977 52.3113 36.5568 52.5704ZM28.0896 60.59L38.0707 70.5718C38.2034 70.6991 38.3093 70.8515 38.3822 71.0203C38.4552 71.189 38.4937 71.3707 38.4956 71.5545C38.4975 71.7383 38.4626 71.9207 38.3931 72.0909C38.3235 72.2611 38.2207 72.4157 38.0907 72.5456C37.9606 72.6755 37.8059 72.7782 37.6357 72.8476C37.4654 72.917 37.283 72.9517 37.0992 72.9496C36.9153 72.9476 36.7338 72.9089 36.5651 72.8358C36.3964 72.7626 36.244 72.6566 36.1168 72.5238L26.1357 62.5441C25.8766 62.285 25.731 61.9336 25.731 61.5671C25.7309 61.2007 25.8765 60.8492 26.1356 60.5901C26.3947 60.331 26.7461 60.1854 27.1126 60.1854C27.479 60.1854 27.8304 60.3309 28.0896 60.59ZM29.6034 78.5893C29.7318 78.7176 29.8335 78.8699 29.903 79.0376C29.9724 79.2052 30.0082 79.3848 30.0082 79.5663C30.0082 79.7477 29.9725 79.9274 29.903 80.095C29.8336 80.2627 29.7318 80.415 29.6035 80.5433C29.4753 80.6716 29.3229 80.7734 29.1553 80.8428C28.9877 80.9123 28.808 80.948 28.6266 80.948C28.4451 80.948 28.2655 80.9123 28.0978 80.8429C27.9302 80.7734 27.7779 80.6717 27.6496 80.5434L17.6684 70.5618C17.4093 70.3027 17.2637 69.9513 17.2637 69.5848C17.2637 69.2183 17.4093 68.8669 17.6684 68.6078C17.9276 68.3486 18.279 68.2031 18.6455 68.2031C19.0119 68.2031 19.3634 68.3486 19.6225 68.6078L29.6034 78.5893Z" fill="#00ABEA"/>
</svg>
