<svg width="104" height="104" viewBox="0 0 104 104" fill="none" xmlns="http://www.w3.org/2000/svg">
<path fill-rule="evenodd" clip-rule="evenodd" d="M13.5403 48.5298L12.8239 43.5843C12.7818 43.2952 12.6474 43.0274 12.4408 42.8208C12.2342 42.6143 11.9664 42.4799 11.6772 42.4379L6.72201 41.7219L15.1517 33.3101C15.1596 33.4651 15.1633 33.62 15.1633 33.7787V35.7133C15.1646 36.6718 15.546 37.5906 16.2237 38.2684C16.9015 38.9462 17.8204 39.3275 18.7789 39.3289H20.7135C21.2953 39.3274 21.8759 39.3846 22.4463 39.4995L13.5403 48.5298ZM13.3467 23.5034C13.18 23.6747 13.0867 23.9042 13.0867 24.1433C13.0867 24.3823 13.18 24.6118 13.3467 24.7831L14.7136 26.1503C15.7316 27.1399 16.537 28.3268 17.0805 29.6383C17.6241 30.9499 17.8943 32.3585 17.8748 33.7781V35.7126C17.878 35.9515 17.9743 36.1796 18.1432 36.3485C18.3121 36.5174 18.5403 36.6137 18.7791 36.617H20.7135C22.133 36.5973 23.5416 36.8674 24.8531 37.4107C26.1646 37.9541 27.3515 38.7593 28.3412 39.7772L29.7082 41.1444C29.8796 41.311 30.1091 41.4042 30.3481 41.4042C30.587 41.4042 30.8166 41.311 30.9879 41.1444L32.355 39.7774C33.3447 38.7596 34.5316 37.9544 35.8431 37.411C37.1546 36.8677 38.5632 36.5975 39.9827 36.6172H41.9171C42.1559 36.6139 42.384 36.5176 42.5529 36.3487C42.7218 36.1798 42.8181 35.9517 42.8214 35.7128V33.7783C42.8017 32.3588 43.0719 30.9502 43.6153 29.6387C44.1587 28.3272 44.964 27.1404 45.9818 26.1507L47.3488 24.7835C47.5155 24.6122 47.6087 24.3826 47.6087 24.1437C47.6087 23.9047 47.5155 23.6751 47.3488 23.5038L45.9816 22.1368C44.9638 21.1471 44.1585 19.9602 43.6151 18.6487C43.0717 17.3371 42.8016 15.9285 42.8212 14.509V12.5735C42.8179 12.3346 42.7216 12.1065 42.5527 11.9376C42.3838 11.7687 42.1557 11.6724 41.9169 11.6691H39.9825C38.5632 11.6887 37.1547 11.4188 35.8432 10.8758C34.5317 10.3328 33.3447 9.52811 32.3546 8.51095L30.9875 7.14392C30.8167 6.9766 30.5872 6.88272 30.3481 6.88234C30.109 6.88196 29.8792 6.97511 29.7078 7.14189L28.3404 8.51095C27.3503 9.52806 26.1633 10.3327 24.8519 10.8757C23.5405 11.4187 22.1321 11.6887 20.7129 11.6691H18.7783C18.5396 11.6726 18.3117 11.769 18.143 11.9379C17.9743 12.1068 17.878 12.3348 17.8748 12.5735V14.508C17.8944 15.9273 17.6244 17.3357 17.0813 18.6471C16.5383 19.9586 15.7336 21.1456 14.7164 22.1356L13.3475 23.5028L13.3467 23.5034ZM48.4776 43.5977C48.1881 43.6394 47.9199 43.7735 47.7129 43.9802C47.5059 44.1868 47.3713 44.4548 47.3291 44.7442L46.6127 49.6976L36.8645 39.9206C37.8538 39.5168 38.9139 39.3153 39.9823 39.3281H41.9167C42.8752 39.3268 43.7941 38.9454 44.4719 38.2676C45.1497 37.5899 45.531 36.671 45.5323 35.7124V34.8796L53.442 42.8797L48.4772 43.5982L48.4776 43.5977ZM26.4233 41.6924L27.7905 43.0615C28.4692 43.7389 29.3891 44.1192 30.348 44.1188C31.3069 44.1184 32.2264 43.7374 32.9046 43.0595L34.2717 41.6924C34.3608 41.6033 34.4518 41.5182 34.5446 41.4328L45.6503 52.5732C45.9173 52.8401 46.2532 53.0275 46.6206 53.1145C46.988 53.2014 47.3723 53.1845 47.7306 53.0655C48.0889 52.9466 48.4071 52.7303 48.6495 52.4409C48.8919 52.1515 49.0491 51.8004 49.1034 51.4268L49.8684 46.1346L55.1606 45.3696C55.5334 45.3156 55.8838 45.1592 56.1728 44.9177C56.4619 44.6762 56.6782 44.3593 56.7977 44.0021C56.9171 43.6449 56.9351 43.2616 56.8495 42.8948C56.7639 42.528 56.5782 42.1922 56.3129 41.9248L45.8723 31.3692C46.2598 30.1162 46.9564 28.9808 47.8979 28.0676L49.2671 26.7004C49.9433 26.0212 50.3229 25.1018 50.3229 24.1434C50.3229 23.1849 49.9433 22.2655 49.2671 21.5863L47.8967 20.2191C47.1303 19.4816 46.5246 18.5936 46.1177 17.6109C45.7108 16.6282 45.5115 15.572 45.5323 14.5086V12.5735C45.5309 11.6149 45.1496 10.6961 44.4718 10.0183C43.794 9.34053 42.8752 8.95917 41.9167 8.95783H39.9823C38.9189 8.97868 37.8626 8.77942 36.8799 8.37257C35.8972 7.96573 35.0091 7.36008 34.2717 6.59366L32.9046 5.22642C32.2258 4.54939 31.3062 4.16919 30.3475 4.16919C29.3888 4.16919 28.4691 4.54939 27.7903 5.22642L26.4233 6.59345C25.6858 7.35993 24.7978 7.96564 23.8151 8.37256C22.8324 8.77947 21.7761 8.9788 20.7126 8.95803H18.7783C17.8198 8.95937 16.9009 9.34074 16.2231 10.0185C15.5454 10.6963 15.164 11.6151 15.1627 12.5737V14.5082C15.1835 15.5717 14.9843 16.628 14.5774 17.6107C14.1706 18.5935 13.5649 19.4815 12.7985 20.2191L11.4296 21.5863C10.7524 22.2651 10.3722 23.1848 10.3725 24.1437C10.3728 25.1025 10.7536 26.0221 11.4313 26.7004L12.7985 28.0676C13.4434 28.7019 13.9788 29.4387 14.3829 30.248L3.8484 40.7591C3.58068 41.0255 3.39256 41.3613 3.30515 41.7287C3.21774 42.0962 3.2345 42.4807 3.35357 42.8392C3.47263 43.1976 3.68928 43.5158 3.97917 43.7579C4.26906 44 4.62071 44.1565 4.99463 44.2098L10.285 44.9766L11.0518 50.269C11.1049 50.6427 11.2615 50.9941 11.5037 51.2836C11.746 51.573 12.0644 51.7889 12.4229 51.907C12.6323 51.9757 12.8511 52.011 13.0715 52.0116C13.3391 52.0115 13.6041 51.958 13.8508 51.8543C14.0975 51.7505 14.3211 51.5987 14.5084 51.4075L25.1396 40.6293C25.601 40.9412 26.0309 41.2972 26.4233 41.6924ZM30.3485 14.741C28.4889 14.7408 26.6709 15.2921 25.1246 16.325C23.5782 17.358 22.3729 18.8264 21.6611 20.5444C20.9493 22.2624 20.7629 24.1529 21.1255 25.9769C21.4881 27.8008 22.3835 29.4763 23.6983 30.7913C25.0131 32.1064 26.6884 33.0021 28.5123 33.3651C30.3361 33.728 32.2267 33.542 33.9448 32.8305C35.663 32.119 37.1316 30.914 38.1649 29.3679C39.1982 27.8217 39.7498 26.0039 39.7499 24.1443C39.7473 21.6515 38.756 19.2615 36.9935 17.4987C35.231 15.7359 32.8413 14.7441 30.3485 14.741ZM30.3485 36.2568C32.7443 36.2566 35.0862 35.546 37.0781 34.2148C39.07 32.8836 40.6225 30.9916 41.5391 28.7781C42.4558 26.5647 42.6955 24.129 42.2279 21.7793C41.7603 19.4296 40.6065 17.2713 38.9123 15.5774C37.2181 13.8834 35.0596 12.7299 32.7098 12.2627C30.36 11.7955 27.9244 12.0355 25.7111 12.9525C23.4977 13.8695 21.606 15.4222 20.2751 17.4143C18.9442 19.4064 18.234 21.7485 18.2341 24.1443C18.2378 27.3559 19.5154 30.4349 21.7865 32.7057C24.0577 34.9765 27.1369 36.2536 30.3485 36.2568ZM91.5907 30.0369L91.1375 33.7161C91.1156 33.8929 91.1287 34.0722 91.1761 34.2439C91.2235 34.4156 91.3043 34.5762 91.4138 34.7167C91.5233 34.8571 91.6594 34.9746 91.8144 35.0624C91.9693 35.1502 92.1401 35.2066 92.3169 35.2284C92.3722 35.2345 92.4278 35.2378 92.4834 35.2381C92.8138 35.2377 93.1327 35.1167 93.3801 34.8978C93.6276 34.6789 93.7866 34.3771 93.8273 34.0492L94.7121 26.8789C94.7345 26.6946 94.7189 26.5076 94.6661 26.3296C94.6134 26.1516 94.5246 25.9863 94.4054 25.8439C94.2861 25.7016 94.139 25.5852 93.9729 25.5021C93.8069 25.4189 93.6255 25.3708 93.4401 25.3606L86.1993 24.9641C86.0204 24.9523 85.841 24.976 85.6714 25.034C85.5017 25.092 85.3453 25.1831 85.2111 25.302C85.0769 25.4209 84.9676 25.5652 84.8895 25.7266C84.8115 25.888 84.7662 26.0632 84.7563 26.2422C84.7465 26.4212 84.7722 26.6004 84.8321 26.7694C84.8919 26.9384 84.9847 27.0938 85.1051 27.2267C85.2254 27.3596 85.3709 27.4673 85.5331 27.5436C85.6954 27.6199 85.8711 27.6632 86.0502 27.6711L89.9385 27.8842C71.0466 43.9425 48.1697 56.8198 21.8804 66.1781C21.5797 66.2854 21.3265 66.4955 21.1654 66.7713C21.0044 67.047 20.946 67.3708 21.0004 67.6855C21.0548 68.0001 21.2186 68.2855 21.4628 68.4912C21.7071 68.6969 22.0161 68.8097 22.3354 68.8098C22.4904 68.8096 22.6443 68.7834 22.7906 68.7324C49.3411 59.2806 72.4679 46.2697 91.5903 30.0371L91.5907 30.0369ZM35.3251 97.1192H26.3768V80.7696L30.852 77.3382L35.3253 80.7696V97.1192H35.3251ZM37.5054 79.025L31.6767 74.5538C31.4394 74.3728 31.1492 74.2748 30.8508 74.2748C30.5524 74.2748 30.2622 74.3728 30.0249 74.5538L24.1952 79.025C24.0301 79.1517 23.8964 79.3147 23.8044 79.5014C23.7124 79.6881 23.6646 79.8934 23.6647 80.1015V98.475C23.6645 98.653 23.6995 98.8294 23.7676 98.9939C23.8356 99.1584 23.9355 99.3079 24.0614 99.4338C24.1873 99.5597 24.3367 99.6595 24.5012 99.7276C24.6658 99.7956 24.8421 99.8306 25.0201 99.8305H36.6795C36.8575 99.8306 37.0338 99.7956 37.1984 99.7276C37.3629 99.6595 37.5123 99.5597 37.6382 99.4338C37.7641 99.3079 37.864 99.1584 37.932 98.9939C38.0001 98.8294 38.0351 98.653 38.0349 98.475V80.1015C38.035 79.8934 37.9872 79.6881 37.8952 79.5014C37.8032 79.3147 37.6695 79.1517 37.5044 79.025H37.5054ZM56.2289 97.1192H47.2808V70.0477L51.756 66.6163L56.2293 70.0477V97.1192H56.2289ZM58.4094 68.3049C58.5746 68.431 58.7085 68.5937 58.8006 68.7801C58.8926 68.9665 58.9404 69.1717 58.9402 69.3796V98.475C58.9403 98.653 58.9053 98.8294 58.8373 98.9939C58.7692 99.1584 58.6694 99.3079 58.5435 99.4338C58.4176 99.5597 58.2681 99.6595 58.1036 99.7276C57.9391 99.7956 57.7627 99.8306 57.5847 99.8305H45.9253C45.5659 99.8304 45.2211 99.6876 44.9669 99.4334C44.7128 99.1792 44.5699 98.8345 44.5699 98.475V69.3796C44.57 69.1718 44.618 68.9667 44.71 68.7804C44.8021 68.594 44.9357 68.4313 45.1007 68.3049L50.9303 63.8337C51.1669 63.6519 51.4569 63.5533 51.7552 63.5533C52.0536 63.5533 52.3436 63.6519 52.5801 63.8337L58.4088 68.3049H58.4094ZM77.1349 97.1192H68.1866V57.7184L72.6596 54.2868L77.1349 57.7184V97.1192ZM79.3154 55.9735C79.4801 56.1006 79.6135 56.2637 79.7055 56.4503C79.7974 56.6369 79.8454 56.8421 79.8458 57.0501V98.475C79.8457 98.8345 79.7029 99.1792 79.4487 99.4334C79.1945 99.6876 78.8498 99.8304 78.4903 99.8305H66.831C66.6529 99.8306 66.4766 99.7956 66.3122 99.7275C66.1477 99.6594 65.9982 99.5596 65.8723 99.4337C65.7465 99.3078 65.6467 99.1583 65.5786 98.9938C65.5105 98.8293 65.4756 98.653 65.4757 98.475V57.0503C65.4757 56.8422 65.5235 56.6369 65.6155 56.4502C65.7075 56.2635 65.8412 56.1005 66.0063 55.9737L71.8349 51.5026C72.0718 51.3213 72.3617 51.223 72.6599 51.223C72.9582 51.223 73.2481 51.3213 73.4849 51.5026L79.3146 55.9737L79.3154 55.9735ZM98.0387 97.1192H89.0904V47.461L93.5636 44.0296L98.0387 47.461V97.1192ZM100.219 45.7163C100.384 45.843 100.518 46.006 100.61 46.1927C100.702 46.3794 100.75 46.5848 100.75 46.7929V98.475C100.75 98.653 100.715 98.8294 100.647 98.9939C100.579 99.1584 100.479 99.3079 100.353 99.4338C100.227 99.5597 100.078 99.6595 99.9132 99.7276C99.7487 99.7956 99.5724 99.8306 99.3943 99.8305H87.735C87.5569 99.8306 87.3806 99.7956 87.2161 99.7276C87.0516 99.6595 86.9021 99.5597 86.7762 99.4338C86.6503 99.3079 86.5505 99.1584 86.4824 98.9939C86.4143 98.8294 86.3794 98.653 86.3795 98.475V46.7929C86.3794 46.5848 86.4272 46.3794 86.5193 46.1927C86.6113 46.006 86.7451 45.843 86.9103 45.7163L92.7387 41.245C92.9758 41.0643 93.2656 40.9664 93.5637 40.9664C93.8618 40.9664 94.1517 41.0643 94.3887 41.245L100.219 45.7163Z" fill="#231F20"/>
<path fill-rule="evenodd" clip-rule="evenodd" d="M35.3254 97.1191V80.7695L30.8522 77.3381L26.377 80.7695V97.1191H35.3254Z" fill="#00ABEA"/>
<path fill-rule="evenodd" clip-rule="evenodd" d="M68.1865 57.7185V97.1192H77.1348V57.7185L72.6595 54.2869L68.1865 57.7185Z" fill="#00ABEA"/>
<path fill-rule="evenodd" clip-rule="evenodd" d="M41.917 36.6169C42.1558 36.6137 42.384 36.5174 42.5529 36.3485C42.7217 36.1796 42.8181 35.9514 42.8213 35.7126V33.7781C42.8017 32.3586 43.0718 30.95 43.6153 29.6385C44.1587 28.327 44.9639 27.1401 45.9818 26.1505L47.3488 24.7833C47.5154 24.612 47.6086 24.3824 47.6086 24.1434C47.6086 23.9045 47.5154 23.6749 47.3488 23.5036L45.9815 22.1366C44.9637 21.1469 44.1585 19.96 43.6151 18.6485C43.0717 17.3369 42.8015 15.9283 42.8211 14.5088V12.5734C42.8179 12.3346 42.7215 12.1065 42.5527 11.9376C42.3838 11.7687 42.1556 11.6724 41.9168 11.6691H39.9825C38.5632 11.6886 37.1548 11.4187 35.8434 10.8757C34.532 10.3327 33.345 9.52804 32.3549 8.51093L30.9879 7.1439C30.817 6.97658 30.5876 6.8827 30.3484 6.88233C30.1093 6.88195 29.8795 6.9751 29.7082 7.14187L28.3407 8.51093C27.3507 9.52804 26.1637 10.3327 24.8523 10.8757C23.5408 11.4187 22.1325 11.6886 20.7132 11.6691H18.7786C18.54 11.6726 18.312 11.769 18.1433 11.9379C17.9746 12.1067 17.8784 12.3347 17.8751 12.5734V14.508C17.8947 15.9273 17.6247 17.3357 17.0817 18.6471C16.5386 19.9586 15.7339 21.1455 14.7167 22.1355L13.3479 23.5028C13.1812 23.674 13.0879 23.9036 13.0879 24.1426C13.0879 24.3816 13.1812 24.6112 13.3479 24.7825L14.7147 26.1497C15.7327 27.1394 16.538 28.3264 17.0814 29.6381C17.6248 30.9497 17.8949 32.3584 17.8751 33.7781V35.7126C17.8783 35.9515 17.9747 36.1796 18.1436 36.3485C18.3125 36.5174 18.5406 36.6137 18.7795 36.6169H20.7138C22.1333 36.5972 23.5419 36.8674 24.8535 37.4107C26.165 37.9541 27.3519 38.7593 28.3416 39.7772L29.7086 41.1444C29.8799 41.311 30.1095 41.4041 30.3484 41.4041C30.5874 41.4041 30.8169 41.311 30.9883 41.1444L32.3553 39.7774C33.345 38.7596 34.5319 37.9544 35.8434 37.411C37.155 36.8676 38.5636 36.5975 39.9831 36.6171L41.917 36.6169ZM42.4612 24.1451C42.461 26.5409 41.7504 28.8828 40.4193 30.8748C39.0881 32.8667 37.1961 34.4192 34.9826 35.3359C32.7691 36.2525 30.3335 36.4923 27.9838 36.0247C25.634 35.5571 23.4757 34.4033 21.7817 32.709C20.0878 31.0148 18.9343 28.8563 18.467 26.5065C17.9998 24.1567 18.2399 21.7211 19.1569 19.5078C20.0739 17.2944 21.6267 15.4027 23.6188 14.0718C25.611 12.7409 27.953 12.0307 30.3488 12.0309C33.5603 12.0347 36.639 13.3121 38.9098 15.583C41.1805 17.8539 42.4577 20.9328 42.4612 24.1442V24.1451Z" fill="#00ABEA"/>
</svg>
