<svg width="104" height="104" viewBox="0 0 104 104" fill="none" xmlns="http://www.w3.org/2000/svg">
<path fill-rule="evenodd" clip-rule="evenodd" d="M86.3011 70.0237V61.673H92.0877V70.0237H86.3011ZM77.7508 61.673H83.5376V70.0237H77.7508V61.673ZM83.5376 50.5621V58.9105H77.7508V50.5621H83.5376ZM92.0877 58.9105H86.3011V50.5621H92.0877V58.9105ZM93.469 47.7996H76.3693C76.003 47.7996 75.6517 47.9451 75.3926 48.2042C75.1336 48.4632 74.9881 48.8145 74.9881 49.1808V71.4052C74.9881 71.7715 75.1336 72.1228 75.3926 72.3818C75.6517 72.6409 76.003 72.7864 76.3693 72.7864H93.4696C93.8359 72.7864 94.1873 72.6409 94.4463 72.3818C94.7053 72.1228 94.8508 71.7715 94.8508 71.4052V49.1794C94.8508 48.998 94.8151 48.8184 94.7457 48.6508C94.6763 48.4833 94.5745 48.331 94.4463 48.2027C94.318 48.0745 94.1658 47.9727 93.9982 47.9033C93.8306 47.8339 93.651 47.7982 93.4696 47.7982L93.469 47.7996ZM11.9125 74.3895V70.9097H26.2494V74.3895H11.9125ZM26.2494 64.6689V68.1466H11.9125V64.6689H26.2494ZM27.6307 61.9064H10.531C10.1647 61.9064 9.81336 62.0519 9.55432 62.311C9.29529 62.57 9.14977 62.9213 9.14977 63.2877V75.7711C9.15025 76.1373 9.29593 76.4884 9.55486 76.7473C9.81379 77.0062 10.1648 77.1519 10.531 77.1524H27.6311C27.9974 77.1524 28.3488 77.0069 28.6078 76.7478C28.8668 76.4888 29.0123 76.1375 29.0123 75.7711V63.2875C29.0123 63.1061 28.9766 62.9265 28.9072 62.7589C28.8378 62.5913 28.736 62.439 28.6078 62.3108C28.4795 62.1825 28.3273 62.0808 28.1597 62.0114C27.9921 61.9419 27.8125 61.9062 27.6311 61.9062L27.6307 61.9064ZM59.8534 52.6703H53.5533V31.4933H59.8534V52.6703ZM44.4901 31.4933H50.7902V52.6703H44.4901V31.4933ZM61.2351 28.7308H43.1086C42.9272 28.7308 42.7476 28.7666 42.58 28.836C42.4124 28.9054 42.2602 29.0071 42.1319 29.1354C42.0037 29.2636 41.9019 29.4159 41.8325 29.5835C41.7631 29.7511 41.7274 29.9307 41.7274 30.1121V54.0526C41.7274 54.4189 41.8729 54.7703 42.1319 55.0293C42.391 55.2883 42.7423 55.4338 43.1086 55.4338H61.2351C61.6014 55.4338 61.9527 55.2883 62.2118 55.0293C62.4708 54.7703 62.6163 54.4189 62.6163 54.0526V30.1117C62.6158 29.7455 62.4702 29.3944 62.2112 29.1355C61.9523 28.8766 61.6013 28.7309 61.2351 28.7304V28.7308ZM97.9875 83.1052V44.9223C97.9907 44.5301 97.8564 44.1491 97.6081 43.8456C97.3597 43.542 97.0129 43.3349 96.6278 43.2604L71.8494 38.2294V83.1052H97.9875ZM61.9328 83.1052H69.0873V28.8438C69.0902 28.4519 68.9561 28.0713 68.7081 27.7679C68.4602 27.4644 68.114 27.2571 67.7294 27.1818L36.9466 20.9322C36.7002 20.8821 36.4457 20.8875 36.2016 20.9479C35.9575 21.0083 35.7299 21.1223 35.5353 21.2816C35.3407 21.4409 35.184 21.6415 35.0765 21.8688C34.969 22.0962 34.9135 22.3446 34.9139 22.596V83.1052H42.0686V62.2611C42.0686 62.0797 42.1043 61.9001 42.1738 61.7325C42.2432 61.5649 42.3449 61.4126 42.4732 61.2844C42.6014 61.1561 42.7537 61.0544 42.9213 60.985C43.0889 60.9156 43.2685 60.8798 43.4499 60.8798H60.5497C60.7311 60.8798 60.9107 60.9156 61.0783 60.985C61.2459 61.0544 61.3982 61.1561 61.5264 61.2844C61.6547 61.4126 61.7564 61.5649 61.8258 61.7325C61.8953 61.9001 61.931 62.0797 61.931 62.2611V83.1052H61.9328ZM59.1703 83.1052H44.8315V63.6427H59.1687V83.1052H59.1703ZM6.0125 60.1788V83.1052H32.1506V55.2841L7.48942 58.4974C7.07977 58.5473 6.70284 58.7464 6.43058 59.0565C6.15832 59.3666 6.00978 59.7662 6.01331 60.1788H6.0125ZM97.177 40.5525L71.8494 35.411V28.8425C71.8572 27.8118 71.5044 26.8109 70.852 26.0129C70.1996 25.2149 69.2887 24.6701 68.277 24.4729L37.4969 18.2244C36.8491 18.0927 36.1801 18.1067 35.5384 18.2654C34.8966 18.4241 34.2982 18.7234 33.7864 19.1419C33.2747 19.5603 32.8623 20.0873 32.5793 20.6847C32.2963 21.2821 32.1497 21.935 32.15 22.596V52.4973L7.13416 55.7578C6.06127 55.8997 5.0763 56.426 4.362 57.2391C3.64771 58.0521 3.2526 59.0966 3.25 60.1788V84.4868C3.25 84.8531 3.39552 85.2045 3.65456 85.4635C3.91359 85.7225 4.26492 85.8681 4.63125 85.8681H33.42C33.4403 85.8681 33.4571 85.866 33.477 85.866C33.4969 85.866 33.5126 85.8681 33.5323 85.8681H70.4677C70.5055 85.8681 70.5427 85.866 70.5802 85.864C70.6162 85.866 70.6534 85.8681 70.6908 85.8681H99.3688C99.7351 85.8681 100.086 85.7225 100.345 85.4635C100.604 85.2045 100.75 84.8531 100.75 84.4868V44.9221C100.758 43.8914 100.405 42.8903 99.753 42.0922C99.1006 41.2942 98.1896 40.7495 97.1778 40.5525H97.177Z" fill="#231F20"/>
<path fill-rule="evenodd" clip-rule="evenodd" d="M71.8496 38.2292V83.105H97.9877V44.9222C97.9909 44.53 97.8567 44.149 97.6083 43.8455C97.3599 43.5419 97.0131 43.3348 96.628 43.2602L71.8496 38.2292ZM93.4696 72.7867H76.3693C76.003 72.7867 75.6517 72.6412 75.3926 72.3821C75.1336 72.1231 74.9881 71.7718 74.9881 71.4055V49.1795C74.9881 48.9981 75.0238 48.8185 75.0932 48.6509C75.1627 48.4834 75.2644 48.3311 75.3926 48.2028C75.5209 48.0746 75.6732 47.9728 75.8408 47.9034C76.0083 47.834 76.188 47.7983 76.3693 47.7983H93.4694C93.6508 47.7983 93.8304 47.834 93.998 47.9034C94.1656 47.9728 94.3179 48.0746 94.4461 48.2028C94.5744 48.3311 94.6761 48.4834 94.7455 48.6509C94.8149 48.8185 94.8507 48.9981 94.8507 49.1795V71.405C94.8507 71.5864 94.815 71.7661 94.7457 71.9337C94.6763 72.1013 94.5746 72.2536 94.4463 72.3819C94.3181 72.5102 94.1658 72.612 93.9982 72.6815C93.8307 72.7509 93.651 72.7867 93.4696 72.7867Z" fill="#00ABEA"/>
<path fill-rule="evenodd" clip-rule="evenodd" d="M32.151 83.1052V55.2842L7.48984 58.4974C7.08019 58.5474 6.70326 58.7464 6.431 59.0565C6.15874 59.3667 6.0102 59.7662 6.01373 60.1789V83.1052H32.151ZM10.5314 61.9059H27.6315C27.8129 61.9059 27.9925 61.9416 28.1601 62.011C28.3277 62.0804 28.4799 62.1821 28.6082 62.3104C28.7365 62.4387 28.8382 62.5909 28.9076 62.7585C28.977 62.9261 29.0128 63.1057 29.0128 63.2871V75.7708C29.0128 75.9521 28.977 76.1318 28.9076 76.2993C28.8382 76.4669 28.7365 76.6192 28.6082 76.7474C28.4799 76.8757 28.3277 76.9775 28.1601 77.0469C27.9925 77.1163 27.8129 77.152 27.6315 77.152H10.5312C10.1651 77.1515 9.81401 77.0058 9.55508 76.7469C9.29615 76.488 9.15047 76.1369 9.14998 75.7708V63.2875C9.14993 63.1061 9.18562 62.9264 9.25503 62.7588C9.32443 62.5911 9.42618 62.4388 9.55447 62.3105C9.68276 62.1822 9.83507 62.0804 10.0027 62.011C10.1703 61.9415 10.35 61.9058 10.5314 61.9059Z" fill="#00ABEA"/>
<path fill-rule="evenodd" clip-rule="evenodd" d="M43.4502 60.8794H60.5501C60.9164 60.8794 61.2677 61.0249 61.5268 61.2839C61.7858 61.543 61.9313 61.8943 61.9313 62.2606V83.1051H69.0858V28.8437C69.0887 28.4518 68.9546 28.0713 68.7066 27.7678C68.4587 27.4643 68.1125 27.257 67.7279 27.1817L36.9467 20.9322C36.7003 20.8821 36.4458 20.8874 36.2017 20.9478C35.9576 21.0083 35.73 21.1222 35.5354 21.2815C35.3408 21.4408 35.1841 21.6414 35.0766 21.8688C34.9692 22.0961 34.9136 22.3445 34.9141 22.596V83.1051H42.0687V62.261C42.0687 62.0796 42.1045 61.9 42.1739 61.7324C42.2433 61.5649 42.345 61.4126 42.4733 61.2843C42.6016 61.1561 42.7538 61.0543 42.9214 60.9849C43.089 60.9155 43.2686 60.8798 43.45 60.8798L43.4502 60.8794ZM61.2352 55.434H43.1087C42.7424 55.434 42.3911 55.2885 42.132 55.0294C41.873 54.7704 41.7275 54.4191 41.7275 54.0527V30.1118C41.7275 29.9304 41.7632 29.7508 41.8326 29.5832C41.902 29.4157 42.0038 29.2634 42.132 29.1351C42.2603 29.0069 42.4126 28.9051 42.5802 28.8357C42.7477 28.7663 42.9273 28.7306 43.1087 28.7306H61.2352C61.6014 28.7311 61.9524 28.8767 62.2114 29.1357C62.4703 29.3946 62.616 29.7456 62.6165 30.1118V54.0525C62.6165 54.234 62.5808 54.4136 62.5114 54.5812C62.442 54.7488 62.3402 54.9011 62.212 55.0294C62.0837 55.1576 61.9314 55.2594 61.7638 55.3288C61.5962 55.3983 61.4166 55.434 61.2352 55.434Z" fill="#00ABEA"/>
</svg>
