<svg width="104" height="104" viewBox="0 0 104 104" fill="none" xmlns="http://www.w3.org/2000/svg">
<path fill-rule="evenodd" clip-rule="evenodd" d="M49.6357 17.9796L57.2875 15.929C57.5216 15.866 57.7351 15.7426 57.9065 15.5711C58.0779 15.3997 58.2012 15.1861 58.2641 14.952L60.313 7.30007L64.4399 11.4251L62.1822 19.8467L53.7602 22.1046L49.6368 17.9796H49.6357ZM53.706 24.9803L62.8992 22.5172L75.1048 34.7223C75.3639 34.9814 75.7153 35.127 76.0817 35.1269C76.4481 35.1269 76.7995 34.9813 77.0585 34.7222C77.3176 34.4632 77.4631 34.1117 77.4631 33.7453C77.4631 33.3789 77.3175 33.0276 77.0584 32.7685L64.8532 20.5631L67.3147 11.3697C67.3774 11.1355 67.3774 10.8889 67.3146 10.6547C67.2518 10.4205 67.1285 10.207 66.957 10.0356L60.5754 3.65458C60.404 3.48302 60.1903 3.35963 59.956 3.29684C59.7218 3.23405 59.4751 3.23406 59.2408 3.29688C59.0065 3.3597 58.7929 3.48311 58.6214 3.65469C58.45 3.82627 58.3267 4.03998 58.2641 4.27432L55.8012 13.4657L46.6096 15.929C46.3752 15.9916 46.1615 16.1149 45.9898 16.2863C45.8182 16.4578 45.6948 16.6715 45.632 16.9058C45.5692 17.1401 45.5692 17.3868 45.632 17.6212C45.6948 17.8555 45.8182 18.0691 45.9898 18.2406L52.3712 24.6234C52.5424 24.7951 52.7559 24.9186 52.9902 24.9813C53.2244 25.044 53.471 25.0438 53.7051 24.9807L53.706 24.9803ZM76.081 45.4216C77.8223 45.42 79.5412 45.0291 81.1119 44.2773C82.6826 43.5255 84.0652 42.4319 85.1585 41.0767C86.2519 39.7214 87.0282 38.1387 87.4308 36.4446C87.8333 34.7504 87.8519 32.9877 87.485 31.2855C87.1182 29.5832 86.3753 27.9846 85.3106 26.6066C84.246 25.2287 82.8867 24.1063 81.3322 23.3216C79.7777 22.537 78.0673 22.11 76.3264 22.0719C74.5855 22.0338 72.8581 22.3855 71.2708 23.1014C71.1054 23.1761 70.9564 23.2827 70.8322 23.4151C70.708 23.5475 70.6111 23.703 70.547 23.8728C70.483 24.0426 70.453 24.2234 70.4587 24.4048C70.4645 24.5862 70.506 24.7647 70.5808 24.9301C70.6555 25.0955 70.7621 25.2445 70.8945 25.3687C71.0269 25.4929 71.1824 25.5898 71.3522 25.6538C71.522 25.7179 71.7028 25.7479 71.8842 25.7421C72.0656 25.7363 72.2441 25.6949 72.4095 25.6201C74.3043 24.7641 76.4387 24.5975 78.4434 25.149C80.4481 25.7004 82.197 26.9354 83.3874 28.6401C84.5778 30.3447 85.1348 32.4119 84.9621 34.4839C84.7894 36.5559 83.8978 38.5023 82.4416 39.9864C80.9854 41.4704 79.0562 42.3988 76.9878 42.6107C74.9195 42.8227 72.8421 42.3049 71.1152 41.1471C69.3883 39.9892 68.1204 38.2641 67.531 36.2702C66.9417 34.2763 67.0678 32.1391 67.8877 30.2284C68.0219 29.8936 68.02 29.5196 67.8823 29.1863C67.7445 28.8529 67.482 28.5866 67.1506 28.4442C66.8192 28.3017 66.4453 28.2945 66.1086 28.4239C65.772 28.5534 65.4992 28.8093 65.3487 29.137C64.5869 30.9136 64.2779 32.8514 64.4494 34.7768C64.6209 36.7022 65.2675 38.5549 66.3313 40.1689C67.3951 41.7829 68.8428 43.1076 70.5445 44.0244C72.2463 44.9412 74.149 45.4213 76.082 45.4218L76.081 45.4216ZM26.5632 97.9875H19.0057V83.787L22.7838 80.8894L26.5634 83.787L26.5632 97.9875ZM28.7852 82.0086L23.6242 78.0513C23.3829 77.8663 23.0874 77.7659 22.7833 77.7659C22.4793 77.7659 22.1837 77.8663 21.9425 78.0513L16.7831 82.0086C16.6149 82.1377 16.4786 82.3038 16.3848 82.494C16.291 82.6842 16.2422 82.8934 16.2422 83.1055V99.3687C16.2422 99.735 16.3877 100.086 16.6467 100.345C16.9058 100.604 17.2571 100.75 17.6234 100.75H27.944C28.3103 100.75 28.6617 100.604 28.9207 100.345C29.1797 100.086 29.3253 99.735 29.3253 99.3687V83.1053C29.3254 82.8932 29.2766 82.684 29.1828 82.4937C29.089 82.3035 28.9527 82.1375 28.7843 82.0084L28.7852 82.0086ZM45.0664 97.9875H37.5102V74.2966L41.2887 71.3984L45.0668 74.2976V97.9875H45.0664ZM47.2886 72.5192L42.1292 68.562C41.8882 68.3766 41.5926 68.2761 41.2885 68.2761C40.9844 68.2761 40.6889 68.3766 40.4478 68.562L35.287 72.5192C35.119 72.6482 34.9829 72.8141 34.8891 73.0039C34.7953 73.1938 34.7463 73.4027 34.7459 73.6145V99.3687C34.7459 99.735 34.8914 100.086 35.1504 100.345C35.4095 100.604 35.7608 100.75 36.1271 100.75H46.4477C46.814 100.75 47.1653 100.604 47.4244 100.345C47.6834 100.086 47.8289 99.735 47.8289 99.3687V73.6137C47.829 73.4018 47.7802 73.1928 47.6864 73.0029C47.5926 72.8129 47.4563 72.6472 47.288 72.5184L47.2886 72.5192ZM63.5717 97.9875H56.0143V63.3821L59.7924 60.4829L63.5719 63.3821V97.9875H63.5717ZM65.7937 61.6047L60.6325 57.6468C60.3913 57.4617 60.0957 57.3614 59.7917 57.3614C59.4876 57.3614 59.1921 57.4617 58.9508 57.6468L53.7915 61.6041C53.6231 61.7332 53.4868 61.8992 53.3929 62.0894C53.299 62.2796 53.2502 62.4889 53.2501 62.701V99.3681C53.2501 99.7344 53.3957 100.086 53.6547 100.345C53.9137 100.604 54.2651 100.749 54.6314 100.749H64.952C65.3183 100.749 65.6696 100.604 65.9287 100.345C66.1877 100.086 66.3332 99.7344 66.3332 99.3681V62.7012C66.3332 62.4891 66.2844 62.2799 66.1906 62.0897C66.0968 61.8995 65.9605 61.7334 65.7923 61.6043L65.7937 61.6047ZM82.0746 97.9875H74.5183V54.3014L78.2979 51.404L82.076 54.3014V97.9875H82.0746ZM84.2966 52.525L79.1372 48.5659C78.8957 48.3816 78.6002 48.2817 78.2964 48.2817C77.9925 48.2817 77.6971 48.3816 77.4555 48.5659L72.2945 52.5252C72.1261 52.6538 71.9897 52.8196 71.8958 53.0095C71.802 53.1995 71.7533 53.4086 71.7536 53.6205V99.3685C71.7536 99.7348 71.8991 100.086 72.1582 100.345C72.4172 100.604 72.7685 100.75 73.1349 100.75H83.4556C83.822 100.75 84.1733 100.604 84.4323 100.345C84.6914 100.086 84.8369 99.7348 84.8369 99.3685V53.6205C84.8372 53.4086 84.7886 53.1996 84.6949 53.0095C84.6012 52.8195 84.4649 52.6537 84.2966 52.525Z" fill="#231F20"/>
<path fill-rule="evenodd" clip-rule="evenodd" d="M26.5633 97.9867V83.7862L22.7838 80.8887L19.0059 83.7862V97.9867H26.5633Z" fill="#00ABEA"/>
<path fill-rule="evenodd" clip-rule="evenodd" d="M56.0146 63.3821V97.9867H63.5721V63.3821L59.7926 60.4829L56.0146 63.3821Z" fill="#00ABEA"/>
<path fill-rule="evenodd" clip-rule="evenodd" d="M53.7602 22.1046L62.1822 19.8467L64.4399 11.4251L60.313 7.30005L58.2641 14.952C58.2012 15.1861 58.0779 15.3997 57.9065 15.5711C57.7351 15.7426 57.5216 15.866 57.2875 15.929L49.6357 17.9795L53.7602 22.1046Z" fill="#00ABEA"/>
</svg>
