<svg width="104" height="104" viewBox="0 0 104 104" fill="none" xmlns="http://www.w3.org/2000/svg">
<path fill-rule="evenodd" clip-rule="evenodd" d="M29.8774 17.8415C31.3016 17.8417 32.6938 18.2643 33.8779 19.0557C35.0619 19.8472 35.9847 20.972 36.5295 22.2878C37.0743 23.6037 37.2167 25.0516 36.9386 26.4484C36.6605 27.8452 35.9745 29.1282 34.9673 30.1351C33.9601 31.142 32.6769 31.8277 31.28 32.1053C29.8831 32.3829 28.4352 32.2401 27.1195 31.6949C25.8038 31.1497 24.6793 30.2266 23.8882 29.0423C23.0972 27.858 22.675 26.4657 22.6752 25.0415C22.677 23.1321 23.4364 21.3014 24.7868 19.9515C26.1372 18.6015 27.968 17.8427 29.8774 17.8415ZM29.8774 35.0066C31.848 35.0063 33.7743 34.4218 35.4127 33.3268C37.0512 32.2318 38.3281 30.6756 39.0821 28.855C39.8361 27.0343 40.0333 25.0309 39.6488 23.0982C39.2643 21.1655 38.3153 19.3901 36.9218 17.9967C35.5284 16.6033 33.753 15.6543 31.8203 15.2699C29.8875 14.8854 27.8842 15.0826 26.0635 15.8367C24.2429 16.5907 22.6867 17.8677 21.5918 19.5061C20.4968 21.1445 19.9123 23.0708 19.9121 25.0415C19.9146 27.6836 20.9654 30.2169 22.8337 32.0851C24.702 33.9534 27.2353 35.0041 29.8774 35.0066ZM46.1884 66.2915C46.1875 67.3603 45.7626 68.3852 45.007 69.1412C44.2513 69.8971 43.2266 70.3224 42.1578 70.3237H41.4196V52.6256C41.4196 52.2593 41.2741 51.908 41.015 51.6489C40.756 51.3899 40.4047 51.2444 40.0384 51.2444C39.672 51.2444 39.3207 51.3899 39.0617 51.6489C38.8026 51.908 38.6571 52.2593 38.6571 52.6256V94.4164C38.6573 95.314 38.3195 96.1788 37.7108 96.8386C37.1021 97.4983 36.2672 97.9046 35.3725 97.9765C34.4777 98.0484 33.5887 97.7807 32.8824 97.2267C32.1762 96.6726 31.7045 95.8729 31.5613 94.9867C31.5794 94.7993 31.589 94.6099 31.589 94.4164V80.0893C31.589 79.723 31.4434 79.3717 31.1844 79.1126C30.9254 78.8536 30.574 78.7081 30.2077 78.7081C29.8414 78.7081 29.4901 78.8536 29.231 79.1126C28.972 79.3717 28.8265 79.723 28.8265 80.0893V94.4162C28.8265 94.885 28.7341 95.3493 28.5547 95.7825C28.3752 96.2157 28.1122 96.6094 27.7807 96.9409C27.4491 97.2725 27.0555 97.5355 26.6223 97.7149C26.1891 97.8943 25.7248 97.9867 25.2559 97.9867C24.787 97.9867 24.3227 97.8943 23.8895 97.7149C23.4563 97.5355 23.0627 97.2725 22.7312 96.9409C22.3996 96.6094 22.1366 96.2157 21.9572 95.7825C21.7778 95.3493 21.6854 94.885 21.6854 94.4162V52.6254C21.6854 52.259 21.5398 51.9075 21.2807 51.6484C21.0216 51.3892 20.6701 51.2437 20.3036 51.2437C19.9372 51.2437 19.5857 51.3892 19.3266 51.6484C19.0675 51.9075 18.9219 52.259 18.9219 52.6254V70.3235H17.5969C16.5278 70.3226 15.5027 69.8975 14.7467 69.1415C13.9907 68.3855 13.5656 67.3604 13.5647 66.2913V47.0147C13.5669 44.9305 14.3958 42.9324 15.8695 41.4586C17.3432 39.9849 19.3414 39.156 21.4256 39.1538H21.4459C21.3105 39.6505 21.2754 40.1692 21.3428 40.6796C21.4103 41.19 21.5788 41.6818 21.8386 42.1263L26.4879 50.1802C26.8314 50.7749 27.3254 51.2687 27.9202 51.612C28.515 51.9553 29.1897 52.1361 29.8765 52.1361C30.5633 52.1361 31.238 51.9553 31.8328 51.612C32.4276 51.2687 32.9216 50.7749 33.2652 50.1802L37.9155 42.1255C38.1751 41.681 38.3435 41.1892 38.4109 40.6789C38.4783 40.1686 38.4433 39.65 38.3079 39.1534H38.3256C40.4099 39.1552 42.4082 39.9841 43.882 41.4579C45.3559 42.9317 46.1847 44.93 46.1865 47.0143V66.2909L46.1884 66.2915ZM35.5221 39.5954C35.4184 39.4083 35.2633 39.2549 35.0752 39.1532H24.6752C24.4878 39.2558 24.333 39.4089 24.2283 39.5952C24.1219 39.7678 24.0655 39.9667 24.0655 40.1695C24.0655 40.3723 24.1219 40.5712 24.2283 40.7438L28.8799 48.7985C28.9807 48.9733 29.1258 49.1185 29.3005 49.2194C29.4752 49.3203 29.6734 49.3734 29.8752 49.3734C30.077 49.3734 30.2752 49.3203 30.4499 49.2194C30.6246 49.1185 30.7697 48.9733 30.8705 48.7985L35.52 40.7438C35.6265 40.5712 35.683 40.3723 35.683 40.1695C35.683 39.9666 35.6265 39.7678 35.52 39.5952L35.5221 39.5954ZM38.3264 36.39H21.4264C18.6098 36.3933 15.9094 37.5135 13.9176 39.5051C11.9259 41.4966 10.8053 44.1969 10.8018 47.0135V66.2901C10.8038 68.0917 11.5204 69.8189 12.7943 71.0928C14.0683 72.3668 15.7955 73.0833 17.5971 73.0854H18.9219V94.4164C18.9211 95.7252 19.3261 97.002 20.081 98.0711C20.836 99.1402 21.9037 99.9491 23.1373 100.386C24.3709 100.823 25.7097 100.868 26.9694 100.512C28.2291 100.157 29.3477 99.4204 30.1714 98.4033C30.9948 99.4205 32.1134 100.157 33.373 100.513C34.6326 100.868 35.9713 100.824 37.2049 100.386C38.4384 99.9491 39.5061 99.1402 40.2608 98.0711C41.0156 97.0019 41.4204 95.7251 41.4194 94.4164V73.0868H42.1574C43.9588 73.0848 45.6858 72.3681 46.9594 71.0941C48.233 69.8201 48.9492 68.0929 48.9507 66.2915V47.0149C48.9473 44.1982 47.8268 41.4978 45.835 39.5063C43.8432 37.5147 41.1427 36.3945 38.326 36.3915L38.3264 36.39ZM92.4944 20.6361L86.9684 23.7467C86.8102 23.8358 86.6362 23.8928 86.456 23.9146C86.2759 23.9364 86.0932 23.9225 85.9184 23.8736C85.7437 23.8248 85.5802 23.742 85.4375 23.63C85.2947 23.5181 85.1753 23.379 85.0863 23.2209C84.9972 23.0628 84.9402 22.8888 84.9184 22.7086C84.8967 22.5285 84.9106 22.3458 84.9594 22.171C85.0082 21.9963 85.091 21.8328 85.203 21.69C85.315 21.5473 85.454 21.4279 85.6121 21.3389L91.1403 18.2282C91.4594 18.0514 91.8356 18.008 92.1866 18.1075C92.5376 18.207 92.835 18.4413 93.0138 18.7593C93.1927 19.0773 93.2384 19.4532 93.1411 19.8048C93.0438 20.1564 92.8113 20.4553 92.4944 20.6361ZM83.7216 10.9927L79.2311 16.3473C79.1146 16.4864 78.9719 16.6011 78.811 16.685C78.6502 16.7689 78.4744 16.8203 78.2937 16.8362C78.113 16.8522 77.9309 16.8324 77.7578 16.7779C77.5848 16.7235 77.4241 16.6355 77.2851 16.519C77.146 16.4025 77.0313 16.2598 76.9474 16.0989C76.8635 15.9381 76.8121 15.7623 76.7962 15.5816C76.7802 15.4009 76.8 15.2188 76.8544 15.0458C76.9089 14.8727 76.9968 14.7121 77.1133 14.573L81.6038 9.21842C81.8391 8.93759 82.1763 8.76172 82.5413 8.72951C82.9062 8.6973 83.269 8.81139 83.5499 9.04668C83.8307 9.28197 84.0066 9.61918 84.0388 9.98413C84.071 10.3491 83.9569 10.7119 83.7216 10.9927ZM65.5637 11.9815L65.6936 4.60809C65.6992 4.24591 65.847 3.90044 66.1051 3.64632C66.3633 3.39221 66.711 3.24985 67.0733 3.25H67.0989C67.465 3.25667 67.8135 3.40847 68.0678 3.67201C68.322 3.93556 68.4612 4.28928 68.4547 4.65542L68.3268 12.0309C68.3202 12.3928 68.1717 12.7377 67.9134 12.9913C67.6551 13.245 67.3075 13.387 66.9455 13.387C66.9378 13.387 66.9297 13.387 66.9199 13.387C66.7386 13.3838 66.5596 13.3449 66.3933 13.2726C66.227 13.2002 66.0766 13.0958 65.9507 12.9653C65.8248 12.8347 65.7259 12.6807 65.6596 12.5119C65.5933 12.3431 65.5609 12.1629 65.5643 11.9815H65.5637ZM54.0668 15.2163L50.4392 10.0344C50.2291 9.7342 50.1468 9.36286 50.2105 9.00204C50.2742 8.64122 50.4786 8.32048 50.7788 8.11038C51.079 7.90027 51.4503 7.81802 51.8111 7.88171C52.1719 7.94541 52.4927 8.14982 52.7028 8.45L56.3308 13.6309C56.5409 13.9311 56.6231 14.3025 56.5594 14.6634C56.4957 15.0242 56.2912 15.345 55.991 15.5551C55.6907 15.7652 55.3194 15.8474 54.9585 15.7837C54.5976 15.72 54.2769 15.5155 54.0668 15.2153V15.2163ZM49.5414 22.9554C49.3856 23.2871 49.1046 23.5435 48.7601 23.6682C48.4155 23.793 48.0354 23.7758 47.7035 23.6206L42.1771 21.0291C42.009 20.9546 41.8575 20.8473 41.7314 20.7135C41.6053 20.5797 41.5072 20.422 41.4429 20.2498C41.3785 20.0776 41.3492 19.8942 41.3566 19.7105C41.364 19.5268 41.4081 19.3465 41.4861 19.18C41.5642 19.0135 41.6747 18.8643 41.8111 18.7411C41.9476 18.6179 42.1073 18.5232 42.2808 18.4625C42.4544 18.4018 42.6383 18.3764 42.8218 18.3877C43.0053 18.399 43.1847 18.4469 43.3495 18.5285L48.8761 21.1181C49.2078 21.2737 49.4642 21.5546 49.5889 21.8991C49.7137 22.2436 49.6966 22.6235 49.5414 22.9554ZM71.307 59.1821C71.3065 59.6803 71.1083 60.158 70.756 60.5103C70.4036 60.8626 69.9259 61.0607 69.4277 61.0612H63.6847C63.1865 61.0608 62.7088 60.8628 62.3565 60.5106C62.0042 60.1583 61.806 59.6807 61.8054 59.1825V57.3036H71.307V59.1823V59.1821ZM72.6883 54.5401H60.4236C60.0572 54.5401 59.7059 54.6856 59.4469 54.9446C59.1878 55.2037 59.0423 55.555 59.0423 55.9213V59.1817C59.0436 60.4124 59.5331 61.5924 60.4033 62.4627C61.2736 63.333 62.4536 63.8226 63.6843 63.8239H69.4285C70.6592 63.8225 71.8391 63.333 72.7093 62.4627C73.5795 61.5925 74.069 60.4126 74.0703 59.1819V55.9217C74.0703 55.5554 73.9248 55.2041 73.6658 54.945C73.4067 54.686 73.0554 54.5405 72.6891 54.5405L72.6883 54.5401ZM76.987 40.0926C75.2897 42.2222 73.3809 44.6164 73.1441 51.0861H60.4833C60.2308 44.6658 58.1975 42.404 56.3897 40.3928C54.7832 38.6053 53.5139 37.1914 53.5139 32.6026C53.5139 29.144 54.8878 25.8271 57.3334 23.3815C59.779 20.9359 63.0959 19.562 66.5545 19.562C70.0131 19.562 73.33 20.9359 75.7756 23.3815C78.2212 25.8271 79.5951 29.144 79.5951 32.6026C79.5951 36.8164 78.4446 38.2633 76.9862 40.0926H76.987ZM66.5561 16.7984C62.3661 16.8032 58.3491 18.4697 55.3861 21.4322C52.4231 24.3948 50.7561 28.4116 50.7508 32.6016C50.7508 38.2503 52.5724 40.2772 54.3351 42.2372C56.0897 44.1911 57.7476 46.0346 57.7476 52.4668C57.7476 52.6482 57.7833 52.8278 57.8527 52.9954C57.9222 53.1629 58.0239 53.3152 58.1522 53.4435C58.2804 53.5717 58.4327 53.6735 58.6003 53.7429C58.7679 53.8123 58.9475 53.848 59.1289 53.848H74.5026C74.8688 53.8475 75.2198 53.7019 75.4787 53.4429C75.7377 53.184 75.8833 52.833 75.8838 52.4668C75.8838 45.9101 77.4682 43.9207 79.1462 41.8147C80.7271 39.8312 82.3592 37.7825 82.3592 32.6016C82.3545 28.4118 80.688 24.395 77.7253 21.4324C74.7627 18.4697 70.7459 16.8032 66.5561 16.7984Z" fill="#231F20"/>
<path fill-rule="evenodd" clip-rule="evenodd" d="M22.6748 25.0415C22.6746 26.4657 23.0967 27.858 23.8878 29.0423C24.6789 30.2266 25.8034 31.1498 27.1191 31.695C28.4348 32.2402 29.8827 32.383 31.2796 32.1054C32.6765 31.8277 33.9596 31.1421 34.9669 30.1352C35.9741 29.1283 36.6601 27.8453 36.9382 26.4485C37.2163 25.0517 37.0739 23.6038 36.5291 22.2879C35.9843 20.972 35.0615 19.8472 33.8774 19.0558C32.6934 18.2644 31.3012 17.8418 29.877 17.8416C27.968 17.8439 26.1377 18.6031 24.7876 19.9528C23.4375 21.3025 22.6777 23.1325 22.6748 25.0415Z" fill="#00ABEA"/>
<path fill-rule="evenodd" clip-rule="evenodd" d="M53.5137 32.6026C53.5137 37.1914 54.783 38.6046 56.3895 40.3929C58.1973 42.4038 60.2306 44.6658 60.4831 51.0862H73.1441C73.3809 44.6165 75.2897 42.2222 76.987 40.0927C78.4454 38.2633 79.5963 36.8165 79.5959 32.6026C79.5959 29.144 78.222 25.8271 75.7764 23.3815C73.3308 20.9359 70.0139 19.562 66.5553 19.562C63.0967 19.562 59.7798 20.9359 57.3342 23.3815C54.8886 25.8271 53.5147 29.144 53.5147 32.6026H53.5137Z" fill="#00ABEA"/>
</svg>
