<svg width="104" height="104" viewBox="0 0 104 104" fill="none" xmlns="http://www.w3.org/2000/svg">
<path fill-rule="evenodd" clip-rule="evenodd" d="M39.8891 34.5642C40.268 31.5906 41.7182 28.8571 43.9678 26.8759C46.2175 24.8948 49.1123 23.8018 52.11 23.8018C55.1077 23.8018 58.0026 24.8948 60.2522 26.8759C62.5019 28.8571 63.952 31.5906 64.3309 34.5642C64.3581 34.7777 64.3395 34.9945 64.2764 35.2002C64.2133 35.4059 64.1071 35.5958 63.9649 35.7573C63.8227 35.9188 63.6478 36.0482 63.4517 36.1369C63.2557 36.2255 63.043 36.2714 62.8278 36.2715H41.3929C41.1778 36.271 40.9653 36.2249 40.7694 36.1361C40.5736 36.0473 40.3988 35.9179 40.2567 35.7565C40.1146 35.5951 40.0084 35.4053 39.9451 35.1998C39.8818 34.9943 39.863 34.7776 39.8897 34.5642H39.8891ZM41.3922 39.0348H62.8262C63.4336 39.0348 64.0341 38.9055 64.5877 38.6555C65.1413 38.4054 65.6354 38.0404 66.037 37.5846C66.4386 37.1289 66.7385 36.5928 66.9169 36.0122C67.0953 35.4315 67.148 34.8195 67.0715 34.2169C66.608 30.5759 64.8327 27.2288 62.0783 24.8028C59.3239 22.3768 55.7794 21.0384 52.109 21.0384C48.4386 21.0384 44.8941 22.3768 42.1397 24.8028C39.3853 27.2288 37.61 30.5759 37.1465 34.2169C37.0701 34.8195 37.1229 35.4315 37.3013 36.0121C37.4797 36.5928 37.7796 37.1288 38.1812 37.5845C38.5828 38.0403 39.0768 38.4053 39.6304 38.6554C40.1839 38.9054 40.7844 39.0348 41.3918 39.0348H41.3922ZM52.1101 6.01238C53.2059 6.01238 54.277 6.33731 55.1881 6.94608C56.0992 7.55485 56.8093 8.42011 57.2286 9.43246C57.648 10.4448 57.7577 11.5588 57.5439 12.6335C57.3301 13.7082 56.8025 14.6953 56.0277 15.4702C55.2529 16.245 54.2657 16.7726 53.191 16.9864C52.1163 17.2002 51.0023 17.0905 49.99 16.6711C48.9776 16.2518 48.1124 15.5417 47.5036 14.6306C46.8948 13.7195 46.5699 12.6484 46.5699 11.5526C46.5712 10.0837 47.1554 8.67527 48.1941 7.63656C49.2328 6.59786 50.6412 6.01373 52.1101 6.01238ZM52.1101 19.856C53.7524 19.8559 55.3577 19.3689 56.7232 18.4565C58.0886 17.5441 59.1528 16.2473 59.7813 14.73C60.4097 13.2128 60.5741 11.5433 60.2537 9.93259C59.9333 8.32191 59.1425 6.84242 57.9812 5.68119C56.82 4.51997 55.3404 3.72917 53.7298 3.4088C52.1191 3.08843 50.4496 3.25288 48.9323 3.88134C47.4151 4.50981 46.1183 5.57407 45.2059 6.93955C44.2936 8.30502 43.8066 9.91038 43.8066 11.5526C43.8088 13.7541 44.6844 15.8648 46.2411 17.4215C47.7979 18.9782 49.9086 19.8538 52.1101 19.856ZM78.2554 82.6037C76.5954 82.6035 74.9728 82.1111 73.5928 81.1888C72.2127 80.2664 71.1371 78.9556 70.5019 77.422C69.8668 75.8884 69.7007 74.2009 70.0246 72.5728C70.3485 70.9448 71.1479 69.4494 72.3216 68.2757C73.4954 67.1019 74.9908 66.3026 76.6188 65.9788C78.2469 65.6549 79.9344 65.821 81.468 66.4562C83.0016 67.0914 84.3124 68.167 85.2347 69.5471C86.157 70.9272 86.6493 72.5499 86.6495 74.2098C86.6473 76.4353 85.7622 78.5691 84.1885 80.1428C82.6147 81.7165 80.4809 82.6016 78.2554 82.6037ZM78.2554 63.0543C76.0488 63.0545 73.8918 63.7089 72.0572 64.9349C70.2226 66.1609 68.7928 67.9034 67.9485 69.9421C67.1042 71.9807 66.8834 74.2239 67.3141 76.388C67.7447 78.5522 68.8074 80.54 70.3678 82.1002C71.9281 83.6603 73.9161 84.7227 76.0803 85.153C78.2445 85.5833 80.4877 85.3622 82.5262 84.5176C84.5647 83.6731 86.307 82.243 87.5328 80.4082C88.7585 78.5734 89.4126 76.4163 89.4124 74.2098C89.4087 71.252 88.2319 68.4166 86.1403 66.3253C84.0488 64.234 81.2131 63.0577 78.2554 63.0543ZM95.8039 76.4636V71.9577C95.8031 71.8727 95.7689 71.7913 95.7088 71.7311C95.6486 71.671 95.5673 71.6368 95.4822 71.636H92.0256C91.7256 71.6361 91.4337 71.5385 91.194 71.358C90.9544 71.1774 90.7801 70.9238 90.6974 70.6354C90.4273 69.6989 90.0526 68.7959 89.5802 67.9434C89.4343 67.6809 89.378 67.378 89.4197 67.0806C89.4614 66.7832 89.5989 66.5075 89.8113 66.2952L92.2564 63.8498C92.3162 63.7894 92.3498 63.7078 92.3498 63.6228C92.3498 63.5378 92.3162 63.4562 92.2564 63.3958L89.071 60.2084C89.0099 60.1498 88.9285 60.1172 88.8439 60.1176C88.802 60.1171 88.7604 60.1248 88.7215 60.1404C88.6826 60.156 88.6471 60.1791 88.6172 60.2084L86.1695 62.6558C85.9575 62.8676 85.6823 63.0047 85.3855 63.0463C85.0887 63.088 84.7864 63.032 84.5242 62.8868C83.6721 62.4137 82.7689 62.0389 81.8322 61.7696C81.5439 61.6867 81.2903 61.5123 81.1098 61.2726C80.9293 61.033 80.8317 60.7412 80.8316 60.4411V56.9833C80.8302 56.8987 80.7959 56.8179 80.7358 56.7581C80.6757 56.6984 80.5947 56.6645 80.5101 56.6636H76.0033C75.9185 56.6642 75.8374 56.698 75.7772 56.7578C75.7171 56.8176 75.6828 56.8986 75.6818 56.9833V60.4414C75.6817 60.7414 75.584 61.0332 75.4035 61.2728C75.2229 61.5124 74.9693 61.6868 74.681 61.7696C73.744 62.0382 72.8408 62.413 71.989 62.8868C71.7268 63.0322 71.4245 63.0883 71.1277 63.0466C70.8308 63.005 70.5556 62.8678 70.3436 62.6558L67.8958 60.2084C67.8349 60.1495 67.7536 60.1166 67.6689 60.1166C67.5842 60.1166 67.5029 60.1495 67.442 60.2084L64.254 63.3952C64.1954 63.4562 64.1628 63.5377 64.1632 63.6223C64.1626 63.6642 64.1703 63.7059 64.1859 63.7448C64.2015 63.7837 64.2246 63.8192 64.254 63.8492L66.7014 66.2946C66.913 66.5074 67.0498 66.783 67.0915 67.0802C67.1331 67.3774 67.0773 67.68 66.9324 67.9428C66.4591 68.7949 66.0843 69.698 65.8152 70.6348C65.7325 70.9231 65.5582 71.1768 65.3186 71.3573C65.079 71.5378 64.7871 71.6354 64.4871 71.6354H61.0289C60.9442 71.6367 60.8634 71.6711 60.8037 71.7312C60.744 71.7913 60.7101 71.8724 60.7092 71.9571V76.463C60.7101 76.5478 60.744 76.6288 60.8037 76.6889C60.8634 76.749 60.9442 76.7834 61.0289 76.7848H64.4869C64.787 76.7847 65.0789 76.8823 65.3185 77.0628C65.5582 77.2433 65.7325 77.497 65.8152 77.7854C66.0845 78.7222 66.4593 79.6254 66.9324 80.4776C67.0771 80.7399 67.1328 81.0421 67.0912 81.3387C67.0496 81.6354 66.9129 81.9105 66.7016 82.1229L64.254 84.5704C64.1948 84.631 64.1622 84.7126 64.1632 84.7973C64.163 84.8818 64.1955 84.9632 64.254 85.0244L67.4416 88.2098C67.5021 88.2695 67.5837 88.3031 67.6687 88.3031C67.7537 88.3031 67.8353 88.2695 67.8958 88.2098L70.3428 85.7643C70.5548 85.5524 70.83 85.4152 71.1268 85.3735C71.4237 85.3319 71.726 85.388 71.9881 85.5334C72.8407 86.0056 73.7437 86.3804 74.6802 86.6506C74.9686 86.7332 75.2224 86.9075 75.403 87.1471C75.5836 87.3868 75.6812 87.6787 75.6812 87.9788V91.4348C75.682 91.5198 75.7162 91.6012 75.7763 91.6613C75.8365 91.7215 75.9178 91.7557 76.0029 91.7565H80.5088C80.5939 91.7557 80.6753 91.7215 80.7354 91.6613C80.7956 91.6012 80.8297 91.5198 80.8306 91.4348V87.98C80.8305 87.68 80.9281 87.3881 81.1086 87.1485C81.2891 86.9088 81.5428 86.7345 81.8312 86.6518C82.768 86.3827 83.6711 86.0079 84.5232 85.5346C84.7855 85.3891 85.088 85.3329 85.3851 85.3746C85.6822 85.4163 85.9576 85.5535 86.1697 85.7655L88.6168 88.211C88.6464 88.2409 88.6818 88.2645 88.7208 88.2804C88.7598 88.2964 88.8016 88.3043 88.8437 88.3038C88.9287 88.3042 89.0105 88.2708 89.071 88.211L92.2562 85.0256C92.2861 84.9959 92.3098 84.9605 92.3258 84.9215C92.3417 84.8825 92.3496 84.8406 92.349 84.7985C92.3494 84.7561 92.3414 84.714 92.3254 84.6748C92.3095 84.6355 92.286 84.5997 92.2562 84.5695L89.8111 82.1233C89.599 81.9115 89.4616 81.6363 89.42 81.3393C89.3783 81.0424 89.4347 80.74 89.5804 80.478C90.0527 79.6254 90.4274 78.7223 90.6976 77.7858C90.7803 77.4973 90.9547 77.2437 91.1943 77.0631C91.434 76.8826 91.726 76.785 92.026 76.7852H95.4818C95.5669 76.7842 95.6482 76.75 95.7084 76.6899C95.7686 76.6298 95.803 76.5485 95.8042 76.4634L95.8039 76.4636ZM95.4816 68.8729H93.0284C92.8659 68.4209 92.6809 67.9748 92.4757 67.5387L94.2106 65.8039C94.7889 65.2253 95.1137 64.4409 95.1137 63.6229C95.1137 62.8049 94.7889 62.0205 94.2106 61.4419L91.0252 58.2545C90.4457 57.678 89.6616 57.3544 88.8442 57.3544C88.0268 57.3544 87.2426 57.678 86.6631 58.2545L84.9266 59.9912C84.4923 59.7861 84.0461 59.6006 83.5941 59.4387V56.9833C83.5929 56.1657 83.2673 55.3819 82.6889 54.804C82.1105 54.226 81.3265 53.9011 80.5088 53.9005H76.0033C75.1857 53.9012 74.4018 54.2262 73.8235 54.8041C73.2452 55.382 72.9197 56.1658 72.9185 56.9833V59.4387C72.4663 59.6024 72.02 59.7861 71.5858 59.9912L69.8488 58.2545C69.27 57.6769 68.4857 57.3525 67.668 57.3525C66.8503 57.3525 66.066 57.6769 65.4871 58.2545L62.3001 61.4419C61.7236 62.0214 61.4 62.8055 61.4 63.6229C61.4 64.4403 61.7236 65.2244 62.3001 65.8039L64.0372 67.5385C63.8317 67.9748 63.646 68.4209 63.4843 68.8729H61.0289C60.2114 68.8741 59.4276 69.1996 58.8497 69.7779C58.2718 70.3562 57.9468 71.1401 57.9461 71.9577V76.4636C57.9468 77.2812 58.2717 78.0651 58.8496 78.6434C59.4275 79.2217 60.2112 79.5472 61.0287 79.5485H63.4843C63.6468 80.0005 63.8317 80.4465 64.0368 80.8808L62.3001 82.6175C61.7236 83.1966 61.4 83.9805 61.4 84.7976C61.4 85.6147 61.7236 86.3985 62.3001 86.9776L65.4871 90.165C66.0656 90.7432 66.8501 91.068 67.668 91.068C68.4859 91.068 69.2703 90.7432 69.8488 90.165L71.5862 88.4301C72.02 88.6353 72.4661 88.8189 72.9181 88.9827V91.436C72.9188 92.2539 73.2439 93.038 73.8222 93.6164C74.4005 94.1948 75.1846 94.52 76.0025 94.5209H80.5086C81.3265 94.5201 82.1107 94.1948 82.6891 93.6165C83.2674 93.0381 83.5926 92.2539 83.5933 91.436V88.9827C84.0448 88.8189 84.4909 88.6355 84.9252 88.4301L86.6623 90.165C87.2407 90.7425 88.0247 91.0669 88.842 91.0669C89.6594 91.0669 90.4434 90.7425 91.0218 90.165L94.2094 86.9794C94.7871 86.4006 95.1115 85.6162 95.1115 84.7985C95.1115 83.9807 94.7871 83.1964 94.2094 82.6175L92.4747 80.8808C92.6801 80.4465 92.8633 80.0007 93.027 79.5485H95.4804C96.2983 79.5478 97.0826 79.2226 97.6609 78.6442C98.2393 78.0658 98.5645 77.2816 98.5652 76.4636V71.9577C98.5645 71.1397 98.2392 70.3553 97.6607 69.777C97.0822 69.1986 96.2978 68.8734 95.4798 68.8729H95.4816ZM72.0278 29.0618C72.2383 28.7621 72.559 28.5581 72.9197 28.4945C73.2804 28.4309 73.6516 28.5128 73.952 28.7224C80.0087 32.9817 84.7654 38.8375 87.693 45.6386L87.8725 45.3248C88.0587 45.0137 88.3598 44.7883 88.7108 44.6973C89.0617 44.6062 89.4344 44.6568 89.7484 44.8381C90.0623 45.0194 90.2924 45.3169 90.389 45.6664C90.4856 46.0158 90.4409 46.3892 90.2645 46.706L88.6395 49.5226C88.5488 49.6797 88.428 49.8174 88.284 49.9278C88.1401 50.0382 87.9758 50.1192 87.8006 50.1661C87.6253 50.213 87.4425 50.2249 87.2627 50.2012C87.0828 50.1775 86.9094 50.1185 86.7523 50.0277L83.6693 48.2494C83.3806 48.0823 83.1621 47.8164 83.0542 47.5008C82.9463 47.1851 82.9563 46.8411 83.0823 46.5323C83.2083 46.2234 83.4417 45.9706 83.7396 45.8205C84.0374 45.6704 84.3796 45.6331 84.7028 45.7156C81.9501 39.8113 77.6968 34.7325 72.3674 30.9862C72.2187 30.8822 72.0919 30.7499 71.9944 30.5968C71.8969 30.4438 71.8304 30.273 71.7989 30.0943C71.7674 29.9156 71.7714 29.7324 71.8107 29.5553C71.85 29.3781 71.9238 29.2104 72.028 29.0618H72.0278ZM69.8791 94.572C69.9618 94.7335 70.0119 94.9097 70.0265 95.0906C70.0411 95.2715 70.02 95.4534 69.9642 95.6261C69.9085 95.7988 69.8193 95.9588 69.7017 96.097C69.5841 96.2351 69.4404 96.3488 69.2789 96.4314C63.7107 99.2882 57.539 100.769 51.2808 100.75C46.1441 100.747 41.0569 99.7472 36.3007 97.807C36.4421 98.1192 36.4622 98.4729 36.357 98.7991C36.2519 99.1253 36.0291 99.4007 35.732 99.5716C35.5228 99.6935 35.285 99.7575 35.043 99.757C34.8001 99.7574 34.5615 99.6938 34.3511 99.5725C34.1407 99.4513 33.9659 99.2767 33.8445 99.0664L31.6995 95.3518C31.5925 95.1666 31.53 94.959 31.5169 94.7454C31.5038 94.5318 31.5405 94.3181 31.6241 94.1212C31.7077 93.9242 31.8359 93.7494 31.9987 93.6105C32.1614 93.4715 32.3542 93.3723 32.5618 93.3206L36.8193 92.2586C36.9959 92.2129 37.1798 92.2026 37.3604 92.2283C37.541 92.2541 37.7147 92.3153 37.8715 92.4086C38.0283 92.5018 38.1651 92.6252 38.274 92.7715C38.3828 92.9179 38.4616 93.0844 38.5058 93.2614C38.5499 93.4384 38.5586 93.6224 38.5312 93.8028C38.5039 93.9831 38.4411 94.1563 38.3465 94.3123C38.2518 94.4682 38.1273 94.6039 37.9799 94.7115C37.8326 94.819 37.6654 94.8963 37.488 94.9389L36.9276 95.079C41.4699 96.9966 46.3502 97.9855 51.2808 97.9874C57.1012 98.0053 62.8412 96.628 68.0197 93.9708C68.3461 93.8043 68.7253 93.7741 69.0739 93.887C69.4226 93.9998 69.7122 94.2464 69.8791 94.5726V94.572ZM13.0273 50.9755C15.1942 42.8246 19.9149 35.582 26.4975 30.3092H26.4819C26.1155 30.3092 25.7642 30.1637 25.5052 29.9046C25.2461 29.6456 25.1006 29.2943 25.1006 28.9279C25.1006 28.5616 25.2461 28.2103 25.5052 27.9512C25.7642 27.6922 26.1155 27.5467 26.4819 27.5467H30.7905C31.0025 27.547 31.2116 27.596 31.4016 27.6899C31.5916 27.7838 31.7574 27.9202 31.8864 28.0884C32.0153 28.2567 32.1038 28.4523 32.1451 28.6602C32.1864 28.8681 32.1793 29.0827 32.1245 29.2875L31.1854 32.7908C31.1069 33.0843 30.9338 33.3437 30.6929 33.5289C30.452 33.7141 30.1568 33.8147 29.8529 33.8151C29.7317 33.8148 29.611 33.7989 29.4938 33.7678C29.1715 33.6808 28.8916 33.4803 28.7055 33.2033C28.5194 32.9262 28.4396 32.5912 28.481 32.26C22.2283 37.1802 17.7422 43.9976 15.6975 51.6869C15.6033 52.0409 15.3722 52.3431 15.0552 52.5268C14.7381 52.7105 14.3611 52.7607 14.007 52.6664C13.653 52.5722 13.3508 52.3411 13.1671 52.0241C12.9834 51.707 12.9332 51.33 13.0275 50.9759L13.0273 50.9755ZM22.8737 90.7474V76.9867L34.7911 70.1085V83.8669L22.8737 90.7474ZM8.19573 70.1064L12.7803 72.7552V77.3499C12.7803 77.7162 12.9258 78.0675 13.1848 78.3266C13.4439 78.5856 13.7952 78.7311 14.1615 78.7311C14.5278 78.7311 14.8792 78.5856 15.1382 78.3266C15.3972 78.0675 15.5428 77.7162 15.5428 77.3499V74.3497L20.1098 76.9867V90.7472L8.19573 83.8669V70.1064ZM21.4923 60.834L9.57718 67.7144L14.1544 70.3571L26.0693 63.4764L21.4923 60.8338V60.834ZM21.4923 74.5945L33.4096 67.7144L28.8324 65.0716L16.9175 71.9518L21.4923 74.5945ZM37.5542 84.6642V67.7144C37.554 67.472 37.49 67.2339 37.3688 67.024C37.2476 66.8141 37.0734 66.6397 36.8636 66.5182L22.1837 58.0435C21.9738 57.9222 21.7356 57.8584 21.4931 57.8584C21.2506 57.8584 21.0125 57.9222 20.8025 58.0435L6.12324 66.5182C5.91318 66.6394 5.73875 66.8137 5.61751 67.0237C5.49626 67.2337 5.43249 67.472 5.43262 67.7144V84.6642C5.43243 84.9067 5.49617 85.145 5.61742 85.355C5.73867 85.565 5.91314 85.7393 6.12324 85.8604L20.8019 94.3354C21.0118 94.4569 21.25 94.5209 21.4925 94.5209C21.735 94.5209 21.9732 94.4569 22.1831 94.3354L36.8636 85.8608C37.0734 85.7394 37.2477 85.5649 37.3689 85.3549C37.4901 85.1449 37.554 84.9067 37.5542 84.6642Z" fill="#231F20"/>
<path fill-rule="evenodd" clip-rule="evenodd" d="M89.8113 66.2952L92.2563 63.8497C92.3162 63.7893 92.3497 63.7078 92.3497 63.6227C92.3497 63.5377 92.3162 63.4561 92.2563 63.3957L89.0709 60.2083C89.0099 60.1497 88.9284 60.1172 88.8438 60.1175C88.8019 60.117 88.7603 60.1248 88.7214 60.1403C88.6825 60.1559 88.6471 60.179 88.6171 60.2083L86.1695 62.6558C85.9574 62.8675 85.6822 63.0046 85.3854 63.0463C85.0886 63.0879 84.7863 63.0319 84.5242 62.8867C83.672 62.4136 82.7689 62.0388 81.8322 61.7695C81.5438 61.6866 81.2903 61.5122 81.1098 61.2726C80.9293 61.0329 80.8316 60.7411 80.8316 60.4411V56.9833C80.8302 56.8986 80.7958 56.8178 80.7358 56.7581C80.6757 56.6984 80.5947 56.6645 80.51 56.6636H76.0031C75.9183 56.6642 75.8371 56.698 75.777 56.7577C75.7169 56.8175 75.6826 56.8985 75.6815 56.9833V60.4413C75.6815 60.7413 75.5838 61.0332 75.4032 61.2728C75.2227 61.5124 74.9691 61.6867 74.6807 61.7695C73.7438 62.0382 72.8406 62.413 71.9887 62.8867C71.7266 63.0321 71.4243 63.0882 71.1274 63.0466C70.8306 63.0049 70.5554 62.8677 70.3434 62.6558L67.8955 60.2083C67.8347 60.1495 67.7533 60.1166 67.6687 60.1166C67.584 60.1166 67.5026 60.1495 67.4418 60.2083L64.2537 63.3951C64.1951 63.4562 64.1626 63.5376 64.1629 63.6222C64.1624 63.6642 64.1701 63.7058 64.1857 63.7447C64.2013 63.7837 64.2244 63.8191 64.2537 63.8491L66.7012 66.2945C66.9127 66.5073 67.0496 66.783 67.0912 67.0801C67.1329 67.3773 67.077 67.68 66.9321 67.9427C66.4589 68.7948 66.0841 69.6979 65.8149 70.6347C65.7323 70.9231 65.558 71.1767 65.3184 71.3572C65.0788 71.5378 64.7869 71.6354 64.4869 71.6353H61.0287C60.944 71.6367 60.8632 71.6711 60.8034 71.7312C60.7437 71.7913 60.7098 71.8723 60.709 71.9571V76.463C60.7098 76.5477 60.7437 76.6288 60.8034 76.6889C60.8632 76.749 60.944 76.7834 61.0287 76.7847H64.4867C64.7867 76.7846 65.0786 76.8822 65.3183 77.0627C65.5579 77.2433 65.7323 77.4969 65.8149 77.7853C66.0842 78.7221 66.459 79.6253 66.9321 80.4775C67.0768 80.7398 67.1326 81.042 67.091 81.3387C67.0494 81.6353 66.9127 81.9105 66.7014 82.1229L64.2537 84.5703C64.1946 84.6309 64.1619 84.7125 64.1629 84.7972C64.1627 84.8818 64.1953 84.9632 64.2537 85.0243L67.4414 88.2097C67.5018 88.2695 67.5834 88.303 67.6685 88.303C67.7535 88.303 67.8351 88.2695 67.8955 88.2097L70.3426 85.7643C70.5545 85.5523 70.8298 85.4151 71.1266 85.3735C71.4234 85.3318 71.7258 85.3879 71.9879 85.5333C72.8405 86.0056 73.7435 86.3803 74.6799 86.6505C74.9684 86.7331 75.2221 86.9074 75.4027 87.1471C75.5834 87.3867 75.681 87.6787 75.6809 87.9788V91.4347C75.6818 91.5198 75.7159 91.6011 75.7761 91.6613C75.8363 91.7215 75.9176 91.7556 76.0027 91.7565H80.5086C80.5937 91.7556 80.675 91.7215 80.7352 91.6613C80.7953 91.6011 80.8295 91.5198 80.8303 91.4347V87.98C80.8302 87.6799 80.9278 87.388 81.1084 87.1484C81.2889 86.9088 81.5425 86.7344 81.8309 86.6517C82.7677 86.3826 83.6709 86.0078 84.523 85.5345C84.7853 85.389 85.0878 85.3329 85.3849 85.3745C85.6819 85.4162 85.9573 85.5534 86.1695 85.7655L88.6165 88.2109C88.6462 88.2408 88.6816 88.2644 88.7205 88.2804C88.7595 88.2963 88.8013 88.3043 88.8434 88.3037C88.9285 88.3041 89.0102 88.2707 89.0707 88.2109L92.2559 85.0255C92.2859 84.9959 92.3096 84.9605 92.3255 84.9215C92.3415 84.8824 92.3494 84.8406 92.3488 84.7984C92.3491 84.756 92.3411 84.714 92.3252 84.6747C92.3093 84.6354 92.2857 84.5997 92.2559 84.5695L89.8109 82.1233C89.5987 81.9114 89.4614 81.6362 89.4197 81.3393C89.3781 81.0424 89.4344 80.74 89.5802 80.478C90.0524 79.6253 90.4272 78.7222 90.6973 77.7857C90.78 77.4973 90.9544 77.2436 91.1941 77.0631C91.4338 76.8826 91.7257 76.785 92.0258 76.7851H95.4815C95.5666 76.7841 95.648 76.7499 95.7082 76.6898C95.7684 76.6297 95.8027 76.5485 95.8039 76.4634V71.9575C95.8031 71.8724 95.7689 71.791 95.7087 71.7309C95.6486 71.6707 95.5672 71.6366 95.4822 71.6357H92.0254C91.7253 71.6358 91.4334 71.5382 91.1938 71.3577C90.9542 71.1772 90.7798 70.9235 90.6971 70.6351C90.4271 69.6987 90.0523 68.7956 89.58 67.9431C89.4341 67.6806 89.3777 67.3777 89.4194 67.0803C89.4611 66.7829 89.5986 66.5072 89.8111 66.295L89.8113 66.2952ZM78.2551 63.0543C80.4617 63.0541 82.6189 63.7083 84.4537 64.9341C86.2885 66.1599 87.7186 67.9023 88.5631 69.9409C89.4077 71.9795 89.6287 74.2228 89.1983 76.387C88.7678 78.5512 87.7052 80.5392 86.1449 82.0995C84.5846 83.6598 82.5966 84.7224 80.4324 85.1529C78.2682 85.5833 76.0249 85.3623 73.9863 84.5177C71.9477 83.6732 70.2053 82.2431 68.9795 80.4083C67.7537 78.5735 67.0995 76.4163 67.0997 74.2097C67.1035 71.2523 68.28 68.417 70.3712 66.3258C72.4624 64.2346 75.2977 63.0581 78.2551 63.0543Z" fill="#00ABEA"/>
<path fill-rule="evenodd" clip-rule="evenodd" d="M52.1103 17.0932C53.2061 17.0932 54.2773 16.7683 55.1884 16.1596C56.0995 15.5508 56.8097 14.6855 57.229 13.6732C57.6484 12.6608 57.7581 11.5469 57.5443 10.4721C57.3306 9.39742 56.8029 8.41022 56.0281 7.6354C55.2533 6.86057 54.2661 6.33291 53.1913 6.11914C52.1166 5.90538 51.0027 6.01511 49.9903 6.43446C48.9779 6.85381 48.1127 7.56395 47.5039 8.47507C46.8952 9.38619 46.5703 10.4574 46.5703 11.5531C46.5717 13.022 47.1558 14.4303 48.1945 15.469C49.2331 16.5076 50.6415 17.0918 52.1103 17.0932Z" fill="#00ABEA"/>
<path fill-rule="evenodd" clip-rule="evenodd" d="M28.8319 65.0715L16.917 71.9518L21.4918 74.5944L33.4091 67.7144L28.8319 65.0715Z" fill="#00ABEA"/>
<path fill-rule="evenodd" clip-rule="evenodd" d="M14.1544 70.3571L26.0693 63.4766L21.4923 60.834L9.57715 67.7144L14.1544 70.3571Z" fill="#00ABEA"/>
<path fill-rule="evenodd" clip-rule="evenodd" d="M34.7914 70.1084L22.874 76.9866V90.7471L34.7914 83.8669V70.1084Z" fill="#00ABEA"/>
</svg>
