<svg width="104" height="104" viewBox="0 0 104 104" fill="none" xmlns="http://www.w3.org/2000/svg">
<path fill-rule="evenodd" clip-rule="evenodd" d="M8.37017 37.0516C8.26707 36.9024 8.1944 36.7344 8.15633 36.5571C8.11825 36.3797 8.11553 36.1967 8.1483 36.0183C8.18107 35.8399 8.2487 35.6698 8.34732 35.5176C8.44593 35.3654 8.57359 35.2341 8.723 35.1313L29.4661 20.8479C29.637 20.7303 29.8321 20.6526 30.037 20.6205C30.242 20.5884 30.4515 20.6028 30.6501 20.6625L50.0486 26.5243L64.7223 17.8362L63.5225 17.5165C63.3471 17.4695 63.1828 17.3884 63.0388 17.2779C62.8948 17.1674 62.774 17.0296 62.6832 16.8724C62.5925 16.7151 62.5336 16.5416 62.5099 16.3616C62.4862 16.1817 62.4982 15.9988 62.5452 15.8234C62.5922 15.6481 62.6733 15.4838 62.7838 15.3398C62.8944 15.1958 63.0322 15.0749 63.1894 14.9842C63.3466 14.8934 63.5201 14.8346 63.7001 14.8109C63.8801 14.7872 64.0629 14.7992 64.2383 14.8462L68.6105 16.0184C68.9615 16.1126 69.2613 16.3414 69.4448 16.6551C69.6283 16.9687 69.6807 17.3421 69.5908 17.6942L68.5494 21.7638C68.5044 21.9396 68.4253 22.1048 68.3165 22.25C68.2076 22.3952 68.0713 22.5175 67.9152 22.61C67.7591 22.7025 67.5863 22.7633 67.4067 22.789C67.2271 22.8147 67.0442 22.8048 66.8684 22.7599C66.6927 22.7149 66.5275 22.6357 66.3823 22.5269C66.2371 22.4181 66.1148 22.2818 66.0223 22.1257C65.9298 21.9696 65.869 21.7968 65.8433 21.6172C65.8175 21.4376 65.8274 21.2547 65.8724 21.0789L66.0883 20.24L50.9316 29.2104C50.767 29.3082 50.5839 29.3706 50.3939 29.3937C50.2039 29.4168 50.0112 29.4 49.828 29.3445L30.4866 23.5016L10.2903 37.4069C9.98854 37.6143 9.61676 37.6934 9.2567 37.6268C8.89664 37.5601 8.57777 37.3533 8.37017 37.0516ZM72.525 70.8484C70.5728 70.8484 68.6645 70.2695 67.0414 69.1849C65.4182 68.1004 64.1531 66.5589 63.406 64.7553C62.659 62.9518 62.4635 60.9672 62.8444 59.0525C63.2252 57.1379 64.1653 55.3792 65.5457 53.9988C66.926 52.6184 68.6847 51.6784 70.5994 51.2975C72.514 50.9167 74.4986 51.1122 76.3022 51.8592C78.1057 52.6063 79.6472 53.8714 80.7318 55.4945C81.8163 57.1177 82.3952 59.026 82.3952 60.9781C82.3921 63.5949 81.3512 66.1037 79.5008 67.954C77.6505 69.8044 75.1418 70.8453 72.525 70.8484ZM72.525 48.3448C70.0263 48.3448 67.5838 49.0857 65.5062 50.4739C63.4287 51.862 61.8095 53.8351 60.8533 56.1436C59.8971 58.452 59.6469 60.9921 60.1344 63.4428C60.6218 65.8934 61.825 68.1445 63.5918 69.9113C65.3586 71.6781 67.6097 72.8813 70.0603 73.3687C72.511 73.8562 75.0511 73.606 77.3595 72.6498C79.668 71.6936 81.6411 70.0744 83.0292 67.9969C84.4174 65.9193 85.1583 63.4768 85.1583 60.9781C85.1545 57.6287 83.8223 54.4176 81.4539 52.0492C79.0855 49.6808 75.8744 48.3486 72.525 48.3448ZM97.4862 85.9369C97.1625 86.258 96.7251 86.4382 96.2692 86.4382C95.8132 86.4382 95.3758 86.258 95.0521 85.9369L87.2582 78.1422L89.69 75.7088L97.4862 83.5047C97.8073 83.8278 97.9876 84.2649 97.9876 84.7205C97.9876 85.1761 97.8073 85.6132 97.4862 85.9363V85.9369ZM84.7537 73.2063C84.9259 73.0344 85.0893 72.8589 85.2532 72.6812L87.0317 74.4595L86.0096 75.4819L84.2307 73.7055C84.4084 73.5416 84.5841 73.3779 84.7537 73.2063ZM62.2509 71.2522C64.2826 73.2819 66.8705 74.6637 69.6874 75.2229C72.5042 75.7821 75.4237 75.4936 78.0766 74.3939C80.7296 73.2943 82.997 71.4328 84.5922 69.0447C86.1874 66.6566 87.0388 63.8493 87.0388 60.9774C87.0388 58.1056 86.1874 55.2982 84.5922 52.9101C82.997 50.5221 80.7296 48.6606 78.0766 47.5609C75.4237 46.4612 72.5042 46.1728 69.6874 46.732C66.8705 47.2912 64.2826 48.673 62.2509 50.7026C60.8901 52.0454 59.8095 53.6452 59.072 55.409C58.3345 57.1728 57.9547 59.0656 57.9547 60.9774C57.9547 62.8892 58.3345 64.782 59.072 66.5458C59.8095 68.3096 60.8901 69.9094 62.2509 71.2522ZM64.2306 31.2V45.8069C66.7057 44.4581 69.4726 43.7338 72.2912 43.6971V31.2L68.2602 28.107L64.2306 31.2ZM54.0623 68.8529H45.9999V41.1371L50.0319 38.0463L54.0623 41.1371V68.8529ZM99.4405 81.5512L91.2935 73.4059C91.0318 73.1438 90.7097 72.9498 90.3556 72.8411C90.0014 72.7324 89.626 72.7122 89.2623 72.7823L86.9712 70.4909C88.571 68.0636 89.5328 65.2721 89.7677 62.3746C90.0025 59.4771 89.5028 56.5671 88.3148 53.9139C87.1268 51.2607 85.2888 48.9499 82.971 47.1954C80.6531 45.4409 77.9302 44.2993 75.0541 43.8762V30.5167C75.0541 30.3048 75.0053 30.0958 74.9114 29.9058C74.8176 29.7158 74.6812 29.55 74.513 29.4212L69.1011 25.2708C68.8599 25.0856 68.5643 24.9853 68.2602 24.9853C67.9561 24.9853 67.6605 25.0856 67.4192 25.2708L62.0076 29.4212C61.8397 29.5503 61.7036 29.7162 61.6098 29.9061C61.516 30.096 61.4671 30.3049 61.4666 30.5167V47.6852C61.0663 48.019 60.6732 48.3722 60.2962 48.7492C58.8529 50.1907 57.6774 51.8775 56.8246 53.7306V40.4558C56.8241 40.2438 56.775 40.0347 56.6812 39.8446C56.5874 39.6545 56.4512 39.4883 56.2833 39.3589L50.8714 35.2085C50.6301 35.0236 50.3347 34.9235 50.0307 34.9235C49.7267 34.9235 49.4313 35.0236 49.19 35.2085L43.7771 39.3589C43.609 39.4882 43.4728 39.6543 43.3789 39.8444C43.285 40.0346 43.236 40.2437 43.2356 40.4558V70.2339C43.2359 70.6002 43.3815 70.9513 43.6405 71.2103C43.8994 71.4692 44.2506 71.6149 44.6168 71.6152H55.4434C55.8096 71.6149 56.1607 71.4692 56.4197 71.2103C56.6787 70.9513 56.8243 70.6002 56.8246 70.2339V68.2248C57.8686 70.485 59.3881 72.4932 61.2792 74.1124C63.1704 75.7316 65.3887 76.9235 67.7827 77.6069C70.1766 78.2903 72.6899 78.449 75.1508 78.0722C77.6118 77.6953 79.9624 76.7918 82.0422 75.4234L84.3322 77.7126C84.2617 78.0764 84.2815 78.452 84.3898 78.8065C84.4982 79.1609 84.6917 79.4834 84.9536 79.7457L93.0989 87.891C93.9399 88.7303 95.0797 89.2014 96.2678 89.2009C97.456 89.2003 98.5954 88.7282 99.4356 87.8882C100.276 87.0481 100.748 85.9089 100.749 84.7208C100.75 83.5326 100.279 82.3927 99.4402 81.5514L99.4405 81.5512ZM14.0737 68.8529H6.01392V50.5592L10.0433 47.4665L14.0737 50.5592V68.8529ZM16.2959 48.7809L10.8845 44.6304C10.6432 44.4453 10.3476 44.3449 10.0435 44.3449C9.73942 44.3449 9.44382 44.4453 9.20258 44.6304L3.79092 48.7809C3.62279 48.9098 3.48656 49.0756 3.39276 49.2656C3.29896 49.4555 3.25012 49.6645 3.25 49.8763V70.2345C3.25 70.6009 3.39552 70.9522 3.65456 71.2112C3.91359 71.4703 4.26492 71.6158 4.63125 71.6158H15.4558C15.8221 71.6158 16.1734 71.4703 16.4325 71.2112C16.6915 70.9522 16.837 70.6009 16.837 70.2345V49.8763C16.8371 49.6645 16.7883 49.4554 16.6945 49.2655C16.6007 49.0755 16.4641 48.9097 16.2959 48.7809ZM33.4803 68.8529V36.6943L29.4499 33.6036L25.4178 36.6943V68.8529H33.4803ZM35.7008 34.9172L30.2894 30.7665C30.0482 30.5822 29.753 30.4823 29.4494 30.4823C29.1458 30.4823 28.8506 30.5822 28.6093 30.7665L23.1969 34.9172C23.029 35.0466 22.893 35.2128 22.7992 35.4029C22.7055 35.593 22.6565 35.8021 22.656 36.0141V70.2345C22.6564 70.6007 22.8021 70.9518 23.061 71.2107C23.32 71.4696 23.671 71.6153 24.0372 71.6158H34.8638C35.2301 71.6158 35.5814 71.4703 35.8405 71.2112C36.0995 70.9522 36.245 70.6009 36.245 70.2345V36.0141C36.2445 35.8018 36.1951 35.5924 36.1007 35.4022C36.0064 35.212 35.8696 35.0461 35.7008 34.9172Z" fill="#231F20"/>
<path fill-rule="evenodd" clip-rule="evenodd" d="M6.01367 50.5593V68.853H14.0735V50.5593L10.0431 47.4666L6.01367 50.5593Z" fill="#00ABEA"/>
<path fill-rule="evenodd" clip-rule="evenodd" d="M46 41.1371V68.8529H54.0624V41.1371L50.032 38.0464L46 41.1371Z" fill="#00ABEA"/>
<path fill-rule="evenodd" clip-rule="evenodd" d="M72.5246 48.3449C75.0235 48.3447 77.4664 49.0855 79.5443 50.4737C81.6222 51.8618 83.2418 53.835 84.1982 56.1437C85.1546 58.4524 85.4049 60.9928 84.9175 63.4438C84.43 65.8947 83.2267 68.146 81.4597 69.9131C79.6927 71.6801 77.4414 72.8834 74.9905 73.3709C72.5395 73.8584 69.9991 73.6081 67.6904 72.6518C65.3817 71.6954 63.4085 70.0758 62.0203 67.998C60.6321 65.9201 59.8912 63.4772 59.8914 60.9783C59.8948 57.6288 61.2269 54.4174 63.5953 52.049C65.9638 49.6805 69.1751 48.3484 72.5246 48.3449ZM62.2497 50.7034C59.8665 53.0809 58.3816 56.2114 58.0481 59.5611C57.7147 62.9109 58.5532 66.2727 60.4209 69.0734C62.2887 71.8741 65.0699 73.9404 68.2905 74.92C71.5111 75.8997 74.9719 75.732 78.0827 74.4457C81.1936 73.1594 83.7621 70.834 85.3504 67.8659C86.9387 64.8978 87.4485 61.4708 86.7928 58.1689C86.1372 54.867 84.3567 51.8947 81.7549 49.7586C79.153 47.6226 75.8909 46.455 72.5246 46.4548C68.6722 46.4549 64.9771 47.9828 62.2497 50.7034Z" fill="#00ABEA"/>
<path fill-rule="evenodd" clip-rule="evenodd" d="M87.2578 78.1422L95.0517 85.9363C95.3754 86.2574 95.8128 86.4376 96.2687 86.4376C96.7247 86.4376 97.1621 86.2574 97.4858 85.9363C97.8069 85.6131 97.9872 85.1761 97.9872 84.7205C97.9872 84.2649 97.8069 83.8278 97.4858 83.5047L89.6896 75.7087L87.2578 78.1422Z" fill="#00ABEA"/>
</svg>
