<svg width="104" height="104" viewBox="0 0 104 104" fill="none" xmlns="http://www.w3.org/2000/svg">
<path fill-rule="evenodd" clip-rule="evenodd" d="M4.82499 64.3631C4.70219 64.0179 4.72153 63.6382 4.87874 63.3073C5.03595 62.9764 5.31816 62.7215 5.66329 62.5987C34.4055 52.3671 59.4102 38.2749 80.0414 20.694L75.5641 20.4503C75.3829 20.4403 75.2055 20.3948 75.0419 20.3163C74.8783 20.2378 74.7318 20.1278 74.6107 19.9926C74.4897 19.8575 74.3964 19.6998 74.3362 19.5286C74.2761 19.3574 74.2503 19.1761 74.2602 18.9949C74.2702 18.8137 74.3157 18.6363 74.3942 18.4727C74.4728 18.3091 74.5827 18.1626 74.7179 18.0416C74.853 17.9205 75.0107 17.8272 75.1819 17.7671C75.3531 17.7069 75.5344 17.6811 75.7156 17.691L83.6062 18.1217C83.7953 18.1322 83.9802 18.1814 84.1494 18.2663C84.3187 18.3512 84.4687 18.47 84.5902 18.6153C84.7116 18.7606 84.802 18.9292 84.8556 19.1109C84.9091 19.2925 84.9249 19.4832 84.9017 19.6711L83.9389 27.4829C83.8976 27.8171 83.7356 28.1247 83.4835 28.3479C83.2313 28.5711 82.9062 28.6944 82.5695 28.6947C82.5124 28.6953 82.4554 28.692 82.3988 28.685C82.2188 28.6628 82.0449 28.6054 81.887 28.5161C81.7291 28.4267 81.5904 28.3071 81.4788 28.1642C81.3671 28.0212 81.2847 27.8576 81.2363 27.6828C81.1879 27.508 81.1744 27.3253 81.1965 27.1453L81.7208 22.8921C71.4825 31.571 60.4666 39.2886 48.8127 45.9469C35.9143 53.3423 21.7073 59.8204 6.58995 65.2001C6.44138 65.2539 6.2846 65.2814 6.12662 65.2814C5.84152 65.2813 5.56344 65.193 5.33043 65.0287C5.09743 64.8644 4.92089 64.6322 4.82499 64.3637V64.3631ZM84.0752 51.6842C84.4415 51.6839 84.7926 51.5383 85.0516 51.2793C85.3105 51.0203 85.4562 50.6692 85.4565 50.303V49.707C86.9572 49.4167 88.1298 48.511 88.6283 47.238C88.8584 46.6375 88.9207 45.9856 88.8084 45.3524C88.6961 44.7192 88.4135 44.1285 87.9909 43.6437C86.867 42.2939 85.5607 42.0965 84.5109 41.9405C84.0961 41.8924 83.6869 41.8045 83.2889 41.6781C82.9479 41.5359 82.4033 41.234 82.4106 40.7425C82.4155 40.4128 82.6915 39.955 83.2855 39.736C84.5276 39.2741 85.6478 39.8148 86.1394 41.1136C86.2692 41.4562 86.5298 41.7333 86.8639 41.8838C87.198 42.0343 87.5782 42.0459 87.9209 41.916C88.2635 41.7862 88.5406 41.5256 88.6911 41.1915C88.8416 40.8574 88.8532 40.4772 88.7233 40.1345C88.1071 38.5083 86.8991 37.4051 85.4565 36.9906V36.3115C85.4565 35.9452 85.311 35.5939 85.0519 35.3348C84.7929 35.0758 84.4416 34.9303 84.0752 34.9303C83.7089 34.9303 83.3576 35.0758 83.0985 35.3348C82.8395 35.5939 82.694 35.9452 82.694 36.3115V37.0241C82.5711 37.0596 82.4484 37.099 82.3255 37.1445C80.7229 37.7387 79.6719 39.1352 79.6485 40.701C79.6254 42.2464 80.6067 43.5708 82.2733 44.2458L82.3162 44.2634C82.8952 44.4625 83.4937 44.5995 84.1016 44.6721C85.0139 44.8103 85.4356 44.8911 85.8688 45.4123C85.9747 45.5164 86.0487 45.6486 86.082 45.7934C86.1153 45.9381 86.1066 46.0893 86.0569 46.2293C85.9324 46.5472 85.5288 46.9222 84.7711 47.0215C83.8493 47.1417 82.2008 46.9605 81.8693 45.5184C81.7871 45.1613 81.5664 44.8514 81.2558 44.6571C80.9452 44.4627 80.5701 44.3996 80.213 44.4818C79.8559 44.564 79.5461 44.7847 79.3517 45.0953C79.1573 45.4059 79.0943 45.781 79.1765 46.1381C79.5827 47.9085 80.9195 49.1677 82.6946 49.6257V50.3026C82.6949 50.6688 82.8405 51.02 83.0994 51.279C83.3584 51.5379 83.7096 51.6835 84.0758 51.6838L84.0752 51.6842ZM95.6911 64.9686H95.7003C96.3072 64.9653 96.8882 64.7222 97.3166 64.2922C97.745 63.8622 97.9859 63.2802 97.9869 62.6733V60.7391C97.9863 60.1305 97.7443 59.547 97.314 59.1167C96.8836 58.6863 96.3001 58.4443 95.6915 58.4438H74.5954C73.9868 58.4443 73.4033 58.6863 72.9729 59.1167C72.5426 59.547 72.3006 60.1305 72.3001 60.7391V62.6733C72.3012 63.2804 72.5424 63.8625 72.971 64.2925C73.3996 64.7225 73.9809 64.9655 74.5881 64.9686H95.6921H95.6911ZM95.6911 74.2587H74.5864C73.9797 74.255 73.399 74.0117 72.9709 73.5818C72.5427 73.1518 72.3018 72.5701 72.3007 71.9634V70.0272C72.3015 69.4187 72.5436 68.8354 72.9738 68.4051C73.4041 67.9748 73.9875 67.7327 74.596 67.7319H95.6921C96.3007 67.7327 96.884 67.9748 97.3143 68.4051C97.7446 68.8354 97.9867 69.4187 97.9875 70.0272V71.9634C97.9864 72.5705 97.7453 73.1525 97.3167 73.5825C96.8882 74.0125 96.307 74.2556 95.6999 74.2587H95.6917H95.6911ZM97.9864 81.2535C97.9856 81.862 97.7435 82.4453 97.3132 82.8756C96.8829 83.3059 96.2996 83.548 95.6911 83.5488H74.5956C73.9871 83.548 73.4038 83.3059 72.9735 82.8756C72.5432 82.4453 72.3011 81.862 72.3003 81.2535V79.3173C72.3011 78.7088 72.5432 78.1255 72.9734 77.6952C73.4037 77.2649 73.9871 77.0228 74.5956 77.022H95.6921C96.3007 77.0228 96.884 77.2649 97.3143 77.6952C97.7446 78.1255 97.9867 78.7088 97.9875 79.3173V81.2535H97.9864ZM73.0888 43.3079C73.089 45.4668 73.7293 47.5772 74.9288 49.3722C76.1284 51.1672 77.8332 52.5661 79.8278 53.3922C81.8224 54.2183 84.0172 54.4343 86.1346 54.013C88.252 53.5918 90.1969 52.5521 91.7234 51.0254C93.2499 49.4988 94.2895 47.5538 94.7106 45.4364C95.1317 43.319 94.9155 41.1242 94.0893 39.1297C93.2631 37.1351 91.864 35.4304 90.0689 34.231C88.2738 33.0316 86.1634 32.3914 84.0045 32.3914C81.1104 32.3947 78.3357 33.5459 76.2893 35.5925C74.2429 37.639 73.0919 40.4138 73.0888 43.3079ZM100.75 62.6737V60.7395C100.749 59.3986 100.215 58.1129 99.267 57.1647C98.3187 56.2165 97.0331 55.6832 95.6921 55.6817H89.83C92.6432 54.3576 94.9214 52.1145 96.2891 49.3222C97.6568 46.5298 98.0324 43.3549 97.354 40.3205C96.6756 37.2861 94.9837 34.5734 92.557 32.6293C90.1304 30.6853 87.1138 29.626 84.0045 29.626C80.8952 29.626 77.8787 30.6853 75.4521 32.6293C73.0254 34.5734 71.3335 37.2861 70.6551 40.3205C69.9766 43.3549 70.3522 46.5298 71.72 49.3222C73.0877 52.1145 75.3659 54.3576 78.1791 55.6817H74.5956C73.2544 55.6829 71.9685 56.2161 71.0201 57.1644C70.0717 58.1126 69.5382 59.3984 69.5368 60.7395V62.6737C69.5369 63.3627 69.6782 64.0443 69.9518 64.6766C70.2255 65.3089 70.6257 65.8785 71.1278 66.3502C70.6256 66.8219 70.2254 67.3915 69.9517 68.0238C69.6781 68.6562 69.5369 69.3378 69.5368 70.0268V71.963C69.5371 72.652 69.6785 73.3336 69.9522 73.9659C70.2259 74.5982 70.6261 75.1678 71.1282 75.6396C70.6258 76.1111 70.2254 76.6806 69.9516 77.313C69.6779 77.9453 69.5367 78.6271 69.5368 79.3161V81.2523C69.5386 82.5932 70.072 83.8786 71.0202 84.8267C71.9683 85.7748 73.2537 86.3083 74.5946 86.3101H95.6921C97.033 86.3083 98.3184 85.7748 99.2665 84.8267C100.215 83.8786 100.748 82.5932 100.75 81.2523V79.3161C100.75 78.6271 100.609 77.9453 100.335 77.313C100.062 76.6806 99.6611 76.1111 99.1587 75.6396C99.6609 75.1679 100.061 74.5983 100.335 73.966C100.609 73.3337 100.75 72.652 100.75 71.963V70.0268C100.75 69.3378 100.609 68.656 100.335 68.0237C100.062 67.3913 99.6611 66.8218 99.1587 66.3502C99.6609 65.8785 100.061 65.309 100.335 64.6767C100.609 64.0443 100.75 63.3627 100.75 62.6737ZM31.7001 81.2539C31.6992 81.8624 31.4571 82.4457 31.0268 82.876C30.5966 83.3063 30.0132 83.5484 29.4047 83.5492H8.30879C7.7003 83.5484 7.11698 83.3063 6.68671 82.876C6.25644 82.4457 6.01434 81.8624 6.01348 81.2539V79.3177C6.01434 78.7093 6.25644 78.1259 6.68671 77.6957C7.11698 77.2654 7.7003 77.0233 8.30879 77.0224H29.4043C30.0128 77.0233 30.5961 77.2654 31.0264 77.6957C31.4567 78.1259 31.6988 78.7093 31.6996 79.3177V81.2539H31.7001ZM29.4047 74.2591H8.30879C6.96793 74.2609 5.68252 74.7944 4.73439 75.7425C3.78627 76.6907 3.2528 77.9761 3.25098 79.3169V81.2531C3.2528 82.5942 3.78641 83.8797 4.73475 84.8279C5.6831 85.776 6.96877 86.3094 8.3098 86.3109H29.4043C30.7454 86.3094 32.031 85.776 32.9794 84.8279C33.9277 83.8797 34.4613 82.5942 34.4632 81.2531V79.3169C34.4613 77.9761 33.9279 76.6907 32.9797 75.7425C32.0316 74.7944 30.7462 74.2609 29.4053 74.2591H29.4047ZM62.548 74.2591H41.4389C40.8327 74.2546 40.2528 74.0109 39.8254 73.5811C39.398 73.1512 39.1576 72.57 39.1566 71.9638V70.0276C39.1574 69.4191 39.3995 68.8358 39.8297 68.4055C40.26 67.9752 40.8434 67.7331 41.4519 67.7323H62.5476C63.1561 67.7331 63.7395 67.9752 64.1698 68.4055C64.6001 68.8358 64.8421 69.4191 64.8429 70.0276V71.9638C64.8416 72.5702 64.6009 73.1516 64.1731 73.5814C63.7454 74.0113 63.1652 74.2548 62.5588 74.2591H62.5472H62.548ZM64.8434 81.2539C64.8425 81.8624 64.6005 82.4458 64.1702 82.8761C63.7399 83.3064 63.1565 83.5484 62.548 83.5492H41.4523C40.8438 83.5484 40.2604 83.3064 39.8301 82.8761C39.3999 82.4458 39.1578 81.8624 39.157 81.2539V79.3177C39.1578 78.7092 39.3999 78.1259 39.8301 77.6956C40.2604 77.2653 40.8438 77.0232 41.4523 77.0224H62.5476C63.1561 77.0232 63.7395 77.2653 64.1698 77.6956C64.6001 78.1259 64.8421 78.7092 64.8429 79.3177V81.2539H64.8434ZM62.548 64.969H41.4523C40.1114 64.9708 38.826 65.5043 37.8779 66.4524C36.9298 67.4005 36.3963 68.686 36.3945 70.0268V71.963C36.3944 72.6518 36.5355 73.3333 36.8089 73.9654C37.0824 74.5976 37.4824 75.1671 37.9843 75.6387C37.4817 76.1107 37.0812 76.6806 36.8074 77.3134C36.5337 77.9462 36.3925 78.6283 36.3926 79.3177V81.2539C36.3945 82.595 36.9281 83.8805 37.8764 84.8287C38.8248 85.7768 40.1104 86.3102 41.4515 86.3117H62.5476C63.8885 86.3099 65.1739 85.7765 66.122 84.8283C67.0702 83.8802 67.6036 82.5948 67.6054 81.2539V79.3177C67.6057 78.6287 67.4646 77.9468 67.1909 77.3145C66.9172 76.6821 66.5166 76.1126 66.014 75.6412C66.5159 75.1693 66.916 74.5997 67.1897 73.9674C67.4634 73.3351 67.6049 72.6536 67.6054 71.9646V70.0284C67.604 68.6873 67.0708 67.4015 66.1226 66.453C65.1744 65.5045 63.8888 64.9708 62.5476 64.969H62.548Z" fill="#231F20"/>
<path d="M8.30801 77.0222H29.4046C30.0133 77.0222 30.5971 77.264 31.0276 77.6945C31.4581 78.125 31.6999 78.7088 31.6999 79.3175V81.2533C31.6999 81.5547 31.6405 81.8532 31.5252 82.1317C31.4098 82.4102 31.2407 82.6632 31.0276 82.8763C30.8145 83.0895 30.5614 83.2586 30.2829 83.3739C30.0045 83.4893 29.706 83.5486 29.4046 83.5486H8.30801C8.00658 83.5486 7.70811 83.4893 7.42963 83.3739C7.15115 83.2586 6.89812 83.0895 6.68498 82.8763C6.47184 82.6632 6.30277 82.4102 6.18742 82.1317C6.07207 81.8532 6.0127 81.5547 6.0127 81.2533V79.3173C6.01275 78.7086 6.2546 78.1248 6.68505 77.6944C7.1155 77.264 7.69929 77.0222 8.30801 77.0222Z" fill="#00ABEA"/>
<path fill-rule="evenodd" clip-rule="evenodd" d="M39.1572 71.9637C39.1583 72.5699 39.3987 73.1511 39.8261 73.581C40.2535 74.0108 40.8334 74.2545 41.4395 74.259H62.5599C63.1663 74.2547 63.7465 74.0112 64.1742 73.5813C64.602 73.1515 64.8427 72.5701 64.844 71.9637V70.0275C64.8432 69.419 64.6011 68.8356 64.1708 68.4054C63.7406 67.9751 63.1572 67.733 62.5487 67.7322H41.4529C40.8444 67.733 40.2611 67.9751 39.8308 68.4054C39.4005 68.8356 39.1584 69.419 39.1576 70.0275L39.1572 71.9637Z" fill="#00ABEA"/>
<path fill-rule="evenodd" clip-rule="evenodd" d="M72.2998 62.6736C72.3009 63.2807 72.5421 63.8628 72.9707 64.2928C73.3994 64.7228 73.9807 64.9658 74.5878 64.9689H95.7002C96.3072 64.9656 96.8882 64.7224 97.3165 64.2925C97.7449 63.8625 97.9858 63.2805 97.9868 62.6736V60.7394C97.9863 60.1308 97.7443 59.5473 97.3139 59.117C96.8836 58.6866 96.3001 58.4446 95.6915 58.4441H74.5953C73.9867 58.4446 73.4032 58.6866 72.9729 59.117C72.5425 59.5473 72.3005 60.1308 72.3 60.7394L72.2998 62.6736Z" fill="#00ABEA"/>
<path d="M74.5953 77.0222H95.6921C95.9935 77.0222 96.292 77.0816 96.5705 77.1969C96.8489 77.3123 97.102 77.4814 97.3151 77.6945C97.5283 77.9076 97.6973 78.1607 97.8127 78.4392C97.928 78.7176 97.9874 79.0161 97.9874 79.3175V81.2535C97.9874 81.5549 97.928 81.8534 97.8127 82.1319C97.6973 82.4104 97.5283 82.6634 97.3151 82.8765C97.102 83.0897 96.8489 83.2588 96.5705 83.3741C96.292 83.4895 95.9935 83.5488 95.6921 83.5488H74.5951C73.9864 83.5488 73.4025 83.307 72.9721 82.8765C72.5416 82.4461 72.2998 81.8623 72.2998 81.2535V79.3173C72.2998 79.0159 72.3592 78.7174 72.4746 78.439C72.59 78.1605 72.7591 77.9075 72.9722 77.6943C73.1854 77.4812 73.4384 77.3122 73.7169 77.1969C73.9954 77.0815 74.2939 77.0222 74.5953 77.0222Z" fill="#00ABEA"/>
</svg>
