<svg width="104" height="104" viewBox="0 0 104 104" fill="none" xmlns="http://www.w3.org/2000/svg">
<path fill-rule="evenodd" clip-rule="evenodd" d="M23.375 80.0762C23.4657 80.2333 23.5246 80.4067 23.5482 80.5866C23.5719 80.7664 23.5599 80.9492 23.5129 81.1244C23.466 81.2997 23.3849 81.4639 23.2745 81.6078C23.1641 81.7517 23.0263 81.8725 22.8692 81.9632C22.7121 82.0539 22.5387 82.1127 22.3588 82.1364C22.1789 82.1601 21.9962 82.1481 21.821 82.1011C21.6457 82.0542 21.4815 81.9731 21.3376 81.8627C21.1936 81.7522 21.0729 81.6145 20.9822 81.4574L19.4561 78.8148C19.3654 78.6576 19.3066 78.4842 19.2829 78.3043C19.2592 78.1245 19.2712 77.9417 19.3182 77.7665C19.3652 77.5913 19.4462 77.427 19.5566 77.2831C19.6671 77.1392 19.8048 77.0184 19.9619 76.9277C20.119 76.837 20.2924 76.7782 20.4723 76.7545C20.6522 76.7308 20.8349 76.7428 21.0102 76.7898C21.1854 76.8368 21.3497 76.9178 21.4936 77.0282C21.6375 77.1387 21.7582 77.2764 21.8489 77.4335L23.375 80.0762ZM87.9787 74.5993C87.9137 75.8526 86.8735 77.0031 85.0478 77.8418C85.0002 77.8631 84.9541 77.8875 84.9097 77.9149L61.139 92.2494C61.1308 92.2534 61.1229 92.258 61.1154 92.2633C58.9532 93.6242 56.6079 93.8342 53.9451 92.9027C53.9159 92.8927 53.8858 92.885 53.8553 92.8751L38.4518 88.6438C38.2893 88.5985 38.1739 88.5591 38.0723 88.5235C37.1977 88.2176 36.7421 88.3716 35.9903 88.8571L35.2387 89.3425L27.533 75.9972L37.8146 69.784C41.3038 67.9033 52.1416 69.8571 57.8492 73.3996C59.7803 74.5997 60.864 75.8392 60.8246 76.8022C60.787 77.6685 59.7951 78.6535 58.0289 79.5832C55.5634 79.3679 52.133 78.6435 47.3541 77.0687C47.006 76.954 46.6266 76.9824 46.2994 77.1475C45.9722 77.3125 45.724 77.6008 45.6094 77.9489C45.4947 78.297 45.5231 78.6764 45.6881 79.0036C45.8532 79.3308 46.1415 79.579 46.4896 79.6937C56.0556 82.8435 61.9436 83.2541 64.9943 80.9764L80.91 72.3083C80.9317 72.2944 80.9553 72.2827 80.977 72.2688C83.6158 70.6306 85.5993 71.4563 86.3275 71.8878C87.4012 72.5213 88.0327 73.5595 87.9795 74.5997L87.9787 74.5993ZM34.2493 94.1994C34.3106 93.9754 34.3269 93.7414 34.2972 93.5111C34.2675 93.2807 34.1924 93.0585 34.0762 92.8574L23.6074 74.7254C23.3709 74.3211 22.9846 74.0261 22.5322 73.9044C22.0798 73.7828 21.5976 73.8442 21.1902 74.0754L16.9043 76.5503C16.4983 76.7854 16.2021 77.1719 16.0806 77.625C15.9591 78.0781 16.0222 78.5608 16.2561 78.9675L26.7251 97.1013C26.9605 97.507 27.347 97.8029 27.8 97.9242C28.2531 98.0455 28.7357 97.9824 29.1423 97.7486L33.4283 95.2738C33.6296 95.1576 33.8058 95.0027 33.9468 94.8178C34.0877 94.633 34.1906 94.4221 34.2493 94.1972V94.1994ZM87.7321 69.5072C85.3224 68.0853 82.2681 68.2303 79.5535 69.898L63.5808 78.6017C63.5143 78.6369 63.4509 78.6777 63.3912 78.7235C63.2384 78.8418 63.0752 78.9462 62.9037 79.0353C63.3119 78.4012 63.5461 77.6708 63.5828 76.9176C63.6716 74.8414 62.2326 72.8677 59.3056 71.0519C53.1948 67.2573 41.2143 64.7664 36.4611 67.3737C36.4447 67.3835 36.4278 67.3941 36.4116 67.4034L26.1503 73.6026L26.0002 73.344C25.3979 72.304 24.4078 71.5453 23.2469 71.2341C22.0861 70.923 20.8492 71.0849 19.8075 71.6843L15.5216 74.1591C14.4815 74.761 13.7227 75.7509 13.4116 76.9116C13.1004 78.0723 13.2625 79.309 13.8621 80.3504L24.3311 98.4842C24.6288 98.9997 25.0251 99.4515 25.4974 99.8138C25.9697 100.176 26.5088 100.442 27.0838 100.596C27.6588 100.75 28.2586 100.789 28.8487 100.711C29.4389 100.633 30.008 100.44 30.5234 100.142L34.8093 97.669C35.8033 97.093 36.5418 96.1613 36.8755 95.062C37.2093 93.9627 37.1134 92.7777 36.6074 91.7463L37.4223 91.2192C37.508 91.247 37.6066 91.2765 37.7189 91.308L53.0798 95.5277C54.3558 95.984 55.6992 96.2234 57.0543 96.2362C59.0128 96.234 60.9293 95.6688 62.5755 94.6079L86.2712 80.3189C89.9953 78.584 90.6683 76.0833 90.7374 74.7413C90.846 72.6729 89.6933 70.6658 87.7311 69.5072H87.7321ZM62.0766 6.01252C65.3847 6.01227 68.6187 6.99304 71.3694 8.83078C74.1201 10.6685 76.264 13.2807 77.5301 16.337C78.7962 19.3932 79.1276 22.7563 78.4823 26.0009C77.8369 29.2455 76.244 32.2258 73.9048 34.565C71.5656 36.9042 68.5853 38.4973 65.3407 39.1426C62.0961 39.788 58.733 39.4567 55.6768 38.1906C52.6205 36.9246 50.0083 34.7806 48.1705 32.0299C46.3327 29.2792 45.3519 26.0453 45.3521 22.7372C45.3576 18.3033 47.1214 14.0525 50.2567 10.9172C53.3919 7.7819 57.6427 6.01805 62.0766 6.01252ZM78.0016 45.6964V48.0511C77.9997 48.8677 77.6756 49.6505 77.0998 50.2296C76.5241 50.8087 75.7431 51.1372 74.9265 51.1438H49.2253C48.4092 51.1365 47.629 50.8076 47.0539 50.2286C46.4787 49.6496 46.1551 48.8672 46.1532 48.0511V45.697C46.1542 44.8774 46.4803 44.0917 47.06 43.5123C47.6397 42.9328 48.4256 42.6071 49.2452 42.6065H74.9092C75.729 42.607 76.515 42.9327 77.0948 43.5121C77.6747 44.0915 78.0009 44.8773 78.002 45.697L78.0016 45.6964ZM78.0016 59.3521C78.0006 60.1721 77.6745 60.9582 77.0947 61.538C76.5149 62.1178 75.7288 62.4439 74.9088 62.4449H49.2452C48.4255 62.4438 47.6397 62.1178 47.0601 61.5382C46.4805 60.9586 46.1544 60.1728 46.1532 59.3531V56.9983C46.1545 56.1788 46.4807 55.3932 47.0603 54.8138C47.6399 54.2344 48.4257 53.9085 49.2452 53.9076H74.9092C75.7289 53.9084 76.5147 54.2342 77.0945 54.8136C77.6742 55.393 78.0005 56.1787 78.0018 56.9983V59.3531L78.0016 59.3521ZM52.7442 39.8434C48.9424 37.7695 45.9396 34.4885 44.2099 30.5182C42.4802 26.548 42.1221 22.1147 43.1922 17.9183C44.2624 13.7219 46.6997 10.0015 50.1194 7.3444C53.5391 4.68729 57.7464 3.24487 62.0771 3.24487C66.4078 3.24487 70.6151 4.68729 74.0349 7.3444C77.4546 10.0015 79.8919 13.7219 80.962 17.9183C82.0321 22.1147 81.674 26.548 79.9443 30.5182C78.2146 34.4885 75.2118 37.7695 71.41 39.8434H74.9092C76.4615 39.8447 77.9499 40.4617 79.0478 41.5592C80.1456 42.6566 80.7633 44.1448 80.7651 45.697V48.0517C80.7648 48.9042 80.5779 49.7463 80.2176 50.5189C79.8572 51.2915 79.3321 51.9758 78.679 52.5239C79.3323 53.0722 79.8575 53.7569 80.218 54.5299C80.5784 55.3029 80.7652 56.1454 80.7653 56.9983V59.3531C80.7636 60.9057 80.1461 62.3941 79.0484 63.4919C77.9506 64.5897 76.4622 65.2073 74.9096 65.209H49.2452C47.6928 65.2071 46.2045 64.5896 45.1068 63.4918C44.0092 62.3939 43.3918 60.9056 43.3901 59.3531V56.9983C43.3903 56.1455 43.577 55.3031 43.9373 54.5301C44.2976 53.7572 44.8226 53.0724 45.4756 52.5239C44.8231 51.9755 44.2983 51.291 43.938 50.5185C43.5778 49.746 43.3908 48.9041 43.3901 48.0517V45.697C43.3919 44.1449 44.0094 42.6568 45.1071 41.5593C46.2048 40.4619 47.693 39.8448 49.2452 39.8434H52.7442ZM56.8665 25.8462C57.3133 27.7883 58.8014 29.1621 60.774 29.6337V30.5021C60.774 30.8684 60.9195 31.2197 61.1785 31.4788C61.4376 31.7378 61.7889 31.8833 62.1552 31.8833C62.5216 31.8833 62.8729 31.7378 63.1319 31.4788C63.391 31.2197 63.5365 30.8684 63.5365 30.5021V29.7127C65.2082 29.4265 66.5206 28.4416 67.0674 27.0443C67.3126 26.403 67.3786 25.7071 67.2583 25.0312C67.138 24.3553 66.8359 23.7249 66.3845 23.2077C65.1745 21.7549 63.7556 21.542 62.6167 21.37C62.1454 21.3162 61.6806 21.2157 61.2292 21.07C60.8148 20.9004 60.1477 20.5252 60.1577 19.8898C60.1636 19.4596 60.4971 18.903 61.2273 18.6327C62.6917 18.0897 64.0102 18.7233 64.5885 20.2489C64.6527 20.4187 64.7498 20.5741 64.8741 20.7063C64.9985 20.8386 65.1477 20.945 65.3131 21.0196C65.4786 21.0942 65.6572 21.1354 65.8386 21.141C66.02 21.1466 66.2007 21.1164 66.3705 21.0521C66.5402 20.9878 66.6956 20.8907 66.8279 20.7664C66.9601 20.6421 67.0665 20.4929 67.1411 20.3274C67.2157 20.1619 67.257 19.9834 67.2625 19.802C67.2681 19.6206 67.2379 19.4398 67.1736 19.2701C66.4928 17.474 65.1424 16.2681 63.5377 15.8458V14.9754C63.5377 14.6091 63.3922 14.2577 63.1331 13.9987C62.8741 13.7397 62.5228 13.5942 62.1564 13.5942C61.7901 13.5942 61.4388 13.7397 61.1798 13.9987C60.9207 14.2577 60.7752 14.6091 60.7752 14.9754V15.8793C60.6074 15.9248 60.4378 15.978 60.2674 16.0418C58.5477 16.6792 57.4206 18.1734 57.3954 19.849C57.3708 21.499 58.4244 22.9162 60.2142 23.6403L60.2548 23.658C60.888 23.8747 61.5422 24.0245 62.2066 24.1049C63.233 24.2588 63.7481 24.3596 64.2612 24.9783C64.3947 25.1163 64.4871 25.2886 64.5283 25.4761C64.5694 25.6636 64.5575 25.8589 64.494 26.04C64.3402 26.4329 63.8527 26.8948 62.9468 27.0132C61.8731 27.1513 59.9509 26.9342 59.5593 25.229C59.4771 24.8718 59.2564 24.562 58.9458 24.3676C58.6352 24.1732 58.26 24.1101 57.9029 24.1923C57.5458 24.2745 57.2359 24.4952 57.0415 24.8058C56.8471 25.1164 56.7841 25.4916 56.8663 25.8487L56.8665 25.8462ZM62.0766 10.4735C59.6508 10.4737 57.2794 11.1932 55.2625 12.5411C53.2456 13.889 51.6736 15.8047 50.7454 18.0459C49.8173 20.2872 49.5745 22.7533 50.048 25.1326C50.5214 27.5118 51.6897 29.6972 53.4052 31.4124C55.1207 33.1276 57.3062 34.2956 59.6855 34.7686C62.0648 35.2417 64.5309 34.9986 66.772 34.0701C69.0132 33.1416 70.9286 31.5694 72.2762 29.5523C73.6238 27.5351 74.3429 25.1637 74.3427 22.7378C74.3389 19.486 73.0452 16.3685 70.7457 14.0693C68.4461 11.7701 65.3284 10.4769 62.0766 10.4735ZM62.0766 37.767C65.049 37.7673 67.9547 36.8861 70.4262 35.235C72.8978 33.5838 74.8242 31.2368 75.9618 28.4908C77.0995 25.7448 77.3974 22.7231 76.8177 19.8078C76.238 16.8925 74.8069 14.2146 72.7052 12.1127C70.6036 10.0108 67.9259 8.57925 65.0107 7.99919C62.0955 7.41912 59.0737 7.71655 56.3276 8.85385C53.5814 9.99116 51.2341 11.9173 49.5826 14.3886C47.9312 16.8599 47.0496 19.7655 47.0494 22.7378C47.0539 26.7221 48.6385 30.5419 51.4556 33.3594C54.2727 36.1769 58.0923 37.762 62.0766 37.767Z" fill="#231F20"/>
<path fill-rule="evenodd" clip-rule="evenodd" d="M34.0766 92.8573L23.6077 74.7254C23.3712 74.321 22.9849 74.026 22.5325 73.9044C22.0801 73.7827 21.598 73.8442 21.1906 74.0754L16.9046 76.5503C16.4987 76.7853 16.2025 77.1718 16.081 77.6249C15.9595 78.078 16.0226 78.5608 16.2565 78.9674L26.7255 97.1012C26.9609 97.5069 27.3474 97.8028 27.8004 97.9242C28.2534 98.0455 28.7361 97.9824 29.1427 97.7486L33.4286 95.2737C33.8331 95.0373 34.128 94.6508 34.2493 94.1983C34.3707 93.7457 34.3086 93.2636 34.0766 92.8565V92.8573ZM22.1804 82.1484C21.9376 82.1486 21.699 82.0848 21.4887 81.9636C21.2783 81.8424 21.1035 81.6679 20.982 81.4578L19.4559 78.8151C19.3652 78.658 19.3063 78.4845 19.2827 78.3047C19.259 78.1248 19.271 77.9421 19.3179 77.7668C19.3649 77.5916 19.4459 77.4273 19.5564 77.2834C19.6668 77.1395 19.8045 77.0188 19.9617 76.9281C20.1188 76.8374 20.2922 76.7785 20.4721 76.7549C20.6519 76.7312 20.8347 76.7432 21.0099 76.7901C21.1851 76.8371 21.3494 76.9181 21.4933 77.0286C21.6372 77.139 21.758 77.2767 21.8487 77.4339L23.3748 80.0767C23.4959 80.2866 23.5598 80.5247 23.5598 80.767C23.5599 81.0094 23.4962 81.2475 23.3751 81.4574C23.254 81.6674 23.0798 81.8418 22.87 81.9631C22.6602 82.0844 22.4221 82.1484 22.1798 82.1486L22.1804 82.1484Z" fill="#00ABEA"/>
<path fill-rule="evenodd" clip-rule="evenodd" d="M78.0021 59.3533V56.9985C78.0008 56.1788 77.6745 55.3932 77.0948 54.8138C76.515 54.2344 75.7292 53.9085 74.9095 53.9077H49.2453C48.4257 53.9086 47.64 54.2345 47.0604 54.8139C46.4808 55.3933 46.1546 56.1789 46.1533 56.9985V59.3533C46.1542 60.1731 46.4802 60.9592 47.0598 61.539C47.6395 62.1188 48.4254 62.445 49.2453 62.4461H74.9093C75.7293 62.4451 76.5154 62.119 77.0952 61.5392C77.675 60.9594 78.0011 60.1733 78.0021 59.3533Z" fill="#00ABEA"/>
<path fill-rule="evenodd" clip-rule="evenodd" d="M62.0766 35.004C64.5024 35.0042 66.8739 34.2851 68.8911 32.9376C70.9082 31.59 72.4805 29.6746 73.409 27.4334C74.3376 25.1923 74.5807 22.7262 74.1076 20.3469C73.6346 17.9676 72.4666 15.782 70.7514 14.0665C69.0362 12.351 66.8508 11.1827 64.4716 10.7093C62.0924 10.2358 59.6262 10.4785 57.3849 11.4067C55.1436 12.3349 53.2279 13.9068 51.8801 15.9237C50.5322 17.9407 49.8127 20.312 49.8125 22.7379C49.8161 25.9896 51.1093 29.1071 53.4084 31.4066C55.7075 33.7061 58.8249 34.9998 62.0766 35.004ZM66.3851 23.2077C66.8365 23.725 67.1386 24.3554 67.2589 25.0313C67.3792 25.7072 67.3132 26.4031 67.068 27.0443C66.5212 28.4416 65.2088 29.4266 63.537 29.7128V30.5021C63.537 30.8685 63.3915 31.2198 63.1325 31.4788C62.8735 31.7379 62.5221 31.8834 62.1558 31.8834C61.7895 31.8834 61.4381 31.7379 61.1791 31.4788C60.9201 31.2198 60.7745 30.8685 60.7745 30.5021V29.6338C58.802 29.1621 57.3139 27.7884 56.867 25.8463C56.7848 25.4892 56.8479 25.114 57.0423 24.8034C57.2367 24.4928 57.5466 24.2721 57.9037 24.1899C58.2608 24.1077 58.6359 24.1708 58.9466 24.3652C59.2572 24.5596 59.4779 24.8694 59.5601 25.2266C59.9517 26.9318 61.8739 27.1489 62.9476 27.0108C63.8535 26.8924 64.341 26.4305 64.4948 26.0376C64.5583 25.8565 64.5701 25.6613 64.529 25.4737C64.4879 25.2862 64.3955 25.1139 64.262 24.9759C63.7489 24.3582 63.2338 24.2575 62.2074 24.1025C61.543 24.0221 60.8888 23.8723 60.2556 23.6556L60.2149 23.6379C58.4252 22.9136 57.3712 21.4966 57.3962 19.8466C57.4214 18.171 58.5485 16.6768 60.2682 16.0394C60.438 15.9763 60.6076 15.923 60.776 15.8769V14.973C60.776 14.6067 60.9215 14.2554 61.1805 13.9963C61.4396 13.7373 61.7909 13.5918 62.1572 13.5918C62.5235 13.5918 62.8749 13.7373 63.1339 13.9963C63.3929 14.2554 63.5385 14.6067 63.5385 14.973V15.8458C65.1432 16.2681 66.4931 17.4741 67.1744 19.2701C67.2387 19.4398 67.2689 19.6204 67.2634 19.8017C67.2578 19.983 67.2166 20.1615 67.1421 20.3269C67.0676 20.4923 66.9613 20.6414 66.8291 20.7657C66.697 20.89 66.5417 20.9871 66.3721 21.0513C66.2024 21.1156 66.0218 21.1458 65.8405 21.1403C65.6591 21.1348 65.4807 21.0936 65.3153 21.0191C65.1499 20.9446 65.0008 20.8382 64.8765 20.7061C64.7522 20.5739 64.6551 20.4186 64.5909 20.249C64.0126 18.7233 62.6941 18.0898 61.2297 18.6327C60.4995 18.9031 60.166 19.4596 60.1601 19.8899C60.1501 20.5252 60.8172 20.9004 61.2316 21.07C61.683 21.2157 62.1478 21.3162 62.6191 21.37C63.7562 21.5417 65.175 21.7548 66.3851 23.2077Z" fill="#00ABEA"/>
</svg>
