<svg width="104" height="104" viewBox="0 0 104 104" fill="none" xmlns="http://www.w3.org/2000/svg">
<path fill-rule="evenodd" clip-rule="evenodd" d="M28.6823 36.3755C28.6213 36.2044 28.5945 36.023 28.6037 35.8416C28.6128 35.6602 28.6576 35.4823 28.7354 35.3182C28.8133 35.1541 28.9227 35.007 29.0575 34.8852C29.1922 34.7634 29.3497 34.6693 29.5208 34.6083C49.1587 27.6208 66.2864 18.0437 80.486 6.12493L78.4099 6.01037C78.044 5.99022 77.7011 5.82554 77.4566 5.55256C77.2121 5.27959 77.0861 4.92067 77.1063 4.55477C77.1264 4.18887 77.2911 3.84596 77.5641 3.60148C77.837 3.357 78.1959 3.23097 78.5618 3.25112L84.0684 3.55458C84.2573 3.56527 84.4421 3.61462 84.6112 3.69958C84.7803 3.78455 84.9302 3.90332 85.0516 4.04854C85.1729 4.19376 85.2632 4.36235 85.3168 4.54387C85.3704 4.72538 85.3861 4.91597 85.3631 5.10382L84.6928 10.5531C84.6515 10.8875 84.4896 11.1954 84.2374 11.4189C83.9852 11.6424 83.6601 11.7661 83.3231 11.7669C83.2656 11.7668 83.2082 11.7629 83.1513 11.7551C82.7877 11.7103 82.4569 11.523 82.2315 11.2343C82.0061 10.9456 81.9046 10.5792 81.9494 10.2157L82.1842 8.30771C67.7463 20.4089 50.3586 30.1252 30.4464 37.2124C30.2984 37.2662 30.1422 37.2937 29.9847 37.2936C29.6995 37.2936 29.4212 37.2054 29.188 37.0411C28.9549 36.8767 28.7782 36.6441 28.6823 36.3755ZM39.5088 58.1152H33.4072V46.2082L36.4583 43.8676L39.5094 46.2082V58.1152H39.5088ZM37.299 41.0311C37.0578 40.8461 36.7623 40.7457 36.4582 40.7457C36.1541 40.7457 35.8586 40.8461 35.6174 41.0311L31.1848 44.4298C31.0165 44.5589 30.8802 44.725 30.7864 44.9152C30.6926 45.1054 30.6439 45.3146 30.6438 45.5267V59.4962C30.6438 59.8626 30.7894 60.2139 31.0484 60.4729C31.3074 60.7319 31.6588 60.8775 32.0251 60.8775H40.8909C41.2572 60.8775 41.6086 60.7319 41.8676 60.4729C42.1266 60.2139 42.2721 59.8626 42.2721 59.4962V45.5273C42.2721 45.3152 42.2233 45.106 42.1296 44.9158C42.0358 44.7256 41.8995 44.5596 41.7312 44.4304L37.299 41.0311ZM55.4052 58.114V38.0572L52.354 35.7164L49.3027 38.0572V58.1152L55.4052 58.114ZM53.1948 32.8783C52.9532 32.694 52.6578 32.5941 52.3539 32.5941C52.0501 32.5941 51.7547 32.694 51.5131 32.8783L47.0805 36.278C46.9121 36.4069 46.7756 36.573 46.6818 36.7632C46.588 36.9534 46.5393 37.1628 46.5396 37.3749V59.4968C46.5396 59.6782 46.5753 59.8578 46.6447 60.0254C46.7141 60.193 46.8159 60.3453 46.9442 60.4735C47.0724 60.6018 47.2247 60.7035 47.3923 60.7729C47.5598 60.8424 47.7395 60.8781 47.9208 60.8781H56.7864C57.1528 60.8781 57.5041 60.7326 57.7631 60.4735C58.0222 60.2145 58.1677 59.8632 58.1677 59.4968V37.3749C58.1673 37.1631 58.1184 36.9542 58.0246 36.7643C57.9308 36.5744 57.7947 36.4085 57.6268 36.2794L53.1942 32.8789L53.1948 32.8783ZM71.2989 58.1152V28.6824L68.2476 26.3418L65.1964 28.6824V58.1152H71.2989ZM69.0885 23.5027C68.847 23.3183 68.5515 23.2184 68.2477 23.2184C67.9438 23.2184 67.6484 23.3183 67.4068 23.5027L62.9742 26.9032C62.8063 27.0323 62.6702 27.1981 62.5764 27.388C62.4827 27.5779 62.4337 27.7868 62.4333 27.9986V59.4968C62.4333 59.8632 62.5788 60.2145 62.8379 60.4735C63.0969 60.7326 63.4482 60.8781 63.8146 60.8781H72.6804C73.0467 60.8781 73.398 60.7326 73.6571 60.4735C73.9161 60.2145 74.0616 59.8632 74.0616 59.4968V27.9995C74.0617 27.7876 74.0129 27.5785 73.9191 27.3886C73.8253 27.1986 73.6889 27.0328 73.5207 26.904L69.0885 23.5035V23.5027ZM87.1945 58.1152V20.8824L84.1433 18.5418L81.0922 20.8826V58.1154L87.1945 58.1152ZM83.3028 15.7037L78.8698 19.1044C78.7015 19.2331 78.5652 19.3989 78.4714 19.5888C78.3776 19.7788 78.3288 19.9878 78.3289 20.1997V59.4968C78.3289 59.8632 78.4744 60.2145 78.7334 60.4735C78.9925 60.7326 79.3438 60.8781 79.7101 60.8781H88.5759C88.9422 60.8781 89.2936 60.7326 89.5526 60.4735C89.8116 60.2145 89.9572 59.8632 89.9572 59.4968V20.1997C89.9572 19.9878 89.9085 19.7788 89.8147 19.5888C89.7208 19.3989 89.5845 19.2331 89.4162 19.1044L84.9843 15.7037C84.7431 15.5185 84.4476 15.418 84.1435 15.418C83.8395 15.418 83.5439 15.5185 83.3028 15.7037ZM20.1029 78.0352C20.286 78.3527 20.3356 78.73 20.2406 79.084C20.1456 79.438 19.9139 79.7398 19.5964 79.923C19.2789 80.1061 18.9016 80.1557 18.5476 80.0607C18.1936 79.9657 17.8918 79.734 17.7086 79.4165L16.0154 76.4838C15.8322 76.1663 15.7827 75.7891 15.8776 75.4352C15.9726 75.0812 16.2042 74.7794 16.5217 74.5962C16.8391 74.4131 17.2163 74.3635 17.5703 74.4585C17.9243 74.5534 18.2261 74.7851 18.4092 75.1025L20.1029 78.0352ZM92.0776 71.8893C92.0024 73.3398 90.8162 74.6621 88.736 75.6174C88.6885 75.6391 88.6424 75.6635 88.5978 75.6906L62.2182 91.5981C62.2123 91.602 62.2044 91.606 62.1965 91.6119C59.7551 93.1494 57.1084 93.3862 54.1084 92.3381C54.079 92.3283 54.0491 92.3178 54.0197 92.3105L36.9241 87.6134C36.7384 87.562 36.6082 87.5165 36.4936 87.4771C35.5818 87.1574 35.1043 87.3193 34.3147 87.8303L33.3458 88.456L24.6401 73.3794L36.1798 66.4065C40.0859 64.2987 52.1999 66.4656 58.5689 70.4209C60.7598 71.7818 61.9893 73.2078 61.9418 74.3307C61.8985 75.355 60.7575 76.4996 58.7267 77.5634C55.9697 77.3286 52.1328 76.5254 46.7941 74.7649C46.4459 74.6503 46.0665 74.6787 45.7392 74.8438C45.412 75.0089 45.1637 75.2973 45.0491 75.6455C44.9344 75.9937 44.9628 76.3731 45.1279 76.7004C45.2931 77.0276 45.5814 77.2759 45.9296 77.3905C56.3566 80.8248 63.0352 81.2984 66.3372 78.8315L84.0072 69.2046C84.0302 69.1925 84.0526 69.1793 84.0742 69.165C86.1565 67.8743 88.4339 67.7145 90.168 68.7409C91.4071 69.4721 92.1397 70.6789 92.0774 71.8893H92.0776ZM32.448 93.6724C32.5209 93.4045 32.5401 93.1247 32.5045 92.8493C32.4689 92.5739 32.3791 92.3083 32.2404 92.0677L20.6217 71.9445C20.3404 71.4596 19.8784 71.1059 19.337 70.9609C18.7955 70.8159 18.2186 70.8914 17.7326 71.1708L12.9758 73.9171C12.4916 74.1995 12.1384 74.6617 11.9931 75.2031C11.8478 75.7446 11.9222 76.3215 12.2001 76.8084L23.8188 96.9295C24.1007 97.4139 24.5626 97.7673 25.1039 97.9126C25.6451 98.058 26.2219 97.9835 26.7085 97.7055L31.4649 94.958C31.7056 94.8195 31.9165 94.6347 32.0852 94.4142C32.254 94.1936 32.3773 93.9418 32.448 93.6732V93.6724ZM91.5761 66.3608C88.9472 64.8096 85.6156 64.9735 82.6532 66.7971L64.922 76.4561C64.8565 76.492 64.7938 76.5327 64.7345 76.578C64.411 76.8231 64.0524 77.018 63.6708 77.1563C64.2875 76.3828 64.6476 75.4363 64.701 74.4485C64.7977 72.2045 63.2247 70.0591 60.0273 68.0736C53.2777 63.8835 40.0621 61.1245 34.828 63.9961C34.8124 64.006 34.7943 64.0164 34.7787 64.0257L23.2586 70.9848L23.0159 70.5625C22.3674 69.4435 21.3018 68.6272 20.0526 68.2925C18.8034 67.9578 17.4724 68.1319 16.3514 68.7768L11.5944 71.5241C10.4757 72.173 9.65966 73.2386 9.32488 74.4878C8.9901 75.7369 9.16385 77.0679 9.8081 78.1892L21.425 98.3104C21.7445 98.8659 22.171 99.3525 22.6798 99.7421C23.1886 100.132 23.7696 100.417 24.3892 100.58C24.8057 100.692 25.235 100.749 25.6663 100.75C26.5176 100.75 27.3538 100.524 28.09 100.096L32.8465 97.3512C33.9364 96.7189 34.7401 95.6902 35.0902 94.4798C35.4402 93.2693 35.3094 91.9705 34.7252 90.8541L35.8018 90.1594C35.9105 90.1947 36.0405 90.2364 36.1926 90.2776L53.2429 94.9612C54.6444 95.4631 56.12 95.7265 57.6085 95.7406C59.7542 95.7377 61.8539 95.1185 63.6578 93.9566L89.9598 78.0964C94.0253 76.2016 94.7615 73.4879 94.8364 72.0313C94.953 69.7914 93.7036 67.6184 91.5761 66.3608Z" fill="#231F20"/>
<path fill-rule="evenodd" clip-rule="evenodd" d="M32.2408 92.0676L20.6221 71.9444C20.3408 71.4595 19.8789 71.1058 19.3374 70.9608C18.7959 70.8158 18.219 70.8913 17.733 71.1707L12.9763 73.917C12.492 74.1994 12.1388 74.6616 11.9936 75.203C11.8483 75.7445 11.9227 76.3214 12.2005 76.8082L23.8193 96.9294C24.1012 97.4138 24.563 97.7672 25.1043 97.9125C25.6456 98.0578 26.2223 97.9834 26.7089 97.7053L31.4653 94.9579C31.9498 94.6761 32.3032 94.2142 32.4485 93.673C32.5938 93.1317 32.5191 92.5549 32.2408 92.0684V92.0676ZM18.9071 80.1074C18.6643 80.1075 18.4258 80.0438 18.2154 79.9225C18.0051 79.8013 17.8303 79.6269 17.7087 79.4168L16.0154 76.4841C15.9247 76.3269 15.8659 76.1534 15.8422 75.9735C15.8186 75.7935 15.8306 75.6107 15.8776 75.4354C15.9247 75.2602 16.0057 75.0959 16.1162 74.9519C16.2268 74.808 16.3645 74.6872 16.5217 74.5965C16.6789 74.5058 16.8524 74.447 17.0323 74.4233C17.2122 74.3997 17.3951 74.4117 17.5703 74.4587C17.7456 74.5058 17.9099 74.5868 18.0538 74.6973C18.1978 74.8079 18.3186 74.9456 18.4092 75.1028L20.1029 78.0357C20.2241 78.2457 20.288 78.4839 20.288 78.7264C20.288 78.9688 20.2241 79.207 20.1029 79.417C19.9817 79.627 19.8073 79.8013 19.5973 79.9226C19.3874 80.0438 19.1492 80.1076 18.9067 80.1076L18.9071 80.1074Z" fill="#00ABEA"/>
<path fill-rule="evenodd" clip-rule="evenodd" d="M55.4052 58.1151V38.0571L52.3541 35.7163L49.3027 38.0571V58.1151H55.4052Z" fill="#00ABEA"/>
<path fill-rule="evenodd" clip-rule="evenodd" d="M81.0928 20.8826V58.1152H87.1951V20.8826L84.1439 18.5417L81.0928 20.8826Z" fill="#00ABEA"/>
</svg>
