<svg width="104" height="104" viewBox="0 0 104 104" fill="none" xmlns="http://www.w3.org/2000/svg">
<path fill-rule="evenodd" clip-rule="evenodd" d="M27.5657 46.8979C25.4968 46.8976 23.4745 46.2838 21.7545 45.1342C20.0344 43.9846 18.6939 42.3508 17.9023 40.4394C17.1108 38.5279 16.9038 36.4247 17.3075 34.3956C17.7112 32.3666 18.7075 30.5028 20.1704 29.0399C21.6333 27.577 23.4971 26.5807 25.5262 26.1771C27.5553 25.7734 29.6585 25.9805 31.5699 26.772C33.4813 27.5636 35.1151 28.9042 36.2647 30.6243C37.4142 32.3444 38.028 34.3667 38.0283 36.4355C38.0256 39.2095 36.9224 41.8691 34.9609 43.8306C32.9993 45.7921 30.3397 46.8952 27.5657 46.8979ZM27.5657 23.2119C24.9501 23.2121 22.3933 23.9879 20.2186 25.4412C18.0439 26.8945 16.3491 28.9601 15.3483 31.3767C14.3476 33.7932 14.0859 36.4523 14.5964 39.0176C15.1069 41.5829 16.3666 43.9392 18.2162 45.7886C20.0659 47.6379 22.4224 48.8972 24.9878 49.4073C27.5532 49.9174 30.2122 49.6552 32.6286 48.6541C35.045 47.6529 37.1103 45.9577 38.5633 43.7828C40.0162 41.6078 40.7916 39.0509 40.7914 36.4353C40.7874 32.9291 39.3926 29.5676 36.9131 27.0885C34.4336 24.6095 31.0719 23.2153 27.5657 23.2119ZM39.9112 53.6065C40.0398 53.7327 40.2127 53.8033 40.3928 53.8033C40.5729 53.8033 40.7459 53.7327 40.8744 53.6065L44.7369 49.7471C44.8621 49.6177 44.9322 49.4446 44.9322 49.2645C44.9322 49.0844 44.8621 48.9113 44.7369 48.7819L41.7712 45.8193C41.5597 45.6065 41.4228 45.3309 41.3812 45.0338C41.3396 44.7366 41.3955 44.434 41.5405 44.1713C42.125 43.1196 42.5879 42.0048 42.9203 40.8484C43.0027 40.5602 43.1768 40.3067 43.4161 40.1261C43.6554 39.9456 43.947 39.8479 44.2467 39.8478H48.4366C48.6164 39.8454 48.7883 39.7729 48.9155 39.6457C49.0427 39.5186 49.1153 39.3468 49.1179 39.1669V33.7059C49.1153 33.5261 49.0428 33.3544 48.9156 33.2273C48.7885 33.1001 48.6168 33.0276 48.437 33.0251H44.2473C43.9476 33.0249 43.656 32.9272 43.4167 32.7466C43.1775 32.566 43.0035 32.3125 42.9211 32.0243C42.5887 30.8677 42.1259 29.7527 41.5415 28.7007C41.3968 28.4384 41.341 28.1363 41.3827 27.8396C41.4243 27.5429 41.561 27.2678 41.7722 27.0554L44.7379 24.091C44.8633 23.9621 44.9335 23.7893 44.9335 23.6094C44.9335 23.4295 44.8633 23.2567 44.7379 23.1278L40.8742 19.2664C40.8111 19.2032 40.736 19.1533 40.6533 19.1194C40.5707 19.0855 40.4821 19.0683 40.3928 19.0689C40.2128 19.0681 40.0398 19.1383 39.9112 19.2643L36.9486 22.23C36.7364 22.4424 36.4607 22.5798 36.1633 22.6215C35.866 22.6631 35.5631 22.6068 35.3007 22.4609C34.2491 21.8776 33.1347 21.4154 31.979 21.0831C31.6906 21.0004 31.4369 20.8261 31.2564 20.5865C31.0759 20.3468 30.9783 20.0549 30.9784 19.7549V15.5658C30.9764 15.3857 30.9041 15.2135 30.777 15.086C30.6498 14.9584 30.4778 14.8855 30.2977 14.8829H24.8363C24.6558 14.8849 24.4833 14.9575 24.3556 15.0852C24.228 15.2128 24.1554 15.3854 24.1534 15.5658V19.7539C24.1536 20.0536 24.0563 20.3453 23.8762 20.585C23.6961 20.8246 23.4429 20.9991 23.1548 21.0821C21.9986 21.4149 20.8836 21.877 19.8311 22.4599C19.5685 22.6053 19.2658 22.6615 18.9685 22.6198C18.6713 22.5781 18.3956 22.441 18.1831 22.229L15.2204 19.2664C15.092 19.1402 14.9193 19.0693 14.7393 19.0689C14.5593 19.0686 14.3863 19.1387 14.2573 19.2643L10.3947 23.127C10.2682 23.2554 10.1973 23.4283 10.1973 23.6086C10.1973 23.7888 10.2682 23.9618 10.3947 24.0902L13.3591 27.0546C13.5709 27.2667 13.708 27.5419 13.7496 27.8386C13.7913 28.1354 13.7353 28.4377 13.5901 28.6999C13.0062 29.7521 12.5433 30.867 12.2105 32.0234C12.1281 32.3117 11.9541 32.5652 11.7148 32.7458C11.4756 32.9263 11.184 33.0241 10.8842 33.0242H6.69398C6.51423 33.0268 6.34255 33.0994 6.21545 33.2265C6.08835 33.3537 6.01583 33.5254 6.01331 33.7051V39.1663C6.01583 39.3462 6.08841 39.5179 6.2156 39.6451C6.34279 39.7722 6.51456 39.8447 6.69439 39.8472H10.8842C11.184 39.8473 11.4755 39.9451 11.7148 40.1256C11.9541 40.3061 12.128 40.5596 12.2105 40.8478C12.5434 42.0042 13.0062 43.1192 13.5901 44.1715C13.7353 44.4337 13.7914 44.736 13.7497 45.0328C13.7081 45.3296 13.5711 45.6048 13.3593 45.8168L10.3937 48.7825C10.2672 48.9109 10.1963 49.0838 10.1963 49.2641C10.1963 49.4443 10.2672 49.6173 10.3937 49.7457L14.2563 53.6051C14.3848 53.7312 14.5577 53.8019 14.7378 53.8019C14.9179 53.8019 15.0908 53.7312 15.2193 53.6051L18.1819 50.6427C18.3942 50.4303 18.6699 50.2929 18.9672 50.2512C19.2646 50.2095 19.5674 50.2659 19.8299 50.4117C20.8819 50.9942 21.9961 51.4563 23.1516 51.7893C23.4402 51.8716 23.6942 52.0458 23.8748 52.2855C24.0554 52.5253 24.1529 52.8174 24.1524 53.1176V57.3058C24.1549 57.486 24.2277 57.6581 24.3553 57.7854C24.4829 57.9126 24.6553 57.9849 24.8355 57.9869H30.2965C30.4763 57.9844 30.6481 57.9119 30.7753 57.7847C30.9025 57.6576 30.9751 57.4858 30.9776 57.306V53.119C30.9777 52.819 31.0754 52.5272 31.256 52.2876C31.4365 52.048 31.6901 51.8736 31.9784 51.7908C33.1338 51.4577 34.2481 50.9956 35.3001 50.4132C35.5625 50.2673 35.8654 50.2109 36.1627 50.2526C36.4601 50.2943 36.7358 50.4317 36.948 50.6441L39.9106 53.6065H39.9112ZM46.6909 51.7C47.3353 51.0528 47.6971 50.1767 47.6971 49.2635C47.6971 48.3502 47.3353 47.4741 46.6909 46.827L44.4438 44.579C44.752 43.9388 45.0242 43.2818 45.2589 42.6111H48.4386C49.3517 42.61 50.227 42.2468 50.8726 41.6012C51.5183 40.9555 51.8815 40.0802 51.8826 39.1671V33.7059C51.8814 32.7928 51.5181 31.9175 50.8724 31.2718C50.2267 30.6262 49.3513 30.263 48.4382 30.2619H45.2579C45.0232 29.5912 44.7511 28.9342 44.4427 28.2941L46.6909 26.0441C47.3355 25.3974 47.6975 24.5216 47.6975 23.6085C47.6975 22.6954 47.3355 21.8196 46.6909 21.1729L42.8283 17.3125C42.1817 16.6679 41.3058 16.3058 40.3927 16.3058C39.4796 16.3058 38.6038 16.6679 37.9572 17.3125L35.7094 19.5609C35.0694 19.2515 34.4124 18.9786 33.7415 18.7437V15.5658C33.7407 14.6524 33.3777 13.7766 32.732 13.1306C32.0863 12.4845 31.2107 12.1209 30.2973 12.1196H24.8363C23.9226 12.1205 23.0466 12.4839 22.4005 13.13C21.7544 13.7761 21.391 14.6521 21.3901 15.5658V18.7433C20.7192 18.9783 20.0623 19.2513 19.4224 19.5609L17.1744 17.3125C16.5278 16.6679 15.6519 16.3058 14.7389 16.3058C13.8258 16.3058 12.9499 16.6679 12.3033 17.3125L8.44086 21.1729C7.79619 21.8195 7.43418 22.6954 7.43418 23.6085C7.43418 24.5216 7.79619 25.3974 8.44086 26.0441L10.6907 28.2941C10.3811 28.9339 10.1083 29.591 9.8737 30.2619H6.69419C5.7811 30.263 4.90571 30.6262 4.26004 31.2718C3.61437 31.9175 3.25113 32.7928 3.25 33.7059V39.1671C3.25118 40.0802 3.61441 40.9555 4.26003 41.6011C4.90564 42.2467 5.78095 42.6099 6.69398 42.6111H9.8737C10.1082 43.2821 10.381 43.939 10.6907 44.5788L8.44086 46.8288C7.79619 47.4755 7.43418 48.3513 7.43418 49.2644C7.43418 50.1775 7.79619 51.0533 8.44086 51.7L12.3035 55.5606C12.9496 56.206 13.8255 56.5686 14.7389 56.5686C15.6522 56.5686 16.5281 56.206 17.1742 55.5606L19.4226 53.3126C20.0623 53.6217 20.7192 53.8939 21.3901 54.1277V57.3072C21.3913 58.2206 21.7548 59.0962 22.4009 59.7419C23.0469 60.3876 23.9227 60.7507 24.8361 60.7514H30.2973C31.2104 60.7502 32.0857 60.387 32.7313 59.7413C33.377 59.0956 33.7402 58.2203 33.7413 57.3072V54.1277C34.4124 53.8942 35.0694 53.6221 35.709 53.3126L37.957 55.5606C38.6031 56.2061 39.4792 56.5686 40.3925 56.5686C41.3059 56.5686 42.1819 56.2061 42.8281 55.5606L46.6907 51.7H46.6909ZM30.7099 89.1172H20.9639V71.4683L25.8375 67.7322L30.7103 71.4683V89.1172H30.7099ZM32.9323 69.6922L26.6776 64.8944C26.4363 64.7096 26.1408 64.6094 25.8368 64.6094C25.5328 64.6094 25.2373 64.7096 24.996 64.8944L18.7415 69.6922C18.5731 69.8208 18.4367 69.9866 18.3429 70.1766C18.2491 70.3666 18.2004 70.5757 18.2006 70.7876V90.4989C18.2011 90.865 18.3468 91.216 18.6058 91.475C18.8647 91.7339 19.2157 91.8796 19.5819 91.8801H32.0911C32.4573 91.8796 32.8083 91.7339 33.0673 91.475C33.3262 91.2161 33.4719 90.865 33.4724 90.4989V70.7876C33.4722 70.5758 33.4233 70.3668 33.3295 70.1769C33.2357 69.987 33.0995 69.8211 32.9314 69.6922H32.9323ZM53.1351 89.1174H43.3908V59.969L48.2621 56.2315L53.1351 59.969V89.1174ZM55.3577 58.1896C55.5258 58.3185 55.6619 58.4843 55.7556 58.6743C55.8493 58.8642 55.898 59.0732 55.898 59.285V90.4987C55.898 90.865 55.7524 91.2163 55.4934 91.4753C55.2344 91.7344 54.8831 91.8799 54.5167 91.8799H42.0091C41.6428 91.8799 41.2914 91.7344 41.0324 91.4753C40.7734 91.2163 40.6278 90.865 40.6278 90.4987V59.2849C40.6278 59.073 40.6766 58.8639 40.7704 58.674C40.8642 58.484 41.0005 58.3182 41.1688 58.1894L47.4214 53.3934C47.6625 53.2081 47.9581 53.1076 48.2622 53.1076C48.5663 53.1076 48.8619 53.2081 49.103 53.3934L55.3579 58.1894L55.3577 58.1896ZM75.5625 89.1172H65.8162V46.7401L70.6889 43.004L75.5625 46.7401V89.1172ZM77.7851 44.9619L71.5303 40.1657C71.289 39.9806 70.9935 39.8803 70.6894 39.8803C70.3854 39.8803 70.0898 39.9806 69.8486 40.1657L63.5942 44.9619C63.4258 45.0909 63.2895 45.257 63.1957 45.4472C63.1019 45.6374 63.0531 45.8467 63.0532 46.0588V90.4987C63.0532 90.865 63.1988 91.2163 63.4578 91.4753C63.7168 91.7344 64.0682 91.8799 64.4345 91.8799H76.9437C77.3099 91.8794 77.661 91.7337 77.9199 91.4748C78.1788 91.2159 78.3245 90.8648 78.325 90.4987V46.0592C78.3245 45.8472 78.2755 45.6381 78.1817 45.448C78.088 45.2579 77.952 45.0917 77.7841 44.9623L77.7851 44.9619ZM97.9875 89.1172H88.2436V35.736L93.1147 31.9997L97.9875 35.7349V89.1172ZM100.21 33.9586L93.9555 29.1604C93.7139 28.9761 93.4184 28.8763 93.1145 28.8763C92.8107 28.8763 92.5152 28.9761 92.2736 29.1604L86.0192 33.9586C85.8514 34.0877 85.7156 34.2536 85.6222 34.4435C85.5287 34.6334 85.4802 34.8422 85.4803 35.0539V90.4987C85.4803 90.865 85.6258 91.2163 85.8848 91.4753C86.1439 91.7344 86.4952 91.8799 86.8615 91.8799H99.3688C99.7351 91.8799 100.086 91.7344 100.345 91.4753C100.604 91.2163 100.75 90.865 100.75 90.4987V35.0539C100.75 34.842 100.702 34.633 100.608 34.443C100.514 34.2531 100.378 34.0873 100.21 33.9586H100.21Z" fill="#231F20"/>
<path fill-rule="evenodd" clip-rule="evenodd" d="M20.9639 71.4685V89.1174H30.7098V71.4685L25.837 67.7324L20.9639 71.4685Z" fill="#00ABEA"/>
<path fill-rule="evenodd" clip-rule="evenodd" d="M65.8164 46.7402V89.1174H75.5621V46.7402L70.6892 43.0042L65.8164 46.7402Z" fill="#00ABEA"/>
<path fill-rule="evenodd" clip-rule="evenodd" d="M40.8748 53.6066L44.7372 49.7472C44.8625 49.6178 44.9326 49.4447 44.9326 49.2646C44.9326 49.0845 44.8625 48.9114 44.7372 48.782L41.7716 45.8194C41.56 45.6066 41.4232 45.331 41.3816 45.0339C41.34 44.7367 41.3959 44.4341 41.5408 44.1714C42.1253 43.1197 42.5883 42.0049 42.9207 40.8485C43.0031 40.5603 43.1771 40.3068 43.4164 40.1263C43.6557 39.9457 43.9473 39.848 44.2471 39.8479H48.4369C48.6168 39.8455 48.7886 39.773 48.9159 39.6459C49.0431 39.5187 49.1157 39.3469 49.1182 39.1671V33.706C49.1157 33.5262 49.0432 33.3545 48.916 33.2274C48.7889 33.1002 48.6171 33.0277 48.4373 33.0252H44.2477C43.9479 33.025 43.6564 32.9273 43.4171 32.7467C43.1778 32.5661 43.0039 32.3126 42.9215 32.0244C42.5891 30.8678 42.1262 29.7528 41.5419 28.7008C41.3971 28.4385 41.3414 28.1364 41.383 27.8397C41.4246 27.5431 41.5613 27.2679 41.7726 27.0555L44.7382 24.0911C44.8637 23.9622 44.9339 23.7894 44.9339 23.6095C44.9339 23.4296 44.8637 23.2568 44.7382 23.1279L40.8746 19.2665C40.8114 19.2034 40.7363 19.1534 40.6537 19.1195C40.5711 19.0856 40.4825 19.0685 40.3932 19.0691C40.2132 19.0682 40.0401 19.1385 39.9116 19.2645L36.949 22.2301C36.7367 22.4425 36.4611 22.5799 36.1637 22.6216C35.8663 22.6633 35.5635 22.6069 35.301 22.461C34.2494 21.8777 33.1351 21.4155 31.9793 21.0832C31.6909 21.0006 31.4373 20.8262 31.2568 20.5866C31.0762 20.3469 30.9786 20.055 30.9788 19.755V15.566C30.9768 15.3859 30.9045 15.2136 30.7773 15.0861C30.6502 14.9585 30.4782 14.8856 30.2981 14.8831H24.8367C24.6562 14.8851 24.4836 14.9577 24.356 15.0853C24.2283 15.2129 24.1558 15.3855 24.1537 15.566V19.754C24.154 20.0538 24.0567 20.3455 23.8765 20.5851C23.6964 20.8247 23.4432 20.9992 23.1552 21.0822C21.999 21.415 20.884 21.8772 19.8315 22.46C19.5689 22.6055 19.2661 22.6616 18.9689 22.6199C18.6716 22.5783 18.396 22.4411 18.1835 22.2291L15.2207 19.2665C15.0923 19.1403 14.9196 19.0694 14.7396 19.0691C14.5596 19.0687 14.3866 19.1388 14.2577 19.2645L10.3951 23.1271C10.2686 23.2555 10.1977 23.4285 10.1977 23.6087C10.1977 23.7889 10.2686 23.9619 10.3951 24.0903L13.3595 27.0547C13.5713 27.2668 13.7083 27.542 13.75 27.8388C13.7917 28.1356 13.7357 28.4379 13.5904 28.7C13.0065 29.7522 12.5437 30.8672 12.2108 32.0236C12.1284 32.3118 11.9545 32.5653 11.7152 32.7459C11.4759 32.9265 11.1844 33.0242 10.8846 33.0244H6.69434C6.51458 33.0269 6.34291 33.0995 6.21581 33.2266C6.08871 33.3538 6.01619 33.5255 6.01367 33.7052V39.1664C6.01619 39.3463 6.08877 39.518 6.21596 39.6452C6.34315 39.7723 6.51492 39.8449 6.69475 39.8473H10.8846C11.1843 39.8475 11.4759 39.9452 11.7151 40.1257C11.9544 40.3062 12.1284 40.5597 12.2108 40.8479C12.5438 42.0043 13.0066 43.1194 13.5904 44.1716C13.7357 44.4338 13.7917 44.7361 13.7501 45.0329C13.7085 45.3297 13.5714 45.6049 13.3597 45.817L10.3941 48.7826C10.2676 48.911 10.1966 49.084 10.1966 49.2642C10.1966 49.4444 10.2676 49.6174 10.3941 49.7458L14.2567 53.6052C14.3852 53.7313 14.5581 53.802 14.7382 53.802C14.9183 53.802 15.0912 53.7313 15.2197 53.6052L18.1823 50.6428C18.3945 50.4304 18.6702 50.293 18.9676 50.2513C19.2649 50.2096 19.5678 50.266 19.8302 50.4119C20.8822 50.9943 21.9965 51.4564 23.1519 51.7894C23.4406 51.8717 23.6945 52.0459 23.8752 52.2857C24.0558 52.5254 24.1533 52.8175 24.1527 53.1177V57.3059C24.1552 57.4861 24.228 57.6582 24.3557 57.7855C24.4833 57.9127 24.6556 57.9851 24.8358 57.987H30.2969C30.4767 57.9845 30.6485 57.912 30.7757 57.7849C30.9028 57.6577 30.9754 57.486 30.9779 57.3061V53.1191C30.9781 52.8191 31.0758 52.5273 31.2563 52.2877C31.4368 52.0481 31.6904 51.8737 31.9787 51.7909C33.1342 51.4579 34.2484 50.9957 35.3004 50.4133C35.5629 50.2674 35.8657 50.2111 36.1631 50.2527C36.4605 50.2944 36.7361 50.4318 36.9484 50.6442L39.911 53.6066C40.0395 53.7328 40.2125 53.8035 40.3926 53.8035C40.5727 53.8035 40.7456 53.7328 40.8742 53.6066H40.8748ZM40.7917 36.4356C40.792 39.0512 40.0166 41.6082 38.5636 43.7831C37.1107 45.958 35.0454 47.6532 32.629 48.6544C30.2126 49.6556 27.5536 49.9177 24.9882 49.4076C22.4228 48.8976 20.0663 47.6382 18.2166 45.7889C16.3669 43.9395 15.1072 41.5832 14.5967 39.0179C14.0862 36.4526 14.3479 33.7936 15.3487 31.377C16.3494 28.9604 18.0443 26.8949 20.219 25.4415C22.3936 23.9882 24.9504 23.2124 27.566 23.2122C31.0721 23.2161 34.4336 24.6104 36.9129 27.0894C39.3923 29.5684 40.7873 32.9295 40.7917 36.4356Z" fill="#00ABEA"/>
</svg>
