<svg width="104" height="104" viewBox="0 0 104 104" fill="none" xmlns="http://www.w3.org/2000/svg">
<path fill-rule="evenodd" clip-rule="evenodd" d="M97.9875 87.7038H85.8977V35.2691L91.9435 30.6329L97.9875 35.2691V87.7038ZM100.21 33.4909L92.7849 27.7949C92.5433 27.6095 92.2474 27.5091 91.9429 27.5091C91.6385 27.5091 91.3425 27.6095 91.101 27.7949L83.6763 33.4909C83.508 33.6196 83.3716 33.7854 83.2778 33.9754C83.1839 34.1654 83.1351 34.3745 83.1352 34.5864V89.0848C83.1352 89.4511 83.2807 89.8025 83.5398 90.0615C83.7988 90.3205 84.1501 90.466 84.5164 90.466H99.3688C99.7351 90.466 100.086 90.3205 100.345 90.0615C100.604 89.8025 100.75 89.4511 100.75 89.0848V34.5864C100.75 34.3745 100.701 34.1655 100.607 33.9755C100.514 33.7855 100.377 33.6197 100.209 33.4909H100.21ZM10.1847 43.2612C10.3923 43.5629 10.7112 43.7698 11.0713 43.8364C11.4314 43.9031 11.8032 43.8239 12.105 43.6165L40.0227 24.3948L66.7993 32.485C66.9824 32.5403 67.175 32.5571 67.3649 32.5343C67.5548 32.5116 67.738 32.4498 67.9029 32.3528L89.7666 19.4087L89.1621 21.7633C89.0713 22.1185 89.1253 22.4953 89.3123 22.8107C89.4992 23.1261 89.8038 23.3543 90.1591 23.4452C90.5143 23.536 90.8911 23.482 91.2065 23.295C91.5219 23.1081 91.7501 22.8034 91.8409 22.4482L93.2675 16.8647C93.358 16.5123 93.3058 16.1383 93.1221 15.8242C92.9385 15.51 92.6383 15.281 92.2868 15.1869L86.2885 13.5804C86.1126 13.5312 85.9286 13.5173 85.7472 13.5397C85.5659 13.562 85.3908 13.6202 85.2321 13.7107C85.0734 13.8012 84.9342 13.9223 84.8226 14.067C84.711 14.2116 84.6292 14.377 84.582 14.5535C84.5348 14.73 84.523 14.9142 84.5475 15.0952C84.5719 15.2763 84.632 15.4507 84.7243 15.6084C84.8166 15.7661 84.9393 15.9039 85.0853 16.0138C85.2312 16.1237 85.3975 16.2036 85.5745 16.2488L88.398 17.0067L67.0178 29.664L40.185 21.5581C39.9866 21.4979 39.7772 21.4831 39.5722 21.5147C39.3673 21.5464 39.1721 21.6237 39.001 21.7409L10.5367 41.3403C10.2354 41.5482 10.029 41.8673 9.96283 42.2274C9.89667 42.5875 9.97618 42.9591 10.1839 43.2606L10.1847 43.2612ZM18.1031 87.705H6.0125V61.8329L12.0581 57.1968L18.1017 61.8329V87.7038L18.1031 87.705ZM20.3253 60.0558L12.8995 54.3585C12.6579 54.1743 12.3625 54.0744 12.0586 54.0744C11.7548 54.0744 11.4594 54.1743 11.2178 54.3585L3.79092 60.0546C3.62268 60.1837 3.48639 60.3498 3.39259 60.54C3.2988 60.7302 3.25001 60.9394 3.25 61.1515V89.0854C3.25 89.2668 3.28573 89.4464 3.35514 89.614C3.42456 89.7816 3.5263 89.9338 3.65456 90.0621C3.78282 90.1904 3.93509 90.2921 4.10267 90.3615C4.27025 90.4309 4.44986 90.4667 4.63125 90.4667H19.4837C19.6651 90.4667 19.8448 90.4309 20.0123 90.3615C20.1799 90.2921 20.3322 90.1904 20.4604 90.0621C20.5887 89.9338 20.6904 89.7816 20.7599 89.614C20.8293 89.4464 20.865 89.2668 20.865 89.0854V61.1521C20.8649 60.94 20.8161 60.7308 20.7223 60.5406C20.6286 60.3504 20.4923 60.1843 20.3241 60.0552L20.3253 60.0558ZM44.731 87.7038H32.6422V42.8105L38.6858 38.1744L44.731 42.8105V87.7038ZM46.9536 41.0323C47.1214 41.1615 47.2574 41.3274 47.3511 41.5173C47.4448 41.7072 47.4937 41.916 47.4941 42.1278V89.0854C47.4936 89.4516 47.348 89.8027 47.089 90.0616C46.8301 90.3206 46.479 90.4662 46.1128 90.4667H31.2609C31.0795 90.4667 30.8999 90.4309 30.7324 90.3615C30.5648 90.2921 30.4125 90.1904 30.2842 90.0621C30.156 89.9338 30.0542 89.7816 29.9848 89.614C29.9154 89.4464 29.8797 89.2668 29.8797 89.0854V42.1278C29.8797 41.9159 29.9284 41.7069 30.0222 41.517C30.116 41.327 30.2522 41.1612 30.4204 41.0323L37.8454 35.3363C38.0866 35.151 38.3822 35.0506 38.6863 35.0506C38.9904 35.0506 39.286 35.151 39.5271 35.3363L46.9544 41.0323H46.9536ZM72.9725 87.7038H60.8835V48.9053L66.9268 44.2691L72.9725 48.9053V87.7038ZM75.1946 47.1271C75.3625 47.2565 75.4986 47.4226 75.5924 47.6128C75.6861 47.8029 75.7351 48.012 75.7356 48.224V89.0854C75.7351 89.4516 75.5894 89.8026 75.3305 90.0616C75.0715 90.3205 74.7205 90.4662 74.3543 90.4667H59.5018C59.3204 90.4667 59.1408 90.4309 58.9732 90.3615C58.8056 90.2921 58.6534 90.1904 58.5251 90.0621C58.3969 89.9338 58.2951 89.7816 58.2257 89.614C58.1563 89.4464 58.1206 89.2668 58.1206 89.0854V48.2244C58.1206 48.0123 58.1694 47.8031 58.2632 47.6129C58.3569 47.4227 58.4932 47.2566 58.6615 47.1275L66.0863 41.4313C66.3279 41.2469 66.6234 41.1471 66.9273 41.1471C67.2313 41.1471 67.5268 41.2469 67.7684 41.4313L75.1946 47.1271Z" fill="#231F20"/>
<path fill-rule="evenodd" clip-rule="evenodd" d="M6.0127 61.8329V87.7037H18.1019V61.8329L12.0583 57.1968L6.0127 61.8329Z" fill="#00ABEA"/>
<path fill-rule="evenodd" clip-rule="evenodd" d="M60.8828 48.9052V87.7037H72.9718V48.9052L66.9262 44.269L60.8828 48.9052Z" fill="#00ABEA"/>
</svg>
