<svg width="104" height="104" viewBox="0 0 104 104" fill="none" xmlns="http://www.w3.org/2000/svg">
<path fill-rule="evenodd" clip-rule="evenodd" d="M22.1613 97.9875H11.6941V79.1996L16.9284 75.1851L22.1613 79.1996V97.9875ZM24.3839 77.4219L17.769 72.347C17.5274 72.1626 17.232 72.0628 16.9281 72.0628C16.6243 72.0628 16.3288 72.1626 16.0873 72.347L9.47191 77.4213C9.30395 77.5507 9.16785 77.7168 9.07405 77.9069C8.98025 78.0971 8.93124 78.3061 8.93078 78.5182V99.3687C8.93078 99.7351 9.0763 100.086 9.33534 100.345C9.59437 100.604 9.9457 100.75 10.312 100.75H23.5438C23.9101 100.75 24.2615 100.604 24.5205 100.345C24.7795 100.086 24.925 99.7351 24.925 99.3687V78.5188C24.925 78.3067 24.8762 78.0975 24.7824 77.9073C24.6886 77.7171 24.5521 77.551 24.3839 77.4219ZM45.8863 97.9875H35.4173V67.0312L40.6516 63.0167L45.8863 67.0312V97.9875ZM48.1085 65.2563L41.4927 60.1819C41.2516 59.9966 40.956 59.8961 40.6519 59.8961C40.3478 59.8961 40.0522 59.9966 39.8111 60.1819L33.1957 65.2561C33.0272 65.3847 32.8908 65.5504 32.7969 65.7404C32.703 65.9304 32.6543 66.1395 32.6546 66.3514V99.3687C32.6546 99.7351 32.8001 100.086 33.0591 100.345C33.3182 100.604 33.6695 100.75 34.0358 100.75H47.2676C47.449 100.75 47.6286 100.714 47.7962 100.645C47.9637 100.575 48.116 100.474 48.2443 100.345C48.3725 100.217 48.4743 100.065 48.5437 99.8973C48.6131 99.7297 48.6488 99.5501 48.6488 99.3687V66.351C48.6491 66.1391 48.6003 65.93 48.5065 65.7401C48.4127 65.5501 48.2763 65.3843 48.1079 65.2557L48.1085 65.2563ZM69.6093 97.9875H59.1406V53.0408L64.375 49.0262L69.6093 53.0408V97.9875ZM71.8315 51.263L65.2157 46.1888C64.9742 46.0044 64.6787 45.9045 64.3749 45.9045C64.071 45.9045 63.7756 46.0044 63.534 46.1888L56.9187 51.263C56.7503 51.3921 56.6139 51.5581 56.5201 51.7483C56.4262 51.9385 56.3775 52.1478 56.3775 52.3599V99.3687C56.3775 99.7351 56.5231 100.086 56.7821 100.345C57.0411 100.604 57.3925 100.75 57.7588 100.75H70.9903C71.3567 100.75 71.708 100.604 71.967 100.345C72.2261 100.086 72.3716 99.7351 72.3716 99.3687V52.3597C72.3711 52.1477 72.3222 51.9387 72.2284 51.7485C72.1346 51.5584 71.9986 51.3923 71.8307 51.2628L71.8315 51.263ZM93.3308 97.9875H82.8622V41.4001L88.0957 37.3855L93.33 41.4001V97.9875H93.3308ZM95.553 39.6224L88.937 34.5475C88.6956 34.3631 88.4002 34.2632 88.0963 34.2632C87.7925 34.2632 87.4971 34.3631 87.2556 34.5475L80.641 39.6218C80.4727 39.7508 80.3364 39.9169 80.2425 40.1071C80.1487 40.2973 80.0999 40.5065 80.0999 40.7186V99.3687C80.0999 99.7351 80.2454 100.086 80.5044 100.345C80.7635 100.604 81.1148 100.75 81.4811 100.75H94.7129C94.8943 100.75 95.074 100.715 95.2417 100.645C95.4093 100.576 95.5617 100.474 95.69 100.346C95.8183 100.217 95.92 100.065 95.9893 99.8975C96.0587 99.7299 96.0943 99.5502 96.0942 99.3687V40.7194C96.0941 40.5074 96.0453 40.2982 95.9515 40.108C95.8577 39.9178 95.7214 39.7517 95.5532 39.6226L95.553 39.6224ZM48.5473 20.9056C48.0089 20.9056 47.4827 20.746 47.0351 20.4469C46.5875 20.1478 46.2386 19.7227 46.0326 19.2254C45.8266 18.728 45.7727 18.1807 45.8777 17.6527C45.9827 17.1247 46.2419 16.6397 46.6226 16.2591C47.0033 15.8784 47.4883 15.6192 48.0163 15.5142C48.5442 15.4091 49.0915 15.463 49.5889 15.6691C50.0862 15.8751 50.5113 16.2239 50.8104 16.6715C51.1095 17.1192 51.2691 17.6454 51.2691 18.1837C51.2684 18.9054 50.9814 19.5973 50.4711 20.1076C49.9608 20.6178 49.2689 20.9049 48.5473 20.9056ZM54.0316 18.1837C54.0316 17.099 53.71 16.0387 53.1074 15.1368C52.5047 14.2349 51.6482 13.5319 50.646 13.1168C49.6439 12.7017 48.5412 12.5931 47.4773 12.8047C46.4135 13.0164 45.4362 13.5387 44.6692 14.3057C43.9022 15.0727 43.3799 16.0499 43.1683 17.1138C42.9567 18.1777 43.0653 19.2804 43.4804 20.2825C43.8955 21.2847 44.5984 22.1412 45.5003 22.7438C46.4022 23.3465 47.4626 23.6681 48.5473 23.6681C50.0012 23.666 51.3949 23.0875 52.4229 22.0594C53.451 21.0313 54.0295 19.6376 54.0316 18.1837ZM29.0428 46.2038C29.3015 46.4632 29.4468 46.8145 29.4468 47.1808C29.4468 47.5472 29.3015 47.8985 29.0428 48.1579L23.0037 54.1972C22.7446 54.4563 22.3932 54.602 22.0267 54.602C21.6602 54.602 21.3088 54.4565 21.0496 54.1974C20.7905 53.9383 20.6449 53.5869 20.6448 53.2204C20.6448 52.8539 20.7903 52.5025 21.0494 52.2433L27.0891 46.2038C27.3485 45.9451 27.6999 45.7998 28.0662 45.7998C28.4325 45.7998 28.7838 45.9451 29.0432 46.2038H29.0428ZM10.79 53.4434C10.5309 53.7025 10.3853 54.054 10.3854 54.4205C10.3854 54.7869 10.531 55.1384 10.7902 55.3975C11.0493 55.6566 11.4008 55.8021 11.7673 55.8021C12.1337 55.802 12.4852 55.6564 12.7442 55.3973L24.3957 43.7448C24.524 43.6165 24.6258 43.4642 24.6952 43.2966C24.7647 43.1289 24.8004 42.9493 24.8004 42.7678C24.8004 42.5864 24.7647 42.4067 24.6953 42.2391C24.6259 42.0714 24.5241 41.9191 24.3958 41.7908C24.2675 41.6625 24.1152 41.5607 23.9476 41.4913C23.78 41.4218 23.6003 41.3861 23.4188 41.3861C23.2374 41.3861 23.0577 41.4218 22.8901 41.4912C22.7225 41.5607 22.5701 41.6624 22.4418 41.7907L10.79 53.4434ZM12.9673 45.7756C13.3336 45.7753 13.6849 45.6298 13.9441 45.371L19.9832 39.3297C20.2424 39.0706 20.3881 38.7192 20.3882 38.3528C20.3883 37.9863 20.2429 37.6348 19.9838 37.3756C19.7248 37.1164 19.3734 36.9707 19.0069 36.9706C18.6405 36.9705 18.289 37.1159 18.0298 37.375L11.9898 43.4151C11.7969 43.6086 11.6656 43.855 11.6125 44.123C11.5594 44.3911 11.5869 44.6688 11.6914 44.9213C11.796 45.1738 11.9729 45.3896 12.2 45.5417C12.427 45.6937 12.694 45.7751 12.9673 45.7756ZM48.0864 48.8901V48.9178C48.0911 49.0067 48.0719 49.0953 48.031 49.1744C47.99 49.2535 47.9287 49.3202 47.8534 49.3677L39.3831 55.3952C39.3029 55.4519 39.2092 55.4864 39.1114 55.4951C39.0136 55.5037 38.9152 55.4863 38.8263 55.4446C38.7374 55.4029 38.6612 55.3383 38.6054 55.2575C38.5496 55.1767 38.5162 55.0826 38.5086 54.9847L37.6699 43.7269C41.4141 42.1837 44.9285 40.1333 48.1144 37.6332L48.087 48.891L48.0864 48.8901ZM33.4181 42.3901C50.1759 36.633 59.0639 24.7398 60.5353 6.08074C41.82 7.12155 29.8395 16.0062 23.9602 33.2054L33.4181 42.3908V42.3901ZM11.1887 28.1328C11.0908 28.1252 10.9967 28.0918 10.9159 28.036C10.8352 27.9802 10.7706 27.904 10.7289 27.8151C10.6871 27.7262 10.6697 27.6279 10.6783 27.5301C10.687 27.4323 10.7213 27.3385 10.778 27.2583L16.8057 18.788C16.8539 18.7133 16.9207 18.6525 16.9996 18.6116C17.0786 18.5707 17.1668 18.5512 17.2557 18.555L28.5866 18.5274C26.1335 21.7306 24.1208 25.248 22.6023 28.9859L11.1887 28.1328ZM63.3981 4.70964C63.4087 4.51816 63.3794 4.32656 63.3119 4.14703C63.2445 3.96751 63.1404 3.80397 63.0064 3.66681C62.8723 3.52966 62.7112 3.42188 62.5333 3.35033C62.3554 3.27878 62.1645 3.24503 61.9728 3.25121C48.7396 3.68143 38.3679 7.87535 30.9528 15.7603L17.2481 15.7917C16.7199 15.7905 16.1992 15.9167 15.7301 16.1597C15.261 16.4026 14.8575 16.7551 14.5537 17.1872L8.52656 25.6575C8.18591 26.1368 7.97876 26.6979 7.92631 27.2836C7.87386 27.8692 7.97801 28.4583 8.22807 28.9904C8.47814 29.5226 8.86515 29.9787 9.34947 30.3121C9.83379 30.6455 10.398 30.8442 10.9844 30.8878L21.5694 31.68C21.3955 32.1675 21.2263 32.6622 21.0616 33.1642C20.9813 33.4099 20.9717 33.6732 21.0338 33.9241C21.0959 34.175 21.2273 34.4034 21.413 34.5832L32.0988 44.9589C32.3564 45.2099 32.702 45.3501 33.0616 45.3495C33.2071 45.3488 33.3515 45.3255 33.4898 45.2804C33.9932 45.1167 34.4865 44.9448 34.9761 44.7693L35.7538 55.1897C35.7937 55.7773 35.991 56.3433 36.3251 56.8284C36.6591 57.3135 37.1175 57.6998 37.6523 57.9467C38.0955 58.1558 38.5793 58.265 39.0695 58.2666C39.7572 58.2648 40.4272 58.0481 40.9857 57.6469L49.456 51.6193C49.8878 51.3154 50.2399 50.9118 50.4825 50.4428C50.725 49.9737 50.8507 49.4531 50.8491 48.9251L50.883 35.2101C58.472 27.8923 62.6657 17.6964 63.3981 4.70964Z" fill="#231F20"/>
<path fill-rule="evenodd" clip-rule="evenodd" d="M11.6943 79.1996V97.9869H22.1624V79.1996L16.9287 75.1851L11.6943 79.1996Z" fill="#00ABEA"/>
<path fill-rule="evenodd" clip-rule="evenodd" d="M59.1406 53.0407V97.9868H69.6093V53.0407L64.3749 49.0261L59.1406 53.0407Z" fill="#00ABEA"/>
<path fill-rule="evenodd" clip-rule="evenodd" d="M33.4179 42.3907C50.1757 36.6335 59.0636 24.7404 60.5351 6.0813C41.8197 7.1215 29.8392 16.0062 23.96 33.2054L33.4179 42.3907ZM48.5458 23.6685C47.4607 23.6688 46.3999 23.3472 45.4975 22.7445C44.5952 22.1419 43.8918 21.2851 43.4764 20.2827C43.0611 19.2802 42.9523 18.1771 43.1639 17.1128C43.3756 16.0485 43.8981 15.0709 44.6653 14.3036C45.4326 13.5363 46.4102 13.0138 47.4745 12.8022C48.5388 12.5906 49.6419 12.6993 50.6444 13.1147C51.6468 13.5301 52.5036 14.2335 53.1062 15.1358C53.7089 16.0382 54.0305 17.099 54.0302 18.1841C54.0285 19.6381 53.4501 21.0321 52.4219 22.0602C51.3938 23.0884 49.9998 23.6668 48.5458 23.6685Z" fill="#00ABEA"/>
</svg>
