<svg width="104" height="104" viewBox="0 0 104 104" fill="none" xmlns="http://www.w3.org/2000/svg">
<path fill-rule="evenodd" clip-rule="evenodd" d="M90.3153 95.9265C90.3147 96.3603 90.1421 96.7761 89.8353 97.0828C89.5286 97.3895 89.1127 97.5621 88.6789 97.5626H83.3641C82.9306 97.5617 82.5152 97.3889 82.2088 97.0822C81.9024 96.7756 81.7301 96.36 81.7296 95.9265V94.2921H90.3149V95.9265H90.3153ZM91.6965 91.529H80.3479C80.1665 91.529 79.9869 91.5647 79.8193 91.6341C79.6518 91.7036 79.4995 91.8053 79.3712 91.9336C79.243 92.0618 79.1412 92.2141 79.0718 92.3817C79.0024 92.5493 78.9667 92.7289 78.9667 92.9103V95.9263C78.968 97.0923 79.4316 98.2103 80.256 99.035C81.0803 99.8596 82.1981 100.324 83.3641 100.326H88.6791C89.8455 100.324 90.9637 99.8603 91.7885 99.0356C92.6133 98.2109 93.0772 97.0926 93.0786 95.9263V92.9103C93.0786 92.5439 92.9331 92.1926 92.674 91.9336C92.415 91.6745 92.0637 91.529 91.6973 91.529H91.6965ZM90.2204 75.9566V74.5987C90.22 74.3297 90.2995 74.0667 90.4487 73.8428C90.5979 73.6189 90.8101 73.4444 91.0586 73.3412C91.307 73.238 91.5805 73.2108 91.8443 73.2631C92.1082 73.3154 92.3507 73.4448 92.541 73.6349C92.7314 73.825 92.861 74.0673 92.9136 74.3311C92.9662 74.5949 92.9393 74.8684 92.8365 75.117C92.7336 75.3655 92.5593 75.578 92.3356 75.7274C92.1119 75.8769 91.8489 75.9567 91.5799 75.9566H90.2204ZM95.5929 78.1987C96.9304 76.5211 97.9865 75.1947 97.9865 71.3331C97.9865 68.16 96.726 65.1169 94.4823 62.8732C92.2386 60.6295 89.1955 59.369 86.0224 59.369C82.8494 59.369 79.8063 60.6295 77.5626 62.8732C75.3189 65.1169 74.0584 68.16 74.0584 71.3331C74.0584 75.539 75.2213 76.8337 76.6915 78.4719C78.3671 80.3352 80.25 82.431 80.5027 88.3324H83.184V78.7206H81.823C81.0078 78.7203 80.2109 78.4783 79.5332 78.0251C78.8555 77.572 78.3274 76.928 78.0157 76.1747C77.7039 75.4215 77.6226 74.5927 77.7819 73.7931C77.9412 72.9936 78.334 72.2593 78.9106 71.683C79.4872 71.1067 80.2218 70.7143 81.0214 70.5555C81.821 70.3967 82.6498 70.4785 83.4029 70.7907C84.156 71.1029 84.7996 71.6314 85.2524 72.3094C85.7051 72.9873 85.9467 73.7843 85.9465 74.5996V76.07H87.4581V74.5996C87.4576 73.7839 87.6991 72.9865 88.1518 72.308C88.6046 71.6296 89.2485 71.1007 90.0019 70.7883C90.7553 70.4758 91.5845 70.3938 92.3845 70.5526C93.1845 70.7114 93.9195 71.104 94.4964 71.6805C95.0733 72.2571 95.4663 72.9918 95.6256 73.7918C95.7849 74.5917 95.7034 75.4209 95.3913 76.1745C95.0793 76.9281 94.5508 77.5723 93.8727 78.0255C93.1945 78.4787 92.3972 78.7206 91.5816 78.7206H90.2218V88.3324H92.0213C92.2563 82.3878 94.0231 80.1713 95.5943 78.1995L95.5929 78.1987ZM85.9444 78.8323H87.4561V88.3316H85.9444V78.8329V78.8323ZM83.1819 75.9566H81.8228C81.554 75.9565 81.2913 75.8767 81.0679 75.7272C80.8445 75.5778 80.6704 75.3655 80.5677 75.1171C80.465 74.8687 80.4382 74.5955 80.4908 74.3319C80.5434 74.0683 80.6729 73.8262 80.8631 73.6363C81.0533 73.4463 81.2955 73.317 81.5592 73.2648C81.8228 73.2125 82.096 73.2396 82.3443 73.3426C82.5926 73.4456 82.8047 73.62 82.9538 73.8436C83.103 74.0672 83.1825 74.33 83.1823 74.5987V75.9566H83.1819ZM78.7109 27.2284L83.1413 23.8297L87.5747 27.2284V56.6876C87.0593 56.6321 86.5414 56.6045 86.023 56.6047C83.4565 56.6026 80.9346 57.2758 78.7105 58.5567V27.2284H78.7109ZM90.3378 57.2502V26.5485C90.3376 26.3367 90.2887 26.1277 90.1949 25.9377C90.101 25.7478 89.9648 25.582 89.7967 25.4531L83.9824 20.9945C83.7412 20.8093 83.4456 20.709 83.1415 20.709C82.8374 20.709 82.5418 20.8093 82.3006 20.9945L76.4875 25.4516C76.3191 25.5803 76.1827 25.746 76.0888 25.936C75.995 26.1261 75.9463 26.3352 75.9466 26.5471V60.6053C74.4781 61.9795 73.3075 63.6408 72.5074 65.486C71.7073 67.3312 71.2946 69.3211 71.295 71.3323C71.295 76.5981 73.0695 78.5737 74.6367 80.3165C75.6078 81.3961 76.5432 82.4422 77.1351 84.3922H6.0125V5.05605C6.0125 4.68972 5.86698 4.3384 5.60794 4.07936C5.34891 3.82033 4.99758 3.6748 4.63125 3.6748C4.26492 3.6748 3.91359 3.82033 3.65456 4.07936C3.39552 4.3384 3.25 4.68972 3.25 5.05605V85.7737C3.25 86.14 3.39552 86.4913 3.65456 86.7504C3.91359 87.0094 4.26492 87.1549 4.63125 87.1549H77.6547C77.7274 87.9089 77.7688 88.7555 77.7688 89.7129C77.7688 90.0792 77.9144 90.4305 78.1734 90.6896C78.4324 90.9486 78.7838 91.0941 79.1501 91.0941H93.3745C93.7409 91.0941 94.0922 90.9486 94.3512 90.6896C94.6103 90.4305 94.7558 90.0792 94.7558 89.7129C94.7558 83.6831 96.2124 81.8556 97.7537 79.9194C99.2266 78.071 100.75 76.1616 100.75 71.3319C100.746 68.1803 99.7327 65.1128 97.8589 62.5787C95.9851 60.0446 93.3491 58.1771 90.337 57.2498L90.3378 57.2502ZM19.7188 23.3343C19.6752 23.1565 19.6674 22.9719 19.6959 22.7911C19.7243 22.6103 19.7884 22.437 19.8844 22.2812C19.9803 22.1253 20.1063 21.9902 20.255 21.8835C20.4037 21.7768 20.5721 21.7007 20.7505 21.6596C20.9288 21.6185 21.1135 21.6133 21.2939 21.6443C21.4743 21.6752 21.6467 21.7417 21.8012 21.8398C21.9556 21.938 22.089 22.0659 22.1936 22.216C22.2983 22.3662 22.372 22.5356 22.4106 22.7145C22.7878 24.3527 24.6409 24.5619 25.673 24.4256C26.5415 24.3131 27.0091 23.8731 27.1558 23.5002C27.2147 23.3295 27.2252 23.1459 27.1862 22.9696C27.1471 22.7933 27.06 22.6313 26.9346 22.5014C26.4396 21.9073 25.9695 21.8145 24.9531 21.6625C24.303 21.5852 23.6629 21.439 23.0437 21.2264C23.0281 21.2205 23.0141 21.2146 23.0002 21.2088C21.242 20.4978 20.2075 19.1028 20.2312 17.4804C20.257 15.8351 21.3641 14.3639 23.0535 13.7382C23.2115 13.6791 23.3675 13.6298 23.5253 13.5863V12.7317C23.5253 12.3654 23.6709 12.0141 23.9299 11.7551C24.1889 11.496 24.5402 11.3505 24.9066 11.3505C25.2729 11.3505 25.6242 11.496 25.8833 11.7551C26.1423 12.0141 26.2878 12.3654 26.2878 12.7317V13.5528C27.8509 13.973 29.1653 15.1514 29.8285 16.906C29.9583 17.2486 29.9467 17.6287 29.7962 17.9627C29.6458 18.2968 29.3688 18.5574 29.0262 18.6872C28.6836 18.817 28.3034 18.8054 27.9694 18.6549C27.6353 18.5044 27.3748 18.2274 27.245 17.8848C26.6882 16.4164 25.4211 15.8066 24.014 16.3277C23.3173 16.5862 22.9984 17.1131 22.9935 17.5218C22.986 18.1198 23.6212 18.4765 24.0159 18.639C24.4537 18.7811 24.9046 18.879 25.362 18.9311C26.4773 19.0969 27.8665 19.3061 29.0548 20.733C29.4988 21.2422 29.7958 21.8627 29.9139 22.5279C30.032 23.193 29.9667 23.8778 29.7251 24.5087C29.1905 25.8725 27.9153 26.8376 26.287 27.1258V27.8639C26.287 28.2303 26.1415 28.5816 25.8825 28.8406C25.6234 29.0997 25.2721 29.2452 24.9058 29.2452C24.5394 29.2452 24.1881 29.0997 23.9291 28.8406C23.67 28.5816 23.5245 28.2303 23.5245 27.8639V27.0449C21.6021 26.5778 20.1526 25.2331 19.7173 23.3343H19.7188ZM16.8628 12.3298C18.7064 10.4872 21.1319 9.34078 23.7259 9.08593C26.32 8.83107 28.9221 9.4835 31.0891 10.9321C33.2561 12.3806 34.8537 14.5357 35.6099 17.0302C36.3661 19.5246 36.2341 22.2041 35.2362 24.612C34.2384 27.02 32.4366 29.0076 30.1377 30.236C27.8388 31.4645 25.1851 31.8579 22.6286 31.3492C20.0722 30.8404 17.7713 29.4611 16.1178 27.4462C14.4643 25.4312 13.5606 22.9053 13.5606 20.2988C13.5563 18.8181 13.846 17.3512 14.4127 15.9833C14.9795 14.6154 15.8122 13.3735 16.8624 12.3298H16.8628ZM24.8306 34.3243C21.5858 34.3219 18.4421 33.1945 15.9353 31.1343C13.4285 29.074 11.7135 26.2082 11.0827 23.0253C10.4518 19.8424 10.944 16.5392 12.4755 13.6785C14.007 10.8178 16.4829 8.57658 19.4815 7.3367C22.4802 6.09682 25.8159 5.93497 28.9205 6.87874C32.025 7.8225 34.7063 9.81349 36.5076 12.5125C38.3088 15.2115 39.1185 18.4515 38.7987 21.6806C38.4789 24.9096 37.0495 27.9279 34.7539 30.2212C33.4515 31.525 31.9045 32.5586 30.2016 33.2627C28.4986 33.9668 26.6734 34.3276 24.8306 34.3243ZM10.8134 47.6146C10.909 47.8836 11.0855 48.1164 11.3187 48.281C11.5519 48.4457 11.8303 48.5342 12.1158 48.5344C12.2739 48.5344 12.4308 48.5069 12.5795 48.4531C39.0309 39.037 62.0736 26.0777 81.1336 9.91257L80.6914 13.5052C80.6466 13.869 80.748 14.2357 80.9734 14.5247C81.1987 14.8137 81.5296 15.0015 81.8933 15.0468C81.9497 15.0529 82.0064 15.0563 82.0631 15.0567C82.4002 15.0564 82.7256 14.9328 82.978 14.7092C83.2303 14.4856 83.3921 14.1775 83.433 13.8428L84.3152 6.69609C84.3382 6.50808 84.3224 6.31734 84.2688 6.1357C84.2151 5.95405 84.1246 5.78537 84.0031 5.64011C83.8815 5.49486 83.7314 5.37612 83.562 5.29127C83.3927 5.20642 83.2077 5.15727 83.0186 5.14685L75.7987 4.75015C75.4328 4.73003 75.0739 4.85608 74.801 5.10058C74.528 5.34509 74.3634 5.68801 74.3432 6.05391C74.3231 6.41981 74.4492 6.77871 74.6937 7.05167C74.9382 7.32463 75.2811 7.48928 75.647 7.5094L79.4501 7.71882C60.6251 23.7074 37.8373 36.5303 11.6521 45.8501C11.3071 45.9732 11.0252 46.2282 10.8679 46.5589C10.7107 46.8897 10.6911 47.2694 10.8134 47.6146ZM25.0376 76.7001H16.1759V60.4436L20.607 57.0449L25.0376 60.4436V76.7001ZM21.4476 54.206L27.2598 58.6646C27.4281 58.7937 27.5645 58.9597 27.6584 59.1499C27.7522 59.3401 27.8011 59.5494 27.8011 59.7615V78.0811C27.8011 78.4474 27.6556 78.7988 27.3965 79.0578C27.1375 79.3168 26.7862 79.4624 26.4199 79.4624H14.7942C14.4279 79.4624 14.0765 79.3168 13.8175 79.0578C13.5585 78.7988 13.413 78.4474 13.413 78.0811V59.7615C13.4129 59.5494 13.4617 59.3402 13.5554 59.15C13.6492 58.9598 13.7855 58.7937 13.9537 58.6646L19.7663 54.206C20.0078 54.0216 20.3033 53.9217 20.6071 53.9217C20.911 53.9217 21.2064 54.0216 21.448 54.206H21.4476ZM45.8839 76.7001H37.0201V49.7521L41.4507 46.3532L45.8839 49.7519V76.7001ZM42.2918 43.5172L48.1059 47.9758C48.2743 48.1044 48.4108 48.2701 48.5047 48.4601C48.5986 48.6502 48.6473 48.8593 48.647 49.0712V78.0823C48.647 78.2637 48.6113 78.4433 48.5419 78.6109C48.4725 78.7785 48.3707 78.9308 48.2425 79.059C48.1142 79.1873 47.9619 79.289 47.7943 79.3584C47.6268 79.4279 47.4472 79.4636 47.2658 79.4636H35.6383C35.2719 79.4636 34.9206 79.3181 34.6616 79.059C34.4026 78.8 34.257 78.4487 34.257 78.0823V49.0712C34.2567 48.8593 34.3053 48.6502 34.3992 48.4601C34.493 48.2701 34.6295 48.1043 34.798 47.9758L40.6104 43.5172C40.8516 43.332 41.1472 43.2317 41.4513 43.2317C41.7554 43.2317 42.051 43.332 42.2922 43.5172H42.2918ZM66.7276 76.7001H57.8638V37.4563L62.297 34.0576L66.7276 37.4563V76.7001ZM63.1377 31.2204L68.95 35.6788C69.1182 35.8079 69.2546 35.9739 69.3484 36.1641C69.4423 36.3543 69.4912 36.5636 69.4913 36.7756V78.0809C69.4913 78.4472 69.3458 78.7986 69.0867 79.0576C68.8277 79.3166 68.4764 79.4622 68.11 79.4622H56.4822C56.1158 79.4622 55.7645 79.3166 55.5055 79.0576C55.2464 78.7986 55.1009 78.4472 55.1009 78.0809V36.7771C55.1013 36.5649 55.1504 36.3556 55.2445 36.1654C55.3386 35.9752 55.4752 35.8092 55.6437 35.6802L61.4559 31.2204C61.6972 31.0355 61.9928 30.9354 62.2968 30.9354C62.6008 30.9354 62.8964 31.0355 63.1377 31.2204Z" fill="#231F20"/>
<path fill-rule="evenodd" clip-rule="evenodd" d="M57.8633 37.458V76.7007H66.727V37.458L62.2965 34.0593L57.8633 37.458Z" fill="#00ABEA"/>
<path fill-rule="evenodd" clip-rule="evenodd" d="M25.0375 76.7007V60.4436L20.607 57.0449L16.1758 60.4436V76.7007H25.0375Z" fill="#00ABEA"/>
<path fill-rule="evenodd" clip-rule="evenodd" d="M97.9867 71.3325C97.9867 68.1594 96.7262 65.1163 94.4825 62.8726C92.2388 60.6289 89.1957 59.3684 86.0227 59.3684C82.8496 59.3684 79.8065 60.6289 77.5628 62.8726C75.3191 65.1163 74.0586 68.1594 74.0586 71.3325C74.0586 75.5384 75.2215 76.8331 76.6917 78.4713C78.3673 80.3346 80.2502 82.4304 80.5029 88.3318H83.1842V78.7199H81.8232C81.008 78.7196 80.2112 78.4776 79.5335 78.0245C78.8558 77.5713 78.3277 76.9274 78.0159 76.1741C77.7042 75.4208 77.6228 74.592 77.7821 73.7925C77.9414 72.993 78.3342 72.2586 78.9108 71.6823C79.4875 71.1061 80.222 70.7137 81.0217 70.5549C81.8213 70.3961 82.65 70.4779 83.4031 70.7901C84.1562 71.1023 84.7998 71.6308 85.2526 72.3087C85.7053 72.9867 85.9469 73.7837 85.9467 74.5989V76.0693H87.4583V74.5989C87.4579 73.7833 87.6993 72.9858 88.1521 72.3074C88.6049 71.629 89.2487 71.1001 90.0021 70.7876C90.7555 70.4752 91.5847 70.3932 92.3847 70.552C93.1848 70.7108 93.9197 71.1033 94.4966 71.6799C95.0735 72.2565 95.4665 72.9912 95.6258 73.7912C95.7851 74.5911 95.7036 75.4203 95.3916 76.1739C95.0796 76.9275 94.551 77.5716 93.8729 78.0248C93.1947 78.478 92.3974 78.7199 91.5818 78.7199H90.2221V88.3318H92.0215C92.2566 82.3871 94.0233 80.1706 95.5945 78.1989C96.9305 76.5213 97.9867 75.1949 97.9867 71.3325Z" fill="#00ABEA"/>
<path fill-rule="evenodd" clip-rule="evenodd" d="M32.7996 28.2673C34.6473 26.4233 35.7983 23.9957 36.0564 21.3981C36.3146 18.8006 35.6639 16.1939 34.2154 14.0223C32.7668 11.8508 30.61 10.2488 28.1126 9.48939C25.6151 8.72999 22.9316 8.8602 20.5194 9.85782C18.1072 10.8554 16.1157 12.6587 14.8842 14.9603C13.6527 17.2619 13.2574 19.9194 13.7659 22.4797C14.2743 25.0401 15.655 27.3449 17.6725 29.0013C19.6899 30.6577 22.2194 31.5631 24.8298 31.5634C27.8181 31.5638 30.6845 30.3783 32.7996 28.2673ZM29.0556 20.7332C29.4996 21.2423 29.7966 21.8628 29.9147 22.528C30.0328 23.1932 29.9675 23.8779 29.7259 24.5088C29.1913 25.8726 27.9161 26.8377 26.2878 27.1259V27.8641C26.2878 28.2304 26.1423 28.5817 25.8833 28.8408C25.6242 29.0998 25.2729 29.2453 24.9066 29.2453C24.5402 29.2453 24.1889 29.0998 23.9299 28.8408C23.6708 28.5817 23.5253 28.2304 23.5253 27.8641V27.0451C21.6029 26.5779 20.1534 25.2332 19.7181 23.3344C19.6746 23.1566 19.6668 22.972 19.6953 22.7912C19.7237 22.6104 19.7877 22.4371 19.8837 22.2813C19.9797 22.1255 20.1057 21.9903 20.2544 21.8836C20.4031 21.7769 20.5715 21.7008 20.7498 21.6597C20.9282 21.6187 21.1129 21.6135 21.2933 21.6444C21.4737 21.6753 21.6461 21.7418 21.8005 21.84C21.955 21.9381 22.0884 22.066 22.193 22.2161C22.2977 22.3663 22.3714 22.5357 22.41 22.7146C22.7872 24.3528 24.6403 24.5621 25.6724 24.4258C26.5409 24.3132 27.0085 23.8733 27.1552 23.5003C27.2141 23.3297 27.2246 23.146 27.1855 22.9697C27.1465 22.7934 27.0594 22.6314 26.934 22.5016C26.4389 21.9074 25.9689 21.8146 24.9525 21.6627C24.3024 21.5853 23.6623 21.4391 23.0431 21.2265L22.9996 21.2089C21.2414 20.4979 20.2069 19.1029 20.2306 17.4805C20.2564 15.8352 21.3635 14.364 23.0529 13.7383C23.2109 13.6792 23.3669 13.6299 23.5247 13.5864V12.7319C23.5247 12.3655 23.6702 12.0142 23.9293 11.7552C24.1883 11.4961 24.5396 11.3506 24.906 11.3506C25.2723 11.3506 25.6236 11.4961 25.8827 11.7552C26.1417 12.0142 26.2872 12.3655 26.2872 12.7319V13.5529C27.8503 13.9732 29.1647 15.1515 29.8279 16.9061C29.9577 17.2487 29.9461 17.6288 29.7956 17.9628C29.6451 18.2969 29.3681 18.5575 29.0255 18.6873C28.6829 18.8171 28.3028 18.8055 27.9688 18.655C27.6347 18.5045 27.3741 18.2275 27.2443 17.8849C26.6876 16.4165 25.4205 15.8068 24.0134 16.3278C23.3167 16.5864 22.9978 17.1133 22.9929 17.522C22.9854 18.12 23.6206 18.4766 24.0153 18.6391C24.4531 18.7813 24.904 18.8791 25.3614 18.9312C26.4781 19.097 27.8683 19.3062 29.0556 20.7332Z" fill="#00ABEA"/>
</svg>
