<svg width="104" height="104" viewBox="0 0 104 104" fill="none" xmlns="http://www.w3.org/2000/svg">
<path fill-rule="evenodd" clip-rule="evenodd" d="M25.9479 6.1533C26.0956 6.06174 26.2661 6.01323 26.4399 6.01323C26.6138 6.01323 26.7842 6.06174 26.932 6.1533L32.0148 11.4429C31.9377 11.4571 31.8595 11.4643 31.7812 11.4644H29.3602C29.1788 11.4644 28.9991 11.5001 28.8316 11.5695C28.664 11.639 28.5117 11.7407 28.3835 11.869C28.2552 11.9972 28.1535 12.1495 28.084 12.3171C28.0146 12.4847 27.9789 12.6643 27.9789 12.8457V21.1114H24.9016V12.8461C24.9016 12.4797 24.756 12.1284 24.497 11.8694C24.238 11.6103 23.8866 11.4648 23.5203 11.4648H21.0984C21.0201 11.4647 20.9419 11.4575 20.8649 11.4433L25.9479 6.15371V6.1533ZM21.0984 14.2277H22.1384V22.4935C22.1384 22.8598 22.284 23.2111 22.543 23.4702C22.802 23.7292 23.1534 23.8747 23.5197 23.8747H29.3604C29.7267 23.8747 30.078 23.7292 30.337 23.4702C30.5961 23.2111 30.7416 22.8598 30.7416 22.4935V14.2277H31.7816C32.9372 14.2277 33.9347 13.7561 34.5211 12.933C34.8619 12.4671 35.0238 11.8943 34.9775 11.319C34.9311 10.7436 34.6796 10.2041 34.2687 9.79878L28.9251 4.23885C28.253 3.60384 27.3635 3.25005 26.4389 3.25005C25.5143 3.25005 24.6248 3.60384 23.9528 4.23885L18.6116 9.79878C18.2007 10.2041 17.9492 10.7436 17.9027 11.3188C17.8562 11.8941 18.0179 12.4669 18.3583 12.933C18.9447 13.7559 19.9427 14.2277 21.0984 14.2277ZM76.9511 6.1533C77.0994 6.06166 77.2702 6.01313 77.4445 6.01313C77.6188 6.01313 77.7896 6.06166 77.9379 6.1533L83.0183 11.4429C82.9421 11.457 82.8648 11.4642 82.7873 11.4644H80.3634C79.9972 11.4647 79.646 11.6103 79.387 11.8693C79.128 12.1282 78.9824 12.4794 78.9822 12.8457V21.1114H75.9048V12.8461C75.9048 12.6647 75.8691 12.4851 75.7997 12.3175C75.7303 12.1499 75.6285 11.9976 75.5003 11.8694C75.372 11.7411 75.2197 11.6394 75.0522 11.57C74.8846 11.5005 74.705 11.4648 74.5236 11.4648H72.1019C72.0237 11.4657 71.9455 11.4585 71.8687 11.4433L76.9511 6.15371V6.1533ZM72.1019 14.2277H73.1419V22.4935C73.1423 22.8597 73.288 23.2108 73.547 23.4697C73.8059 23.7286 74.157 23.8743 74.5232 23.8747H80.3632C80.7295 23.8747 81.0809 23.7292 81.3399 23.4702C81.5989 23.2111 81.7445 22.8598 81.7445 22.4935V14.2277H82.7863C83.939 14.2277 84.9376 13.7561 85.5236 12.933C85.8645 12.4672 86.0266 11.8944 85.9804 11.3191C85.9342 10.7438 85.6828 10.2042 85.2719 9.79878L79.9297 4.23885C79.2581 3.60383 78.3688 3.25 77.4445 3.25C76.5202 3.25 75.6309 3.60383 74.9593 4.23885L69.6171 9.79878C69.2061 10.204 68.9543 10.7433 68.9075 11.3186C68.8608 11.8939 69.0223 12.4668 69.3626 12.933C69.9494 13.7559 70.9469 14.2277 72.1023 14.2277H72.1019ZM50.9184 22.5073C51.0666 22.4157 51.2374 22.3672 51.4117 22.3672C51.586 22.3672 51.7568 22.4157 51.905 22.5073L56.9854 27.7967C56.9093 27.8121 56.8318 27.8194 56.7542 27.8184H54.3307C53.9645 27.8187 53.6133 27.9644 53.3544 28.2233C53.0954 28.4823 52.9498 28.8334 52.9495 29.1997V37.4654H49.8721V29.2001C49.8721 28.8337 49.7266 28.4824 49.4676 28.2234C49.2085 27.9643 48.8572 27.8188 48.4909 27.8188H46.0688C45.9906 27.8197 45.9125 27.8124 45.8358 27.7971L50.9182 22.5077L50.9184 22.5073ZM46.0688 30.5817H47.109V38.8475C47.1094 39.2137 47.255 39.5648 47.514 39.8238C47.7729 40.0827 48.124 40.2284 48.4903 40.2287H54.3305C54.5119 40.2287 54.6915 40.193 54.8591 40.1236C55.0267 40.0542 55.1789 39.9524 55.3072 39.8242C55.4355 39.6959 55.5372 39.5436 55.6066 39.3761C55.676 39.2085 55.7118 39.0289 55.7118 38.8475V30.5817H56.7536C57.9084 30.5817 58.9049 30.1101 59.4909 29.2868C59.8322 28.8212 59.9945 28.2482 59.9481 27.6728C59.9017 27.0973 59.6498 26.5578 59.2384 26.1528L53.8962 20.5928C53.2248 19.9577 52.3357 19.6037 51.4114 19.6037C50.4871 19.6037 49.598 19.9577 48.9266 20.5928L43.5844 26.1526C43.1732 26.5578 42.9215 27.0973 42.8751 27.6727C42.8287 28.2481 42.9908 28.821 43.3317 29.2868C43.9183 30.1099 44.9146 30.5817 46.0694 30.5817H46.0688ZM87.746 57.8559C87.7452 58.4049 87.5283 58.9314 87.1421 59.3215C86.7559 59.7116 86.2315 59.9339 85.6826 59.9402V49.1027C85.6826 48.7363 85.5371 48.385 85.2781 48.126C85.0191 47.8669 84.6677 47.7214 84.3014 47.7214C83.9351 47.7214 83.5837 47.8669 83.3247 48.126C83.0657 48.385 82.9201 48.7363 82.9201 49.1027V75.8697C82.9199 76.3444 82.7312 76.7996 82.3955 77.1353C82.0598 77.471 81.6045 77.6597 81.1298 77.66C80.7162 77.6533 80.317 77.5063 79.9979 77.2431C79.6788 76.9798 79.4586 76.6159 79.3734 76.2111C79.3819 76.0988 79.3872 75.9863 79.3872 75.8697V66.6941C79.3872 66.3278 79.2417 65.9764 78.9826 65.7174C78.7236 65.4584 78.3723 65.3128 78.0059 65.3128C77.6396 65.3128 77.2883 65.4584 77.0293 65.7174C76.7702 65.9764 76.6247 66.3278 76.6247 66.6941V75.8697C76.6247 76.3444 76.4361 76.7998 76.1004 77.1355C75.7647 77.4712 75.3093 77.6598 74.8346 77.6598C74.3598 77.6598 73.9044 77.4712 73.5687 77.1355C73.233 76.7998 73.0444 76.3444 73.0444 75.8697V49.1027C73.0444 48.7363 72.8989 48.385 72.6399 48.126C72.3808 47.8669 72.0295 47.7214 71.6632 47.7214C71.2968 47.7214 70.9455 47.8669 70.6865 48.126C70.4274 48.385 70.2819 48.7363 70.2819 49.1027V59.9422H69.9311C69.3779 59.9418 68.8474 59.7219 68.4561 59.3307C68.0648 58.9396 67.8447 58.4092 67.844 57.8559V45.5086C67.845 44.404 68.2484 43.3376 68.9788 42.509C69.7092 41.6804 70.7165 41.1463 71.8123 41.0067C71.7904 41.5734 71.9301 42.1346 72.2151 42.625L75.1935 47.7844C75.4569 48.2409 75.8358 48.62 76.2923 48.8836C76.7487 49.1472 77.2664 49.2859 77.7935 49.2859C78.3205 49.2859 78.8383 49.1472 79.2947 48.8836C79.7511 48.62 80.1301 48.2409 80.3935 47.7844L83.3721 42.625C83.6576 42.1348 83.7978 41.5736 83.7763 41.0067C84.8722 41.1462 85.8797 41.6802 86.6102 42.5088C87.3408 43.3374 87.7445 44.4039 87.7456 45.5086V57.8559H87.746ZM80.9799 41.0047C80.9714 40.9909 80.9639 40.9809 80.9559 40.9691H74.6318C74.6239 40.9809 74.6162 40.9909 74.6083 41.0047C74.5835 41.0395 74.5701 41.0811 74.5697 41.1238C74.5694 41.1666 74.5822 41.2083 74.6064 41.2435L77.5865 46.4029C77.6075 46.4395 77.6377 46.4698 77.6742 46.4909C77.7107 46.5121 77.7521 46.5232 77.7942 46.5232C77.8363 46.5232 77.8777 46.5121 77.9142 46.4909C77.9507 46.4698 77.9809 46.4395 78.0019 46.4029L80.9793 41.2435C81.0045 41.2088 81.0181 41.167 81.0181 41.1241C81.0181 41.0812 81.0045 41.0394 80.9793 41.0047H80.9799ZM73.6776 31.4342C73.6774 30.6202 73.9187 29.8245 74.3708 29.1476C74.823 28.4707 75.4657 27.9431 76.2177 27.6314C76.9697 27.3198 77.7972 27.2382 78.5956 27.3969C79.394 27.5556 80.1274 27.9474 80.7031 28.5229C81.2788 29.0985 81.6709 29.8317 81.8298 30.6301C81.9887 31.4284 81.9073 32.256 81.5959 33.0081C81.2845 33.7602 80.7571 34.403 80.0804 34.8554C79.4036 35.3077 78.6079 35.5492 77.7939 35.5493C76.7027 35.5484 75.6564 35.1146 74.8846 34.3431C74.1129 33.5716 73.6788 32.5255 73.6776 31.4342ZM83.2057 38.206H78.9939C80.6877 37.9057 82.2075 36.9817 83.2537 35.6163C84.2999 34.2508 84.7966 32.5429 84.6458 30.8294C84.4951 29.1158 83.7079 27.5209 82.4393 26.3591C81.1708 25.1972 79.513 24.5528 77.7929 24.5528C76.0727 24.5528 74.4149 25.1972 73.1464 26.3591C71.8779 27.5209 71.0906 29.1158 70.9399 30.8294C70.7892 32.5429 71.2858 34.2508 72.332 35.6163C73.3782 36.9817 74.898 37.9057 76.5918 38.206H72.3808C70.4448 38.2082 68.5888 38.9783 67.2199 40.3474C65.8511 41.7164 65.0812 43.5726 65.0793 45.5086V57.8559C65.0807 59.1415 65.5919 60.374 66.5009 61.2831C67.4099 62.1923 68.6423 62.7037 69.9279 62.7053H70.2813V75.8697C70.2806 76.7624 70.5425 77.6357 71.0345 78.3807C71.5264 79.1257 72.2267 79.7095 73.0481 80.0594C73.8694 80.4093 74.7756 80.5098 75.6537 80.3485C76.5317 80.1871 77.3429 79.771 77.9862 79.1519C78.629 79.7709 79.4397 80.1869 80.3174 80.3482C81.195 80.5095 82.1007 80.4088 82.9215 80.0588C83.7423 79.7088 84.4419 79.1249 84.9331 78.38C85.4243 77.635 85.6853 76.762 85.6837 75.8697V62.7047C86.9653 62.6971 88.1918 62.1829 89.0958 61.2745C89.9998 60.366 90.5079 59.1369 90.5093 57.8553V45.508C90.5067 43.5719 89.7364 41.7159 88.3673 40.347C86.9983 38.978 85.1422 38.2079 83.2061 38.2054L83.2057 38.206ZM61.9511 78.1828C61.9499 78.7315 61.7328 79.2576 61.3469 79.6476C60.961 80.0375 60.4372 80.2601 59.8886 80.2671V69.4296C59.8886 69.0632 59.7431 68.7119 59.4841 68.4529C59.225 68.1939 58.8737 68.0483 58.5074 68.0483C58.141 68.0483 57.7897 68.1939 57.5307 68.4529C57.2716 68.7119 57.1261 69.0632 57.1261 69.4296V96.1968C57.1257 96.6715 56.937 97.1267 56.6012 97.4623C56.2655 97.798 55.8103 97.9867 55.3356 97.9869C54.9221 97.9797 54.5232 97.8326 54.2042 97.5694C53.8851 97.3063 53.6647 96.9428 53.5789 96.5382C53.5877 96.4257 53.5928 96.3113 53.5928 96.1968V87.021C53.5928 86.6547 53.4472 86.3034 53.1882 86.0443C52.9292 85.7853 52.5778 85.6398 52.2115 85.6398C51.8452 85.6398 51.4939 85.7853 51.2348 86.0443C50.9758 86.3034 50.8303 86.6547 50.8303 87.021V96.1968C50.8252 96.6683 50.6344 97.1188 50.2992 97.4504C49.964 97.782 49.5115 97.9681 49.04 97.9681C48.5685 97.9681 48.116 97.782 47.7808 97.4504C47.4456 97.1188 47.2548 96.6683 47.2498 96.1968V69.4296C47.2498 69.0632 47.1043 68.7119 46.8452 68.4529C46.5862 68.1939 46.2349 68.0483 45.8685 68.0483C45.5022 68.0483 45.1509 68.1939 44.8918 68.4529C44.6328 68.7119 44.4873 69.0632 44.4873 69.4296V80.2691H44.1357C43.5824 80.2685 43.0521 80.0485 42.6608 79.6574C42.2695 79.2663 42.0493 78.7361 42.0484 78.1828V65.8328C42.0499 64.7285 42.4537 63.6625 43.1842 62.8343C43.9147 62.006 44.9219 61.4723 46.0174 61.3328C45.9957 61.8996 46.1354 62.4608 46.4202 62.9513L49.4005 68.1107C49.6639 68.5672 50.0428 68.9463 50.4992 69.2099C50.9556 69.4735 51.4734 69.6122 52.0005 69.6122C52.5275 69.6122 53.0453 69.4735 53.5017 69.2099C53.9581 68.9463 54.3371 68.5672 54.6005 68.1107L57.5789 62.9513C57.8635 62.4608 58.0031 61.8995 57.9813 61.3328C59.0768 61.4722 60.0841 62.0059 60.8146 62.8342C61.5451 63.6624 61.9489 64.7285 61.9503 65.8328V78.1828H61.9511ZM55.1859 61.3296C55.1787 61.3178 55.1707 61.3066 55.1619 61.2961H48.8378C48.8292 61.3067 48.8213 61.3179 48.8142 61.3296C48.7891 61.3647 48.7756 61.4068 48.7756 61.45C48.7756 61.4932 48.7891 61.5353 48.8142 61.5705L51.7925 66.7298C51.8133 66.7664 51.8434 66.7968 51.8798 66.818C51.9162 66.8391 51.9576 66.8502 51.9996 66.8502C52.0417 66.8502 52.0831 66.8391 52.1195 66.818C52.1559 66.7968 52.186 66.7664 52.2068 66.7298L55.1851 61.5705C55.2099 61.5352 55.2233 61.4932 55.2233 61.45C55.2233 61.4069 55.2099 61.3648 55.1851 61.3296H55.1859ZM47.8853 51.7614C47.8853 50.9475 48.1267 50.1519 48.5789 49.4752C49.031 48.7985 49.6737 48.2711 50.4256 47.9597C51.1775 47.6482 52.0049 47.5667 52.8031 47.7255C53.6013 47.8843 54.3345 48.2763 54.91 48.8518C55.4855 49.4273 55.8774 50.1605 56.0361 50.9587C56.1949 51.7569 56.1134 52.5843 55.8019 53.3362C55.4904 54.0881 54.9629 54.7308 54.2862 55.1829C53.6095 55.635 52.8139 55.8763 52.0001 55.8763C50.9092 55.8748 49.8635 55.4408 49.0922 54.6694C48.3209 53.898 47.887 52.8522 47.8858 51.7614H47.8853ZM57.4119 58.5329H53.2017C54.8951 58.2324 56.4145 57.3084 57.4603 55.9431C58.5061 54.5778 59.0025 52.8702 58.8517 51.157C58.7008 49.4438 57.9136 47.8493 56.6453 46.6878C55.377 45.5262 53.7196 44.8819 51.9998 44.8819C50.2799 44.8819 48.6225 45.5262 47.3542 46.6878C46.0859 47.8493 45.2987 49.4438 45.1478 51.157C44.997 52.8702 45.4934 54.5778 46.5392 55.9431C47.585 57.3084 49.1044 58.2324 50.7978 58.5329H46.5886C44.6526 58.5344 42.7963 59.3039 41.4269 60.6724C40.0576 62.041 39.2871 63.8969 39.2844 65.8328V78.1828C39.2858 79.4685 39.7972 80.7011 40.7063 81.6103C41.6154 82.5194 42.848 83.0308 44.1336 83.0322H44.4854V96.1968C44.4845 97.0896 44.7464 97.963 45.2385 98.7081C45.7305 99.4531 46.4309 100.037 47.2524 100.387C48.0739 100.736 48.9802 100.837 49.8583 100.675C50.7364 100.513 51.5474 100.097 52.1904 99.4771C52.8327 100.097 53.6434 100.514 54.5213 100.676C55.3991 100.838 56.3052 100.737 57.1264 100.387C57.9476 100.038 58.6475 99.4535 59.1388 98.7082C59.6301 97.9629 59.8909 97.0894 59.8888 96.1968V83.0302C61.17 83.0225 62.3962 82.5086 63.3001 81.6006C64.204 80.6926 64.7123 79.4641 64.7143 78.1828V65.8328C64.7118 63.897 63.9416 62.0412 62.5726 60.6725C61.2036 59.3038 59.3476 58.5341 57.4117 58.5321L57.4119 58.5329ZM36.1563 57.8559C36.1561 58.4046 35.9397 58.9311 35.554 59.3212C35.1682 59.7114 34.6442 59.9338 34.0956 59.9402V49.1027C34.0956 48.7363 33.9501 48.385 33.691 48.126C33.432 47.8669 33.0807 47.7214 32.7143 47.7214C32.348 47.7214 31.9967 47.8669 31.7377 48.126C31.4786 48.385 31.3331 48.7363 31.3331 49.1027V75.8697C31.3328 76.3444 31.144 76.7996 30.8083 77.1353C30.4726 77.471 30.0173 77.6597 29.5426 77.66C29.1287 77.6533 28.7293 77.5063 28.4099 77.2431C28.0904 76.9799 27.8697 76.616 27.7839 76.2111C27.7947 76.0988 27.7979 75.9863 27.7979 75.8697V66.6941C27.7979 66.3278 27.6524 65.9764 27.3934 65.7174C27.1343 65.4584 26.783 65.3128 26.4167 65.3128C26.0503 65.3128 25.699 65.4584 25.44 65.7174C25.1809 65.9764 25.0354 66.3278 25.0354 66.6941V75.8697C25.0354 76.3442 24.8469 76.7993 24.5113 77.1349C24.1758 77.4705 23.7206 77.659 23.2461 77.659C22.7715 77.659 22.3164 77.4705 21.9808 77.1349C21.6453 76.7993 21.4568 76.3442 21.4568 75.8697V49.1027C21.4568 48.7363 21.3112 48.385 21.0522 48.126C20.7932 47.8669 20.4418 47.7214 20.0755 47.7214C19.7092 47.7214 19.3579 47.8669 19.0988 48.126C18.8398 48.385 18.6943 48.7363 18.6943 49.1027V59.9422H18.3408C17.7877 59.9416 17.2573 59.7216 16.8662 59.3305C16.475 58.9394 16.255 58.4091 16.2543 57.8559V45.5086C16.2554 44.4039 16.659 43.3375 17.3895 42.5089C18.12 41.6803 19.1274 41.1463 20.2232 41.0067C20.2024 41.5733 20.3419 42.1342 20.6258 42.625L23.6064 47.7844C23.8698 48.2409 24.2488 48.62 24.7052 48.8836C25.1616 49.1472 25.6794 49.2859 26.2064 49.2859C26.7335 49.2859 27.2512 49.1472 27.7077 48.8836C28.1641 48.62 28.543 48.2409 28.8064 47.7844L31.7851 42.625C32.0701 42.1347 32.2096 41.5734 32.1872 41.0067C33.2831 41.1462 34.2906 41.6802 35.0211 42.5088C35.7517 43.3374 36.1553 44.4039 36.1563 45.5086V57.8559ZM29.3922 41.0047C29.3843 40.9909 29.3772 40.9809 29.3691 40.9691H23.0438C23.0359 40.9809 23.0285 40.9909 23.0202 41.0047C22.9952 41.0395 22.9817 41.0812 22.9817 41.1241C22.9817 41.167 22.9952 41.2088 23.0202 41.2435L25.9982 46.4029C26.0191 46.4395 26.0493 46.4699 26.0857 46.491C26.1222 46.5121 26.1635 46.5233 26.2056 46.5233C26.2477 46.5233 26.2891 46.5121 26.3255 46.491C26.3619 46.4699 26.3921 46.4395 26.413 46.4029L29.391 41.2435C29.4163 41.2088 29.4298 41.167 29.4298 41.1241C29.4298 41.0812 29.4163 41.0394 29.391 41.0047H29.3922ZM22.0915 31.4342C22.0913 30.6201 22.3326 29.8241 22.7848 29.1471C23.237 28.47 23.8798 27.9423 24.632 27.6306C25.3842 27.3189 26.2119 27.2373 27.0104 27.3961C27.809 27.5549 28.5425 27.947 29.1182 28.5227C29.6939 29.0984 30.0859 29.8319 30.2447 30.6305C30.4035 31.429 30.3219 32.2567 30.0103 33.0089C29.6986 33.761 29.1709 34.4039 28.4938 34.8561C27.8168 35.3083 27.0208 35.5495 26.2066 35.5493C25.1156 35.5483 24.0695 35.1144 23.2979 34.3429C22.5264 33.5714 22.0925 32.5253 22.0915 31.4342ZM31.6207 38.206H27.4079C29.1017 37.9057 30.6214 36.9817 31.6676 35.6162C32.7138 34.2508 33.2105 32.5429 33.0597 30.8293C32.9089 29.1158 32.1217 27.5209 30.8532 26.3591C29.5847 25.1973 27.9269 24.5528 26.2067 24.5528C24.4866 24.5528 22.8288 25.1973 21.5603 26.3591C20.2918 27.5209 19.5045 29.1158 19.3538 30.8293C19.203 32.5429 19.6997 34.2508 20.7459 35.6162C21.792 36.9817 23.3118 37.9057 25.0056 38.206H20.7938C18.8577 38.2084 17.0017 38.9785 15.6327 40.3475C14.2637 41.7165 13.4936 43.5725 13.4912 45.5086V57.8559C13.4928 59.1415 14.0042 60.374 14.9133 61.283C15.8224 62.192 17.055 62.7033 18.3406 62.7047H18.6943V75.869C18.6936 76.7618 18.9555 77.635 19.4475 78.38C19.9394 79.1249 20.6397 79.7087 21.461 80.0586C22.2823 80.4085 23.1884 80.509 24.0664 80.3477C24.9445 80.1864 25.7557 79.7703 26.399 79.1513C27.0417 79.7706 27.8525 80.187 28.7303 80.3484C29.6081 80.5099 30.514 80.4093 31.335 80.0593C32.156 79.7092 32.8558 79.1252 33.3471 78.38C33.8383 77.6349 34.0993 76.7616 34.0974 75.869V62.7047C35.3786 62.6965 36.6046 62.1821 37.5081 61.2737C38.4117 60.3653 38.9195 59.1365 38.9208 57.8553V45.5086C38.919 43.5726 38.1492 41.7165 36.7804 40.3475C35.4116 38.9784 33.5556 38.2083 31.6197 38.206H31.6207Z" fill="#231F20"/>
<path fill-rule="evenodd" clip-rule="evenodd" d="M32.0152 11.4428L26.9324 6.15325C26.7846 6.06169 26.6142 6.01318 26.4403 6.01318C26.2664 6.01318 26.096 6.06169 25.9482 6.15325L20.8652 11.4428C20.9423 11.4571 21.0205 11.4643 21.0988 11.4644H23.5199C23.8862 11.4644 24.2375 11.6099 24.4966 11.8689C24.7556 12.128 24.9011 12.4793 24.9011 12.8456V21.1114H27.9777V12.846C27.9777 12.4797 28.1232 12.1284 28.3822 11.8693C28.6413 11.6103 28.9926 11.4648 29.3589 11.4648H31.78C31.8589 11.4646 31.9376 11.4573 32.0152 11.4428Z" fill="#00ABEA"/>
<path fill-rule="evenodd" clip-rule="evenodd" d="M74.5238 11.4645C74.8901 11.4645 75.2414 11.61 75.5005 11.869C75.7595 12.1281 75.905 12.4794 75.905 12.8457V21.1115H78.9824V12.8457C78.9826 12.4795 79.1283 12.1283 79.3872 11.8693C79.6462 11.6103 79.9974 11.4647 80.3636 11.4645H82.7875C82.865 11.4643 82.9423 11.4571 83.0185 11.4429L77.9383 6.15335C77.7901 6.06172 77.6192 6.01318 77.4449 6.01318C77.2706 6.01318 77.0998 6.06172 76.9515 6.15335L71.8691 11.4429C71.9459 11.4581 72.0241 11.4654 72.1023 11.4645H74.5238Z" fill="#00ABEA"/>
<path fill-rule="evenodd" clip-rule="evenodd" d="M77.794 27.3191C76.9801 27.3191 76.1845 27.5604 75.5077 28.0125C74.831 28.4647 74.3035 29.1073 73.992 29.8593C73.6805 30.6112 73.599 31.4386 73.7578 32.2369C73.9165 33.0352 74.3084 33.7684 74.8839 34.344C75.4594 34.9195 76.1927 35.3114 76.9909 35.4702C77.7892 35.629 78.6166 35.5475 79.3686 35.2361C80.1205 34.9246 80.7632 34.3972 81.2154 33.7205C81.6676 33.0437 81.9089 32.2481 81.9089 31.4342C81.9077 30.3432 81.4738 29.2973 80.7024 28.5258C79.9309 27.7544 78.885 27.3204 77.794 27.3191Z" fill="#00ABEA"/>
<path fill-rule="evenodd" clip-rule="evenodd" d="M26.2059 35.5493C27.0198 35.5493 27.8154 35.308 28.4922 34.8558C29.1689 34.4036 29.6963 33.7609 30.0078 33.009C30.3193 32.257 30.4008 31.4296 30.242 30.6314C30.0832 29.8331 29.6913 29.0999 29.1158 28.5244C28.5402 27.9489 27.807 27.5569 27.0087 27.3982C26.2105 27.2394 25.3831 27.3209 24.6311 27.6323C23.8792 27.9438 23.2365 28.4712 22.7843 29.148C22.3322 29.8247 22.0908 30.6203 22.0908 31.4342C22.0923 32.5252 22.5263 33.571 23.2977 34.3424C24.0691 35.1138 25.115 35.5479 26.2059 35.5493Z" fill="#00ABEA"/>
<path fill-rule="evenodd" clip-rule="evenodd" d="M52.0007 47.6443C51.1866 47.6441 50.3908 47.8854 49.7138 48.3375C49.0368 48.7897 48.5091 49.4324 48.1974 50.1844C47.8857 50.9365 47.8041 51.7641 47.9627 52.5626C48.1214 53.361 48.5132 54.0945 49.0887 54.6703C49.6642 55.2461 50.3976 55.6383 51.196 55.7973C51.9944 55.9563 52.822 55.8749 53.5742 55.5636C54.3264 55.2522 54.9694 54.7248 55.4218 54.048C55.8742 53.3713 56.1158 52.5755 56.116 51.7614C56.1153 50.67 55.6816 49.6235 54.91 48.8516C54.1385 48.0797 53.0921 47.6455 52.0007 47.6443Z" fill="#00ABEA"/>
</svg>
