<svg width="104" height="104" viewBox="0 0 104 104" fill="none" xmlns="http://www.w3.org/2000/svg">
<path fill-rule="evenodd" clip-rule="evenodd" d="M96.7379 47.8486C96.7376 48.215 96.5918 48.5663 96.3326 48.8253C96.0734 49.0843 95.722 49.2298 95.3556 49.2299H29.4885C29.1222 49.2299 28.7708 49.0843 28.5118 48.8253C28.2528 48.5663 28.1072 48.215 28.1072 47.8486C28.1072 47.4823 28.2528 47.131 28.5118 46.8719C28.7708 46.6129 29.1222 46.4674 29.4885 46.4674H95.356C95.7222 46.468 96.0731 46.6137 96.332 46.8726C96.5909 47.1315 96.7366 47.4825 96.7373 47.8486H96.7379ZM97.9635 28.0929C97.8445 28.2586 97.5146 28.45 96.9721 28.45H93.7928C93.4266 28.4505 93.0755 28.5961 92.8166 28.8551C92.5577 29.114 92.412 29.465 92.4115 29.8312V41.1063H87.513V29.8316C87.513 29.4653 87.3674 29.114 87.1084 28.8549C86.8494 28.5959 86.498 28.4504 86.1317 28.4504H82.9534C82.4088 28.4504 82.08 28.2588 81.9607 28.0931C81.9607 28.0911 81.9607 28.0911 81.9587 28.089C81.9695 28.0772 81.9805 28.0634 81.9963 28.0484L89.0041 20.7562C89.2805 20.5502 89.6159 20.4387 89.9607 20.4383C90.3054 20.4379 90.6411 20.5487 90.9179 20.7542L97.9288 28.0486C97.9414 28.0613 97.9531 28.0749 97.9637 28.0892C97.9637 28.0913 97.9617 28.0913 97.9625 28.0933L97.9635 28.0929ZM99.9211 26.1329L92.9132 18.8385C92.1133 18.09 91.0586 17.6738 89.9631 17.6742C88.8675 17.6746 87.8131 18.0915 87.0137 18.8405L80.0034 26.1327C79.0167 27.1609 78.9021 28.5584 79.7113 29.6951C80.3987 30.6602 81.5801 31.2129 82.9538 31.2129H84.7505V42.4882C84.7508 42.8544 84.8964 43.2055 85.1554 43.4645C85.4143 43.7235 85.7655 43.8691 86.1317 43.8694H93.7936C94.1599 43.8694 94.5112 43.7239 94.7703 43.4648C95.0293 43.2058 95.1748 42.8545 95.1748 42.4882V31.2131H96.9721C98.3432 31.2131 99.5254 30.6604 100.212 29.6953C101.025 28.5578 100.909 27.1612 99.9206 26.1329H99.9211ZM25.1623 28.0474L32.1732 20.7552C32.3037 20.6415 32.4554 20.5548 32.6196 20.5003C32.7839 20.4457 32.9573 20.4243 33.1299 20.4373C33.4781 20.412 33.8222 20.5256 34.087 20.7532L41.0948 28.0476C41.1109 28.0634 41.1225 28.0772 41.1324 28.0882C41.1304 28.0902 41.1304 28.0902 41.1304 28.0923C41.0124 28.256 40.6823 28.4494 40.1375 28.4494H36.9606C36.7793 28.4494 36.5996 28.4851 36.4321 28.5545C36.2645 28.6239 36.1122 28.7257 35.9839 28.8539C35.8557 28.9822 35.7539 29.1345 35.6845 29.302C35.6151 29.4696 35.5794 29.6492 35.5794 29.8306V41.1057H30.6812V29.8316C30.6806 29.4655 30.5349 29.1146 30.276 28.8557C30.0171 28.5968 29.6661 28.451 29.3 28.4504H26.1199C25.5771 28.4504 25.2452 28.2588 25.1288 28.0931C25.127 28.0911 25.1268 28.0911 25.1268 28.089C25.1374 28.0745 25.1493 28.0609 25.1623 28.0484V28.0474ZM26.1199 31.2131H27.9183V42.4884C27.9183 42.6697 27.9541 42.8494 28.0235 43.0169C28.0929 43.1845 28.1946 43.3368 28.3229 43.465C28.4511 43.5933 28.6034 43.695 28.771 43.7645C28.9386 43.8339 29.1182 43.8696 29.2996 43.8696H36.9615C37.3277 43.8693 37.6788 43.7237 37.9378 43.4647C38.1968 43.2057 38.3424 42.8546 38.3427 42.4884V31.2131H40.1393C41.5125 31.2131 42.6924 30.6604 43.3814 29.6953C44.1911 28.5578 44.0761 27.1612 43.0893 26.1329L36.0783 18.8385C35.2783 18.0901 34.2237 17.6738 33.1283 17.6742C32.0328 17.6746 30.9785 18.0916 30.1791 18.8405L23.1713 26.1327C22.1827 27.1609 22.0677 28.5584 22.879 29.6951C23.5666 30.6602 24.7477 31.2129 26.1199 31.2129V31.2131ZM49.085 20.3256L59.6083 9.37411C60.0362 8.92987 60.7228 8.68531 61.5459 8.68531C62.3689 8.68531 63.0557 8.92906 63.4837 9.37411L74.0074 20.3256C74.3848 20.7182 74.3267 20.9888 74.1236 21.2748C73.7551 21.7938 72.9861 22.1037 72.071 22.1037H67.2994C66.9331 22.1037 66.5817 22.2493 66.3227 22.5083C66.0637 22.7673 65.9181 23.1187 65.9181 23.485V41.1071H57.1748V23.4846C57.1748 23.1183 57.0293 22.7669 56.7703 22.5079C56.5112 22.2489 56.1599 22.1033 55.7936 22.1033H51.021C50.1053 22.1033 49.337 21.7936 48.968 21.2744C48.7648 20.9882 48.7055 20.7178 49.085 20.3252V20.3256ZM51.021 24.8669H54.4119V42.4892C54.4122 42.8554 54.5579 43.2065 54.8168 43.4655C55.0758 43.7245 55.4269 43.8701 55.7932 43.8704H67.2998C67.666 43.8701 68.0172 43.7245 68.2761 43.4655C68.5351 43.2065 68.6807 42.8554 68.681 42.4892V24.866H72.0718C73.9058 24.866 75.4739 24.1417 76.374 22.8766C77.3896 21.4548 77.2405 19.7012 76.0011 18.4103L65.4751 7.45884C64.5223 6.46597 63.1266 5.92139 61.5459 5.92139C59.9651 5.92139 58.5697 6.46617 57.6162 7.45884L47.0911 18.4103C45.852 19.701 45.7038 21.4556 46.7182 22.8766C47.6186 24.1417 49.1869 24.866 51.021 24.866V24.8669ZM14.9569 73.4877C15.0479 73.6447 15.107 73.8181 15.1308 73.998C15.1547 74.1779 15.1428 74.3607 15.0958 74.536C15.0489 74.7112 14.9678 74.8755 14.8572 75.0194C14.7467 75.1633 14.6088 75.284 14.4515 75.3745C14.2425 75.4964 14.0047 75.5604 13.7627 75.56C13.5199 75.5603 13.2813 75.4967 13.0709 75.3755C12.8604 75.2542 12.6857 75.0796 12.5643 74.8693L10.7175 71.6703C10.6219 71.5131 10.5587 71.3383 10.5316 71.1564C10.5045 70.9744 10.5141 70.7888 10.5597 70.6105C10.6053 70.4323 10.686 70.2649 10.7972 70.1183C10.9083 69.9717 11.0477 69.8488 11.207 69.7568C11.3663 69.6648 11.5425 69.6055 11.725 69.5825C11.9075 69.5595 12.0929 69.5731 12.27 69.6227C12.4472 69.6723 12.6127 69.7568 12.7568 69.8712C12.9009 69.9856 13.0207 70.1277 13.1091 70.2891L14.9563 73.4883L14.9569 73.4877ZM93.7103 66.7281C93.6268 68.3584 92.3063 69.8404 89.9913 70.9023C89.9443 70.9235 89.8989 70.9479 89.8552 70.9752L61.0762 88.3292C61.0702 88.3333 61.0622 88.3371 61.0543 88.343C58.3568 90.0403 55.4355 90.3048 52.1237 89.1462C52.0947 89.1364 52.0646 89.1285 52.0329 89.1185L33.3846 83.9951C33.1776 83.9399 33.033 83.8885 32.9048 83.8432C31.9183 83.4979 31.4344 83.703 30.6392 84.2161L29.4708 84.9722L19.848 68.3011L32.5433 60.6317C34.5841 59.5283 38.7857 59.406 43.7964 60.304C48.8258 61.2039 53.7966 62.965 57.0966 65.0131C59.5268 66.5209 60.8879 68.1175 60.8341 69.3904C60.7829 70.5765 59.5374 71.8359 57.2321 73.0378C54.2055 72.7851 49.995 71.9049 44.1452 69.9787C43.9728 69.9219 43.791 69.8997 43.61 69.9132C43.4291 69.9267 43.2526 69.9758 43.0906 70.0575C42.9286 70.1392 42.7843 70.2521 42.6659 70.3896C42.5475 70.5271 42.4574 70.6866 42.4006 70.8589C42.3439 71.0313 42.3216 71.2131 42.3352 71.3941C42.3487 71.575 42.3977 71.7515 42.4794 71.9135C42.5612 72.0755 42.674 72.2198 42.8115 72.3382C42.949 72.4566 43.1085 72.5467 43.2809 72.6035C54.6211 76.3375 61.8721 76.8585 65.4345 74.1878L84.7237 63.6828C84.744 63.669 84.7681 63.6572 84.7899 63.6434C87.101 62.2085 89.635 62.0369 91.5692 63.1777C92.961 64.0005 93.7818 65.3604 93.7113 66.7281H93.7103ZM28.6563 90.5158C28.7397 90.2077 28.7615 89.8861 28.7205 89.5695C28.6795 89.2529 28.5765 88.9474 28.4174 88.6707L15.7424 66.7183C15.5828 66.4418 15.3699 66.1997 15.1162 66.0059C14.8624 65.8122 14.5728 65.6706 14.2641 65.5894C14.0549 65.533 13.8392 65.5044 13.6226 65.5044C13.2001 65.5048 12.7852 65.6165 12.4197 65.8282L7.22822 68.8239C6.6716 69.1493 6.26585 69.6811 6.09912 70.3039C5.93238 70.9267 6.01812 71.5901 6.33772 72.1501L19.0107 94.1C19.3354 94.6572 19.867 95.0636 20.4899 95.2307C21.1128 95.3978 21.7765 95.312 22.3365 94.9921L27.5249 91.9954C27.802 91.8357 28.0446 91.6226 28.2388 91.3685C28.433 91.1144 28.5749 90.8243 28.6563 90.515V90.5158ZM92.9742 60.7987C90.1473 59.1288 86.5591 59.3065 83.3664 61.2742L64.0234 71.8113C63.9572 71.8481 63.8937 71.8896 63.8335 71.9356C63.352 72.2949 62.8078 72.5613 62.2288 72.7211C63.0898 71.7166 63.545 70.6449 63.5946 69.506C63.6974 67.1063 61.9999 64.8049 58.554 62.6656C51.22 58.1105 36.866 55.1047 31.1919 58.221C31.1749 58.2292 31.1584 58.2384 31.1425 58.2486L18.4659 65.9091L18.1364 65.3367C17.4446 64.1459 16.3094 63.2774 14.979 62.9213C13.6487 62.5652 12.2314 62.7503 11.0372 63.4362L5.84676 66.4319C4.6558 67.1236 3.7871 68.2587 3.43057 69.589C3.07404 70.9194 3.25866 72.3367 3.94409 73.5313L16.6191 95.4816C16.9591 96.0732 17.4131 96.5914 17.9548 97.0064C18.4965 97.4213 19.1151 97.7246 19.7748 97.8988C20.2188 98.0175 20.6763 98.0779 21.1358 98.0784C22.0424 98.0779 22.9329 97.8383 23.7173 97.3837L28.9063 94.3878C30.0846 93.7049 30.9483 92.5873 31.312 91.2748C31.6757 89.9624 31.5105 88.5596 30.8519 87.3676L32.1391 86.5368C32.1488 86.5307 32.1604 86.5228 32.1742 86.5131C32.3008 86.5565 32.4604 86.6079 32.6517 86.6591L51.258 91.7707C52.7738 92.314 54.3699 92.5989 55.98 92.6135C58.2978 92.6105 60.566 91.942 62.5148 90.6873L91.2174 73.381C95.5984 71.3421 96.3897 68.4292 96.4706 66.8701C96.5931 64.472 95.2549 62.1472 92.9742 60.7995V60.7987Z" fill="#231F20"/>
<path fill-rule="evenodd" clip-rule="evenodd" d="M6.33909 72.15L19.011 94.0999C19.3357 94.6572 19.8674 95.0636 20.4903 95.2306C21.1132 95.3977 21.7768 95.312 22.3368 94.9921L27.5252 91.9953C28.0826 91.6708 28.4891 91.1392 28.6562 90.5163C28.8234 89.8935 28.7377 89.2298 28.4178 88.6698L15.7428 66.7183C15.5831 66.4418 15.3703 66.1997 15.1165 66.0059C14.8628 65.8121 14.5732 65.6705 14.2644 65.5893C14.0553 65.5329 13.8396 65.5044 13.6229 65.5044C13.2005 65.5047 12.7856 65.6164 12.42 65.8282L7.22857 68.8239C6.67193 69.1492 6.26622 69.6811 6.09966 70.304C5.93309 70.9268 6.01914 71.5903 6.33909 72.15ZM12.5653 74.8697L10.7185 71.6707C10.6229 71.5134 10.5597 71.3387 10.5326 71.1567C10.5055 70.9747 10.515 70.7892 10.5606 70.6109C10.6062 70.4327 10.687 70.2653 10.7981 70.1187C10.9093 69.9721 11.0486 69.8491 11.208 69.7571C11.3673 69.6651 11.5434 69.6058 11.726 69.5828C11.9085 69.5598 12.0938 69.5735 12.271 69.6231C12.4482 69.6727 12.6137 69.7571 12.7578 69.8716C12.9019 69.986 13.0216 70.1281 13.1101 70.2894L14.9573 73.4886C15.0483 73.6456 15.1073 73.819 15.1312 73.9989C15.155 74.1788 15.1431 74.3616 15.0962 74.5369C15.0492 74.7122 14.9681 74.8765 14.8576 75.0204C14.747 75.1643 14.6092 75.2849 14.4519 75.3755C14.2428 75.4973 14.0051 75.5613 13.7631 75.5609C13.5202 75.5611 13.2816 75.4972 13.0713 75.3757C12.861 75.2543 12.6865 75.0795 12.5653 74.8691V74.8697Z" fill="#00ABEA"/>
<path fill-rule="evenodd" clip-rule="evenodd" d="M32.1734 20.7551L25.1625 28.0472C25.1495 28.0597 25.1376 28.0733 25.127 28.0879L25.129 28.0919C25.2454 28.2577 25.5773 28.449 26.12 28.4492H29.2993C29.6655 28.4499 30.0164 28.5956 30.2753 28.8545C30.5342 29.1134 30.68 29.4643 30.6806 29.8305V41.1055H35.5785V29.8317C35.5785 29.6503 35.6143 29.4707 35.6837 29.3031C35.7531 29.1355 35.8548 28.9833 35.9831 28.855C36.1114 28.7267 36.2636 28.625 36.4312 28.5556C36.5988 28.4862 36.7784 28.4504 36.9598 28.4504H40.1379C40.6827 28.4504 41.0128 28.2571 41.1308 28.0934L41.1328 28.0893C41.1228 28.0775 41.1113 28.0637 41.0952 28.0487L34.0874 20.7542C33.8226 20.5267 33.4785 20.4131 33.1303 20.4384C32.9578 20.4252 32.7843 20.4464 32.6201 20.5007C32.4558 20.5551 32.3039 20.6415 32.1734 20.7551Z" fill="#00ABEA"/>
<path fill-rule="evenodd" clip-rule="evenodd" d="M89.0054 20.7552L81.9975 28.0474C81.9817 28.0632 81.9707 28.077 81.96 28.088C81.962 28.09 81.9626 28.09 81.962 28.092C82.0804 28.2578 82.4101 28.4491 82.9547 28.4493H86.1321C86.3135 28.4493 86.4931 28.4851 86.6607 28.5545C86.8283 28.6239 86.9806 28.7256 87.1088 28.8539C87.2371 28.9822 87.3388 29.1344 87.4083 29.302C87.4777 29.4696 87.5134 29.6492 87.5134 29.8306V41.1056H92.4114V29.8318C92.4118 29.4656 92.5575 29.1146 92.8164 28.8556C93.0754 28.5967 93.4264 28.451 93.7926 28.4506H96.9723C97.5149 28.4506 97.8458 28.2592 97.9638 28.0935C97.9638 28.0914 97.9656 28.0914 97.965 28.0894C97.9544 28.075 97.9427 28.0614 97.93 28.0488L90.9192 20.7531C90.6424 20.5477 90.3067 20.4369 89.9619 20.4373C89.6172 20.4376 89.2817 20.5491 89.0054 20.7552Z" fill="#00ABEA"/>
</svg>
