<svg width="104" height="104" viewBox="0 0 104 104" fill="none" xmlns="http://www.w3.org/2000/svg">
<path fill-rule="evenodd" clip-rule="evenodd" d="M6.53293 42.3132C6.33316 42.0971 6.18453 41.8388 6.09804 41.5576C6.01154 41.2763 5.9894 40.9792 6.03324 40.6882C6.49172 37.0894 8.24664 33.7812 10.9692 31.3835C13.6918 28.9858 17.1952 27.663 20.8231 27.663C24.451 27.663 27.9544 28.9858 30.6769 31.3835C33.3995 33.7812 35.1544 37.0894 35.6129 40.6882C35.6498 40.9787 35.6244 41.2738 35.5384 41.5537C35.4524 41.8337 35.3078 42.0922 35.1142 42.3119C34.9206 42.5317 34.6824 42.7077 34.4155 42.8283C34.1486 42.9489 33.8591 43.0113 33.5662 43.0113H8.08013C7.78637 43.0181 7.49483 42.9589 7.22703 42.838C6.95923 42.717 6.72203 42.5375 6.53293 42.3126V42.3132ZM37.1886 44.1391C37.6481 43.6294 37.9905 43.0254 38.1919 42.3694C38.3933 41.7134 38.4487 41.0213 38.3543 40.3416C37.8126 36.0744 35.7332 32.1512 32.5058 29.3076C29.2783 26.4639 25.1245 24.895 20.8231 24.895C16.5216 24.895 12.3678 26.4639 9.14038 29.3076C5.91296 32.1512 3.83351 36.0744 3.29186 40.3416C3.20616 41.0212 3.26598 41.7112 3.46737 42.3659C3.66876 43.0205 4.0071 43.6249 4.45994 44.1387C4.91277 44.6526 5.46974 45.0643 6.09386 45.3465C6.71799 45.6286 7.39499 45.7748 8.07993 45.7752H33.5666C34.2531 45.783 34.933 45.6405 35.5586 45.3579C36.1843 45.0753 36.7406 44.6593 37.1886 44.1391ZM20.8244 6.51258C22.1789 6.51262 23.5031 6.91433 24.6293 7.66691C25.7556 8.41948 26.6334 9.48913 27.1517 10.7406C27.67 11.992 27.8056 13.3691 27.5413 14.6976C27.2771 16.0261 26.6248 17.2464 25.6669 18.2042C24.7091 19.162 23.4888 19.8143 22.1602 20.0785C20.8317 20.3428 19.4547 20.2071 18.2032 19.6888C16.9518 19.1704 15.8822 18.2926 15.1296 17.1663C14.3771 16.04 13.9754 14.7159 13.9754 13.3614C13.9772 11.5455 14.6994 9.80444 15.9834 8.52043C17.2675 7.23642 19.0085 6.51431 20.8244 6.51258ZM20.8244 22.973C22.7255 22.9731 24.5839 22.4094 26.1646 21.3533C27.7453 20.2972 28.9774 18.796 29.7049 17.0397C30.4325 15.2833 30.6229 13.3507 30.252 11.4861C29.8812 9.62158 28.9657 7.90887 27.6215 6.5646C26.2772 5.22032 24.5646 4.30485 22.7 3.93397C20.8355 3.56308 18.9028 3.75343 17.1464 4.48095C15.3901 5.20847 13.8889 6.44048 12.8327 8.02118C11.7766 9.60188 11.2129 11.4603 11.2129 13.3614C11.2153 15.9098 12.2287 18.3532 14.0307 20.1552C15.8327 21.9573 18.276 22.9708 20.8244 22.9734V22.973ZM90.7567 21.2875L90.1977 25.8151C90.1756 25.9953 90.1891 26.178 90.2377 26.3529C90.2862 26.5278 90.3688 26.6914 90.4806 26.8344C90.5924 26.9774 90.7313 27.0969 90.8893 27.1862C91.0474 27.2754 91.2214 27.3327 91.4016 27.3546C91.4579 27.3625 91.5147 27.3664 91.5716 27.3664C91.9085 27.3653 92.2334 27.2415 92.4856 27.0181C92.7377 26.7947 92.8998 26.487 92.9415 26.1527L93.9368 18.0625C93.9598 17.8747 93.944 17.6843 93.8904 17.5029C93.8368 17.3215 93.7465 17.1531 93.6252 17.0081C93.5038 16.863 93.354 16.7444 93.1849 16.6597C93.0158 16.5749 92.8311 16.5257 92.6423 16.5153L84.4714 16.0672C84.1055 16.047 83.7466 16.1731 83.4736 16.4175C83.2006 16.662 83.0359 17.0049 83.0158 17.3708C82.9956 17.7367 83.1217 18.0957 83.3661 18.3686C83.6106 18.6416 83.9535 18.8063 84.3194 18.8264L89.0781 19.0868C67.6929 37.3344 41.7654 51.9547 11.9523 62.5651C11.7814 62.626 11.6241 62.72 11.4895 62.8417C11.3549 62.9634 11.2456 63.1104 11.1678 63.2744C11.09 63.4383 11.0452 63.6159 11.0361 63.7972C11.027 63.9784 11.0536 64.1597 11.1145 64.3306C11.1754 64.5015 11.2694 64.6588 11.3911 64.7934C11.5128 64.928 11.6598 65.0373 11.8237 65.1151C11.9877 65.1929 12.1653 65.2377 12.3466 65.2468C12.5278 65.2559 12.709 65.2293 12.88 65.1684C28.5314 59.5967 43.2378 52.8901 56.5925 45.2341C68.6937 38.3211 80.1304 30.3048 90.7567 21.2875ZM27.2208 97.4874H16.8275V78.8184L22.0243 74.8312L27.2208 78.8182V97.4874ZM29.4438 77.0402L22.8654 71.9954C22.6241 71.8102 22.3285 71.7098 22.0244 71.7098C21.7202 71.7098 21.4246 71.8102 21.1833 71.9954L14.6051 77.0402C14.4372 77.1696 14.301 77.3357 14.2072 77.5259C14.1134 77.716 14.0643 77.9251 14.0638 78.1371V98.8687C14.0638 99.235 14.2093 99.5863 14.4683 99.8453C14.7274 100.104 15.0787 100.25 15.445 100.25H28.6021C28.7835 100.25 28.9632 100.214 29.1308 100.145C29.2985 100.076 29.4508 99.974 29.5791 99.8457C29.7074 99.7174 29.8091 99.5651 29.8785 99.3974C29.9478 99.2298 29.9835 99.0501 29.9833 98.8687V78.1371C29.9832 77.925 29.9344 77.7159 29.8406 77.5257C29.7468 77.3355 29.6106 77.1694 29.4424 77.0402H29.4438ZM50.8103 97.4874H40.417V66.7196L45.6136 62.7349L50.8103 66.7196V97.4874ZM53.0333 64.9433C53.2016 65.0721 53.3379 65.2379 53.4316 65.4279C53.5254 65.6179 53.5741 65.8269 53.574 66.0388V98.869C53.574 99.2354 53.4285 99.5867 53.1695 99.8457C52.9104 100.105 52.5591 100.25 52.1928 100.25H39.0352C38.6688 100.25 38.3175 100.105 38.0585 99.8457C37.7994 99.5867 37.6539 99.2354 37.6539 98.869V66.0388C37.6536 65.8268 37.7023 65.6177 37.7962 65.4277C37.89 65.2376 38.0265 65.0719 38.195 64.9433L44.7728 59.8967C45.0145 59.7124 45.31 59.6126 45.6139 59.6126C45.9178 59.6126 46.2133 59.7124 46.4549 59.8967L53.0335 64.9433H53.0333ZM74.398 97.4874H64.0051V52.8072L69.2017 48.8223L74.3984 52.8072V97.4874H74.398ZM76.6192 51.0291C76.7874 51.1582 76.9237 51.3242 77.0175 51.5144C77.1113 51.7046 77.1601 51.9139 77.1601 52.1259V98.869C77.1603 99.0505 77.1246 99.2302 77.0553 99.3978C76.9859 99.5655 76.8842 99.7178 76.7559 99.8461C76.6276 99.9744 76.4753 100.076 76.3076 100.145C76.14 100.215 75.9603 100.25 75.7788 100.25H62.6227C62.2563 100.25 61.905 100.105 61.646 99.8457C61.3869 99.5867 61.2414 99.2354 61.2414 98.869V52.1263C61.2418 51.9143 61.2908 51.7051 61.3847 51.515C61.4786 51.3248 61.6148 51.1587 61.7829 51.0295L68.3605 45.9846C68.6018 45.7994 68.8975 45.699 69.2017 45.699C69.5059 45.699 69.8015 45.7994 70.0428 45.9846L76.6192 51.0291ZM97.9879 97.4874H87.594V41.2315L92.7908 37.2468L97.9879 41.2315V97.4874ZM100.21 39.4546C100.378 39.5834 100.515 39.7493 100.609 39.9394C100.702 40.1295 100.751 40.3387 100.75 40.5506V98.869C100.751 99.0505 100.715 99.2302 100.646 99.3979C100.576 99.5655 100.475 99.7179 100.346 99.8462C100.218 99.9745 100.066 100.076 99.898 100.146C99.7303 100.215 99.5506 100.25 99.3692 100.25H86.212C86.0305 100.25 85.8508 100.215 85.6832 100.145C85.5155 100.076 85.3632 99.9744 85.2349 99.8461C85.1066 99.7178 85.0049 99.5655 84.9355 99.3978C84.8662 99.2302 84.8306 99.0505 84.8307 98.869V40.5506C84.8305 40.3387 84.8792 40.1295 84.9731 39.9395C85.067 39.7495 85.2035 39.5837 85.372 39.4552L91.9496 34.4094C92.1913 34.225 92.4868 34.1251 92.7908 34.1251C93.0947 34.1251 93.3903 34.225 93.6319 34.4094L100.21 39.4546Z" fill="#231F20"/>
<path fill-rule="evenodd" clip-rule="evenodd" d="M13.9756 13.3615C13.9758 14.7157 14.3775 16.0395 15.13 17.1655C15.8826 18.2914 16.952 19.1689 18.2032 19.6871C19.4544 20.2053 20.8312 20.3408 22.1594 20.0766C23.4877 19.8123 24.7077 19.1602 25.6654 18.2026C26.623 17.245 27.2752 16.025 27.5394 14.6967C27.8037 13.3685 27.6682 11.9918 27.1501 10.7405C26.632 9.48931 25.7544 8.41981 24.6285 7.66727C23.5026 6.91473 22.1788 6.51294 20.8246 6.5127C19.0087 6.51463 17.2678 7.23681 15.9838 8.52078C14.6998 9.80475 13.9776 11.5456 13.9756 13.3615Z" fill="#00ABEA"/>
<path fill-rule="evenodd" clip-rule="evenodd" d="M22.0249 74.8315L16.8281 78.8185V97.4875H27.2214V78.8185L22.0249 74.8315Z" fill="#00ABEA"/>
<path fill-rule="evenodd" clip-rule="evenodd" d="M64.0049 52.8074V97.4876H74.3982V52.8074L69.2014 48.8225L64.0049 52.8074Z" fill="#00ABEA"/>
</svg>
