<svg width="104" height="104" viewBox="0 0 104 104" fill="none" xmlns="http://www.w3.org/2000/svg">
<path fill-rule="evenodd" clip-rule="evenodd" d="M70.8809 74.1962C70.6846 74.1957 70.4929 74.1371 70.3299 74.0277C70.167 73.9183 70.0401 73.763 69.9653 73.5816C69.8906 73.4001 69.8713 73.2006 69.9098 73.0081C69.9484 72.8157 70.0432 72.639 70.1821 72.5004C70.3211 72.3618 70.498 72.2675 70.6905 72.2293C70.8831 72.1912 71.0826 72.211 71.2639 72.2862C71.4451 72.3615 71.6001 72.4887 71.709 72.652C71.818 72.8152 71.8762 73.007 71.8762 73.2033C71.8756 73.4669 71.7704 73.7194 71.5838 73.9055C71.3972 74.0917 71.1444 74.1962 70.8809 74.1962ZM78.6338 71.4961H74.2223C73.8347 70.7383 73.2015 70.1343 72.4263 69.7829V61.1442C72.4263 60.7779 72.2807 60.4265 72.0217 60.1675C71.7627 59.9085 71.4114 59.7629 71.045 59.7629C70.6787 59.7629 70.3274 59.9085 70.0683 60.1675C69.8093 60.4265 69.6638 60.7779 69.6638 61.1442V69.6551C69.0543 69.8643 68.5089 70.2268 68.08 70.7078C67.6512 71.1888 67.3535 71.7721 67.2154 72.4016C67.0773 73.031 67.1036 73.6854 67.2917 74.3017C67.4798 74.918 67.8234 75.4756 68.2894 75.9206C68.7555 76.3657 69.3282 76.6833 69.9525 76.8429C70.5768 77.0025 71.2317 76.9986 71.8542 76.8318C72.4766 76.6649 73.0456 76.3407 73.5064 75.8902C73.9672 75.4397 74.3042 74.8782 74.4851 74.2598H78.6344C79.0007 74.2598 79.352 74.1143 79.6111 73.8552C79.8701 73.5962 80.0156 73.2449 80.0156 72.8785C80.0156 72.5122 79.8701 72.1609 79.6111 71.9018C79.352 71.6428 79.0007 71.4973 78.6344 71.4973L78.6338 71.4961ZM61.542 61.0961C61.6703 61.2244 61.7721 61.3768 61.8415 61.5445C61.9109 61.7122 61.9466 61.8919 61.9466 62.0734C61.9466 62.2549 61.9108 62.4346 61.8413 62.6022C61.7718 62.7699 61.67 62.9222 61.5416 63.0505C61.4133 63.1788 61.2609 63.2806 61.0932 63.35C60.9255 63.4194 60.7458 63.4551 60.5643 63.4551C60.3828 63.4551 60.2031 63.4193 60.0354 63.3498C59.8678 63.2803 59.7155 63.1785 59.5871 63.0501L57.7442 61.2066C57.6159 61.0783 57.5141 60.926 57.4446 60.7583C57.3752 60.5907 57.3394 60.4111 57.3394 60.2296C57.3393 60.0482 57.375 59.8685 57.4445 59.7009C57.5139 59.5332 57.6156 59.3809 57.7439 59.2526C57.8722 59.1243 58.0245 59.0225 58.1921 58.953C58.3597 58.8835 58.5394 58.8478 58.7208 58.8478C58.9022 58.8477 59.0819 58.8834 59.2496 58.9529C59.4172 59.0223 59.5695 59.124 59.6978 59.2523L61.542 61.0961ZM56.1472 73.7934H53.5405C53.1742 73.7934 52.8229 73.6479 52.5638 73.3888C52.3048 73.1298 52.1593 72.7785 52.1593 72.4121C52.1593 72.0458 52.3048 71.6945 52.5638 71.4355C52.8229 71.1764 53.1742 71.0309 53.5405 71.0309H56.1478C56.5142 71.0309 56.8655 71.1764 57.1245 71.4355C57.3836 71.6945 57.5291 72.0458 57.5291 72.4121C57.5291 72.7785 57.3836 73.1298 57.1245 73.3888C56.8655 73.6479 56.5142 73.7934 56.1478 73.7934H56.1472ZM61.3111 81.8699C61.4397 81.998 61.5417 82.1502 61.6113 82.3179C61.681 82.4855 61.7168 82.6653 61.7168 82.8468C61.7168 83.0283 61.681 83.208 61.6113 83.3757C61.5417 83.5433 61.4397 83.6956 61.3111 83.8237L59.4681 85.6671C59.209 85.9262 58.8576 86.0719 58.4911 86.0719C58.1246 86.072 57.7731 85.9265 57.514 85.6674C57.2548 85.4083 57.1091 85.0568 57.1091 84.6904C57.109 84.3239 57.2545 83.9724 57.5136 83.7132L59.3578 81.8699C59.6171 81.6111 59.9685 81.4657 60.3349 81.4657C60.7012 81.4657 61.0526 81.6111 61.3119 81.8699H61.3111ZM72.055 87.2638V89.8709C72.055 90.2373 71.9094 90.5886 71.6504 90.8476C71.3914 91.1067 71.04 91.2522 70.6737 91.2522C70.3074 91.2522 69.9561 91.1067 69.697 90.8476C69.438 90.5886 69.2925 90.2373 69.2925 89.8709V87.2636C69.2925 86.8973 69.438 86.546 69.697 86.2869C69.9561 86.0279 70.3074 85.8824 70.6737 85.8824C71.04 85.8824 71.3914 86.0279 71.6504 86.2869C71.9094 86.546 72.055 86.8975 72.055 87.2638ZM83.927 83.944C84.0553 84.0723 84.1571 84.2246 84.2265 84.3922C84.296 84.5599 84.3317 84.7395 84.3317 84.921C84.3317 85.1024 84.296 85.2821 84.2265 85.4498C84.1571 85.6174 84.0553 85.7697 83.927 85.898C83.7987 86.0263 83.6464 86.1281 83.4787 86.1975C83.3111 86.267 83.1314 86.3027 82.95 86.3027C82.7685 86.3027 82.5889 86.267 82.4212 86.1975C82.2536 86.1281 82.1012 86.0263 81.9729 85.898L80.1294 84.0547C79.8703 83.7956 79.7247 83.4441 79.7247 83.0777C79.7247 82.7113 79.8703 82.3599 80.1294 82.1008C80.3885 81.8417 80.7399 81.6961 81.1063 81.6961C81.4727 81.6961 81.8241 81.8417 82.0832 82.1008L83.927 83.944ZM89.5129 72.7376C89.5129 73.1039 89.3674 73.4552 89.1084 73.7142C88.8493 73.9733 88.498 74.1188 88.1317 74.1188H85.524C85.1576 74.1188 84.8063 73.9733 84.5473 73.7142C84.2883 73.4552 84.1427 73.1039 84.1427 72.7376C84.1427 72.3712 84.2883 72.0199 84.5473 71.7609C84.8063 71.5018 85.1576 71.3563 85.524 71.3563H88.1311C88.4973 71.3566 88.8485 71.5023 89.1074 71.7612C89.3664 72.0202 89.512 72.3713 89.5123 72.7376H89.5129ZM80.3605 63.2794C80.1019 63.0202 79.9566 62.6689 79.9566 62.3026C79.9566 61.9364 80.1019 61.5851 80.3605 61.3258L82.2043 59.483C82.3326 59.3547 82.4848 59.253 82.6524 59.1836C82.82 59.1141 82.9996 59.0784 83.181 59.0784C83.3624 59.0783 83.542 59.114 83.7096 59.1834C83.8772 59.2528 84.0295 59.3546 84.1578 59.4828C84.286 59.6111 84.3878 59.7633 84.4572 59.9309C84.5267 60.0985 84.5624 60.2781 84.5624 60.4595C84.5624 60.6409 84.5267 60.8205 84.4573 60.9881C84.3879 61.1557 84.2862 61.308 84.158 61.4363L82.3144 63.2794C82.1861 63.4078 82.0338 63.5096 81.8662 63.579C81.6986 63.6485 81.5189 63.6842 81.3375 63.6842C81.156 63.6842 80.9764 63.6485 80.8087 63.579C80.6411 63.5096 80.4888 63.4078 80.3605 63.2794ZM69.6164 57.8861V55.2785C69.6164 54.9122 69.762 54.5609 70.021 54.3019C70.28 54.0428 70.6314 53.8973 70.9977 53.8973C71.364 53.8973 71.7153 54.0428 71.9744 54.3019C72.2334 54.5609 72.3789 54.9122 72.3789 55.2785V57.8857C72.3789 58.252 72.2334 58.6033 71.9744 58.8623C71.7153 59.1214 71.364 59.2669 70.9977 59.2669C70.6314 59.2669 70.28 59.1214 70.021 58.8623C69.762 58.6033 69.6164 58.252 69.6164 57.8857V57.8861ZM70.8352 92.5632C74.7883 92.5632 78.6527 91.3909 81.9397 89.1947C85.2266 86.9984 87.7884 83.8768 89.3012 80.2245C90.814 76.5723 91.2099 72.5535 90.4386 68.6763C89.6674 64.7991 87.7638 61.2377 84.9685 58.4424C82.1732 55.6471 78.6118 53.7434 74.7346 52.9722C70.8574 52.201 66.8385 52.5968 63.1863 54.1096C59.5341 55.6224 56.4124 58.1843 54.2162 61.4712C52.0199 64.7581 50.8477 68.6225 50.8477 72.5757C50.8535 77.8749 52.9612 82.9554 56.7083 86.7025C60.4554 90.4497 65.536 92.5574 70.8352 92.5632ZM70.8352 49.8236C66.3354 49.8233 61.9365 51.1574 58.1949 53.6572C54.4532 56.157 51.5369 59.7101 49.8147 63.8673C48.0924 68.0246 47.6416 72.5991 48.5193 77.0125C49.397 81.426 51.5636 85.48 54.7454 88.662C57.9271 91.844 61.9809 94.0111 66.3943 94.8891C70.8076 95.7672 75.3822 95.3168 79.5396 93.5949C83.697 91.8731 87.2504 88.9571 89.7505 85.2157C92.2506 81.4743 93.5851 77.0755 93.5852 72.5757C93.5785 66.5439 91.1795 60.761 86.9146 56.4957C82.6496 52.2304 76.867 49.8309 70.8352 49.8236ZM70.8352 97.9868C75.861 97.9868 80.7739 96.4965 84.9528 93.7043C89.1316 90.9121 92.3885 86.9435 94.3118 82.3002C96.2351 77.657 96.7383 72.5477 95.7579 67.6184C94.7774 62.6892 92.3572 58.1614 88.8034 54.6076C85.2497 51.0538 80.7219 48.6337 75.7926 47.6532C70.8634 46.6727 65.7541 47.1759 61.1108 49.0992C56.4676 51.0225 52.499 54.2795 49.7068 58.4583C46.9146 62.6371 45.4243 67.5501 45.4243 72.5759C45.4317 79.313 48.1113 85.772 52.8752 90.5359C57.6391 95.2997 64.0981 97.9793 70.8352 97.9868ZM7.75513 84.5145C7.75653 86.2117 8.43119 87.8391 9.63106 89.0394C10.8309 90.2397 12.458 90.915 14.1552 90.917H49.4662C45.0706 85.8175 42.6554 79.3073 42.6616 72.5748C42.6616 57.0386 55.3014 44.3992 70.836 44.3994C77.515 44.3937 83.9768 46.771 89.0596 51.1039V32.7705H7.75513V84.5145ZM14.1552 12.9215H16.3756V13.875C16.3772 15.4538 17.005 16.9674 18.1214 18.0838C19.2377 19.2002 20.7514 19.8281 22.3302 19.8298C22.6965 19.8298 23.0478 19.6843 23.3069 19.4252C23.5659 19.1662 23.7114 18.8149 23.7114 18.4485C23.7114 18.0822 23.5659 17.7309 23.3069 17.4718C23.0478 17.2128 22.6965 17.0673 22.3302 17.0673C21.4838 17.0664 20.6725 16.7298 20.0741 16.1313C19.4757 15.5328 19.1393 14.7213 19.1387 13.875V9.20492C19.1353 8.78368 19.2154 8.36594 19.3742 7.97579C19.5331 7.58564 19.7677 7.23081 20.0643 6.93175C20.361 6.63269 20.714 6.39533 21.1028 6.23334C21.4917 6.07136 21.9088 5.98796 22.3301 5.98796C22.7513 5.98796 23.1684 6.07136 23.5573 6.23334C23.9461 6.39533 24.2991 6.63269 24.5958 6.93175C24.8925 7.23081 25.127 7.58564 25.2859 7.97579C25.4448 8.36594 25.5248 8.78368 25.5215 9.20492V10.1584H24.0151C23.6488 10.1584 23.2974 10.3039 23.0384 10.563C22.7794 10.822 22.6338 11.1733 22.6338 11.5396C22.6338 11.906 22.7794 12.2573 23.0384 12.5163C23.2974 12.7754 23.6488 12.9209 24.0151 12.9209H42.4515V13.8744C42.4531 15.4531 43.0809 16.9668 44.1972 18.0832C45.3135 19.1996 46.8272 19.8275 48.4059 19.8292C48.7723 19.8292 49.1236 19.6836 49.3826 19.4246C49.6417 19.1656 49.7872 18.8143 49.7872 18.4479C49.7872 18.0816 49.6417 17.7303 49.3826 17.4712C49.1236 17.2122 48.7723 17.0667 48.4059 17.0667C47.56 17.0653 46.7492 16.7285 46.1512 16.1302C45.5533 15.5319 45.217 14.7209 45.2161 13.875V9.20492C45.2127 8.78368 45.2928 8.36594 45.4516 7.97579C45.6105 7.58564 45.8451 7.23081 46.1417 6.93175C46.4384 6.63269 46.7914 6.39533 47.1802 6.23334C47.5691 6.07136 47.9862 5.98796 48.4075 5.98796C48.8287 5.98796 49.2458 6.07136 49.6347 6.23334C50.0235 6.39533 50.3765 6.63269 50.6732 6.93175C50.9698 7.23081 51.2044 7.58564 51.3633 7.97579C51.5221 8.36594 51.6022 8.78368 51.5989 9.20492V10.1584H50.103C49.9216 10.1584 49.742 10.1941 49.5745 10.2635C49.4069 10.3329 49.2546 10.4347 49.1263 10.563C48.9981 10.6912 48.8963 10.8435 48.8269 11.0111C48.7575 11.1786 48.7218 11.3583 48.7218 11.5396C48.7218 11.721 48.7575 11.9006 48.8269 12.0682C48.8963 12.2358 48.9981 12.3881 49.1263 12.5163C49.2546 12.6446 49.4069 12.7463 49.5745 12.8158C49.742 12.8852 49.9216 12.9209 50.103 12.9209H68.5295V13.8744C68.5311 15.4531 69.159 16.9668 70.2754 18.0832C71.3917 19.1996 72.9053 19.8275 74.4841 19.8292C74.8505 19.8292 75.2018 19.6836 75.4608 19.4246C75.7199 19.1656 75.8654 18.8143 75.8654 18.4479C75.8654 18.0816 75.7199 17.7303 75.4608 17.4712C75.2018 17.2122 74.8505 17.0667 74.4841 17.0667C73.6377 17.066 72.8261 16.7296 72.2275 16.1312C71.6289 15.5328 71.2922 14.7214 71.2912 13.875V9.20492C71.2912 8.78581 71.3738 8.3708 71.5341 7.98359C71.6945 7.59638 71.9296 7.24455 72.226 6.94819C72.5223 6.65183 72.8742 6.41675 73.2614 6.25636C73.6486 6.09597 74.0636 6.01342 74.4827 6.01342C74.9018 6.01342 75.3168 6.09597 75.704 6.25636C76.0913 6.41675 76.4431 6.65183 76.7394 6.94819C77.0358 7.24455 77.2709 7.59638 77.4313 7.98359C77.5917 8.3708 77.6742 8.78581 77.6742 9.20492V10.1584H76.1662C75.9848 10.1584 75.8052 10.1941 75.6376 10.2635C75.47 10.3329 75.3178 10.4347 75.1895 10.563C75.0613 10.6912 74.9595 10.8435 74.8901 11.0111C74.8207 11.1786 74.785 11.3583 74.785 11.5396C74.785 11.721 74.8207 11.9006 74.8901 12.0682C74.9595 12.2358 75.0613 12.3881 75.1895 12.5163C75.3178 12.6446 75.47 12.7463 75.6376 12.8158C75.8052 12.8852 75.9848 12.9209 76.1662 12.9209H82.6561C84.3535 12.9228 85.9808 13.5979 87.181 14.7982C88.3812 15.9984 89.0563 17.6258 89.0581 19.3232V30.0076H7.75513V19.3232C7.75685 17.6262 8.43164 15.9991 9.63147 14.799C10.8313 13.5989 12.4582 12.9237 14.1552 12.9215ZM91.8219 53.7968V19.3238C91.8188 16.8938 90.8521 14.5642 89.1337 12.846C87.4154 11.1278 85.0857 10.1612 82.6556 10.1584H80.4379V9.20492C80.4425 8.42001 80.2919 7.64194 79.9947 6.91546C79.6975 6.18897 79.2596 5.52841 78.7062 4.97177C78.1528 4.41513 77.4948 3.97338 76.7701 3.67195C76.0453 3.37051 75.2681 3.21533 74.4832 3.21533C73.6983 3.21533 72.9211 3.37051 72.1964 3.67195C71.4716 3.97338 70.8137 4.41513 70.2602 4.97177C69.7068 5.52841 69.269 6.18897 68.9718 6.91546C68.6746 7.64194 68.5239 8.42001 68.5285 9.20492V10.1584H54.3613V9.20492C54.3613 7.62561 53.734 6.11098 52.6172 4.99424C51.5005 3.87749 49.9859 3.25011 48.4065 3.25011C46.8272 3.25011 45.3126 3.87749 44.1958 4.99424C43.0791 6.11098 42.4517 7.62561 42.4517 9.20492V10.1584H28.2848V9.20492C28.2848 8.42295 28.1308 7.64864 27.8315 6.92619C27.5323 6.20375 27.0936 5.54732 26.5407 4.99438C25.9878 4.44144 25.3313 4.00283 24.6089 3.70358C23.8864 3.40433 23.1121 3.25031 22.3302 3.25031C21.5482 3.25031 20.7739 3.40433 20.0514 3.70358C19.329 4.00283 18.6726 4.44144 18.1196 4.99438C17.5667 5.54732 17.1281 6.20375 16.8288 6.92619C16.5296 7.64864 16.3756 8.42295 16.3756 9.20492V10.1584H14.1552C11.7254 10.1614 9.39607 11.1281 7.6781 12.8463C5.96013 14.5645 4.99384 16.894 4.99121 19.3238V84.5145C4.99347 86.9445 5.95959 89.2744 7.6776 90.993C9.39561 92.7115 11.7252 93.6784 14.1552 93.6814H52.1924C57.3316 98.2409 63.9652 100.756 70.8354 100.75C86.3704 100.75 99.0088 88.1106 99.0088 72.5767C99.0147 65.6439 96.4546 58.9543 91.8219 53.7968Z" fill="#231F20"/>
<path fill-rule="evenodd" clip-rule="evenodd" d="M68.5279 12.9215H50.1014C49.735 12.9215 49.3837 12.7759 49.1247 12.5169C48.8656 12.2579 48.7201 11.9065 48.7201 11.5402C48.7201 11.1739 48.8656 10.8225 49.1247 10.5635C49.3837 10.3045 49.735 10.159 50.1014 10.159H51.5972V9.20549C51.6005 8.78424 51.5205 8.3665 51.3616 7.97636C51.2027 7.58621 50.9682 7.23137 50.6715 6.93231C50.3748 6.63326 50.0219 6.39589 49.633 6.23391C49.2441 6.07192 48.827 5.98853 48.4058 5.98853C47.9845 5.98853 47.5674 6.07192 47.1786 6.23391C46.7897 6.39589 46.4367 6.63326 46.1401 6.93231C45.8434 7.23137 45.6088 7.58621 45.45 7.97636C45.2911 8.3665 45.211 8.78424 45.2144 9.20549V13.8749C45.2153 14.7211 45.5519 15.5324 46.1502 16.1308C46.7486 16.7292 47.5599 17.0657 48.4061 17.0666C48.7724 17.0666 49.1237 17.2122 49.3828 17.4712C49.6418 17.7302 49.7873 18.0815 49.7873 18.4479C49.7873 18.8142 49.6418 19.1655 49.3828 19.4246C49.1237 19.6836 48.7724 19.8291 48.4061 19.8291C46.8273 19.8275 45.3137 19.1995 44.1974 18.0831C43.0811 16.9667 42.4532 15.4531 42.4517 13.8743V12.9215H24.0152C23.6489 12.9215 23.2976 12.7759 23.0386 12.5169C22.7795 12.2579 22.634 11.9065 22.634 11.5402C22.634 11.1739 22.7795 10.8225 23.0386 10.5635C23.2976 10.3045 23.6489 10.159 24.0152 10.159H25.5216V9.20549C25.525 8.78424 25.4449 8.3665 25.286 7.97636C25.1272 7.58621 24.8926 7.23137 24.5959 6.93231C24.2993 6.63326 23.9463 6.39589 23.5574 6.23391C23.1686 6.07192 22.7515 5.98853 22.3302 5.98853C21.909 5.98853 21.4919 6.07192 21.103 6.23391C20.7141 6.39589 20.3612 6.63326 20.0645 6.93231C19.7678 7.23137 19.5333 7.58621 19.3744 7.97636C19.2155 8.3665 19.1355 8.78424 19.1388 9.20549V13.8749C19.1396 14.7211 19.4761 15.5323 20.0743 16.1307C20.6726 16.7291 21.4838 17.0657 22.3299 17.0666C22.6962 17.0666 23.0476 17.2122 23.3066 17.4712C23.5656 17.7302 23.7112 18.0815 23.7112 18.4479C23.7112 18.8142 23.5656 19.1655 23.3066 19.4246C23.0476 19.6836 22.6962 19.8291 22.3299 19.8291C20.7512 19.8275 19.2377 19.1996 18.1214 18.0834C17.005 16.9671 16.3771 15.4536 16.3753 13.8749V12.9215H14.1549C12.4578 12.9236 10.8308 13.5989 9.631 14.7992C8.43116 15.9994 7.75644 17.6266 7.75488 19.3238V30.0081H89.0587V19.3238C89.0569 17.6262 88.3817 15.9987 87.1813 14.7984C85.9809 13.5982 84.3533 12.9231 82.6558 12.9215H76.166C75.7996 12.9215 75.4483 12.7759 75.1893 12.5169C74.9302 12.2579 74.7847 11.9065 74.7847 11.5402C74.7847 11.1739 74.9302 10.8225 75.1893 10.5635C75.4483 10.3045 75.7996 10.159 76.166 10.159H77.6752V9.20488C77.6752 8.78576 77.5926 8.37075 77.4322 7.98354C77.2719 7.59633 77.0368 7.2445 76.7404 6.94815C76.4441 6.65179 76.0922 6.4167 75.705 6.25632C75.3178 6.09593 74.9028 6.01338 74.4837 6.01338C74.0646 6.01338 73.6496 6.09593 73.2623 6.25632C72.8751 6.4167 72.5233 6.65179 72.227 6.94815C71.9306 7.2445 71.6955 7.59633 71.5351 7.98354C71.3747 8.37075 71.2922 8.78576 71.2922 9.20488V13.8749C71.2931 14.7209 71.6295 15.5319 72.2276 16.1302C72.8256 16.7285 73.6365 17.0653 74.4825 17.0666C74.8488 17.0666 75.2001 17.2122 75.4592 17.4712C75.7182 17.7302 75.8637 18.0815 75.8637 18.4479C75.8637 18.8142 75.7182 19.1655 75.4592 19.4246C75.2001 19.6836 74.8488 19.8291 74.4825 19.8291C72.9037 19.8275 71.39 19.1995 70.2737 18.0832C69.1573 16.9668 68.5295 15.4531 68.5279 13.8743V12.9215Z" fill="#00ABEA"/>
<path fill-rule="evenodd" clip-rule="evenodd" d="M70.8358 49.8235C75.3356 49.8232 79.7345 51.1573 83.4761 53.657C87.2177 56.1568 90.134 59.71 91.8563 63.8672C93.5785 68.0244 94.0293 72.599 93.1517 77.0124C92.274 81.4258 90.1073 85.4799 86.9256 88.6619C83.7439 91.8439 79.69 94.0109 75.2767 94.889C70.8633 95.767 66.2887 95.3166 62.1313 93.5948C57.974 91.8729 54.4205 88.9569 51.9205 85.2155C49.4204 81.4741 48.0859 77.0753 48.0858 72.5755C48.0923 66.5436 50.4911 60.7607 54.7561 56.4953C59.0211 52.2299 64.8039 49.8305 70.8358 49.8235ZM96.2467 72.5755C96.2467 67.5497 94.7564 62.6367 91.9642 58.4579C89.172 54.2791 85.2033 51.0221 80.5601 49.0989C75.9169 47.1756 70.8076 46.6723 65.8783 47.6528C60.9491 48.6333 56.4213 51.0535 52.8675 54.6073C49.3137 58.161 46.8936 62.6888 45.9131 67.6181C44.9326 72.5473 45.4358 77.6566 47.3591 82.2998C49.2824 86.9431 52.5394 90.9117 56.7182 93.7039C60.897 96.4961 65.8099 97.9864 70.8358 97.9864C77.5727 97.979 84.0316 95.2996 88.7954 90.5359C93.5593 85.7723 96.239 79.3135 96.2467 72.5765V72.5755Z" fill="#00ABEA"/>
</svg>
